<svg width="694" height="439" viewBox="0 0 694 439" fill="none" xmlns="http://www.w3.org/2000/svg">
<path d="M677.319 152.601C669.439 124.223 616.906 155.089 616.906 155.089L630.653 130.153C632.286 127.681 633.752 125.061 635.007 122.254C641.911 106.815 641.82 90.3001 634.971 75.9171C633.088 67.1851 627.385 54.7051 611.652 41.0281C581.884 15.1501 482.072 -2.55094 453.179 1.37906C424.286 5.31006 479.445 17.4651 479.445 17.4651L475.073 17.4271C390.92 8.50506 306.249 7.35706 222.24 9.09606C201.174 9.53206 180.044 10.2231 159.418 13.7821C153.483 14.8061 147.101 16.3701 143.568 21.1571C127.885 42.4231 192.037 44.5011 202.1 44.0911C158.037 49.8181 109.077 51.5741 68.0982 68.6031C62.3802 70.9791 56.7162 73.7951 52.4082 78.1911C48.1002 82.5871 45.2932 88.8241 46.2642 95.0921C49.0832 113.289 74.1542 118.683 88.3702 122.724C88.3702 122.724 6.65019 177.063 16.2812 204.646C20.2622 216.048 26.1962 228.051 37.1932 239.867C30.9252 247.736 25.4062 255.993 21.1402 264.723C18.5302 270.063 15.1112 277.379 18.0322 283.526C32.9162 314.851 258.645 422.382 439.527 391.691C487.578 383.538 535.434 370.056 577.558 346.212C619.477 322.483 662.194 283.288 672.754 233.864C673.102 232.235 673.357 230.656 673.531 229.12C680.084 206.343 683.911 176.342 677.319 152.601Z" fill="#DAE0D3"/>
<path d="M531.093 121.593C531.093 121.593 532.113 118.532 537.215 117.511C542.317 116.491 548.44 122.103 548.44 122.103C548.44 122.103 552.522 113.94 556.603 113.429C560.685 112.919 565.277 116.49 565.277 116.49" stroke="#263238" stroke-miterlimit="10"/>
<path d="M517.828 140.981C517.828 140.981 518.848 137.92 523.95 136.899C529.052 135.879 535.175 141.491 535.175 141.491C535.175 141.491 539.257 133.328 543.338 132.817C547.42 132.307 552.012 135.878 552.012 135.878" stroke="#263238" stroke-miterlimit="10"/>
<path d="M566.298 141.103C566.298 141.103 567.075 138.773 570.958 137.996C574.842 137.219 579.502 141.491 579.502 141.491C579.502 141.491 582.609 135.277 585.716 134.889C588.823 134.501 592.318 137.219 592.318 137.219" stroke="#263238" stroke-miterlimit="10"/>
<path d="M622.992 161.645C622.992 161.645 623.501 160.117 626.048 159.607C628.595 159.098 631.651 161.899 631.651 161.899C631.651 161.899 633.689 157.824 635.726 157.569C637.763 157.314 640.056 159.097 640.056 159.097" stroke="#263238" stroke-miterlimit="10"/>
<path d="M351.273 116.186C346.001 92.4989 318.698 74.8449 294.899 78.2279C288.968 79.0709 283.197 81.2899 278.741 85.3899C272.664 90.9809 274.106 97.3279 271.097 104.256C270.262 106.179 268.634 107.887 266.564 108.242C260.645 109.257 255.877 103.357 249.884 103.313C245.403 103.28 239.675 105.756 237.175 109.625C234.848 113.228 236.47 119.516 232.281 121.908C227.596 124.583 221.899 119.494 216.835 121.336C210.542 123.624 213.403 128.201 211.114 131.061C208.826 133.921 204.249 132.777 197.956 132.205C191.663 131.633 186.515 139.07 186.515 139.07H385.026C385.026 139.07 386.742 136.21 379.305 124.768C371.868 113.326 361.571 121.336 356.994 121.336C352.421 121.335 351.275 116.195 351.273 116.186Z" stroke="#263238" stroke-miterlimit="10"/>
<path d="M406.557 78.142C404.442 68.639 393.488 61.557 383.94 62.914C381.56 63.252 379.245 64.143 377.457 65.787C375.019 68.03 375.597 70.576 374.39 73.356C374.055 74.127 373.402 74.812 372.571 74.955C370.197 75.362 368.283 72.995 365.879 72.978C364.081 72.965 361.783 73.958 360.78 75.51C359.846 76.955 360.497 79.478 358.817 80.438C356.938 81.511 354.652 79.47 352.62 80.208C350.095 81.126 351.243 82.962 350.325 84.11C349.407 85.258 347.571 84.799 345.046 84.569C342.521 84.34 340.456 87.323 340.456 87.323H420.096C420.096 87.323 420.784 86.175 417.801 81.585C414.817 76.995 410.686 80.208 408.85 80.208C407.018 80.208 406.558 78.146 406.557 78.142Z" stroke="#263238" stroke-miterlimit="10"/>
<path d="M576.458 194.599C574.343 185.096 563.389 178.014 553.841 179.371C551.461 179.709 549.146 180.6 547.358 182.245C544.92 184.488 545.498 187.034 544.291 189.814C543.956 190.585 543.303 191.27 542.473 191.413C540.099 191.82 538.185 189.453 535.781 189.435C533.983 189.422 531.685 190.415 530.682 191.967C529.748 193.412 530.399 195.935 528.719 196.895C526.84 197.968 524.554 195.927 522.522 196.665C519.997 197.583 521.145 199.419 520.227 200.567C519.309 201.715 517.473 201.256 514.948 201.026C512.423 200.796 510.358 203.78 510.358 203.78H589.998C589.998 203.78 590.687 202.632 587.703 198.042C584.719 193.452 580.588 196.665 578.752 196.665C576.919 196.665 576.459 194.603 576.458 194.599Z" stroke="#263238" stroke-miterlimit="10"/>
<path d="M448.713 184.2C445.473 169.645 428.696 158.797 414.072 160.875C410.427 161.393 406.881 162.757 404.143 165.276C400.409 168.712 401.295 172.612 399.446 176.869C398.933 178.051 397.932 179.1 396.661 179.319C393.024 179.943 390.094 176.317 386.411 176.29C383.657 176.27 380.137 177.791 378.601 180.169C377.171 182.383 378.168 186.247 375.594 187.717C372.715 189.361 369.215 186.234 366.103 187.365C362.236 188.771 363.994 191.583 362.588 193.341C361.182 195.099 358.37 194.396 354.503 194.044C350.636 193.692 347.472 198.262 347.472 198.262H469.455C469.455 198.262 470.51 196.504 465.94 189.474C461.37 182.443 455.042 187.365 452.23 187.365C449.418 187.365 448.714 184.206 448.713 184.2Z" stroke="#263238" stroke-miterlimit="10"/>
<path d="M477.403 351.898C477.403 351.898 470.112 344.343 472.158 344.571C474.204 344.798 478.034 350.447 478.034 350.447C478.034 350.447 478.087 337.993 479.906 340.722C481.725 343.451 479.49 350.499 479.49 350.499C479.49 350.499 484.69 342.386 484.679 343.712C484.643 347.811 480.672 351.018 480.672 351.018C480.672 351.018 488.999 344.849 487.635 347.351C486.271 349.852 480.946 352.216 480.946 352.216C480.946 352.216 490.545 350.28 487.135 351.644C483.724 353.008 480.478 353.945 480.478 353.945H477.826C477.826 353.945 468.761 349.397 472.172 350.079C475.584 350.761 477.403 351.898 477.403 351.898Z" fill="#263238"/>
<path d="M573.691 328.259C573.691 328.259 568.018 322.38 569.61 322.557C571.203 322.734 574.183 327.13 574.183 327.13C574.183 327.13 574.223 317.438 575.639 319.562C577.055 321.686 575.316 327.171 575.316 327.171C575.316 327.171 579.362 320.857 579.353 321.889C579.325 325.079 576.235 327.574 576.235 327.574C576.235 327.574 582.716 322.773 581.654 324.72C580.592 326.667 576.449 328.506 576.449 328.506C576.449 328.506 583.919 326.999 581.264 328.061C578.61 329.123 576.084 329.852 576.084 329.852H574.021C574.021 329.852 566.966 326.313 569.62 326.844C572.275 327.374 573.691 328.259 573.691 328.259Z" fill="#263238"/>
<path d="M663.087 307.169C663.087 307.169 657.413 301.29 659.005 301.467C660.598 301.644 663.578 306.04 663.578 306.04C663.578 306.04 663.619 296.348 665.035 298.472C666.451 300.596 664.711 306.081 664.711 306.081C664.711 306.081 668.758 299.767 668.749 300.799C668.721 303.989 665.631 306.484 665.631 306.484C665.631 306.484 672.111 301.683 671.05 303.63C669.988 305.577 665.845 307.416 665.845 307.416C665.845 307.416 673.316 305.909 670.661 306.971C668.007 308.033 665.481 308.762 665.481 308.762H663.417C663.417 308.762 656.362 305.223 659.017 305.754C661.672 306.284 663.087 307.169 663.087 307.169Z" fill="#263238"/>
<path d="M549.156 355.34C549.156 355.34 542.378 348.317 544.28 348.528C546.183 348.739 549.743 353.991 549.743 353.991C549.743 353.991 549.792 342.414 551.483 344.951C553.174 347.488 551.096 354.04 551.096 354.04C551.096 354.04 555.931 346.498 555.92 347.73C555.887 351.541 552.195 354.521 552.195 354.521C552.195 354.521 559.936 348.787 558.668 351.112C557.4 353.437 552.45 355.635 552.45 355.635C552.45 355.635 561.374 353.835 558.203 355.103C555.032 356.371 552.015 357.242 552.015 357.242H549.549C549.549 357.242 541.122 353.014 544.293 353.648C547.465 354.283 549.156 355.34 549.156 355.34Z" fill="#446622"/>
<path d="M415.027 324.873L355.06 257.642L341.927 268.149L276.185 169.168L218.953 181.92L201.839 149.95L185.204 149.074L153.684 86.9111L106.538 129.927L83.807 121.809L1 206.24" stroke="#263238" stroke-miterlimit="10"/>
<path d="M426.272 337.48L419.985 330.431" stroke="#263238" stroke-miterlimit="10"/>
<path d="M188.222 190.14L183.265 191.482" stroke="#263238" stroke-miterlimit="10"/>
<path d="M218.836 181.848L193.803 188.628" stroke="#263238" stroke-miterlimit="10"/>
<path d="M124.397 153.072L138.414 132.38L137.467 125.282L153.557 92.6301" stroke="#263238" stroke-miterlimit="10"/>
<path d="M118.539 161.719L122.055 156.528" stroke="#263238" stroke-miterlimit="10"/>
<path d="M96.7876 173.96L74.0566 204.782" stroke="#263238" stroke-miterlimit="10"/>
<path d="M84.9404 125.282L90.6194 138.059L103.396 148.469L101.976 166.925L98.8804 171.123" stroke="#263238" stroke-miterlimit="10"/>
<path d="M201.839 149.95L189.994 161.246L185.735 154.148" stroke="#263238" stroke-miterlimit="10"/>
<path d="M680.142 276.434L588.126 211.53L560.192 250.965L525.686 239.463L472.284 314.227L437.777 306.833L420.524 321.621" stroke="#263238" stroke-miterlimit="10"/>
<path d="M588.126 211.53L577.186 259.622L564.284 253.977" stroke="#263238" stroke-miterlimit="10"/>
<path d="M525.981 242.285L498.968 320.906L480.421 317.681" stroke="#263238" stroke-miterlimit="10"/>
<path d="M524.733 236.668C500.787 236.668 481.376 255.948 481.376 279.73C481.376 290.756 485.551 300.813 492.413 308.431C495.553 307.976 501.275 307.663 507.6 309.815C515.981 312.666 521.204 317.338 522.348 318.429H526.233C527.377 317.338 532.6 312.666 540.981 309.815C547.867 307.472 554.042 308.051 556.943 308.554C563.871 300.922 568.09 290.816 568.09 279.73C568.09 255.947 548.679 236.668 524.733 236.668Z" fill="#446622"/>
<path d="M544.916 297.002C543.582 297.647 542.26 298.314 540.955 299.01C539.649 299.724 538.368 300.499 537.167 301.348C536.713 301.662 536.27 301.986 535.827 302.31L542.929 289.079L533.184 304.34C532.197 305.134 531.226 305.945 530.275 306.772C528.701 308.142 527.171 309.538 525.671 310.977L525.176 296.623L535.372 281.098L525.101 294.451L524.658 281.604L523.925 295.979L523.923 295.982L523.925 295.983L523.191 310.391C521.889 309.159 520.564 307.954 519.205 306.772C518.136 305.843 517.048 304.931 515.933 304.045L506.713 288.299L513.485 302.189C513.096 301.906 512.709 301.621 512.313 301.347C511.112 300.499 509.832 299.723 508.525 299.009C507.22 298.313 505.898 297.646 504.564 297.001C501.892 295.719 499.171 294.52 496.36 293.53C499.091 294.687 501.709 296.043 504.266 297.474C505.542 298.194 506.804 298.934 508.045 299.701C509.266 300.474 510.441 301.291 511.557 302.193C513.803 303.971 515.902 305.913 517.922 307.917C519.687 309.67 521.404 311.482 523.041 313.322L522.109 331.609H526.381L525.776 314.065C527.606 311.97 529.554 309.905 531.557 307.917C533.577 305.913 535.675 303.972 537.922 302.193C539.038 301.291 540.212 300.473 541.434 299.701C542.675 298.934 543.936 298.194 545.213 297.474C547.77 296.043 550.388 294.687 553.119 293.53C550.309 294.521 547.587 295.721 544.916 297.002Z" fill="#263238"/>
<path d="M191.842 295.756C191.842 308.129 184.904 309.063 176.345 309.063C167.786 309.063 160.848 308.129 160.848 295.756C160.848 283.383 167.786 257.52 176.345 257.52C184.904 257.519 191.842 283.383 191.842 295.756Z" fill="#446622"/>
<path d="M181.585 301.369L179.021 301.546L185.698 297.045L180.93 299.455L181.585 297.572L179.405 300.226L176.848 301.519L176.645 292.634L177.999 289.346L176.612 291.195L176.494 286.043L180.741 280.381L176.465 284.759L176.206 273.42L175.977 280.677L173.253 277.639L175.933 282.072L175.57 293.567L173.199 292.016L171.038 288.186L171.904 291.17L167.663 288.397L175.52 295.173L174.33 332.904H177.565L176.881 302.989L177.629 302.485L181.585 301.369Z" fill="#263238"/>
<path d="M608.651 253.146C608.651 277.322 595.094 279.148 578.371 279.148C561.647 279.148 548.09 277.323 548.09 253.146C548.09 228.969 561.647 178.432 578.371 178.432C595.094 178.432 608.651 228.97 608.651 253.146Z" fill="#446622"/>
<path opacity="0.31" d="M608.651 253.146C608.651 277.322 595.094 279.148 578.371 279.148C561.647 279.148 548.09 277.323 548.09 253.146C548.09 228.969 561.647 178.432 578.371 178.432C595.094 178.432 608.651 228.97 608.651 253.146Z" fill="white"/>
<path d="M588.609 264.115L583.6 264.46L596.646 255.666L587.329 260.375L588.609 256.696L584.349 261.882L579.353 264.407L578.956 247.046L581.602 240.621L578.892 244.234L578.662 234.168L586.96 223.104L578.605 231.658L578.098 209.502L577.651 223.683L572.328 217.746L577.565 226.407L576.857 248.869L572.222 245.839L568 238.354L569.693 244.186L561.405 238.766L576.758 252.008L574.433 325.735H580.754L579.419 267.28L580.879 266.295L588.609 264.115Z" fill="#263238"/>
<path d="M673.47 262.661C673.47 275.034 666.532 275.968 657.973 275.968C649.414 275.968 642.476 275.034 642.476 262.661C642.476 250.288 649.414 224.425 657.973 224.425C666.532 224.425 673.47 250.288 673.47 262.661Z" fill="#446622"/>
<path opacity="0.5" d="M673.47 262.661C673.47 275.034 666.532 275.968 657.973 275.968C649.414 275.968 642.476 275.034 642.476 262.661C642.476 250.288 649.414 224.425 657.973 224.425C666.532 224.425 673.47 250.288 673.47 262.661Z" fill="white"/>
<path d="M663.213 268.275L660.65 268.452L667.326 263.951L662.558 266.361L663.213 264.478L661.033 267.132L658.476 268.424L658.273 259.54L659.627 256.252L658.24 258.101L658.122 252.949L662.369 247.287L658.093 251.665L657.834 240.326L657.605 247.583L654.881 244.544L657.561 248.977L657.199 260.473L654.827 258.922L652.666 255.091L653.532 258.076L649.291 255.302L657.148 262.079L655.958 299.81H659.193L658.509 269.895L659.257 269.391L663.213 268.275Z" fill="#263238"/>
<path d="M41.7997 252.199C41.7997 264.572 34.8617 265.506 26.3027 265.506C17.7437 265.506 10.8057 264.572 10.8057 252.199C10.8057 239.826 17.7437 213.963 26.3027 213.963C34.8617 213.963 41.7997 239.826 41.7997 252.199Z" fill="#446622"/>
<path opacity="0.5" d="M41.7997 252.199C41.7997 264.572 34.8617 265.506 26.3027 265.506C17.7437 265.506 10.8057 264.572 10.8057 252.199C10.8057 239.826 17.7437 213.963 26.3027 213.963C34.8617 213.963 41.7997 239.826 41.7997 252.199Z" fill="white"/>
<path d="M31.5431 257.813L28.9801 257.989L35.6561 253.489L30.8881 255.899L31.5431 254.016L29.3631 256.67L26.8061 257.962L26.6031 249.077L27.9571 245.789L26.5701 247.638L26.4521 242.487L30.6991 236.824L26.4231 241.202L26.1641 229.863L25.9351 237.121L23.2111 234.082L25.8911 238.515L25.5291 250.01L23.1571 248.46L20.9961 244.629L21.8621 247.613L17.6211 244.84L25.4781 251.617L24.2881 289.348H27.5231L26.8401 259.432L27.5871 258.929L31.5431 257.813Z" fill="#263238"/>
<path d="M118.593 224.14C94.6483 224.14 75.2363 243.42 75.2363 267.202C75.2363 278.228 79.4113 288.285 86.2733 295.903C89.4133 295.448 95.1353 295.135 101.46 297.287C109.841 300.138 115.064 304.81 116.208 305.901H120.093C121.237 304.81 126.46 300.138 134.841 297.287C141.727 294.945 147.902 295.523 150.803 296.026C157.731 288.394 161.95 278.288 161.95 267.202C161.95 243.42 142.538 224.14 118.593 224.14Z" fill="#446622"/>
<path opacity="0.33" d="M118.593 224.14C94.6483 224.14 75.2363 243.42 75.2363 267.202C75.2363 278.228 79.4113 288.285 86.2733 295.903C89.4133 295.448 95.1353 295.135 101.46 297.287C109.841 300.138 115.064 304.81 116.208 305.901H120.093C121.237 304.81 126.46 300.138 134.841 297.287C141.727 294.945 147.902 295.523 150.803 296.026C157.731 288.394 161.95 278.288 161.95 267.202C161.95 243.42 142.538 224.14 118.593 224.14Z" fill="white"/>
<path d="M138.776 284.475C137.442 285.12 136.12 285.787 134.815 286.483C133.509 287.197 132.228 287.972 131.027 288.821C130.573 289.135 130.13 289.459 129.687 289.783L136.789 276.552L127.044 291.813C126.057 292.607 125.087 293.418 124.135 294.245C122.561 295.615 121.031 297.011 119.531 298.45L119.036 284.096L129.232 268.571L118.961 281.924L118.518 269.077L117.786 283.452L117.784 283.455L117.786 283.456L117.052 297.864C115.75 296.632 114.425 295.427 113.066 294.245C111.997 293.316 110.909 292.404 109.794 291.518L100.574 275.772L107.346 289.662C106.957 289.379 106.571 289.094 106.173 288.82C104.972 287.972 103.692 287.196 102.385 286.482C101.08 285.786 99.7577 285.119 98.4247 284.474C95.7537 283.192 93.0317 281.993 90.2207 281.003C92.9517 282.16 95.5697 283.515 98.1267 284.947C99.4027 285.667 100.665 286.407 101.906 287.174C103.127 287.947 104.302 288.764 105.418 289.666C107.664 291.444 109.763 293.386 111.783 295.39C113.548 297.143 115.266 298.956 116.902 300.795L115.97 319.082H120.242L119.637 301.538C121.467 299.443 123.415 297.379 125.418 295.39C127.438 293.386 129.536 291.445 131.783 289.666C132.899 288.764 134.073 287.947 135.295 287.174C136.536 286.407 137.797 285.667 139.074 284.947C141.632 283.516 144.249 282.16 146.98 281.003C144.169 281.994 141.447 283.193 138.776 284.475Z" fill="#263238"/>
<path d="M238.971 352.646V312.97H187.329V287.568L231.624 182.604H269.411V288.198H285.785V312.97H269.411V352.646H238.971ZM212.94 288.198H238.971V215.983L212.94 288.198Z" fill="#263238"/>
<path d="M346.664 352.737C336.447 352.737 327.98 350.638 321.263 346.439C314.545 342.24 309.507 336.467 306.148 329.119C302.789 321.772 301.11 313.27 301.11 303.613V227.41C301.11 217.474 302.717 208.762 305.938 201.274C309.156 193.789 314.125 187.944 320.843 183.745C327.561 179.546 336.167 177.447 346.664 177.447C357.02 177.447 365.522 179.546 372.17 183.745C378.816 187.944 383.749 193.789 386.97 201.274C390.188 208.762 391.798 217.475 391.798 227.41V303.613C391.798 313.27 390.119 321.772 386.76 329.119C383.401 336.467 378.362 342.24 371.645 346.439C364.927 350.638 356.599 352.737 346.664 352.737ZM346.664 324.187C350.443 324.187 353.172 322.999 354.851 320.617C356.53 318.239 357.649 315.405 358.21 312.115C358.768 308.828 359.05 305.784 359.05 302.983V228.039C359.05 224.962 358.804 221.741 358.315 218.382C357.823 215.023 356.741 212.12 355.061 209.67C353.382 207.224 350.581 205.996 346.664 205.996C342.744 205.996 339.91 207.223 338.162 209.67C336.411 212.12 335.292 215.023 334.803 218.382C334.311 221.741 334.068 224.962 334.068 228.039V302.983C334.068 305.784 334.347 308.828 334.908 312.115C335.466 315.405 336.656 318.239 338.477 320.617C340.294 322.999 343.023 324.187 346.664 324.187Z" fill="#263238"/>
<path d="M461.073 352.646V312.97H409.431V287.568L453.726 182.604H491.512V288.198H507.886V312.97H491.512V352.646H461.073ZM435.042 288.198H461.073V215.983L435.042 288.198Z" fill="#263238"/>
<path d="M693.243 270.637C627.866 313.495 498.748 342.665 350.145 342.665C196.983 342.665 64.516 311.679 1.20703 266.656V439H693.243V270.637Z" fill="#F3F3F1"/>
<path d="M679.041 279.186C610.221 317.328 488.644 342.665 350.145 342.665C196.983 342.665 64.516 311.679 1.20703 266.656" stroke="#263238" stroke-miterlimit="10"/>
<path d="M693.546 270.442C690.599 272.381 687.522 274.293 684.319 276.175" stroke="#263238" stroke-miterlimit="10"/>
<path d="M651.504 260.65C651.504 285.93 637.328 287.839 619.84 287.839C602.352 287.839 588.176 285.93 588.176 260.65C588.176 235.369 602.352 182.524 619.84 182.524C637.328 182.524 651.504 235.37 651.504 260.65Z" fill="#446622"/>
<path d="M630.546 272.121L625.309 272.482L638.951 263.285L629.208 268.21L630.546 264.363L626.092 269.785L620.868 272.426L620.453 254.272L623.219 247.554L620.386 251.332L620.145 240.806L628.822 229.236L620.085 238.181L619.556 215.013L619.088 229.842L613.522 223.633L618.998 232.691L618.257 256.179L613.411 253.01L608.996 245.183L610.767 251.281L602.1 245.614L618.154 259.46L615.723 336.555H622.333L620.936 275.43L622.463 274.4L630.546 272.121Z" fill="#263238"/>
<path d="M617.707 337.235C617.707 337.235 606.02 325.126 609.301 325.491C612.581 325.856 618.72 334.91 618.72 334.91C618.72 334.91 618.805 314.949 621.721 319.323C624.637 323.697 621.054 334.994 621.054 334.994C621.054 334.994 629.389 321.991 629.371 324.115C629.313 330.685 622.949 335.824 622.949 335.824C622.949 335.824 636.296 325.937 634.109 329.946C631.922 333.955 623.388 337.744 623.388 337.744C623.388 337.744 638.774 334.64 633.307 336.827C627.84 339.014 622.638 340.515 622.638 340.515H618.387C618.387 340.515 603.858 333.226 609.325 334.319C614.791 335.413 617.707 337.235 617.707 337.235Z" fill="#263238"/>
<path d="M57.859 322.201C57.859 322.201 47.751 311.728 50.588 312.043C53.425 312.358 58.735 320.19 58.735 320.19C58.735 320.19 58.808 302.925 61.33 306.708C63.852 310.491 60.753 320.262 60.753 320.262C60.753 320.262 67.962 309.015 67.946 310.852C67.896 316.535 62.391 320.98 62.391 320.98C62.391 320.98 73.935 312.428 72.044 315.896C70.153 319.364 62.771 322.641 62.771 322.641C62.771 322.641 76.079 319.956 71.35 321.848C66.621 323.739 62.122 325.038 62.122 325.038H58.445C58.445 325.038 45.878 318.733 50.607 319.679C55.337 320.625 57.859 322.201 57.859 322.201Z" fill="#263238"/>
<path d="M94.395 246.869C94.395 272.177 80.203 274.088 62.697 274.088C45.191 274.088 30.999 272.177 30.999 246.869C30.999 221.561 45.191 168.658 62.697 168.658C80.203 168.658 94.395 221.561 94.395 246.869Z" fill="#446622"/>
<path d="M73.4155 258.352L68.1725 258.713L81.8285 249.507L72.0755 254.437L73.4155 250.585L68.9565 256.014L63.7255 258.658L63.3105 240.484L66.0805 233.758L63.2435 237.54L63.0025 227.003L71.6895 215.421L62.9425 224.376L62.4125 201.182L61.9445 216.027L56.3725 209.812L61.8545 218.879L61.1135 242.393L56.2615 239.22L51.8415 231.385L53.6135 237.489L44.9385 231.817L61.0095 245.678L58.5755 322.856H65.1935L63.7945 261.665L65.3235 260.634L73.4155 258.352Z" fill="#263238"/>
<path d="M168.523 348.512C168.523 348.512 158.415 338.039 161.252 338.354C164.089 338.669 169.399 346.501 169.399 346.501C169.399 346.501 169.473 329.236 171.994 333.019C174.516 336.802 171.417 346.573 171.417 346.573C171.417 346.573 178.626 335.326 178.61 337.163C178.56 342.846 173.055 347.291 173.055 347.291C173.055 347.291 184.599 338.739 182.708 342.207C180.817 345.675 173.435 348.952 173.435 348.952C173.435 348.952 186.743 346.268 182.014 348.159C177.285 350.05 172.786 351.349 172.786 351.349H169.109C169.109 351.349 156.543 345.044 161.271 345.99C166.001 346.935 168.523 348.512 168.523 348.512Z" fill="#263238"/>
<path d="M222.173 371.462C222.173 371.462 212.065 360.989 214.902 361.304C217.739 361.619 223.049 369.451 223.049 369.451C223.049 369.451 223.122 352.186 225.644 355.969C228.166 359.752 225.067 369.523 225.067 369.523C225.067 369.523 232.277 358.276 232.26 360.113C232.21 365.796 226.705 370.241 226.705 370.241C226.705 370.241 238.249 361.689 236.358 365.157C234.467 368.625 227.085 371.902 227.085 371.902C227.085 371.902 240.393 369.218 235.664 371.109C230.935 373.001 226.436 374.299 226.436 374.299H222.759C222.759 374.299 210.192 367.994 214.921 368.94C219.651 369.886 222.173 371.462 222.173 371.462Z" fill="#263238"/>
<path d="M366.077 356.052C366.077 356.052 358.786 348.498 360.832 348.725C362.878 348.952 366.708 354.601 366.708 354.601C366.708 354.601 366.761 342.148 368.58 344.876C370.399 347.605 368.164 354.653 368.164 354.653C368.164 354.653 373.365 346.54 373.353 347.866C373.317 351.965 369.346 355.172 369.346 355.172C369.346 355.172 377.673 349.004 376.309 351.505C374.945 354.006 369.62 356.37 369.62 356.37C369.62 356.37 379.219 354.434 375.808 355.798C372.397 357.162 369.152 358.099 369.152 358.099H366.5C366.5 358.099 357.435 353.551 360.846 354.233C364.258 354.915 366.077 356.052 366.077 356.052Z" fill="#263238"/>
<path d="M649.104 337.976C649.104 337.976 643.43 332.097 645.022 332.274C646.614 332.451 649.595 336.847 649.595 336.847C649.595 336.847 649.636 327.155 651.052 329.279C652.468 331.403 650.728 336.888 650.728 336.888C650.728 336.888 654.775 330.574 654.766 331.606C654.738 334.796 651.648 337.291 651.648 337.291C651.648 337.291 658.129 332.491 657.067 334.437C656.005 336.384 651.861 338.223 651.861 338.223C651.861 338.223 659.332 336.716 656.677 337.778C654.023 338.84 651.497 339.569 651.497 339.569H649.433C649.433 339.569 642.379 336.03 645.033 336.561C647.688 337.091 649.104 337.976 649.104 337.976Z" fill="#263238"/>
<path d="M267.036 356.092C267.036 356.092 256.928 345.619 259.765 345.934C262.602 346.249 267.912 354.081 267.912 354.081C267.912 354.081 267.985 336.816 270.507 340.599C273.029 344.382 269.93 354.153 269.93 354.153C269.93 354.153 277.14 342.906 277.123 344.743C277.073 350.426 271.568 354.871 271.568 354.871C271.568 354.871 283.112 346.319 281.221 349.787C279.33 353.255 271.948 356.532 271.948 356.532C271.948 356.532 285.256 353.847 280.527 355.739C275.798 357.63 271.299 358.929 271.299 358.929H267.622C267.622 358.929 255.056 352.624 259.784 353.57C264.515 354.516 267.036 356.092 267.036 356.092Z" fill="#446622"/>
<path d="M194.095 349.134C194.095 349.134 187.317 342.111 189.219 342.322C191.121 342.533 194.682 347.785 194.682 347.785C194.682 347.785 194.731 336.208 196.422 338.745C198.113 341.282 196.035 347.834 196.035 347.834C196.035 347.834 200.869 340.292 200.859 341.524C200.826 345.335 197.134 348.315 197.134 348.315C197.134 348.315 204.875 342.581 203.607 344.906C202.339 347.231 197.389 349.429 197.389 349.429C197.389 349.429 206.313 347.629 203.142 348.897C199.971 350.165 196.954 351.036 196.954 351.036H194.488C194.488 351.036 186.061 346.808 189.232 347.442C192.404 348.077 194.095 349.134 194.095 349.134Z" fill="#99BB44"/>
<path d="M109.397 376.875C109.397 376.875 102.619 369.852 104.521 370.063C106.424 370.274 109.984 375.526 109.984 375.526C109.984 375.526 110.033 363.949 111.724 366.485C113.415 369.022 111.337 375.574 111.337 375.574C111.337 375.574 116.171 368.032 116.161 369.264C116.128 373.075 112.436 376.055 112.436 376.055C112.436 376.055 120.177 370.321 118.909 372.646C117.641 374.971 112.691 377.169 112.691 377.169C112.691 377.169 121.615 375.369 118.444 376.637C115.273 377.905 112.256 378.776 112.256 378.776H109.79C109.79 378.776 101.363 374.548 104.534 375.182C107.706 375.818 109.397 376.875 109.397 376.875Z" fill="#446622"/>
<path d="M336.164 378.235C336.164 378.235 329.386 371.212 331.288 371.423C333.19 371.634 336.751 376.886 336.751 376.886C336.751 376.886 336.8 365.309 338.491 367.846C340.182 370.383 338.104 376.935 338.104 376.935C338.104 376.935 342.938 369.393 342.928 370.625C342.895 374.436 339.203 377.416 339.203 377.416C339.203 377.416 346.944 371.682 345.676 374.007C344.408 376.332 339.458 378.53 339.458 378.53C339.458 378.53 348.382 376.73 345.211 377.998C342.04 379.266 339.023 380.137 339.023 380.137H336.557C336.557 380.137 328.13 375.909 331.301 376.543C334.473 377.178 336.164 378.235 336.164 378.235Z" fill="#99BB44"/>
<path d="M446.137 378.602C446.137 378.602 439.359 371.579 441.261 371.79C443.163 372.001 446.724 377.253 446.724 377.253C446.724 377.253 446.773 365.676 448.464 368.213C450.155 370.75 448.077 377.302 448.077 377.302C448.077 377.302 452.911 369.76 452.901 370.992C452.868 374.803 449.176 377.783 449.176 377.783C449.176 377.783 456.917 372.049 455.649 374.374C454.381 376.699 449.431 378.897 449.431 378.897C449.431 378.897 458.355 377.097 455.184 378.365C452.013 379.633 448.996 380.504 448.996 380.504H446.53C446.53 380.504 438.103 376.276 441.274 376.91C444.445 377.544 446.137 378.602 446.137 378.602Z" fill="#446622"/>
<path d="M650.603 356.633C650.603 356.633 640.283 345.94 643.179 346.262C646.076 346.584 651.497 354.58 651.497 354.58C651.497 354.58 651.572 336.953 654.147 340.816C656.722 344.678 653.558 354.654 653.558 354.654C653.558 354.654 660.919 343.172 660.902 345.047C660.851 350.849 655.231 355.387 655.231 355.387C655.231 355.387 667.017 346.656 665.086 350.197C663.155 353.737 655.619 357.083 655.619 357.083C655.619 357.083 669.206 354.342 664.378 356.273C659.55 358.204 654.956 359.53 654.956 359.53H651.202C651.202 359.53 638.372 353.093 643.2 354.059C648.029 355.024 650.603 356.633 650.603 356.633Z" fill="#99BB44"/>
<path d="M35.6719 356.633C35.6719 356.633 25.3519 345.94 28.2489 346.262C31.1459 346.584 36.5669 354.58 36.5669 354.58C36.5669 354.58 36.6419 336.953 39.2169 340.816C41.7919 344.678 38.6279 354.654 38.6279 354.654C38.6279 354.654 45.9889 343.172 45.9719 345.047C45.9209 350.849 40.3009 355.387 40.3009 355.387C40.3009 355.387 52.0869 346.656 50.1559 350.197C48.2249 353.737 40.6889 357.083 40.6889 357.083C40.6889 357.083 54.2759 354.342 49.4479 356.273C44.6199 358.204 40.0259 359.53 40.0259 359.53H36.2719C36.2719 359.53 23.4419 353.093 28.2699 354.059C33.0969 355.024 35.6719 356.633 35.6719 356.633Z" fill="#446622"/>
<path d="M86.581 341.535C86.581 341.535 76.019 323.322 79.032 321.916C82.044 320.51 88.27 334.368 88.27 334.368C88.27 334.368 87.065 308.26 89.877 310.67C92.689 313.08 95.3 331.556 95.3 331.556C95.3 331.556 100.923 311.473 102.731 315.69C104.539 319.907 101.286 332.669 101.286 332.669C101.286 332.669 109.358 317.297 110.162 322.318C110.965 327.339 106.346 335.573 106.346 335.573C106.346 335.573 116.99 324.929 117.793 329.146C118.596 333.363 114.981 337.581 114.981 337.581C114.981 337.581 129.039 329.949 125.625 334.167C122.211 338.384 117.19 343.807 117.19 343.807C117.19 343.807 130.646 338.987 129.039 341.799C127.432 344.611 121.407 347.623 121.407 347.623C121.407 347.623 132.453 345.615 131.248 347.422C130.043 349.229 127.238 351.004 127.238 351.004H77.224C77.224 351.004 63.969 346.217 69.191 345.815C74.413 345.413 79.232 347.622 79.232 347.622C79.232 347.622 62.965 336.576 70.596 335.773C78.228 334.97 84.453 344.609 84.453 344.609C84.453 344.609 73.608 329.346 77.424 331.756L86.581 341.535Z" fill="#446622"/>
<path d="M87.2611 346.716C87.2611 346.716 73.6251 332.587 77.4521 333.013C81.2791 333.439 88.4421 344.003 88.4421 344.003C88.4421 344.003 88.5411 320.713 91.9431 325.816C95.3451 330.919 91.1651 344.1 91.1651 344.1C91.1651 344.1 100.891 328.928 100.869 331.406C100.802 339.072 93.3761 345.069 93.3761 345.069C93.3761 345.069 108.949 333.533 106.398 338.211C103.846 342.889 93.8891 347.31 93.8891 347.31C93.8891 347.31 111.842 343.689 105.463 346.24C99.0841 348.792 93.0141 350.544 93.0141 350.544H88.0541C88.0541 350.544 71.1021 342.039 77.4811 343.315C83.8591 344.59 87.2611 346.716 87.2611 346.716Z" fill="#263238" stroke="#263238" stroke-miterlimit="10"/>
<path d="M536.337 373.58C536.337 373.58 516.375 339.155 522.068 336.498C527.762 333.841 539.529 360.033 539.529 360.033C539.529 360.033 537.251 310.686 542.566 315.241C547.88 319.796 552.815 354.719 552.815 354.719C552.815 354.719 563.443 316.76 566.86 324.731C570.276 332.702 564.129 356.823 564.129 356.823C564.129 356.823 579.387 327.768 580.905 337.258C582.423 346.748 573.693 362.311 573.693 362.311C573.693 362.311 593.811 342.193 595.33 350.164C596.848 358.135 590.016 366.107 590.016 366.107C590.016 366.107 616.587 351.683 610.134 359.654C603.681 367.625 594.191 377.874 594.191 377.874C594.191 377.874 619.624 368.764 616.587 374.078C613.55 379.392 602.163 385.086 602.163 385.086C602.163 385.086 623.041 381.29 620.763 384.707C618.485 388.123 613.183 391.477 613.183 391.477H518.652C518.652 391.477 493.599 382.429 503.468 381.67C513.337 380.911 522.447 385.086 522.447 385.086C522.447 385.086 491.7 364.208 506.125 362.69C520.549 361.172 532.317 379.392 532.317 379.392C532.317 379.392 511.819 350.543 519.031 355.098L536.337 373.58Z" fill="#446622"/>
<path d="M537.623 383.373C537.623 383.373 511.849 356.669 519.083 357.472C526.317 358.275 539.855 378.244 539.855 378.244C539.855 378.244 540.042 334.223 546.473 343.869C552.903 353.515 545.002 378.428 545.002 378.428C545.002 378.428 563.385 349.751 563.344 354.436C563.217 368.926 549.181 380.26 549.181 380.26C549.181 380.26 578.616 358.455 573.794 367.297C568.971 376.139 550.15 384.495 550.15 384.495C550.15 384.495 584.082 377.65 572.025 382.473C559.968 387.296 548.495 390.607 548.495 390.607H539.12C539.12 390.607 507.078 374.531 519.135 376.942C531.193 379.354 537.623 383.373 537.623 383.373Z" fill="#263238" stroke="#263238" stroke-miterlimit="10"/>
<path d="M120.981 342.567C120.981 342.567 123.023 340.721 124.774 340.721C126.525 340.721 131.874 343.292 131.874 343.292C131.874 343.292 134.014 346.588 134.208 346.786C134.403 346.984 137.028 348.105 137.223 348.566C137.418 349.028 137.807 350.544 137.807 350.544H121.468L118.453 342.633L120.981 342.567Z" fill="white" stroke="#263238" stroke-miterlimit="10"/>
<path d="M124.774 340.721L124.677 342.277C124.677 342.277 128.859 344.708 128.762 345.584C128.665 346.459 127.789 348.502 127.789 348.502L129.929 350.739H118.55L119.425 344.028C119.425 344.028 121.856 340.526 124.774 340.721Z" fill="#263238"/>
<path d="M99.6824 341.596C99.6824 341.596 107.852 329.342 109.699 329.147C111.547 328.953 115.437 330.509 116.896 333.037C118.355 335.566 119.716 340.526 119.814 340.818C119.911 341.11 120.3 341.304 122.537 344.903C124.774 348.501 124.677 350.544 124.677 350.544H93.0684C93.0684 350.544 93.7494 347.334 94.9164 345.487C96.0834 343.64 98.8064 342.958 98.8064 342.958L99.6824 341.596Z" fill="white" stroke="#263238" stroke-miterlimit="10"/>
<path d="M112.228 350.349C112.228 350.349 111.353 348.209 111.255 347.918C111.158 347.626 111.158 344.806 110.866 343.639C110.574 342.472 108.143 338.873 108.143 338.873L109.894 333.816L109.019 333.135L110.478 329.536L109.661 329.158C107.746 329.502 99.6823 341.596 99.6823 341.596L98.8073 342.958C98.8073 342.958 96.0843 343.639 94.9173 345.487C93.9193 347.067 93.2783 349.637 93.1133 350.35L112.228 350.349Z" fill="#263238"/>
<path d="M435.974 345.615C435.974 345.615 437.255 344.458 438.352 344.458C439.45 344.458 442.804 346.07 442.804 346.07C442.804 346.07 444.146 348.137 444.268 348.261C444.39 348.385 446.037 349.088 446.158 349.377C446.28 349.666 446.524 350.617 446.524 350.617H436.279L434.389 345.657L435.974 345.615Z" fill="white" stroke="#263238" stroke-miterlimit="10"/>
<path d="M438.352 344.457L438.291 345.433C438.291 345.433 440.913 346.958 440.852 347.506C440.791 348.054 440.242 349.335 440.242 349.335L441.584 350.738H434.449L434.998 346.53C434.998 346.53 436.522 344.335 438.352 344.457Z" fill="#263238"/>
<path d="M422.62 345.006C422.62 345.006 427.742 337.322 428.901 337.201C430.06 337.079 432.499 338.055 433.414 339.64C434.329 341.225 435.182 344.335 435.243 344.518C435.304 344.701 435.548 344.823 436.95 347.079C438.353 349.335 438.292 350.616 438.292 350.616H418.473C418.473 350.616 418.9 348.604 419.632 347.445C420.364 346.286 422.071 345.859 422.071 345.859L422.62 345.006Z" fill="white" stroke="#263238" stroke-miterlimit="10"/>
<path d="M430.486 350.494C430.486 350.494 429.937 349.152 429.876 348.969C429.815 348.786 429.815 347.018 429.632 346.286C429.449 345.554 427.924 343.298 427.924 343.298L429.022 340.127L428.473 339.7L429.388 337.444L428.876 337.207C427.675 337.423 422.619 345.006 422.619 345.006L422.07 345.86C422.07 345.86 420.363 346.287 419.631 347.446C419.005 348.437 418.603 350.048 418.5 350.495H430.486V350.494Z" fill="#263238"/>
<path d="M601.357 375.53C601.357 375.53 605.217 372.041 608.526 372.041C611.835 372.041 621.945 376.901 621.945 376.901C621.945 376.901 625.989 383.131 626.357 383.505C626.725 383.879 631.688 385.997 632.056 386.869C632.424 387.741 633.159 390.607 633.159 390.607H602.276L596.577 375.654L601.357 375.53Z" fill="white" stroke="#263238" stroke-miterlimit="10"/>
<path d="M608.526 372.041L608.342 374.982C608.342 374.982 616.247 379.578 616.063 381.232C615.879 382.886 614.225 386.747 614.225 386.747L618.269 390.975H596.761L598.415 378.291C598.415 378.291 603.011 371.673 608.526 372.041Z" fill="#263238"/>
<path d="M561.1 373.695C561.1 373.695 576.541 350.533 580.034 350.165C583.527 349.797 590.88 352.739 593.637 357.518C596.394 362.297 598.968 371.673 599.152 372.224C599.336 372.776 600.071 373.143 604.299 379.945C608.527 386.747 608.343 390.607 608.343 390.607H548.6C548.6 390.607 549.887 384.541 552.093 381.048C554.299 377.555 559.446 376.268 559.446 376.268L561.1 373.695Z" fill="white" stroke="#263238" stroke-miterlimit="10"/>
<path d="M584.813 390.239C584.813 390.239 583.159 386.195 582.975 385.643C582.791 385.091 582.791 379.76 582.24 377.555C581.689 375.349 577.093 368.547 577.093 368.547L580.402 358.988L578.748 357.701L581.505 350.899L579.961 350.184C576.341 350.834 561.1 373.694 561.1 373.694L559.446 376.268C559.446 376.268 554.299 377.555 552.093 381.048C550.207 384.035 548.996 388.891 548.683 390.239H584.813Z" fill="#263238"/>
</svg>
