<svg width="50" height="68" viewBox="0 0 50 68" fill="none" xmlns="http://www.w3.org/2000/svg">
<path d="M15.0668 28.619C15.0668 28.619 17.7448 27.608 23.7778 17.042C29.8098 6.47478 31.8968 0.578877 37.4398 0.500777C42.9828 0.422077 45.7468 6.33887 42.7978 12.042C39.8488 17.744 32.3368 19.648 31.0188 23.477C29.7008 27.307 30.9198 34.693 30.9198 34.693" stroke="#1E212B" stroke-miterlimit="10" stroke-linecap="round" stroke-linejoin="round"/>
<path d="M16.2277 26.9951C16.2277 26.9951 4.80976 40.1051 1.88376 44.8861C-1.04224 49.6671 0.433765 58.8931 8.64377 63.3461C16.8528 67.8001 25.4908 67.4791 28.9108 63.6501C32.3298 59.8211 33.6268 52.6671 33.6438 49.2221C33.6598 45.7771 30.5468 33.7791 30.4058 32.5401C30.2638 31.3011 21.6107 30.8201 16.2277 26.9951Z" stroke="#1E212B" stroke-miterlimit="10" stroke-linecap="round" stroke-linejoin="round"/>
<path d="M30.4048 32.5401C30.4048 32.5401 31.5218 26.3911 36.6988 23.2501C41.8748 20.1101 49.1158 17.0911 49.2908 9.31712C49.4668 1.54272 41.4878 -1.11248 36.0568 3.27432C30.6248 7.66112 30.0468 12.9191 24.7718 17.2231C19.4978 21.5271 16.2278 26.9951 16.2278 26.9951" stroke="#1E212B" stroke-miterlimit="10" stroke-linecap="round" stroke-linejoin="round"/>
<path d="M10.1498 34.4162C13.3188 32.5932 18.6848 28.3462 18.6848 28.3462C18.6848 28.3462 30.6098 53.3552 31.4478 59.3682" stroke="#1E212B" stroke-miterlimit="10" stroke-linecap="round" stroke-linejoin="round"/>
<path d="M6.81476 38.33C13.0588 35.92 20.9238 29.834 20.9238 29.834C20.9238 29.834 31.2808 48.697 32.6558 55.463" stroke="#1E212B" stroke-miterlimit="10" stroke-linecap="round" stroke-linejoin="round"/>
<path d="M4.00281 42.1168C11.0918 39.7798 23.7628 30.6338 23.7628 30.6338C23.7628 30.6338 32.1558 45.5628 33.7078 50.8268" stroke="#1E212B" stroke-miterlimit="10" stroke-linecap="round" stroke-linejoin="round"/>
<path d="M1.61884 45.455C1.61884 45.455 8.87281 44.144 14.3698 40.719C19.8668 37.294 26.4528 31.29 26.4528 31.29C26.4528 31.29 31.4398 39.784 32.8768 43.551" stroke="#1E212B" stroke-miterlimit="10" stroke-linecap="round" stroke-linejoin="round"/>
<path d="M28.5278 31.751C28.5278 31.751 23.4738 38.727 17.9978 41.769C12.5228 44.812 6.10384 47.166 4.65384 47.487C3.20484 47.808 0.655823 48.561 0.655823 48.561" stroke="#1E212B" stroke-miterlimit="10" stroke-linecap="round" stroke-linejoin="round"/>
<path d="M30.5148 33.7432C30.5148 33.7432 25.9758 40.2972 21.5828 43.5842C17.1888 46.8722 8.48482 50.0622 5.58582 50.7042C2.68682 51.3462 0.780823 52.2052 0.780823 52.2052" stroke="#1E212B" stroke-miterlimit="10" stroke-linecap="round" stroke-linejoin="round"/>
<path d="M1.56476 55.2778C1.56476 55.2778 9.82777 55.0648 18.0108 50.4428C26.1938 45.8208 31.2658 36.6108 31.2658 36.6108" stroke="#1E212B" stroke-miterlimit="10" stroke-linecap="round" stroke-linejoin="round"/>
<path d="M2.98578 58.163C2.98578 58.163 10.9638 58.249 16.5268 55.235C22.0898 52.22 27.3788 46.975 32.1318 39.418" stroke="#1E212B" stroke-miterlimit="10" stroke-linecap="round" stroke-linejoin="round"/>
<path d="M5.13177 60.8869C5.13177 60.8869 9.97277 63.0029 19.3208 56.7999C28.6678 50.5979 32.5968 42.5859 32.5968 42.5859" stroke="#1E212B" stroke-miterlimit="10" stroke-linecap="round" stroke-linejoin="round"/>
<path d="M9.6098 63.8618C9.6098 63.8618 13.8648 64.1349 20.7088 59.4789C27.5518 54.8229 33.1448 45.4858 33.1448 45.4858" stroke="#1E212B" stroke-miterlimit="10" stroke-linecap="round" stroke-linejoin="round"/>
<path d="M18.7998 66.5719C18.7998 66.5719 25.5818 63.3579 28.9928 60.4419C32.4038 57.5269 33.2118 53.9829 33.2118 53.9829" stroke="#1E212B" stroke-miterlimit="10" stroke-linecap="round" stroke-linejoin="round"/>
<path d="M15.6438 27.5801C15.6438 27.5801 21.8018 42.8741 24.6208 50.5851C27.4398 58.2961 29.2168 61.5861 28.2448 64.1031" stroke="#1E212B" stroke-miterlimit="10" stroke-linecap="round" stroke-linejoin="round"/>
<path d="M13.8058 29.7759C13.8058 29.7759 19.0248 40.6319 21.5788 49.8179C24.1338 59.0039 25.3058 65.8049 25.3058 65.8049" stroke="#1E212B" stroke-miterlimit="10" stroke-linecap="round" stroke-linejoin="round"/>
<path d="M11.6428 32.4038C11.6428 32.4038 15.5818 39.2998 18.0108 50.4428C20.4408 61.5868 21.5478 66.4188 21.5478 66.4188" stroke="#1E212B" stroke-miterlimit="10" stroke-linecap="round" stroke-linejoin="round"/>
<path d="M9.02179 35.5688C9.02179 35.5688 14.2258 49.5868 15.4688 57.0918C16.7118 64.5968 17.7318 66.2829 17.7318 66.2829" stroke="#1E212B" stroke-miterlimit="10" stroke-linecap="round" stroke-linejoin="round"/>
<path d="M5.94476 39.2729C5.94476 39.2729 8.11175 43.173 10.6888 51.976C13.2648 60.779 13.7438 65.461 13.7438 65.461C13.7438 65.461 16.9888 64.636 24.3038 60.325C31.6188 56.013 33.7578 48.798 33.7578 48.798" stroke="#1E212B" stroke-miterlimit="10" stroke-linecap="round" stroke-linejoin="round"/>
<path d="M3.18781 42.8818C3.18781 42.8818 5.08878 49.8158 7.60678 55.3858C10.1248 60.9558 11.1768 64.4058 11.1768 64.4058" stroke="#1E212B" stroke-miterlimit="10" stroke-linecap="round" stroke-linejoin="round"/>
<path d="M1.0498 46.98C1.0498 46.98 2.9138 53.415 4.9328 57.171C6.9518 60.927 8.0098 63.112 8.0098 63.112" stroke="#1E212B" stroke-miterlimit="10" stroke-linecap="round" stroke-linejoin="round"/>
</svg>
