<svg width="35" height="43" viewBox="0 0 35 43" fill="none" xmlns="http://www.w3.org/2000/svg">
<path d="M2.35815 5.72859L3.10926 7.93459L3.93245 10.2306L4.49526 11.7296L5.76986 12.7606L6.15596 13.2756L6.31405 13.7996L6.92105 14.6966L7.53965 15.3176C7.53965 15.3176 9.83536 17.3216 10.6773 17.8176C11.5192 18.3136 14.187 19.3566 14.7662 19.5636C15.3454 19.7706 17.3478 21.3026 17.4874 21.3656C17.627 21.4296 19.9994 22.5076 20.2204 21.7606C20.4413 21.0136 20.3207 16.8896 20.3207 16.8896C20.3207 16.8896 17.2998 9.35658 16.5882 8.69458C15.8765 8.03158 15.0462 7.25858 14.5764 6.93158C14.1066 6.60558 13.2531 6.38659 12.7577 5.99159C12.2623 5.59659 10.8505 3.99459 9.82705 3.52959C8.80375 3.06359 6.98735 2.74658 6.98735 2.74658L5.47306 3.13159L4.43556 3.45158C4.43556 3.45158 3.41206 4.11658 3.28176 4.28358C3.15126 4.44958 2.57435 4.86559 2.35815 5.72859Z" fill="#99BB44" stroke="#1E212B" stroke-miterlimit="10"/>
<path d="M13.8815 14.1047C13.8815 14.1047 13.891 12.0667 13.9827 11.6927C14.0746 11.3187 14.0108 10.1177 14.0108 10.1177C14.0108 10.1177 13.9984 9.80873 13.9968 9.39273C13.9953 8.97573 14.1183 8.61574 13.9503 8.23674C13.7822 7.85774 13.5721 7.57373 13.5721 7.57373" stroke="#1E212B" stroke-miterlimit="10"/>
<path d="M7.60838 4.40771C7.73598 4.54171 7.81847 4.69271 7.97257 5.10271C8.12657 5.51371 8.06898 5.97871 8.06898 5.97871L8.27898 8.53171L8.37398 8.99071C8.37398 8.99071 6.52347 9.6997 6.09387 9.6557C5.66417 9.6117 4.94067 9.47171 4.94067 9.47171C4.94067 9.47171 4.83317 9.46071 4.66357 9.42171" stroke="#1E212B" stroke-miterlimit="10"/>
<path d="M6.13623 11.0744C6.13623 11.0744 9.16793 11.2424 9.56643 11.2724C9.96483 11.3024 10.905 11.1244 10.905 11.1244C10.905 11.1244 11.2739 9.28837 11.3299 9.16237C11.3859 9.03637 12.0364 6.98837 11.9992 6.82037C11.9618 6.65137 11.9618 6.65137 11.9618 6.65137" stroke="#1E212B" stroke-miterlimit="10"/>
<path d="M7.60986 13.1436L9.69067 13.5975L11.0649 13.9576L11.6471 13.9956L12.9948 14.0786" stroke="#1E212B" stroke-miterlimit="10"/>
<path d="M15.7365 16.1574L16.4324 13.3354L16.4324 11.0664" stroke="#1E212B" stroke-miterlimit="10"/>
<path d="M17.5742 18.1655C17.5742 18.1655 17.8405 16.8115 17.845 16.5495C17.8497 16.2865 17.8932 15.8524 17.8932 15.8524L18.0659 15.2124L18.083 14.5024" stroke="#1E212B" stroke-miterlimit="10"/>
<path d="M5.65369 6.49268C5.65369 6.49268 12.7845 13.4637 13.4589 14.3357C14.1333 15.2077 19.3731 21.1497 19.7174 21.7587C20.0616 22.3667 21.6249 25.9657 21.6249 25.9657L22.6943 25.3727L19.4082 20.3187L14.2568 14.3027C14.2568 14.3027 7.00259 7.10568 5.65369 6.49268Z" fill="#1E212B" stroke="#1E212B" stroke-miterlimit="10"/>
<path d="M21.0472 26.3724C21.0472 26.3724 18.7418 27.8314 18.3285 31.2924C17.9155 34.7524 21.1373 36.9774 23.1831 37.4514C25.2289 37.9254 28.5291 38.2864 29.3424 38.6554C30.1556 39.0254 30.9189 39.6764 31.2912 40.5294C31.6634 41.3834 31.4695 42.6624 31.8136 42.0594C32.1577 41.4554 31.9325 40.4414 31.6009 39.8344C31.2694 39.2274 30.9315 38.4664 31.2976 37.6444C31.6636 36.8234 33.209 34.0294 33.8131 31.4924C34.4169 28.9544 34.2107 26.8844 32.5809 25.3074C30.9512 23.7304 29.2338 23.0254 27.8323 23.3004C26.4309 23.5754 24.5702 24.6034 23.7465 24.9574C22.9227 25.3114 22.1452 25.6864 22.1452 25.6864L21.0472 26.3724Z" fill="#1E212B" stroke="#1E212B" stroke-miterlimit="10"/>
<path d="M19.5899 24.2227C19.5899 24.2227 19.4715 22.8457 19.7567 22.1187C20.0418 21.3927 20.5529 19.6397 20.1236 19.1337C19.6943 18.6267 18.6531 18.5427 18.1519 18.1987C17.6504 17.8537 16.8192 16.3467 16.8192 16.3467C16.8192 16.3467 14.8202 15.9047 14.4998 15.7597C14.1795 15.6137 13.5933 15.1137 13.1688 15.1157C12.7443 15.1167 12.7651 15.2437 12.3487 15.0537C11.9323 14.8647 11.6376 14.5747 11.1698 14.6737C10.7021 14.7727 9.96356 14.7867 9.77446 14.7787C9.58536 14.7707 9.52476 14.0427 8.65806 13.9987C7.79156 13.9547 7.54487 14.0757 7.13797 14.1247C6.73107 14.1737 5.47857 14.3037 5.47857 14.3037L4.49186 14.7897L3.16556 15.4317L2.30686 15.9747C2.30686 15.9747 2.08426 16.3017 1.71586 16.5237C1.34736 16.7457 1.17286 16.7047 0.889164 17.0817C0.605564 17.4587 0.504761 18.4637 0.504761 18.4637L0.644062 19.1887L0.725662 20.0427L1.23656 21.4037L3.25806 23.1787L4.82286 24.1627L6.43576 24.7797C6.43576 24.7797 8.52306 23.8997 8.77596 23.9367C9.02916 23.9737 9.48076 24.2567 9.87486 24.6697C10.2689 25.0827 10.9768 25.4827 11.2845 25.3107C11.5921 25.1397 11.9877 25.2027 11.9877 25.2027C11.9877 25.2027 12.0261 26.1537 12.5883 26.4487C13.1505 26.7427 13.5718 26.6617 13.7961 26.7637C14.0204 26.8657 13.7401 27.3227 14.1534 27.4327C14.5666 27.5427 14.967 27.3357 15.1593 27.4227C15.3516 27.5097 15.864 28.5217 16.6232 28.6337C17.3824 28.7447 17.8038 27.8857 17.8374 27.5507C17.8711 27.2157 18.27 25.0237 18.27 25.0237L19.5899 24.2227Z" fill="#99BB44" stroke="#1E212B" stroke-miterlimit="10"/>
<path d="M21.6257 25.9654C21.6257 25.9654 18.7171 23.2414 17.3556 22.2334C15.9941 21.2254 11.2769 19.2754 10.0931 19.1654C8.90955 19.0554 4.00145 19.0034 4.00145 19.0034L2.33545 19.0234C2.33545 19.0234 7.59905 19.3154 8.76515 19.3784C9.93115 19.4414 10.7948 19.4064 11.9191 19.9954C13.0436 20.5844 16.0484 21.7954 16.372 22.0194C16.6955 22.2444 19.4314 24.5784 19.6796 24.8854C19.9278 25.1934 21.0469 26.3724 21.0469 26.3724L21.6257 25.9654Z" fill="#1E212B" stroke="#1E212B" stroke-miterlimit="10"/>
<path d="M14.5598 17.7735C14.349 17.4865 14.1422 17.1874 13.9634 16.8774" stroke="#1E212B" stroke-miterlimit="10"/>
<path d="M16.5596 21.5994C16.6268 21.7074 16.1335 20.3934 15.8197 19.6284C15.6766 19.2794 15.4046 18.8954 15.0934 18.4824" stroke="#1E212B" stroke-miterlimit="10"/>
<path d="M14.2913 20.7235C14.2913 20.7235 14.0191 19.4325 13.3608 19.0945C12.7025 18.7565 11.4163 17.6655 10.9054 17.0825C10.3944 16.5005 10.0035 16.1675 10.0035 16.1675" stroke="#1E212B" stroke-miterlimit="10"/>
<path d="M7.99423 21.0127C7.76073 21.2667 7.46963 21.5527 7.00983 21.8497C6.09033 22.4437 6.34033 22.4017 6.09033 22.4437" stroke="#1E212B" stroke-miterlimit="10"/>
<path d="M9.96658 19.5356C9.96658 19.5356 9.09027 20.0327 8.63207 20.3687C8.56317 20.4197 8.49937 20.4747 8.43707 20.5347" stroke="#1E212B" stroke-miterlimit="10"/>
<path d="M12.904 20.6377C12.904 20.6377 12.2169 21.1427 11.4015 21.5897C10.5861 22.0357 10.0864 22.1197 10.0864 22.1197" stroke="#1E212B" stroke-miterlimit="10"/>
<path d="M13.8951 23.3028C14.3293 23.2558 14.7692 23.2248 15.054 23.2498C15.7957 23.3148 16.3563 23.1808 16.3563 23.1808L17.58 23.1138" stroke="#1E212B" stroke-miterlimit="10"/>
<path d="M12.5162 23.4976C12.5162 23.4976 12.8842 23.4336 13.3559 23.3696" stroke="#1E212B" stroke-miterlimit="10"/>
<path d="M19.1428 23.6697C19.1428 23.6697 18.2763 22.0687 18.0088 21.2857C17.7413 20.5027 17.5492 19.6367 17.429 19.3877" stroke="#1E212B" stroke-miterlimit="10"/>
<path d="M18.9574 24.5185C18.9574 24.5185 17.165 24.1315 16.7357 24.4035C16.3064 24.6755 15.4062 25.7446 14.7574 25.6446" stroke="#1E212B" stroke-miterlimit="10"/>
<path d="M11.1372 19.3284C11.1372 19.3284 10.4645 18.2444 9.78863 17.8594C9.11273 17.4744 8.35183 16.9334 8.35183 16.9334L7.59103 16.3934L7.11853 15.9834" stroke="#1E212B" stroke-miterlimit="10"/>
<path d="M21.8212 19.9053C21.8212 19.9053 20.8217 19.2953 20.0449 18.3583C19.2681 17.4213 19.7647 16.4793 19.6638 15.9273C19.5628 15.3763 19.3498 15.1623 18.9318 14.5443C18.5137 13.9263 18.557 13.0503 18.416 12.6753C18.275 12.2993 17.2756 11.6893 16.4075 10.4383C15.5393 9.18734 16.6879 6.86934 16.9748 6.57134C17.2614 6.27334 18.0448 5.03435 18.085 4.07935C18.1251 3.12435 19.4291 1.14934 20.1259 0.882344C20.8228 0.615344 21.8768 0.238349 22.2596 0.762349C22.6425 1.28635 22.8074 1.86735 22.8074 1.86735C22.8074 1.86735 23.7492 2.60735 23.9495 3.28235C24.1496 3.95635 24.6173 5.41435 24.6222 5.92235C24.627 6.43035 24.5468 8.34035 24.5468 8.34035L24.6203 9.38535L25.2274 10.0123L24.4713 12.3144L24.383 13.6363L24.447 14.4443L24.4199 14.9374L24.6073 15.2953C24.6073 15.2953 25.1199 15.5283 25.1438 15.7343C25.1677 15.9393 25.1822 15.9073 25.2415 16.2063C25.3009 16.5063 25.0702 17.8023 25.0702 17.8023L24.8219 18.2723L24.6826 19.1043C24.6826 19.1043 24.5831 19.7593 24.0978 19.8113C23.6125 19.8633 23.1767 19.9763 23.1767 19.9763L21.8212 19.9053Z" fill="#99BB44" stroke="#1E212B" stroke-miterlimit="10"/>
<path d="M18.8761 11.0077C18.4522 10.4587 17.9116 9.9167 17.9116 9.9167L17.3157 9.17871" stroke="#1E212B" stroke-miterlimit="10"/>
<path d="M20.8916 13.2563C20.8916 13.2563 19.9093 12.3753 19.3799 11.7153" stroke="#1E212B" stroke-miterlimit="10"/>
<path d="M18.7333 6.93057C18.5321 6.06757 18.5727 5.66357 18.5727 5.66357" stroke="#1E212B" stroke-miterlimit="10"/>
<path d="M20.8667 10.2875C20.8667 10.2875 19.9377 9.0865 19.7535 8.8075C19.5914 8.5625 19.2954 8.6185 18.99 7.8125" stroke="#1E212B" stroke-miterlimit="10"/>
<path d="M22.8528 5.74165L23.1923 4.80664" stroke="#1E212B" stroke-miterlimit="10"/>
<path d="M19.1758 4.22559C19.1758 4.22559 20.1768 6.04258 20.2682 6.35658C20.3596 6.67058 20.7743 7.20958 20.8273 7.34958C20.8801 7.49058 21.0178 7.78659 21.0178 7.78659C21.0178 7.78659 21.7035 6.85358 21.9821 6.74658C22.0518 6.71958 22.1313 6.66558 22.211 6.59958" stroke="#1E212B" stroke-miterlimit="10"/>
<path d="M23.316 11.9234L23.8443 11.2124" stroke="#1E212B" stroke-miterlimit="10"/>
<path d="M23.2317 10.0405C23.1199 10.2455 23.0307 10.4215 22.9991 10.5165C22.8869 10.8555 22.7716 11.1145 22.7716 11.1145L22.0763 11.8095L21.2977 12.7795C21.2977 12.7795 21.4434 14.4405 21.4643 14.5675C21.4851 14.6935 22.278 13.6925 22.278 13.6925L22.8823 12.5595" stroke="#1E212B" stroke-miterlimit="10"/>
<path d="M23.9513 8.80957C23.9513 8.80957 23.7833 9.08356 23.5873 9.41656" stroke="#1E212B" stroke-miterlimit="10"/>
<path d="M23.5976 15.8496C23.4847 16.1426 23.3922 16.3776 23.3922 16.3776C23.3922 16.3776 23.0574 17.0426 22.8138 17.2436C22.5702 17.4446 22.6457 17.3616 22.2452 17.5686C21.8447 17.7756 21.8447 17.7756 21.8447 17.7756C21.8447 17.7756 20.5954 16.4296 20.4961 16.3066C20.3969 16.1836 20.3295 16.0746 20.2159 15.9846" stroke="#1E212B" stroke-miterlimit="10"/>
<path d="M24.002 14.7485C23.988 14.8105 23.9082 15.0305 23.8105 15.2905" stroke="#1E212B" stroke-miterlimit="10"/>
<path d="M19.981 13.9258C20.3351 14.3738 20.7043 14.8438 20.7385 14.8988C20.8057 15.0078 21.0508 15.2358 21.1324 15.3118C21.214 15.3878 21.4447 15.6488 21.4447 15.6488C21.4447 15.6488 22.5067 15.0807 23.1027 14.2617C23.6987 13.4427 23.8251 13.0728 23.8251 13.0728" stroke="#1E212B" stroke-miterlimit="10"/>
<path d="M19.313 13.0825C19.313 13.0825 19.4982 13.3155 19.7352 13.6145" stroke="#1E212B" stroke-miterlimit="10"/>
<path d="M22.1441 25.6875C22.1441 25.6875 21.8215 19.9344 21.4757 18.0954C21.1297 16.2564 20.7399 12.7724 20.8692 11.4854C20.9985 10.1994 21.024 5.78244 21.1071 5.59544C21.1901 5.40944 21.5502 3.10645 21.5502 3.10645C21.5502 3.10645 21.2591 9.36445 21.3167 11.3524C21.3743 13.3414 21.9786 17.0914 22.1031 17.9324C22.2276 18.7744 22.7719 22.1605 22.8204 22.7995C22.8687 23.4385 23.7454 24.9574 23.7454 24.9574L22.1441 25.6875Z" fill="#1E212B" stroke="#1E212B" stroke-miterlimit="10"/>
<path d="M24.726 22.1204C24.726 22.1204 24.1846 18.8394 23.9413 18.2614C23.6979 17.6834 24.1434 13.9164 24.8242 12.4744C25.5051 11.0324 26.8796 10.0234 26.8796 10.0234L27.9641 8.45342C27.9641 8.45342 29.4361 7.91642 29.9488 8.14942C30.4614 8.38242 31.2477 8.77943 31.2477 8.77943C31.2477 8.77943 31.5745 9.08343 31.3614 9.64843C31.1483 10.2124 30.7142 10.7544 30.7142 10.7544C30.7142 10.7544 30.703 10.8664 29.9132 11.9474C29.1234 13.0284 28.9504 13.4164 28.9504 13.4164L28.6428 14.3664L28.2231 15.6544L28.2568 16.0974C28.2568 16.0974 28.5579 15.7674 28.1431 16.7854C27.7282 17.8034 27.7377 18.0414 27.7377 18.0414C27.7377 18.0414 28.6108 19.0214 28.3014 19.5424C27.9923 20.0634 27.5436 20.6384 27.5436 20.6384L27.0999 20.9424C27.0999 20.9424 26.8675 21.0314 26.5794 20.9004C26.2911 20.7694 26.3312 20.5924 26.0171 20.6054C25.7032 20.6184 25.2594 20.9224 25.2594 20.9224L24.9261 22.7954L24.726 22.1204Z" fill="#99BB44" stroke="#1E212B" stroke-miterlimit="10"/>
<path d="M24.6578 24.5314C24.6578 24.5314 24.7712 21.1634 25.0942 20.1884C25.4173 19.2144 26.9402 15.4224 27.2309 14.7694C27.5217 14.1174 30.2316 10.1074 30.2316 10.1074C30.2316 10.1074 28.0706 13.8344 27.7453 14.7374C27.4201 15.6404 26.2187 18.5964 25.8326 19.5494C25.4465 20.5024 25.3728 21.0144 25.15 22.1194C24.9274 23.2244 25.4222 24.1884 25.4222 24.1884L24.6578 24.5314Z" fill="#1E212B" stroke="#1E212B" stroke-miterlimit="10"/>
<path d="M26.3345 16.7807C26.3345 16.7807 26.0125 16.2067 25.9069 15.9247C25.8012 15.6427 25.5241 13.8437 25.5241 13.8437L25.3688 12.7227" stroke="#1E212B" stroke-miterlimit="10"/>
<path d="M27.4802 14.3824L27.0814 13.4624C27.0814 13.4624 26.8716 12.5494 26.7867 12.3944C26.7019 12.2384 26.6201 12.1624 26.6138 12.0044" stroke="#1E212B" stroke-miterlimit="10"/>
<path d="M29.0757 11.8393L28.7729 10.9623L28.6432 10.4753L28.563 10.0493L28.6721 9.63135" stroke="#1E212B" stroke-miterlimit="10"/>
<path d="M25.7212 19.8876C25.7212 19.8876 26.1009 19.5546 26.2083 19.4866C26.3155 19.4186 26.4727 19.4116 26.5767 19.2646C26.6809 19.1176 26.8314 18.9526 26.8314 18.9526L27.1581 18.4786L27.2271 18.2376L27.4258 17.7046" stroke="#1E212B" stroke-miterlimit="10"/>
</svg>
