<svg width="107" height="132" viewBox="0 0 107 132" fill="none" xmlns="http://www.w3.org/2000/svg">
<path d="M65.8169 0.615915L60.5579 5.55592L55.1399 10.8146L51.6339 14.3205L50.3599 19.2605L49.4039 21.0134L48.1289 22.1287L46.3759 24.9969L45.4199 27.5462C45.4199 27.5462 42.7119 36.6293 42.3929 39.6573C42.0739 42.6853 42.5519 51.6093 42.7119 53.5213C42.8709 55.4333 41.1179 63.0823 41.1179 63.5603C41.1179 64.0393 41.1179 72.1663 43.5089 71.8473C45.8989 71.5283 57.3719 65.9513 57.3719 65.9513C57.3719 65.9513 74.7409 47.7853 75.6979 44.9163C76.6539 42.0483 77.7699 38.7023 78.0879 36.9493C78.4069 35.1963 77.9289 32.4875 78.4069 30.5751C78.8849 28.6628 81.5939 22.6076 81.5939 19.1017C81.5939 15.5958 80.1599 10.0188 80.1599 10.0188L77.1329 6.19422L74.9009 3.64422C74.9009 3.64422 71.7139 1.57242 71.0769 1.41302C70.4379 1.25292 68.5259 0.137615 65.8169 0.615915Z" fill="#446622" stroke="#1E212B" stroke-miterlimit="10"/>
<path d="M56.9719 44.0733C56.9719 44.0733 62.7299 41.5143 63.9029 41.3003C65.0759 41.0873 68.3809 39.3813 68.3809 39.3813C68.3809 39.3813 69.2339 38.9543 70.4069 38.4213C71.5799 37.8883 72.7529 37.7823 73.6059 36.8223C74.4589 35.8623 74.9919 34.9033 74.9919 34.9033" stroke="#1E212B" stroke-miterlimit="10"/>
<path d="M76.273 13.897C76.06 14.4301 75.739 14.8567 74.78 15.8163C73.82 16.776 72.4339 17.2026 72.4339 17.2026L65.5029 21.0413L64.33 21.8945C64.33 21.8945 59.959 17.5227 59.532 16.2429C59.105 14.9632 58.5719 12.7243 58.5719 12.7243C58.5719 12.7243 58.4659 12.4042 58.3589 11.8711" stroke="#1E212B" stroke-miterlimit="10"/>
<path d="M55.5859 18.1626C55.5859 18.1626 58.9979 27.0127 59.4249 28.186C59.8509 29.3586 61.5569 31.8117 61.5569 31.8117C61.5569 31.8117 67.2089 30.5319 67.6339 30.5319C68.0609 30.5319 74.6719 29.7852 75.0979 29.4657C75.5249 29.1456 75.5249 29.1456 75.5249 29.1456" stroke="#1E212B" stroke-miterlimit="10"/>
<path d="M51.6409 24.9868L53.0269 31.4909L53.7729 35.8625L54.4129 37.5695L55.9059 41.5145" stroke="#1E212B" stroke-miterlimit="10"/>
<path d="M53.5599 51.9634L62.4099 50.3644L68.8079 47.4854" stroke="#1E212B" stroke-miterlimit="10"/>
<path d="M50.2539 59.7474C50.2539 59.7474 54.4129 58.7874 55.1589 58.4674C55.9059 58.1474 57.1849 57.7214 57.1849 57.7214L59.2109 57.4004L61.2369 56.5474" stroke="#1E212B" stroke-miterlimit="10"/>
<path d="M67.8879 10.9731C67.8879 10.9731 57.3709 40.135 55.7769 43.162C54.1839 46.19 44.1439 68.658 42.8699 70.411C41.5949 72.164 33.4519 81.185 33.4519 81.185L36.4959 83.478L46.5349 67.703L56.8929 45.393C56.8929 45.393 67.8879 15.5942 67.8879 10.9731Z" fill="#1E212B" stroke="#1E212B" stroke-miterlimit="10"/>
<path d="M31.563 80.0534C31.563 80.0534 24.491 75.3394 14.204 78.5534C3.91596 81.7684 1.77296 93.7704 3.05896 100.199C4.34496 106.629 7.55997 116.487 7.55997 119.273C7.55997 122.059 6.70197 125.06 4.77397 127.203C2.84497 129.347 -1.01303 130.418 1.12997 130.633C3.27297 130.847 5.84497 128.918 7.13097 127.203C8.41697 125.489 10.132 123.56 12.918 123.56C15.704 123.56 25.563 124.417 33.493 122.917C41.423 121.417 46.995 118.202 49.353 111.558C51.71 104.914 51.496 99.1274 48.924 95.4844C46.353 91.8404 41.069 87.8444 39.014 85.9474C36.959 84.0504 34.905 82.3114 34.905 82.3114L31.563 80.0534Z" fill="#1E212B" stroke="#1E212B" stroke-miterlimit="10"/>
<path d="M35.7569 73.1743C35.7569 73.1743 39.4889 71.0893 41.9029 70.9793C44.3169 70.8693 49.9139 70.1013 50.7919 68.2353C51.6699 66.3693 50.5719 63.2963 50.9019 61.4313C51.2309 59.5653 54.4129 55.2853 54.4129 55.2853C54.4129 55.2853 53.0959 49.0303 53.0959 47.9333C53.0959 46.8353 53.7549 44.5313 53.2059 43.3243C52.6569 42.1163 52.3279 42.3363 52.3279 40.9093C52.3279 39.4833 52.7669 38.2763 51.8889 37.0683C51.0109 35.8613 50.0229 33.7761 49.8039 33.2271C49.5849 32.6781 51.5599 31.5813 50.5729 29.0568C49.5849 26.5329 48.9269 25.9839 48.2679 24.8865C47.6089 23.7891 45.6339 20.3871 45.6339 20.3871L43.0009 18.1923L39.4889 15.2291L36.8559 13.473C36.8559 13.473 35.6489 13.2536 34.5509 12.4852C33.4539 11.7169 33.3439 11.1685 31.9179 10.8388C30.4909 10.5091 27.5279 11.4975 27.5279 11.4975L25.6619 12.8143L23.3579 14.131L20.1749 17.3136L17.7609 25.3252L16.9929 31.0316L17.3219 36.4093C17.3219 36.4093 22.4799 41.2383 22.6989 42.0053C22.9179 42.7743 22.6989 44.4203 22.0399 46.0663C21.3819 47.7133 21.1619 50.2363 22.0399 50.8953C22.9179 51.5543 23.2469 52.7613 23.2469 52.7613C23.2469 52.7613 20.6139 54.0783 20.5039 56.0533C20.3939 58.0293 21.1619 59.1263 21.1619 59.8943C21.1619 60.6633 19.5159 60.4433 19.7359 61.7603C19.9549 63.0773 21.0529 63.9553 21.0529 64.6143C21.0529 65.2723 18.8579 68.0163 19.5159 70.3203C20.1749 72.6253 23.1379 72.7343 24.1249 72.4053C25.1129 72.0763 31.8069 70.4303 31.8069 70.4303L35.7569 73.1743Z" fill="#446622" stroke="#1E212B" stroke-miterlimit="10"/>
<path d="M33.452 81.1853C33.452 81.1853 37.4029 69.4433 38.5009 64.2853C39.5979 59.1273 39.0499 43.2143 37.8419 39.7023C36.6349 36.1913 30.489 22.1431 30.489 22.1431L28.2939 17.4238C28.2939 17.4238 34.2209 32.7883 35.5379 36.1903C36.8539 39.5923 38.0609 42.0073 37.8419 45.9573C37.6229 49.9083 38.0609 60.0053 37.8419 61.2123C37.6229 62.4193 34.5499 73.1743 34.0009 74.2713C33.4519 75.3683 31.562 80.0533 31.562 80.0533L33.452 81.1853Z" fill="#1E212B" stroke="#1E212B" stroke-miterlimit="10"/>
<path d="M47.4929 50.6592C48.0329 49.6942 48.6119 48.7252 49.2559 47.8232" stroke="#1E212B" stroke-miterlimit="10"/>
<path d="M39.2689 61.2121C39.0499 61.5411 42.1229 58.4681 43.8779 56.6031C44.6789 55.7521 45.4109 54.4911 46.1789 53.0791" stroke="#1E212B" stroke-miterlimit="10"/>
<path d="M38.83 53.6401C38.83 53.6401 42.1219 51.2251 42.2319 48.9211C42.3419 46.6161 43.768 41.5681 44.756 39.3731C45.744 37.1781 46.1819 35.6421 46.1819 35.6421" stroke="#1E212B" stroke-miterlimit="10"/>
<path d="M29.941 36.0661C28.926 35.7231 27.746 35.2571 26.319 34.3243C23.465 32.4585 23.905 33.1172 23.465 32.4585" stroke="#1E212B" stroke-miterlimit="10"/>
<path d="M36.6349 39.8112C36.6349 39.8112 34.1109 37.9462 32.5749 37.0672C32.3439 36.9352 32.1059 36.8242 31.8579 36.7222" stroke="#1E212B" stroke-miterlimit="10"/>
<path d="M37.2939 49.5791C37.2939 49.5791 34.989 48.2621 32.685 46.5061C30.38 44.7501 29.502 43.4331 29.502 43.4331" stroke="#1E212B" stroke-miterlimit="10"/>
<path d="M31.049 55.7832C31.739 56.9602 32.3889 58.1742 32.6839 59.0172C33.4529 61.2122 34.55 62.6382 34.55 62.6382L36.306 66.0402" stroke="#1E212B" stroke-miterlimit="10"/>
<path d="M28.7329 52.103C28.7329 52.103 29.3859 53.07 30.1709 54.333" stroke="#1E212B" stroke-miterlimit="10"/>
<path d="M36.7449 71.1983C36.7449 71.1983 40.1469 66.6993 42.0129 64.9433C43.8789 63.1873 46.0729 61.5413 46.6219 60.8823" stroke="#1E212B" stroke-miterlimit="10"/>
<path d="M34.1109 71.7474C34.1109 71.7474 32.9039 66.1514 31.5869 65.2724C30.2709 64.3944 26.0999 63.1874 25.5509 61.2124" stroke="#1E212B" stroke-miterlimit="10"/>
<path d="M38.72 42.8843C38.72 42.8843 40.915 39.5923 41.134 37.1783C41.354 34.7633 41.903 31.9102 41.903 31.9102L42.452 29.0567L43.001 27.1909" stroke="#1E212B" stroke-miterlimit="10"/>
<path d="M50.7919 74.0523C50.7919 74.0523 51.2309 70.4303 52.8769 67.0283C54.5239 63.6263 57.8159 63.8453 59.2419 62.8583C60.6689 61.8703 60.9979 60.9923 62.2049 59.0163C63.4129 57.0413 65.9369 56.0533 66.8139 55.1753C67.6929 54.2973 68.1309 50.6763 70.5459 46.6153C72.9599 42.5553 80.9719 42.8843 82.1789 43.3233C83.3859 43.7623 87.8849 44.4203 90.6289 43.3233C93.3729 42.2263 100.616 43.4333 102.262 45.0793C103.908 46.7263 106.323 49.2493 105.335 51.0063C104.347 52.7623 102.921 53.9693 102.921 53.9693C102.921 53.9693 102.043 57.5903 100.397 59.0173C98.7499 60.4443 95.239 63.6263 93.812 64.2853C92.386 64.9443 86.8979 67.1383 86.8979 67.1383L84.0449 68.6743L83.0569 71.1993L75.5939 71.9673L71.7529 73.3943L69.5579 74.6013L68.1319 75.1503L67.3629 76.1383C67.3629 76.1383 67.3629 77.8943 66.8139 78.2233C66.2649 78.5523 66.3759 78.5523 65.6069 79.1013C64.8389 79.6503 60.8889 80.6383 60.8889 80.6383L59.2419 80.5283L56.7179 81.1873C56.7179 81.1873 54.7429 81.7353 53.9739 80.4183C53.2059 79.1023 52.3279 78.0043 52.3279 78.0043L50.7919 74.0523Z" fill="#446622" stroke="#1E212B" stroke-miterlimit="10"/>
<path d="M72.1079 54.369C73.1129 52.465 73.9479 50.237 73.9479 50.237L75.2649 47.603" stroke="#1E212B" stroke-miterlimit="10"/>
<path d="M68.3519 62.9675C68.3519 62.9675 69.5749 59.0525 70.7569 56.7065" stroke="#1E212B" stroke-miterlimit="10"/>
<path d="M83.4219 48.7911C85.5989 47.1221 86.7889 46.7261 86.7889 46.7261" stroke="#1E212B" stroke-miterlimit="10"/>
<path d="M76.6919 59.1271C76.6919 59.1271 78.8869 54.9571 79.4359 54.0781C79.9179 53.3061 79.3809 52.5331 81.2639 50.6401" stroke="#1E212B" stroke-miterlimit="10"/>
<path d="M92.0569 59.0174L95.1289 58.7974" stroke="#1E212B" stroke-miterlimit="10"/>
<path d="M91.6169 46.6162C91.6169 46.6162 87.7759 51.7742 87.0079 52.4332C86.2399 53.0912 85.2519 54.9572 84.9229 55.2862C84.5939 55.6152 83.9349 56.3842 83.9349 56.3842C83.9349 56.3842 87.4469 57.1522 88.1059 57.8102C88.2699 57.9752 88.524 58.1332 88.812 58.2762" stroke="#1E212B" stroke-miterlimit="10"/>
<path d="M75.2179 68.1812L77.8989 68.7841" stroke="#1E212B" stroke-miterlimit="10"/>
<path d="M80.4189 65.5501C79.6979 65.4911 79.0859 65.4611 78.7769 65.4921C77.6799 65.6021 76.8019 65.6021 76.8019 65.6021L73.9479 64.5041L70.2169 63.5171C70.2169 63.5171 65.7169 66.0401 65.3879 66.2601C65.0589 66.4801 68.8989 67.4671 68.8989 67.4671L72.8689 67.7511" stroke="#1E212B" stroke-miterlimit="10"/>
<path d="M84.8129 66.0404C84.8129 66.0404 83.8259 65.9094 82.6359 65.7734" stroke="#1E212B" stroke-miterlimit="10"/>
<path d="M64.5059 73.9674C63.5359 74.0174 62.7539 74.0524 62.7539 74.0524C62.7539 74.0524 60.4499 73.9424 59.5719 73.5034C58.6939 73.0634 59.0229 73.1744 57.9259 72.2964C56.8289 71.4184 56.8289 71.4184 56.8289 71.4184C56.8289 71.4184 59.0229 66.1504 59.2429 65.7114C59.4619 65.2724 59.6809 64.9434 59.7919 64.5044" stroke="#1E212B" stroke-miterlimit="10"/>
<path d="M68.1319 73.7231C67.9389 73.7621 67.2149 73.8141 66.3579 73.8651" stroke="#1E212B" stroke-miterlimit="10"/>
<path d="M65.295 61.2212C64.486 62.7982 63.634 64.4462 63.522 64.6142C63.303 64.9432 62.973 65.9312 62.863 66.2602C62.754 66.5892 62.314 67.5762 62.314 67.5762C62.314 67.5762 65.278 69.8812 68.35 70.5402C71.423 71.1982 72.63 71.0882 72.63 71.0882" stroke="#1E212B" stroke-miterlimit="10"/>
<path d="M66.8149 58.2495C66.8149 58.2495 66.3959 59.0725 65.8569 60.1275" stroke="#1E212B" stroke-miterlimit="10"/>
<path d="M34.903 82.3114C34.903 82.3114 50.71 74.0914 55.453 70.7724C60.195 67.4534 69.521 61.9204 73.315 60.6564C77.108 59.3914 89.596 53.8584 90.229 53.8584C90.861 53.8584 97.816 51.9614 97.816 51.9614C97.816 51.9614 79.796 59.0744 74.263 61.7624C68.731 64.4494 58.9299 70.9314 56.7169 72.3534C54.5029 73.7764 45.651 79.6244 43.912 80.5734C42.173 81.5214 39.0119 85.9474 39.0119 85.9474L34.903 82.3114Z" fill="#1E212B" stroke="#1E212B" stroke-miterlimit="10"/>
<path d="M48.2679 85.1364C48.2679 85.1364 56.8279 79.4294 58.1459 78.0034C59.4619 76.5764 70.6559 73.0644 75.5949 73.1744C80.5339 73.2844 85.1429 75.9184 85.1429 75.9184L90.9599 77.0154C90.9599 77.0154 94.3609 80.5274 94.3609 82.2834C94.3609 84.0394 94.2519 86.7824 94.2519 86.7824C94.2519 86.7824 93.8129 88.0994 91.9469 88.2094C90.0819 88.3184 87.9959 87.7704 87.9959 87.7704C87.9959 87.7704 87.6669 87.8804 83.6069 87.0024C79.5459 86.1234 78.2289 86.1234 78.2289 86.1234L75.1559 86.4534L70.9859 86.8924L69.7789 87.5514C69.7789 87.5514 71.0959 87.9894 67.6939 88.1004C64.2919 88.2094 63.6329 88.5384 63.6329 88.5384C63.6329 88.5384 61.9869 92.2704 60.1219 92.0504C58.2559 91.8314 56.0609 91.2824 56.0609 91.2824L54.6349 90.4034C54.6349 90.4034 54.0859 89.8544 54.0859 88.8674C54.0859 87.8804 54.6349 87.7704 54.1949 86.8924C53.7569 86.0144 52.3289 85.1364 52.3289 85.1364L46.6229 86.5624L48.2679 85.1364Z" fill="#446622" stroke="#1E212B" stroke-miterlimit="10"/>
<path d="M41.3839 88.0033C41.3839 88.0033 51.0259 84.0513 54.1879 83.7353C57.3489 83.4183 69.9959 82.9443 72.2079 82.9443C74.4219 82.9443 89.2029 85.5753 89.2029 85.5753C89.2029 85.5753 75.9229 84.1493 72.9599 84.3683C69.9969 84.5873 60.1199 84.9173 56.9379 85.0273C53.7549 85.1363 52.2179 85.5763 48.8159 86.3433C45.4139 87.1123 43.3289 89.7453 43.3289 89.7453L41.3839 88.0033Z" fill="#1E212B" stroke="#1E212B" stroke-miterlimit="10"/>
<path d="M65.3889 82.9415C65.3889 82.9415 66.5959 81.2946 67.2539 80.6366C67.9129 79.9786 72.6319 76.9055 72.6319 76.9055L75.5949 75.0396" stroke="#1E212B" stroke-miterlimit="10"/>
<path d="M73.6189 83.1613L75.7039 80.8563C75.7039 80.8563 78.0079 79.1003 78.3369 78.6623C78.6659 78.2233 78.7759 77.8933 79.2149 77.6743" stroke="#1E212B" stroke-miterlimit="10"/>
<path d="M82.8369 84.4783L84.9219 82.5023L86.1299 81.5154L87.2269 80.7464L88.5439 80.5273" stroke="#1E212B" stroke-miterlimit="10"/>
<path d="M55.84 85.1362C55.84 85.1362 57.267 85.7952 57.596 86.0142C57.925 86.2342 58.145 86.6732 58.694 86.7832C59.243 86.8932 59.901 87.1122 59.901 87.1122L61.657 87.4412L62.425 87.3312L64.182 87.2222" stroke="#1E212B" stroke-miterlimit="10"/>
</svg>
