<svg width="59" height="76" viewBox="0 0 59 76" fill="none" xmlns="http://www.w3.org/2000/svg">
<path d="M25.0645 41.93C25.0645 41.93 31.9105 35.8467 32.7935 35.0334C33.6765 34.2203 34.2345 36.8611 35.8185 36.7122C37.4025 36.5632 38.7706 35.171 38.3036 34.728C37.8356 34.2852 35.3056 35.4477 35.7126 34.425C36.1206 33.4022 39.6716 32.7808 40.7166 33.1773C41.7616 33.5738 43.3095 36.5783 44.1985 37.1974C45.0865 37.8163 47.5075 36.5877 47.1585 35.4228C46.8095 34.258 44.6555 34.2202 43.3925 33.691C42.1295 33.1617 43.3486 31.759 42.7876 31.3389C42.2266 30.9189 41.5706 31.0762 40.8846 31.0561C40.1976 31.0362 42.0796 29.7979 42.0796 29.7979C42.0796 29.7979 45.2645 29.5884 44.6025 28.3135C43.9415 27.0386 43.0906 27.4742 43.9416 27.0386C44.7936 26.6029 45.5266 26.8896 46.2916 26.243C47.0576 25.5964 47.1275 25.7187 47.2065 25.052C47.2865 24.3853 49.9235 24.4 51.1815 23.4966C52.4395 22.5933 52.9336 21.2259 53.5446 19.6917C54.1556 18.1575 53.5616 18.6701 55.2036 16.8884C56.8446 15.1068 59.0416 12.8683 57.9576 12.5274C56.8736 12.1866 56.2186 11.7888 53.7876 14.3613C51.3556 16.9337 50.7006 17.0911 50.7006 17.0911C50.7006 17.0911 49.5066 16.6838 48.6396 17.5858C47.7716 18.4878 45.8716 20.7477 45.5666 21.5148C45.2606 22.2819 43.4995 21.1323 42.4915 21.7904C41.4835 22.4487 41.7476 23.4027 41.4416 24.1698C41.1366 24.9369 40.6125 25.5715 40.1595 25.7727C39.7065 25.9739 39.2605 26.4971 39.0255 26.8311C38.7915 27.1649 39.3406 25.2758 37.9496 26.2571C36.5596 27.2385 36.0026 28.8058 36.0026 28.8058L35.4156 29.6403C35.4156 29.6403 34.2836 30.1434 33.9156 31.1107C33.5466 32.0779 32.7866 34.1563 32.7866 34.1563L25.0345 41.1972L24.4565 41.2433L25.0645 41.93Z" fill="#446622" stroke="#1E212B" stroke-miterlimit="10"/>
<path d="M33.2185 17.5881C33.2185 17.5881 31.6545 15.0501 30.8765 13.942C30.0975 12.8341 29.7565 11.436 30.1785 11.0571C30.6005 10.6781 31.4105 11.4087 31.4105 11.4087C31.4105 11.4087 31.2695 11.72 30.9445 10.4108C30.6185 9.10156 29.9805 8.23716 30.6975 8.43486C31.4155 8.63246 32.3425 9.75106 32.6135 10.4722C32.8855 11.1933 32.8235 11.3933 33.1345 12.0584C33.4455 12.7239 34.1735 11.0227 33.2235 9.49306C32.2745 7.96386 30.8155 7.71266 31.5435 6.01166C32.2725 4.31051 32.9415 5.35206 33.2135 6.07316C33.4855 6.79426 33.6955 7.15986 34.0955 5.81496C34.4965 4.47029 35.2135 4.66791 35.2115 5.77836C35.2105 6.88866 34.7405 7.55636 34.4665 8.50106C34.1915 9.44576 36.4565 3.67582 36.3985 5.3085C36.3415 6.94096 36.0285 7.38606 35.6055 8.32016C35.1825 9.25416 34.3995 10.922 34.2665 11.5555C34.1325 12.189 33.8745 12.6671 34.0375 12.7664C34.2015 12.866 35.5685 12.0289 36.8985 10.1372C38.2275 8.24546 38.2925 6.93496 38.6965 8.13306C39.0995 9.33116 38.3245 11.3212 37.9565 11.7328C37.5895 12.1445 38.3695 12.1424 38.1885 13.0645C38.0075 13.9866 37.7735 14.3206 36.9065 14.6674C36.0395 15.0142 35.9385 14.7146 35.3055 15.2829C34.6725 15.8511 34.5315 16.1624 34.5315 16.1624C34.5315 16.1624 34.9675 16.9827 34.7565 17.1723C34.5455 17.3615 34.0995 17.885 33.5355 19.1303C32.9725 20.3757 32.3435 22.9315 32.8125 22.8189C33.2805 22.7065 33.8885 22.838 35.4145 20.668C36.9395 18.4982 37.9085 17.3404 38.2045 17.917C38.5005 18.4936 38.5785 18.3822 39.6095 17.5796C40.6405 16.7772 40.9435 17.6755 39.1925 19.3908C37.4425 21.106 36.7775 22.0519 35.6455 22.555C34.5125 23.0581 34.2695 23.6252 33.4655 23.7721C32.6625 23.919 32.3105 23.8643 32.3105 23.8643C32.3105 23.8643 30.8275 29.0764 30.4985 29.988C30.1685 30.8996 26.2235 38.5064 26.2235 38.5064C26.2235 38.5064 24.5725 41.0763 24.4555 41.2433C24.3375 41.4103 23.5505 41.0906 23.5505 41.0906C23.5505 41.0906 25.5525 38.5751 26.3265 37.1405C27.1015 35.7059 30.6245 29.0326 31.1045 26.4665C31.5845 23.9 31.7965 23.1556 31.7965 23.1556C31.7965 23.1556 32.0765 23.6433 29.2735 19.8765C26.4705 16.1097 25.7885 13.3136 26.1795 12.7574C26.5705 12.2012 29.7905 13.6014 29.6705 15.4341C29.5505 17.2665 29.3235 17.9223 29.6585 17.8883C29.9945 17.8538 30.4585 15.7538 30.6195 17.5189C30.7805 19.2839 30.7485 19.6616 30.8105 20.0167C30.8725 20.372 30.3345 19.8071 30.8725 20.372C31.4095 20.9365 31.7825 21.9569 31.7825 21.9569L33.2185 17.5881Z" fill="#446622" stroke="#1E212B" stroke-miterlimit="10"/>
<path d="M28.7395 32.4919C28.7395 32.4919 28.5175 30.3717 27.8175 28.5973C27.1185 26.8226 25.0075 24.5085 24.4165 23.3556C23.8245 22.2024 24.3475 22.1232 24.9635 22.5768C25.5795 23.03 25.8585 24.0731 26.2415 23.7498C26.6245 23.4268 25.7765 21.6414 27.1025 22.5256C28.4275 23.4099 29.3315 24.1177 28.6665 25.0636C28.0015 26.0092 27.6815 26.1325 27.8135 26.6095C27.9455 27.0865 27.5935 27.5872 28.1165 27.5078C28.6395 27.4284 29.2745 25.1948 29.7875 26.459C30.3005 27.7234 30.1515 28.2676 29.3315 28.881C28.5105 29.4941 28.6975 30.0043 28.6975 30.0043L29.2095 31.8237C29.2095 31.8237 29.1925 32.2906 28.7395 32.4919Z" fill="#446622" stroke="#1E212B" stroke-miterlimit="10"/>
<path d="M49.4665 2.44836C49.4665 2.44836 50.9395 -0.864926 49.2895 1.14989C47.6395 3.16471 47.6285 5.06349 47.1045 6.25319C46.5795 7.44289 46.6025 7.85379 46.1645 8.14359C45.7275 8.43369 46.4035 5.03366 45.2235 6.38099C44.0425 7.72799 43.7455 8.26189 43.4775 9.52869C43.2105 10.7953 43.0835 12.3059 42.8025 12.3734C42.5215 12.4409 42.2465 8.62209 41.4005 10.49C40.5555 12.358 40.6705 13.3015 41.0435 14.3218C41.4165 15.3422 41.5085 16.4302 41.5085 16.4302C41.5085 16.4302 42.1165 16.5617 41.7255 17.1181C41.3345 17.6743 39.4245 21.2779 39.2065 21.1454C38.9885 21.0129 39.6015 17.813 39.0205 15.3165C38.4395 12.8199 38.1175 9.28989 36.3045 11.2052C34.4905 13.1204 35.8415 16.9583 34.9175 19.4927C33.9925 22.0271 33.3635 20.3748 33.4145 22.0734C33.4665 23.772 35.6835 23.6097 34.8855 24.6337C34.0885 25.6578 33.2295 25.7714 33.5255 26.3477C33.8205 26.9243 34.6005 26.9219 34.4515 27.4664C34.3025 28.0111 33.6305 28.6349 33.4275 29.1462C33.2235 29.6576 31.5885 32.3162 30.9235 33.2623C30.2585 34.2082 24.4575 41.2434 24.4575 41.2434L25.0645 41.93C25.0645 41.93 29.7495 35.4868 30.6405 34.4403C31.5325 33.3938 32.9555 31.4797 34.5395 31.3304C36.1235 31.1815 41.3645 33.2529 42.8935 33.6257C44.4225 33.9985 47.0535 33.1355 45.4385 32.5519C43.8245 31.9682 42.1705 31.9956 41.5855 31.7196C41.0005 31.4438 45.4565 30.975 44.4445 29.6457C43.4325 28.3161 42.7365 29.0845 41.1515 29.7889C39.5665 30.4932 40.1665 30.8578 39.0585 30.6613C37.9515 30.4649 39.2635 29.5949 38.1865 29.5758C37.1095 29.5567 36.6805 29.6136 36.0165 30.0041C35.3525 30.3948 35.3525 30.3948 34.7515 30.5853C34.1505 30.7759 33.0725 31.3122 33.0725 31.3122C33.0725 31.3122 38.6415 23.5004 38.7585 23.3335C38.8765 23.1665 43.6855 21.642 45.5665 21.5141C47.4475 21.3863 49.3195 21.4917 50.5465 20.4107C51.7735 19.3298 52.7345 18.4054 50.7365 18.7001C48.7385 18.9949 48.1675 19.9183 47.3175 19.7988C46.4665 19.6793 49.0295 17.5838 46.8285 17.8349C44.6275 18.086 44.0175 19.0648 43.3305 19.5998C42.6425 20.1348 43.7085 17.2892 43.0985 17.7128C42.4895 18.1364 41.5975 19.7381 41.0105 20.5728C40.4245 21.4073 39.3385 22.1768 39.3385 22.1768L42.5065 17.115C42.5065 17.115 46.9775 17.2903 48.9545 15.4743C50.9315 13.6584 51.5445 11.5691 50.4585 12.3386C49.3725 13.1082 47.5595 14.4681 47.5295 13.7354C47.4995 13.0028 52.0855 9.91309 51.4235 9.19329C50.7615 8.47349 48.6825 9.98989 48.8715 9.39009C49.0595 8.78969 50.4575 8.13059 50.9665 6.85199C51.4765 5.57349 49.7425 6.17759 49.7435 5.71219C49.7455 4.60169 50.8715 3.22146 50.7855 3.01075C50.6995 2.79994 49.4665 2.44836 49.4665 2.44836Z" fill="#446622" stroke="#1E212B" stroke-miterlimit="10"/>
<path d="M25.9915 43.0485C25.9915 43.0485 24.7235 40.5317 22.2345 40.5283C19.7455 40.5249 17.3365 43.5079 16.1475 45.6435C14.9575 47.7791 12.3685 51.6845 10.0615 54.9667C7.75353 58.2493 6.14152 61.3187 6.14152 61.3187C6.14152 61.3187 4.00452 65.0227 2.77552 67.769C1.54552 70.5154 0.517532 73.8608 0.501532 74.3273C0.485532 74.7936 0.585518 75.6485 1.24952 75.2577C1.91352 74.8671 7.98454 69.6632 9.11854 68.0499C10.2525 66.4365 15.5145 60.5021 16.9455 58.3548C18.3775 56.2075 22.4675 50.8319 22.4675 50.8319C22.4675 50.8319 25.1955 47.7257 25.6425 46.0922C26.0905 44.4582 25.9915 43.0485 25.9915 43.0485Z" fill="#D4D4D4" stroke="#1E212B" stroke-miterlimit="10"/>
<path d="M15.6685 47.6543C15.6685 47.6543 16.9245 47.8616 18.2335 48.6569" stroke="#1E212B" stroke-miterlimit="10"/>
<path d="M18.6905 55.762C18.6905 55.762 18.1925 54.5864 16.8595 53.9355" stroke="#1E212B" stroke-miterlimit="10"/>
<path d="M8.99353 61.1694C9.39353 61.379 9.79853 61.6545 10.1665 62.0173" stroke="#1E212B" stroke-miterlimit="10"/>
<path d="M6.63452 60.5068C6.63452 60.5068 7.52354 60.5328 8.55054 60.9618" stroke="#1E212B" stroke-miterlimit="10"/>
<path d="M9.11853 68.0501C9.11853 68.0501 8.48153 66.6309 7.38953 65.9678" stroke="#1E212B" stroke-miterlimit="10"/>
<path d="M20.7975 43.6777C21.0505 43.8442 21.3245 44.044 21.6195 44.2833" stroke="#1E212B" stroke-miterlimit="10"/>
<path d="M18.2655 42.9608C18.2655 42.9608 18.7055 42.7163 19.6635 43.0798" stroke="#1E212B" stroke-miterlimit="10"/>
<path d="M3.11951 70.5547C3.41751 70.6502 3.7555 70.806 4.1275 71.0517" stroke="#1E212B" stroke-miterlimit="10"/>
<path d="M1.69452 70.526C1.69452 70.526 1.95851 70.3981 2.42651 70.4226" stroke="#1E212B" stroke-miterlimit="10"/>
</svg>
