<svg width="125" height="177" viewBox="0 0 125 177" fill="none" xmlns="http://www.w3.org/2000/svg">
<path d="M34.2111 56.1923C33.3851 56.1923 32.6861 55.5543 32.6231 54.7163C32.5981 54.3823 32.0191 46.4143 33.0071 36.5933C34.3491 23.2463 37.8231 13.4113 43.3311 7.36032C47.3731 2.91932 52.4721 0.61332 58.4841 0.50432C66.1841 0.37932 72.5911 2.96733 77.4851 8.24033C91.0451 22.8513 88.4561 52.8233 88.3391 54.0913C88.2591 54.9693 87.4861 55.6093 86.6061 55.5343C85.7291 55.4533 85.0841 54.6763 85.1651 53.7993C85.1911 53.5023 87.7371 23.9683 75.1451 10.4073C70.8961 5.83132 65.3141 3.58232 58.5411 3.69432C53.4421 3.78532 49.1191 5.74132 45.6911 9.50432C33.5871 22.7963 35.7791 54.1623 35.8031 54.4783C35.8681 55.3563 35.2101 56.1213 34.3321 56.1883C34.2911 56.1903 34.2511 56.1923 34.2111 56.1923Z" fill="white" stroke="#1E212B" stroke-miterlimit="10"/>
<path d="M118.464 175.927C119.545 175.927 120.43 175.068 120.463 173.988L124.398 45.0381C124.433 43.8911 123.498 42.9501 122.351 42.9771L2.45227 45.8351C1.35167 45.8611 0.479178 46.7721 0.500378 47.8731L2.92438 173.965C2.94528 175.055 3.83438 175.927 4.92398 175.927H118.464Z" fill="#446622" stroke="#1E212B" stroke-miterlimit="10"/>
<path d="M62.0642 98.7332C62.8292 98.0412 63.6052 97.3142 64.3642 96.5722C65.1432 95.8112 65.9052 94.9643 66.6272 94.0543L67.2312 93.2922L66.6122 92.5413C66.1372 91.9653 65.6102 91.3793 65.0442 90.7993C64.4912 90.2333 63.9142 89.6552 63.3132 89.0652L61.5302 87.3163C60.9402 86.7373 60.3732 86.1743 59.8392 85.6393C59.4782 85.2693 59.1292 84.9162 58.7902 84.5782C58.4522 84.2422 58.1162 83.9112 57.7772 83.5862L57.0922 82.9272L56.2462 83.3832C55.9262 83.5542 55.6112 83.7923 55.3072 84.0843C55.0742 84.3083 54.8402 84.5392 54.6062 84.7752C54.3952 84.9892 54.1792 85.1962 53.9562 85.4002C53.7752 85.5662 53.6062 85.7002 53.4522 85.7972L52.2962 86.5372L53.1562 87.5862C53.5332 88.0462 54.0042 88.5603 54.5552 89.1143L54.8432 89.4033C52.4062 89.3583 49.8132 89.3232 49.3972 89.3222C45.4502 89.3202 42.2152 90.3492 39.8702 92.7722C37.5242 95.1952 36.8502 98.1223 36.8502 101.937C36.8502 102.819 36.8592 103.682 36.8202 104.524V105.903C36.8592 107.858 36.8292 109.918 36.7302 112.082C36.6302 114.247 36.5412 116.345 36.4622 118.375C36.5412 119.372 36.7302 122.801 38.7332 125.445C41.3882 128.951 46.1152 130.043 48.1732 130.043H49.1892C49.6272 130.043 53.5092 130.034 54.0082 130.014C54.5052 129.996 54.8742 129.833 55.1132 129.525C55.1922 128.568 55.2222 127.476 55.2032 126.249C55.1822 125.024 55.2122 123.913 55.2912 122.916V122.628H55.2332C54.0372 122.59 50.3362 122.423 48.2632 121.392C46.7642 120.646 45.7932 119.822 45.2342 118.595C44.7562 116.986 44.9762 115.079 45.0352 113.317C45.0952 111.555 45.1052 109.849 45.0652 108.202C45.1452 107.321 45.2342 106.43 45.3332 105.529C45.4322 104.629 45.5822 103.699 45.7822 102.741C45.8212 102.474 45.8702 102.224 45.9312 101.994C45.9922 101.764 46.0632 101.516 46.1402 101.247C46.5312 99.8713 46.9152 99.0632 47.7072 98.2712C48.3102 97.6692 49.3912 97.2053 50.0772 97.0623C50.7882 96.9133 52.8982 96.8482 54.9312 96.8022C54.3062 97.3702 53.6752 97.9162 53.0322 98.4182L51.8742 99.3222L52.9792 100.286L53.8862 101.124C53.9142 101.153 53.9462 101.189 53.9752 101.221C54.0612 101.322 54.1952 101.456 54.3872 101.624C54.5122 101.734 54.6792 101.882 54.8842 102.069C55.1092 102.273 55.4082 102.531 55.7822 102.843L56.7332 103.571L57.5762 102.734C58.2622 102.051 58.9862 101.389 59.7282 100.762C60.5102 100.101 61.2872 99.4242 62.0592 98.7292L62.0642 98.7332Z" fill="#99BB44"/>
<path d="M86.4601 99.6404C86.3831 98.6234 86.2001 95.1243 84.2601 92.4263C81.6881 88.8493 77.1081 87.7354 75.1151 87.7354H74.1301C73.7061 87.7354 69.9451 87.7443 69.4621 87.7643C68.9801 87.7823 68.6231 87.9493 68.3911 88.2623C68.3151 89.2393 68.2861 90.3543 68.3051 91.6053C68.3251 92.8563 68.2961 93.9903 68.2191 95.0073V95.3013H68.276C69.433 95.3393 73.019 95.5103 75.028 96.5623C76.48 97.3233 77.4211 98.1643 77.9621 99.4153C78.4251 101.058 78.2121 103.003 78.1541 104.802C78.0961 106.6 78.087 108.34 78.125 110.021C78.049 110.92 77.9631 111.829 77.8661 112.748C77.7701 113.667 77.6251 114.615 77.4321 115.593C77.3941 115.866 77.346 116.121 77.287 116.355C77.228 116.59 77.159 116.843 77.084 117.118C76.706 118.522 76.3331 119.346 75.5661 120.154C74.9821 120.768 73.9341 121.241 73.2701 121.388C72.5821 121.54 70.5381 121.607 68.5681 121.654C69.1731 121.075 69.7851 120.518 70.4081 120.004L71.528 119.082L70.4601 118.099L69.569 117.23C69.544 117.205 69.5181 117.172 69.4931 117.144C69.4091 117.041 69.277 116.901 69.097 116.736C68.975 116.622 68.8111 116.468 68.6131 116.28C68.3961 116.07 68.1071 115.807 67.7431 115.489L66.821 114.744L66.0051 115.6C65.3411 116.295 64.64 116.972 63.92 117.611C63.161 118.285 62.4091 118.977 61.6611 119.686C60.9051 120.404 60.1551 121.147 59.4321 121.892C58.6781 122.667 57.9401 123.532 57.2411 124.459L56.6541 125.237L57.2551 126.004C57.7141 126.59 58.2251 127.188 58.7731 127.781C59.3081 128.358 59.868 128.948 60.451 129.551L62.177 131.334C62.749 131.925 63.299 132.5 63.817 133.047C64.166 133.423 64.504 133.784 64.832 134.129C65.16 134.471 65.4861 134.809 65.8121 135.14L66.4751 135.812L67.293 135.35C67.601 135.177 67.9081 134.936 68.2061 134.633C68.4321 134.404 68.659 134.169 68.884 133.928C69.089 133.71 69.2981 133.498 69.5141 133.289C69.6911 133.118 69.855 132.983 70.002 132.885L71.1241 132.131L70.289 131.059C69.925 130.59 69.468 130.065 68.933 129.499C68.846 129.406 68.7441 129.3 68.6541 129.204C71.0151 129.249 73.5281 129.285 73.9301 129.286C77.7541 129.289 80.8881 128.239 83.1611 125.766C85.4331 123.294 86.086 120.307 86.086 116.414C86.086 115.514 86.0771 114.634 86.1151 113.775V112.367C86.0771 110.372 86.1061 108.27 86.2021 106.063C86.2991 103.853 86.3861 101.713 86.4621 99.6413L86.4601 99.6404Z" fill="#F7F2EE"/>
</svg>
