<svg width="452" height="455" viewBox="0 0 452 455" fill="none" xmlns="http://www.w3.org/2000/svg">
<path d="M145.186 35.918C145.186 35.918 69.4201 74.523 31.6281 134.017C-6.16395 193.511 -3.17195 269.971 42.7511 326.798C88.6741 383.625 176.444 376.137 249.928 412.117C323.412 448.096 404.504 440.694 439.249 364.456C473.994 288.218 421.604 259.74 412.597 171.521C403.59 83.301 324.067 -45.883 145.186 35.918Z" fill="#446622"/>
<path opacity="0.7" d="M145.186 35.918C145.186 35.918 69.4201 74.523 31.6281 134.017C-6.16395 193.511 -3.17195 269.971 42.7511 326.798C88.6741 383.625 176.444 376.137 249.928 412.117C323.412 448.096 404.504 440.694 439.249 364.456C473.994 288.218 421.604 259.74 412.597 171.521C403.59 83.301 324.067 -45.883 145.186 35.918Z" fill="white"/>
<path d="M101.503 342.478C104.553 341.485 109.819 336.587 109.823 336.583C109.878 336.532 105.541 334.092 105.25 333.969C101.878 332.551 94.53 331.793 91.86 334.9C89.937 337.138 90.666 340.406 92.989 342.025C95.361 343.679 98.905 343.324 101.503 342.478Z" fill="#9C9C9C"/>
<path d="M156.907 295.345C156.981 295.333 154.71 290.905 154.535 290.642C152.505 287.599 146.794 282.913 142.853 284.032C140.015 284.838 138.82 287.965 139.864 290.597C140.93 293.285 144.082 294.944 146.716 295.672C149.807 296.526 156.902 295.346 156.907 295.345Z" fill="#9C9C9C"/>
<path d="M117.194 356.395C119.768 354.701 123.328 349.048 123.609 348.597C126.752 350.609 130.141 352.418 133.671 354.059C135.688 355 137.749 355.885 139.827 356.746C138.82 356.494 137.918 356.276 137.788 356.259C134.161 355.782 126.874 356.991 125.119 360.693C123.855 363.36 125.421 366.319 128.089 367.267C130.814 368.236 134.138 366.957 136.421 365.455C138.737 363.931 141.868 359.172 142.68 357.902C143.481 358.224 144.276 358.555 145.078 358.873C148.925 360.404 152.77 361.915 156.496 363.512C157.81 364.074 159.082 364.676 160.358 365.274C159.463 365.051 158.708 364.871 158.59 364.855C154.964 364.377 147.676 365.587 145.922 369.288C144.658 371.955 146.224 374.914 148.892 375.862C151.616 376.83 154.941 375.552 157.223 374.05C159.433 372.596 162.363 368.229 163.335 366.724C164.622 367.376 165.914 368.026 167.132 368.715C167.954 369.205 168.779 369.619 169.576 370.156C170.377 370.672 171.17 371.182 171.955 371.688C173.432 372.717 174.962 373.77 176.377 374.81C177.367 375.526 178.297 376.226 179.236 376.929C177.935 376.354 175.365 375.282 175.14 375.217C171.628 374.196 164.241 374.287 161.946 377.68C160.293 380.124 161.392 383.287 163.886 384.628C166.432 385.998 169.913 385.238 172.396 384.099C175.13 382.845 179.356 378.013 179.88 377.406C181.429 378.575 182.926 379.726 184.319 380.835C188.379 384.049 191.757 386.934 194.328 389.198L196.376 387.377C193.696 385.112 190.119 382.181 185.806 378.917C184.237 377.724 182.537 376.48 180.78 375.22C181.011 374.76 182.312 372.134 183.217 369.53C186.292 369.834 192.073 368.251 192.817 368.041C193.465 369.87 194.077 371.656 194.628 373.35C196.211 378.178 197.42 382.377 198.311 385.657L200.545 383.671C199.617 380.582 198.422 376.817 196.927 372.57C196.277 370.709 195.545 368.734 194.774 366.713C195.457 366.322 201.02 363.09 202.775 360.642C204.367 358.422 205.777 355.151 204.919 352.389C204.078 349.685 201.184 348.003 198.469 349.159C194.7 350.763 193.2 357.997 193.532 361.64C193.552 361.855 194.025 364.162 194.347 365.614C194.028 364.79 193.727 363.986 193.388 363.142C192.729 361.468 192.022 359.816 191.268 358.037C190.874 357.191 190.475 356.335 190.073 355.472C189.693 354.607 189.181 353.742 188.734 352.866C187.655 350.858 186.465 348.876 185.221 346.906C186.686 346.325 191.857 344.188 193.775 342.226C195.684 340.272 197.574 337.253 197.144 334.394C196.722 331.594 194.117 329.492 191.257 330.223C187.289 331.239 184.71 338.161 184.487 341.813C184.473 342.04 184.607 344.678 184.709 346.126C183.952 344.947 183.203 343.767 182.398 342.6C180.077 339.23 177.622 335.89 175.188 332.548C174.441 331.525 173.711 330.496 172.975 329.469C173.498 329.268 179.7 326.861 181.849 324.663C183.759 322.71 185.648 319.69 185.218 316.83C184.796 314.03 182.191 311.928 179.332 312.66C175.364 313.675 172.785 320.598 172.562 324.249C172.545 324.524 172.744 328.319 172.841 329.282C171.221 327.02 169.628 324.75 168.149 322.449C166.103 319.277 164.27 316.051 162.727 312.795C162.971 312.702 169.455 310.219 171.656 307.967C173.566 306.013 175.456 302.994 175.025 300.134C174.604 297.334 171.998 295.232 169.139 295.964C165.17 296.979 162.592 303.902 162.369 307.553C162.354 307.793 162.502 310.683 162.605 312.057C162.48 312.089 162.503 312.083 162.378 312.115C160.766 308.607 159.647 305.006 158.765 301.584C158.25 299.602 157.869 297.68 157.541 295.801C158.796 295.462 164.514 293.851 166.719 292.044C168.832 290.312 171.042 287.518 170.928 284.629C170.816 281.8 168.457 279.424 165.535 279.837C161.479 280.41 158.156 287.008 157.533 290.612C157.499 290.808 157.375 292.839 157.306 294.319C157.171 293.469 157.015 292.594 156.902 291.777C156.468 288.71 156.26 285.875 156.096 283.362C156.015 281.932 155.969 280.638 155.939 279.427C156.997 278.452 161.212 274.47 162.316 271.897C163.393 269.386 164.067 265.888 162.634 263.377C161.231 260.917 158.043 259.896 155.64 261.609C152.305 263.987 152.396 271.374 153.504 274.86C153.6 275.161 155.638 279.701 155.694 279.65C155.694 279.65 155.746 279.603 155.758 279.591C155.763 280.757 155.782 282.008 155.831 283.373C155.941 285.894 156.088 288.742 156.456 291.83C156.816 294.917 157.295 298.261 158.117 301.738C158.936 305.224 159.976 308.849 161.53 312.446C161.547 312.486 161.571 312.527 161.589 312.567C160.808 311.656 158.538 309.183 158.342 309.013C155.581 306.614 148.835 303.602 145.33 305.721C142.805 307.248 142.479 310.58 144.18 312.843C145.918 315.154 149.397 315.922 152.129 315.928C155.21 315.936 161.298 313.184 161.782 312.963C163.294 316.375 165.122 319.753 167.161 323.07C168.325 324.968 169.556 326.843 170.814 328.707C170.113 327.941 169.481 327.262 169.382 327.176C166.621 324.777 159.875 321.765 156.37 323.885C153.845 325.412 153.518 328.744 155.22 331.007C156.958 333.318 160.436 334.085 163.169 334.092C165.941 334.099 171.178 331.857 172.556 331.245C173.046 331.955 173.528 332.67 174.021 333.378C176.385 336.777 178.759 340.158 180.985 343.546C181.771 344.74 182.5 345.944 183.234 347.146C182.611 346.467 182.08 345.9 181.991 345.822C179.229 343.423 172.484 340.411 168.979 342.531C166.454 344.058 166.127 347.39 167.83 349.653C169.568 351.963 173.047 352.731 175.779 352.738C178.424 352.744 183.277 350.718 184.918 349.999C185.632 351.253 186.351 352.507 186.987 353.755C187.402 354.617 187.861 355.417 188.23 356.306C188.614 357.178 188.993 358.041 189.369 358.896C190.033 360.569 190.728 362.291 191.334 363.94C191.765 365.083 192.154 366.18 192.549 367.284C191.782 366.087 190.229 363.775 190.077 363.596C188.505 361.742 185.236 359.363 182.107 358.429C181.876 358.154 181.623 357.9 181.344 357.672C179.151 355.881 175.809 356.074 174.182 358.537C171.924 361.954 174.663 368.815 176.95 371.67C177.085 371.838 178.753 373.502 179.822 374.534C179.101 374.023 178.407 373.518 177.658 373.001C176.185 371.968 174.684 370.981 173.073 369.912C172.277 369.424 171.473 368.93 170.661 368.433C169.867 367.921 168.962 367.483 168.107 366.998C166.1 365.919 164.013 364.922 161.889 363.964C162.79 362.672 165.924 358.037 166.442 355.341C166.957 352.658 166.867 349.097 164.931 346.95C163.035 344.848 159.702 344.531 157.721 346.719C154.971 349.755 156.64 356.952 158.468 360.12C158.582 360.318 160.149 362.444 161.032 363.595C159.75 363.029 158.474 362.459 157.159 361.928C153.363 360.397 149.474 358.967 145.6 357.522C144.413 357.08 143.236 356.626 142.055 356.175C142.381 355.719 146.226 350.289 146.805 347.271C147.32 344.588 147.231 341.027 145.294 338.88C143.398 336.778 140.065 336.462 138.084 338.649C135.334 341.685 137.003 348.882 138.83 352.05C138.968 352.288 141.227 355.345 141.84 356.094C139.241 355.101 136.66 354.087 134.157 352.984C130.7 351.467 127.393 349.788 124.309 347.923C124.461 347.711 128.499 342.063 129.093 338.971C129.608 336.288 129.519 332.727 127.582 330.58C125.686 328.477 122.353 328.162 120.372 330.349C117.622 333.385 119.291 340.582 121.118 343.75C121.238 343.958 122.958 346.29 123.801 347.378C123.714 347.473 123.73 347.456 123.644 347.551C120.364 345.514 117.443 343.128 114.819 340.759C113.297 339.39 111.918 337.997 110.607 336.611C111.467 335.636 115.348 331.138 116.189 328.414C116.996 325.804 117.298 322.255 115.609 319.908C113.955 317.61 110.677 316.93 108.468 318.887C105.402 321.603 106.27 328.939 107.738 332.289C107.818 332.471 108.835 334.233 109.593 335.506C109.011 334.872 108.399 334.228 107.853 333.608C105.799 331.289 104.062 329.039 102.539 327.034C101.682 325.887 100.93 324.832 100.237 323.839C100.582 322.442 101.901 316.795 101.402 314.041C100.915 311.353 99.548 308.064 96.967 306.759C94.44 305.482 91.217 306.389 90.158 309.143C88.688 312.967 92.839 319.077 95.686 321.374C95.932 321.572 100.137 324.234 100.156 324.161C100.156 324.161 100.173 324.093 100.177 324.077C100.825 325.047 101.531 326.079 102.325 327.191C103.807 329.233 105.501 331.527 107.512 333.9C109.516 336.276 111.76 338.801 114.363 341.247C116.97 343.703 119.837 346.153 123.118 348.295C123.155 348.319 123.197 348.339 123.234 348.364C122.08 348.035 118.822 347.225 118.565 347.191C114.939 346.714 107.651 347.923 105.896 351.624C104.632 354.291 106.198 357.25 108.866 358.199C111.587 359.175 114.912 357.896 117.194 356.395Z" fill="#9C9C9C"/>
<path d="M304.282 102.714C306.417 106.287 314.133 111.541 314.139 111.545C314.219 111.599 316.058 105.408 316.13 105.004C316.953 100.328 315.795 90.8109 311.094 88.3269C307.707 86.5379 303.782 88.4029 302.403 91.8079C300.992 95.2869 302.463 99.6689 304.282 102.714Z" fill="#9C9C9C"/>
<path d="M379.893 159.248C379.93 159.338 384.878 155.188 385.161 154.891C388.427 151.445 392.712 142.868 390.16 138.203C388.322 134.843 384.02 134.232 380.991 136.312C377.896 138.436 376.705 142.903 376.543 146.445C376.353 150.603 379.89 159.241 379.893 159.248Z" fill="#9C9C9C"/>
<path d="M291.191 126.581C294.076 129.35 302.256 132.226 302.908 132.452C301.267 137.009 299.955 141.819 298.894 146.76C298.284 149.584 297.758 152.448 297.267 155.325C297.296 153.978 297.311 152.773 297.296 152.605C296.855 147.878 293.224 139.004 288.035 137.85C284.296 137.019 281.002 139.853 280.571 143.503C280.13 147.23 282.706 151.069 285.264 153.525C287.86 156.016 294.784 158.608 296.626 159.269C296.449 160.375 296.26 161.477 296.088 162.583C295.26 167.892 294.455 173.194 293.507 178.369C293.174 180.194 292.779 181.977 292.39 183.764C292.414 182.567 292.425 181.559 292.41 181.405C291.969 176.678 288.34 167.804 283.15 166.65C279.411 165.819 276.117 168.653 275.686 172.303C275.246 176.03 277.822 179.869 280.38 182.324C282.857 184.702 289.227 187.151 291.412 187.948C290.958 189.765 290.508 191.587 289.986 193.327C289.603 194.508 289.317 195.671 288.866 196.835C288.444 197.997 288.027 199.148 287.613 200.287C286.736 202.452 285.845 204.691 284.936 206.782C284.316 208.241 283.697 209.62 283.077 211.01C283.43 209.198 284.046 205.636 284.064 205.333C284.345 200.594 282.101 191.273 277.146 189.346C273.576 187.959 269.891 190.261 268.912 193.803C267.912 197.42 269.877 201.605 272.033 204.42C274.407 207.519 281.74 211.475 282.659 211.963C281.626 214.26 280.6 216.486 279.598 218.569C276.701 224.633 274.023 229.739 271.899 233.644L274.793 235.712C276.887 231.668 279.565 226.297 282.454 219.898C283.512 217.569 284.596 215.059 285.685 212.472C286.334 212.632 290.031 213.521 293.587 213.916C294.089 217.895 297.757 224.755 298.237 225.636C296.108 226.982 294.025 228.272 292.04 229.458C286.386 232.852 281.421 235.592 277.527 237.664L280.683 239.919C284.324 237.854 288.744 235.258 293.688 232.142C295.855 230.783 298.144 229.288 300.48 227.73C301.172 228.482 306.864 234.591 310.468 236.106C313.736 237.48 318.282 238.323 321.529 236.441C324.708 234.598 326.004 230.451 323.758 227.347C320.642 223.04 311.055 223.226 306.541 224.696C306.274 224.783 303.491 226.046 301.747 226.873C302.698 226.232 303.629 225.62 304.599 224.947C306.528 223.631 308.414 222.26 310.449 220.793C311.407 220.05 312.374 219.3 313.35 218.541C314.335 217.811 315.282 216.913 316.261 216.095C318.491 214.151 320.656 212.074 322.792 209.932C323.949 211.618 328.143 217.547 331.18 219.409C334.202 221.262 338.568 222.784 342.062 221.415C345.484 220.075 347.393 216.172 345.644 212.764C343.215 208.035 333.712 206.767 329.027 207.535C328.735 207.583 325.436 208.513 323.633 209.058C324.907 207.761 326.184 206.472 327.43 205.118C331.026 201.209 334.545 197.14 338.073 193.097C339.153 191.857 340.244 190.636 341.332 189.409C341.737 190.013 346.57 197.168 349.971 199.254C352.993 201.108 357.359 202.629 360.854 201.261C364.275 199.92 366.185 196.018 364.435 192.61C362.007 187.881 352.503 186.612 347.819 187.381C347.466 187.439 342.721 188.784 341.53 189.184C343.926 186.483 346.339 183.812 348.825 181.277C352.25 177.774 355.804 174.525 359.48 171.634C359.668 171.916 364.679 179.406 368.162 181.542C371.185 183.396 375.55 184.918 379.045 183.549C382.467 182.209 384.376 178.306 382.626 174.898C380.198 170.168 370.694 168.9 366.01 169.669C365.702 169.719 362.087 170.74 360.378 171.265C360.302 171.116 360.316 171.143 360.24 170.995C364.215 167.944 368.449 165.49 372.526 163.388C374.886 162.166 377.208 161.13 379.492 160.172C380.282 161.663 383.969 168.435 386.891 170.704C389.692 172.879 393.864 174.871 397.487 173.894C401.035 172.937 403.362 169.267 401.997 165.689C400.103 160.721 390.796 158.417 386.056 158.667C385.798 158.681 383.193 159.109 381.299 159.447C382.336 159.031 383.398 158.582 384.4 158.203C388.156 156.77 391.684 155.69 394.817 154.758C396.603 154.243 398.227 153.812 399.752 153.425C401.29 154.483 407.544 158.67 411.118 159.326C414.605 159.965 419.226 159.81 421.992 157.274C424.701 154.79 425.074 150.46 422.214 147.914C418.243 144.379 408.922 146.622 404.829 149.028C404.476 149.237 399.318 153.124 399.398 153.18C399.398 153.18 399.472 153.232 399.491 153.244C398.017 153.587 396.44 153.971 394.726 154.426C391.567 155.291 388.006 156.298 384.203 157.654C380.4 159 376.306 160.569 372.143 162.611C367.967 164.652 363.679 167.012 359.575 170.016C359.529 170.05 359.485 170.091 359.438 170.125C360.365 168.874 362.842 165.289 363 164.992C365.24 160.806 367.108 151.402 363.416 147.577C360.756 144.822 356.445 145.369 354.072 148.174C351.649 151.04 351.679 155.663 352.458 159.122C353.336 163.023 358.573 169.934 358.992 170.483C355.11 173.379 351.362 176.667 347.751 180.202C345.685 182.221 343.666 184.32 341.669 186.449C342.436 185.341 343.113 184.345 343.193 184.196C345.433 180.01 347.301 170.606 343.609 166.781C340.949 164.025 336.638 164.572 334.265 167.378C331.841 170.244 331.872 174.866 332.651 178.326C333.441 181.836 337.787 187.818 338.959 189.385C338.201 190.21 337.436 191.025 336.682 191.853C333.062 195.823 329.466 199.802 325.82 203.596C324.536 204.934 323.222 206.204 321.912 207.479C322.592 206.494 323.157 205.66 323.23 205.524C325.47 201.338 327.338 191.934 323.645 188.109C320.985 185.353 316.674 185.9 314.301 188.706C311.878 191.571 311.909 196.194 312.688 199.654C313.442 203.003 317.404 208.561 318.787 210.43C317.406 211.695 316.025 212.966 314.63 214.13C313.659 214.903 312.778 215.715 311.76 216.438C310.767 217.175 309.784 217.904 308.811 218.626C306.885 219.948 304.906 221.324 302.995 222.567C301.673 223.442 300.396 224.25 299.113 225.068C300.407 223.752 302.885 221.121 303.067 220.878C304.96 218.354 307.028 213.532 307.309 209.304C307.591 208.933 307.839 208.539 308.047 208.121C309.681 204.83 308.474 200.656 304.889 199.307C299.914 197.434 292.021 202.878 289.067 206.594C288.893 206.813 287.268 209.403 286.27 211.054C286.709 209.994 287.148 208.971 287.586 207.874C288.469 205.712 289.285 203.528 290.173 201.182C290.562 200.034 290.954 198.875 291.35 197.704C291.769 196.551 292.063 195.28 292.43 194.058C293.218 191.207 293.878 188.279 294.477 185.315C296.372 186.083 303.141 188.714 306.701 188.592C310.244 188.471 314.725 187.331 316.884 184.262C318.998 181.256 318.438 176.948 315.099 175.071C310.465 172.466 301.838 176.651 298.355 179.877C298.138 180.078 295.899 182.674 294.696 184.123C295.042 182.338 295.397 180.559 295.689 178.742C296.532 173.498 297.222 168.163 297.935 162.844C298.152 161.214 298.388 159.594 298.618 157.97C299.289 158.251 307.268 161.552 311.255 161.415C314.798 161.294 319.279 160.155 321.439 157.085C323.553 154.08 322.993 149.771 319.654 147.894C315.019 145.289 306.393 149.474 302.91 152.699C302.648 152.942 299.431 156.682 298.66 157.673C299.169 154.098 299.708 150.54 300.382 147.054C301.306 142.242 302.478 137.573 303.949 133.133C304.261 133.264 312.573 136.747 316.656 136.608C320.2 136.487 324.68 135.347 326.84 132.278C328.955 129.273 328.394 124.964 325.055 123.087C320.42 120.482 311.794 124.667 308.311 127.892C308.082 128.104 305.627 130.952 304.493 132.333C304.348 132.251 304.374 132.266 304.229 132.184C305.862 127.446 308.04 123.062 310.281 119.059C311.575 116.738 312.94 114.592 314.317 112.534C315.798 113.342 322.61 116.956 326.299 117.237C329.835 117.506 334.413 116.865 336.897 114.052C339.329 111.297 339.245 106.952 336.132 104.72C331.812 101.622 322.778 104.835 318.962 107.658C318.755 107.811 316.818 109.606 315.425 110.933C316.06 110.014 316.699 109.054 317.325 108.185C319.668 104.918 322.014 102.071 324.113 99.5649C325.318 98.1499 326.436 96.8949 327.493 95.7309C329.36 95.7649 336.886 95.8069 340.228 94.3819C343.489 92.9909 347.258 90.3129 348.166 86.6719C349.054 83.1059 346.978 79.2889 343.187 78.7419C337.925 77.9829 331.388 84.9969 329.302 89.2619C329.122 89.6309 326.965 95.7179 327.063 95.7209C327.063 95.7209 327.154 95.7229 327.176 95.7229C326.136 96.8219 325.032 98.0129 323.854 99.3379C321.697 101.802 319.281 104.606 316.858 107.835C314.429 111.055 311.879 114.623 309.534 118.622C307.177 122.628 304.902 126.963 303.137 131.732C303.117 131.786 303.103 131.845 303.083 131.898C303.166 130.343 303.253 125.987 303.222 125.651C302.781 120.924 299.151 112.05 293.962 110.896C290.223 110.065 286.929 112.899 286.497 116.549C286.058 120.286 288.634 124.125 291.191 126.581Z" fill="#9C9C9C"/>
<path d="M351.67 302.612V299.262C351.67 282.014 373.509 281.269 373.509 268.984C373.509 263.648 369.166 260.174 362.714 260.174C355.64 260.174 351.174 264.02 351.174 269.481V270.846C351.174 272.211 350.429 272.832 349.064 272.832L335.787 272.335C334.546 272.335 333.677 271.715 333.677 270.846V269.481C333.677 254.466 345.59 244.166 363.086 244.166C380.21 244.166 391.254 253.845 391.254 268.363C391.254 288.962 369.042 289.086 369.042 300.378V302.612C369.042 303.977 368.298 304.721 366.933 304.721H353.779C352.414 304.721 351.67 303.977 351.67 302.612ZM350.553 322.591C350.553 317.131 355.392 312.664 361.224 312.664C366.808 312.664 371.772 317.132 371.772 322.591C371.772 328.051 366.808 332.518 361.1 332.518C355.268 332.517 350.553 328.051 350.553 322.591Z" fill="#263238"/>
<path d="M89.465 160.506V157.596C89.465 142.615 108.434 141.968 108.434 131.298C108.434 126.664 104.662 123.646 99.058 123.646C92.914 123.646 89.035 126.987 89.035 131.73V132.915C89.035 134.101 88.388 134.64 87.202 134.64L75.67 134.209C74.592 134.209 73.837 133.67 73.837 132.916V131.731C73.837 118.69 84.184 109.744 99.381 109.744C114.254 109.744 123.847 118.151 123.847 130.761C123.847 148.652 104.554 148.76 104.554 158.568V160.508C104.554 161.694 103.908 162.34 102.722 162.34H91.297C90.112 162.339 89.465 161.692 89.465 160.506ZM88.495 177.859C88.495 173.117 92.698 169.237 97.763 169.237C102.613 169.237 106.924 173.117 106.924 177.859C106.924 182.601 102.613 186.481 97.655 186.481C92.591 186.481 88.495 182.601 88.495 177.859Z" fill="#446622"/>
<path d="M330.827 45.7571V44.2871C330.827 36.7171 340.412 36.3911 340.412 30.9991C340.412 28.6571 338.506 27.1331 335.674 27.1331C332.57 27.1331 330.609 28.8211 330.609 31.2171V31.8161C330.609 32.4151 330.282 32.6871 329.683 32.6871L323.856 32.4691C323.311 32.4691 322.93 32.1971 322.93 31.8161V31.2171C322.93 24.6281 328.158 20.1071 335.837 20.1071C343.352 20.1071 348.199 24.3551 348.199 30.7261C348.199 39.7661 338.451 39.8201 338.451 44.7761V45.7561C338.451 46.3551 338.125 46.6821 337.525 46.6821H331.752C331.153 46.6831 330.827 46.3561 330.827 45.7571ZM330.336 54.5251C330.336 52.1291 332.46 50.1681 335.019 50.1681C337.47 50.1681 339.648 52.1291 339.648 54.5251C339.648 56.9211 337.47 58.8811 334.964 58.8811C332.406 58.8821 330.336 56.9211 330.336 54.5251Z" fill="#446622"/>
<path d="M49.9821 248.003V246.15C49.9821 236.611 62.0601 236.199 62.0601 229.405C62.0601 226.454 59.6581 224.533 56.0891 224.533C52.1771 224.533 49.7071 226.66 49.7071 229.68V230.435C49.7071 231.19 49.2951 231.533 48.5401 231.533L41.1971 231.258C40.5111 231.258 40.0301 230.915 40.0301 230.435V229.68C40.0301 221.376 46.6191 215.68 56.2951 215.68C65.7661 215.68 71.8741 221.033 71.8741 229.063C71.8741 240.455 59.5891 240.524 59.5891 246.769V248.004C59.5891 248.759 59.1781 249.171 58.4231 249.171H51.1481C50.3941 249.169 49.9821 248.758 49.9821 248.003ZM49.3641 259.052C49.3641 256.032 52.0401 253.562 55.2661 253.562C58.3541 253.562 61.1001 256.033 61.1001 259.052C61.1001 262.072 58.3551 264.542 55.1981 264.542C51.9721 264.542 49.3641 262.072 49.3641 259.052Z" stroke="#263238" stroke-miterlimit="10"/>
<path d="M141.97 75.3811V74.1061C141.97 67.5451 150.278 67.2621 150.278 62.5881C150.278 60.5581 148.626 59.2371 146.171 59.2371C143.48 59.2371 141.781 60.7001 141.781 62.7771V63.2961C141.781 63.8151 141.498 64.0511 140.978 64.0511L135.927 63.8621C135.455 63.8621 135.124 63.6261 135.124 63.2961V62.7771C135.124 57.0651 139.656 53.1471 146.311 53.1471C152.825 53.1471 157.026 56.8291 157.026 62.3521C157.026 70.1881 148.577 70.2351 148.577 74.5311V75.3811C148.577 75.9001 148.294 76.1831 147.775 76.1831H142.771C142.254 76.1841 141.97 75.9001 141.97 75.3811ZM141.546 82.9811C141.546 80.9041 143.387 79.2051 145.605 79.2051C147.729 79.2051 149.617 80.9051 149.617 82.9811C149.617 85.0581 147.729 86.7571 145.557 86.7571C143.339 86.7571 141.546 85.0581 141.546 82.9811Z" fill="#263238"/>
<path d="M290.01 349.534V348.259C290.01 341.698 298.318 341.415 298.318 336.741C298.318 334.711 296.666 333.39 294.211 333.39C291.52 333.39 289.821 334.853 289.821 336.93V337.449C289.821 337.968 289.538 338.204 289.018 338.204L283.967 338.015C283.495 338.015 283.164 337.779 283.164 337.449V336.93C283.164 331.218 287.696 327.3 294.351 327.3C300.865 327.3 305.066 330.982 305.066 336.505C305.066 344.341 296.616 344.388 296.616 348.683V349.533C296.616 350.052 296.333 350.335 295.814 350.335H290.81C290.294 350.337 290.01 350.054 290.01 349.534ZM289.586 357.134C289.586 355.057 291.427 353.358 293.645 353.358C295.769 353.358 297.657 355.058 297.657 357.134C297.657 359.211 295.769 360.91 293.597 360.91C291.379 360.91 289.586 359.211 289.586 357.134Z" stroke="#263238" stroke-miterlimit="10"/>
<path d="M250.852 372.292C250.781 372.079 250.707 371.868 250.632 371.658C250.561 371.445 250.487 371.234 250.411 371.023C250.34 370.81 250.266 370.598 250.19 370.387C250.12 370.175 250.046 369.964 249.97 369.753C249.9 369.54 249.825 369.329 249.749 369.118C249.679 368.905 249.605 368.694 249.529 368.483C249.458 368.27 249.384 368.059 249.308 367.848C249.237 367.635 249.163 367.424 249.087 367.213C249.017 367 248.943 366.789 248.867 366.579C248.797 366.366 248.722 366.154 248.646 365.943C248.576 365.731 248.502 365.52 248.426 365.31C248.355 365.096 248.281 364.884 248.205 364.673C248.135 364.46 248.061 364.249 247.985 364.039C247.915 363.826 247.841 363.615 247.764 363.404C247.694 363.191 247.62 362.98 247.544 362.769C247.474 362.556 247.4 362.345 247.324 362.135C247.254 361.922 247.18 361.711 247.103 361.5C247.033 361.287 246.959 361.075 246.882 360.864C246.812 360.651 246.738 360.44 246.662 360.23C243.397 350.314 233.319 343.03 222.224 343.03C211.478 343.03 202.129 349.295 198.268 358.114C198.172 358.316 198.081 358.52 197.991 358.725C197.895 358.928 197.804 359.133 197.714 359.338C197.618 359.54 197.527 359.744 197.438 359.949C197.342 360.152 197.251 360.356 197.161 360.562C197.065 360.765 196.974 360.969 196.884 361.175C196.788 361.378 196.697 361.582 196.607 361.787C196.512 361.989 196.42 362.194 196.33 362.398C196.234 362.601 196.143 362.805 196.053 363.011C195.958 363.213 195.867 363.418 195.777 363.623C195.681 363.826 195.59 364.031 195.5 364.236C195.405 364.438 195.314 364.642 195.224 364.847C195.128 365.05 195.037 365.256 194.946 365.461C194.851 365.663 194.76 365.867 194.67 366.071C194.574 366.274 194.483 366.479 194.393 366.684C194.298 366.886 194.207 367.091 194.116 367.295C194.02 367.498 193.929 367.703 193.839 367.908C193.744 368.11 193.653 368.315 193.562 368.52C193.466 368.723 193.375 368.928 193.285 369.133C193.19 369.336 193.099 369.54 193.008 369.745C192.913 369.948 192.822 370.152 192.731 370.357C191.055 373.918 190.118 377.84 190.118 381.955C190.118 398.048 204.016 411.215 221.207 411.215C238.032 411.215 252.662 398.048 252.662 381.955C252.662 378.808 252.096 375.775 251.072 372.928C251.002 372.713 250.928 372.502 250.852 372.292Z" fill="#263238"/>
<path d="M227.059 150.796C175.487 150.796 140.375 181.154 140.375 225.41V229.433C140.375 230.773 141.082 231.909 142.275 232.691C142.486 232.894 142.722 233.081 142.982 233.251C143.193 233.454 143.429 233.642 143.69 233.812C143.901 234.015 144.137 234.203 144.398 234.373C144.608 234.576 144.845 234.764 145.106 234.934C145.316 235.138 145.552 235.325 145.813 235.494C146.023 235.698 146.259 235.885 146.521 236.055C146.731 236.259 146.967 236.446 147.228 236.616C147.437 236.82 147.674 237.007 147.936 237.177C148.145 237.381 148.381 237.568 148.643 237.738C148.867 237.958 149.123 238.158 149.409 238.336C149.605 238.522 149.822 238.695 150.064 238.851C150.272 239.055 150.507 239.242 150.769 239.41C150.976 239.615 151.212 239.801 151.475 239.97C151.682 240.175 151.918 240.361 152.181 240.53C152.387 240.735 152.624 240.921 152.887 241.09C153.093 241.296 153.33 241.481 153.592 241.649C153.798 241.855 154.035 242.04 154.298 242.209C154.503 242.415 154.741 242.6 155.004 242.768C155.209 242.974 155.447 243.159 155.71 243.327C155.914 243.534 156.152 243.718 156.416 243.887C157.307 244.793 158.79 245.352 160.615 245.352L192.773 246.554C196.079 246.554 197.882 245.051 197.882 241.745V238.439C197.882 225.215 208.702 215.898 225.833 215.898C241.461 215.898 251.981 224.313 251.981 237.236C251.981 238.775 251.832 240.235 251.564 241.633C235.421 262.792 193.412 272.118 193.412 313.191V323.067C193.412 327.09 195.606 329.284 199.63 329.284H238.4C242.423 329.284 244.618 327.09 244.618 323.067V316.484C244.618 283.2 310.088 282.834 310.088 222.119C310.086 179.325 277.534 150.796 227.059 150.796Z" fill="#263238"/>
<path d="M193.41 323.067V313.191C193.41 262.351 257.783 260.157 257.783 223.947C257.783 208.22 244.982 197.979 225.962 197.979C205.114 197.979 191.947 209.317 191.947 225.41V229.433C191.947 233.456 189.753 235.285 185.729 235.285L146.593 233.822C142.935 233.822 140.375 231.994 140.375 229.433V225.41C140.375 181.154 175.488 150.796 227.059 150.796C277.534 150.796 310.085 179.325 310.085 222.118C310.085 282.833 244.615 283.199 244.615 316.483V323.066C244.615 327.089 242.42 329.283 238.397 329.283H199.627C195.604 329.284 193.41 327.09 193.41 323.067ZM190.118 381.953C190.118 365.86 204.382 352.692 221.573 352.692C238.032 352.692 252.662 365.86 252.662 381.953C252.662 398.046 238.032 411.213 221.207 411.213C204.017 411.213 190.118 398.047 190.118 381.953Z" fill="#446622" stroke="#446622" stroke-miterlimit="10"/>
<path d="M219.614 444C249.776 444 274.228 438.532 274.228 431.786C274.228 425.04 249.776 419.572 219.614 419.572C189.452 419.572 165 425.04 165 431.786C165 438.532 189.452 444 219.614 444Z" fill="#263238"/>
<path d="M177.869 154.846L175.781 159.414C175.781 159.414 163.644 160.719 163.644 161.633C163.644 162.547 163.774 168.811 164.427 169.072C165.08 169.333 165.471 169.202 165.993 169.072C166.515 168.942 183.872 164.504 183.872 164.504L185.569 156.413L177.869 154.846Z" fill="white" stroke="#263238" stroke-miterlimit="10" stroke-linecap="round" stroke-linejoin="round"/>
<path d="M174.467 163.007C174.467 163.007 170.222 166.467 167.324 167.769C164.426 169.071 164.348 171.043 165.241 171.043C166.134 171.043 174.318 167.62 174.318 167.62C174.318 167.62 181.729 165.678 182.8 165.09C183.871 164.503 183.99 161.221 183.99 161.221" fill="white"/>
<path d="M174.467 163.007C174.467 163.007 170.222 166.467 167.324 167.769C164.426 169.071 164.348 171.043 165.241 171.043C166.134 171.043 174.318 167.62 174.318 167.62C174.318 167.62 181.729 165.678 182.8 165.09C183.871 164.503 183.99 161.221 183.99 161.221" stroke="#263238" stroke-miterlimit="10" stroke-linecap="round" stroke-linejoin="round"/>
<path d="M188.553 67.2329L181.095 124.412L175.896 155.374L187.423 158.086L196.011 121.474L200.079 98.4209L188.553 67.2329Z" fill="#7D7D7D" stroke="#263238" stroke-miterlimit="10" stroke-linecap="round" stroke-linejoin="round"/>
<path d="M248.754 25.83L244.198 25.111L234.883 21.58L234.544 32.654L248.994 33.984L248.754 25.83Z" fill="white" stroke="#263238" stroke-miterlimit="10" stroke-linecap="round" stroke-linejoin="round"/>
<path d="M195.559 228.599C195.559 228.599 189.909 235.153 186.067 241.029C182.225 246.905 183.581 253.233 188.327 254.815C193.073 256.397 199.175 252.103 200.757 248.713C202.339 245.323 201.887 243.515 204.373 240.125C206.859 236.735 208.893 233.345 207.989 228.825C207.085 224.305 198.045 225.435 195.559 228.599Z" fill="#7D7D7D" stroke="#263238" stroke-miterlimit="10" stroke-linecap="round" stroke-linejoin="round"/>
<path d="M200.295 249.526C199.979 248.845 199.612 248.127 199.175 247.358C195.545 240.969 189.213 241.485 185.146 242.67C182.519 248.038 184.02 253.381 188.326 254.817C192.7 256.274 198.217 252.742 200.295 249.526Z" fill="white" stroke="#263238" stroke-miterlimit="10" stroke-linecap="round" stroke-linejoin="round"/>
<path d="M199.175 247.358C197.819 249.392 196.011 254.816 189.005 252.556C186.25 251.667 184.763 250.5 183.961 249.409C184.385 251.981 185.916 254.012 188.327 254.816C193.073 256.398 199.175 252.104 200.757 248.714C202.339 245.324 201.887 243.516 204.373 240.126C206.859 236.736 208.893 233.346 207.989 228.826C207.989 234.25 205.955 235.154 203.469 238.092C200.983 241.03 200.531 245.324 199.175 247.358Z" fill="white" stroke="#263238" stroke-miterlimit="10" stroke-linecap="round" stroke-linejoin="round"/>
<path d="M262.251 228.599C262.251 228.599 267.901 235.153 271.743 241.029C275.585 246.905 274.229 253.233 269.483 254.815C264.737 256.397 258.635 252.103 257.053 248.713C255.471 245.323 255.923 243.515 253.437 240.125C250.951 236.735 248.917 233.345 249.821 228.825C250.725 224.305 259.765 225.435 262.251 228.599Z" fill="#7D7D7D" stroke="#263238" stroke-miterlimit="10" stroke-linecap="round" stroke-linejoin="round"/>
<path d="M257.515 249.526C257.831 248.845 258.198 248.127 258.635 247.358C262.265 240.969 268.597 241.485 272.664 242.67C275.291 248.038 273.79 253.381 269.484 254.817C265.11 256.274 259.594 252.742 257.515 249.526Z" fill="white" stroke="#263238" stroke-miterlimit="10" stroke-linecap="round" stroke-linejoin="round"/>
<path d="M258.635 247.358C259.991 249.392 261.799 254.816 268.805 252.556C271.56 251.667 273.047 250.5 273.849 249.409C273.425 251.981 271.894 254.012 269.483 254.816C264.737 256.398 258.635 252.104 257.053 248.714C255.471 245.324 255.923 243.516 253.437 240.126C250.951 236.736 248.917 233.346 249.821 228.826C249.821 234.25 251.855 235.154 254.341 238.092C256.827 241.03 257.279 245.324 258.635 247.358Z" fill="white" stroke="#263238" stroke-miterlimit="10" stroke-linecap="round" stroke-linejoin="round"/>
<path d="M272.852 150.628C272.852 146.56 265.846 142.04 265.846 142.04C255.295 131.307 236.263 132.727 229.234 133.69C222.204 132.727 203.172 131.308 192.621 142.04C192.621 142.04 185.615 146.56 185.615 150.628C185.615 154.696 194.429 228.147 194.429 228.147C194.429 228.147 194.203 231.989 200.531 232.441C206.859 232.893 209.571 229.277 209.571 229.277L212.057 167.126C212.057 167.126 222.227 159.894 224.035 159.668C224.704 159.584 225.561 159.439 226.521 159.323V159.442C227.42 159.234 228.337 159.163 229.233 159.158C230.129 159.163 231.046 159.235 231.945 159.442V159.323C232.906 159.439 233.762 159.584 234.431 159.668C236.239 159.894 246.409 167.126 246.409 167.126L248.895 229.277C248.895 229.277 251.607 232.893 257.935 232.441C264.263 231.989 264.037 228.147 264.037 228.147C264.037 228.147 272.852 154.696 272.852 150.628Z" fill="#263238" stroke="#263238" stroke-miterlimit="10" stroke-linecap="round" stroke-linejoin="round"/>
<path d="M246.41 167.126C246.41 167.126 245.054 152.21 251.608 146.56" stroke="#707070" stroke-miterlimit="10" stroke-linecap="round" stroke-linejoin="round"/>
<path d="M212.057 167.126C212.057 167.126 212.735 154.696 211.379 150.176C210.023 145.656 207.763 143.848 207.763 143.848" stroke="#707070" stroke-miterlimit="10" stroke-linecap="round" stroke-linejoin="round"/>
<path d="M220.419 137.52C220.419 137.52 227.651 145.882 229.007 152.888" stroke="#707070" stroke-miterlimit="10" stroke-linecap="round" stroke-linejoin="round"/>
<path d="M236.24 137.972C236.24 137.972 232.172 142.492 231.72 145.882" stroke="#707070" stroke-miterlimit="10" stroke-linecap="round" stroke-linejoin="round"/>
<path d="M226.069 50.057C226.069 50.057 219.515 49.153 217.255 51.413C214.995 53.673 207.311 62.035 207.311 62.035L211.379 133.904C211.379 133.904 220.645 137.52 228.555 137.52C236.465 137.52 245.505 134.582 247.539 133C249.573 131.418 247.765 54.351 247.765 54.351C247.765 54.351 231.041 49.379 226.069 50.057Z" fill="#446622" stroke="#263238" stroke-miterlimit="10" stroke-linecap="round" stroke-linejoin="round"/>
<path d="M238.047 51.6389C238.047 51.6389 243.923 50.7349 248.443 50.7349C252.963 50.7349 257.483 50.9609 257.483 50.9609L268.783 40.1129L245.957 34.9149L247.765 24.5189C247.765 24.5189 264.489 23.3889 272.851 24.9709C281.213 26.5529 294.321 30.6209 294.999 30.6209C295.677 30.6209 296.581 33.1069 295.903 34.9149C295.225 36.7229 273.981 60.2269 267.653 66.3299C261.325 72.4319 255.901 79.2119 255.901 79.2119L252.963 129.611C252.963 129.611 260.421 133.679 261.777 135.035C263.133 136.391 264.715 141.815 264.715 141.815C264.715 141.815 250.929 136.165 247.313 135.713C243.697 135.261 241.437 135.035 240.759 133.679C240.081 132.323 234.431 71.9799 234.431 71.9799L234.657 52.7699C234.657 52.7699 234.657 51.6389 238.047 51.6389Z" fill="#7D7D7D" stroke="#263238" stroke-miterlimit="10" stroke-linecap="round" stroke-linejoin="round"/>
<path d="M251.608 82.601L239.404 84.183L240.534 88.703L246.636 90.285L252.512 87.573L251.608 82.601Z" stroke="#263238" stroke-miterlimit="10" stroke-linecap="round" stroke-linejoin="round"/>
<path d="M258.614 55.481L255.902 79.211L262.908 59.097" stroke="#263238" stroke-miterlimit="10" stroke-linecap="round" stroke-linejoin="round"/>
<path d="M268.784 40.1129C268.784 40.1129 274.434 41.2429 283.022 37.8529" stroke="#263238" stroke-miterlimit="10" stroke-linecap="round" stroke-linejoin="round"/>
<path d="M274.66 41.6949C274.66 41.6949 280.536 41.9209 285.734 40.7909" stroke="#263238" stroke-miterlimit="10" stroke-linecap="round" stroke-linejoin="round"/>
<path d="M218.385 49.8309L219.515 66.3289C219.515 66.3289 222.679 70.8489 228.329 70.6229C233.979 70.3969 234.657 66.3289 234.657 66.3289V52.7689L218.385 49.8309Z" fill="white" stroke="#263238" stroke-miterlimit="10" stroke-linecap="round" stroke-linejoin="round"/>
<path d="M234.883 58.4189L234.431 71.9789L239.177 64.521C239.177 64.521 244.375 71.0749 245.731 70.8489C247.087 70.6229 244.827 67.911 244.375 65.425C243.923 62.939 240.081 54.1249 239.629 51.6389C239.177 49.1529 234.883 48.701 234.657 49.831C234.431 50.961 234.657 52.7689 234.657 52.7689L234.883 58.4189Z" fill="#7D7D7D" stroke="#263238" stroke-miterlimit="10" stroke-linecap="round" stroke-linejoin="round"/>
<path d="M219.289 70.623C219.289 70.623 220.193 133.904 217.933 134.582C215.673 135.26 206.633 135.486 200.983 138.198C195.333 140.91 192.621 142.04 192.621 142.04C192.621 142.04 195.333 135.486 198.497 132.548C201.661 129.61 205.503 127.802 205.503 127.802L199.627 97.518C199.627 97.518 188.779 68.816 188.553 67.233C188.327 65.651 209.119 53.899 213.413 51.865C217.707 49.831 218.837 51.639 218.837 51.639L219.289 70.623Z" fill="#7D7D7D" stroke="#263238" stroke-miterlimit="10" stroke-linecap="round" stroke-linejoin="round"/>
<path d="M213.639 48.7009C213.639 48.7009 208.215 65.8769 207.763 68.1369C207.311 70.3969 207.763 70.3969 209.345 68.8149C210.927 67.2329 214.995 63.3909 214.995 63.3909L219.289 70.6229L219.063 57.2889V49.6049C219.063 49.6049 218.837 46.4409 213.639 48.7009Z" fill="#7D7D7D" stroke="#263238" stroke-miterlimit="10" stroke-linecap="round" stroke-linejoin="round"/>
<path d="M203.017 85.7649H216.351L216.125 91.1889L210.249 93.2229L202.791 91.1889L203.017 85.7649Z" stroke="#263238" stroke-miterlimit="10" stroke-linecap="round" stroke-linejoin="round"/>
<path d="M239.629 26.3259C239.629 26.3259 242.793 40.1119 243.471 42.3719C244.149 44.6319 239.855 53.4459 238.499 55.4799C237.143 57.5139 235.109 58.6439 233.527 58.6439C231.945 58.6439 223.357 55.7059 221.323 54.3499C219.289 52.9939 217.255 51.4119 217.255 51.4119C217.255 51.4119 214.091 52.9939 211.379 50.5079C208.667 48.0219 205.051 45.0839 205.955 43.0499C206.859 41.0159 208.667 39.8859 211.153 39.8859C213.639 39.8859 212.735 39.6599 212.735 39.6599C212.735 39.6599 208.215 33.1059 208.215 27.9079C208.215 22.7099 217.933 18.8679 223.583 18.8679C229.233 18.8679 234.883 21.5799 234.883 21.5799L239.629 26.3259Z" fill="white" stroke="#263238" stroke-miterlimit="10" stroke-linecap="round" stroke-linejoin="round"/>
<path d="M231.719 31.5239L235.787 39.2089L231.719 41.9209L229.911 39.6609" stroke="#263238" stroke-miterlimit="10" stroke-linecap="round" stroke-linejoin="round"/>
<path d="M239.177 38.5309C239.177 38.5309 239.403 40.3389 236.691 43.2769" stroke="#263238" stroke-miterlimit="10" stroke-linecap="round" stroke-linejoin="round"/>
<path d="M227.425 34.35C227.425 35.411 226.97 36.271 226.408 36.271C225.846 36.271 225.391 35.411 225.391 34.35C225.391 33.289 225.846 32.429 226.408 32.429C226.97 32.429 227.425 33.288 227.425 34.35Z" fill="#263238"/>
<path d="M234.544 32.6539C235.106 32.6539 235.561 31.7938 235.561 30.7329C235.561 29.672 235.106 28.8119 234.544 28.8119C233.982 28.8119 233.527 29.672 233.527 30.7329C233.527 31.7938 233.982 32.6539 234.544 32.6539Z" fill="#263238"/>
<path d="M215.221 14.574C215.221 14.574 200.983 19.7719 200.531 26.3259C200.079 32.8799 213.187 41.92 213.865 43.05C214.543 44.18 216.577 41.694 216.577 41.694C216.577 41.694 214.995 39.66 215.673 37.4C216.351 35.14 219.289 32.4279 219.289 31.2979C219.289 30.1679 215.899 32.2019 215.899 28.8119C215.899 25.4219 224.261 23.3879 229.233 23.6139C234.205 23.8399 238.499 32.202 242.115 28.134C245.731 24.066 240.533 22.9359 240.533 22.9359C240.533 22.9359 247.539 22.0319 247.539 18.4159C247.539 14.7999 243.923 12.3139 242.341 12.3139C240.759 12.3139 236.465 15.026 236.465 12.088C236.465 9.14995 240.759 7.79395 236.691 3.04795C232.623 -1.69805 227.425 3.04795 227.425 4.85595C227.425 6.66395 226.069 10.054 225.165 10.054C224.261 10.054 221.549 5.98595 218.385 8.24595C215.221 10.5059 215.221 14.574 215.221 14.574Z" fill="#263238" stroke="#263238" stroke-miterlimit="10" stroke-linecap="round" stroke-linejoin="round"/>
<path d="M221.097 31.9759L228.329 29.2639" stroke="#263238" stroke-miterlimit="10" stroke-linecap="round" stroke-linejoin="round"/>
<path d="M229.459 26.0999C229.459 26.0999 229.203 25.2029 229.782 24.0239" stroke="#263238" stroke-miterlimit="10" stroke-linecap="round" stroke-linejoin="round"/>
<path d="M229.782 24.024C230.29 22.988 231.443 21.733 233.979 20.677" stroke="white" stroke-miterlimit="10" stroke-linecap="round" stroke-linejoin="round"/>
<path d="M259.191 438.56L265.251 436.927C265.251 436.927 274.117 440.686 278.76 438.926C283.402 437.167 292.652 431.131 294.892 427.788C297.132 424.444 296.41 420.351 294.431 419.146C292.452 417.942 286.846 418.644 282.257 419.494C277.667 420.343 269.768 423.385 267.729 426.719C265.69 430.052 266.495 431.923 264.782 433.829C263.071 435.732 255.087 439.081 259.191 438.56Z" fill="#446622" stroke="#1E212B" stroke-miterlimit="10" stroke-linecap="round" stroke-linejoin="round"/>
<path d="M288.4 423.674C292.52 422.323 292.952 421.643 292.952 421.643" stroke="#1E212B" stroke-width="0.5" stroke-miterlimit="10" stroke-linecap="round" stroke-linejoin="round"/>
<path d="M261.653 436.524C261.653 436.524 281.904 426.035 287.247 424.062" stroke="#1E212B" stroke-width="0.5" stroke-miterlimit="10" stroke-linecap="round" stroke-linejoin="round"/>
<path d="M279.796 435.469C281.956 435.328 283.065 435.153 283.065 435.153" stroke="#1E212B" stroke-width="0.5" stroke-miterlimit="10" stroke-linecap="round" stroke-linejoin="round"/>
<path d="M267.294 435.308C267.294 435.308 269.14 434.082 270.256 433.876C271.328 433.678 275.81 435.513 278.587 435.529" stroke="#1E212B" stroke-width="0.5" stroke-miterlimit="10" stroke-linecap="round" stroke-linejoin="round"/>
<path d="M284.164 432.79C284.164 432.79 279.379 431.282 277.99 430.964C276.6 430.646 275.608 430.405 275.176 430.575C274.744 430.746 272.461 432.044 272.461 432.044" stroke="#1E212B" stroke-width="0.5" stroke-miterlimit="10" stroke-linecap="round" stroke-linejoin="round"/>
<path d="M281.487 427.592C281.487 427.592 285.551 429.384 287.656 430.252C289.761 431.12 291.365 429.955 291.365 429.955" stroke="#1E212B" stroke-width="0.5" stroke-miterlimit="10" stroke-linecap="round" stroke-linejoin="round"/>
<path d="M292.191 426.196C291.788 426.227 291.341 426.224 290.868 426.16C289.042 425.915 286.458 425.269 286.458 425.269" stroke="#1E212B" stroke-width="0.5" stroke-miterlimit="10" stroke-linecap="round" stroke-linejoin="round"/>
<path d="M294.129 425.742C294.129 425.742 293.932 425.833 293.591 425.935" stroke="#1E212B" stroke-width="0.5" stroke-miterlimit="10" stroke-linecap="round" stroke-linejoin="round"/>
<path d="M274.706 426.325C274.967 425.585 275.302 424.876 275.728 424.371C277.111 422.729 279.198 421.441 279.198 421.441" stroke="#1E212B" stroke-width="0.5" stroke-miterlimit="10" stroke-linecap="round" stroke-linejoin="round"/>
<path d="M273.911 429.809C273.911 429.809 274.033 428.742 274.354 427.494" stroke="#1E212B" stroke-width="0.5" stroke-miterlimit="10" stroke-linecap="round" stroke-linejoin="round"/>
<path d="M281.909 422.792C282.157 422.389 282.448 422.011 282.788 421.691C284.608 419.977 285.945 419.317 285.945 419.317" stroke="#1E212B" stroke-width="0.5" stroke-miterlimit="10" stroke-linecap="round" stroke-linejoin="round"/>
<path d="M280.56 426.76C280.56 426.76 280.737 425.306 281.378 423.823" stroke="#1E212B" stroke-width="0.5" stroke-miterlimit="10" stroke-linecap="round" stroke-linejoin="round"/>
<path d="M269.971 427.02C270.263 426.488 270.615 425.985 271.038 425.553" stroke="#1E212B" stroke-width="0.5" stroke-miterlimit="10" stroke-linecap="round" stroke-linejoin="round"/>
<path d="M268.552 432.251C268.552 432.251 268.65 430.182 269.453 428.133" stroke="#1E212B" stroke-width="0.5" stroke-miterlimit="10" stroke-linecap="round" stroke-linejoin="round"/>
<path d="M270.698 439.48L265.518 439.499C265.518 439.499 260.812 444.793 256.606 444.371C252.399 443.95 242.834 440.943 239.638 438.603C236.443 436.263 235.056 432.588 235.935 431.093C236.814 429.598 241.229 428.889 244.971 428.543C248.714 428.197 255.894 428.955 258.939 431.334C261.984 433.713 262.271 435.504 264.411 436.736C266.548 437.966 273.933 438.967 270.698 439.48Z" fill="#99BB44" stroke="#1E212B" stroke-miterlimit="10" stroke-linecap="round" stroke-linejoin="round"/>
<path d="M242.448 433.56C238.813 433.367 238.18 432.885 238.18 432.885Z" fill="#99BB44"/>
<path d="M242.448 433.56C238.813 433.367 238.18 432.885 238.18 432.885" stroke="#1E212B" stroke-width="0.5" stroke-miterlimit="10" stroke-linecap="round" stroke-linejoin="round"/>
<path d="M267.952 438.312C267.952 438.312 248.287 434.064 243.47 433.623Z" fill="#99BB44"/>
<path d="M267.952 438.312C267.952 438.312 248.287 434.064 243.47 433.623" stroke="#1E212B" stroke-width="0.5" stroke-miterlimit="10" stroke-linecap="round" stroke-linejoin="round"/>
<path d="M254.234 441.652C252.593 442.036 251.703 442.146 251.703 442.146Z" fill="#99BB44"/>
<path d="M254.234 441.652C252.593 442.036 251.703 442.146 251.703 442.146" stroke="#1E212B" stroke-width="0.5" stroke-miterlimit="10" stroke-linecap="round" stroke-linejoin="round"/>
<path d="M263.272 438.59C263.272 438.59 261.353 437.972 260.443 438.056C259.569 438.137 257.16 440.757 255.143 441.421" fill="#99BB44"/>
<path d="M263.272 438.59C263.272 438.59 261.353 437.972 260.443 438.056C259.569 438.137 257.16 440.757 255.143 441.421" stroke="#1E212B" stroke-width="0.5" stroke-miterlimit="10" stroke-linecap="round" stroke-linejoin="round"/>
<path d="M249.797 440.379C249.797 440.379 252.58 437.968 253.444 437.371C254.308 436.773 254.919 436.335 255.314 436.379C255.708 436.424 257.979 437.003 257.979 437.003" fill="#99BB44"/>
<path d="M249.797 440.379C249.797 440.379 252.58 437.968 253.444 437.371C254.308 436.773 254.919 436.335 255.314 436.379C255.708 436.424 257.979 437.003 257.979 437.003" stroke="#1E212B" stroke-width="0.5" stroke-miterlimit="10" stroke-linecap="round" stroke-linejoin="round"/>
<path d="M249.319 435.3C249.319 435.3 247.194 437.786 246.065 439.021C244.937 440.257 243.223 439.635 243.223 439.635" fill="#99BB44"/>
<path d="M249.319 435.3C249.319 435.3 247.194 437.786 246.065 439.021C244.937 440.257 243.223 439.635 243.223 439.635" stroke="#1E212B" stroke-width="0.5" stroke-miterlimit="10" stroke-linecap="round" stroke-linejoin="round"/>
<path d="M240.863 436.608C241.171 436.54 241.496 436.433 241.811 436.268C243.028 435.63 244.609 434.473 244.609 434.473" fill="#99BB44"/>
<path d="M240.863 436.608C241.171 436.54 241.496 436.433 241.811 436.268C243.028 435.63 244.609 434.473 244.609 434.473" stroke="#1E212B" stroke-width="0.5" stroke-miterlimit="10" stroke-linecap="round" stroke-linejoin="round"/>
<path d="M239.238 436.672C239.238 436.672 239.424 436.704 239.721 436.712Z" fill="#99BB44"/>
<path d="M239.238 436.672C239.238 436.672 239.424 436.704 239.721 436.712" stroke="#1E212B" stroke-width="0.5" stroke-miterlimit="10" stroke-linecap="round" stroke-linejoin="round"/>
<path d="M253.669 432.629C253.133 432.056 252.557 431.527 252.011 431.194C250.235 430.111 248.112 429.496 248.112 429.496" fill="#99BB44"/>
<path d="M253.669 432.629C253.133 432.056 252.557 431.527 252.011 431.194C250.235 430.111 248.112 429.496 248.112 429.496" stroke="#1E212B" stroke-width="0.5" stroke-miterlimit="10" stroke-linecap="round" stroke-linejoin="round"/>
<path d="M255.878 435.427C255.878 435.427 255.29 434.542 254.472 433.548Z" fill="#99BB44"/>
<path d="M255.878 435.427C255.878 435.427 255.29 434.542 254.472 433.548" stroke="#1E212B" stroke-width="0.5" stroke-miterlimit="10" stroke-linecap="round" stroke-linejoin="round"/>
<path d="M246.767 431.287C246.398 431 246.008 430.744 245.611 430.549C243.483 429.507 242.2 429.255 242.2 429.255" fill="#99BB44"/>
<path d="M246.767 431.287C246.398 431 246.008 430.744 245.611 430.549C243.483 429.507 242.2 429.255 242.2 429.255" stroke="#1E212B" stroke-width="0.5" stroke-miterlimit="10" stroke-linecap="round" stroke-linejoin="round"/>
<path d="M249.605 434.37C249.605 434.37 248.796 433.166 247.636 432.046Z" fill="#99BB44"/>
<path d="M249.605 434.37C249.605 434.37 248.796 433.166 247.636 432.046" stroke="#1E212B" stroke-width="0.5" stroke-miterlimit="10" stroke-linecap="round" stroke-linejoin="round"/>
<path d="M257.446 432.116C256.984 431.729 256.492 431.38 255.982 431.109Z" fill="#99BB44"/>
<path d="M257.446 432.116C256.984 431.729 256.492 431.38 255.982 431.109" stroke="#1E212B" stroke-width="0.5" stroke-miterlimit="10" stroke-linecap="round" stroke-linejoin="round"/>
<path d="M260.926 436.266C260.926 436.266 259.887 434.516 258.343 432.948Z" fill="#99BB44"/>
<path d="M260.926 436.266C260.926 436.266 259.887 434.516 258.343 432.948" stroke="#1E212B" stroke-width="0.5" stroke-miterlimit="10" stroke-linecap="round" stroke-linejoin="round"/>
<path d="M18.3312 178.194L17.3958 173.156C17.3573 172.948 17.1621 172.807 16.9606 172.844C16.7589 172.879 16.6265 173.078 16.6647 173.285L17.4671 177.604C16.2876 176.792 15.157 175.969 14.0785 175.144L13.2655 169.695C13.2343 169.485 13.0445 169.338 12.8411 169.366C12.6379 169.394 12.5014 169.589 12.5297 169.796L13.23 174.491C11.8807 173.432 10.6224 172.38 9.45098 171.353C9.44936 171.338 9.45009 171.323 9.44613 171.308L8.29279 166.757C8.24076 166.551 8.03724 166.425 7.83883 166.474C7.64043 166.524 7.52153 166.733 7.57303 166.936L8.47167 170.483C5.5761 167.871 3.30539 165.489 1.7446 163.741C4.27968 164.272 11.514 165.922 15.4499 168.22C19.6892 170.695 21.5141 178.566 21.8949 180.441C20.6646 179.71 19.4749 178.959 18.3312 178.194Z" fill="#446622"/>
<path d="M6.48271 169.665L3.94554 169.15C3.74337 169.109 3.54994 169.244 3.51416 169.452C3.47544 169.658 3.61371 169.86 3.81587 169.902L7.43924 170.637C7.4693 170.643 7.49788 170.639 7.52697 170.637C8.85468 171.851 10.3206 173.119 11.913 174.4L7.79073 174.799C7.58674 174.818 7.43887 175.005 7.46331 175.216C7.48676 175.427 7.67095 175.582 7.87532 175.562L12.556 175.109C12.6187 175.103 12.6722 175.077 12.7208 175.043C14.1479 176.165 15.6749 177.29 17.2896 178.394L12.8143 178.849C12.6105 178.87 12.466 179.056 12.4884 179.268C12.5126 179.478 12.6978 179.631 12.9022 179.611L18.092 179.084C18.1446 179.079 18.1945 179.061 18.2394 179.034C19.242 179.699 20.2795 180.354 21.3467 180.993C19.2494 181.418 12.3089 182.353 7.31441 177.45C2.06009 172.292 1.03521 165.411 0.867196 163.875C2.18349 165.368 4.07411 167.392 6.48271 169.665Z" fill="#446622"/>
<path d="M27.2714 166.561L21.667 163.156C21.4351 163.015 21.3462 162.715 21.4697 162.486C21.5924 162.257 21.8811 162.186 22.1123 162.326L26.9166 165.245C26.4238 163.445 25.8993 161.701 25.3511 160.018L19.2089 156.577C18.9722 156.445 18.8735 156.148 18.9878 155.913C19.1028 155.679 19.3884 155.6 19.6227 155.728L24.9144 158.693C24.1975 156.576 23.451 154.573 22.7006 152.686C22.6832 152.678 22.6647 152.672 22.6484 152.66L17.7088 149.21C17.4853 149.054 17.4169 148.749 17.5544 148.53C17.6919 148.311 17.9882 148.261 18.2083 148.415L22.0588 151.104C20.1155 146.408 18.1953 142.576 16.7449 139.892C16.3621 143.212 15.4313 152.75 16.5864 158.569C17.8307 164.836 26.4419 170.598 28.5151 171.905C28.1393 170.08 27.7234 168.296 27.2714 166.561Z" fill="#446622"/>
<path d="M21.8822 148.318L22.2848 145.002C22.3165 144.737 22.5537 144.563 22.8148 144.613C23.0756 144.659 23.2601 144.918 23.2284 145.183L22.654 149.918C22.6494 149.958 22.6323 149.99 22.6186 150.025C23.5291 152.185 24.4485 154.538 25.3328 157.051L27.4531 152.219C27.5569 151.98 27.838 151.884 28.0788 152.009C28.3195 152.132 28.4294 152.426 28.3241 152.665L25.9172 158.151C25.8849 158.225 25.8329 158.278 25.7737 158.322C26.5348 160.562 27.2604 162.925 27.9257 165.385L30.2523 160.149C30.3589 159.911 30.6368 159.819 30.8795 159.941C31.1196 160.065 31.2275 160.36 31.1223 160.599L28.4232 166.671C28.396 166.732 28.3555 166.785 28.3055 166.827C28.6946 168.346 29.0569 169.902 29.3891 171.487C30.7316 169.128 34.6125 161.112 30.7887 152.833C26.7663 144.124 19.0094 139.781 17.2542 138.885C18.4999 141.157 20.1475 144.367 21.8822 148.318Z" fill="#446622"/>
</svg>
