<svg width="266" height="358" viewBox="0 0 266 358" fill="none" xmlns="http://www.w3.org/2000/svg">
<path d="M61.6704 98.297C67.0386 102.979 81.2355 106.491 81.2462 106.494C81.3929 106.53 79.7264 94.3412 79.5498 93.5828C77.5131 84.7956 69.4585 68.9923 61.2951 68.1064C55.4145 67.4711 51.2708 73.6199 51.6791 80.5959C52.0988 87.7225 57.0976 94.3086 61.6704 98.297Z" fill="#1E212B"/>
<path d="M59.8251 149.697C65.6796 152.42 78.905 151.431 79.9563 151.346C80.7891 160.53 82.2428 169.912 84.1339 179.338C85.2105 184.728 86.4272 190.126 87.7029 195.524C86.8295 193.146 86.0329 191.027 85.8965 190.742C82.0815 182.795 71.0577 169.937 63.1238 171.74C57.4065 173.037 54.7925 180.42 56.673 187.126C58.5938 193.972 64.7503 198.795 69.9401 201.207C75.2078 203.657 86.5086 203.093 89.4974 202.896C90.0035 204.961 90.4915 207.028 91.0055 209.092C93.465 218.993 95.9553 228.86 98.1597 238.616C98.9391 242.053 99.6042 245.466 100.282 248.88C99.5025 246.767 98.8331 244.997 98.7089 244.735C94.8939 236.788 83.87 223.931 75.9361 225.734C70.2188 227.031 67.6033 234.417 69.4853 241.12C71.4085 247.968 77.5626 252.788 82.7544 255.2C87.7808 257.538 98.2225 257.135 101.773 256.92C102.382 260.435 102.996 263.955 103.458 267.384C103.731 269.73 104.128 271.977 104.294 274.347C104.502 276.691 104.707 279.012 104.911 281.311C105.172 285.746 105.463 290.32 105.628 294.648C105.762 297.658 105.844 300.525 105.935 303.416C105.191 299.984 103.624 293.298 103.443 292.754C100.616 284.255 91.1984 269.597 83.0623 269.872C77.2024 270.073 73.6857 276.813 74.7405 283.733C75.8162 290.798 81.3621 296.674 86.2437 300.013C91.6186 303.685 104.406 305.212 106.006 305.391C106.142 310.17 106.238 314.819 106.271 319.203C106.363 328.885 106.254 337.508 106.076 344.784L111.359 346.241C111.421 338.679 111.386 329.641 111.109 319.426C110.986 314.573 110.777 309.382 110.522 304.053C111.525 303.854 117.224 302.688 122.394 300.762C125.784 307.356 135.494 316.657 136.754 317.848C134.735 321.774 132.737 325.564 130.806 329.097C126.78 336.507 123.024 343.03 119.742 348.552L125.453 350.128C128.327 344.995 131.518 339.127 134.901 332.58C136.965 328.607 139.105 324.306 141.266 319.862C142.729 320.668 154.719 327.166 160.712 327.167C166.147 327.164 172.985 325.292 176.183 319.608C179.313 314.044 178.284 305.832 173.083 302.055C165.866 296.812 152.782 304.194 147.56 310.09C147.25 310.437 144.272 314.698 142.431 317.427C143.306 315.605 144.173 313.849 145.054 311.957C146.821 308.234 148.489 304.449 150.296 300.384C151.111 298.38 151.935 296.355 152.769 294.309C153.629 292.304 154.325 290.038 155.121 287.885C156.878 282.842 158.45 277.613 159.939 272.295C162.679 274.394 172.481 281.68 177.928 282.704C183.353 283.721 190.398 283.172 194.285 278.203C198.092 273.34 198.074 265.104 193.353 260.428C186.797 253.939 172.838 258.717 166.905 263.511C166.536 263.808 162.62 267.866 160.507 270.147C161.382 266.94 162.268 263.744 163.065 260.458C165.37 250.969 167.456 241.26 169.576 231.587C170.223 228.622 170.898 225.682 171.564 222.734C172.534 223.494 184.047 232.457 190.149 233.602C195.572 234.623 202.621 234.07 206.508 229.101C210.315 224.239 210.297 216.002 205.574 211.329C199.019 204.84 185.061 209.618 179.129 214.411C178.683 214.771 173.055 220.619 171.686 222.196C173.156 215.703 174.668 209.256 176.373 202.99C178.715 194.34 181.409 186.04 184.511 178.274C184.961 178.629 196.948 188.046 203.198 189.222C208.622 190.24 215.672 189.69 219.557 184.721C223.364 179.858 223.346 171.622 218.623 166.946C212.067 160.458 198.112 165.235 192.177 170.029C191.712 170.405 185.661 176.7 184.634 177.942C184.82 177.482 184.97 176.975 185.159 176.518C188.559 168.285 192.718 160.901 196.896 154.242C199.317 150.366 201.817 146.842 204.312 143.487C206.414 145.514 216.088 154.651 221.656 156.471C226.99 158.216 234.092 158.629 238.423 154.253C242.665 149.967 243.379 141.833 239.07 136.574C233.088 129.276 218.7 132.096 212.338 136.022C211.991 136.235 208.693 138.903 206.314 140.891C207.461 139.397 208.617 137.83 209.742 136.432C213.946 131.16 218.076 126.671 221.76 122.734C223.87 120.519 225.817 118.567 227.656 116.771C230.492 117.492 241.953 120.212 247.322 118.729C252.561 117.279 258.824 113.609 260.915 107.133C262.961 100.793 260.538 92.9398 254.87 90.591C247 87.3242 235.675 98.1121 231.668 105.338C231.323 105.963 226.854 116.562 227.001 116.603C227.001 116.603 227.14 116.637 227.174 116.646C225.373 118.331 223.463 120.164 221.408 122.223C217.641 126.061 213.416 130.443 209.099 135.617C204.771 140.772 200.194 146.53 195.842 153.166C191.472 159.814 187.166 167.102 183.549 175.378C183.508 175.47 183.475 175.576 183.434 175.67C183.862 172.798 184.844 164.702 184.859 164.065C185.106 155.092 181.3 137.258 173.615 133.282C168.079 130.419 162.512 134.549 161.144 141.206C159.749 148.006 162.928 156.072 166.349 161.552C170.207 167.732 182.112 175.97 183.061 176.625C179.676 184.549 176.744 193.062 174.165 201.906C172.688 206.961 171.33 212.119 170.024 217.315C170.329 214.813 170.588 212.569 170.596 212.249C170.843 203.274 167.038 185.445 159.353 181.468C153.816 178.603 148.247 182.733 146.883 189.39C145.487 196.187 148.667 204.255 152.086 209.734C155.558 215.294 165.606 222.564 168.281 224.444C167.798 226.445 167.295 228.436 166.818 230.439C164.524 240.053 162.268 249.66 159.819 258.982C158.959 262.27 158.008 265.459 157.068 268.653C157.337 266.432 157.549 264.553 157.556 264.261C157.803 255.286 153.998 237.457 146.315 233.48C140.779 230.617 135.209 234.746 133.841 241.405C132.445 248.2 135.625 256.271 139.047 261.751C142.357 267.057 151.589 273.866 154.764 276.119C153.721 279.351 152.679 282.589 151.546 285.654C150.732 287.722 150.068 289.791 149.157 291.805C148.29 293.824 147.43 295.824 146.578 297.804C144.819 301.536 143.028 305.399 141.237 308.981C140.007 311.484 138.797 313.838 137.583 316.216C138.472 312.96 140.103 306.531 140.189 305.972C141.083 300.164 140.663 290.201 138.181 282.596C138.318 281.74 138.393 280.867 138.396 279.983C138.416 273.02 133.92 266.605 128.063 266.882C119.935 267.268 112.752 282.605 111.203 291.28C111.111 291.791 110.63 297.521 110.373 301.145C110.257 298.967 110.169 296.852 110.028 294.613C109.778 290.179 109.421 285.757 109.054 280.999C108.81 278.705 108.565 276.386 108.315 274.045C108.109 271.721 107.653 269.279 107.329 266.871C106.48 261.303 105.403 255.692 104.218 250.063C107.352 250.012 118.464 249.633 123.287 246.798C128.087 243.977 133.488 238.684 134.383 231.725C135.258 224.91 131.563 217.783 125.688 216.955C117.535 215.808 108.486 229.483 105.875 237.69C105.712 238.203 104.388 244.393 103.715 247.814C102.981 244.437 102.263 241.062 101.432 237.668C99.0366 227.869 96.3689 218.025 93.74 208.195C92.9335 205.183 92.1599 202.173 91.3744 199.164C92.4907 199.161 105.724 199.064 111.126 195.889C115.927 193.068 121.328 187.778 122.223 180.816C123.097 174.001 119.4 166.874 113.526 166.049C105.371 164.902 96.3237 178.574 93.7122 186.782C93.5162 187.4 91.6203 196.312 91.2313 198.614C89.5067 191.985 87.8355 185.359 86.3976 178.762C84.4075 169.663 82.8543 160.628 81.8668 151.779C82.3886 151.779 96.203 151.755 101.735 148.505C106.536 145.684 111.937 140.393 112.831 133.431C113.706 126.616 110.011 119.489 104.134 118.662C95.981 117.514 86.9325 131.19 84.321 139.397C84.1154 140.042 82.0806 149.632 81.8154 151.407C81.758 150.881 81.6494 150.341 81.5964 149.816C80.6428 140.354 80.6705 131.113 81.0422 122.489C81.249 117.476 81.6763 112.717 82.1772 108.102C84.7657 108.424 96.6054 109.736 101.879 107.512C106.933 105.379 112.81 100.889 114.323 94.1383C115.806 87.5283 112.741 79.9859 106.938 78.3732C98.8826 76.1299 88.6123 88.4052 85.27 96.1535C85.0874 96.5754 83.6362 101.14 82.6191 104.488C82.8712 102.411 83.0984 100.259 83.3713 98.2796C84.3838 90.8397 85.6836 84.1269 86.8771 78.1983C87.5779 74.836 88.2658 71.8148 88.9361 69.0008C91.5318 67.6843 101.931 62.219 105.57 57.2662C109.121 52.4296 112.496 44.9703 111.276 37.9299C110.083 31.0346 104.631 25.8869 99.0355 27.7182C91.2693 30.2632 87.0193 47.3515 87.0372 56.3472C87.0419 57.1256 88.1995 69.365 88.3353 69.301C88.3353 69.301 88.4627 69.236 88.4907 69.2205C87.8032 71.9105 87.0919 74.8062 86.3669 77.9923C85.0648 83.8932 83.6397 90.5764 82.4919 98.0115C81.3297 105.434 80.2363 113.557 79.7188 122.282C79.1902 131.026 78.9965 140.286 79.8001 149.932C79.8084 150.039 79.8302 150.155 79.8405 150.263C78.8999 147.48 76.0628 139.792 75.791 139.228C71.978 131.28 60.9522 118.423 53.0198 120.223C47.3029 121.523 44.687 128.906 46.5695 135.612C48.4808 142.462 54.6348 147.283 59.8251 149.697Z" fill="#1E212B"/>
<path d="M204.226 141.566C204.338 141.695 208.343 130.79 208.53 130.062C210.691 121.629 210.777 103.464 204.095 97.1805C199.284 92.6544 192.941 94.7528 190.177 100.624C187.354 106.618 188.742 115.31 190.923 121.628C193.48 129.045 204.216 141.555 204.226 141.566Z" fill="#1E212B"/>
<path d="M224.256 268.294C224.256 268.294 224.713 266.139 221.658 262.6C218.602 259.06 216.593 257 216.593 257C216.593 257 213.695 261.696 216.487 265.198C219.279 268.7 223.435 272.174 223.435 272.174L224.256 268.294Z" fill="#99BB44"/>
<path d="M216.041 282.379C216.041 282.379 216.498 280.223 213.442 276.684C210.387 273.144 208.377 271.084 208.377 271.084C208.377 271.084 205.479 275.78 208.271 279.282C211.062 282.784 215.219 286.258 215.219 286.258L216.041 282.379Z" fill="#99BB44"/>
<path d="M224.092 272.624C224.092 272.624 224.825 270.52 229.458 268.413C234.091 266.306 236.996 265.162 236.996 265.162C236.996 265.162 237.264 271.051 232.889 273.218C228.513 275.385 223.157 274.946 223.157 274.946L224.092 272.624Z" fill="#99BB44"/>
<path d="M213.913 288.33C213.913 288.33 214.891 286.361 219.656 284.713C224.422 283.064 227.388 282.202 227.388 282.202C227.388 282.202 226.841 287.287 222.318 289.015C217.796 290.742 212.156 291.876 212.156 291.876L213.913 288.33Z" fill="#99BB44"/>
<path d="M211.283 305.956C211.283 305.956 211.737 303.796 216.052 301.296C220.366 298.796 223.095 297.405 223.095 297.405C223.095 297.405 223.887 302.634 219.836 305.172C215.784 307.709 210.464 309.844 210.464 309.844L211.283 305.956Z" fill="#99BB44"/>
<path d="M209.983 310.02C209.983 310.02 210.811 307.94 208.403 304.081C205.994 300.223 204.363 297.95 204.363 297.95C204.363 297.95 200.677 302.262 202.831 306.052C204.985 309.844 208.403 313.299 208.403 313.299L209.983 310.02Z" fill="#99BB44"/>
<path d="M202.303 327.311C202.303 327.311 202 325.113 197.888 322.391C193.775 319.667 191.161 318.136 191.161 318.136C191.161 318.136 190.012 323.367 193.862 326.115C197.711 328.864 202.848 331.266 202.848 331.266L202.303 327.311Z" fill="#99BB44"/>
<path d="M203.682 322.042C203.682 322.042 204.139 319.887 208.473 317.392C212.807 314.897 215.548 313.508 215.548 313.508C215.548 313.508 216.345 318.726 212.274 321.259C208.204 323.791 202.859 325.922 202.859 325.922L203.682 322.042Z" fill="#99BB44"/>
<path d="M203.739 333.757C203.739 333.757 203.513 331.578 206.932 328.268C210.352 324.957 212.572 323.047 212.572 323.047C212.572 323.047 214.961 327.931 211.809 331.222C208.657 334.514 204.146 337.68 204.146 337.68L203.739 333.757Z" fill="#99BB44"/>
<path d="M224.708 269.171C224.003 271.444 223.177 273.783 222.278 275.72C219.51 281.677 215.016 285.136 212.376 290.496C209.736 295.855 212.408 303.619 209.769 310.609C207.131 317.6 202.88 321.094 202.842 326.002C202.804 330.911 205.177 344.555 205.177 344.555" stroke="#1E212B" stroke-miterlimit="10" stroke-linecap="round" stroke-linejoin="round"/>
<path d="M222.906 274.742L227.417 272.809" stroke="#1E212B" stroke-miterlimit="10" stroke-linecap="round" stroke-linejoin="round"/>
<path d="M223.7 271.895L222.547 269.239" stroke="#1E212B" stroke-miterlimit="10" stroke-linecap="round" stroke-linejoin="round"/>
<path d="M212.651 290.272C212.651 290.272 216.418 288.701 220.276 287.144L212.651 290.272Z" fill="#99BB44"/>
<path d="M212.651 290.272C212.651 290.272 216.418 288.701 220.276 287.144" stroke="#1E212B" stroke-miterlimit="10" stroke-linecap="round" stroke-linejoin="round"/>
<path d="M215.118 285.657C215.118 285.657 213.384 281.418 210.86 278.024L215.118 285.657Z" fill="#99BB44"/>
<path d="M215.118 285.657C215.118 285.657 213.384 281.418 210.86 278.024" stroke="#1E212B" stroke-miterlimit="10" stroke-linecap="round" stroke-linejoin="round"/>
<path d="M210.464 309.153C210.464 309.153 213.898 305.091 219.205 302.102L210.464 309.153Z" fill="#99BB44"/>
<path d="M210.464 309.153C210.464 309.153 213.898 305.091 219.205 302.102" stroke="#1E212B" stroke-miterlimit="10" stroke-linecap="round" stroke-linejoin="round"/>
<path d="M209.133 311.816C209.133 311.816 208.156 308.329 206.708 305.709C205.26 303.09 205.047 302.748 205.047 302.748" fill="#99BB44"/>
<path d="M209.133 311.816C209.133 311.816 208.156 308.329 206.708 305.709C205.26 303.09 205.047 302.748 205.047 302.748" stroke="#1E212B" stroke-miterlimit="10" stroke-linecap="round" stroke-linejoin="round"/>
<path d="M203.047 329.726C203.047 329.726 200.058 326.734 198.197 325.613C196.336 324.494 195.046 323.376 195.046 323.376" fill="#99BB44"/>
<path d="M203.047 329.726C203.047 329.726 200.058 326.734 198.197 325.613C196.336 324.494 195.046 323.376 195.046 323.376" stroke="#1E212B" stroke-miterlimit="10" stroke-linecap="round" stroke-linejoin="round"/>
<path d="M202.842 326.003C202.842 326.003 204.764 323.427 206.896 321.47C209.028 319.513 211.667 317.86 211.667 317.86" fill="#99BB44"/>
<path d="M202.842 326.003C202.842 326.003 204.764 323.427 206.896 321.47C209.028 319.513 211.667 317.86 211.667 317.86" stroke="#1E212B" stroke-miterlimit="10" stroke-linecap="round" stroke-linejoin="round"/>
<path d="M204.147 337.681C204.147 337.681 204.303 335.045 206.158 333.048C208.012 331.052 210.195 328.4 211.083 327.358" fill="#99BB44"/>
<path d="M204.147 337.681C204.147 337.681 204.303 335.045 206.158 333.048C208.012 331.052 210.195 328.4 211.083 327.358" stroke="#1E212B" stroke-miterlimit="10" stroke-linecap="round" stroke-linejoin="round"/>
<path d="M59.3144 351.881L65.4795 347.851C65.4795 347.851 76.26 349.101 80.8375 345.423C85.4148 341.745 93.8116 331.474 95.306 326.8C96.8003 322.125 94.8379 317.622 92.3271 316.918C89.8162 316.214 83.8817 319.003 79.1019 321.605C74.321 324.207 66.5463 330.522 65.2689 335.114C63.9915 339.706 65.409 341.597 64.0796 344.415C62.7516 347.229 54.9717 353.931 59.3144 351.881Z" fill="#99BB44" stroke="#1E212B" stroke-miterlimit="10" stroke-linecap="round" stroke-linejoin="round"/>
<path d="M87.1763 324.993C91.3017 321.972 91.5805 321.028 91.5805 321.028L87.1763 324.993Z" fill="#99BB44"/>
<path d="M87.1763 324.993C91.3017 321.972 91.5805 321.028 91.5805 321.028" stroke="#1E212B" stroke-width="0.5" stroke-miterlimit="10" stroke-linecap="round" stroke-linejoin="round"/>
<path d="M61.3638 348.481C61.3638 348.481 80.5061 329.184 85.7839 325.015L61.3638 348.481Z" fill="#99BB44"/>
<path d="M61.3638 348.481C61.3638 348.481 80.5061 329.184 85.7839 325.015" stroke="#1E212B" stroke-width="0.5" stroke-miterlimit="10" stroke-linecap="round" stroke-linejoin="round"/>
<path d="M81.2988 340.977C83.6557 340.037 84.8358 339.434 84.8358 339.434L81.2988 340.977Z" fill="#99BB44"/>
<path d="M81.2988 340.977C83.6557 340.037 84.8358 339.434 84.8358 339.434" stroke="#1E212B" stroke-width="0.5" stroke-miterlimit="10" stroke-linecap="round" stroke-linejoin="round"/>
<path d="M67.2061 344.904C67.2061 344.904 68.9019 342.771 70.0861 342.122C71.2226 341.5 76.7648 342.09 79.867 341.112" fill="#99BB44"/>
<path d="M67.2061 344.904C67.2061 344.904 68.9019 342.771 70.0861 342.122C71.2226 341.5 76.7648 342.09 79.867 341.112" stroke="#1E212B" stroke-width="0.5" stroke-miterlimit="10" stroke-linecap="round" stroke-linejoin="round"/>
<path d="M85.2644 336.269C85.2644 336.269 79.4692 336.173 77.822 336.29C76.1749 336.407 74.9946 336.474 74.5619 336.835C74.1304 337.195 71.9658 339.582 71.9658 339.582" fill="#99BB44"/>
<path d="M85.2644 336.269C85.2644 336.269 79.4692 336.173 77.822 336.29C76.1749 336.407 74.9946 336.474 74.5619 336.835C74.1304 337.195 71.9658 339.582 71.9658 339.582" stroke="#1E212B" stroke-width="0.5" stroke-miterlimit="10" stroke-linecap="round" stroke-linejoin="round"/>
<path d="M80.6756 331.562C80.6756 331.562 85.7824 332.289 88.4086 332.591C91.0347 332.894 92.4817 330.884 92.4817 330.884" fill="#99BB44"/>
<path d="M80.6756 331.562C80.6756 331.562 85.7824 332.289 88.4086 332.591C91.0347 332.894 92.4817 330.884 92.4817 330.884" stroke="#1E212B" stroke-width="0.5" stroke-miterlimit="10" stroke-linecap="round" stroke-linejoin="round"/>
<path d="M92.2082 326.435C91.7652 326.619 91.2633 326.777 90.7128 326.871C88.5907 327.231 85.498 327.376 85.498 327.376" fill="#99BB44"/>
<path d="M92.2082 326.435C91.7652 326.619 91.2633 326.777 90.7128 326.871C88.5907 327.231 85.498 327.376 85.498 327.376" stroke="#1E212B" stroke-width="0.5" stroke-miterlimit="10" stroke-linecap="round" stroke-linejoin="round"/>
<path d="M94.2646 325.386C94.2646 325.386 94.0749 325.561 93.73 325.802L94.2646 325.386Z" fill="#99BB44"/>
<path d="M94.2646 325.386C94.2646 325.386 94.0749 325.561 93.73 325.802" stroke="#1E212B" stroke-width="0.5" stroke-miterlimit="10" stroke-linecap="round" stroke-linejoin="round"/>
<path d="M72.603 332.292C72.6725 331.355 72.8308 330.429 73.1431 329.705C74.1567 327.352 76.0227 325.162 76.0227 325.162" fill="#99BB44"/>
<path d="M72.603 332.292C72.6725 331.355 72.8308 330.429 73.1431 329.705C74.1567 327.352 76.0227 325.162 76.0227 325.162" stroke="#1E212B" stroke-width="0.5" stroke-miterlimit="10" stroke-linecap="round" stroke-linejoin="round"/>
<path d="M72.7787 336.382C72.7787 336.382 72.6058 335.133 72.587 333.614L72.7787 336.382Z" fill="#99BB44"/>
<path d="M72.7787 336.382C72.7787 336.382 72.6058 335.133 72.587 333.614" stroke="#1E212B" stroke-width="0.5" stroke-miterlimit="10" stroke-linecap="round" stroke-linejoin="round"/>
<path d="M79.5713 326.028C79.725 325.479 79.9314 324.944 80.2069 324.458C81.6827 321.858 82.9363 320.638 82.9363 320.638" fill="#99BB44"/>
<path d="M79.5713 326.028C79.725 325.479 79.9314 324.944 80.2069 324.458C81.6827 321.858 82.9363 320.638 82.9363 320.638" stroke="#1E212B" stroke-width="0.5" stroke-miterlimit="10" stroke-linecap="round" stroke-linejoin="round"/>
<path d="M79.2893 330.839C79.2893 330.839 79.0623 329.139 79.2972 327.255L79.2893 330.839Z" fill="#99BB44"/>
<path d="M79.2893 330.839C79.2893 330.839 79.0623 329.139 79.2972 327.255" stroke="#1E212B" stroke-width="0.5" stroke-miterlimit="10" stroke-linecap="round" stroke-linejoin="round"/>
<path d="M67.4707 334.491C67.6298 333.785 67.8592 333.093 68.1845 332.458L67.4707 334.491Z" fill="#99BB44"/>
<path d="M67.4707 334.491C67.6298 333.785 67.8592 333.093 68.1845 332.458" stroke="#1E212B" stroke-width="0.5" stroke-miterlimit="10" stroke-linecap="round" stroke-linejoin="round"/>
<path d="M67.5173 340.833C67.5173 340.833 67.0378 338.46 67.288 335.876L67.5173 340.833Z" fill="#99BB44"/>
<path d="M67.5173 340.833C67.5173 340.833 67.0378 338.46 67.288 335.876" stroke="#1E212B" stroke-width="0.5" stroke-miterlimit="10" stroke-linecap="round" stroke-linejoin="round"/>
<path d="M38.4196 351.964L42.5347 345.448C42.5347 345.448 52.6837 341.796 55.4946 336.317C58.3059 330.839 62.2085 317.503 61.8899 312.473C61.5713 307.444 58.202 304.119 55.6913 304.585C53.1807 305.051 48.8314 310.305 45.4552 314.87C42.0779 319.435 37.3271 328.802 37.8118 333.658C38.2965 338.514 40.2455 339.645 40.0518 342.868C39.8581 346.087 35.2402 355.817 38.4196 351.964Z" fill="#99BB44" stroke="#1E212B" stroke-miterlimit="10" stroke-linecap="round" stroke-linejoin="round"/>
<path d="M53.8555 314.597C56.4934 309.934 56.4086 308.929 56.4086 308.929L53.8555 314.597Z" fill="#99BB44"/>
<path d="M53.8555 314.597C56.4934 309.934 56.4086 308.929 56.4086 308.929" stroke="#1E212B" stroke-width="0.5" stroke-miterlimit="10" stroke-linecap="round" stroke-linejoin="round"/>
<path d="M39.062 347.829C39.062 347.829 49.4253 321.268 52.6922 315.019L39.062 347.829Z" fill="#99BB44"/>
<path d="M39.062 347.829C39.062 347.829 49.4253 321.268 52.6922 315.019" stroke="#1E212B" stroke-width="0.5" stroke-miterlimit="10" stroke-linecap="round" stroke-linejoin="round"/>
<path d="M54.4082 332.008C56.1947 330.081 57.0417 328.992 57.0417 328.992L54.4082 332.008Z" fill="#99BB44"/>
<path d="M54.4082 332.008C56.1947 330.081 57.0417 328.992 57.0417 328.992" stroke="#1E212B" stroke-width="0.5" stroke-miterlimit="10" stroke-linecap="round" stroke-linejoin="round"/>
<path d="M43.1128 341.842C43.1128 341.842 43.8765 339.099 44.711 337.968C45.5117 336.882 50.7155 334.969 53.1595 332.678" fill="#99BB44"/>
<path d="M43.1128 341.842C43.1128 341.842 43.8765 339.099 44.711 337.968C45.5117 336.882 50.7155 334.969 53.1595 332.678" stroke="#1E212B" stroke-width="0.5" stroke-miterlimit="10" stroke-linecap="round" stroke-linejoin="round"/>
<path d="M56.2624 325.825C56.2624 325.825 51.0067 328.309 49.5645 329.149C48.1223 329.989 47.083 330.575 46.8225 331.104C46.563 331.631 45.4688 334.817 45.4688 334.817" fill="#99BB44"/>
<path d="M56.2624 325.825C56.2624 325.825 51.0067 328.309 49.5645 329.149C48.1223 329.989 47.083 330.575 46.8225 331.104C46.563 331.631 45.4688 334.817 45.4688 334.817" stroke="#1E212B" stroke-width="0.5" stroke-miterlimit="10" stroke-linecap="round" stroke-linejoin="round"/>
<path d="M50.4096 323.54C50.4096 323.54 55.2776 321.962 57.7549 321.083C60.2325 320.205 60.8126 317.695 60.8126 317.695" fill="#99BB44"/>
<path d="M50.4096 323.54C50.4096 323.54 55.2776 321.962 57.7549 321.083C60.2325 320.205 60.8126 317.695 60.8126 317.695" stroke="#1E212B" stroke-width="0.5" stroke-miterlimit="10" stroke-linecap="round" stroke-linejoin="round"/>
<path d="M58.9399 313.692C58.6067 314.059 58.2112 314.428 57.7486 314.759C55.965 316.033 53.2285 317.535 53.2285 317.535" fill="#99BB44"/>
<path d="M58.9399 313.692C58.6067 314.059 58.2112 314.428 57.7486 314.759C55.965 316.033 53.2285 317.535 53.2285 317.535" stroke="#1E212B" stroke-width="0.5" stroke-miterlimit="10" stroke-linecap="round" stroke-linejoin="round"/>
<path d="M60.4196 311.838C60.4196 311.838 60.3112 312.086 60.0864 312.465L60.4196 311.838Z" fill="#99BB44"/>
<path d="M60.4196 311.838C60.4196 311.838 60.3112 312.086 60.0864 312.465" stroke="#1E212B" stroke-width="0.5" stroke-miterlimit="10" stroke-linecap="round" stroke-linejoin="round"/>
<path d="M43.3403 327.73C43.0683 326.826 42.88 325.892 42.9029 325.078C42.9756 322.432 43.8751 319.557 43.8751 319.557" fill="#99BB44"/>
<path d="M43.3403 327.73C43.0683 326.826 42.88 325.892 42.9029 325.078C42.9756 322.432 43.8751 319.557 43.8751 319.557" stroke="#1E212B" stroke-width="0.5" stroke-miterlimit="10" stroke-linecap="round" stroke-linejoin="round"/>
<path d="M45.0184 331.43C45.0184 331.43 44.4104 330.344 43.844 328.938L45.0184 331.43Z" fill="#99BB44"/>
<path d="M45.0184 331.43C45.0184 331.43 44.4104 330.344 43.844 328.938" stroke="#1E212B" stroke-width="0.5" stroke-miterlimit="10" stroke-linecap="round" stroke-linejoin="round"/>
<path d="M47.3511 318.869C47.294 318.289 47.2889 317.697 47.3641 317.121C47.7665 314.037 48.4605 312.339 48.4605 312.339" fill="#99BB44"/>
<path d="M47.3511 318.869C47.294 318.289 47.2889 317.697 47.3641 317.121C47.7665 314.037 48.4605 312.339 48.4605 312.339" stroke="#1E212B" stroke-width="0.5" stroke-miterlimit="10" stroke-linecap="round" stroke-linejoin="round"/>
<path d="M48.8751 323.44C48.8751 323.44 48.0514 321.958 47.5788 320.102L48.8751 323.44Z" fill="#99BB44"/>
<path d="M48.8751 323.44C48.8751 323.44 48.0514 321.958 47.5788 320.102" stroke="#1E212B" stroke-width="0.5" stroke-miterlimit="10" stroke-linecap="round" stroke-linejoin="round"/>
<path d="M39.5269 331.99C39.4175 331.262 39.3763 330.515 39.4418 329.778L39.5269 331.99Z" fill="#99BB44"/>
<path d="M39.5269 331.99C39.4175 331.262 39.3763 330.515 39.4418 329.778" stroke="#1E212B" stroke-width="0.5" stroke-miterlimit="10" stroke-linecap="round" stroke-linejoin="round"/>
<path d="M41.8891 337.864C41.8891 337.864 40.5959 335.867 39.8861 333.35L41.8891 337.864Z" fill="#99BB44"/>
<path d="M41.8891 337.864C41.8891 337.864 40.5959 335.867 39.8861 333.35" stroke="#1E212B" stroke-width="0.5" stroke-miterlimit="10" stroke-linecap="round" stroke-linejoin="round"/>
<path d="M21.7131 341.11L20.1542 336.713C20.0898 336.531 19.8643 336.428 19.651 336.485C19.4376 336.541 19.3173 336.735 19.3815 336.915L20.7185 340.685C19.3597 340.1 18.0525 339.5 16.801 338.891L15.3287 334.11C15.2722 333.925 15.051 333.817 14.8358 333.866C14.6202 333.916 14.495 334.107 14.5477 334.289L15.816 338.408C14.2475 337.623 12.7776 336.832 11.404 336.053C11.4006 336.04 11.3997 336.026 11.3938 336.013L9.6536 332.078C9.57502 331.9 9.34211 331.811 9.1339 331.879C8.92539 331.948 8.82066 332.149 8.89833 332.324L10.2544 335.392C6.85101 333.402 4.14552 331.542 2.27381 330.165C5.06105 330.335 13.0298 330.943 17.5187 332.527C22.3537 334.233 25.1806 341.06 25.796 342.693C24.3912 342.188 23.0277 341.658 21.7131 341.11Z" fill="#446622"/>
<path d="M8.0233 334.9L5.23556 334.744C5.0134 334.732 4.82034 334.876 4.8049 335.066C4.78587 335.256 4.95614 335.42 5.179 335.433L9.16025 335.655C9.19329 335.657 9.22353 335.649 9.25467 335.644C10.817 336.572 12.5336 337.53 14.3886 338.486L9.99469 339.339C9.77755 339.381 9.63847 339.566 9.68791 339.752C9.73625 339.938 9.95147 340.054 10.1693 340.012L15.1579 339.044C15.2247 339.031 15.2795 339.001 15.3285 338.966C16.9878 339.798 18.7549 340.622 20.6137 341.416L15.8461 342.362C15.6291 342.405 15.4935 342.588 15.5412 342.776C15.591 342.961 15.8065 343.076 16.0243 343.034L21.5535 341.937C21.6095 341.926 21.6613 341.905 21.7067 341.875C22.8597 342.35 24.0476 342.811 25.2665 343.255C23.0552 343.888 15.6859 345.56 9.77201 341.771C3.55045 337.785 1.69318 331.747 1.34406 330.393C2.92494 331.57 5.18139 333.155 8.0233 334.9Z" fill="#446622"/>
</svg>
