<svg width="270" height="205" viewBox="0 0 270 205" fill="none" xmlns="http://www.w3.org/2000/svg">
<path d="M115.979 79.6893C112.806 81.9112 105.049 83.6011 105.044 83.6025C104.963 83.6197 106.718 77.865 106.866 77.5068C108.572 73.356 113.963 65.8807 118.342 65.4437C121.496 65.1302 123.246 68.0218 122.53 71.3142C121.797 74.6777 118.683 77.7969 115.979 79.6893Z" fill="#1E212B"/>
<path d="M112.528 101.68C109.231 102.982 102.296 102.547 101.745 102.509C100.643 106.853 99.1986 111.293 97.5189 115.754C96.561 118.305 95.5282 120.861 94.4643 123.416C95.0979 122.289 95.6724 121.285 95.7651 121.15C98.3576 117.383 105.122 111.278 109.196 112.111C112.131 112.71 112.985 116.194 111.507 119.37C109.997 122.611 106.389 124.906 103.466 126.059C100.499 127.231 94.5527 126.991 92.9835 126.905C92.5668 127.883 92.1597 128.861 91.739 129.839C89.7241 134.526 87.6952 139.197 85.8258 143.815C85.1658 145.442 84.568 147.058 83.9637 148.673C84.5284 147.672 85.0103 146.834 85.0949 146.71C87.6874 142.943 94.4521 136.837 98.5255 137.67C101.461 138.27 102.316 141.755 100.837 144.929C99.3253 148.172 95.7184 150.466 92.7946 151.619C89.9636 152.736 84.461 152.571 82.5955 152.478C82.02 154.142 81.4416 155.807 80.9502 157.43C80.6369 158.54 80.2653 159.603 80.0066 160.724C79.7282 161.833 79.4525 162.931 79.1793 164.018C78.7221 166.115 78.239 168.279 77.8402 170.326C77.553 171.749 77.3031 173.105 77.0471 174.472C77.6878 172.848 78.999 169.682 79.1337 169.425C81.2426 165.399 87.286 158.446 91.5764 158.557C94.6663 158.637 96.0447 161.816 94.9883 165.09C93.9104 168.433 90.5498 171.224 87.7236 172.815C84.6121 174.564 77.7281 175.317 76.8675 175.406C76.4515 177.666 76.0663 179.864 75.734 181.937C74.9888 186.515 74.4266 190.591 73.9978 194.031L71.0941 194.733C71.605 191.158 72.2736 186.884 73.1551 182.054C73.569 179.759 74.053 177.305 74.5714 174.784C74.054 174.693 71.1188 174.155 68.5187 173.257C66.2486 176.383 60.4356 180.804 59.6826 181.37C60.4698 183.222 61.2555 185.009 62.0246 186.675C63.6245 190.168 65.1451 193.243 66.4871 195.846L63.348 196.605C62.1944 194.185 60.9259 191.418 59.6046 188.331C58.7969 186.458 57.9723 184.43 57.1473 182.333C56.3145 182.718 49.4949 185.82 46.3204 185.835C43.4412 185.846 39.9534 184.978 38.6679 182.298C37.4093 179.675 38.5452 175.79 41.5722 173.992C45.7723 171.495 52.173 174.954 54.5157 177.729C54.6548 177.892 55.9263 179.9 56.7051 181.185C56.3727 180.326 56.0395 179.498 55.7088 178.605C55.0408 176.849 54.4294 175.064 53.7639 173.146C53.4763 172.201 53.1857 171.245 52.8908 170.28C52.5795 169.334 52.3734 168.264 52.1068 167.248C51.5388 164.868 51.082 162.4 50.6754 159.889C49.0731 160.888 43.3563 164.357 40.3968 164.854C37.45 165.348 33.7569 165.106 32.0551 162.766C30.3878 160.476 30.99 156.582 33.8272 154.36C37.7667 151.276 44.8183 153.501 47.6165 155.753C47.7907 155.892 49.5736 157.801 50.5288 158.875C50.2962 157.361 50.0566 155.852 49.8705 154.3C49.3318 149.819 48.925 145.234 48.4972 140.665C48.3679 139.265 48.2215 137.877 48.0808 136.485C47.5125 136.846 40.7686 141.112 37.4534 141.668C34.5072 142.164 30.8124 141.92 29.1107 139.58C27.4434 137.29 28.0455 133.396 30.8834 131.175C34.8228 128.091 41.8735 130.316 44.6717 132.568C44.8821 132.737 47.443 135.488 48.0548 136.231C47.743 133.164 47.4055 130.12 46.953 127.161C46.3342 123.077 45.5041 119.16 44.4188 115.495C44.1549 115.664 37.1276 120.146 33.7319 120.717C30.7851 121.211 27.09 120.968 25.3892 118.629C23.7219 116.339 24.324 112.444 27.1623 110.222C31.1017 107.139 38.1514 109.363 40.9506 111.615C41.1702 111.792 43.923 114.754 44.3776 115.339C44.3121 115.121 44.2693 114.882 44.202 114.667C42.9928 110.782 41.3206 107.301 39.5858 104.163C38.582 102.336 37.5113 100.676 36.4304 99.0959C35.1714 100.059 29.3893 104.403 26.3088 105.277C23.3572 106.115 19.565 106.328 17.5855 104.269C15.6463 102.253 15.8528 98.4086 18.5137 95.912C22.2079 92.447 29.6274 93.7452 32.7157 95.5856C32.8839 95.6858 34.4393 96.9389 35.5566 97.8732C35.0565 97.1696 34.5565 96.4315 34.0613 95.7732C32.2132 93.2909 30.3481 91.1788 28.6795 89.326C27.721 88.284 26.83 87.3659 25.9849 86.521C24.4307 86.8687 18.1634 88.183 15.4253 87.4949C12.7544 86.822 9.70013 85.1022 9.05843 82.0453C8.43032 79.0524 10.2787 75.3336 13.4504 74.2093C17.8543 72.6456 23.0785 77.7186 24.6814 81.1251C24.8194 81.4202 26.4249 86.4203 26.3437 86.4399C26.3437 86.4399 26.2679 86.4567 26.2492 86.4609C27.0822 87.2531 27.9623 88.115 28.9029 89.0835C30.6221 90.8893 32.5456 92.9509 34.4604 95.3864C36.3825 97.8132 38.3934 100.524 40.2216 103.652C42.0587 106.784 43.8157 110.219 45.1366 114.124C45.1519 114.167 45.1617 114.217 45.1766 114.261C45.1564 112.904 45.2185 109.079 45.2562 108.778C45.7705 104.536 49.0692 96.0948 53.4265 94.196C56.5651 92.8289 59.2173 94.7683 59.4636 97.9125C59.7137 101.124 57.4496 104.945 55.2428 107.545C52.755 110.476 45.8556 114.4 45.3055 114.712C46.5292 118.45 47.4704 122.468 48.2004 126.643C48.6195 129.03 48.9679 131.465 49.2864 133.919C49.3044 132.736 49.329 131.676 49.3475 131.525C49.8622 127.282 53.1601 118.843 57.5174 116.944C60.6564 115.576 63.3096 117.515 63.5539 120.659C63.8044 123.87 61.5398 127.692 59.3344 130.291C57.0953 132.928 51.2494 136.39 49.6969 137.285C49.8089 138.23 49.9324 139.17 50.041 140.116C50.5647 144.656 51.0691 149.193 51.6964 153.594C51.9157 155.147 52.1901 156.652 52.4582 158.16C52.4757 157.111 52.4982 156.223 52.5153 156.085C53.0301 151.842 56.328 143.403 60.6842 141.504C63.8229 140.137 66.4765 142.075 66.7224 145.221C66.9733 148.43 64.7084 152.254 62.5015 154.853C60.3663 157.37 54.9862 160.612 53.1419 161.685C53.4623 163.21 53.7814 164.739 54.1611 166.185C54.4439 167.161 54.6464 168.137 54.9842 169.087C55.2985 170.04 55.6106 170.983 55.9194 171.918C56.5827 173.678 57.254 175.5 57.9448 177.189C58.417 178.369 58.8885 179.479 59.3605 180.601C59.124 179.064 58.722 176.028 58.7167 175.764C58.6607 173.02 59.5995 168.308 61.4616 164.706C61.4506 164.302 61.4736 163.89 61.5353 163.472C62.0255 160.179 64.8688 157.136 67.9518 157.252C72.2297 157.415 74.932 164.649 75.1289 168.747C75.1408 168.988 74.9839 171.696 74.8593 173.409C75.0772 172.379 75.2761 171.379 75.5115 170.32C75.9632 168.223 76.4701 166.131 77.0069 163.881C77.3008 162.795 77.5977 161.698 77.8983 160.591C78.1744 159.492 78.5918 158.336 78.9367 157.197C79.7865 154.562 80.7609 151.906 81.7933 149.242C80.1367 149.225 74.2769 149.074 71.926 147.745C69.5857 146.423 67.1052 143.933 67.1315 140.645C67.1582 137.425 69.6282 134.046 72.8 133.641C77.2018 133.078 81.012 139.522 81.8053 143.396C81.8548 143.638 82.1111 146.562 82.2214 148.177C82.8533 146.579 83.4763 144.982 84.1607 143.375C86.1341 138.736 88.2553 134.075 90.3548 129.421C90.9987 127.995 91.625 126.57 92.2574 125.146C91.6663 125.147 84.6627 125.133 82.029 123.645C79.6888 122.323 77.2078 119.835 77.2345 116.546C77.2612 113.325 79.7323 109.947 82.9036 109.542C87.3064 108.98 91.116 115.423 91.9093 119.297C91.9687 119.589 92.3323 123.797 92.3728 124.885C93.7631 121.747 95.125 118.61 96.3611 115.487C98.0697 111.18 99.5422 106.905 100.702 102.719C100.425 102.72 93.1085 102.742 90.4116 101.219C88.0713 99.8966 85.5903 97.4083 85.6171 94.119C85.6438 90.8988 88.1138 87.5201 91.2866 87.1148C95.6884 86.5524 99.4986 92.996 100.292 96.8703C100.354 97.1748 100.743 101.704 100.756 102.542C100.824 102.293 100.92 102.038 100.986 101.79C102.172 97.3139 102.821 92.9447 103.245 88.868C103.496 86.4985 103.611 84.2494 103.678 82.0685C102.284 82.2271 95.9169 82.8761 93.2831 81.8377C90.7587 80.8414 87.9684 78.7328 87.6521 75.5446C87.342 72.4229 89.5081 68.8494 92.6984 68.0728C97.1271 66.9926 101.685 72.7714 102.899 76.4268C102.965 76.6257 103.406 78.7803 103.704 80.3611C103.72 79.3794 103.754 78.3626 103.752 77.4273C103.75 73.9122 103.544 70.7415 103.338 67.9413C103.209 66.3533 103.062 64.9266 102.909 63.5977C101.629 62.9816 96.5124 60.4228 94.9407 58.09C93.4074 55.8118 92.1556 52.2933 93.3083 48.9616C94.4364 45.6985 97.6948 43.2514 100.527 44.1036C104.459 45.288 105.481 53.3571 104.825 57.6104C104.766 57.9784 103.273 63.7681 103.206 63.7382C103.206 63.7382 103.143 63.7078 103.129 63.7005C103.3 64.9707 103.469 66.3381 103.624 67.8427C103.889 70.6295 104.163 73.7859 104.237 77.2985C104.319 80.8051 104.314 84.6427 103.961 88.7671C103.612 92.8997 103.049 97.2774 101.929 101.84C101.917 101.891 101.897 101.946 101.884 101.997C102.583 100.679 104.638 97.037 104.823 96.7695C107.414 93.0026 114.18 86.8969 118.253 87.7287C121.188 88.3291 122.043 91.8137 120.564 94.9887C119.058 98.2322 115.452 100.526 112.528 101.68Z" fill="#1E212B"/>
<path d="M35.196 98.4474C35.1282 98.5081 33.7981 93.4001 33.7514 93.0588C33.2144 89.107 34.4582 80.5855 38.4133 77.6249C41.2615 75.4924 44.444 76.4646 45.4795 79.2137C46.537 82.0203 45.1911 86.1005 43.5974 89.0684C41.7284 92.5531 35.202 98.4423 35.196 98.4474Z" fill="#1E212B"/>
<path d="M197.082 22.8686C197.082 22.8686 197.081 17.8966 188.937 10.9375C180.792 3.97736 175.556 0 175.556 0C175.556 0 171.483 11.4343 179.047 18.3944C186.61 25.3545 195.885 30.4335 195.885 30.4335L197.082 22.8686Z" fill="#446622"/>
<path d="M185.26 53.9157C185.26 53.9157 185.26 48.9447 177.115 41.9846C168.971 35.0245 163.735 31.0471 163.735 31.0471C163.735 31.0471 159.662 42.4814 167.225 49.4415C174.789 56.4016 185.26 62.865 185.26 62.865V53.9157Z" fill="#446622"/>
<path d="M198.225 30.4334C198.225 30.4334 197.183 26.392 206.144 20.2066C215.104 14.0211 220.802 10.5386 220.802 10.5386C220.802 10.5386 223.437 22.2767 215.056 28.5151C206.675 34.7536 195.3 39.4297 195.3 39.4297L198.225 30.4334Z" fill="#446622"/>
<path d="M182.289 68.0029C182.289 68.0029 183.508 63.142 193.179 57.7942C202.849 52.4464 208.945 49.4956 208.945 49.4956C208.945 49.4956 210.123 61.4057 201.021 66.8564C191.919 72.3082 181.263 73.4158 181.263 73.4158L182.289 68.0029Z" fill="#446622"/>
<path d="M186.144 104.983C186.144 104.983 186.144 100.011 194.288 93.0505C202.433 86.0904 207.669 82.113 207.669 82.113C207.669 82.113 211.742 93.5473 204.178 100.507C196.615 107.468 186.144 113.931 186.144 113.931V104.983Z" fill="#446622"/>
<path d="M184.838 117.739C184.838 117.739 185.665 112.818 178.76 104.94C171.855 97.0609 167.334 92.4888 167.334 92.4888C167.334 92.4888 161.401 103.312 167.731 111.12C174.059 118.928 183.35 126.597 183.35 126.597L184.838 117.739Z" fill="#446622"/>
<path d="M179.146 145.659C179.146 145.659 179.146 140.688 187.291 133.728C195.436 126.768 200.671 122.79 200.671 122.79C200.671 122.79 204.744 134.225 197.181 141.185C189.617 148.145 179.146 154.608 179.146 154.608V145.659Z" fill="#446622"/>
<path d="M179.83 169.108C179.83 169.108 178.771 164.22 185.299 156.109C191.825 147.999 196.128 143.274 196.128 143.274C196.128 143.274 202.566 153.884 196.612 161.905C190.657 169.925 181.736 177.908 181.736 177.908L179.83 169.108Z" fill="#446622"/>
<path d="M197.639 28.4343C197.352 33.7456 193.005 42.8036 192.376 47.4265C190.44 61.6348 182.615 60.0834 180.678 72.916C178.742 85.7495 186.261 104.413 184.772 120.896C183.284 137.379 177.862 144.574 179.153 155.573C180.444 166.574 183.869 195.365 183.869 195.365" stroke="#1E212B" stroke-miterlimit="10" stroke-linecap="round" stroke-linejoin="round"/>
<path d="M194.715 39.9296L205.828 28.4343" stroke="#1E212B" stroke-miterlimit="10" stroke-linecap="round" stroke-linejoin="round"/>
<path d="M197.055 31.4331L192.96 24.436" stroke="#1E212B" stroke-miterlimit="10" stroke-linecap="round" stroke-linejoin="round"/>
<path d="M180.678 72.9159C180.678 72.9159 188.935 67.9559 196.488 63.2468L180.678 72.9159Z" fill="#446622"/>
<path d="M180.678 72.9159C180.678 72.9159 188.935 67.9559 196.488 63.2468" stroke="#1E212B" stroke-miterlimit="10" stroke-linecap="round" stroke-linejoin="round"/>
<path d="M184.772 62.4204C184.772 62.4204 179.138 52.6064 172.198 45.8042L184.772 62.4204Z" fill="#446622"/>
<path d="M184.772 62.4204C184.772 62.4204 179.138 52.6064 172.198 45.8042" stroke="#1E212B" stroke-miterlimit="10" stroke-linecap="round" stroke-linejoin="round"/>
<path d="M185.263 115.053C185.263 115.053 190.978 105.459 200.98 97.0869L185.263 115.053Z" fill="#446622"/>
<path d="M185.263 115.053C185.263 115.053 190.978 105.459 200.98 97.0869" stroke="#1E212B" stroke-miterlimit="10" stroke-linecap="round" stroke-linejoin="round"/>
<path d="M184.188 124.895C184.188 124.895 180.159 114.53 175.872 109.123C171.585 103.715 170.973 103.018 170.973 103.018" fill="#446622"/>
<path d="M184.188 124.895C184.188 124.895 180.159 114.53 175.872 109.123C171.585 103.715 170.973 103.018 170.973 103.018" stroke="#1E212B" stroke-miterlimit="10" stroke-linecap="round" stroke-linejoin="round"/>
<path d="M179.146 154.795C179.146 154.795 182.089 148.417 185.764 143.359C189.438 138.3 194.337 133.765 194.337 133.765" fill="#446622"/>
<path d="M179.146 154.795C179.146 154.795 182.089 148.417 185.764 143.359C189.438 138.3 194.337 133.765 194.337 133.765" stroke="#1E212B" stroke-miterlimit="10" stroke-linecap="round" stroke-linejoin="round"/>
<path d="M181.828 179.307C181.828 179.307 181.315 173.324 184.668 168.403C188.021 163.48 191.871 157.007 193.451 154.455" fill="#446622"/>
<path d="M181.828 179.307C181.828 179.307 181.315 173.324 184.668 168.403C188.021 163.48 191.871 157.007 193.451 154.455" stroke="#1E212B" stroke-miterlimit="10" stroke-linecap="round" stroke-linejoin="round"/>
<path d="M130.615 87.285C130.615 87.285 129.983 84.1673 134.206 79.0474C138.43 73.9275 141.206 70.9478 141.206 70.9478C141.206 70.9478 145.213 77.74 141.354 82.8059C137.495 87.8718 131.749 92.8967 131.749 92.8967L130.615 87.285Z" fill="#99BB44"/>
<path d="M141.97 107.658C141.97 107.658 141.339 104.54 145.563 99.42C149.785 94.3001 152.564 91.3203 152.564 91.3203C152.564 91.3203 156.57 98.1125 152.711 103.178C148.852 108.244 143.106 113.269 143.106 113.269L141.97 107.658Z" fill="#99BB44"/>
<path d="M130.842 93.5475C130.842 93.5475 129.829 90.5047 123.424 87.457C117.02 84.4092 113.004 82.7539 113.004 82.7539C113.004 82.7539 112.635 91.2723 118.682 94.4071C124.731 97.5418 132.134 96.906 132.134 96.906L130.842 93.5475Z" fill="#99BB44"/>
<path d="M144.911 116.267C144.911 116.267 143.561 113.418 136.973 111.034C130.386 108.649 126.286 107.402 126.286 107.402C126.286 107.402 127.042 114.758 133.294 117.256C139.545 119.755 147.341 121.396 147.341 121.396L144.911 116.267Z" fill="#99BB44"/>
<path d="M148.548 141.762C148.548 141.762 147.92 138.638 141.956 135.022C135.992 131.405 132.221 129.393 132.221 129.393C132.221 129.393 131.125 136.956 136.726 140.627C142.326 144.297 149.68 147.385 149.68 147.385L148.548 141.762Z" fill="#99BB44"/>
<path d="M150.344 147.64C150.344 147.64 149.2 144.631 152.529 139.05C155.858 133.469 158.112 130.181 158.112 130.181C158.112 130.181 163.207 136.419 160.23 141.902C157.253 147.385 152.529 152.383 152.529 152.383L150.344 147.64Z" fill="#99BB44"/>
<path d="M160.96 172.651C160.96 172.651 161.379 169.472 167.064 165.534C172.749 161.595 176.362 159.38 176.362 159.38C176.362 159.38 177.95 166.946 172.629 170.922C167.308 174.897 160.208 178.372 160.208 178.372L160.96 172.651Z" fill="#99BB44"/>
<path d="M159.054 165.03C159.054 165.03 158.423 161.912 152.431 158.304C146.44 154.695 142.651 152.686 142.651 152.686C142.651 152.686 141.55 160.234 147.177 163.897C152.803 167.56 160.191 170.642 160.191 170.642L159.054 165.03Z" fill="#99BB44"/>
<path d="M158.975 181.976C158.975 181.976 159.288 178.823 154.561 174.035C149.834 169.247 146.765 166.484 146.765 166.484C146.765 166.484 143.463 173.548 147.82 178.31C152.177 183.071 158.412 187.651 158.412 187.651L158.975 181.976Z" fill="#99BB44"/>
<path d="M129.99 88.5535C130.965 91.8411 132.106 95.2237 133.35 98.0265C137.175 106.642 143.387 111.646 147.037 119.399C150.686 127.152 146.992 138.382 150.64 148.493C154.287 158.605 160.162 163.658 160.215 170.759C160.268 177.859 156.988 197.594 156.988 197.594" stroke="#1E212B" stroke-miterlimit="10" stroke-linecap="round" stroke-linejoin="round"/>
<path d="M132.481 96.611L126.246 93.8152" stroke="#1E212B" stroke-miterlimit="10" stroke-linecap="round" stroke-linejoin="round"/>
<path d="M131.383 92.4928L132.978 88.6514" stroke="#1E212B" stroke-miterlimit="10" stroke-linecap="round" stroke-linejoin="round"/>
<path d="M146.656 119.075C146.656 119.075 141.45 116.803 136.116 114.551L146.656 119.075Z" fill="#99BB44"/>
<path d="M146.656 119.075C146.656 119.075 141.45 116.803 136.116 114.551" stroke="#1E212B" stroke-miterlimit="10" stroke-linecap="round" stroke-linejoin="round"/>
<path d="M143.247 112.4C143.247 112.4 145.643 106.268 149.131 101.358L143.247 112.4Z" fill="#99BB44"/>
<path d="M143.247 112.4C143.247 112.4 145.643 106.268 149.131 101.358" stroke="#1E212B" stroke-miterlimit="10" stroke-linecap="round" stroke-linejoin="round"/>
<path d="M149.68 146.386C149.68 146.386 144.934 140.51 137.598 136.187L149.68 146.386Z" fill="#99BB44"/>
<path d="M149.68 146.386C149.68 146.386 144.934 140.51 137.598 136.187" stroke="#1E212B" stroke-miterlimit="10" stroke-linecap="round" stroke-linejoin="round"/>
<path d="M151.519 150.238C151.519 150.238 152.87 145.194 154.871 141.405C156.873 137.616 157.168 137.121 157.168 137.121" fill="#99BB44"/>
<path d="M151.519 150.238C151.519 150.238 152.87 145.194 154.871 141.405C156.873 137.616 157.168 137.121 157.168 137.121" stroke="#1E212B" stroke-miterlimit="10" stroke-linecap="round" stroke-linejoin="round"/>
<path d="M159.932 176.145C159.932 176.145 164.064 171.816 166.637 170.196C169.209 168.577 170.991 166.96 170.991 166.96" fill="#99BB44"/>
<path d="M159.932 176.145C159.932 176.145 164.064 171.816 166.637 170.196C169.209 168.577 170.991 166.96 170.991 166.96" stroke="#1E212B" stroke-miterlimit="10" stroke-linecap="round" stroke-linejoin="round"/>
<path d="M160.215 170.76C160.215 170.76 157.558 167.033 154.612 164.202C151.665 161.371 148.017 158.981 148.017 158.981" fill="#99BB44"/>
<path d="M160.215 170.76C160.215 170.76 157.558 167.033 154.612 164.202C151.665 161.371 148.017 158.981 148.017 158.981" stroke="#1E212B" stroke-miterlimit="10" stroke-linecap="round" stroke-linejoin="round"/>
<path d="M158.411 187.652C158.411 187.652 158.195 183.838 155.632 180.95C153.069 178.063 150.051 174.227 148.823 172.72" fill="#99BB44"/>
<path d="M158.411 187.652C158.411 187.652 158.195 183.838 155.632 180.95C153.069 178.063 150.051 174.227 148.823 172.72" stroke="#1E212B" stroke-miterlimit="10" stroke-linecap="round" stroke-linejoin="round"/>
<path d="M112.901 195.818L119.935 196.388C120.226 196.411 120.473 196.185 120.486 195.882C120.498 195.579 120.27 195.314 119.982 195.291L113.951 194.803C115.393 193.419 116.833 192.109 118.262 190.875L125.812 191.777C126.103 191.812 126.357 191.595 126.38 191.293C126.403 190.991 126.182 190.722 125.897 190.683L119.392 189.906C121.214 188.372 123.001 186.967 124.728 185.676C124.749 185.68 124.769 185.686 124.79 185.686L131.237 185.759C131.529 185.763 131.759 185.518 131.752 185.215C131.745 184.911 131.5 184.662 131.213 184.659L126.188 184.602C130.556 181.439 134.429 179.086 137.238 177.511C135.769 180.946 131.395 190.697 127.137 195.47C122.551 200.612 111.452 200.243 108.823 200.078C110.17 198.589 111.533 197.167 112.901 195.818Z" fill="#446622"/>
<path d="M127.038 182.398L128.486 178.953C128.602 178.679 128.478 178.351 128.211 178.221C127.945 178.087 127.633 178.208 127.517 178.483L125.448 183.402C125.431 183.443 125.429 183.485 125.423 183.528C123.398 184.972 121.261 186.593 119.066 188.391L119.762 182.326C119.797 182.027 119.591 181.743 119.3 181.698C119.011 181.652 118.749 181.858 118.714 182.158L117.923 189.043C117.912 189.136 117.931 189.222 117.96 189.305C116.03 190.926 114.065 192.69 112.103 194.587L112.83 187.995C112.862 187.694 112.657 187.417 112.365 187.368C112.076 187.324 111.815 187.531 111.78 187.831L110.938 195.476C110.929 195.554 110.937 195.632 110.96 195.706C109.768 196.893 108.581 198.132 107.405 199.42C107.461 196.25 108.282 185.94 116.349 180.636C124.835 175.057 134.369 176.198 136.479 176.54C134.085 177.862 130.805 179.805 127.038 182.398Z" fill="#446622"/>
<path d="M232.037 201.622L238.259 197.508C238.259 197.508 248.833 198.747 253.479 194.995C258.124 191.244 266.775 180.782 268.42 176.027C270.065 171.272 268.298 166.701 265.85 165.993C263.403 165.285 257.454 168.137 252.649 170.795C247.843 173.454 239.951 179.894 238.523 184.565C237.095 189.236 238.421 191.153 237.007 194.021C235.595 196.885 227.683 203.718 232.037 201.622Z" fill="#446622" stroke="#1E212B" stroke-miterlimit="10" stroke-linecap="round" stroke-linejoin="round"/>
<path d="M260.552 174.381C264.728 171.298 265.038 170.338 265.038 170.338L260.552 174.381Z" fill="#446622"/>
<path d="M260.552 174.381C264.728 171.298 265.038 170.338 265.038 170.338" stroke="#1E212B" stroke-width="0.5" stroke-miterlimit="10" stroke-linecap="round" stroke-linejoin="round"/>
<path d="M234.158 198.122C234.158 198.122 253.725 178.46 259.078 174.209L234.158 198.122Z" fill="#446622"/>
<path d="M234.158 198.122C234.158 198.122 253.725 178.46 259.078 174.209" stroke="#1E212B" stroke-width="0.5" stroke-miterlimit="10" stroke-linecap="round" stroke-linejoin="round"/>
<path d="M254.16 190.445C256.522 189.481 257.71 188.862 257.71 188.862L254.16 190.445Z" fill="#446622"/>
<path d="M254.16 190.445C256.522 189.481 257.71 188.862 257.71 188.862" stroke="#1E212B" stroke-width="0.5" stroke-miterlimit="10" stroke-linecap="round" stroke-linejoin="round"/>
<path d="M240.037 194.41C240.037 194.41 241.791 192.23 242.986 191.565C244.133 190.928 249.594 191.521 252.698 190.517" fill="#446622"/>
<path d="M240.037 194.41C240.037 194.41 241.791 192.23 242.986 191.565C244.133 190.928 249.594 191.521 252.698 190.517" stroke="#1E212B" stroke-width="0.5" stroke-miterlimit="10" stroke-linecap="round" stroke-linejoin="round"/>
<path d="M258.228 185.654C258.228 185.654 252.496 185.565 250.862 185.686C249.227 185.808 248.057 185.878 247.616 186.247C247.176 186.616 244.948 189.057 244.948 189.057" fill="#446622"/>
<path d="M258.228 185.654C258.228 185.654 252.496 185.565 250.862 185.686C249.227 185.808 248.057 185.878 247.616 186.247C247.176 186.616 244.948 189.057 244.948 189.057" stroke="#1E212B" stroke-width="0.5" stroke-miterlimit="10" stroke-linecap="round" stroke-linejoin="round"/>
<path d="M253.869 180.963C253.869 180.963 258.906 181.703 261.498 182.009C264.091 182.317 265.595 180.266 265.595 180.266" fill="#446622"/>
<path d="M253.869 180.963C253.869 180.963 258.906 181.703 261.498 182.009C264.091 182.317 265.595 180.266 265.595 180.266" stroke="#1E212B" stroke-width="0.5" stroke-miterlimit="10" stroke-linecap="round" stroke-linejoin="round"/>
<path d="M265.482 175.795C265.036 175.983 264.533 176.145 263.984 176.241C261.869 176.611 258.799 176.76 258.799 176.76" fill="#446622"/>
<path d="M265.482 175.795C265.036 175.983 264.533 176.145 263.984 176.241C261.869 176.611 258.799 176.76 258.799 176.76" stroke="#1E212B" stroke-width="0.5" stroke-miterlimit="10" stroke-linecap="round" stroke-linejoin="round"/>
<path d="M267.568 174.751C267.568 174.751 267.375 174.93 267.026 175.175L267.568 174.751Z" fill="#446622"/>
<path d="M267.568 174.751C267.568 174.751 267.375 174.93 267.026 175.175" stroke="#1E212B" stroke-width="0.5" stroke-miterlimit="10" stroke-linecap="round" stroke-linejoin="round"/>
<path d="M245.817 181.708C245.92 180.76 246.109 179.822 246.442 179.089C247.523 176.705 249.436 174.484 249.436 174.484" fill="#446622"/>
<path d="M245.817 181.708C245.92 180.76 246.109 179.822 246.442 179.089C247.523 176.705 249.436 174.484 249.436 174.484" stroke="#1E212B" stroke-width="0.5" stroke-miterlimit="10" stroke-linecap="round" stroke-linejoin="round"/>
<path d="M245.839 185.799C245.839 185.799 245.712 184.539 245.746 183.007L245.839 185.799Z" fill="#446622"/>
<path d="M245.839 185.799C245.839 185.799 245.712 184.539 245.746 183.007" stroke="#1E212B" stroke-width="0.5" stroke-miterlimit="10" stroke-linecap="round" stroke-linejoin="round"/>
<path d="M252.957 175.411C253.128 174.855 253.35 174.311 253.639 173.819C255.185 171.18 256.462 169.94 256.462 169.94" fill="#446622"/>
<path d="M252.957 175.411C253.128 174.855 253.35 174.311 253.639 173.819C255.185 171.18 256.462 169.94 256.462 169.94" stroke="#1E212B" stroke-width="0.5" stroke-miterlimit="10" stroke-linecap="round" stroke-linejoin="round"/>
<path d="M252.501 180.228C252.501 180.228 252.334 178.515 252.631 176.617L252.501 180.228Z" fill="#446622"/>
<path d="M252.501 180.228C252.501 180.228 252.334 178.515 252.631 176.617" stroke="#1E212B" stroke-width="0.5" stroke-miterlimit="10" stroke-linecap="round" stroke-linejoin="round"/>
<path d="M240.632 183.894C240.814 183.181 241.064 182.481 241.406 181.837L240.632 183.894Z" fill="#446622"/>
<path d="M240.632 183.894C240.814 183.181 241.064 182.481 241.406 181.837" stroke="#1E212B" stroke-width="0.5" stroke-miterlimit="10" stroke-linecap="round" stroke-linejoin="round"/>
<path d="M240.457 190.275C240.457 190.275 240.067 187.883 240.402 185.277L240.457 190.275Z" fill="#446622"/>
<path d="M240.457 190.275C240.457 190.275 240.067 187.883 240.402 185.277" stroke="#1E212B" stroke-width="0.5" stroke-miterlimit="10" stroke-linecap="round" stroke-linejoin="round"/>
<path d="M232.529 193.077L225.797 191.256C225.797 191.256 215.703 195.04 210.565 193.111C205.428 191.183 195.29 184.687 192.909 181.141C190.528 177.594 191.5 173.314 193.767 172.086C196.034 170.858 202.294 171.695 207.409 172.669C212.524 173.642 221.264 176.973 223.42 180.506C225.576 184.038 224.598 185.986 226.444 188.015C228.289 190.042 237.112 193.697 232.529 193.077Z" fill="#99BB44" stroke="#1E212B" stroke-miterlimit="10" stroke-linecap="round" stroke-linejoin="round"/>
<path d="M200.452 177.388C195.882 175.897 195.423 175.176 195.423 175.176L200.452 177.388Z" fill="#99BB44"/>
<path d="M200.452 177.388C195.882 175.897 195.423 175.176 195.423 175.176" stroke="#1E212B" stroke-width="0.5" stroke-miterlimit="10" stroke-linecap="round" stroke-linejoin="round"/>
<path d="M229.839 190.78C229.839 190.78 207.554 179.428 201.643 177.265L229.839 190.78Z" fill="#99BB44"/>
<path d="M229.839 190.78C229.839 190.78 207.554 179.428 201.643 177.265" stroke="#1E212B" stroke-width="0.5" stroke-miterlimit="10" stroke-linecap="round" stroke-linejoin="round"/>
<path d="M209.343 189.522C206.902 189.328 205.653 189.119 205.653 189.119L209.343 189.522Z" fill="#99BB44"/>
<path d="M209.343 189.522C206.902 189.328 205.653 189.119 205.653 189.119" stroke="#1E212B" stroke-width="0.5" stroke-miterlimit="10" stroke-linecap="round" stroke-linejoin="round"/>
<path d="M223.505 189.335C223.505 189.335 221.454 187.97 220.193 187.723C218.983 187.486 213.823 189.371 210.668 189.328" fill="#99BB44"/>
<path d="M223.505 189.335C223.505 189.335 221.454 187.97 220.193 187.723C218.983 187.486 213.823 189.371 210.668 189.328" stroke="#1E212B" stroke-width="0.5" stroke-miterlimit="10" stroke-linecap="round" stroke-linejoin="round"/>
<path d="M204.557 186.549C204.557 186.549 210.054 185.019 211.646 184.705C213.238 184.39 214.375 184.151 214.861 184.346C215.345 184.541 217.895 186.004 217.895 186.004" fill="#99BB44"/>
<path d="M204.557 186.549C204.557 186.549 210.054 185.019 211.646 184.705C213.238 184.39 214.375 184.151 214.861 184.346C215.345 184.541 217.895 186.004 217.895 186.004" stroke="#1E212B" stroke-width="0.5" stroke-miterlimit="10" stroke-linecap="round" stroke-linejoin="round"/>
<path d="M207.976 181.382C207.976 181.382 203.279 183.267 200.848 184.175C198.418 185.084 196.627 183.746 196.627 183.746" fill="#99BB44"/>
<path d="M207.976 181.382C207.976 181.382 203.279 183.267 200.848 184.175C198.418 185.084 196.627 183.746 196.627 183.746" stroke="#1E212B" stroke-width="0.5" stroke-miterlimit="10" stroke-linecap="round" stroke-linejoin="round"/>
<path d="M195.964 179.899C196.423 179.944 196.933 179.952 197.475 179.894C199.565 179.67 202.533 179.022 202.533 179.022" fill="#99BB44"/>
<path d="M195.964 179.899C196.423 179.944 196.933 179.952 197.475 179.894C199.565 179.67 202.533 179.022 202.533 179.022" stroke="#1E212B" stroke-width="0.5" stroke-miterlimit="10" stroke-linecap="round" stroke-linejoin="round"/>
<path d="M193.818 179.519C193.818 179.519 194.035 179.618 194.414 179.732L193.818 179.519Z" fill="#99BB44"/>
<path d="M193.818 179.519C193.818 179.519 194.035 179.618 194.414 179.732" stroke="#1E212B" stroke-width="0.5" stroke-miterlimit="10" stroke-linecap="round" stroke-linejoin="round"/>
<path d="M215.741 179.964C215.482 179.192 215.14 178.451 214.691 177.92C213.232 176.193 210.986 174.819 210.986 174.819" fill="#99BB44"/>
<path d="M215.741 179.964C215.482 179.192 215.14 178.451 214.691 177.92C213.232 176.193 210.986 174.819 210.986 174.819" stroke="#1E212B" stroke-width="0.5" stroke-miterlimit="10" stroke-linecap="round" stroke-linejoin="round"/>
<path d="M216.413 183.509C216.413 183.509 216.318 182.409 216.018 181.119L216.413 183.509Z" fill="#99BB44"/>
<path d="M216.413 183.509C216.413 183.509 216.318 182.409 216.018 181.119" stroke="#1E212B" stroke-width="0.5" stroke-miterlimit="10" stroke-linecap="round" stroke-linejoin="round"/>
<path d="M207.848 176.377C207.588 175.955 207.28 175.556 206.916 175.217C204.965 173.403 203.509 172.693 203.509 172.693" fill="#99BB44"/>
<path d="M207.848 176.377C207.588 175.955 207.28 175.556 206.916 175.217C204.965 173.403 203.509 172.693 203.509 172.693" stroke="#1E212B" stroke-width="0.5" stroke-miterlimit="10" stroke-linecap="round" stroke-linejoin="round"/>
<path d="M209.107 180.42C209.107 180.42 208.964 178.924 208.346 177.385L209.107 180.42Z" fill="#99BB44"/>
<path d="M209.107 180.42C209.107 180.42 208.964 178.924 208.346 177.385" stroke="#1E212B" stroke-width="0.5" stroke-miterlimit="10" stroke-linecap="round" stroke-linejoin="round"/>
<path d="M221.035 180.58C220.737 180.025 220.373 179.498 219.929 179.044L221.035 180.58Z" fill="#99BB44"/>
<path d="M221.035 180.58C220.737 180.025 220.373 179.498 219.929 179.044" stroke="#1E212B" stroke-width="0.5" stroke-miterlimit="10" stroke-linecap="round" stroke-linejoin="round"/>
<path d="M222.315 185.98C222.315 185.98 222.275 183.852 221.496 181.725L222.315 185.98Z" fill="#99BB44"/>
<path d="M222.315 185.98C222.315 185.98 222.275 183.852 221.496 181.725" stroke="#1E212B" stroke-width="0.5" stroke-miterlimit="10" stroke-linecap="round" stroke-linejoin="round"/>
</svg>
