<svg width="69" height="152" viewBox="0 0 69 152" fill="none" xmlns="http://www.w3.org/2000/svg">
<path d="M12.5067 136.909C12.5067 136.909 12.5216 138.471 10.3196 139.044C8.11764 139.616 3.74564 138.167 4.53964 138.509C5.33364 138.851 10.8876 138.818 8.11765 139.616C5.34765 140.414 3.49865 139.328 2.58865 140.348C1.67865 141.368 1.67865 141.368 1.67865 141.368C1.67865 141.368 3.74965 140.595 5.50365 141.314C7.25665 142.033 9.35265 141.959 9.35265 141.959L5.70865 143.611L9.52264 144.421L7.64265 145.929C7.64265 145.929 12.5826 147.152 13.7786 147.233C14.9746 147.314 17.3526 145.912 17.3526 145.912L15.8087 149.918C15.8087 149.918 18.7546 148.29 19.2936 144.938C19.8326 141.586 20.0087 140.756 20.0087 140.756L22.1546 142.079C22.1546 142.079 21.7336 138.349 20.5376 138.268C19.3416 138.187 19.2567 136.956 19.2567 136.956L12.5067 136.909Z" fill="#D4D4D4" stroke="#1E212B" stroke-miterlimit="10"/>
<path d="M12.5296 115.593C12.5296 115.593 2.46665 117.268 0.795647 123.5C-0.875353 129.732 4.98364 134.79 7.40064 135.651C9.81764 136.511 13.5976 137.487 13.5976 137.487C13.5976 137.487 15.7536 137.945 19.3416 138.188C22.9306 138.43 30.5096 138.654 34.0096 135.237C37.5086 131.821 36.1236 125.286 33.4656 122.295C30.8086 119.304 26.2806 116.954 26.2806 116.954C26.2806 116.954 26.7366 106.651 25.7286 99.1569C24.7216 91.6619 31.3276 84.2257 32.8056 82.9797C34.2846 81.7337 51.2236 64.0124 55.2176 52.5543C59.2126 41.0962 64.4946 27.6581 66.0846 22.6225C67.6746 17.5869 69.6426 11.5916 66.7316 13.0531C63.8206 14.5146 55.9146 30.5155 52.5246 35.8616C49.1356 41.2084 38.0606 60.696 38.0606 60.696C38.0606 60.696 53.0696 29.2172 55.6616 21.101C58.2526 12.9849 60.5656 8.62268 59.8276 6.38568C59.0896 4.14878 56.6366 3.45438 55.4206 5.10278C54.2036 6.75108 42.0906 35.2048 42.0906 35.2048C42.0906 35.2048 46.1016 19.5898 48.6676 10.7748C51.2346 1.95968 50.2766 -4.13696 45.7096 5.11928C41.1426 14.3756 30.7006 36.5981 30.0066 39.0506C29.3116 41.503 28.0496 44.1818 28.0496 44.1818C28.0496 44.1818 27.2176 35.8584 22.7626 41.3251C18.3076 46.7918 19.6076 52.0952 18.9566 59.237C18.3056 66.3788 18.5386 77.5219 18.4156 82.1762C18.2936 86.8309 19.4386 91.2339 19.0856 92.8919C18.7326 94.5509 15.1496 110.603 14.5706 111.694C13.9936 112.783 12.5296 115.593 12.5296 115.593Z" fill="#446622" stroke="#1E212B" stroke-miterlimit="10"/>
<path d="M19.3416 138.188C22.9306 138.43 30.5096 138.654 34.0096 135.237C37.5086 131.821 36.1236 125.287 33.4656 122.295C30.8086 119.303 26.2806 116.954 26.2806 116.954L21.9316 115.225L19.4586 115.618C19.4586 115.618 17.9876 114.754 17.1826 114.216C16.3776 113.677 12.5296 115.592 12.5296 115.592C12.5296 115.592 2.46663 117.267 0.795632 123.499C-0.874368 129.731 4.98463 134.788 7.40063 135.649C9.81863 136.51 13.5976 137.486 13.5976 137.486C13.5976 137.486 15.7526 137.945 19.3416 138.188Z" fill="white" stroke="#1E212B" stroke-miterlimit="10"/>
<path d="M6.58162 123.013C6.58162 123.013 3.01061 126.632 4.48761 129.572" stroke="#1E212B" stroke-miterlimit="10"/>
<path d="M6.53766 132.284C6.53766 132.284 6.80066 134.674 12.5077 136.909" stroke="#1E212B" stroke-miterlimit="10"/>
<path d="M28.1796 126.027C28.1796 126.027 29.8236 129.002 27.0556 132.967C24.2866 136.932 19.2567 136.957 19.2567 136.957" stroke="#1E212B" stroke-miterlimit="10"/>
<path d="M33.8196 129.151C33.8196 129.151 34.6876 132.487 32.2386 134.944" stroke="#1E212B" stroke-miterlimit="10"/>
<path opacity="0.59" d="M66.7317 13.0531C63.8207 14.5146 55.9147 30.5155 52.5247 35.8616C49.1357 41.2084 38.0607 60.696 38.0607 60.696C38.0607 60.696 53.0697 29.2172 55.6617 21.101C58.2527 12.9849 60.5657 8.62268 59.8277 6.38568C59.0897 4.14878 56.6377 3.45438 55.4207 5.10278C54.2037 6.75108 42.0907 35.2048 42.0907 35.2048C42.0907 35.2048 46.1017 19.5898 48.6677 10.7748C51.2347 1.95968 50.2767 -4.13696 45.7097 5.11928C41.1427 14.3756 30.7007 36.5981 30.0067 39.0506C29.3117 41.503 28.0497 44.1818 28.0497 44.1818C28.0497 44.1818 27.2177 35.8584 22.7627 41.3251C18.3077 46.7918 19.6077 52.0952 18.9567 59.237C18.3057 66.3788 18.5387 77.5219 18.4157 82.1762C18.2937 86.8309 19.4387 91.2339 19.0857 92.8919C18.7327 94.5509 15.1497 110.603 14.5707 111.694C13.9927 112.784 12.5297 115.593 12.5297 115.593C12.5297 115.593 16.1267 113.992 17.1827 114.217C18.2377 114.441 18.7547 115.47 19.4577 115.62C20.1617 115.77 21.2657 114.9 21.9317 115.226C22.5977 115.552 21.3667 115.29 22.5977 115.552C23.8297 115.813 26.2797 116.955 26.2797 116.955C26.2797 116.955 26.7357 106.652 25.7277 99.1569C24.7207 91.6629 31.3277 84.2263 32.8057 82.9803C34.2837 81.7343 51.2227 64.0131 55.2177 52.555C59.2127 41.0968 64.4937 27.6588 66.0847 22.6231C67.6747 17.5869 69.6427 11.5916 66.7317 13.0531Z" fill="white"/>
<path d="M66.7317 13.0531C63.8207 14.5146 55.9147 30.5155 52.5247 35.8616C49.1357 41.2084 38.0607 60.696 38.0607 60.696C38.0607 60.696 53.0697 29.2172 55.6617 21.101C58.2527 12.9849 60.5657 8.62268 59.8277 6.38568C59.0897 4.14878 56.6377 3.45438 55.4207 5.10278C54.2037 6.75108 42.0907 35.2048 42.0907 35.2048C42.0907 35.2048 46.1017 19.5898 48.6677 10.7748C51.2347 1.95968 50.2767 -4.13696 45.7097 5.11928C41.1427 14.3756 30.7007 36.5981 30.0067 39.0506C29.3117 41.503 28.0497 44.1818 28.0497 44.1818C28.0497 44.1818 27.2177 35.8584 22.7627 41.3251C18.3077 46.7918 19.6077 52.0952 18.9567 59.237C18.3057 66.3788 18.5387 77.5219 18.4157 82.1762C18.2937 86.8309 19.4387 91.2339 19.0857 92.8919C18.7327 94.5509 15.1497 110.603 14.5707 111.694C13.9927 112.784 12.5297 115.593 12.5297 115.593C12.5297 115.593 16.1267 113.992 17.1827 114.217C18.2377 114.441 18.7547 115.47 19.4577 115.62C20.1617 115.77 21.2657 114.9 21.9317 115.226C22.5977 115.552 21.3667 115.29 22.5977 115.552C23.8297 115.813 26.2797 116.955 26.2797 116.955C26.2797 116.955 26.7357 106.652 25.7277 99.1569C24.7207 91.6629 31.3277 84.2263 32.8057 82.9803C34.2837 81.7343 51.2227 64.0131 55.2177 52.555C59.2127 41.0968 64.4937 27.6588 66.0847 22.6231C67.6747 17.5869 69.6427 11.5916 66.7317 13.0531Z" stroke="#1E212B" stroke-miterlimit="10"/>
<path d="M22.7626 41.3247C18.3076 46.7914 19.6076 52.0948 18.9566 59.2366C18.3056 66.3784 18.5386 77.5215 18.4156 82.1758C18.2996 86.5916 19.3216 90.7776 19.1256 92.6116C19.4536 92.4586 19.8946 92.2546 20.4926 91.9776L20.8456 90.3186C20.8456 90.3186 21.6996 91.1936 22.6446 90.0076C23.5896 88.8216 23.5646 88.1236 23.5646 88.1236C23.5646 88.1236 24.4796 89.5316 25.1886 88.6416C25.8976 87.7526 25.0346 82.0221 24.2846 72.5025C23.5336 62.9828 28.0486 44.1814 28.0486 44.1814C28.0486 44.1814 27.2176 35.8574 22.7626 41.3247Z" fill="#446622" stroke="#1E212B" stroke-miterlimit="10"/>
<path d="M59.8276 6.38568C59.0896 4.14878 56.6376 3.45438 55.4196 5.10278C54.2036 6.75108 42.0906 35.2048 42.0906 35.2048C42.0906 35.2048 46.1016 19.5898 48.6676 10.7748C51.2346 1.95968 50.2766 -4.13696 45.7086 5.11928C41.1426 14.3756 30.7006 36.5981 30.0056 39.0506C29.3116 41.503 28.0486 44.1818 28.0486 44.1818C28.0486 44.1818 26.9756 53.3138 25.3996 59.9129C23.8236 66.5114 24.0376 73.6641 25.0476 75.4387L27.7116 75.1384L29.8146 71.7715L34.7646 58.2627C34.7646 58.2627 36.2256 61.1729 36.7236 61.2788C37.2206 61.3846 38.0606 60.6966 38.0606 60.6966C38.0606 60.6966 53.0686 29.2178 55.6606 21.1017C58.2526 12.9849 60.5656 8.62268 59.8276 6.38568Z" fill="#446622" stroke="#1E212B" stroke-miterlimit="10"/>
<path d="M66.7316 13.0531C63.8206 14.5146 55.9136 30.5155 52.5246 35.8616C49.1346 41.2084 38.0606 60.696 38.0606 60.696C38.0606 60.696 35.0876 67.3442 34.2626 69.5958C33.4376 71.8474 32.3756 74.3949 33.1096 74.2042C33.8436 74.0135 38.6556 69.3159 38.6556 69.3159C38.6556 69.3159 32.1136 79.713 31.5946 81.3358C31.1896 82.6067 30.9886 83.9183 31.2046 84.6555C31.8976 83.8373 32.4776 83.2558 32.8056 82.9797C34.2836 81.7337 51.2236 64.0125 55.2176 52.5543C59.2126 41.0962 64.4946 27.6581 66.0846 22.6225C67.6746 17.5869 69.6426 11.5916 66.7316 13.0531Z" fill="#446622" stroke="#1E212B" stroke-miterlimit="10"/>
<path d="M42.0916 35.2046L35.6146 56.709" stroke="#1E212B" stroke-miterlimit="10"/>
<path d="M40.6776 67.1454C40.6776 67.1454 55.4206 46.7039 61.4516 34.6387" stroke="#1E212B" stroke-miterlimit="10"/>
<path d="M13.2776 116.965C13.2776 116.965 14.7796 115.14 15.5206 111.657" stroke="#1E212B" stroke-miterlimit="10"/>
<path d="M17.9657 108.774C17.9657 108.774 17.2297 114.684 16.1077 116.699" stroke="#1E212B" stroke-miterlimit="10"/>
<path d="M21.3297 102.729L18.2637 117.158" stroke="#1E212B" stroke-miterlimit="10"/>
<path d="M23.3946 105.248C23.3946 105.248 21.9436 115.34 22.3596 116.641" stroke="#1E212B" stroke-miterlimit="10"/>
<path d="M24.7446 111.948C24.7446 111.948 24.2056 115.3 24.9186 116.839" stroke="#1E212B" stroke-miterlimit="10"/>
</svg>
