<svg width="21" height="17" viewBox="0 0 21 17" fill="none" xmlns="http://www.w3.org/2000/svg">
<path d="M19.7359 15.0553L17.2587 12.5323C17.2587 12.5323 16.6287 7.11634 14.4831 5.32534C12.338 3.53534 6.8308 0.676332 4.58073 0.512332C2.33067 0.348332 0.537893 1.85133 0.500543 3.16233C0.463183 4.47333 2.36118 7.03433 4.0488 9.05433C5.73653 11.0743 9.41022 14.1073 11.5997 14.1753C13.7891 14.2433 14.4767 13.3233 15.8802 13.6313C17.282 13.9393 21.1288 16.9283 19.7359 15.0553Z" fill="#99BB44" stroke="#1E212B" stroke-miterlimit="10" stroke-linecap="round" stroke-linejoin="round"/>
<path d="M4.37988 4.85996C2.57832 3.21096 2.12708 3.18896 2.12708 3.18896L4.37988 4.85996Z" fill="#99BB44"/>
<path d="M4.37988 4.85996C2.57832 3.21096 2.12708 3.18896 2.12708 3.18896" stroke="#1E212B" stroke-width="0.5" stroke-miterlimit="10" stroke-linecap="round" stroke-linejoin="round"/>
<path d="M18.0615 14.4154C18.0615 14.4154 7.33286 7.39336 4.88892 5.31836L18.0615 14.4154Z" fill="#99BB44"/>
<path d="M18.0615 14.4154C18.0615 14.4154 7.33286 7.39336 4.88892 5.31836" stroke="#1E212B" stroke-width="0.5" stroke-miterlimit="10" stroke-linecap="round" stroke-linejoin="round"/>
<path d="M12.5117 5.78513C11.8432 4.76213 11.4501 4.26514 11.4501 4.26514L12.5117 5.78513Z" fill="#99BB44"/>
<path d="M12.5117 5.78513C11.8432 4.76213 11.4501 4.26514 11.4501 4.26514" stroke="#1E212B" stroke-width="0.5" stroke-miterlimit="10" stroke-linecap="round" stroke-linejoin="round"/>
<path d="M15.9034 11.9803C15.9034 11.9803 14.794 11.4163 14.3836 10.9253C13.9897 10.4533 13.6393 7.73428 12.8763 6.36328" fill="#99BB44"/>
<path d="M15.9034 11.9803C15.9034 11.9803 14.794 11.4163 14.3836 10.9253C13.9897 10.4533 13.6393 7.73428 12.8763 6.36328" stroke="#1E212B" stroke-width="0.5" stroke-miterlimit="10" stroke-linecap="round" stroke-linejoin="round"/>
<path d="M9.99487 4.38721C9.99487 4.38721 10.5886 7.16421 10.8193 7.93721C11.05 8.70921 11.2083 9.26521 11.4111 9.43021C11.6139 9.59521 12.8799 10.3542 12.8799 10.3542" fill="#99BB44"/>
<path d="M9.99487 4.38721C9.99487 4.38721 10.5886 7.16421 10.8193 7.93721C11.05 8.70921 11.2083 9.26521 11.4111 9.43021C11.6139 9.59521 12.8799 10.3542 12.8799 10.3542" stroke="#1E212B" stroke-width="0.5" stroke-miterlimit="10" stroke-linecap="round" stroke-linejoin="round"/>
<path d="M8.20619 7.16216C8.20619 7.16216 7.95109 4.66016 7.78919 3.38116C7.62779 2.10216 6.61548 1.63916 6.61548 1.63916" fill="#99BB44"/>
<path d="M8.20619 7.16216C8.20619 7.16216 7.95109 4.66016 7.78919 3.38116C7.62779 2.10216 6.61548 1.63916 6.61548 1.63916" stroke="#1E212B" stroke-width="0.5" stroke-miterlimit="10" stroke-linecap="round" stroke-linejoin="round"/>
<path d="M4.55542 2.28711C4.68251 2.47711 4.80522 2.69711 4.90575 2.94811C5.29295 3.91511 5.69531 5.36711 5.69531 5.36711" fill="#99BB44"/>
<path d="M4.55542 2.28711C4.68251 2.47711 4.80522 2.69711 4.90575 2.94811C5.29295 3.91511 5.69531 5.36711 5.69531 5.36711" stroke="#1E212B" stroke-width="0.5" stroke-miterlimit="10" stroke-linecap="round" stroke-linejoin="round"/>
<path d="M3.79657 1.46094C3.79657 1.46094 3.89527 1.53194 4.04005 1.67094L3.79657 1.46094Z" fill="#99BB44"/>
<path d="M3.79657 1.46094C3.79657 1.46094 3.89527 1.53194 4.04005 1.67094" stroke="#1E212B" stroke-width="0.5" stroke-miterlimit="10" stroke-linecap="round" stroke-linejoin="round"/>
<path d="M9.47169 10.8532C9.03869 10.9322 8.60039 10.9662 8.23629 10.8982C7.05296 10.6782 5.8465 10.0122 5.8465 10.0122" fill="#99BB44"/>
<path d="M9.47169 10.8532C9.03869 10.9322 8.60039 10.9662 8.23629 10.8982C7.05296 10.6782 5.8465 10.0122 5.8465 10.0122" stroke="#1E212B" stroke-width="0.5" stroke-miterlimit="10" stroke-linecap="round" stroke-linejoin="round"/>
<path d="M11.3892 10.2661C11.3892 10.2661 10.8355 10.5061 10.1385 10.6981L11.3892 10.2661Z" fill="#99BB44"/>
<path d="M11.3892 10.2661C11.3892 10.2661 10.8355 10.5061 10.1385 10.6981" stroke="#1E212B" stroke-width="0.5" stroke-miterlimit="10" stroke-linecap="round" stroke-linejoin="round"/>
<path d="M5.75195 8.30006C5.48696 8.29106 5.22182 8.25406 4.97177 8.17606C3.63179 7.76106 2.93958 7.28906 2.93958 7.28906" fill="#99BB44"/>
<path d="M5.75195 8.30006C5.48696 8.29106 5.22182 8.25406 4.97177 8.17606C3.63179 7.76106 2.93958 7.28906 2.93958 7.28906" stroke="#1E212B" stroke-width="0.5" stroke-miterlimit="10" stroke-linecap="round" stroke-linejoin="round"/>
<path d="M8.05843 7.85107C8.05843 7.85107 7.30109 8.17207 6.40094 8.27207L8.05843 7.85107Z" fill="#99BB44"/>
<path d="M8.05843 7.85107C8.05843 7.85107 7.30109 8.17207 6.40094 8.27207" stroke="#1E212B" stroke-width="0.5" stroke-miterlimit="10" stroke-linecap="round" stroke-linejoin="round"/>
<path d="M11.1241 12.988C10.7837 12.993 10.4413 12.961 10.1135 12.874L11.1241 12.988Z" fill="#99BB44"/>
<path d="M11.1241 12.988C10.7837 12.993 10.4413 12.961 10.1135 12.874" stroke="#1E212B" stroke-width="0.5" stroke-miterlimit="10" stroke-linecap="round" stroke-linejoin="round"/>
<path d="M14.0658 12.2192C14.0658 12.2192 13.0309 12.7512 11.8099 12.9302L14.0658 12.2192Z" fill="#99BB44"/>
<path d="M14.0658 12.2192C14.0658 12.2192 13.0309 12.7512 11.8099 12.9302" stroke="#1E212B" stroke-width="0.5" stroke-miterlimit="10" stroke-linecap="round" stroke-linejoin="round"/>
</svg>
