<svg width="11" height="19" viewBox="0 0 11 19" fill="none" xmlns="http://www.w3.org/2000/svg">
<path d="M7.83433 2.87809L8.97793 6.47609C9.02533 6.62499 8.94423 6.78419 8.79693 6.83209C8.64963 6.87999 8.49133 6.79749 8.44453 6.64919L7.46443 3.56449C6.96143 4.50619 6.49463 5.43729 6.06353 6.35179L7.43363 10.1742C7.48643 10.3214 7.41063 10.4836 7.26553 10.537C7.11973 10.5898 6.96013 10.5109 6.90643 10.3672L5.72593 7.07409C5.19583 8.23509 4.72453 9.36039 4.30213 10.4384C4.30633 10.4488 4.31223 10.4585 4.31483 10.4697L5.14183 13.8284C5.17943 13.9803 5.08763 14.1337 4.93783 14.1715C4.78743 14.2094 4.63493 14.1151 4.59813 13.9654L3.95323 11.3475C2.93533 14.0604 2.25433 16.4045 1.82483 18.0872C3.33263 16.8518 7.58773 13.2383 9.41113 10.3636C11.3751 7.26719 9.83123 1.51779 9.42733 0.166992C8.86103 1.07309 8.32973 1.97919 7.83433 2.87809Z" fill="#446622"/>
<path d="M2.91116 12.5767L1.39636 13.8024C1.27576 13.9002 1.09916 13.8807 1.00226 13.7583C0.903763 13.6378 0.924665 13.4581 1.04586 13.3602L3.20906 11.6095C3.22696 11.5948 3.24776 11.5879 3.26776 11.5788C3.72876 10.3243 4.26316 8.9867 4.87746 7.595L1.98246 8.7846C1.83956 8.844 1.67506 8.7746 1.61726 8.629C1.55886 8.4839 1.62776 8.3189 1.77126 8.26L5.05836 6.9089C5.10236 6.8909 5.14716 6.8888 5.19146 6.8935C5.75136 5.664 6.37666 4.397 7.06806 3.113L3.91776 4.3904C3.77406 4.4482 3.61246 4.3791 3.55286 4.233C3.49516 4.0879 3.56516 3.9234 3.70866 3.8644L7.36226 2.383C7.39926 2.3679 7.43866 2.3617 7.47816 2.3634C7.91516 1.5792 8.37816 0.7899 8.86696 0C7.31596 0.4611 2.34966 2.2938 0.733464 7.2312C-0.966836 12.4253 0.763862 17.2517 1.19126 18.3072C1.54686 16.8764 2.09946 14.8979 2.91116 12.5767Z" fill="#446622"/>
</svg>
