<svg width="16" height="21" viewBox="0 0 16 21" fill="none" xmlns="http://www.w3.org/2000/svg">
<path d="M15.3221 19.3623L13.7261 16.1952C13.7261 16.1952 14.763 10.8436 13.261 8.47671C11.76 6.10991 7.38006 1.68893 5.28806 0.838153C3.19506 -0.0126271 1.03306 0.865453 0.601059 2.10258C0.169059 3.3397 1.20205 6.36383 2.19905 8.80751C3.19505 11.2517 5.77606 15.2734 7.84006 16.014C9.90406 16.7547 10.8371 16.0898 12.0811 16.8165C13.3221 17.5425 16.0821 21.5754 15.3221 19.3623Z" fill="#446622" stroke="#1E212B" stroke-miterlimit="10" stroke-linecap="round" stroke-linejoin="round"/>
<path d="M3.78105 4.91596C2.56405 2.79058 2.14105 2.63037 2.14105 2.63037" stroke="#1E212B" stroke-width="0.5" stroke-miterlimit="10" stroke-linecap="round" stroke-linejoin="round"/>
<path d="M13.9201 18.236C13.9201 18.236 5.82708 8.23948 4.12708 5.50928" stroke="#1E212B" stroke-width="0.5" stroke-miterlimit="10" stroke-linecap="round" stroke-linejoin="round"/>
<path d="M11.2461 8.30606C10.9191 7.12581 10.6941 6.53174 10.6941 6.53174" stroke="#1E212B" stroke-width="0.5" stroke-miterlimit="10" stroke-linecap="round" stroke-linejoin="round"/>
<path d="M12.6021 15.2517C12.6021 15.2517 11.7161 14.3721 11.4741 13.7776C11.2421 13.207 11.7301 10.5093 11.4181 8.96875" stroke="#1E212B" stroke-width="0.5" stroke-miterlimit="10" stroke-linecap="round" stroke-linejoin="round"/>
<path d="M9.27209 6.19824C9.27209 6.19824 8.99709 9.02573 8.98309 9.83273C8.96909 10.6397 8.95209 11.2176 9.09509 11.4375C9.23909 11.6567 10.2151 12.7702 10.2151 12.7702" stroke="#1E212B" stroke-width="0.5" stroke-miterlimit="10" stroke-linecap="round" stroke-linejoin="round"/>
<path d="M6.72906 8.28897C6.72906 8.28897 7.24307 5.82756 7.47507 4.55996C7.70807 3.29244 6.88406 2.53955 6.88406 2.53955" stroke="#1E212B" stroke-width="0.5" stroke-miterlimit="10" stroke-linecap="round" stroke-linejoin="round"/>
<path d="M4.72607 2.52051C4.79007 2.74039 4.84006 2.98828 4.86006 3.25817C4.93606 4.29855 4.88107 5.8054 4.88107 5.8054" stroke="#1E212B" stroke-width="0.5" stroke-miterlimit="10" stroke-linecap="round" stroke-linejoin="round"/>
<path d="M4.25409 1.5C4.25409 1.5 4.32708 1.59832 4.42308 1.77533" stroke="#1E212B" stroke-width="0.5" stroke-miterlimit="10" stroke-linecap="round" stroke-linejoin="round"/>
<path d="M6.81805 12.1938C6.38205 12.1358 5.95405 12.0326 5.62805 11.8556C4.56805 11.2811 3.62006 10.2749 3.62006 10.2749" stroke="#1E212B" stroke-width="0.5" stroke-miterlimit="10" stroke-linecap="round" stroke-linejoin="round"/>
<path d="M8.82106 12.2271C8.82106 12.2271 8.22206 12.2846 7.50006 12.2528" stroke="#1E212B" stroke-width="0.5" stroke-miterlimit="10" stroke-linecap="round" stroke-linejoin="round"/>
<path d="M4.04811 8.61549C3.79811 8.52479 3.55712 8.40769 3.34212 8.25679C2.19212 7.44839 1.67511 6.78467 1.67511 6.78467" stroke="#1E212B" stroke-width="0.5" stroke-miterlimit="10" stroke-linecap="round" stroke-linejoin="round"/>
<path d="M6.38011 8.89896C6.38011 8.89896 5.56211 8.97116 4.67511 8.78906" stroke="#1E212B" stroke-width="0.5" stroke-miterlimit="10" stroke-linecap="round" stroke-linejoin="round"/>
<path d="M7.7471 14.7363C7.4211 14.6364 7.10509 14.5005 6.81909 14.3164" stroke="#1E212B" stroke-width="0.5" stroke-miterlimit="10" stroke-linecap="round" stroke-linejoin="round"/>
<path d="M10.78 14.912C10.78 14.912 9.63405 15.0993 8.41705 14.8936" stroke="#1E212B" stroke-width="0.5" stroke-miterlimit="10" stroke-linecap="round" stroke-linejoin="round"/>
</svg>
