<svg width="27" height="27" viewBox="0 0 27 27" fill="none" xmlns="http://www.w3.org/2000/svg">
<path d="M16.2982 17.7888C16.2982 17.7888 18.4882 17.6217 19.8782 18.2897C21.2682 18.9567 22.7422 20.7197 23.7212 19.9017C24.7012 19.0827 25.5452 15.7148 25.6252 14.8158C25.7062 13.9168 24.2482 11.9748 21.7792 11.2108C19.3102 10.4468 18.1152 9.61475 18.1152 9.61475C18.1152 9.61475 15.0202 15.8628 16.2982 17.7888Z" fill="#D4D4D4" stroke="#1E212B" stroke-miterlimit="10"/>
<path d="M18.0522 17.9001C18.0522 17.9001 17.8672 16.3911 17.9422 15.5461C18.0182 14.7001 18.7752 13.3821 18.7752 13.3821L19.0322 11.7001L19.3572 10.4501L16.5472 8.49512L15.0632 17.9531L18.0522 17.9001Z" fill="#1E212B" stroke="#1E212B" stroke-miterlimit="10" stroke-linecap="round" stroke-linejoin="round"/>
<path d="M5.35722 2.31384C5.35722 2.31384 -0.0147776 5.63984 0.540222 15.6568C1.09622 25.6738 9.61022 25.7088 11.8002 25.5418C13.9892 25.3748 15.4412 23.3298 15.6842 22.6268C15.9282 21.9238 15.6812 20.6328 15.7612 19.7338C15.8422 18.8348 15.8742 18.4748 16.2982 17.7878C16.7222 17.1008 16.4742 15.8098 16.7032 15.2878C16.9302 14.7638 16.0832 16.1378 16.9302 14.7638C17.7782 13.3898 17.8582 12.4908 17.7592 11.5758C17.6592 10.6608 18.1152 9.61384 18.1152 9.61384L18.7832 8.22385C18.7832 8.22385 19.4802 4.47984 16.9112 2.80084C14.3432 1.12284 9.11022 -1.15616 5.35722 2.31384Z" fill="#D4D4D4" stroke="#1E212B" stroke-miterlimit="10"/>
<path d="M18.1163 9.6149C18.1163 9.6149 16.4422 8.4839 15.0862 8.1499" stroke="#1E212B" stroke-miterlimit="10" stroke-linecap="round" stroke-linejoin="round"/>
<path d="M10.2412 19.4409C10.2412 19.4409 12.2222 19.9369 13.4232 19.6179" stroke="#1E212B" stroke-miterlimit="10" stroke-linecap="round" stroke-linejoin="round"/>
<path d="M10.8972 2.55487C10.8972 2.55487 14.3372 2.22188 16.5602 4.76488" stroke="#1E212B" stroke-miterlimit="10" stroke-linecap="round" stroke-linejoin="round"/>
<path d="M16.7022 15.2881C16.7022 15.2881 15.1362 15.9351 13.3482 15.6681" stroke="#1E212B" stroke-miterlimit="10" stroke-linecap="round" stroke-linejoin="round"/>
</svg>
