<svg width="29" height="25" viewBox="0 0 29 25" fill="none" xmlns="http://www.w3.org/2000/svg">
<path d="M0.785156 16.3924C0.785156 16.3924 1.57317 19.4294 3.63617 21.1484C5.70017 22.8674 10.7432 24.5874 17.3912 23.3264C24.0402 22.0654 27.3642 16.7924 27.9372 12.8954C28.5102 8.9974 26.6762 3.9544 24.1542 3.0374C21.6322 2.1214 0.785156 16.3924 0.785156 16.3924Z" fill="#D4D4D4" stroke="#1E212B" stroke-miterlimit="10"/>
<path d="M20.3062 1.77912C20.3062 1.77912 10.1842 4.84912 5.72517 8.41012C1.26717 11.9711 -0.178834 14.6721 0.785166 16.3921C1.74917 18.1111 4.27918 18.9701 5.12318 18.9701C5.96718 18.9701 11.2682 18.4791 11.2682 18.4791C11.2682 18.4791 13.5572 18.2341 14.4012 17.8651C15.2442 17.4971 17.8952 16.1461 17.8952 16.1461L19.7032 15.2871L21.0292 14.6721L22.7162 12.7081C22.7162 12.7081 25.6082 10.0061 25.6082 8.90111C25.6082 7.79611 26.0902 6.20012 25.9692 5.83112C25.8492 5.46312 25.1262 3.98911 25.1262 3.98911C25.1262 3.98911 23.6792 1.41112 20.3062 1.77912Z" fill="#1E212B" stroke="#1E212B" stroke-miterlimit="10"/>
<path d="M5.24213 4.64232C5.24213 4.64232 6.73214 8.76932 8.33614 11.4053C9.94114 14.0413 10.7431 14.2713 11.6601 14.2713C12.5771 14.2713 14.1821 14.0423 15.3281 12.6663C16.4751 11.2903 16.7041 10.3743 16.4751 8.99832C16.2451 7.62332 14.0801 1.88232 14.0801 1.88232L5.24213 4.64232Z" fill="#D4D4D4" stroke="#1E212B" stroke-miterlimit="10"/>
<path d="M9.81118 0.776124C9.81118 0.776124 6.17518 1.72512 5.22718 3.30612C4.27818 4.88612 6.80719 5.51913 8.38919 5.36113C9.97019 5.20313 14.0812 3.46413 14.0812 1.88213C14.0802 0.302126 10.9182 0.302124 9.81118 0.776124Z" fill="#D4D4D4" stroke="#1E212B" stroke-miterlimit="10"/>
<path d="M9.82617 10.4883C9.82617 10.4883 10.7432 12.4373 11.6602 13.3543L9.82617 10.4883Z" fill="#D4D4D4"/>
<path d="M9.82617 10.4883C9.82617 10.4883 10.7432 12.4373 11.6602 13.3543" stroke="#1E212B" stroke-miterlimit="10"/>
<path d="M14.4112 9.68652L15.4432 11.6355" stroke="#1E212B" stroke-miterlimit="10"/>
<path d="M7.99213 7.2793L8.90913 8.88329" stroke="#1E212B" stroke-miterlimit="10"/>
<path d="M21.0281 14.6724C21.0281 14.6724 21.7461 15.9904 21.1731 18.2824L21.0281 14.6724Z" fill="#D4D4D4"/>
<path d="M21.0281 14.6724C21.0281 14.6724 21.7461 15.9904 21.1731 18.2824" stroke="#1E212B" stroke-miterlimit="10"/>
<path d="M25.3002 10.1455L25.6442 11.9795" stroke="#1E212B" stroke-miterlimit="10"/>
<path d="M7.41913 20.4614C7.41913 20.4614 8.10714 21.8364 9.59714 22.2944L7.41913 20.4614Z" fill="#D4D4D4"/>
<path d="M7.41913 20.4614C7.41913 20.4614 8.10714 21.8364 9.59714 22.2944" stroke="#1E212B" stroke-miterlimit="10"/>
</svg>
