<svg width="25" height="22" viewBox="0 0 25 22" fill="none" xmlns="http://www.w3.org/2000/svg">
<path d="M24.1442 7.47873C24.1442 7.47873 23.6262 4.83473 21.9452 3.25373C20.2662 1.67273 16.0312 -0.0622695 10.2667 0.67473C4.50232 1.41073 1.37962 5.75973 0.686524 9.07073C-0.00657603 12.3817 1.30442 16.8007 3.41892 17.7177C5.53272 18.6337 24.1442 7.47873 24.1442 7.47873Z" fill="#D4D4D4" stroke="#1E212B" stroke-miterlimit="10"/>
<path d="M6.65266 18.9946C6.65266 18.9946 15.4888 16.8876 19.4953 14.0656C23.5013 11.2436 24.8813 9.00257 24.1433 7.47857C23.4063 5.95557 21.2823 5.08757 20.5593 5.04357C19.8353 5.00057 15.265 5.14657 15.265 5.14657C15.265 5.14657 13.2895 5.23856 12.5473 5.51056C11.805 5.78256 9.46225 6.80257 9.46225 6.80257L7.86805 7.44657L6.69985 7.90456L5.15166 9.50057C5.15166 9.50057 2.53276 11.6666 2.47536 12.6146C2.41796 13.5626 1.92256 14.9056 2.00666 15.2276C2.09086 15.5496 2.63416 16.8506 2.63416 16.8506C2.63416 16.8506 3.74176 19.1356 6.65266 18.9946Z" fill="#1E212B" stroke="#1E212B" stroke-miterlimit="10"/>
<path d="M19.7153 17.3207C19.7153 17.3207 18.6513 13.7057 17.4123 11.3627C16.1733 9.01966 15.497 8.78166 14.7108 8.73466C13.9245 8.68766 12.537 8.80066 11.4829 9.92066C10.4288 11.0407 10.1853 11.8147 10.3102 13.0057C10.4359 14.1967 11.9943 19.2297 11.9943 19.2297L19.7153 17.3207Z" fill="#D4D4D4" stroke="#1E212B" stroke-miterlimit="10"/>
<path d="M15.597 20.3986C15.597 20.3986 18.7633 19.7736 19.6593 18.4676C20.5543 17.1606 18.4183 16.4876 17.0543 16.5416C15.6914 16.5946 12.0771 17.8726 11.9955 19.2286C11.9139 20.5846 14.624 20.7486 15.597 20.3986Z" fill="#D4D4D4" stroke="#1E212B" stroke-miterlimit="10"/>
<path d="M16.0872 12.0715C16.0872 12.0715 15.402 10.3535 14.6635 9.52051L16.0872 12.0715Z" fill="#D4D4D4"/>
<path d="M16.0872 12.0715C16.0872 12.0715 15.402 10.3535 14.6635 9.52051" stroke="#1E212B" stroke-miterlimit="10"/>
<path d="M12.1152 12.5224L11.3315 10.7974" stroke="#1E212B" stroke-miterlimit="10"/>
<path d="M17.4932 14.9176L16.7902 13.4946" stroke="#1E212B" stroke-miterlimit="10"/>
<path d="M6.70124 7.90475C6.70124 7.90475 6.15344 6.73776 6.76304 4.80176L6.70124 7.90475Z" fill="#D4D4D4"/>
<path d="M6.70124 7.90475C6.70124 7.90475 6.15344 6.73776 6.76304 4.80176" stroke="#1E212B" stroke-miterlimit="10"/>
<path d="M2.80421 11.5656L2.604 9.97461" stroke="#1E212B" stroke-miterlimit="10"/>
<path d="M18.6673 3.6474C18.6673 3.6474 18.1483 2.4324 16.8953 1.9624L18.6673 3.6474Z" fill="#D4D4D4"/>
<path d="M18.6673 3.6474C18.6673 3.6474 18.1483 2.4324 16.8953 1.9624" stroke="#1E212B" stroke-miterlimit="10"/>
</svg>
