<svg width="26" height="27" viewBox="0 0 26 27" fill="none" xmlns="http://www.w3.org/2000/svg">
<path d="M8.79753 16.6454C8.79753 16.6454 9.15753 18.8114 8.61653 20.2554C8.07553 21.7004 6.45052 23.3244 7.35252 24.2274C8.25452 25.1294 11.6845 25.6714 12.5875 25.6714C13.4895 25.6714 15.2945 24.0464 15.8365 21.5194C16.3775 18.9924 17.0995 17.7284 17.0995 17.7284C17.0995 17.7284 10.6015 15.2014 8.79753 16.6454Z" fill="#D4D4D4" stroke="#1E212B" stroke-miterlimit="10"/>
<path d="M8.84149 18.4012C8.84149 18.4012 10.3285 18.0832 11.1775 18.0832C12.0265 18.0832 13.4065 18.7202 13.4065 18.7202L15.1045 18.8262L16.3785 19.0392L18.0765 16.0672L8.5235 15.4302L8.84149 18.4012Z" fill="#1E212B" stroke="#1E212B" stroke-miterlimit="10" stroke-linecap="round" stroke-linejoin="round"/>
<path d="M23.2375 4.37015C23.2375 4.37015 19.4465 -0.683862 9.5185 0.759138C-0.409505 2.20414 0.312495 10.6871 0.673495 12.8531C1.03449 15.0201 3.2005 16.2831 3.9225 16.4641C4.6445 16.6451 5.9085 16.2831 6.8105 16.2831C7.7125 16.2831 8.0745 16.2831 8.7965 16.6441C9.5185 17.0051 10.7815 16.6441 11.3235 16.8251C11.8645 17.0051 10.4205 16.2831 11.8645 17.0051C13.3085 17.7271 14.2115 17.7271 15.1145 17.5471C16.0165 17.3661 17.0995 17.7271 17.0995 17.7271L18.5445 18.2681C18.5445 18.2681 22.3355 18.6291 23.7785 15.9221C25.2235 13.2151 27.0285 7.80015 23.2375 4.37015Z" fill="#D4D4D4" stroke="#1E212B" stroke-miterlimit="10"/>
<path d="M17.0995 17.7281C17.0995 17.7281 18.0765 15.9601 18.2895 14.5801" stroke="#1E212B" stroke-miterlimit="10" stroke-linecap="round" stroke-linejoin="round"/>
<path d="M6.61247 10.7593C6.61247 10.7593 6.29446 12.7763 6.71846 13.9433" stroke="#1E212B" stroke-miterlimit="10" stroke-linecap="round" stroke-linejoin="round"/>
<path d="M23.4905 9.90918C23.4905 9.90918 24.1275 13.3062 21.7925 15.7472" stroke="#1E212B" stroke-miterlimit="10" stroke-linecap="round" stroke-linejoin="round"/>
<path d="M11.3235 16.8251C11.3235 16.8251 10.5405 15.3231 10.6465 13.5181" stroke="#1E212B" stroke-miterlimit="10" stroke-linecap="round" stroke-linejoin="round"/>
</svg>
