<svg width="30" height="29" viewBox="0 0 30 29" fill="none" xmlns="http://www.w3.org/2000/svg">
<path d="M15.1663 24.7197C15.1663 24.7197 15.5563 26.2391 16.5783 27.0991C17.6003 27.9592 20.0973 28.8195 23.3903 28.1885C26.6823 27.5578 28.3283 24.92 28.6123 22.9702C28.8963 21.0205 27.9883 18.4974 26.7393 18.0387C25.4903 17.5803 15.1663 24.7197 15.1663 24.7197Z" fill="#D4D4D4" stroke="#1E212B" stroke-miterlimit="10"/>
<path d="M24.8333 17.4096C24.8333 17.4096 19.8213 18.9453 17.6133 20.7269C15.4053 22.5086 14.6891 23.8599 15.1663 24.7199C15.6433 25.58 16.8963 26.01 17.3143 26.01C17.7323 26.01 20.3573 25.7644 20.3573 25.7644C20.3573 25.7644 21.4913 25.6415 21.9093 25.4572C22.3273 25.2728 23.6393 24.5971 23.6393 24.5971L24.5353 24.1671L25.1913 23.8599L26.0273 22.877C26.0273 22.877 27.4593 21.5254 27.4593 20.9726C27.4593 20.4197 27.6983 19.6213 27.6383 19.4369C27.5783 19.2525 27.2203 18.5153 27.2203 18.5153C27.2203 18.5153 26.5043 17.2255 24.8333 17.4096Z" fill="#1E212B" stroke="#1E212B" stroke-miterlimit="10"/>
<path d="M17.3733 18.8421C17.3733 18.8421 18.1113 20.9064 18.9053 22.2255C19.7003 23.5442 20.0973 23.6591 20.5513 23.6591C21.0063 23.6591 21.8003 23.5445 22.3683 22.8561C22.9363 22.168 23.0493 21.7093 22.9363 21.0212C22.8223 20.3331 21.7503 17.4614 21.7503 17.4614L17.3733 18.8421Z" fill="#D4D4D4" stroke="#1E212B" stroke-miterlimit="10"/>
<path d="M19.6353 16.9078C19.6353 16.9078 17.8353 17.3825 17.3653 18.1733C16.8953 18.9641 18.1483 19.2806 18.9313 19.2015C19.7143 19.1224 21.7503 18.2524 21.7503 17.4613C21.7493 16.6705 20.1833 16.6705 19.6353 16.9078Z" fill="#D4D4D4" stroke="#1E212B" stroke-miterlimit="10"/>
<path d="M19.6433 21.7666C19.6433 21.7666 20.0973 22.7415 20.5513 23.2002L19.6433 21.7666Z" fill="#D4D4D4"/>
<path d="M19.6433 21.7666C19.6433 21.7666 20.0973 22.7415 20.5513 23.2002" stroke="#1E212B" stroke-miterlimit="10"/>
<path d="M21.9143 21.3652L22.4253 22.34" stroke="#1E212B" stroke-miterlimit="10"/>
<path d="M18.7353 20.1611L19.1893 20.9637" stroke="#1E212B" stroke-miterlimit="10"/>
<path d="M25.1913 23.8599C25.1913 23.8599 25.5473 24.519 25.2633 25.6658L25.1913 23.8599Z" fill="#D4D4D4"/>
<path d="M25.1913 23.8599C25.1913 23.8599 25.5473 24.519 25.2633 25.6658" stroke="#1E212B" stroke-miterlimit="10"/>
<path d="M27.3063 21.5947L27.4773 22.5122" stroke="#1E212B" stroke-miterlimit="10"/>
<path d="M18.4513 26.7554C18.4513 26.7554 18.7923 27.4435 19.5293 27.6729L18.4513 26.7554Z" fill="#D4D4D4"/>
<path d="M18.4513 26.7554C18.4513 26.7554 18.7923 27.4435 19.5293 27.6729" stroke="#1E212B" stroke-miterlimit="10"/>
<path d="M12.2092 16.009C12.2092 16.009 11.9525 14.6861 11.1204 13.8953C10.2886 13.1045 8.19139 12.2365 5.33669 12.6049C2.48199 12.9734 0.935594 15.1487 0.592394 16.8053C0.249094 18.4618 0.89839 20.6722 1.94549 21.131C2.99229 21.5894 12.2092 16.009 12.2092 16.009Z" fill="#D4D4D4" stroke="#1E212B" stroke-miterlimit="10"/>
<path d="M3.54677 21.7702C3.54677 21.7702 7.92258 20.7158 9.90668 19.3039C11.8908 17.8923 12.5738 16.7711 12.2088 16.009C11.8437 15.2469 10.7915 14.8127 10.4334 14.7907C10.0753 14.769 7.81177 14.842 7.81177 14.842C7.81177 14.842 6.83347 14.888 6.46587 15.0242C6.09827 15.1604 4.93807 15.6708 4.93807 15.6708L4.14867 15.9927L3.57007 16.2217L2.80337 17.0205C2.80337 17.0205 1.50647 18.1041 1.47807 18.5781C1.44957 19.0522 1.20427 19.7244 1.24597 19.8855C1.28757 20.0466 1.55667 20.6974 1.55667 20.6974C1.55667 20.6974 2.10517 21.8407 3.54677 21.7702Z" fill="#1E212B" stroke="#1E212B" stroke-miterlimit="10"/>
<path d="M10.0161 20.9326C10.0161 20.9326 9.48932 19.1241 8.87552 17.9521C8.26192 16.7797 7.92722 16.6607 7.53782 16.6371C7.14842 16.6135 6.46133 16.6703 5.93933 17.2305C5.41733 17.7907 5.29673 18.1779 5.35863 18.7738C5.42083 19.3697 6.19253 21.8877 6.19253 21.8877L10.0161 20.9326Z" fill="#D4D4D4" stroke="#1E212B" stroke-miterlimit="10"/>
<path d="M7.97678 22.4726C7.97678 22.4726 9.54497 22.16 9.98837 21.5064C10.4318 20.8527 9.37388 20.5162 8.69868 20.543C8.02358 20.5698 6.23368 21.209 6.19328 21.8872C6.15288 22.5655 7.49488 22.6474 7.97678 22.4726Z" fill="#D4D4D4" stroke="#1E212B" stroke-miterlimit="10"/>
<path d="M8.21979 18.3066C8.21979 18.3066 7.88029 17.4472 7.51459 17.0303L8.21979 18.3066Z" fill="#D4D4D4"/>
<path d="M8.21979 18.3066C8.21979 18.3066 7.88029 17.4472 7.51459 17.0303" stroke="#1E212B" stroke-miterlimit="10"/>
<path d="M6.25242 18.532L5.86432 17.6694" stroke="#1E212B" stroke-miterlimit="10"/>
<path d="M8.91568 19.7306L8.56738 19.0186" stroke="#1E212B" stroke-miterlimit="10"/>
<path d="M3.57098 16.2219C3.57098 16.2219 3.29968 15.6381 3.60158 14.6699L3.57098 16.2219Z" fill="#D4D4D4"/>
<path d="M3.57098 16.2219C3.57098 16.2219 3.29968 15.6381 3.60158 14.6699" stroke="#1E212B" stroke-miterlimit="10"/>
<path d="M1.64109 18.0534L1.54199 17.2578" stroke="#1E212B" stroke-miterlimit="10"/>
<path d="M9.49668 14.0923C9.49668 14.0923 9.23998 13.4846 8.61908 13.2495L9.49668 14.0923Z" fill="#D4D4D4"/>
<path d="M9.49668 14.0923C9.49668 14.0923 9.23998 13.4846 8.61908 13.2495" stroke="#1E212B" stroke-miterlimit="10"/>
<path d="M24.0633 3.02808C24.0633 3.02808 23.4443 2.04748 22.7183 1.55548C21.9913 1.06358 20.6373 1.03648 20.6373 1.03648C20.6373 1.03648 19.5633 0.229085 18.2503 0.595285C16.9373 0.961885 16.4193 1.17588 15.4903 2.10418C14.5627 3.03248 14.3906 3.65358 14.3906 3.65358C14.3906 3.65358 12.7239 5.05818 13.2247 7.82588C13.7255 10.5933 16.5583 12.7274 18.2903 13.6813C20.0213 14.6354 23.0063 13.6711 24.5583 12.4608C26.1103 11.2501 26.6123 9.03619 26.6123 9.03619C26.6123 9.03619 27.0153 7.27628 26.5503 5.83558C26.0853 4.39498 24.6863 3.16678 24.0633 3.02808Z" fill="#99BB44" stroke="#1E212B" stroke-miterlimit="10" stroke-linecap="round" stroke-linejoin="round"/>
<path d="M24.4533 5.80762C24.4533 5.80762 25.5963 6.30082 26.0433 7.24282" stroke="#1E212B" stroke-miterlimit="10" stroke-linecap="round" stroke-linejoin="round"/>
<path d="M22.3683 5.89209C22.3683 5.89209 23.1953 7.24879 22.7403 8.17259" stroke="#1E212B" stroke-miterlimit="10" stroke-linecap="round" stroke-linejoin="round"/>
<path d="M20.9783 4.86713C20.9783 4.86713 20.1273 4.36593 18.7523 5.43273" stroke="#1E212B" stroke-miterlimit="10" stroke-linecap="round" stroke-linejoin="round"/>
<path d="M18.7853 1.96065C18.7853 1.96065 20.1753 1.90455 20.9113 3.68045" stroke="#1E212B" stroke-miterlimit="10" stroke-linecap="round" stroke-linejoin="round"/>
<path opacity="0.56" d="M22.4673 6.84812C22.4673 6.84812 22.2483 6.35972 21.9293 6.32492C21.6103 6.29052 21.6893 6.17982 21.4713 5.92972C21.2543 5.67992 21.1693 5.40432 20.9583 5.54052C20.7473 5.67672 21.0473 5.96322 20.7473 5.67672C20.4483 5.39022 20.4573 5.26392 20.1823 5.44062C19.9083 5.61742 19.7333 5.67002 19.8163 6.03652C19.8993 6.40312 20.8333 6.61142 21.2983 6.97152C21.7633 7.33172 21.7523 7.54892 21.8583 7.81082C21.9643 8.07242 22.3773 8.25622 22.6093 7.77672C22.8403 7.29762 22.4673 6.84812 22.4673 6.84812Z" fill="white"/>
<path opacity="0.56" d="M25.5183 7.07121C25.5183 7.07121 25.1973 6.46831 24.5483 6.28681C23.8983 6.10521 24.0033 6.45811 23.9583 6.57671C23.9143 6.69511 23.6603 6.19871 23.3593 6.33301C23.0583 6.46731 22.9583 6.59141 23.0083 6.85911C23.0583 7.12671 23.0773 8.28471 23.2483 8.08471C23.4183 7.88471 23.6023 7.37621 23.8863 7.40301C24.1713 7.42971 24.5813 8.78521 24.8583 8.84681C25.1353 8.90831 25.7033 8.63241 25.9193 8.22281C26.1363 7.81321 25.5183 7.07121 25.5183 7.07121Z" fill="white"/>
<path opacity="0.56" d="M21.1113 1.69155C21.1113 1.69155 20.6143 1.14125 20.2483 1.07785C19.8813 1.01435 19.2303 1.25355 19.3383 1.42425C19.4453 1.59495 20.6793 2.41955 20.7953 2.55515C20.9103 2.69075 21.2743 2.93665 21.3753 2.72135C21.4773 2.50605 21.5873 2.16435 21.7033 2.29995C21.8183 2.43545 22.3603 2.77615 22.4393 2.99535C22.5183 3.21455 22.4423 3.56385 22.8643 3.62125C23.2873 3.67895 23.5083 4.07615 23.4033 4.14445C23.2973 4.21235 23.7083 4.48735 24.0733 4.64205C24.4383 4.79675 24.5583 5.07975 25.0903 5.54675C25.6233 6.01345 26.2783 6.91085 26.3453 6.68785C26.4123 6.46455 26.1023 5.31485 25.6323 4.80695C25.1633 4.29945 24.5943 3.91605 24.3903 3.68725C24.1873 3.45855 23.6693 2.92195 23.1793 2.42785C22.6893 1.93375 22.4813 1.55795 22.0223 1.58375C21.5643 1.60955 21.1113 1.69155 21.1113 1.69155Z" fill="white"/>
<path opacity="0.56" d="M19.9173 4.41086C19.9173 4.41086 18.8493 3.98936 18.4113 4.00156C17.9743 4.01366 17.3283 3.64996 17.7753 3.18166C18.2213 2.71366 18.8263 2.68376 18.8263 2.68376C18.8263 2.68376 18.5933 2.17396 19.0143 2.32256C19.4343 2.47126 20.3683 3.00946 20.2863 3.30256C20.2043 3.59576 20.0433 3.66946 20.0433 3.66946C20.0433 3.66946 20.7923 4.05636 20.4473 4.30906C20.1023 4.56166 19.9173 4.41086 19.9173 4.41086Z" fill="white"/>
<path d="M23.0203 4.81032C23.0203 4.81032 23.1253 4.41252 23.4013 4.14462C23.6773 3.87662 24.9443 3.06002 24.9443 3.06002C24.9443 3.06002 24.0173 3.23763 23.6613 3.28683C23.3063 3.33593 22.8633 3.62142 22.8633 3.62142C22.8633 3.62142 22.6653 3.77872 22.5893 3.79842C22.5123 3.81792 22.4143 3.85112 22.3063 3.68042C22.1993 3.50982 22.1483 2.91262 22.1483 2.91262C22.1483 2.91262 22.1053 2.61022 22.0633 2.30742C22.0203 2.00502 22.0213 1.58393 22.0213 1.58393L22.1823 1.18012L22.3893 0.896524L22.9803 0.515625C22.9803 0.515625 21.7883 0.744024 21.6433 1.40782C21.4973 2.07142 21.6063 2.57192 21.6063 2.57192L21.7163 3.31072L21.5073 3.68522L21.1383 3.05332L20.7943 2.55532L20.7333 2.08412L20.9523 1.58332C20.9523 1.58332 21.3443 1.02982 21.3943 0.967924C21.4443 0.905724 20.3583 1.72592 20.4923 2.36012C20.6253 2.99422 20.7603 3.20732 20.8133 3.29282C20.8673 3.37802 20.8923 3.51203 20.9103 3.68073C20.9273 3.84953 20.9143 4.15802 20.9143 4.15802C20.9143 4.15802 20.8213 4.33853 20.9543 4.64293C21.0863 4.94723 21.4813 5.38332 21.4813 5.38332C21.4813 5.38332 21.8313 5.93772 22.2303 5.77022C22.6293 5.60272 22.6643 5.61042 22.8253 5.53672C22.9863 5.46272 22.9953 5.33672 23.2873 5.32872C23.5793 5.32042 23.6963 5.36512 23.6963 5.36512L24.2463 5.67072C24.2463 5.67072 24.4713 5.88572 24.8203 5.45092C25.1693 5.01582 25.2573 4.77913 25.2573 4.77913C25.2573 4.77913 25.3433 4.30382 25.2543 4.21062C25.1663 4.11752 24.7473 3.87762 24.7473 3.87762C24.7473 3.87762 25.2913 4.12702 25.0223 4.69012C24.7543 5.25312 24.6393 5.44712 24.2343 5.22862C23.8283 5.01002 23.6363 4.89363 23.4853 4.84163C23.3333 4.78873 23.0203 4.81032 23.0203 4.81032Z" fill="#B0B0B0" stroke="#1E212B" stroke-miterlimit="10" stroke-linecap="round" stroke-linejoin="round"/>
<path d="M21.1943 5.11752C21.1943 5.11752 21.1743 4.38022 21.5493 3.98822C21.9253 3.59582 23.1783 2.42822 23.1783 2.42822C23.1783 2.42822 21.6083 3.47012 21.2463 3.88392C20.8833 4.29762 21.0453 4.55352 20.9533 4.64282C20.8613 4.73182 21.1943 5.11752 21.1943 5.11752Z" fill="#1E212B" stroke="#1E212B" stroke-miterlimit="10" stroke-linecap="round" stroke-linejoin="round"/>
<path d="M22.0043 5.22503C22.0043 5.22503 22.6273 4.61323 22.7943 4.26583C22.9613 3.91843 22.8913 3.57323 22.5883 3.79843C22.2853 4.02403 21.9933 4.36183 21.7483 4.49003C21.5023 4.61833 21.3143 4.64953 21.3933 4.86873C21.4723 5.08793 21.7833 5.15743 22.0043 5.22503Z" fill="#1E212B" stroke="#1E212B" stroke-miterlimit="10" stroke-linecap="round" stroke-linejoin="round"/>
</svg>
