<svg width="80" height="163" viewBox="0 0 80 163" fill="none" xmlns="http://www.w3.org/2000/svg">
<path d="M46.8612 30.549C46.8612 30.549 50.9582 24.5499 53.0062 27.1834C55.0542 29.8169 55.6392 31.4264 55.6392 31.4264C55.6392 31.4264 61.0532 23.2331 61.4922 27.1834C61.9312 31.1337 58.1272 34.4993 57.6882 36.5474C57.2492 38.5956 60.6142 39.4737 59.5902 40.7904C58.5662 42.1072 55.9322 42.2539 55.0542 43.8633C54.1762 45.4728 45.3972 57.1777 44.5192 60.1039C43.6412 63.0301 45.8362 64.7863 45.5432 66.9805C45.2512 69.1753 43.6412 68.1512 43.3492 69.7607C43.0562 71.3701 44.2272 72.6869 43.0562 74.8817C41.8852 77.0766 41.7392 77.2226 41.1542 78.832C40.5682 80.4415 39.9832 80.1488 41.0082 82.4897C42.0322 84.8305 42.4702 84.9772 41.4462 86.8793C40.4222 88.7815 40.2762 91.415 39.9832 92.1464C39.6902 92.8778 41.0072 93.7558 40.1292 94.1946C39.2512 94.6333 38.3732 73.125 38.3732 73.125L38.6662 50.4465L46.8612 30.549Z" fill="#1E212B" stroke="#1E212B" stroke-miterlimit="10"/>
<path d="M42.0332 106.047C42.0332 106.047 43.9352 99.9017 44.3732 95.9517C44.8122 92.0014 47.1542 83.8075 48.6162 78.2477C50.0802 72.6879 63.2482 59.8123 67.4912 54.2519C71.7342 48.6921 79.7812 45.3265 79.1962 44.0098C78.6112 42.693 76.4162 44.4485 75.2462 45.1805C74.0752 45.9119 72.7582 44.8878 72.1732 43.8637C71.5872 42.8397 72.3192 42.2543 69.5392 42.547C66.7592 42.8397 64.1262 44.3031 64.1262 44.3031C64.1262 44.3031 63.2482 45.7665 62.8092 44.7418C62.3702 43.7177 60.6142 43.8637 60.6142 43.8637L58.1262 44.8878L57.5412 45.9119L56.8102 47.2287C56.8102 47.2287 56.3712 44.0098 55.0542 43.8637C53.7372 43.7177 54.3232 45.4732 53.7372 43.7177C53.1522 41.9616 52.5672 42.4009 48.1782 45.4732C43.7882 48.5461 39.3992 51.6183 39.5452 54.8373C39.6912 58.0562 41.3002 59.3729 41.3002 59.3729C41.3002 59.3729 39.2522 60.8364 40.8622 62.0065C42.4712 63.1772 44.5192 65.9568 44.5192 65.9568L45.2512 69.1757C45.2512 69.1757 45.3972 74.7355 45.5432 76.0522C45.6902 77.369 45.1052 85.563 45.1052 85.563C45.1052 85.563 40.7152 103.267 40.5692 104.291C40.4232 105.316 40.7162 107.657 42.0332 106.047Z" fill="#446622" stroke="#1E212B" stroke-miterlimit="10"/>
<path d="M55.0012 51.4287C53.9572 53.5808 52.4292 56.8737 50.8122 60.8368C47.8862 68.006 47.4462 73.127 47.4462 74.7365C47.4462 76.346 47.3002 78.6868 47.3002 78.6868C47.3002 78.6868 48.7642 74.7365 49.3482 71.6636C49.9342 68.5907 50.2262 65.6645 50.2262 65.6645" stroke="#1E212B" stroke-miterlimit="10"/>
<path d="M56.3722 48.6924C56.3722 48.6924 56.1002 49.2063 55.6332 50.1424" stroke="#1E212B" stroke-miterlimit="10"/>
<path d="M39.1062 105.901C39.1062 105.901 35.4492 103.999 34.8632 99.3167C34.2782 94.6344 31.4982 81.4667 27.6942 74.7362C23.8902 68.0057 24.9142 67.4203 20.2322 64.6407C15.5502 61.8605 15.8422 64.0554 11.5992 61.7145C7.3562 59.3737 2.6742 55.4227 2.2352 52.3505C1.7972 49.2776 2.6742 50.0096 2.6742 48.4001C2.6742 46.7907 0.626099 43.2791 0.626099 43.2791C0.626099 43.2791 2.0892 41.8157 2.3812 41.0843C2.6742 40.3529 1.0648 36.5486 3.1132 35.0851C5.1612 33.6224 5.4542 35.3778 6.7702 38.4507C8.0872 41.523 14.0862 45.9126 14.9642 44.5959C15.8422 43.2791 13.3552 40.3529 18.3292 42.401C23.3042 44.4492 26.3772 45.3273 26.0842 47.3754C25.7912 49.4236 27.1082 53.5206 27.1082 53.5206L32.0822 56.5935L31.9362 64.3481C31.9362 64.3481 31.3512 65.6648 30.7662 66.1035C30.1802 66.5422 29.0102 67.2743 29.0102 67.859C29.0102 68.4444 29.0102 71.6633 29.0102 71.6633C29.0102 71.6633 32.8142 69.1758 33.2532 70.7852C33.6922 72.3947 35.0092 75.6136 34.2772 76.0523C33.5462 76.491 31.9362 77.0764 31.4972 77.0764C31.4972 77.0764 34.4232 90.2447 34.8622 90.9761C35.3012 91.7075 36.0332 99.3161 36.4712 100.34C36.9112 101.366 39.1062 105.17 39.1062 105.901Z" fill="#446622" stroke="#1E212B" stroke-miterlimit="10"/>
<path d="M14.0142 56.7285C14.3202 56.9797 14.6372 57.2278 14.9642 57.4713C21.8412 62.5924 26.2302 68.0061 27.4012 71.3711" stroke="#1E212B" stroke-miterlimit="10"/>
<path d="M5.89319 45.3271C5.89319 45.3271 7.41719 50.2046 11.9052 54.7938" stroke="#1E212B" stroke-miterlimit="10"/>
<path d="M38.5212 104.731C38.5212 104.731 36.1802 93.6105 35.1562 86.4413C34.1322 79.2721 32.3762 69.176 27.4012 57.7638C22.4272 46.3509 22.7202 45.3268 19.3542 39.4744C15.9892 33.6219 10.7212 28.0622 11.7462 26.5987C12.7702 25.1353 17.1592 30.2564 17.3052 28.2082C17.4512 26.16 10.7212 15.7713 14.6722 13.7231C18.6222 11.6749 22.5722 21.4777 23.3042 23.5265C24.0362 25.5747 25.7922 23.3805 27.2552 24.2579C28.7172 25.1359 29.5962 29.525 29.0102 33.0366C28.4252 36.5482 30.6202 40.2058 31.3512 44.1567C32.0822 48.107 31.4982 55.2769 32.0822 56.5937C32.6672 57.9104 36.0332 58.6418 36.3252 63.1782C36.6182 67.7139 36.1792 68.4452 36.1792 69.9087C36.1792 71.3721 36.4722 73.713 36.4722 73.713L35.3012 78.5413L37.7892 94.7819C37.7892 94.7819 39.3982 100.196 39.9842 102.244C40.5702 104.292 39.2532 106.34 38.5212 104.731Z" fill="#446622" stroke="#1E212B" stroke-miterlimit="10"/>
<path d="M19.2272 26.2622C21.2492 31.7116 24.0372 39.479 25.3522 44.3029C27.5472 52.3502 27.9862 55.1304 27.9862 55.1304" stroke="#1E212B" stroke-miterlimit="10"/>
<path d="M16.8672 20.0146C16.8672 20.0146 17.6432 22.0181 18.7452 24.966" stroke="#1E212B" stroke-miterlimit="10"/>
<path d="M39.1062 105.901C39.1062 105.901 37.6432 101.073 37.6432 90.2456C37.6432 79.4181 38.2282 71.5175 35.7412 64.787C33.2532 58.0565 30.0342 56.5937 25.2062 50.7406C20.3772 44.8881 25.7912 41.3765 25.6442 39.1817C25.4982 36.9869 23.8892 36.2555 22.4262 31.4271C20.9622 26.5987 28.7172 26.16 29.3022 26.306C29.8872 26.4521 28.8632 22.063 28.8632 21.331C28.8632 20.5996 33.9842 23.3792 34.1302 23.8185C34.2772 24.2572 22.5722 15.9173 24.6202 11.8209C26.6682 7.72396 34.8622 6.40719 36.4712 4.06633C38.0812 1.72548 43.4952 3.62762 45.2502 2.89559C47.0062 2.16419 49.4932 -0.616011 49.7862 0.993449C50.0782 2.6029 47.8842 7.28525 46.4202 11.6743C44.9572 16.0639 44.3722 20.7456 44.3722 20.7456C44.3722 20.7456 46.8592 16.21 48.7622 18.9902C50.6642 21.7704 51.6882 25.428 50.0782 27.4761C48.4692 29.5243 47.8842 32.7432 47.8842 32.7432C47.8842 32.7432 48.6152 34.7914 48.7622 36.5475C48.9082 38.303 49.4932 38.8884 48.7622 39.7664C48.0302 40.6445 47.5912 41.9613 47.1522 42.5466C46.7132 43.132 45.6892 44.7415 45.6892 44.7415C45.6892 44.7415 41.1532 58.0565 41.2992 59.3726C41.4452 60.6894 40.7142 60.104 39.9822 63.0302C39.2512 65.9564 39.3972 78.8321 39.5442 81.173C39.6902 83.5138 39.8362 92.0004 40.1292 94.1946C40.4222 96.3895 40.7142 102.827 40.5682 104.29C40.4232 105.755 40.1302 107.804 39.1062 105.901Z" fill="#446622" stroke="#1E212B" stroke-miterlimit="10"/>
<path d="M39.4042 53.252C38.7762 57.5958 38.3092 61.349 38.3752 63.3239" stroke="#1E212B" stroke-miterlimit="10"/>
<path d="M39.8382 17.2344C39.8382 17.2344 42.7641 27.9152 41.7401 36.8406C41.2641 40.9879 40.4721 46.051 39.7751 50.7237" stroke="#1E212B" stroke-miterlimit="10"/>
<path d="M39.1062 105.901C39.1062 105.901 38.2842 106.667 37.6502 107.807C37.0172 108.947 33.0892 110.467 32.3292 115.914C31.5692 121.361 36.0032 126.048 38.2832 127.442C40.5632 128.835 40.5632 128.329 40.5632 129.469C40.5632 130.609 40.3102 136.69 40.8162 139.096C41.3232 141.503 41.3232 145.43 41.3232 145.43L40.8162 156.831C40.8162 156.831 39.8032 161.645 40.1832 162.278C40.5632 162.911 41.3232 160.505 41.4502 158.858C41.5772 157.211 42.9702 142.77 42.9702 142.77L41.7032 137.956C41.7032 137.956 44.4902 129.089 45.1242 128.582C45.7572 128.075 49.1772 125.921 51.4582 121.361C53.7382 116.8 53.4852 111.86 51.0782 109.58C48.6712 107.3 45.1752 107.539 43.6042 106.793C42.0322 106.047 40.5632 103.996 39.1062 105.901Z" fill="#1E212B" stroke="#1E212B" stroke-miterlimit="10"/>
<path d="M41.7042 137.956C41.7042 137.956 42.9652 133.947 43.9832 131.165C43.7622 130.986 43.5322 130.79 43.3512 130.608C42.8442 130.101 42.0842 130.481 41.4502 131.748C41.1052 132.438 40.7622 132.188 40.5192 131.818C40.4792 134.143 40.4732 137.463 40.8172 139.095C41.3242 141.503 41.3242 145.429 41.3242 145.429L40.8172 156.831C40.8172 156.831 39.8032 161.644 40.1832 162.278C40.5632 162.911 41.3242 160.504 41.4502 158.857C41.5772 157.21 42.9712 142.769 42.9712 142.769L41.7042 137.956Z" fill="white" stroke="#1E212B" stroke-miterlimit="10"/>
</svg>
