<svg width="33" height="44" viewBox="0 0 33 44" fill="none" xmlns="http://www.w3.org/2000/svg">
<path d="M13.0764 7.50043C13.0764 7.50043 9.94141 6.80343 8.20041 8.08043C6.45841 9.35743 6.1094 10.0544 6.1094 10.0544C6.1094 10.0544 3.3234 9.70643 1.9294 12.3764C0.536402 15.0474 0.188407 17.6014 0.768407 23.4074C1.34941 29.2134 5.1814 34.3224 5.6454 35.3674C6.1094 36.4124 6.3424 38.5034 8.4324 40.0124C10.5224 41.5214 14.5864 42.9154 17.3724 42.4504C20.1594 41.9864 22.2494 40.4764 22.2494 40.4764C22.2494 40.4764 25.5014 38.3864 26.5464 34.6704C27.5914 30.9554 33.6294 20.8534 31.7714 15.1634C29.9134 9.47342 26.4304 9.47343 26.4304 9.47343C26.4304 9.47343 22.5984 6.91943 20.1604 6.91943C17.7214 6.91943 15.7474 7.61543 15.7474 7.61543L13.0764 7.50043Z" fill="#446622" stroke="#1E212B" stroke-miterlimit="10" stroke-linecap="round" stroke-linejoin="round"/>
<path opacity="0.53" d="M25.3634 15.0954C25.3634 15.0954 23.9134 12.4014 21.6334 14.4744C19.3534 16.5464 21.2194 18.2044 21.4264 20.6914C21.6334 23.1784 24.5344 18.6194 25.3634 19.6554C26.1924 20.6904 26.3884 17.9304 25.3634 15.0954Z" fill="white"/>
<path opacity="0.53" d="M14.3814 14.8887C14.3814 14.8887 11.0654 14.8887 11.0654 16.5467C11.0654 18.2047 12.3084 22.5567 13.7594 22.1427C15.2104 21.7277 16.4534 18.6187 16.2464 16.9617C16.0384 15.3037 14.3814 14.8887 14.3814 14.8887Z" fill="white"/>
<path d="M18.8824 12.8414C18.8824 12.8414 17.4884 10.2874 15.8634 6.45543C14.2384 2.62343 12.8444 0.185437 10.8704 0.533437C8.8964 0.881437 9.01341 3.20443 9.82541 4.01743C10.6384 4.83043 10.6384 2.97243 11.2184 3.55343C11.7994 4.13343 12.4964 5.75943 13.0764 7.50043C13.6574 9.24243 13.1924 12.8414 13.1924 12.8414L17.1404 14.3514L18.8824 12.8414Z" fill="#1E212B" stroke="#1E212B" stroke-miterlimit="10" stroke-linecap="round" stroke-linejoin="round"/>
<path d="M24.7754 33.9614C24.4874 34.7014 24.2544 35.3004 24.1074 35.7164" stroke="#1E212B" stroke-miterlimit="10" stroke-linecap="round" stroke-linejoin="round"/>
<path d="M28.3584 22.8184C27.6974 25.9334 26.5894 29.1574 25.6484 31.6784" stroke="#1E212B" stroke-miterlimit="10" stroke-linecap="round" stroke-linejoin="round"/>
<path d="M18.8824 12.8417C18.8824 12.8417 21.7844 11.3327 24.3394 12.2617C26.7224 13.1287 29.2064 16.0167 28.6804 20.9257" stroke="#1E212B" stroke-miterlimit="10" stroke-linecap="round" stroke-linejoin="round"/>
<path d="M5.73342 29.2134C5.73242 30.8134 5.76142 31.8844 5.76142 31.8844" stroke="#1E212B" stroke-miterlimit="10" stroke-linecap="round" stroke-linejoin="round"/>
<path d="M11.6834 12.8415C11.6834 12.8415 8.89744 12.6095 7.15544 15.8605C6.09444 17.8395 5.80944 23.3485 5.74744 27.3555" stroke="#1E212B" stroke-miterlimit="10" stroke-linecap="round" stroke-linejoin="round"/>
<path d="M7.27142 10.2876C7.27142 10.2876 8.66442 10.2876 10.1734 11.5646" stroke="#1E212B" stroke-miterlimit="10" stroke-linecap="round" stroke-linejoin="round"/>
<path d="M25.6174 9.93848C25.6174 9.93848 23.7594 10.4025 22.3654 11.2155" stroke="#1E212B" stroke-miterlimit="10" stroke-linecap="round" stroke-linejoin="round"/>
<path d="M17.6044 15.7446C17.6044 15.7446 19.1144 17.0216 17.2564 22.5946" stroke="#1E212B" stroke-miterlimit="10" stroke-linecap="round" stroke-linejoin="round"/>
</svg>
