<svg width="20" height="21" viewBox="0 0 20 21" fill="none" xmlns="http://www.w3.org/2000/svg">
<path d="M14.2904 4.21382C14.2904 4.21382 13.3414 2.77901 12.2034 2.62761C11.0644 2.47651 10.6744 2.61741 10.6744 2.61741C10.6744 2.61741 9.7314 1.44731 8.2144 1.96621C6.6974 2.48511 5.62438 3.34712 3.71238 5.81582C1.80138 8.28452 1.39437 11.6906 1.18937 12.2687C0.983374 12.8467 0.303374 13.7443 0.551374 15.1062C0.799374 16.4683 1.8484 18.5184 3.0894 19.3733C4.3314 20.2281 5.68937 20.4185 5.68937 20.4185C5.68937 20.4185 7.70638 20.815 9.47438 19.7612C11.2424 18.7074 17.2764 17.0297 18.6544 14.1314C20.0324 11.2331 18.6944 9.93941 18.6944 9.93941C18.6944 9.93941 18.1614 7.52491 17.2244 6.61921C16.2884 5.71351 15.2734 5.25052 15.2734 5.25052L14.2904 4.21382Z" fill="#99BB44" stroke="#1E212B" stroke-miterlimit="10" stroke-linecap="round" stroke-linejoin="round"/>
<path opacity="0.53" d="M16.2163 11.7254C16.2163 11.7254 16.6503 10.141 15.0123 10.0986C13.3743 10.0561 13.4813 11.3923 12.6463 12.4344C11.8123 13.4765 14.6033 12.7847 14.5403 13.4948C14.4783 14.2045 15.5683 13.206 16.2163 11.7254Z" fill="white"/>
<path opacity="0.53" d="M12.0733 7.56579C12.0733 7.56579 10.8003 6.33418 10.1903 6.97758C9.58034 7.62098 8.45834 9.77179 9.16834 10.1498C9.87734 10.5278 11.4984 9.78318 12.0284 9.06278C12.5584 8.34238 12.0733 7.56579 12.0733 7.56579Z" fill="white"/>
<path d="M14.5554 8.44297C14.5554 8.44297 14.9594 6.93418 15.7434 4.84348C16.5284 2.75268 16.8894 1.28888 16.0034 0.690775C15.1164 0.0925752 14.3074 1.03717 14.3204 1.65447C14.3344 2.27197 15.0174 1.55088 15.0264 1.99178C15.0364 2.43278 14.7064 3.32248 14.2884 4.21378C13.8714 5.10538 12.3694 6.32968 12.3694 6.32968L13.3314 8.38168L14.5554 8.44297Z" fill="#1E212B" stroke="#1E212B" stroke-miterlimit="10" stroke-linecap="round" stroke-linejoin="round"/>
<path d="M9.05435 18.8281C8.67135 19.0086 8.36134 19.1545 8.15234 19.2611" stroke="#1E212B" stroke-miterlimit="10" stroke-linecap="round" stroke-linejoin="round"/>
<path d="M14.5284 15.8345C13.1294 16.798 11.5184 17.6376 10.2294 18.2663" stroke="#1E212B" stroke-miterlimit="10" stroke-linecap="round" stroke-linejoin="round"/>
<path d="M14.5553 8.44287C14.5553 8.44287 16.2253 8.93528 16.8653 10.2446C17.4623 11.466 17.3543 13.5095 15.3473 15.2194" stroke="#1E212B" stroke-miterlimit="10" stroke-linecap="round" stroke-linejoin="round"/>
<path d="M3.48431 9.91309C2.89631 10.5337 2.51331 10.9601 2.51331 10.9601" stroke="#1E212B" stroke-miterlimit="10" stroke-linecap="round" stroke-linejoin="round"/>
<path d="M11.7903 5.76929C11.7903 5.76929 10.8043 4.64429 8.94034 5.25879C7.80534 5.63309 5.67034 7.66479 4.17334 9.19719" stroke="#1E212B" stroke-miterlimit="10" stroke-linecap="round" stroke-linejoin="round"/>
<path d="M11.0343 3.13916C11.0343 3.13916 11.5693 3.65666 11.6793 4.71286" stroke="#1E212B" stroke-miterlimit="10" stroke-linecap="round" stroke-linejoin="round"/>
<path d="M18.2103 9.81796C18.2103 9.81796 17.3263 9.30816 16.4913 9.10596" stroke="#1E212B" stroke-miterlimit="10" stroke-linecap="round" stroke-linejoin="round"/>
<path d="M12.9984 9.09521C12.9984 9.09521 13.1083 10.1514 10.3453 11.6244" stroke="#1E212B" stroke-miterlimit="10" stroke-linecap="round" stroke-linejoin="round"/>
</svg>
