<svg width="452" height="439" viewBox="0 0 452 439" fill="none" xmlns="http://www.w3.org/2000/svg">
<path d="M431.119 228.19C447.756 121.769 358.977 14.5033 242.409 1.18128C240.958 1.01528 239.505 0.860278 238.051 0.715279C156.601 -7.37472 82.1497 54.8423 60.8617 102.296C39.5737 149.75 -16.1373 194.893 4.51272 282.848C25.1617 370.803 81.2597 417.667 212.786 431.537C344.312 445.407 368.579 407.79 403.494 325.614C415.593 297.139 425.655 263.139 431.119 228.19Z" fill="#446622"/>
<path opacity="0.7" d="M431.119 228.19C447.756 121.769 358.977 14.5033 242.409 1.18128C240.958 1.01528 239.505 0.860278 238.051 0.715279C156.601 -7.37472 82.1497 54.8423 60.8617 102.296C39.5737 149.75 -16.1373 194.893 4.51272 282.848C25.1617 370.803 81.2597 417.667 212.786 431.537C344.312 445.407 368.579 407.79 403.494 325.614C415.593 297.139 425.655 263.139 431.119 228.19Z" fill="white"/>
<path d="M48.3616 431.812H12.4946" stroke="#1E212B" stroke-miterlimit="10"/>
<path d="M451.964 431.812H54.3646" stroke="#1E212B" stroke-miterlimit="10"/>
<path d="M329.848 80.4581L319.305 91.001L329.848 101.544L340.39 91.001L329.848 80.4581Z" stroke="#1E212B" stroke-miterlimit="10"/>
<path d="M93.5683 39.4677L83.0254 50.0106L93.5683 60.5534L104.111 50.0106L93.5683 39.4677Z" stroke="#1E212B" stroke-miterlimit="10"/>
<path d="M424.03 252.649L413.487 263.192L424.03 273.735L434.573 263.192L424.03 252.649Z" stroke="#1E212B" stroke-miterlimit="10"/>
<path d="M218.577 299.845L208.034 310.388L218.577 320.931L229.12 310.388L218.577 299.845Z" stroke="#1E212B" stroke-miterlimit="10"/>
<path d="M24.026 181.872L13.4832 192.414L24.026 202.957L34.5689 192.414L24.026 181.872Z" stroke="#1E212B" stroke-miterlimit="10"/>
<path d="M77.3924 159.551L72.3197 164.623L77.3924 169.696L82.4652 164.623L77.3924 159.551Z" stroke="#1E212B" stroke-miterlimit="10"/>
<path d="M344.426 96.5613L339.353 101.634L344.426 106.707L349.498 101.634L344.426 96.5613Z" stroke="#1E212B" stroke-miterlimit="10"/>
<path d="M247.06 36.9436L241.987 42.0163L247.06 47.089L252.133 42.0163L247.06 36.9436Z" stroke="#1E212B" stroke-miterlimit="10"/>
<path d="M245.232 291.518L240.159 296.591L245.232 301.664L250.305 296.591L245.232 291.518Z" stroke="#1E212B" stroke-miterlimit="10"/>
<path d="M332.361 358.439L327.289 363.512L332.361 368.585L337.434 363.512L332.361 358.439Z" stroke="#1E212B" stroke-miterlimit="10"/>
<path d="M148.402 394.313L143.329 399.385L148.402 404.458L153.475 399.385L148.402 394.313Z" stroke="#1E212B" stroke-miterlimit="10"/>
<path d="M177.305 396.105C178.506 396.629 181.442 396.563 181.444 396.563C181.474 396.562 180.813 394.641 180.757 394.524C180.113 393.176 178.076 390.951 176.418 391.175C175.224 391.336 174.56 392.532 174.829 393.656C175.105 394.805 176.283 395.658 177.305 396.105Z" fill="#1E212B"/>
<path d="M178.318 404.61C179.563 404.792 182.183 404.032 182.392 403.97C182.806 405.437 183.349 406.909 183.981 408.367C184.341 409.202 184.73 410.031 185.131 410.857C184.892 410.507 184.676 410.196 184.641 410.155C183.663 409.025 181.111 407.417 179.572 408.071C178.462 408.542 178.138 409.87 178.695 410.883C179.263 411.918 180.626 412.43 181.729 412.59C182.849 412.754 185.096 412.15 185.689 411.983C185.846 412.298 185.999 412.615 186.157 412.93C186.916 414.441 187.679 415.945 188.383 417.444C188.631 417.972 188.856 418.501 189.084 419.03C188.871 418.719 188.69 418.459 188.658 418.422C187.681 417.293 185.128 415.684 183.589 416.338C182.48 416.809 182.155 418.137 182.712 419.15C183.281 420.185 184.643 420.697 185.747 420.857C186.816 421.013 188.895 420.475 189.6 420.279C189.816 420.827 190.034 421.376 190.219 421.917C190.337 422.289 190.477 422.64 190.574 423.02C190.679 423.395 190.782 423.766 190.885 424.133C191.056 424.847 191.238 425.584 191.388 426.285C191.496 426.772 191.59 427.238 191.686 427.708C191.445 427.18 190.951 426.155 190.9 426.074C190.105 424.809 187.826 422.833 186.205 423.246C185.037 423.544 184.515 424.807 184.912 425.893C185.317 427.002 186.586 427.714 187.652 428.04C188.827 428.399 191.427 428.071 191.752 428.028C191.908 428.805 192.052 429.562 192.177 430.279C192.271 430.81 192.356 431.319 192.434 431.809H193.476C193.378 431.264 193.27 430.694 193.152 430.097C192.997 429.307 192.815 428.467 192.621 427.605C192.817 427.527 193.926 427.079 194.909 426.529C195.765 427.456 197.959 428.541 198.243 428.679C197.945 429.413 197.647 430.124 197.355 430.791C197.201 431.144 197.052 431.478 196.904 431.809H198.005C198.092 431.6 198.179 431.395 198.268 431.177C198.574 430.433 198.887 429.631 199.2 428.805C199.515 428.871 202.089 429.394 203.289 429.123C204.377 428.877 205.695 428.261 206.182 427.185C206.659 426.132 206.232 424.833 205.089 424.449C203.504 423.916 201.083 425.717 200.196 426.919C200.143 426.99 199.662 427.823 199.367 428.353C199.493 428.015 199.619 427.688 199.745 427.338C199.998 426.648 200.23 425.953 200.483 425.205C200.592 424.84 200.703 424.471 200.814 424.098C200.932 423.731 201.011 423.328 201.112 422.939C201.328 422.033 201.502 421.106 201.657 420.167C202.261 420.387 204.42 421.138 205.538 421.059C206.651 420.981 208.047 420.572 208.691 419.582C209.322 418.613 209.097 417.264 208.026 416.712C206.539 415.945 203.874 417.359 202.816 418.413C202.75 418.478 202.075 419.32 201.714 419.789C201.803 419.224 201.894 418.66 201.965 418.086C202.171 416.427 202.328 414.742 202.492 413.062C202.542 412.547 202.598 412.035 202.652 411.522C202.866 411.603 205.412 412.551 206.664 412.462C207.777 412.384 209.173 411.975 209.817 410.985C210.448 410.016 210.223 408.668 209.152 408.115C207.666 407.348 205 408.762 203.942 409.815C203.862 409.894 202.893 411.107 202.662 411.427C202.781 410.297 202.911 409.172 203.084 408.068C203.32 406.545 203.636 405.063 204.048 403.65C204.148 403.688 206.8 404.689 208.083 404.599C209.196 404.521 210.592 404.112 211.236 403.122C211.867 402.153 211.642 400.805 210.571 400.252C209.084 399.485 206.419 400.899 205.36 401.952C205.277 402.035 204.235 403.339 204.063 403.59C204.088 403.506 204.104 403.416 204.13 403.333C204.589 401.83 205.223 400.432 205.88 399.153C206.26 398.409 206.666 397.718 207.075 397.056C207.55 397.293 209.732 398.353 210.895 398.399C212.01 398.444 213.442 398.19 214.191 397.278C214.925 396.384 214.849 395.019 213.845 394.353C212.451 393.428 209.647 394.54 208.479 395.471C208.416 395.522 207.827 396.108 207.404 396.541C207.593 396.245 207.783 395.935 207.97 395.655C208.67 394.601 209.376 393.679 210.007 392.868C210.37 392.41 210.707 392.002 211.027 391.624C211.614 391.614 213.981 391.542 215.016 391.056C216.026 390.582 217.181 389.697 217.425 388.542C217.664 387.411 216.968 386.234 215.77 386.105C214.107 385.926 212.131 388.205 211.523 389.57C211.471 389.688 210.861 391.627 210.892 391.626C210.892 391.626 210.921 391.626 210.927 391.626C210.612 391.983 210.279 392.37 209.923 392.8C209.272 393.599 208.545 394.508 207.819 395.551C207.091 396.591 206.33 397.742 205.638 399.026C204.942 400.312 204.276 401.701 203.775 403.221C203.769 403.238 203.766 403.257 203.76 403.274C203.769 402.784 203.747 401.413 203.733 401.308C203.541 399.827 202.3 397.077 200.654 396.773C199.469 396.554 198.465 397.482 198.371 398.635C198.275 399.812 199.128 400.99 199.96 401.733C200.898 402.571 203.503 403.383 203.71 403.447C203.246 404.898 202.887 406.426 202.61 407.991C202.45 408.886 202.317 409.792 202.195 410.703C202.189 410.279 202.18 409.9 202.173 409.847C201.981 408.365 200.739 405.617 199.095 405.312C197.91 405.093 196.906 406.021 196.812 407.174C196.715 408.351 197.569 409.529 198.401 410.272C199.245 411.026 201.452 411.763 202.038 411.95C201.995 412.3 201.948 412.649 201.906 412.998C201.705 414.677 201.513 416.353 201.273 417.991C201.189 418.568 201.085 419.134 200.983 419.7C200.977 419.324 200.969 419.007 200.963 418.959C200.771 417.477 199.529 414.728 197.885 414.424C196.7 414.205 195.696 415.133 195.602 416.286C195.505 417.463 196.359 418.641 197.191 419.384C197.996 420.104 200.028 420.802 200.723 421.028C200.601 421.605 200.48 422.182 200.335 422.736C200.228 423.112 200.151 423.48 200.022 423.852C199.902 424.222 199.784 424.589 199.667 424.952C199.416 425.643 199.161 426.357 198.899 427.024C198.72 427.49 198.541 427.93 198.362 428.374C198.452 427.8 198.606 426.673 198.608 426.578C198.631 425.586 198.279 423.973 197.577 422.839C197.581 422.692 197.573 422.546 197.55 422.401C197.366 421.259 196.294 420.411 195.129 420.722C193.513 421.152 192.487 423.99 192.411 425.481C192.406 425.569 192.464 426.529 192.51 427.135C192.428 426.783 192.354 426.441 192.265 426.08C192.096 425.365 191.905 424.657 191.704 423.893C191.594 423.528 191.482 423.16 191.369 422.787C191.265 422.416 191.108 422.036 190.978 421.656C190.658 420.782 190.292 419.912 189.903 419.043C190.529 418.893 192.743 418.329 193.632 417.646C194.517 416.967 195.456 415.856 195.448 414.675C195.44 413.519 194.508 412.518 193.31 412.648C191.647 412.829 190.204 415.478 189.902 416.941C189.883 417.032 189.785 418.106 189.742 418.697C189.504 418.177 189.27 417.656 189.012 417.138C188.269 415.641 187.47 414.149 186.68 412.657C186.438 412.2 186.202 411.742 185.964 411.284C186.187 411.233 188.834 410.619 189.829 409.855C190.714 409.176 191.653 408.065 191.645 406.884C191.637 405.728 190.705 404.727 189.507 404.858C187.844 405.039 186.401 407.688 186.099 409.151C186.076 409.261 185.937 410.807 185.921 411.201C185.397 410.193 184.885 409.183 184.42 408.167C183.777 406.766 183.223 405.356 182.787 403.951C182.891 403.927 185.656 403.299 186.676 402.516C187.561 401.837 188.5 400.726 188.491 399.545C188.483 398.389 187.551 397.388 186.353 397.518C184.69 397.699 183.247 400.348 182.945 401.811C182.921 401.926 182.772 403.589 182.767 403.892C182.741 403.808 182.705 403.725 182.68 403.641C182.234 402.134 181.991 400.619 181.834 399.189C181.741 398.358 181.698 397.559 181.674 396.781C182.201 396.717 184.606 396.397 185.602 395.794C186.556 395.216 187.612 394.215 187.733 393.04C187.852 391.89 187.036 390.793 185.831 390.791C184.158 390.788 182.433 393.263 181.972 394.683C181.947 394.76 181.779 395.574 181.666 396.168C181.661 395.816 181.648 395.454 181.65 395.117C181.652 393.852 181.732 392.694 181.811 391.669C181.861 391.086 181.917 390.56 181.976 390.069C182.46 389.736 184.395 388.37 184.99 387.394C185.571 386.441 186.046 385.067 185.612 383.968C185.187 382.892 183.958 382.295 182.887 382.848C181.401 383.616 181.01 386.608 181.256 388.081C181.277 388.208 181.839 390.161 181.864 390.144C181.864 390.144 181.888 390.128 181.893 390.124C181.827 390.596 181.763 391.102 181.704 391.657C181.602 392.683 181.497 393.842 181.467 395.112C181.434 396.381 181.434 397.761 181.565 399.214C181.695 400.67 181.905 402.196 182.325 403.74C182.33 403.757 182.337 403.775 182.342 403.792C182.079 403.378 181.304 402.247 181.235 402.167C180.258 401.037 177.705 399.429 176.166 400.083C175.057 400.554 174.732 401.882 175.289 402.895C175.853 403.937 177.215 404.449 178.318 404.61Z" fill="#1E212B"/>
<path d="M207.003 396.751C207.029 396.767 207.537 394.8 207.555 394.672C207.761 393.193 207.289 390.213 205.783 389.485C204.698 388.961 203.485 389.591 203.09 390.678C202.686 391.787 203.198 393.149 203.804 394.085C204.515 395.185 207.001 396.749 207.003 396.751Z" fill="#1E212B"/>
<path d="M163.419 191.231H267.898C285.759 191.231 300.238 205.71 300.238 223.571C300.238 241.432 285.759 255.911 267.898 255.911H163.419C145.558 255.911 131.079 241.432 131.079 223.571C131.079 205.71 145.558 191.231 163.419 191.231Z" stroke="#1E212B" stroke-miterlimit="10"/>
<path d="M162.985 253.834C179.698 253.834 193.248 240.285 193.248 223.571C193.248 206.857 179.698 193.308 162.985 193.308C146.271 193.308 132.722 206.857 132.722 223.571C132.722 240.285 146.271 253.834 162.985 253.834Z" stroke="#1E212B" stroke-miterlimit="10"/>
<path d="M246.024 225.412L257.827 213.609C259.13 212.305 259.13 210.193 257.827 208.89C256.523 207.588 254.411 207.588 253.108 208.89L241.305 220.694L229.502 208.89C228.199 207.588 226.086 207.588 224.783 208.89C223.48 210.194 223.48 212.306 224.783 213.609L236.586 225.412L224.783 237.216C223.48 238.518 223.48 240.631 224.783 241.934C225.434 242.585 226.288 242.911 227.143 242.911C227.997 242.911 228.85 242.585 229.502 241.934L241.306 230.131L253.109 241.934C253.76 242.585 254.614 242.911 255.469 242.911C256.323 242.911 257.176 242.585 257.828 241.934C259.131 240.631 259.131 238.518 257.828 237.216L246.024 225.412Z" fill="#1E212B"/>
<path d="M267.898 100.188H163.419C145.558 100.188 131.079 114.667 131.079 132.528C131.079 150.389 145.558 164.868 163.419 164.868H267.898C285.759 164.868 300.238 150.389 300.238 132.528C300.237 114.667 285.758 100.188 267.898 100.188Z" fill="#1E212B"/>
<path d="M268.331 168.843C288.387 168.843 304.646 152.584 304.646 132.528C304.646 112.472 288.387 96.2133 268.331 96.2133C248.274 96.2133 232.016 112.472 232.016 132.528C232.016 152.584 248.274 168.843 268.331 168.843Z" fill="#446622" stroke="#1E212B" stroke-miterlimit="10"/>
<path d="M185.502 148.686C184.739 148.686 184.004 148.383 183.46 147.84L168.651 133.032C167.524 131.903 167.524 130.075 168.651 128.948C169.78 127.821 171.608 127.821 172.736 128.948L185.185 141.397L202.603 118.073C203.558 116.795 205.368 116.534 206.646 117.487C207.924 118.441 208.186 120.251 207.232 121.529L187.816 147.526C187.315 148.198 186.546 148.619 185.71 148.679C185.64 148.684 185.571 148.686 185.502 148.686Z" fill="#99BB44"/>
<path d="M390.541 26.1883H430.555C433.201 26.1883 435.347 28.3333 435.347 30.9803V129.327C435.347 131.973 433.202 134.119 430.555 134.119H418.988" stroke="#1E212B" stroke-miterlimit="10"/>
<path d="M414.581 134.118H372.368C369.722 134.118 367.576 131.973 367.576 129.326V30.9803C367.576 28.3343 369.721 26.1883 372.368 26.1883H384.932" stroke="#1E212B" stroke-miterlimit="10"/>
<path d="M373.253 39.5963H410.489" stroke="#1E212B" stroke-miterlimit="10"/>
<path d="M394.88 53.7243H410.489" stroke="#1E212B" stroke-miterlimit="10"/>
<path d="M373.253 53.7243H390.732" stroke="#1E212B" stroke-miterlimit="10"/>
<path d="M429.013 51.0193H417.865C416.319 51.0193 415.066 52.2723 415.066 53.8183V54.6233C415.066 56.1693 416.319 57.4223 417.865 57.4223H429.013C430.559 57.4223 431.812 56.1693 431.812 54.6233V53.8183C431.811 52.2723 430.559 51.0193 429.013 51.0193Z" fill="#1E212B"/>
<path d="M432.248 54.2203C432.248 52.2353 430.639 50.6253 428.653 50.6253C426.668 50.6253 425.058 52.2353 425.058 54.2203C425.058 56.2053 426.668 57.8153 428.653 57.8153C430.638 57.8153 432.248 56.2053 432.248 54.2203Z" fill="#99BB44" stroke="#1E212B" stroke-miterlimit="10"/>
<path d="M429.013 64.3403H417.865C416.319 64.3403 415.066 65.5933 415.066 67.1393V67.9443C415.066 69.4903 416.319 70.7433 417.865 70.7433H429.013C430.559 70.7433 431.812 69.4903 431.812 67.9443V67.1393C431.811 65.5943 430.559 64.3403 429.013 64.3403Z" fill="#1E212B"/>
<path d="M432.248 67.5423C432.248 65.5573 430.639 63.9473 428.653 63.9473C426.668 63.9473 425.058 65.5573 425.058 67.5423C425.058 69.5273 426.668 71.1373 428.653 71.1373C430.638 71.1373 432.248 69.5273 432.248 67.5423Z" fill="#446622" stroke="#1E212B" stroke-miterlimit="10"/>
<path d="M429.013 92.9743H417.865C416.319 92.9743 415.066 94.2273 415.066 95.7733V96.5783C415.066 98.1243 416.319 99.3773 417.865 99.3773H429.013C430.559 99.3773 431.812 98.1243 431.812 96.5783V95.7733C431.811 94.2273 430.559 92.9743 429.013 92.9743Z" fill="#1E212B"/>
<path d="M432.248 96.1753C432.248 94.1903 430.639 92.5803 428.653 92.5803C426.668 92.5803 425.058 94.1893 425.058 96.1753C425.058 98.1603 426.668 99.7703 428.653 99.7703C430.638 99.7703 432.248 98.1613 432.248 96.1753Z" fill="#446622" stroke="#1E212B" stroke-miterlimit="10"/>
<path d="M429.013 121.24H417.865C416.319 121.24 415.066 122.493 415.066 124.039V124.844C415.066 126.39 416.319 127.643 417.865 127.643H429.013C430.559 127.643 431.812 126.39 431.812 124.844V124.039C431.811 122.493 430.559 121.24 429.013 121.24Z" fill="#1E212B"/>
<path d="M432.248 124.442C432.248 122.457 430.639 120.847 428.653 120.847C426.668 120.847 425.058 122.456 425.058 124.442C425.058 126.427 426.668 128.037 428.653 128.037C430.638 128.037 432.248 126.427 432.248 124.442Z" fill="#446622" stroke="#1E212B" stroke-miterlimit="10"/>
<path d="M432.247 39.9143C432.247 40.7953 431.885 41.5973 431.307 42.1753C430.729 42.7533 429.927 43.1153 429.046 43.1153H420.291C421.455 42.5243 422.256 41.3143 422.256 39.9143C422.256 38.5143 421.454 37.3043 420.291 36.7133H429.046C430.814 36.7133 432.247 38.1463 432.247 39.9143Z" stroke="#1E212B" stroke-miterlimit="10"/>
<path d="M422.256 39.9143C422.256 41.3143 421.454 42.5233 420.291 43.1153C419.805 43.3713 419.246 43.5093 418.661 43.5093C416.676 43.5093 415.065 41.8993 415.065 39.9143C415.065 37.9293 416.675 36.3183 418.661 36.3183C419.246 36.3183 419.805 36.4563 420.291 36.7123C421.454 37.3053 422.256 38.5143 422.256 39.9143Z" stroke="#1E212B" stroke-miterlimit="10"/>
<path d="M432.247 81.7633C432.247 82.6443 431.885 83.4463 431.307 84.0243C430.729 84.6023 429.927 84.9643 429.046 84.9643H420.291C421.455 84.3723 422.256 83.1633 422.256 81.7633C422.256 80.3633 421.454 79.1533 420.291 78.5623H429.046C430.814 78.5623 432.247 79.9953 432.247 81.7633Z" stroke="#1E212B" stroke-miterlimit="10"/>
<path d="M422.256 81.7633C422.256 83.1633 421.454 84.3723 420.291 84.9643C419.805 85.2203 419.246 85.3583 418.661 85.3583C416.676 85.3583 415.065 83.7483 415.065 81.7633C415.065 79.7783 416.675 78.1673 418.661 78.1673C419.246 78.1673 419.805 78.3053 420.291 78.5613C421.454 79.1543 422.256 80.3633 422.256 81.7633Z" stroke="#1E212B" stroke-miterlimit="10"/>
<path d="M432.247 109.846C432.247 110.727 431.885 111.529 431.307 112.107C430.729 112.686 429.927 113.047 429.046 113.047H420.291C421.455 112.455 422.256 111.246 422.256 109.846C422.256 108.446 421.454 107.236 420.291 106.645H429.046C430.814 106.645 432.247 108.078 432.247 109.846Z" stroke="#1E212B" stroke-miterlimit="10"/>
<path d="M422.256 109.846C422.256 111.246 421.454 112.455 420.291 113.047C419.805 113.303 419.246 113.441 418.661 113.441C416.676 113.441 415.065 111.831 415.065 109.846C415.065 107.861 416.675 106.25 418.661 106.25C419.246 106.25 419.805 106.388 420.291 106.644C421.454 107.237 422.256 108.446 422.256 109.846Z" stroke="#1E212B" stroke-miterlimit="10"/>
<path d="M373.253 67.8523H410.489" stroke="#1E212B" stroke-miterlimit="10"/>
<path d="M373.253 81.9803H410.489" stroke="#1E212B" stroke-miterlimit="10"/>
<path d="M389.436 96.1083H410.489" stroke="#1E212B" stroke-miterlimit="10"/>
<path d="M373.253 96.1083H385.288" stroke="#1E212B" stroke-miterlimit="10"/>
<path d="M373.253 110.236H410.489" stroke="#1E212B" stroke-miterlimit="10"/>
<path d="M373.253 124.364H410.489" stroke="#1E212B" stroke-miterlimit="10"/>
<path d="M115.126 365.376V406.053C115.126 408.699 112.981 410.845 110.334 410.845H16.8147C14.1687 410.845 12.0227 408.7 12.0227 406.053V251.436C12.0227 248.79 14.1677 246.645 16.8147 246.645H59.5977" stroke="#1E212B" stroke-miterlimit="10"/>
<path d="M64.1127 246.645H110.334C112.98 246.645 115.126 248.79 115.126 251.436V358.645" stroke="#1E212B" stroke-miterlimit="10"/>
<path d="M32.6977 267.042H77.3087" stroke="#1E212B" stroke-miterlimit="10"/>
<path d="M20.6587 267.042H28.2107" stroke="#1E212B" stroke-miterlimit="10"/>
<path d="M20.6587 288.536H77.3087" stroke="#1E212B" stroke-miterlimit="10"/>
<path d="M104.877 284.421H89.1417C86.4517 284.421 84.2717 286.601 84.2717 289.291C84.2717 291.981 86.4527 294.162 89.1417 294.162H104.877C107.567 294.162 109.747 291.981 109.747 289.291C109.747 286.601 107.567 284.421 104.877 284.421Z" fill="#1E212B"/>
<path d="M110.411 289.291C110.411 286.27 107.962 283.822 104.942 283.822C101.921 283.822 99.4727 286.271 99.4727 289.291C99.4727 292.312 101.922 294.76 104.942 294.76C107.962 294.76 110.411 292.311 110.411 289.291Z" fill="#446622" stroke="#1E212B" stroke-miterlimit="10"/>
<path d="M104.877 304.688H89.1417C86.4517 304.688 84.2717 306.869 84.2717 309.558C84.2717 312.248 86.4527 314.429 89.1417 314.429H104.877C107.567 314.429 109.747 312.248 109.747 309.558C109.747 306.868 107.567 304.688 104.877 304.688Z" fill="#1E212B"/>
<path d="M104.942 315.027C107.962 315.027 110.411 312.579 110.411 309.558C110.411 306.538 107.962 304.089 104.942 304.089C101.921 304.089 99.4727 306.538 99.4727 309.558C99.4727 312.579 101.921 315.027 104.942 315.027Z" fill="#99BB44" stroke="#1E212B" stroke-miterlimit="10"/>
<path d="M104.877 348.25H89.1417C86.4517 348.25 84.2717 350.431 84.2717 353.12C84.2717 355.81 86.4527 357.991 89.1417 357.991H104.877C107.567 357.991 109.747 355.81 109.747 353.12C109.747 350.43 107.567 348.25 104.877 348.25Z" fill="#1E212B"/>
<path d="M110.411 353.12C110.411 350.099 107.962 347.651 104.942 347.651C101.921 347.651 99.4727 350.1 99.4727 353.12C99.4727 356.141 101.922 358.589 104.942 358.589C107.962 358.589 110.411 356.141 110.411 353.12Z" fill="#446622" stroke="#1E212B" stroke-miterlimit="10"/>
<path d="M104.877 391.253H89.1417C86.4517 391.253 84.2717 393.434 84.2717 396.123C84.2717 398.813 86.4527 400.994 89.1417 400.994H104.877C107.567 400.994 109.747 398.813 109.747 396.123C109.747 393.433 107.567 391.253 104.877 391.253Z" fill="#1E212B"/>
<path d="M104.942 401.592C107.962 401.592 110.411 399.144 110.411 396.123C110.411 393.103 107.962 390.654 104.942 390.654C101.921 390.654 99.4727 393.103 99.4727 396.123C99.4727 399.144 101.921 401.592 104.942 401.592Z" fill="#99BB44" stroke="#1E212B" stroke-miterlimit="10"/>
<path d="M110.41 267.527C110.41 268.867 109.86 270.087 108.98 270.967C108.1 271.847 106.88 272.397 105.54 272.397H92.2197C93.9897 271.497 95.2097 269.657 95.2097 267.527C95.2097 265.397 93.9897 263.557 92.2197 262.657H105.54C108.23 262.657 110.41 264.837 110.41 267.527Z" stroke="#1E212B" stroke-miterlimit="10"/>
<path d="M95.2097 267.527C95.2097 269.657 93.9897 271.497 92.2197 272.397C91.4797 272.787 90.6297 272.997 89.7397 272.997C86.7197 272.997 84.2697 270.547 84.2697 267.527C84.2697 264.507 86.7197 262.057 89.7397 262.057C90.6297 262.057 91.4797 262.267 92.2197 262.657C93.9897 263.557 95.2097 265.397 95.2097 267.527Z" stroke="#1E212B" stroke-miterlimit="10"/>
<path d="M110.41 331.194C110.41 332.534 109.86 333.754 108.98 334.634C108.1 335.514 106.88 336.064 105.54 336.064H92.2197C93.9897 335.164 95.2097 333.324 95.2097 331.194C95.2097 329.064 93.9897 327.224 92.2197 326.324H105.54C108.23 326.324 110.41 328.504 110.41 331.194Z" stroke="#1E212B" stroke-miterlimit="10"/>
<path d="M95.2097 331.194C95.2097 333.324 93.9897 335.164 92.2197 336.064C91.4797 336.454 90.6297 336.664 89.7397 336.664C86.7197 336.664 84.2697 334.214 84.2697 331.194C84.2697 328.174 86.7197 325.724 89.7397 325.724C90.6297 325.724 91.4797 325.934 92.2197 326.324C93.9897 327.224 95.2097 329.064 95.2097 331.194Z" stroke="#1E212B" stroke-miterlimit="10"/>
<path d="M110.41 373.918C110.41 375.258 109.86 376.478 108.98 377.358C108.1 378.238 106.88 378.788 105.54 378.788H92.2197C93.9897 377.888 95.2097 376.048 95.2097 373.918C95.2097 371.788 93.9897 369.948 92.2197 369.048H105.54C108.23 369.048 110.41 371.228 110.41 373.918Z" stroke="#1E212B" stroke-miterlimit="10"/>
<path d="M95.2097 373.918C95.2097 376.048 93.9897 377.888 92.2197 378.788C91.4797 379.178 90.6297 379.388 89.7397 379.388C86.7197 379.388 84.2697 376.938 84.2697 373.918C84.2697 370.898 86.7197 368.448 89.7397 368.448C90.6297 368.448 91.4797 368.658 92.2197 369.048C93.9897 369.948 95.2097 371.788 95.2097 373.918Z" stroke="#1E212B" stroke-miterlimit="10"/>
<path d="M61.8637 310.03H77.3087" stroke="#1E212B" stroke-miterlimit="10"/>
<path d="M20.6587 310.03H56.2547" stroke="#1E212B" stroke-miterlimit="10"/>
<path d="M20.6587 331.524H77.3087" stroke="#1E212B" stroke-miterlimit="10"/>
<path d="M20.6587 353.018H77.3087" stroke="#1E212B" stroke-miterlimit="10"/>
<path d="M53.9547 374.512H77.3087" stroke="#1E212B" stroke-miterlimit="10"/>
<path d="M20.6587 374.512H49.4397" stroke="#1E212B" stroke-miterlimit="10"/>
<path d="M20.6587 396.006H77.3087" stroke="#1E212B" stroke-miterlimit="10"/>
<path d="M286.266 168.092C286.266 168.092 285.864 168.256 283.267 166.5C280.67 164.743 276.948 164.714 275.786 165.893C274.624 167.072 278.529 167.778 280.019 169.471C281.509 171.164 285.614 174.887 287.699 175.163C289.784 175.438 294.064 175.568 294.064 175.568C294.064 175.568 311.851 198.64 312.281 198.887C312.711 199.134 320.132 188.446 320.132 188.446L299.25 172.744C299.25 172.744 297.488 164.869 297.388 163.36C297.288 161.851 297.418 157.571 296.047 155.595C294.676 153.619 293.405 153.152 293.478 154.25C293.551 155.347 294.282 155.988 294.355 157.085C294.428 158.182 294.336 158.877 294.336 158.877C294.336 158.877 292.042 155.447 290.973 153.864C289.904 152.281 287.033 150.542 287.033 150.542C287.033 150.542 285.269 148.868 284.144 148.529C283.019 148.19 283.677 149.8 283.677 149.8C283.677 149.8 282.013 149.635 282.259 151.272C282.505 152.909 284.176 159.412 284.742 161.717C285.308 164.022 286.266 168.092 286.266 168.092Z" fill="white" stroke="#1E212B" stroke-miterlimit="10" stroke-linecap="round" stroke-linejoin="round"/>
<path d="M283.677 149.801C283.677 149.801 285.331 151.896 286.245 155.28C287.158 158.664 288.913 162.268 288.913 162.268" stroke="#1E212B" stroke-miterlimit="10" stroke-linecap="round" stroke-linejoin="round"/>
<path d="M287.033 150.543C287.033 150.543 290.89 156.764 291.255 158.117C291.62 159.471 292.433 161.346 292.433 161.346" stroke="#1E212B" stroke-miterlimit="10" stroke-linecap="round" stroke-linejoin="round"/>
<path d="M294.336 158.877L295.049 161.31" stroke="#1E212B" stroke-miterlimit="10" stroke-linecap="round" stroke-linejoin="round"/>
<path d="M307.454 179.207C307.454 179.207 301.939 171.366 299.855 172.218C297.771 173.07 293.505 178.704 294.002 180.812C294.499 182.92 298.145 184.106 298.145 184.106L307.454 179.207Z" fill="#446622" stroke="#1E212B" stroke-miterlimit="10" stroke-linecap="round" stroke-linejoin="round"/>
<path d="M372.33 210.589C372.33 210.589 365.533 210.326 362.051 211.627C358.569 212.928 352.22 209.253 350.069 208.496C342.624 205.877 329.031 196.869 323.194 189.538C315.974 180.47 307.03 172.813 301.226 176.765C295.422 180.717 295.326 184.649 295.775 186.046C296.224 187.443 298.465 196.161 318.189 217.387C327.971 227.913 335.921 231.912 343.308 235.704C350.695 239.496 358.793 243.241 358.793 243.241L372.33 210.589Z" fill="#446622" stroke="#1E212B" stroke-miterlimit="10" stroke-linecap="round" stroke-linejoin="round"/>
<path d="M361.744 162.399C361.744 162.399 353.172 167.839 352.348 170.641C351.524 173.443 351.029 176.081 349.71 177.564C348.391 179.048 344.27 179.542 343.941 180.861C343.611 182.18 346.084 185.971 346.084 185.971C346.084 185.971 347.897 192.729 348.227 194.872C348.557 197.015 350.7 200.312 352.348 200.312C353.996 200.312 358.282 199.323 358.282 199.323C358.282 199.323 359.436 208.224 359.271 211.191C359.106 214.158 358.776 214.653 360.425 214.653C362.074 214.653 368.502 210.038 369.162 209.543C369.821 209.048 371.47 196.685 372.788 192.07C374.107 187.454 373.447 173.278 370.645 168.663C367.843 164.047 364.051 161.08 361.744 162.399Z" fill="white" stroke="#1E212B" stroke-miterlimit="10" stroke-linecap="round" stroke-linejoin="round"/>
<path d="M348.537 186.711C348.537 186.711 351.688 187.499 354.183 185.135" stroke="#1E212B" stroke-miterlimit="10" stroke-linecap="round" stroke-linejoin="round"/>
<path d="M355.123 176.36C354.869 177.281 354.342 177.94 353.947 177.831C353.552 177.722 353.438 176.887 353.693 175.965C353.947 175.043 354.474 174.385 354.869 174.494C355.264 174.604 355.378 175.439 355.123 176.36Z" fill="#1E212B"/>
<path d="M354.326 170.641C354.326 170.641 356.634 168.333 358.282 171.63" stroke="#1E212B" stroke-miterlimit="10" stroke-linecap="round" stroke-linejoin="round"/>
<path d="M349.638 297.974L351.71 308.834C351.71 308.834 349.995 321.98 354.568 343.413C357.42 356.784 361.712 362.346 362.141 363.632C362.57 364.918 365.07 386.709 365.499 393.567C365.928 400.426 368.5 411.785 368.5 414.143C368.5 416.501 367.214 421.002 365.928 422.716C364.642 424.431 358.855 430.003 357.14 430.861C355.425 431.718 353.068 433.219 355.425 434.076C357.783 434.933 362.069 435.362 365.713 434.505C369.357 433.648 373.215 431.29 376.001 429.361C378.787 427.432 382.002 427.432 382.645 424.86C383.288 422.288 379.43 416.287 379.43 410.714C379.43 405.141 381.216 380.779 381.002 370.491C380.788 360.203 378.001 357.417 378.001 357.417L379.216 347.272C379.216 347.272 386.932 358.846 389.075 362.061C391.218 365.276 394.862 377.493 401.078 385.638C407.294 393.783 413.938 413.287 414.152 413.93C414.366 414.573 412.009 428.29 410.937 431.077C409.865 433.863 410.294 437.721 417.153 437.721C424.012 437.721 426.798 434.292 425.941 429.362C425.084 424.432 423.798 420.789 423.798 416.931C423.798 413.073 420.154 394.212 419.297 389.282C418.44 384.352 416.725 368.92 414.367 362.705C412.009 356.489 407.723 351.131 405.151 347.916C402.579 344.701 400.65 332.698 400.007 327.554C399.364 322.41 398.078 306.764 396.363 298.405C394.648 290.046 394.005 289.403 394.005 289.403L392.933 287.045C392.933 287.045 378.358 291.546 369.785 291.76C361.212 291.974 349.209 292.832 349.209 292.832L349.638 297.974Z" fill="#1E212B" stroke="#1E212B" stroke-miterlimit="10" stroke-linecap="round" stroke-linejoin="round"/>
<path d="M376.001 429.36C378.787 427.431 382.002 427.431 382.645 424.859C383.288 422.287 379.43 416.286 379.43 410.713C379.43 409.711 379.5 408.288 379.612 406.576C374.233 408.484 369.361 407.276 367.343 406.59C367.965 410.124 368.499 413.068 368.499 414.142C368.499 416.5 367.213 421.001 365.927 422.715C364.641 424.43 358.854 430.002 357.139 430.86C355.424 431.717 353.067 433.218 355.424 434.075C357.782 434.932 362.068 435.361 365.712 434.504C369.357 433.647 373.214 431.289 376.001 429.36Z" fill="white" stroke="#1E212B" stroke-miterlimit="10" stroke-linecap="round" stroke-linejoin="round"/>
<path d="M411.247 406.037C412.951 410.394 414.067 413.671 414.152 413.928C414.366 414.571 412.009 428.288 410.937 431.075C409.865 433.861 410.294 437.719 417.153 437.719C424.012 437.719 426.798 434.29 425.941 429.36C425.084 424.43 423.798 420.787 423.798 416.929C423.798 414.915 422.804 408.809 421.733 402.733C418.975 405.037 415.076 405.886 411.247 406.037Z" fill="white" stroke="#1E212B" stroke-miterlimit="10" stroke-linecap="round" stroke-linejoin="round"/>
<path d="M379.216 347.271C379.216 347.271 375.358 340.627 372.357 332.053C369.356 323.48 368.713 321.336 368.713 321.336L360.568 313.834" stroke="white" stroke-miterlimit="10" stroke-linecap="round" stroke-linejoin="round"/>
<path d="M382.645 297.331C382.645 297.331 381.359 304.19 391.647 305.476" stroke="white" stroke-miterlimit="10" stroke-linecap="round" stroke-linejoin="round"/>
<path d="M365.713 434.504C369.357 433.647 373.215 431.289 376.001 429.36C378.787 427.431 382.002 427.431 382.645 424.859C383.014 423.382 381.901 420.774 380.885 417.767C377.847 419.639 374.072 420.787 374.072 420.787C374.072 420.787 371.714 417.572 370 417.572C369.311 417.572 368.555 417.745 367.895 417.952C367.4 419.836 366.664 421.733 365.928 422.716C364.642 424.431 358.855 430.003 357.14 430.861C355.425 431.718 353.068 433.219 355.425 434.076C357.783 434.933 362.069 435.361 365.713 434.504Z" fill="white" stroke="#1E212B" stroke-miterlimit="10" stroke-linecap="round" stroke-linejoin="round"/>
<path d="M425.94 429.36C425.25 425.391 424.293 422.257 423.942 419.172L422.94 421.644C422.94 421.644 421.44 416.929 417.582 416.929C415.177 416.929 413.855 419.095 413.2 420.726C412.478 424.838 411.519 429.564 410.937 431.075C409.865 433.861 410.294 437.719 417.153 437.719C424.011 437.719 426.798 434.29 425.94 429.36Z" fill="white" stroke="#1E212B" stroke-miterlimit="10" stroke-linecap="round" stroke-linejoin="round"/>
<path d="M347.68 296.875C347.68 296.875 347.68 302.212 349.459 303.101C351.238 303.991 360.799 304.213 374.363 302.656C387.927 301.099 396.363 298.402 396.363 298.402L394.005 289.4L347.68 296.875Z" fill="#446622" stroke="#1E212B" stroke-miterlimit="10" stroke-linecap="round" stroke-linejoin="round"/>
<path d="M371.143 203.953C371.143 203.953 353.996 212.812 345.995 224.243C337.993 235.674 341.423 257.393 341.994 269.396C342.566 281.399 342.566 289.972 341.422 293.687C340.279 297.402 345.709 298.26 350.281 299.688C354.853 301.117 361.712 296.259 365.427 297.116C369.142 297.973 377.144 298.259 380.288 297.402C383.431 296.545 388.29 293.115 389.147 293.115C390.004 293.115 394.291 293.115 394.291 293.115C394.291 293.115 395.72 274.539 390.004 255.107C384.289 235.674 382.288 214.241 378.573 208.24C374.858 202.239 371.143 203.953 371.143 203.953Z" fill="#446622" stroke="#1E212B" stroke-miterlimit="10" stroke-linecap="round" stroke-linejoin="round"/>
<path d="M395.276 304.206C395.276 304.206 394.813 311.765 394.042 315.004C393.271 318.243 392.499 318.706 394.351 318.706C396.203 318.706 396.819 313.461 396.819 313.461L398.979 315.466C398.979 315.466 402.681 323.333 404.07 323.95C405.458 324.567 406.075 323.95 405.304 321.945C404.533 319.94 403.144 315.775 403.144 315.775L404.224 316.392C404.224 316.392 408.08 322.871 409.006 323.488C409.932 324.105 410.703 324.722 410.857 323.18C411.011 321.637 407.155 316.084 407.155 316.084L412.4 322.1C412.4 322.1 413.48 323.334 413.943 322.1C414.406 320.866 410.858 315.775 410.858 315.775L410.241 314.695C410.241 314.695 412.709 316.546 413.172 316.7C413.635 316.854 414.869 317.471 415.486 317.163C416.103 316.855 414.869 315.312 413.789 314.078C412.709 312.844 409.932 310.222 408.853 308.37C407.773 306.519 406.231 303.896 406.231 303.896L395.276 304.206Z" fill="white" stroke="#1E212B" stroke-miterlimit="10" stroke-linecap="round" stroke-linejoin="round"/>
<path d="M391.266 295.567C391.266 295.567 392.037 304.051 392.963 304.823C393.889 305.594 407.309 304.669 407.926 304.669C408.543 304.669 407.926 293.716 407.926 293.716C407.926 293.716 398.053 292.945 396.511 293.253C394.968 293.562 391.266 295.567 391.266 295.567Z" fill="#446622" stroke="#1E212B" stroke-miterlimit="10" stroke-linecap="round" stroke-linejoin="round"/>
<path d="M369.142 222.243C369.142 222.243 380.287 263.966 382.002 274.826C383.717 285.686 384.002 294.545 387.717 296.259C391.432 297.974 402.292 294.83 402.292 294.83C402.292 294.83 406.864 297.116 410.294 295.402C413.723 293.687 414.009 289.401 412.294 282.256C410.579 275.112 395.147 235.96 390.861 229.101C386.574 222.242 379.144 207.668 377.144 206.525C375.144 205.382 367.428 204.239 365.713 209.669" fill="#446622"/>
<path d="M369.142 222.243C369.142 222.243 380.287 263.966 382.002 274.826C383.717 285.686 384.002 294.545 387.717 296.259C391.432 297.974 402.292 294.83 402.292 294.83C402.292 294.83 406.864 297.116 410.294 295.402C413.723 293.687 414.009 289.401 412.294 282.256C410.579 275.112 395.147 235.96 390.861 229.101C386.574 222.242 379.144 207.668 377.144 206.525C375.144 205.382 367.428 204.239 365.713 209.669" stroke="#1E212B" stroke-miterlimit="10" stroke-linecap="round" stroke-linejoin="round"/>
<path d="M358.635 165.594L367.038 186.278C367.038 186.278 365.03 196.315 360.614 201.534C356.198 206.753 352.183 211.571 352.986 217.995C353.789 224.419 356.599 222.01 356.599 222.01C356.599 222.01 372.018 200.948 381.654 211.547L390.86 229.102C390.86 229.102 401.565 230.547 402.368 218.904C403.171 207.261 399.715 198.009 395.403 185.737C392.843 178.451 393.064 169.415 387.443 162.188C383.227 156.768 371.402 152.472 363.19 155.24C358.979 156.661 356.962 161.476 358.635 165.594Z" fill="#1E212B" stroke="#1E212B" stroke-miterlimit="10" stroke-linecap="round" stroke-linejoin="round"/>
<path d="M387.444 162.188C387.444 162.188 390.056 158.996 394.517 160.185C398.978 161.375 403.142 173.568 403.737 181.004C404.332 188.439 404.034 193.495 405.819 193.793C407.603 194.09 409.388 192.901 409.388 192.901C409.388 192.901 410.875 196.767 405.819 199.147C400.763 201.527 391.841 198.552 391.246 189.332C390.651 180.112 387.444 162.188 387.444 162.188Z" fill="#1E212B" stroke="#1E212B" stroke-miterlimit="10" stroke-linecap="round" stroke-linejoin="round"/>
<path d="M199.436 59.4861L196.569 53.9569C196.569 53.9569 197.154 43.7722 194.562 39.7096C191.97 35.647 184.839 28.4136 181.65 27.3033C178.46 26.193 175.469 28.3129 175.055 30.7106C174.64 33.1083 176.664 38.4986 178.535 42.8178C180.405 47.1381 184.852 54.0343 187.981 54.9463C191.11 55.8583 192.352 54.4118 194.285 55.4829C196.215 56.5529 200.924 63.43 199.436 59.4861Z" fill="#99BB44" stroke="#1E212B" stroke-miterlimit="10" stroke-linecap="round" stroke-linejoin="round"/>
<path d="M180.164 35.2248C178.027 31.5471 177.385 31.3446 177.385 31.3446L180.164 35.2248Z" fill="#99BB44"/>
<path d="M180.164 35.2248C178.027 31.5471 177.385 31.3446 177.385 31.3446" stroke="#1E212B" stroke-width="0.5" stroke-miterlimit="10" stroke-linecap="round" stroke-linejoin="round"/>
<path d="M197.205 57.7079C197.205 57.7079 183.712 40.9441 180.77 36.2505L197.205 57.7079Z" fill="#99BB44"/>
<path d="M197.205 57.7079C197.205 57.7079 183.712 40.9441 180.77 36.2505" stroke="#1E212B" stroke-width="0.5" stroke-miterlimit="10" stroke-linecap="round" stroke-linejoin="round"/>
<path d="M191.601 39.8464C190.921 37.7255 190.493 36.6714 190.493 36.6714L191.601 39.8464Z" fill="#99BB44"/>
<path d="M191.601 39.8464C190.921 37.7255 190.493 36.6714 190.493 36.6714" stroke="#1E212B" stroke-width="0.5" stroke-miterlimit="10" stroke-linecap="round" stroke-linejoin="round"/>
<path d="M194.773 52.4565C194.773 52.4565 193.333 51.0206 192.878 49.9697C192.441 48.9612 192.686 43.8349 191.966 41.0406" fill="#99BB44"/>
<path d="M194.773 52.4565C194.773 52.4565 193.333 51.0206 192.878 49.9697C192.441 48.9612 192.686 43.8349 191.966 41.0406" stroke="#1E212B" stroke-width="0.5" stroke-miterlimit="10" stroke-linecap="round" stroke-linejoin="round"/>
<path d="M188.367 36.3727C188.367 36.3727 188.457 41.6919 188.576 43.1957C188.695 44.6994 188.769 45.7779 189.016 46.1543C189.262 46.5297 190.873 48.3802 190.873 48.3802" fill="#99BB44"/>
<path d="M188.367 36.3727C188.367 36.3727 188.457 41.6919 188.576 43.1957C188.695 44.6994 188.769 45.7779 189.016 46.1543C189.262 46.5297 190.873 48.3802 190.873 48.3802" stroke="#1E212B" stroke-width="0.5" stroke-miterlimit="10" stroke-linecap="round" stroke-linejoin="round"/>
<path d="M185.032 40.8326C185.032 40.8326 185.354 36.1401 185.473 33.7307C185.593 31.3214 184.265 30.1072 184.265 30.1072" fill="#99BB44"/>
<path d="M185.032 40.8326C185.032 40.8326 185.354 36.1401 185.473 33.7307C185.593 31.3214 184.265 30.1072 184.265 30.1072" stroke="#1E212B" stroke-width="0.5" stroke-miterlimit="10" stroke-linecap="round" stroke-linejoin="round"/>
<path d="M181.124 30.558C181.255 30.9525 181.371 31.4022 181.446 31.8995C181.737 33.8168 181.916 36.6313 181.916 36.6313" fill="#99BB44"/>
<path d="M181.124 30.558C181.255 30.9525 181.371 31.4022 181.446 31.8995C181.737 33.8168 181.916 36.6313 181.916 36.6313" stroke="#1E212B" stroke-width="0.5" stroke-miterlimit="10" stroke-linecap="round" stroke-linejoin="round"/>
<path d="M180.261 28.7669C180.261 28.7669 180.383 28.9334 180.553 29.241L180.261 28.7669Z" fill="#99BB44"/>
<path d="M180.261 28.7669C180.261 28.7669 180.383 28.9334 180.553 29.241" stroke="#1E212B" stroke-width="0.5" stroke-miterlimit="10" stroke-linecap="round" stroke-linejoin="round"/>
<path d="M185.836 48.0736C185.191 48.0641 184.552 47.9686 184.047 47.7131C182.406 46.8838 180.855 45.2263 180.855 45.2263" fill="#99BB44"/>
<path d="M185.836 48.0736C185.191 48.0641 184.552 47.9686 184.047 47.7131C182.406 46.8838 180.855 45.2263 180.855 45.2263" stroke="#1E212B" stroke-width="0.5" stroke-miterlimit="10" stroke-linecap="round" stroke-linejoin="round"/>
<path d="M188.754 47.6855C188.754 47.6855 187.892 47.9262 186.837 48.0291L188.754 47.6855Z" fill="#99BB44"/>
<path d="M188.754 47.6855C188.754 47.6855 187.892 47.9262 186.837 48.0291" stroke="#1E212B" stroke-width="0.5" stroke-miterlimit="10" stroke-linecap="round" stroke-linejoin="round"/>
<path d="M181.19 42.0436C180.812 41.9312 180.441 41.7679 180.102 41.5356C178.29 40.2917 177.425 39.174 177.425 39.174" fill="#99BB44"/>
<path d="M181.19 42.0436C180.812 41.9312 180.441 41.7679 180.102 41.5356C178.29 40.2917 177.425 39.174 177.425 39.174" stroke="#1E212B" stroke-width="0.5" stroke-miterlimit="10" stroke-linecap="round" stroke-linejoin="round"/>
<path d="M184.63 42.0471C184.63 42.0471 183.453 42.3642 182.132 42.2263L184.63 42.0471Z" fill="#99BB44"/>
<path d="M184.63 42.0471C184.63 42.0471 183.453 42.3642 182.132 42.2263" stroke="#1E212B" stroke-width="0.5" stroke-miterlimit="10" stroke-linecap="round" stroke-linejoin="round"/>
<path d="M187.624 52.5923C187.133 52.4799 186.65 52.2986 186.203 52.0208L187.624 52.5923Z" fill="#99BB44"/>
<path d="M187.624 52.5923C187.133 52.4799 186.65 52.2986 186.203 52.0208" stroke="#1E212B" stroke-width="0.5" stroke-miterlimit="10" stroke-linecap="round" stroke-linejoin="round"/>
<path d="M192.065 52.2348C192.065 52.2348 190.431 52.8414 188.626 52.7332L192.065 52.2348Z" fill="#99BB44"/>
<path d="M192.065 52.2348C192.065 52.2348 190.431 52.8414 188.626 52.7332" stroke="#1E212B" stroke-width="0.5" stroke-miterlimit="10" stroke-linecap="round" stroke-linejoin="round"/>
<path d="M283.742 373.407L284.568 379.628C284.568 379.628 279.682 387.927 280.82 392.759C281.957 397.592 286.731 407.552 289.754 410.21C292.776 412.867 296.928 412.686 298.381 410.882C299.834 409.078 299.871 403.428 299.628 398.767C299.386 394.105 297.403 385.877 294.365 383.419C291.326 380.962 289.366 381.516 287.701 379.568C286.038 377.623 283.762 369.27 283.742 373.407Z" fill="#446622" stroke="#1E212B" stroke-miterlimit="10" stroke-linecap="round" stroke-linejoin="round"/>
<path d="M294.681 404.311C295.482 408.572 296.099 409.09 296.099 409.09" stroke="#1E212B" stroke-width="0.5" stroke-miterlimit="10" stroke-linecap="round" stroke-linejoin="round"/>
<path d="M285.439 376.113C285.439 376.113 293.189 397.562 294.447 403.117" stroke="#1E212B" stroke-width="0.5" stroke-miterlimit="10" stroke-linecap="round" stroke-linejoin="round"/>
<path d="M284.112 394.239C283.97 396.399 283.998 397.521 283.998 397.521" stroke="#1E212B" stroke-width="0.5" stroke-miterlimit="10" stroke-linecap="round" stroke-linejoin="round"/>
<path d="M285.906 381.865C285.906 381.865 286.88 383.855 286.938 384.989C286.995 386.078 284.59 390.281 284.211 393.032" stroke="#1E212B" stroke-width="0.5" stroke-miterlimit="10" stroke-linecap="round" stroke-linejoin="round"/>
<path d="M286.196 398.92C286.196 398.92 288.317 394.373 288.814 393.037C289.312 391.701 289.68 390.749 289.568 390.298C289.455 389.848 288.466 387.414 288.466 387.414" stroke="#1E212B" stroke-width="0.5" stroke-miterlimit="10" stroke-linecap="round" stroke-linejoin="round"/>
<path d="M291.701 396.945C291.701 396.945 289.392 400.74 288.257 402.713C287.121 404.687 288.066 406.429 288.066 406.429" stroke="#1E212B" stroke-width="0.5" stroke-miterlimit="10" stroke-linecap="round" stroke-linejoin="round"/>
<path d="M291.685 407.74C291.707 407.336 291.768 406.894 291.893 406.432C292.375 404.654 293.354 402.178 293.354 402.178" stroke="#1E212B" stroke-width="0.5" stroke-miterlimit="10" stroke-linecap="round" stroke-linejoin="round"/>
<path d="M291.881 409.72C291.881 409.72 291.817 409.514 291.76 409.162" stroke="#1E212B" stroke-width="0.5" stroke-miterlimit="10" stroke-linecap="round" stroke-linejoin="round"/>
<path d="M293.843 390.388C294.543 390.743 295.202 391.168 295.647 391.657C297.094 393.242 298.097 395.48 298.097 395.48" stroke="#1E212B" stroke-width="0.5" stroke-miterlimit="10" stroke-linecap="round" stroke-linejoin="round"/>
<path d="M290.492 389.144C290.492 389.144 291.535 389.405 292.73 389.886" stroke="#1E212B" stroke-width="0.5" stroke-miterlimit="10" stroke-linecap="round" stroke-linejoin="round"/>
<path d="M296.404 397.991C296.77 398.29 297.108 398.628 297.38 399.007C298.842 401.035 299.321 402.447 299.321 402.447" stroke="#1E212B" stroke-width="0.5" stroke-miterlimit="10" stroke-linecap="round" stroke-linejoin="round"/>
<path d="M292.647 396.135C292.647 396.135 294.065 396.501 295.451 397.329" stroke="#1E212B" stroke-width="0.5" stroke-miterlimit="10" stroke-linecap="round" stroke-linejoin="round"/>
<path d="M293.773 385.603C294.263 385.962 294.715 386.376 295.088 386.852" stroke="#1E212B" stroke-width="0.5" stroke-miterlimit="10" stroke-linecap="round" stroke-linejoin="round"/>
<path d="M288.772 383.512C288.772 383.512 290.811 383.88 292.738 384.944" stroke="#1E212B" stroke-width="0.5" stroke-miterlimit="10" stroke-linecap="round" stroke-linejoin="round"/>
<path d="M28.4242 134.948L34.6578 134.22C34.6578 134.22 42.8778 139.237 47.7279 138.176C52.5776 137.116 62.6123 132.5 65.3177 129.52C68.0231 126.54 67.9079 122.386 66.1267 120.904C64.3455 119.423 58.6973 119.297 54.0331 119.465C49.3681 119.633 41.1089 121.486 38.6037 124.485C36.0984 127.484 36.6214 129.453 34.6478 131.087C32.6764 132.719 24.2882 134.862 28.4242 134.948Z" fill="#446622" stroke="#1E212B" stroke-miterlimit="10" stroke-linecap="round" stroke-linejoin="round"/>
<path d="M59.4976 124.5C63.7714 123.767 64.2987 123.157 64.2987 123.157" stroke="#1E212B" stroke-width="0.5" stroke-miterlimit="10" stroke-linecap="round" stroke-linejoin="round"/>
<path d="M31.1575 133.294C31.1575 133.294 52.7259 125.884 58.3003 124.715" stroke="#1E212B" stroke-width="0.5" stroke-miterlimit="10" stroke-linecap="round" stroke-linejoin="round"/>
<path d="M49.2596 134.908C51.4171 135.084 52.5398 135.074 52.5398 135.074" stroke="#1E212B" stroke-width="0.5" stroke-miterlimit="10" stroke-linecap="round" stroke-linejoin="round"/>
<path d="M36.916 132.918C36.916 132.918 38.9213 131.976 40.0559 131.935C41.1449 131.896 45.3099 134.368 48.0547 134.79" stroke="#1E212B" stroke-width="0.5" stroke-miterlimit="10" stroke-linecap="round" stroke-linejoin="round"/>
<path d="M53.9729 132.898C53.9729 132.898 49.4603 130.705 48.1324 130.187C46.8046 129.669 45.8582 129.285 45.4054 129.39C44.9535 129.496 42.5048 130.446 42.5048 130.446" stroke="#1E212B" stroke-width="0.5" stroke-miterlimit="10" stroke-linecap="round" stroke-linejoin="round"/>
<path d="M52.0853 127.363C52.0853 127.363 55.8435 129.732 57.7988 130.898C59.7536 132.065 61.5109 131.148 61.5109 131.148" stroke="#1E212B" stroke-width="0.5" stroke-miterlimit="10" stroke-linecap="round" stroke-linejoin="round"/>
<path d="M62.8792 127.55C62.4757 127.521 62.0341 127.453 61.5748 127.321C59.8046 126.811 57.3437 125.793 57.3437 125.793" stroke="#1E212B" stroke-width="0.5" stroke-miterlimit="10" stroke-linecap="round" stroke-linejoin="round"/>
<path d="M64.8622 127.385C64.8622 127.385 64.6545 127.446 64.302 127.497" stroke="#1E212B" stroke-width="0.5" stroke-miterlimit="10" stroke-linecap="round" stroke-linejoin="round"/>
<path d="M45.5633 125.117C45.9296 124.423 46.3653 123.771 46.8604 123.334C48.4687 121.912 50.7221 120.944 50.7221 120.944" stroke="#1E212B" stroke-width="0.5" stroke-miterlimit="10" stroke-linecap="round" stroke-linejoin="round"/>
<path d="M44.2662 128.447C44.2662 128.447 44.5435 127.41 45.0438 126.222" stroke="#1E212B" stroke-width="0.5" stroke-miterlimit="10" stroke-linecap="round" stroke-linejoin="round"/>
<path d="M53.206 122.677C53.5107 122.315 53.8541 121.983 54.237 121.717C56.2886 120.287 57.7074 119.831 57.7074 119.831" stroke="#1E212B" stroke-width="0.5" stroke-miterlimit="10" stroke-linecap="round" stroke-linejoin="round"/>
<path d="M51.2902 126.404C51.2902 126.404 51.6788 124.992 52.5294 123.619" stroke="#1E212B" stroke-width="0.5" stroke-miterlimit="10" stroke-linecap="round" stroke-linejoin="round"/>
<path d="M40.7775 125.111C41.1447 124.627 41.5658 124.181 42.0476 123.816" stroke="#1E212B" stroke-width="0.5" stroke-miterlimit="10" stroke-linecap="round" stroke-linejoin="round"/>
<path d="M38.6078 130.078C38.6078 130.078 39.0077 128.046 40.1022 126.136" stroke="#1E212B" stroke-width="0.5" stroke-miterlimit="10" stroke-linecap="round" stroke-linejoin="round"/>
</svg>
