<svg width="434" height="318" viewBox="0 0 434 318" fill="none" xmlns="http://www.w3.org/2000/svg">
<path d="M342.962 46.4083C342.962 46.4083 310.722 3.21929 257.193 0.178291C203.663 -2.86271 173.857 33.6343 151.959 61.0073C130.061 88.3803 63.7573 72.5643 23.6093 114.537C-16.5387 156.509 2.92725 180.84 20.5672 205.172C38.2072 229.504 55.2402 233.153 55.2402 253.227C55.2402 273.301 64.9732 300.065 103.295 306.148C141.617 312.231 181.156 275.125 208.529 289.116C235.902 303.107 281.828 314.056 309.962 306.148C338.095 298.24 329.579 269.042 359.994 259.309C390.409 249.576 419.607 219.162 415.349 186.314C411.091 153.466 386.759 147.383 376.418 115.752C366.077 84.1223 351.478 59.7903 342.962 46.4083Z" fill="#446622"/>
<path opacity="0.7" d="M342.962 46.4083C342.962 46.4083 310.722 3.21929 257.193 0.178291C203.663 -2.86271 173.857 33.6343 151.959 61.0073C130.061 88.3803 63.7573 72.5643 23.6093 114.537C-16.5387 156.509 2.92725 180.84 20.5672 205.172C38.2072 229.504 55.2402 233.153 55.2402 253.227C55.2402 273.301 64.9732 300.065 103.295 306.148C141.617 312.231 181.156 275.125 208.529 289.116C235.902 303.107 281.828 314.056 309.962 306.148C338.095 298.24 329.579 269.042 359.994 259.309C390.409 249.576 419.607 219.162 415.349 186.314C411.091 153.466 386.759 147.383 376.418 115.752C366.077 84.1223 351.478 59.7903 342.962 46.4083Z" fill="white"/>
<path d="M379.604 312.992C379.604 314.756 323.638 316.186 254.6 316.186C185.562 316.186 129.596 314.756 129.596 312.992C129.596 311.228 185.562 309.798 254.6 309.798C323.638 309.798 379.604 311.228 379.604 312.992Z" fill="#1E212B"/>
<path d="M274.303 135.316H156.842C153.188 135.316 150.227 132.354 150.227 128.7V82.7863C150.227 79.1323 153.189 76.1703 156.842 76.1703H274.303C277.957 76.1703 280.919 79.1323 280.919 82.7863V128.7C280.919 132.354 277.957 135.316 274.303 135.316Z" fill="#446622"/>
<path opacity="0.1" d="M274.303 135.316H156.842C153.188 135.316 150.227 132.354 150.227 128.7V82.7863C150.227 79.1323 153.189 76.1703 156.842 76.1703H274.303C277.957 76.1703 280.919 79.1323 280.919 82.7863V128.7C280.919 132.354 277.957 135.316 274.303 135.316Z" fill="black"/>
<path d="M252.36 112.976H167.997C166.696 112.976 165.641 111.921 165.641 110.619C165.641 109.318 166.696 108.263 167.997 108.263H252.36C253.661 108.263 254.716 109.318 254.716 110.619C254.716 111.921 253.661 112.976 252.36 112.976Z" fill="white"/>
<path d="M252.36 123.816H167.997C166.696 123.816 165.641 122.761 165.641 121.46C165.641 120.159 166.696 119.103 167.997 119.103H252.36C253.661 119.103 254.716 120.158 254.716 121.46C254.716 122.761 253.661 123.816 252.36 123.816Z" fill="white"/>
<path d="M172.71 102.136C177.395 102.136 181.193 98.3383 181.193 93.6533C181.193 88.9683 177.395 85.1703 172.71 85.1703C168.025 85.1703 164.227 88.9683 164.227 93.6533C164.227 98.3383 168.025 102.136 172.71 102.136Z" fill="white"/>
<path d="M65.8752 213.668C65.7862 213.703 65.3852 207.402 65.4062 207.001C65.6422 202.366 68.8212 193.549 73.8432 192.208C77.4612 191.242 80.7942 193.875 81.3662 197.422C81.9502 201.044 79.5922 204.9 77.1952 207.404C74.3802 210.343 65.8812 213.665 65.8752 213.668Z" fill="#1E212B"/>
<path d="M59.3152 189.515C59.2222 189.536 59.7802 183.247 59.8612 182.854C60.7962 178.308 65.2752 170.074 70.4422 169.51C74.1642 169.104 77.0612 172.211 77.0892 175.803C77.1172 179.472 74.2032 182.926 71.4542 185.038C68.2262 187.516 59.3222 189.513 59.3152 189.515Z" fill="#1E212B"/>
<path d="M57.6573 161.004C57.5643 161.025 58.1223 154.736 58.2033 154.343C59.1383 149.797 63.6173 141.563 68.7833 140.999C72.5053 140.592 75.4023 143.7 75.4303 147.292C75.4593 150.961 72.5443 154.415 69.7953 156.527C66.5683 159.006 57.6643 161.002 57.6573 161.004Z" fill="#1E212B"/>
<path d="M54.7883 134.188C54.6953 134.209 55.2533 127.92 55.3343 127.527C56.2693 122.981 60.7483 114.747 65.9153 114.183C69.6373 113.776 72.5343 116.884 72.5613 120.476C72.5903 124.145 69.6753 127.599 66.9263 129.711C63.6983 132.19 54.7943 134.186 54.7883 134.188Z" fill="#1E212B"/>
<path d="M46.2402 112.639C46.1562 112.684 45.0332 106.471 45.0072 106.07C44.7082 101.439 46.8542 92.3143 51.6882 90.4063C55.1712 89.0313 58.7852 91.2633 59.7602 94.7203C60.7562 98.2513 58.8572 102.352 56.7642 105.115C54.3072 108.358 46.2462 112.636 46.2402 112.639Z" fill="#1E212B"/>
<path d="M63.2593 213.738C63.3533 213.725 60.6223 208.033 60.4083 207.693C57.9363 203.765 50.8503 197.629 45.8153 198.916C42.1873 199.843 40.5673 203.769 41.8023 207.143C43.0643 210.588 47.0063 212.798 50.3223 213.81C54.2153 214.997 63.2533 213.739 63.2593 213.738Z" fill="#1E212B"/>
<path d="M57.9813 186.28C58.0723 186.253 54.5103 181.04 54.2473 180.737C51.2083 177.229 43.2753 172.237 38.4923 174.272C35.0463 175.738 34.0393 179.864 35.7723 183.012C37.5413 186.226 41.7733 187.814 45.2033 188.311C49.2313 188.894 57.9753 186.282 57.9813 186.28Z" fill="#1E212B"/>
<path d="M56.4692 159.385C56.5602 159.358 52.9982 154.145 52.7352 153.842C49.6962 150.334 41.7632 145.342 36.9802 147.377C33.5342 148.843 32.5272 152.969 34.2602 156.117C36.0292 159.331 40.2612 160.919 43.6912 161.417C47.7202 161.999 56.4632 159.386 56.4692 159.385Z" fill="#1E212B"/>
<path d="M53.8813 134.7C53.9723 134.673 50.4103 129.46 50.1473 129.157C47.1083 125.649 39.1753 120.657 34.3923 122.692C30.9463 124.158 29.9393 128.284 31.6723 131.432C33.4413 134.646 37.6733 136.234 41.1033 136.731C45.1313 137.315 53.8753 134.702 53.8813 134.7Z" fill="#1E212B"/>
<path d="M46.2882 113.453C46.3762 113.416 42.2632 108.626 41.9682 108.353C38.5622 105.2 30.1292 101.11 25.5992 103.657C22.3352 105.492 21.7872 109.705 23.8552 112.642C25.9672 115.642 30.3472 116.755 33.8112 116.873C37.8792 117.013 46.2822 113.456 46.2882 113.453Z" fill="#1E212B"/>
<path d="M35.3772 95.8863C35.4722 95.8933 34.0292 89.7473 33.8932 89.3693C32.3232 85.0023 26.7232 77.4853 21.5292 77.6583C17.7872 77.7833 15.3602 81.2693 15.8412 84.8293C16.3332 88.4653 19.7072 91.4713 22.7272 93.1723C26.2732 95.1703 35.3702 95.8853 35.3772 95.8863Z" fill="#1E212B"/>
<path d="M74.6222 246.069C74.6222 246.069 73.5482 243.624 71.8632 239.329C70.1772 235.027 67.8552 228.852 65.4092 221.326C64.1772 217.566 62.9232 213.466 61.7112 209.096C61.0852 206.9 60.5262 204.691 59.9142 202.316C59.6602 201.159 59.4032 199.99 59.1432 198.81C58.8602 197.645 58.7102 196.379 58.4852 195.152C57.6892 190.207 57.2152 185.111 56.9602 179.92C56.7032 174.734 56.6042 169.476 56.4822 164.232C56.3632 158.987 56.2152 153.753 55.7972 148.627C55.3872 143.502 54.7212 138.483 53.6432 133.717C52.5652 128.956 50.9232 124.479 49.1802 120.363C47.4362 116.222 45.4342 112.459 43.5022 109.041C41.5762 105.615 39.6012 102.597 37.8312 99.9383C36.0382 97.2933 34.3942 95.0413 33.0092 93.2113C30.2302 89.5563 28.4862 87.5893 28.4862 87.5893C28.4862 87.5893 30.2722 89.5173 33.1332 93.1143C34.5592 94.9163 36.2542 97.1343 38.1082 99.7463C39.9402 102.372 41.9862 105.355 43.9952 108.753C46.0102 112.143 48.1052 115.882 49.9552 120.02C51.8152 124.166 53.5612 128.621 54.7662 133.445C55.9662 138.258 56.7512 143.329 57.2772 148.493C57.8112 153.66 58.0742 158.922 58.3072 164.169C58.5432 169.417 58.7562 174.655 59.1222 179.785C59.4842 184.909 60.0692 189.945 60.9402 194.699C61.1852 195.887 61.3392 197.048 61.6522 198.228C61.9372 199.402 62.2202 200.566 62.4992 201.717C63.1192 203.915 63.7452 206.187 64.4042 208.316C65.6972 212.614 67.0262 216.646 68.3272 220.341C70.9102 227.74 73.3422 233.804 75.1002 238.017C76.8642 242.238 77.9532 244.577 77.9532 244.577C78.3792 245.491 77.9832 246.576 77.0692 247.002C76.1552 247.428 75.0702 247.032 74.6442 246.118C74.6402 246.109 74.6352 246.099 74.6312 246.09L74.6222 246.069Z" fill="#1E212B"/>
<path d="M98.1712 207.307C98.0762 207.315 99.4832 201.16 99.6162 200.782C101.16 196.405 106.715 188.856 111.91 188.998C115.653 189.101 118.101 192.572 117.641 196.135C117.171 199.774 113.814 202.8 110.805 204.519C107.271 206.537 98.1782 207.307 98.1712 207.307Z" fill="#1E212B"/>
<path d="M98.7482 182.286C98.6532 182.28 100.976 176.409 101.165 176.055C103.354 171.963 109.988 165.341 115.102 166.269C118.786 166.937 120.68 170.74 119.686 174.192C118.67 177.718 114.894 180.201 111.658 181.444C107.859 182.903 98.7542 182.287 98.7482 182.286Z" fill="#1E212B"/>
<path d="M105.262 154.48C105.167 154.474 107.49 148.603 107.679 148.249C109.868 144.157 116.502 137.535 121.616 138.463C125.3 139.131 127.194 142.934 126.2 146.386C125.184 149.912 121.408 152.395 118.172 153.638C114.373 155.097 105.269 154.481 105.262 154.48Z" fill="#1E212B"/>
<path d="M110.134 127.955C110.039 127.949 112.362 122.078 112.551 121.724C114.74 117.632 121.374 111.01 126.488 111.938C130.172 112.606 132.066 116.409 131.072 119.861C130.056 123.387 126.28 125.87 123.044 127.113C119.245 128.572 110.141 127.955 110.134 127.955Z" fill="#1E212B"/>
<path d="M108.065 104.865C107.972 104.884 108.661 98.6083 108.751 98.2173C109.781 93.6923 114.432 85.5543 119.609 85.0983C123.339 84.7703 126.17 87.9373 126.122 91.5293C126.073 95.1983 123.087 98.5903 120.294 100.644C117.015 103.054 108.071 104.863 108.065 104.865Z" fill="#1E212B"/>
<path d="M95.6442 206.632C95.7382 206.646 94.7382 200.412 94.6292 200.026C93.3752 195.558 88.3262 187.661 83.1332 187.462C79.3912 187.319 76.7222 190.623 76.9472 194.209C77.1782 197.871 80.3292 201.11 83.2202 203.023C86.6142 205.268 95.6372 206.631 95.6442 206.632Z" fill="#1E212B"/>
<path d="M98.3881 178.805C98.4831 178.805 96.5501 172.795 96.3841 172.429C94.4681 168.202 88.2811 161.161 83.1171 161.752C79.3971 162.178 77.2581 165.848 78.0251 169.358C78.8081 172.943 82.4141 175.667 85.5611 177.12C89.2561 178.825 98.3821 178.805 98.3881 178.805Z" fill="#1E212B"/>
<path d="M104.584 152.59C104.679 152.59 102.746 146.58 102.58 146.214C100.664 141.987 94.4772 134.946 89.3132 135.537C85.5932 135.963 83.4542 139.633 84.2212 143.143C85.0042 146.728 88.6092 149.452 91.7572 150.905C95.4522 152.61 104.577 152.59 104.584 152.59Z" fill="#1E212B"/>
<path d="M109.119 128.188C109.214 128.188 107.281 122.178 107.115 121.812C105.199 117.585 99.0122 110.544 93.8482 111.135C90.1282 111.561 87.9892 115.231 88.7562 118.741C89.5392 122.326 93.1442 125.05 96.2922 126.503C99.9872 128.208 109.113 128.188 109.119 128.188Z" fill="#1E212B"/>
<path d="M107.88 105.659C107.974 105.648 105.393 99.8873 105.188 99.5423C102.819 95.5513 95.8962 89.2323 90.8292 90.3873C87.1782 91.2193 85.4562 95.1023 86.6032 98.5063C87.7752 101.983 91.6582 104.295 94.9462 105.393C98.8052 106.682 107.873 105.66 107.88 105.659Z" fill="#1E212B"/>
<path d="M102.412 85.7153C102.501 85.7493 102.865 79.4463 102.842 79.0453C102.579 74.4113 99.3462 65.6133 94.3172 64.3033C90.6942 63.3593 87.3762 66.0113 86.8252 69.5613C86.2632 73.1873 88.6432 77.0283 91.0552 79.5183C93.8872 82.4413 102.406 85.7133 102.412 85.7153Z" fill="#1E212B"/>
<path d="M97.3472 240.859C97.3472 240.859 97.0122 238.209 96.6182 233.613C96.2242 229.009 95.7532 222.429 95.5482 214.518C95.4362 210.563 95.3992 206.276 95.4792 201.741C95.5032 199.458 95.5952 197.181 95.6842 194.73C95.7692 193.549 95.8552 192.355 95.9422 191.149C96.0022 189.952 96.2182 188.695 96.3512 187.455C96.9942 182.488 97.9882 177.467 99.2182 172.418C100.446 167.373 101.846 162.304 103.22 157.241C104.597 152.179 105.943 147.118 106.999 142.085C108.063 137.055 108.851 132.054 109.172 127.178C109.492 122.307 109.19 117.548 108.69 113.106C108.195 108.64 107.346 104.463 106.464 100.637C105.592 96.8053 104.556 93.3503 103.614 90.2973C102.647 87.2513 101.71 84.6253 100.903 82.4773C99.2772 78.1833 98.1652 75.8023 98.1652 75.8023C98.1652 75.8023 99.3292 78.1583 101.049 82.4203C101.904 84.5533 102.899 87.1613 103.934 90.1923C104.944 93.2303 106.058 96.6723 107.017 100.501C107.986 104.324 108.931 108.505 109.528 112.998C110.133 117.501 110.54 122.269 110.324 127.236C110.107 132.192 109.417 137.276 108.454 142.377C107.497 147.482 106.253 152.602 104.985 157.699C103.72 162.797 102.434 167.88 101.327 172.903C100.218 177.919 99.3472 182.913 98.8312 187.718C98.7292 188.927 98.5462 190.084 98.5112 191.304C98.4502 192.511 98.3912 193.707 98.3312 194.89C98.3012 197.174 98.2552 199.53 98.2822 201.758C98.3002 206.246 98.4292 210.489 98.6252 214.403C98.9982 222.231 99.6062 228.737 100.094 233.276C100.585 237.824 100.965 240.376 100.965 240.376C101.113 241.373 100.425 242.301 99.4292 242.45C98.4322 242.598 97.5042 241.91 97.3552 240.913C97.3532 240.903 97.3522 240.893 97.3512 240.882L97.3472 240.859Z" fill="#1E212B"/>
<path d="M108.946 306.985H66.6093L54.7013 237.639H120.853L108.946 306.985Z" fill="#1E212B"/>
<path d="M183.528 313.54C234.378 313.54 275.6 272.318 275.6 221.468C275.6 170.618 234.378 129.396 183.528 129.396C132.678 129.396 91.4563 170.618 91.4563 221.468C91.4563 272.318 132.678 313.54 183.528 313.54Z" fill="#446622" stroke="#1E212B" stroke-width="0.9124" stroke-miterlimit="10" stroke-linecap="round" stroke-linejoin="round"/>
<path d="M159.138 282.022C151.038 278.963 144.03 274.651 138.117 269.087C132.202 263.523 127.57 256.53 124.219 248.109C120.868 239.69 119.194 230.381 119.194 220.183C119.194 211.676 120.606 203.722 123.433 196.322C126.259 188.922 130.076 182.57 134.883 177.268C139.691 171.966 145.241 167.39 151.534 163.546C157.827 159.7 164.484 156.845 171.506 154.98C178.527 153.115 185.592 152.182 192.702 152.182C198.82 152.182 204.69 152.882 210.313 154.28C215.936 155.679 221.209 157.864 226.134 160.835C231.057 163.807 235.355 167.449 239.026 171.761C242.697 176.074 245.581 181.303 247.679 187.45C249.777 193.598 250.826 200.342 250.826 207.684C250.826 214.56 249.572 221.189 247.067 227.569C244.561 233.95 241.355 239.34 237.453 243.74C233.548 248.14 229.221 251.649 224.473 254.272C219.724 256.894 215.106 258.205 210.619 258.205C207.181 258.205 204.078 257.186 201.311 255.146C198.543 253.107 197.072 250.222 196.897 246.493C191.186 254.534 183.465 258.554 173.735 258.554C165.81 258.554 159.488 255.844 154.768 250.426C150.049 245.007 147.689 238.335 147.689 230.411C147.689 224.526 148.723 218.64 150.792 212.755C152.859 206.87 155.672 201.539 159.226 196.76C162.78 191.983 167.252 188.094 172.643 185.092C178.032 182.092 183.757 180.591 189.818 180.591C194.188 180.591 198.193 181.568 201.836 183.519C205.477 185.472 208.26 188.312 210.183 192.04L210.97 189.506C212.018 186.244 214.291 184.611 217.788 184.611C219.419 184.611 220.816 185.078 221.983 186.01C223.148 186.943 223.731 188.253 223.731 189.943C223.731 190.643 223.613 191.342 223.381 192.041L210.97 233.296C209.572 238.016 208.872 241.25 208.872 242.998C208.872 245.97 210.386 247.456 213.417 247.456C217.378 247.456 221.268 245.636 225.085 241.994C228.9 238.353 232.004 233.515 234.393 227.485C236.782 221.453 237.978 215.204 237.978 208.737C237.978 202.677 237.161 197.111 235.53 192.042C233.898 186.973 231.684 182.676 228.888 179.15C226.09 175.625 222.769 172.653 218.923 170.235C215.077 167.817 210.97 166.04 206.6 164.903C202.229 163.766 197.654 163.198 192.877 163.198C187.049 163.198 181.266 164.016 175.527 165.646C169.787 167.278 164.324 169.74 159.139 173.031C153.952 176.324 149.363 180.228 145.373 184.744C141.381 189.26 138.206 194.664 135.846 200.957C133.486 207.251 132.306 213.981 132.306 221.148C132.306 230.007 133.762 237.974 136.676 245.054C139.59 252.134 143.566 257.874 148.607 262.273C153.647 266.673 159.415 270.039 165.913 272.368C172.41 274.7 179.359 275.865 186.76 275.865C194.452 275.865 201.91 274.728 209.136 272.456C209.777 272.224 210.534 272.107 211.408 272.107C213.039 272.107 214.349 272.647 215.341 273.725C216.332 274.804 216.827 276.04 216.827 277.439C216.827 280.004 215.632 281.634 213.243 282.334C203.629 285.188 194.334 286.616 185.362 286.616C175.977 286.611 167.236 285.081 159.138 282.022ZM190.735 242.34C194.668 239.398 197.334 235.741 198.733 231.371L206.774 203.226L206.249 202.09C205.9 201.391 205.288 200.532 204.414 199.511C203.54 198.493 202.505 197.472 201.311 196.452C200.116 195.433 198.514 194.559 196.504 193.83C194.494 193.103 192.352 192.738 190.079 192.738C187.514 192.738 185.023 193.262 182.606 194.311C180.187 195.359 178.017 196.773 176.094 198.55C174.171 200.329 172.408 202.396 170.806 204.756C169.203 207.116 167.863 209.607 166.785 212.229C165.706 214.851 164.876 217.548 164.294 220.315C163.711 223.083 163.42 225.749 163.42 228.313C163.42 230.178 163.521 231.897 163.726 233.47C163.93 235.043 164.264 236.529 164.731 237.928C165.196 239.327 165.793 240.566 166.523 241.642C167.251 242.722 168.125 243.639 169.145 244.396C170.164 245.154 171.374 245.737 172.773 246.144C174.171 246.552 175.745 246.756 177.493 246.756C182.387 246.754 186.801 245.283 190.735 242.34Z" fill="#99BB44"/>
<path d="M308.738 144.038C308.738 144.038 305.77 149.616 305.298 150.404C304.826 151.191 303.251 155.443 303.723 156.387C304.195 157.332 304.668 157.962 305.612 158.119C306.557 158.277 307.344 160.008 308.919 160.323C310.494 160.638 311.911 160.638 311.911 160.638C311.911 160.638 312.698 161.268 313.643 160.953C314.588 160.638 315.375 160.166 316.005 157.489C316.635 154.812 316.32 153.395 316.32 153.395L316.038 147.991L308.738 144.038Z" fill="white" stroke="#1E212B" stroke-width="0.9124" stroke-miterlimit="10" stroke-linecap="round" stroke-linejoin="round"/>
<path d="M326.074 294.287C326.074 294.287 321.804 301.245 321.804 302.925C321.804 304.605 327.685 307.686 330.206 308.806C332.727 309.926 337.207 310.766 340.848 311.326C344.489 311.886 352.05 313.286 349.81 310.486C347.57 307.685 334.127 300.124 333.567 299.284C333.007 298.444 331.245 297.024 331.245 297.024L326.074 294.287Z" fill="white" stroke="#1E212B" stroke-width="0.9124" stroke-miterlimit="10" stroke-linecap="round" stroke-linejoin="round"/>
<path d="M332.765 305.236L334.263 307.483C335.888 309.921 338.064 311.952 340.642 313.343C344.639 315.5 350.807 317.972 356.184 316.489C365.004 314.056 342.802 300.673 342.802 300.673C342.802 300.673 334.894 306.148 332.765 305.236Z" fill="white" stroke="#1E212B" stroke-width="0.9124" stroke-miterlimit="10" stroke-linecap="round" stroke-linejoin="round"/>
<path d="M335.31 306.3C335.31 306.3 338.418 311.739 345.67 313.811C352.922 315.883 354.994 315.365 356.548 313.293" stroke="#1E212B" stroke-width="0.6843" stroke-miterlimit="10" stroke-linecap="round" stroke-linejoin="round"/>
<path d="M322.36 301.638C322.36 301.638 330.368 307.371 334.263 307.483" stroke="#1E212B" stroke-width="0.6843" stroke-miterlimit="10" stroke-linecap="round" stroke-linejoin="round"/>
<path d="M304.987 145.958C304.987 145.958 312.083 157.725 313.604 160.463C315.125 163.2 334.286 185.099 341.89 203.956C349.494 222.813 356.793 239.845 356.489 245.32C356.185 250.795 331.245 297.025 331.245 297.025L326.074 294.288C326.074 294.288 333.982 250.795 333.069 246.233C332.157 241.671 304.175 196.353 304.175 196.353C304.175 196.353 291.097 187.229 285.622 176.584" fill="#1E212B"/>
<path d="M306 175.365C306 175.365 302.046 183.881 302.046 185.098C302.046 186.315 324.249 251.706 330.636 266.609C337.023 281.512 341.281 295.807 341.281 295.807C341.281 295.807 343.714 298.849 341.889 301.89C340.064 304.931 332.765 307.06 331.244 304.323C329.723 301.586 314.82 287.291 308.433 272.996C302.046 258.701 292.922 234.37 287.751 225.245C282.58 216.121 276.193 204.867 269.502 189.052C262.811 173.237 255.915 156.103 255.915 156.103C255.915 156.103 268.689 157.624 282.68 153.062C296.671 148.5 302.653 139.774 302.653 139.774C302.653 139.774 306.212 148.873 307.132 150.635" fill="#1E212B"/>
<path d="M308.082 200.706L301.081 182.503L308.922 175.781" stroke="white" stroke-width="0.6843" stroke-miterlimit="10" stroke-linecap="round" stroke-linejoin="round"/>
<path d="M315.643 181.942L301.08 182.502C301.08 182.502 301.08 176.901 298.559 173.26C296.039 169.619 295.478 169.059 295.198 167.939C294.918 166.819 295.198 164.858 295.198 164.858" stroke="white" stroke-width="0.6843" stroke-miterlimit="10" stroke-linecap="round" stroke-linejoin="round"/>
<path d="M334.127 242.994C334.127 242.994 343.369 247.755 349.81 247.195" stroke="white" stroke-width="0.6843" stroke-miterlimit="10" stroke-linecap="round" stroke-linejoin="round"/>
<path d="M335.807 245.794C335.807 245.794 342.248 251.115 347.849 252.515" stroke="white" stroke-width="0.6843" stroke-miterlimit="10" stroke-linecap="round" stroke-linejoin="round"/>
<path d="M298.84 161.779C298.56 162.619 299.96 166.54 300.8 168.5C301.64 170.46 304.441 171.861 304.441 173.261C304.441 174.661 300.8 177.182 300.8 177.182" stroke="white" stroke-width="0.6843" stroke-miterlimit="10" stroke-linecap="round" stroke-linejoin="round"/>
<path d="M274.756 169.06C274.756 169.06 273.076 174.661 270.275 176.901C267.474 179.141 267.474 179.141 267.474 179.141" stroke="white" stroke-width="0.6843" stroke-miterlimit="10" stroke-linecap="round" stroke-linejoin="round"/>
<path d="M263.554 167.94C263.554 167.94 268.315 183.623 275.316 195.665C282.317 207.707 298.28 233.752 298.84 238.793C299.4 243.834 298.84 248.875 302.761 251.395C306.682 253.916 306.402 255.036 306.962 258.396C307.522 261.757 309.202 265.397 309.202 265.397C309.202 265.397 320.404 284.44 324.325 291.442C328.246 298.443 333.959 305.333 333.959 305.333" stroke="white" stroke-width="0.6843" stroke-miterlimit="10" stroke-linecap="round" stroke-linejoin="round"/>
<path d="M255.916 156.103C255.916 156.103 256.553 163.179 259.353 165.419C262.153 167.659 270.555 169.62 282.037 167.379C293.519 165.139 306.122 155.337 307.242 151.976C308.362 148.615 302.655 139.779 302.655 139.779C302.655 139.779 296.04 149.175 277.557 152.256C259.073 155.338 255.916 156.103 255.916 156.103Z" fill="white" stroke="#1E212B" stroke-width="0.9124" stroke-miterlimit="10" stroke-linecap="round" stroke-linejoin="round"/>
<path d="M329.724 87.4673C325.162 84.4253 289.577 56.7483 286.231 55.5323C282.885 54.3153 276.194 55.5323 276.194 55.5323C276.194 55.5323 255.578 58.0463 251.254 59.7903C250.85 59.9533 241.554 65.2933 241.217 65.5693C237.871 68.3063 223.234 75.0493 219.28 83.5653C214.806 93.2003 254.09 151.237 255.915 156.103C257.74 160.969 267.335 162.155 276.156 160.938C284.976 159.721 292.717 157.928 299.104 150.628C300.197 149.379 301.226 147.495 301.999 145.879C302.909 143.976 303.147 141.83 302.655 139.779C300.373 130.283 294.553 102.888 290.719 84.7633C297.12 88.8913 310.424 97.2803 318.167 100.24C328.508 104.194 336.416 101.456 336.416 98.1113C336.415 94.7673 334.286 90.5093 329.724 87.4673Z" fill="white"/>
<mask id="mask0_784_42" style="mask-type:luminance" maskUnits="userSpaceOnUse" x="218" y="54" width="119" height="108">
<path d="M329.724 87.4673C325.162 84.4253 289.577 56.7483 286.231 55.5323C282.885 54.3153 276.194 55.5323 276.194 55.5323C276.194 55.5323 255.578 58.0463 251.254 59.7903C250.85 59.9533 241.554 65.2933 241.217 65.5693C237.871 68.3063 223.234 75.0493 219.28 83.5653C214.806 93.2003 254.09 151.237 255.915 156.103C257.74 160.969 267.335 162.155 276.156 160.938C284.976 159.721 292.717 157.928 299.104 150.628C300.197 149.379 301.226 147.495 301.999 145.879C302.909 143.976 303.147 141.83 302.655 139.779C300.373 130.283 294.553 102.888 290.719 84.7633C297.12 88.8913 310.424 97.2803 318.167 100.24C328.508 104.194 336.416 101.456 336.416 98.1113C336.415 94.7673 334.286 90.5093 329.724 87.4673Z" fill="white"/>
</mask>
<g mask="url(#mask0_784_42)">
<path opacity="0.5" d="M290.305 77.5673C290.305 77.5673 295.171 79.3923 298.821 79.3923C302.471 79.3923 300.342 80.9133 298.821 81.5213C297.3 82.1293 308.554 80.6093 308.249 82.4343C307.945 84.2593 300.037 87.9093 300.037 87.9093C300.037 87.9093 306.728 92.1673 317.373 93.3843C328.018 94.6013 321.327 100.988 321.327 100.988C321.327 100.988 304.21 94.7023 290.718 84.7673L290.305 77.5673Z" fill="#446622"/>
</g>
<mask id="mask1_784_42" style="mask-type:luminance" maskUnits="userSpaceOnUse" x="218" y="54" width="119" height="108">
<path d="M329.724 87.4673C325.162 84.4253 289.577 56.7483 286.231 55.5323C282.885 54.3153 276.194 55.5323 276.194 55.5323C276.194 55.5323 255.578 58.0463 251.254 59.7903C250.85 59.9533 241.554 65.2933 241.217 65.5693C237.871 68.3063 223.234 75.0493 219.28 83.5653C214.806 93.2003 254.09 151.237 255.915 156.103C257.74 160.969 267.335 162.155 276.156 160.938C284.976 159.721 292.717 157.928 299.104 150.628C300.197 149.379 301.226 147.495 301.999 145.879C302.909 143.976 303.147 141.83 302.655 139.779C300.373 130.283 294.553 102.888 290.719 84.7633C297.12 88.8913 310.424 97.2803 318.167 100.24C328.508 104.194 336.416 101.456 336.416 98.1113C336.415 94.7673 334.286 90.5093 329.724 87.4673Z" fill="white"/>
</mask>
<g mask="url(#mask1_784_42)">
<g opacity="0.5">
<path d="M236.471 98.2493C236.471 98.2493 234.038 102.203 235.255 102.507C236.471 102.811 248.941 97.6413 244.683 101.899C240.425 106.157 235.255 106.157 237.384 107.374C239.513 108.591 244.988 108.591 243.163 109.807C241.338 111.024 244.988 116.498 254.112 127.447C263.236 138.396 267.19 145.999 277.227 151.17C287.264 156.341 293.955 156.341 287.872 157.861C281.789 159.382 275.402 160.294 275.098 163.032C275.098 163.032 275.402 165.161 271.752 166.682C268.102 168.203 265.973 167.899 263.236 166.682C260.499 165.465 259.586 165.465 258.978 163.945C258.37 162.424 255.915 156.104 255.915 156.104L251.558 146.776L250.158 144.783L248.941 143.871L227.651 107.374L236.471 98.2493Z" fill="#446622"/>
</g>
</g>
<path d="M329.724 87.4673C325.162 84.4253 289.577 56.7483 286.231 55.5323C282.885 54.3153 276.194 55.5323 276.194 55.5323C276.194 55.5323 255.578 58.0463 251.254 59.7903C250.85 59.9533 241.554 65.2933 241.217 65.5693C237.871 68.3063 223.234 75.0493 219.28 83.5653C214.806 93.2003 254.09 151.237 255.915 156.103C257.74 160.969 267.335 162.155 276.156 160.938C284.976 159.721 292.717 157.928 299.104 150.628C300.197 149.379 301.226 147.495 301.999 145.879C302.909 143.976 303.147 141.83 302.655 139.779C300.373 130.283 294.553 102.888 290.719 84.7633C297.12 88.8913 310.424 97.2803 318.167 100.24C328.508 104.194 336.416 101.456 336.416 98.1113C336.415 94.7673 334.286 90.5093 329.724 87.4673Z" stroke="#1E212B" stroke-width="0.9124" stroke-miterlimit="10" stroke-linecap="round" stroke-linejoin="round"/>
<path d="M224.168 77.3433C224.168 77.3433 220.515 81.3643 219.095 83.1903C211.48 92.9843 187.225 124.35 186.952 126.876C186.693 129.279 187.839 131.112 193.77 133.393C199.701 135.674 239.362 95.9163 239.362 95.9163" fill="white"/>
<mask id="mask2_784_42" style="mask-type:luminance" maskUnits="userSpaceOnUse" x="186" y="77" width="54" height="57">
<path d="M224.168 77.3433C224.168 77.3433 220.515 81.3643 219.095 83.1903C211.48 92.9843 187.225 124.35 186.952 126.876C186.693 129.279 187.839 131.112 193.77 133.393C199.701 135.674 239.362 95.9163 239.362 95.9163" fill="white"/>
</mask>
<g mask="url(#mask2_784_42)">
<g opacity="0.5">
<path opacity="0.8" d="M226.435 76.6543L197.237 117.41C197.237 117.41 200.278 120.756 203.928 124.101C207.578 127.447 213.965 129.576 209.098 129.272C204.232 128.968 195.107 125.318 195.107 125.318C195.107 125.318 192.37 127.447 195.715 129.576C199.061 131.705 199.669 130.184 209.402 135.051C219.135 139.917 234.707 143.063 234.707 143.063L233.445 145.618L192.066 135.051C192.066 135.051 186.047 132.041 186.927 127.007C187.808 121.973 201.754 106.027 201.754 106.027L221.742 79.8203C221.742 79.8203 223.618 77.0453 226.435 76.6543Z" fill="#446622"/>
</g>
</g>
<path d="M224.168 77.3433C224.168 77.3433 220.515 81.3643 219.095 83.1903C211.48 92.9843 187.225 124.35 186.952 126.876C186.693 129.279 187.839 131.112 193.77 133.393C199.701 135.674 239.362 95.9163 239.362 95.9163" stroke="#1E212B" stroke-width="0.9124" stroke-miterlimit="10" stroke-linecap="round" stroke-linejoin="round"/>
<path d="M304.441 75.5233L290.718 84.7653C292.678 84.4853 302.2 81.1243 302.2 81.1243" stroke="#1E212B" stroke-width="0.6843" stroke-miterlimit="10" stroke-linecap="round" stroke-linejoin="round"/>
<path d="M303.881 80.8443L306.962 80.2843" stroke="#1E212B" stroke-width="0.6843" stroke-miterlimit="10" stroke-linecap="round" stroke-linejoin="round"/>
<path d="M202.226 117.197C202.226 117.197 199.421 116.97 196.061 118.37" stroke="#1E212B" stroke-width="0.9124" stroke-miterlimit="10" stroke-linecap="round" stroke-linejoin="round"/>
<path d="M232.131 103.463C232.131 103.463 239.835 101.105 241.879 99.5333" stroke="#1E212B" stroke-width="0.6843" stroke-miterlimit="10" stroke-linecap="round" stroke-linejoin="round"/>
<path d="M243.765 98.7463C243.765 98.7463 245.023 97.6463 245.494 97.6463" stroke="#1E212B" stroke-width="0.6843" stroke-miterlimit="10" stroke-linecap="round" stroke-linejoin="round"/>
<path d="M290.719 84.7643L289.468 71.9103" stroke="#1E212B" stroke-width="0.9124" stroke-miterlimit="10" stroke-linecap="round" stroke-linejoin="round"/>
<path d="M186.927 127.006C186.927 127.006 185.153 133.779 196.508 136.587C201.896 137.919 237.568 146.624 237.568 146.624C237.568 146.624 240.761 139.781 238.937 139.781C237.112 139.781 204.264 117.883 204.264 117.883" fill="white"/>
<mask id="mask3_784_42" style="mask-type:luminance" maskUnits="userSpaceOnUse" x="186" y="117" width="54" height="30">
<path d="M186.927 127.006C186.927 127.006 185.153 133.779 196.508 136.587C201.896 137.919 237.568 146.624 237.568 146.624C237.568 146.624 240.761 139.781 238.937 139.781C237.112 139.781 204.264 117.883 204.264 117.883" fill="white"/>
</mask>
<g mask="url(#mask3_784_42)">
<path opacity="0.5" d="M226.435 76.6543L197.237 117.41C197.237 117.41 200.278 120.756 203.928 124.101C207.578 127.447 213.965 129.576 209.098 129.272C204.232 128.968 195.107 125.318 195.107 125.318C195.107 125.318 192.37 127.447 195.715 129.576C199.061 131.705 199.669 130.184 209.402 135.051C219.135 139.917 234.713 143.044 234.713 143.044L233.614 145.66L192.065 135.051C192.065 135.051 184.196 131.327 186.926 127.007C190.024 122.104 201.753 106.027 201.753 106.027L222.175 80.0013C222.177 80.0003 222.785 76.9583 226.435 76.6543Z" fill="#446622"/>
</g>
<path d="M186.927 127.006C186.927 127.006 185.153 133.779 196.508 136.587C201.896 137.919 237.568 146.624 237.568 146.624C237.568 146.624 240.761 139.781 238.937 139.781C237.112 139.781 204.264 117.883 204.264 117.883" stroke="#1E212B" stroke-width="0.9124" stroke-miterlimit="10" stroke-linecap="round" stroke-linejoin="round"/>
<path d="M238.936 139.78C238.936 139.78 250.646 145.255 251.558 146.775C252.47 148.296 254.6 156.203 254.6 158.637C254.6 161.071 254.296 161.07 252.775 161.07C251.254 161.07 247.3 155.291 246.388 154.075C245.475 152.858 243.346 152.858 240.609 151.034C237.872 149.209 237.568 146.624 237.568 146.624L238.936 139.78Z" fill="white" stroke="#1E212B" stroke-width="0.9124" stroke-miterlimit="10" stroke-linecap="round" stroke-linejoin="round"/>
<path d="M233.938 145.447L235.761 139.797" stroke="#1E212B" stroke-width="0.9124" stroke-miterlimit="10" stroke-linecap="round" stroke-linejoin="round"/>
<path opacity="0.4" d="M261.322 85.6053C261.322 85.6053 242.564 74.9383 235.835 75.8993C229.106 76.8603 223.339 77.8223 223.339 77.8223L235.829 69.0823C241.999 72.0443 251.018 78.6023 261.322 85.6053Z" fill="#446622"/>
<path d="M322.728 97.2003C322.728 97.2003 319.687 107.541 318.47 113.624C317.253 119.707 308.737 144.039 308.737 144.039L316.036 148.601C316.036 148.601 332.156 115.145 335.197 107.845C338.239 100.546 337.326 95.0713 334.285 92.0293" fill="white"/>
<path d="M322.728 97.2003C322.728 97.2003 319.687 107.541 318.47 113.624C317.253 119.707 308.737 144.039 308.737 144.039L316.036 148.601C316.036 148.601 332.156 115.145 335.197 107.845C338.239 100.546 337.326 95.0713 334.285 92.0293" stroke="#1E212B" stroke-width="0.9124" stroke-miterlimit="10" stroke-linecap="round" stroke-linejoin="round"/>
<path d="M310.121 140.526C310.668 140.526 317.593 144.353 317.593 144.353L310.121 140.526Z" fill="#1E212B"/>
<path d="M262.153 85.6053C260.473 85.3253 251.511 79.4443 245.35 74.6833C239.189 69.9223 235.828 69.0823 235.828 69.0823L231.627 71.8823C231.627 71.8823 230.507 68.8013 232.187 65.7213C233.867 62.6403 239.748 59.5603 245.63 57.3193C251.511 55.0793 258.232 53.1183 262.433 53.1183C266.634 53.1183 267.754 54.7983 267.754 57.0393C267.754 59.2793 267.754 66.2813 266.354 71.6023C264.954 76.9233 262.153 85.6053 262.153 85.6053Z" fill="white"/>
<mask id="mask4_784_42" style="mask-type:luminance" maskUnits="userSpaceOnUse" x="231" y="53" width="37" height="33">
<path d="M262.153 85.6053C260.473 85.3253 251.511 79.4443 245.35 74.6833C239.189 69.9223 235.828 69.0823 235.828 69.0823L231.627 71.8823C231.627 71.8823 230.507 68.8013 232.187 65.7213C233.867 62.6403 239.748 59.5603 245.63 57.3193C251.511 55.0793 258.232 53.1183 262.433 53.1183C266.634 53.1183 267.754 54.7983 267.754 57.0393C267.754 59.2793 267.754 66.2813 266.354 71.6023C264.954 76.9233 262.153 85.6053 262.153 85.6053Z" fill="white"/>
</mask>
<g mask="url(#mask4_784_42)">
<g opacity="0.5">
<path d="M259.514 56.4013C259.514 56.4013 256.928 64.1593 254.342 66.4873C251.756 68.8143 247.876 70.8833 247.876 70.8833C247.876 70.8833 246.324 65.4523 242.445 65.4523C238.566 65.4523 232.617 68.0383 232.617 68.0383C232.617 68.0383 232.617 65.9693 237.531 63.3833C242.445 60.7973 242.445 60.7973 242.445 60.7973L253.824 56.4013H259.514Z" fill="#446622"/>
</g>
</g>
<path d="M262.153 85.6053C260.473 85.3253 251.511 79.4443 245.35 74.6833C239.189 69.9223 235.828 69.0823 235.828 69.0823L231.627 71.8823C231.627 71.8823 230.507 68.8013 232.187 65.7213C233.867 62.6403 239.748 59.5603 245.63 57.3193C251.511 55.0793 258.232 53.1183 262.433 53.1183C266.634 53.1183 267.754 54.7983 267.754 57.0393C267.754 59.2793 267.754 66.2813 266.354 71.6023C264.954 76.9233 262.153 85.6053 262.153 85.6053Z" stroke="#1E212B" stroke-width="0.9124" stroke-miterlimit="10" stroke-linecap="round" stroke-linejoin="round"/>
<path d="M237.264 50.0573C237.264 50.0573 242.13 54.9233 243.955 62.8313C245.78 70.7393 257.222 80.0373 259.959 80.0373C262.696 80.0373 262.508 66.4813 261.596 62.5273C260.684 58.5733 257.034 47.9283 257.034 47.9283C257.034 47.9283 242.434 40.9333 237.264 50.0573Z" fill="white"/>
<mask id="mask5_784_42" style="mask-type:luminance" maskUnits="userSpaceOnUse" x="237" y="45" width="26" height="36">
<path d="M237.264 50.0573C237.264 50.0573 242.13 54.9233 243.955 62.8313C245.78 70.7393 257.222 80.0373 259.959 80.0373C262.696 80.0373 262.508 66.4813 261.596 62.5273C260.684 58.5733 257.034 47.9283 257.034 47.9283C257.034 47.9283 242.434 40.9333 237.264 50.0573Z" fill="white"/>
</mask>
<g mask="url(#mask5_784_42)">
<g opacity="0.5">
<path d="M259.514 56.4013C259.514 56.4013 256.928 64.1593 254.342 66.4873C251.756 68.8143 247.876 70.8833 247.876 70.8833C247.876 70.8833 246.324 65.4523 242.445 65.4523C238.566 65.4523 232.617 68.0383 232.617 68.0383C232.617 68.0383 232.617 65.9693 237.531 63.3833C242.445 60.7973 242.445 60.7973 242.445 60.7973L253.824 56.4013H259.514Z" fill="#446622"/>
</g>
</g>
<path d="M237.264 50.0573C237.264 50.0573 242.13 54.9233 243.955 62.8313C245.78 70.7393 257.222 80.0373 259.959 80.0373C262.696 80.0373 262.508 66.4813 261.596 62.5273C260.684 58.5733 257.034 47.9283 257.034 47.9283C257.034 47.9283 242.434 40.9333 237.264 50.0573Z" stroke="#1E212B" stroke-width="0.9124" stroke-miterlimit="10" stroke-linecap="round" stroke-linejoin="round"/>
<path d="M227.618 35.3953C227.618 35.3953 230.921 44.6423 235.544 52.2383C240.168 59.8343 249.084 64.1273 254.038 62.1463C258.992 60.1653 262.354 53.7843 261.033 43.8773C260.743 41.7003 258.847 40.8113 258.232 38.8363C256.049 31.8243 253.819 25.0933 253.046 22.5163C252.055 19.2143 244.129 15.9113 235.873 18.2233C227.618 20.5343 226.297 27.4693 227.618 35.3953Z" fill="white"/>
<mask id="mask6_784_42" style="mask-type:luminance" maskUnits="userSpaceOnUse" x="227" y="17" width="35" height="46">
<path d="M227.618 35.3953C227.618 35.3953 230.921 44.6423 235.544 52.2383C240.168 59.8343 249.084 64.1273 254.038 62.1463C258.992 60.1653 262.354 53.7843 261.033 43.8773C260.743 41.7003 258.847 40.8113 258.232 38.8363C256.049 31.8243 253.819 25.0933 253.046 22.5163C252.055 19.2143 244.129 15.9113 235.873 18.2233C227.618 20.5343 226.297 27.4693 227.618 35.3953Z" fill="white"/>
</mask>
<g mask="url(#mask6_784_42)">
<path opacity="0.5" d="M255.027 29.3373C255.027 29.3373 252.014 31.5733 245.29 30.2803C238.566 28.9873 233.911 29.2453 234.169 31.0563C234.428 32.8663 234.945 35.1943 234.945 35.1943C234.945 35.1943 226.854 28.2143 234.184 26.3253C239.467 24.9643 242.518 27.0423 243.811 27.3003C245.103 27.5593 255.027 29.3373 255.027 29.3373Z" fill="#446622"/>
</g>
<path d="M227.618 35.3953C227.618 35.3953 230.921 44.6423 235.544 52.2383C240.168 59.8343 249.084 64.1273 254.038 62.1463C258.992 60.1653 262.354 53.7843 261.033 43.8773C260.743 41.7003 258.847 40.8113 258.232 38.8363C256.049 31.8243 253.819 25.0933 253.046 22.5163C252.055 19.2143 244.129 15.9113 235.873 18.2233C227.618 20.5343 226.297 27.4693 227.618 35.3953Z" stroke="#1E212B" stroke-width="0.9124" stroke-miterlimit="10" stroke-linecap="round" stroke-linejoin="round"/>
<path d="M233.562 46.2943C233.562 46.2943 228.278 43.9823 227.948 46.2943C227.618 48.6063 229.929 50.2573 232.241 51.2483C234.553 52.2393 235.874 50.9183 235.874 50.9183" fill="white"/>
<path d="M233.562 46.2943C233.562 46.2943 228.278 43.9823 227.948 46.2943C227.618 48.6063 229.929 50.2573 232.241 51.2483C234.553 52.2393 235.874 50.9183 235.874 50.9183" stroke="#1E212B" stroke-width="0.9124" stroke-miterlimit="10" stroke-linecap="round" stroke-linejoin="round"/>
<path d="M255.152 33.2353C255.152 33.2353 249.271 31.8353 251.791 39.6763C252.291 41.2313 255.712 43.0373 255.712 43.0373C255.712 43.0373 255.432 45.5573 254.032 45.8373" fill="white"/>
<path d="M255.152 33.2353C255.152 33.2353 249.271 31.8353 251.791 39.6763C252.291 41.2313 255.712 43.0373 255.712 43.0373C255.712 43.0373 255.432 45.5573 254.032 45.8373" stroke="#1E212B" stroke-width="0.9124" stroke-miterlimit="10" stroke-linecap="round" stroke-linejoin="round"/>
<path d="M250.951 51.4383C250.951 51.4383 246.75 52.2783 245.07 50.3183L250.951 51.4383Z" fill="white"/>
<path d="M250.951 51.4383C250.951 51.4383 246.75 52.2783 245.07 50.3183" stroke="#1E212B" stroke-width="0.9124" stroke-miterlimit="10" stroke-linecap="round" stroke-linejoin="round"/>
<path d="M244.79 38.2763C244.79 38.2763 241.709 37.1563 240.029 38.5563C238.349 39.9563 238.069 41.0773 238.069 41.0773" fill="white"/>
<path d="M244.79 38.2763C244.79 38.2763 241.709 37.1563 240.029 38.5563C238.349 39.9563 238.069 41.0773 238.069 41.0773" stroke="#1E212B" stroke-width="0.9124" stroke-miterlimit="10" stroke-linecap="round" stroke-linejoin="round"/>
<path d="M244.711 43.0713C245.107 43.9953 245.024 44.9173 244.526 45.1303C244.028 45.3433 243.304 44.7673 242.908 43.8423C242.512 42.9183 242.595 41.9963 243.093 41.7833C243.591 41.5703 244.316 42.1473 244.711 43.0713Z" fill="#1E212B"/>
<path d="M254.777 38.1773C255.173 39.1013 255.09 40.0233 254.592 40.2363C254.094 40.4493 253.37 39.8733 252.974 38.9483C252.578 38.0243 252.661 37.1023 253.159 36.8893C253.657 36.6763 254.381 37.2533 254.777 38.1773Z" fill="#1E212B"/>
<path d="M232.093 47.6243C232.093 47.6243 235.439 45.1913 234.83 43.0623C234.222 40.9333 233.005 40.9333 234.222 39.7163C235.439 38.4993 236.351 37.8913 236.047 36.0663C235.743 34.2413 230.876 31.2003 232.397 29.3753C233.918 27.5503 233.309 25.4213 245.78 28.4623C258.25 31.5043 266.158 26.6373 262.508 22.0753C258.858 17.5133 255.817 16.9043 255.817 16.9043C255.817 16.9043 262.812 13.8633 257.034 10.8213C251.255 7.78028 238.177 7.78028 230.878 13.5583C223.579 19.3363 225.099 24.2033 225.099 24.2033C225.099 24.2033 221.145 24.8113 220.841 30.8943C220.536 36.9793 232.093 47.6243 232.093 47.6243Z" fill="#1E212B"/>
<path d="M232.012 26.8413C232.012 26.8413 233.044 23.7463 238.203 23.7463C243.362 23.7463 248.005 28.1313 254.969 26.5833C261.933 25.0353 258.064 20.9083 258.064 20.9083" stroke="white" stroke-width="0.6843" stroke-miterlimit="10" stroke-linecap="round" stroke-linejoin="round"/>
<path d="M229.691 26.0673C229.691 26.0673 230.192 19.6633 235.874 18.2223C241.556 16.7813 249.036 19.6183 251.1 18.8443" stroke="white" stroke-width="0.6843" stroke-miterlimit="10" stroke-linecap="round" stroke-linejoin="round"/>
<path d="M226.854 26.3253C226.854 26.3253 223.759 26.3253 223.501 30.4523C223.243 34.5793 225.822 36.3853 225.822 36.3853" stroke="white" stroke-width="0.6843" stroke-miterlimit="10" stroke-linecap="round" stroke-linejoin="round"/>
<path d="M229.691 28.9043C229.691 28.9043 226.338 30.1943 227.885 33.5473" stroke="white" stroke-width="0.6843" stroke-miterlimit="10" stroke-linecap="round" stroke-linejoin="round"/>
<path d="M227.369 37.1593L228.659 38.9643" stroke="white" stroke-width="0.6843" stroke-miterlimit="10" stroke-linecap="round" stroke-linejoin="round"/>
<path d="M275.819 249.677C275.819 249.677 276.998 246.04 277.141 245.558C277.284 245.076 278.395 246.199 279.076 245.927C279.756 245.655 279.935 244.848 279.576 244.708C279.218 244.568 278.431 245.421 278.287 244.905C278.143 244.39 279.576 243.65 280.185 243.694C280.794 243.739 282.478 244.899 283.087 245.064C283.696 245.229 284.411 244.361 283.874 243.879C283.336 243.397 282.334 243.658 281.581 243.581C280.829 243.505 280.936 242.713 280.542 242.595C280.148 242.477 279.897 242.633 279.575 242.713C279.253 242.793 279.718 241.989 279.718 241.989C279.718 241.989 281.115 241.483 280.398 240.991C279.681 240.5 279.431 240.807 279.681 240.5C279.932 240.193 280.362 240.228 280.505 239.836C280.647 239.445 280.719 239.491 280.54 239.179C280.361 238.867 281.578 238.533 281.865 237.962C282.151 237.391 281.935 236.708 281.72 235.935C281.505 235.162 281.397 235.47 281.576 234.452C281.754 233.434 282.04 232.137 281.431 232.123C280.822 232.109 280.392 232.013 280.107 233.491C279.821 234.969 279.57 235.125 279.57 235.125C279.57 235.125 278.89 235.095 278.783 235.615C278.676 236.136 278.533 237.404 278.641 237.79C278.749 238.177 277.566 237.884 277.316 238.312C277.065 238.74 277.495 239.138 277.603 239.525C277.711 239.911 277.675 240.266 277.532 240.416C277.389 240.565 277.353 240.859 277.353 241.041C277.353 241.222 276.995 240.296 276.673 240.92C276.351 241.544 276.602 242.325 276.602 242.325L276.602 242.778C276.602 242.778 276.244 243.152 276.388 243.638C276.531 244.123 276.854 245.162 276.854 245.162L275.567 249.349L275.317 249.445L275.819 249.677Z" fill="#99BB44" stroke="#1E212B" stroke-miterlimit="10"/>
<path d="M271.692 237.608C271.692 237.608 270.151 236.662 269.434 236.261C268.718 235.86 268.108 235.271 268.18 235.045C268.251 234.819 268.86 235.045 268.86 235.045C268.86 235.045 268.896 235.204 268.323 234.654C267.749 234.104 267.176 233.795 267.57 233.792C267.964 233.788 268.752 234.175 269.111 234.466C269.469 234.757 269.505 234.856 269.863 235.117C270.222 235.378 270.006 234.514 269.075 233.944C268.143 233.375 267.391 233.45 267.175 232.586C266.96 231.722 267.605 232.107 267.963 232.398C268.321 232.689 268.536 232.827 268.285 232.167C268.034 231.507 268.428 231.504 268.787 232.006C269.145 232.509 269.145 232.872 269.325 233.335C269.504 233.798 268.679 230.894 269.181 231.64C269.683 232.387 269.683 232.628 269.79 233.106C269.898 233.583 270.078 234.439 270.221 234.743C270.365 235.047 270.401 235.297 270.508 235.32C270.616 235.344 270.973 234.789 270.973 233.761C270.972 232.733 270.578 232.132 271.151 232.622C271.724 233.112 272.012 234.113 271.976 234.347C271.94 234.58 272.299 234.479 272.514 234.919C272.729 235.36 272.729 235.541 272.442 235.81C272.156 236.079 272.013 235.957 271.906 236.295C271.798 236.634 271.834 236.793 271.834 236.793C271.834 236.793 272.3 237.108 272.264 237.221C272.229 237.334 272.193 237.629 272.337 238.265C272.48 238.902 273.018 240.139 273.198 240.028C273.376 239.917 273.699 239.897 273.698 238.718C273.697 237.54 273.769 236.89 274.091 237.113C274.414 237.336 274.414 237.275 274.628 236.779C274.843 236.283 275.273 236.65 275.023 237.652C274.773 238.655 274.773 239.169 274.415 239.543C274.057 239.916 274.129 240.204 273.807 240.375C273.484 240.545 273.305 240.566 273.305 240.566C273.305 240.566 274.31 243.116 274.453 243.571C274.597 244.026 275.244 247.978 275.244 247.978C275.244 247.978 275.317 249.354 275.317 249.445C275.317 249.536 274.851 249.493 274.851 249.493C274.851 249.493 274.957 248.096 274.85 247.347C274.742 246.597 274.202 243.122 273.592 241.899C272.983 240.676 272.839 240.311 272.839 240.311C272.839 240.311 273.126 240.496 270.618 239.153C268.11 237.811 266.891 236.634 266.891 236.331C266.891 236.029 268.825 236.247 269.363 237.092C269.901 237.936 270.008 238.263 270.152 238.204C270.295 238.145 269.829 237.135 270.474 237.913C271.119 238.691 271.227 238.866 271.37 239.018C271.513 239.171 271.083 238.985 271.513 239.171C271.943 239.357 272.445 239.771 272.445 239.771L271.692 237.608Z" fill="#99BB44" stroke="#1E212B" stroke-miterlimit="10"/>
<path d="M274.455 244.931C274.455 244.931 273.666 244.001 272.77 243.288C271.874 242.575 270.154 241.801 269.51 241.355C268.864 240.91 269.079 240.806 269.509 240.932C269.939 241.058 270.405 241.494 270.477 241.298C270.548 241.102 269.581 240.404 270.476 240.633C271.372 240.862 272.017 241.065 272.017 241.579C272.017 242.093 271.91 242.19 272.125 242.389C272.34 242.588 272.34 242.86 272.555 242.756C272.77 242.653 272.339 241.56 272.984 242.066C273.629 242.572 273.737 242.837 273.558 243.221C273.379 243.604 273.63 243.811 273.63 243.811L274.454 244.568C274.454 244.568 274.598 244.782 274.455 244.931Z" fill="#99BB44" stroke="#1E212B" stroke-miterlimit="10"/>
<path d="M274.265 228.658C274.265 228.658 273.87 226.969 273.763 228.094C273.656 229.218 274.266 230.079 274.409 230.685C274.553 231.292 274.697 231.475 274.589 231.662C274.482 231.85 273.693 230.224 273.586 230.986C273.479 231.748 273.515 232.028 273.802 232.636C274.089 233.244 274.519 233.944 274.412 234.011C274.304 234.077 272.942 232.385 273.158 233.339C273.373 234.294 273.732 234.706 274.233 235.12C274.735 235.533 275.129 236.014 275.129 236.014C275.129 236.014 275.452 235.995 275.452 236.297C275.452 236.599 275.74 238.477 275.597 238.445C275.453 238.413 274.7 236.886 273.625 235.831C272.55 234.776 271.259 233.22 271.045 234.321C270.831 235.422 272.694 236.984 273.089 238.251C273.484 239.517 272.66 238.851 273.233 239.613C273.807 240.375 274.774 240.015 274.738 240.581C274.703 241.148 274.345 241.31 274.667 241.533C274.99 241.756 275.348 241.654 275.456 241.919C275.563 242.185 275.456 242.554 275.528 242.812C275.6 243.07 275.708 244.484 275.708 244.998C275.709 245.512 275.317 249.445 275.317 249.445L275.819 249.677C275.819 249.677 275.888 246.156 275.96 245.568C276.031 244.979 276.066 243.929 276.746 243.657C277.427 243.385 280.507 243.645 281.331 243.616C282.155 243.588 283.086 242.857 282.154 242.802C281.223 242.746 280.471 242.972 280.113 242.923C279.754 242.873 281.652 242.086 280.757 241.615C279.861 241.144 279.789 241.582 279.288 242.105C278.787 242.629 279.181 242.716 278.608 242.77C278.035 242.824 278.357 242.261 277.856 242.392C277.354 242.522 277.175 242.603 276.996 242.866C276.817 243.128 276.817 243.128 276.603 243.292C276.388 243.456 276.066 243.838 276.066 243.838C276.066 243.838 276.099 239.583 276.099 239.493C276.099 239.402 277.817 238.091 278.641 237.79C279.464 237.489 280.36 237.295 280.574 236.648C280.789 236 280.932 235.457 280.108 235.849C279.285 236.24 279.321 236.732 278.891 236.788C278.461 236.844 278.962 235.564 278.031 235.962C277.1 236.36 277.136 236.882 276.993 237.213C276.85 237.544 276.419 236.118 276.276 236.389C276.133 236.659 276.241 237.499 276.241 237.953C276.241 238.406 275.991 238.894 275.991 238.894L275.81 236.195C275.81 236.195 277.923 235.696 278.245 234.619C278.566 233.542 278.172 232.518 277.921 233.006C277.671 233.495 277.278 234.344 277.027 234.016C276.776 233.689 277.885 231.698 277.347 231.458C276.81 231.218 276.345 232.172 276.237 231.877C276.13 231.581 276.559 231.102 276.38 230.457C276.2 229.813 275.599 230.31 275.448 230.1C275.09 229.597 275.161 228.827 275.053 228.743C274.945 228.658 274.265 228.658 274.265 228.658Z" fill="#99BB44" stroke="#1E212B" stroke-miterlimit="10"/>
<path d="M276.607 250.064C276.607 250.064 275.21 249.089 274.064 249.408C272.918 249.728 272.775 251.389 272.919 252.51C273.064 253.63 273.136 255.731 273.138 257.515C273.139 259.298 273.39 260.896 273.39 260.896C273.39 260.896 273.606 262.848 273.93 264.249C274.253 265.651 274.863 267.298 275.006 267.511C275.15 267.724 275.472 268.098 275.651 267.835C275.83 267.573 276.938 264.434 276.938 263.557C276.937 262.68 277.437 259.315 277.4 258.159C277.364 257.002 277.505 254.041 277.505 254.041C277.505 254.041 277.755 252.283 277.432 251.486C277.109 250.689 276.607 250.064 276.607 250.064Z" fill="white" stroke="#1E212B" stroke-miterlimit="10"/>
<path d="M273.35 253.481C273.35 253.481 273.994 253.413 274.854 253.604L273.35 253.481Z" fill="white"/>
<path d="M273.35 253.481C273.35 253.481 273.994 253.413 274.854 253.604" stroke="#1E212B" stroke-miterlimit="10"/>
<path d="M277.363 256.76C277.363 256.76 276.754 256.292 275.93 256.17L277.363 256.76Z" fill="white"/>
<path d="M277.363 256.76C277.363 256.76 276.754 256.292 275.93 256.17" stroke="#1E212B" stroke-miterlimit="10"/>
<path d="M274.654 260.46C274.906 260.503 275.181 260.575 275.468 260.692L274.654 260.46Z" fill="white"/>
<path d="M274.654 260.46C274.906 260.503 275.181 260.575 275.468 260.692" stroke="#1E212B" stroke-miterlimit="10"/>
<path d="M273.354 260.464C273.354 260.464 273.772 260.361 274.383 260.423L273.354 260.464Z" fill="white"/>
<path d="M273.354 260.464C273.354 260.464 273.772 260.361 274.383 260.423" stroke="#1E212B" stroke-miterlimit="10"/>
<path d="M276.938 263.557C276.938 263.557 276.185 262.997 275.469 262.838L276.938 263.557Z" fill="white"/>
<path d="M276.938 263.557C276.938 263.557 276.185 262.997 275.469 262.838" stroke="#1E212B" stroke-miterlimit="10"/>
<path d="M274.422 251.019C274.592 251.062 274.783 251.117 274.996 251.187L274.422 251.019Z" fill="white"/>
<path d="M274.422 251.019C274.592 251.062 274.783 251.117 274.996 251.187" stroke="#1E212B" stroke-miterlimit="10"/>
<path d="M273.026 251.022C273.026 251.022 273.149 250.854 273.707 250.895L273.026 251.022Z" fill="white"/>
<path d="M273.026 251.022C273.026 251.022 273.149 250.854 273.707 250.895" stroke="#1E212B" stroke-miterlimit="10"/>
<path d="M274.989 265.465C275.157 265.47 275.363 265.497 275.614 265.56L274.989 265.465Z" fill="white"/>
<path d="M274.989 265.465C275.157 265.47 275.363 265.497 275.614 265.56" stroke="#1E212B" stroke-miterlimit="10"/>
<path d="M274.324 265.637C274.324 265.637 274.404 265.545 274.628 265.495L274.324 265.637Z" fill="white"/>
<path d="M274.324 265.637C274.324 265.637 274.404 265.545 274.628 265.495" stroke="#1E212B" stroke-miterlimit="10"/>
<path d="M283.365 252.098C283.365 252.098 282.236 251.462 281.411 251.675C280.586 251.888 280.368 252.081 280.368 252.081C280.368 252.081 279.332 251.608 278.476 252.339C277.621 253.071 277.183 253.896 276.719 255.947C276.254 257.997 277.13 260.224 277.186 260.638C277.241 261.053 277.083 261.794 277.712 262.574C278.341 263.354 279.747 264.345 280.88 264.542C282.013 264.739 283 264.491 283 264.491C283 264.491 284.505 264.193 285.35 263.061C286.195 261.929 289.728 259.259 289.685 257.086C289.641 254.913 288.295 254.469 288.295 254.469C288.295 254.469 287.116 253.112 286.173 252.802C285.23 252.491 284.384 252.477 284.384 252.477L283.365 252.098Z" fill="#99BB44" stroke="#1E212B" stroke-miterlimit="10" stroke-linecap="round" stroke-linejoin="round"/>
<path opacity="0.53" d="M287.215 256.248C287.215 256.248 286.974 255.146 285.847 255.561C284.719 255.977 285.244 256.778 285.029 257.651C284.814 258.524 286.477 257.341 286.674 257.8C286.872 258.258 287.275 257.343 287.215 256.248Z" fill="white"/>
<path opacity="0.53" d="M282.993 254.779C282.993 254.779 281.711 254.357 281.514 254.922C281.318 255.486 281.282 257.126 281.892 257.169C282.502 257.213 283.352 256.313 283.468 255.722C283.585 255.131 282.993 254.779 282.993 254.779Z" fill="white"/>
<path d="M284.976 254.655C284.976 254.655 284.741 253.608 284.567 252.097C284.393 250.586 284.143 249.579 283.339 249.446C282.534 249.313 282.304 250.119 282.521 250.499C282.739 250.879 282.96 250.247 283.115 250.518C283.271 250.79 283.347 251.432 283.365 252.098C283.383 252.765 282.776 253.931 282.776 253.931L284.124 254.947L284.976 254.655Z" fill="#1E212B" stroke="#1E212B" stroke-miterlimit="10" stroke-linecap="round" stroke-linejoin="round"/>
<path d="M284.75 262.594C284.551 262.81 284.389 262.984 284.283 263.107" stroke="#1E212B" stroke-miterlimit="10" stroke-linecap="round" stroke-linejoin="round"/>
<path d="M287.457 259.257C286.832 260.234 286.021 261.19 285.358 261.928" stroke="#1E212B" stroke-miterlimit="10" stroke-linecap="round" stroke-linejoin="round"/>
<path d="M284.976 254.655C284.976 254.655 286.278 254.511 287.155 255.152C287.974 255.751 288.592 257.05 287.806 258.654" stroke="#1E212B" stroke-miterlimit="10" stroke-linecap="round" stroke-linejoin="round"/>
<path d="M277.949 258.555C277.759 259.099 277.644 259.468 277.644 259.468" stroke="#1E212B" stroke-miterlimit="10" stroke-linecap="round" stroke-linejoin="round"/>
<path d="M282.193 253.739C282.193 253.739 281.143 253.306 280.083 254.19C279.438 254.729 278.674 256.568 278.175 257.924" stroke="#1E212B" stroke-miterlimit="10" stroke-linecap="round" stroke-linejoin="round"/>
<path d="M280.789 252.308C280.789 252.308 281.328 252.485 281.76 253.112" stroke="#1E212B" stroke-miterlimit="10" stroke-linecap="round" stroke-linejoin="round"/>
<path d="M287.925 254.524C287.925 254.524 287.152 254.446 286.516 254.545" stroke="#1E212B" stroke-miterlimit="10" stroke-linecap="round" stroke-linejoin="round"/>
<path d="M284.138 255.481C284.138 255.481 284.57 256.108 283.191 257.768" stroke="#1E212B" stroke-miterlimit="10" stroke-linecap="round" stroke-linejoin="round"/>
<path d="M265.382 259.454C265.382 259.454 256.876 240.828 257.318 232.27C257.761 223.712 263.312 227.039 265.063 231.281C267.976 238.336 270.251 245.709 272.65 252.943C273.997 257.006 275.402 261.23 276.632 265.398C277.797 269.349 279.681 273.988 278.03 278.073C276.974 280.684 274.445 280.494 272.617 278.777C270.793 277.064 270.158 274.22 269.365 271.942C267.929 267.817 266.622 263.642 265.382 259.454Z" fill="white" stroke="#1E212B" stroke-miterlimit="10" stroke-linecap="round" stroke-linejoin="round"/>
<path d="M265.086 236.631C265.086 236.631 259.884 237.944 259.518 239.153C259.152 240.363 263.182 239.667 265.089 238.463C266.996 237.26 266.292 236.552 265.086 236.631Z" fill="white" stroke="#1E212B" stroke-miterlimit="10" stroke-linecap="round" stroke-linejoin="round"/>
<path d="M267.946 245.508C267.946 245.508 262.743 246.821 262.377 248.031C262.012 249.241 266.042 248.544 267.949 247.341C269.856 246.138 269.152 245.429 267.946 245.508Z" fill="white" stroke="#1E212B" stroke-miterlimit="10" stroke-linecap="round" stroke-linejoin="round"/>
<path d="M270.805 254.386C270.805 254.386 265.602 255.698 265.236 256.908C264.871 258.118 268.901 257.422 270.808 256.219C272.715 255.015 272.011 254.307 270.805 254.386Z" fill="white" stroke="#1E212B" stroke-miterlimit="10" stroke-linecap="round" stroke-linejoin="round"/>
<path d="M273.664 263.263C273.664 263.263 268.462 264.576 268.096 265.785C267.73 266.995 271.76 266.299 273.667 265.096C275.575 263.892 274.87 263.184 273.664 263.263Z" fill="white" stroke="#1E212B" stroke-miterlimit="10" stroke-linecap="round" stroke-linejoin="round"/>
<path d="M257.055 258.101C257.055 258.101 248.892 245.659 247.944 246.269C246.997 246.88 248.581 250.537 248.581 250.537C248.581 250.537 243.387 248.769 242.471 249.809C241.554 250.849 245.583 251.733 245.583 251.733C245.583 251.733 235.806 253.654 235.679 254.959C235.553 256.263 243.795 254.457 243.795 254.457C243.795 254.457 238.866 259.466 238.747 260.878C238.629 262.289 244.26 257.874 244.26 257.874C244.26 257.874 239.163 266.673 241.906 269.596C244.65 272.519 247.292 255.597 247.292 255.597C247.292 255.597 247.85 260.302 248.759 259.155C249.668 258.008 251.362 255.507 251.362 255.507C251.362 255.507 249.974 257.661 251.312 257.885C252.65 258.108 253.378 257.514 253.378 257.514L255.52 259.727L257.055 258.101Z" fill="#446622" stroke="#1E212B" stroke-miterlimit="10" stroke-linecap="round" stroke-linejoin="round"/>
<path d="M259.097 260.089C259.097 260.089 248.709 242.412 248.268 233.86C247.827 225.308 253.696 228.065 255.877 232.111C259.503 238.837 262.529 245.942 265.661 252.898C267.421 256.804 269.255 260.865 270.909 264.887C272.476 268.7 274.83 273.125 273.607 277.351C272.826 280.051 270.288 280.112 268.292 278.587C266.299 277.064 265.374 274.299 264.35 272.113C262.495 268.152 260.763 264.13 259.097 260.089Z" fill="white" stroke="#1E212B" stroke-miterlimit="10" stroke-linecap="round" stroke-linejoin="round"/>
<path d="M256.451 237.428C256.451 237.428 251.406 239.247 251.167 240.486C250.928 241.726 254.868 240.635 256.643 239.249C258.417 237.864 257.643 237.229 256.451 237.428Z" fill="white" stroke="#1E212B" stroke-miterlimit="10" stroke-linecap="round" stroke-linejoin="round"/>
<path d="M260.212 245.971C260.212 245.971 255.168 247.79 254.929 249.029C254.689 250.269 258.629 249.178 260.404 247.792C262.179 246.406 261.404 245.773 260.212 245.971Z" fill="white" stroke="#1E212B" stroke-miterlimit="10" stroke-linecap="round" stroke-linejoin="round"/>
<path d="M263.973 254.514C263.973 254.514 258.929 256.333 258.69 257.573C258.45 258.812 262.391 257.721 264.165 256.336C265.94 254.951 265.165 254.316 263.973 254.514Z" fill="white" stroke="#1E212B" stroke-miterlimit="10" stroke-linecap="round" stroke-linejoin="round"/>
<path d="M267.735 263.057C267.735 263.057 262.691 264.877 262.451 266.116C262.212 267.355 266.152 266.265 267.927 264.879C269.701 263.494 268.927 262.859 267.735 263.057Z" fill="white" stroke="#1E212B" stroke-miterlimit="10" stroke-linecap="round" stroke-linejoin="round"/>
<path d="M260.514 261.3C260.151 261.3 259.845 261.019 259.817 260.651C259.806 260.504 259.552 256.997 259.986 252.675C260.575 246.801 262.099 242.473 264.516 239.81C266.29 237.856 268.527 236.841 271.165 236.793C274.544 236.738 277.356 237.877 279.503 240.198C285.454 246.628 284.318 259.817 284.266 260.376C284.231 260.762 283.892 261.044 283.506 261.01C283.121 260.975 282.838 260.633 282.873 260.247C282.885 260.116 284.002 247.119 278.477 241.151C276.612 239.137 274.162 238.148 271.19 238.197C268.953 238.237 267.056 239.098 265.552 240.754C260.24 246.603 261.202 260.407 261.212 260.546C261.241 260.932 260.952 261.269 260.567 261.298C260.549 261.299 260.532 261.3 260.514 261.3Z" fill="white" stroke="#1E212B" stroke-width="0.5" stroke-miterlimit="10"/>
<path d="M251.853 257.495L291.387 257.556C291.387 257.556 298.099 300.82 298.498 303.989C298.897 307.158 300.557 308.082 291.654 309.217C278.319 310.916 260.994 310.677 254.355 309.156C247.714 307.634 246.251 306.397 246.62 304.35C246.988 302.301 251.853 257.495 251.853 257.495Z" fill="#99BB44" stroke="#1E212B" stroke-miterlimit="10" stroke-linecap="round" stroke-linejoin="round"/>
<path d="M271.518 280.97C271.797 280.709 272.079 280.434 272.356 280.154C272.639 279.867 272.917 279.547 273.18 279.203L273.4 278.916L273.174 278.632C273.001 278.415 272.809 278.193 272.603 277.974C272.402 277.761 272.192 277.542 271.973 277.32L271.324 276.659C271.109 276.441 270.903 276.228 270.709 276.026C270.577 275.886 270.45 275.753 270.327 275.626C270.204 275.499 270.081 275.374 269.958 275.251L269.709 275.002L269.401 275.174C269.284 275.239 269.169 275.329 269.059 275.439C268.974 275.524 268.889 275.611 268.804 275.7C268.727 275.781 268.648 275.859 268.567 275.936C268.501 275.998 268.44 276.049 268.384 276.086L267.963 276.365L268.276 276.761C268.413 276.935 268.585 277.129 268.785 277.338L268.89 277.447C268.003 277.43 267.059 277.417 266.908 277.417C265.471 277.416 264.293 277.804 263.439 278.719C262.586 279.634 262.34 280.739 262.34 282.18C262.34 282.513 262.343 282.838 262.329 283.156L262.329 283.677C262.343 284.415 262.333 285.193 262.297 286.01C262.26 286.827 262.228 287.619 262.199 288.386C262.228 288.762 262.297 290.057 263.025 291.055C263.992 292.379 265.713 292.791 266.462 292.791L266.832 292.791C266.991 292.791 268.404 292.788 268.586 292.78C268.767 292.774 268.901 292.712 268.988 292.596C269.017 292.235 269.028 291.822 269.021 291.359C269.013 290.896 269.024 290.477 269.053 290.1L269.053 289.992L269.032 289.992C268.597 289.977 267.249 289.914 266.495 289.525C265.949 289.244 265.595 288.932 265.392 288.469C265.218 287.862 265.298 287.142 265.32 286.476C265.342 285.811 265.345 285.167 265.331 284.545C265.36 284.212 265.392 283.876 265.428 283.536C265.464 283.196 265.519 282.845 265.591 282.483C265.606 282.382 265.624 282.288 265.646 282.201C265.668 282.114 265.694 282.021 265.722 281.919C265.864 281.399 266.004 281.094 266.292 280.796C266.512 280.568 266.905 280.393 267.155 280.339C267.414 280.283 268.182 280.258 268.922 280.241C268.695 280.455 268.465 280.661 268.231 280.851L267.809 281.192L268.211 281.556L268.541 281.873C268.552 281.884 268.564 281.897 268.574 281.909C268.605 281.947 268.654 281.998 268.724 282.061C268.77 282.103 268.83 282.159 268.905 282.229C268.987 282.307 269.095 282.404 269.232 282.522L269.578 282.797L269.885 282.48C270.135 282.223 270.398 281.973 270.668 281.736C270.953 281.487 271.236 281.231 271.517 280.968L271.518 280.97Z" fill="#446622"/>
<path d="M280.687 281.221C280.659 280.831 280.59 279.488 279.861 278.453C278.894 277.08 277.173 276.653 276.424 276.653L276.054 276.653C275.895 276.653 274.482 276.656 274.3 276.664C274.119 276.671 273.985 276.735 273.898 276.855C273.869 277.23 273.858 277.658 273.865 278.138C273.873 278.618 273.862 279.053 273.833 279.443L273.833 279.556L273.854 279.556C274.289 279.571 275.637 279.636 276.392 280.04C276.937 280.332 277.291 280.655 277.494 281.135C277.668 281.765 277.588 282.512 277.566 283.202C277.545 283.892 277.541 284.559 277.556 285.204C277.527 285.549 277.494 285.898 277.458 286.251C277.422 286.603 277.368 286.967 277.295 287.343C277.281 287.447 277.263 287.545 277.24 287.635C277.218 287.725 277.192 287.822 277.164 287.928C277.022 288.466 276.882 288.783 276.594 289.093C276.374 289.328 275.981 289.51 275.731 289.566C275.472 289.624 274.705 289.65 273.964 289.668C274.192 289.446 274.422 289.232 274.656 289.035L275.077 288.682L274.675 288.304L274.34 287.971C274.331 287.961 274.321 287.949 274.312 287.938C274.28 287.898 274.231 287.844 274.163 287.781C274.117 287.737 274.055 287.678 273.981 287.606C273.9 287.526 273.791 287.425 273.654 287.303L273.308 287.017L273.001 287.345C272.752 287.612 272.488 287.872 272.218 288.117C271.933 288.375 271.65 288.641 271.369 288.913C271.085 289.189 270.803 289.474 270.531 289.759C270.248 290.057 269.971 290.389 269.708 290.745L269.487 291.043L269.713 291.337C269.886 291.562 270.078 291.792 270.284 292.019C270.485 292.241 270.695 292.467 270.914 292.698L271.563 293.383C271.778 293.61 271.984 293.83 272.179 294.04C272.31 294.184 272.437 294.323 272.561 294.455C272.684 294.587 272.806 294.716 272.929 294.843L273.178 295.101L273.485 294.924C273.601 294.857 273.716 294.765 273.828 294.649C273.913 294.561 273.999 294.471 274.083 294.378C274.16 294.294 274.239 294.213 274.32 294.133C274.386 294.067 274.448 294.015 274.503 293.978L274.925 293.688L274.611 293.277C274.474 293.097 274.303 292.896 274.101 292.679C274.069 292.643 274.03 292.602 273.997 292.565C274.884 292.583 275.828 292.597 275.979 292.597C277.416 292.598 278.594 292.195 279.448 291.246C280.302 290.298 280.547 289.152 280.547 287.658C280.547 287.312 280.544 286.974 280.558 286.645L280.558 286.105C280.544 285.339 280.554 284.533 280.59 283.686C280.627 282.838 280.659 282.016 280.688 281.221L280.687 281.221Z" fill="#F7F2EE"/>
<path d="M180.436 54.4861L177.569 48.9569C177.569 48.9569 178.154 38.7722 175.562 34.7096C172.97 30.647 165.839 23.4136 162.65 22.3033C159.46 21.193 156.469 23.3129 156.055 25.7106C155.64 28.1083 157.664 33.4986 159.535 37.8178C161.405 42.1381 165.852 49.0343 168.981 49.9463C172.11 50.8583 173.352 49.4118 175.285 50.4829C177.215 51.5529 181.924 58.43 180.436 54.4861Z" fill="#99BB44" stroke="#1E212B" stroke-miterlimit="10" stroke-linecap="round" stroke-linejoin="round"/>
<path d="M161.164 30.2248C159.028 26.5471 158.385 26.3446 158.385 26.3446L161.164 30.2248Z" fill="#99BB44"/>
<path d="M161.164 30.2248C159.028 26.5471 158.385 26.3446 158.385 26.3446" stroke="#1E212B" stroke-width="0.5" stroke-miterlimit="10" stroke-linecap="round" stroke-linejoin="round"/>
<path d="M178.205 52.7079C178.205 52.7079 164.712 35.9441 161.77 31.2505L178.205 52.7079Z" fill="#99BB44"/>
<path d="M178.205 52.7079C178.205 52.7079 164.712 35.9441 161.77 31.2505" stroke="#1E212B" stroke-width="0.5" stroke-miterlimit="10" stroke-linecap="round" stroke-linejoin="round"/>
<path d="M172.601 34.8464C171.921 32.7255 171.493 31.6714 171.493 31.6714L172.601 34.8464Z" fill="#99BB44"/>
<path d="M172.601 34.8464C171.921 32.7255 171.493 31.6714 171.493 31.6714" stroke="#1E212B" stroke-width="0.5" stroke-miterlimit="10" stroke-linecap="round" stroke-linejoin="round"/>
<path d="M175.773 47.4565C175.773 47.4565 174.333 46.0206 173.878 44.9697C173.442 43.9612 173.686 38.8349 172.966 36.0406" fill="#99BB44"/>
<path d="M175.773 47.4565C175.773 47.4565 174.333 46.0206 173.878 44.9697C173.442 43.9612 173.686 38.8349 172.966 36.0406" stroke="#1E212B" stroke-width="0.5" stroke-miterlimit="10" stroke-linecap="round" stroke-linejoin="round"/>
<path d="M169.367 31.3727C169.367 31.3727 169.457 36.6919 169.576 38.1957C169.695 39.6994 169.769 40.7779 170.015 41.1543C170.262 41.5297 171.873 43.3802 171.873 43.3802" fill="#99BB44"/>
<path d="M169.367 31.3727C169.367 31.3727 169.457 36.6919 169.576 38.1957C169.695 39.6994 169.769 40.7779 170.015 41.1543C170.262 41.5297 171.873 43.3802 171.873 43.3802" stroke="#1E212B" stroke-width="0.5" stroke-miterlimit="10" stroke-linecap="round" stroke-linejoin="round"/>
<path d="M166.032 35.8326C166.032 35.8326 166.354 31.1401 166.473 28.7307C166.593 26.3214 165.265 25.1072 165.265 25.1072" fill="#99BB44"/>
<path d="M166.032 35.8326C166.032 35.8326 166.354 31.1401 166.473 28.7307C166.593 26.3214 165.265 25.1072 165.265 25.1072" stroke="#1E212B" stroke-width="0.5" stroke-miterlimit="10" stroke-linecap="round" stroke-linejoin="round"/>
<path d="M162.124 25.558C162.255 25.9525 162.371 26.4022 162.446 26.8995C162.737 28.8168 162.916 31.6313 162.916 31.6313" fill="#99BB44"/>
<path d="M162.124 25.558C162.255 25.9525 162.371 26.4022 162.446 26.8995C162.737 28.8168 162.916 31.6313 162.916 31.6313" stroke="#1E212B" stroke-width="0.5" stroke-miterlimit="10" stroke-linecap="round" stroke-linejoin="round"/>
<path d="M161.261 23.7669C161.261 23.7669 161.383 23.9334 161.553 24.241L161.261 23.7669Z" fill="#99BB44"/>
<path d="M161.261 23.7669C161.261 23.7669 161.383 23.9334 161.553 24.241" stroke="#1E212B" stroke-width="0.5" stroke-miterlimit="10" stroke-linecap="round" stroke-linejoin="round"/>
<path d="M166.836 43.0736C166.191 43.0641 165.552 42.9686 165.047 42.7131C163.406 41.8838 161.855 40.2263 161.855 40.2263" fill="#99BB44"/>
<path d="M166.836 43.0736C166.191 43.0641 165.552 42.9686 165.047 42.7131C163.406 41.8838 161.855 40.2263 161.855 40.2263" stroke="#1E212B" stroke-width="0.5" stroke-miterlimit="10" stroke-linecap="round" stroke-linejoin="round"/>
<path d="M169.754 42.6855C169.754 42.6855 168.892 42.9262 167.837 43.0291L169.754 42.6855Z" fill="#99BB44"/>
<path d="M169.754 42.6855C169.754 42.6855 168.892 42.9262 167.837 43.0291" stroke="#1E212B" stroke-width="0.5" stroke-miterlimit="10" stroke-linecap="round" stroke-linejoin="round"/>
<path d="M162.19 37.0436C161.812 36.9312 161.441 36.7679 161.103 36.5356C159.29 35.2917 158.425 34.174 158.425 34.174" fill="#99BB44"/>
<path d="M162.19 37.0436C161.812 36.9312 161.441 36.7679 161.103 36.5356C159.29 35.2917 158.425 34.174 158.425 34.174" stroke="#1E212B" stroke-width="0.5" stroke-miterlimit="10" stroke-linecap="round" stroke-linejoin="round"/>
<path d="M165.63 37.0471C165.63 37.0471 164.453 37.3642 163.132 37.2263L165.63 37.0471Z" fill="#99BB44"/>
<path d="M165.63 37.0471C165.63 37.0471 164.453 37.3642 163.132 37.2263" stroke="#1E212B" stroke-width="0.5" stroke-miterlimit="10" stroke-linecap="round" stroke-linejoin="round"/>
<path d="M168.624 47.5923C168.133 47.4799 167.65 47.2986 167.203 47.0208L168.624 47.5923Z" fill="#99BB44"/>
<path d="M168.624 47.5923C168.133 47.4799 167.65 47.2986 167.203 47.0208" stroke="#1E212B" stroke-width="0.5" stroke-miterlimit="10" stroke-linecap="round" stroke-linejoin="round"/>
<path d="M173.065 47.2348C173.065 47.2348 171.43 47.8414 169.626 47.7332L173.065 47.2348Z" fill="#99BB44"/>
<path d="M173.065 47.2348C173.065 47.2348 171.43 47.8414 169.626 47.7332" stroke="#1E212B" stroke-width="0.5" stroke-miterlimit="10" stroke-linecap="round" stroke-linejoin="round"/>
<path d="M401.152 207.793L406.493 204.498C406.493 204.498 416.064 205.57 420.011 202.557C423.957 199.546 431.099 191.12 432.291 187.276C433.483 183.432 431.622 179.716 429.381 179.126C427.141 178.537 421.969 180.811 417.814 182.935C413.657 185.06 406.956 190.23 405.953 194.008C404.951 197.785 406.257 199.348 405.16 201.663C404.063 203.976 397.368 209.465 401.152 207.793Z" fill="#446622" stroke="#1E212B" stroke-miterlimit="10" stroke-linecap="round" stroke-linejoin="round"/>
<path d="M424.894 185.187C428.457 182.716 428.678 181.941 428.678 181.941" stroke="#1E212B" stroke-width="0.5" stroke-miterlimit="10" stroke-linecap="round" stroke-linejoin="round"/>
<path d="M402.93 205.139C402.93 205.139 419.343 189.305 423.9 185.889" stroke="#1E212B" stroke-width="0.5" stroke-miterlimit="10" stroke-linecap="round" stroke-linejoin="round"/>
<path d="M420.017 198.948C422.047 198.196 423.059 197.711 423.059 197.711" stroke="#1E212B" stroke-width="0.5" stroke-miterlimit="10" stroke-linecap="round" stroke-linejoin="round"/>
<path d="M407.99 202.364C407.99 202.364 409.408 200.662 410.419 200.145C411.39 199.649 416.209 200.128 418.875 199.351" stroke="#1E212B" stroke-width="0.5" stroke-miterlimit="10" stroke-linecap="round" stroke-linejoin="round"/>
<path d="M423.438 195.134C423.438 195.134 418.422 195.055 416.999 195.146C415.577 195.238 414.557 195.291 414.191 195.577C413.826 195.864 412.009 197.76 412.009 197.76" stroke="#1E212B" stroke-width="0.5" stroke-miterlimit="10" stroke-linecap="round" stroke-linejoin="round"/>
<path d="M419.388 190.916C419.388 190.916 423.795 191.474 426.06 191.704C428.325 191.935 429.529 190.361 429.529 190.361" stroke="#1E212B" stroke-width="0.5" stroke-miterlimit="10" stroke-linecap="round" stroke-linejoin="round"/>
<path d="M429.248 186.521C428.871 186.666 428.442 186.791 427.969 186.866C426.149 187.152 423.489 187.27 423.489 187.27" stroke="#1E212B" stroke-width="0.5" stroke-miterlimit="10" stroke-linecap="round" stroke-linejoin="round"/>
<path d="M430.975 185.533C430.975 185.533 430.813 185.676 430.515 185.872" stroke="#1E212B" stroke-width="0.5" stroke-miterlimit="10" stroke-linecap="round" stroke-linejoin="round"/>
<path d="M412.528 191.638C412.566 190.854 412.685 190.079 412.949 189.474C413.806 187.505 415.438 185.675 415.438 185.675" stroke="#1E212B" stroke-width="0.5" stroke-miterlimit="10" stroke-linecap="round" stroke-linejoin="round"/>
<path d="M412.76 195.205C412.76 195.205 412.573 194.147 412.524 192.859" stroke="#1E212B" stroke-width="0.5" stroke-miterlimit="10" stroke-linecap="round" stroke-linejoin="round"/>
<path d="M418.422 186.195C418.545 185.739 418.716 185.293 418.95 184.889C420.205 182.727 421.298 181.713 421.298 181.713" stroke="#1E212B" stroke-width="0.5" stroke-miterlimit="10" stroke-linecap="round" stroke-linejoin="round"/>
<path d="M418.262 190.383C418.262 190.383 418.017 188.939 418.207 187.335" stroke="#1E212B" stroke-width="0.5" stroke-miterlimit="10" stroke-linecap="round" stroke-linejoin="round"/>
<path d="M408.188 193.656C408.316 193.062 408.509 192.48 408.792 191.945" stroke="#1E212B" stroke-width="0.5" stroke-miterlimit="10" stroke-linecap="round" stroke-linejoin="round"/>
<path d="M408.322 199.075C408.322 199.075 407.825 197.064 408.009 194.87" stroke="#1E212B" stroke-width="0.5" stroke-miterlimit="10" stroke-linecap="round" stroke-linejoin="round"/>
</svg>
