<svg width="530" height="349" viewBox="0 0 530 349" fill="none" xmlns="http://www.w3.org/2000/svg">
<path d="M468.965 202.738C455.464 232.71 426.379 265.559 383.576 276.252C318.902 292.413 313.125 331.264 195.746 330.999C177.444 330.958 160.457 329.555 144.784 326.99C136.359 325.612 128.311 323.89 120.652 321.86C51.1179 303.488 13.0467 259.796 7.61398 213.108C0.455384 151.702 57.5081 120.722 94.6868 102.476C131.865 84.2295 174.258 16.4048 289.652 16.0018C307.246 15.9461 324.868 17.2087 342.033 20.1004C381.216 26.6892 421.531 42.576 445.749 66.7825C447.567 68.6014 449.308 70.4657 450.982 72.3681C483.646 109.595 487.375 161.876 468.965 202.738Z" fill="#446622"/>
<path opacity="0.7" d="M468.965 202.738C455.464 232.71 426.379 265.559 383.576 276.252C318.902 292.413 313.125 331.264 195.746 330.999C177.444 330.958 160.457 329.555 144.784 326.99C136.359 325.612 128.311 323.89 120.652 321.86C51.1179 303.488 13.0467 259.796 7.61398 213.108C0.455384 151.702 57.5081 120.722 94.6868 102.476C131.865 84.2295 174.258 16.4048 289.652 16.0018C307.246 15.9461 324.868 17.2087 342.033 20.1004C381.216 26.6892 421.531 42.576 445.749 66.7825C447.567 68.6014 449.308 70.4657 450.982 72.3681C483.646 109.595 487.375 161.876 468.965 202.738Z" fill="white"/>
<path d="M465.383 342.703H0" stroke="#1E212B" stroke-miterlimit="10"/>
<path d="M19.97 305.218C19.97 305.218 -52.726 82.8636 388.5 61.4999" stroke="#1E212B" stroke-miterlimit="10" stroke-linecap="round" stroke-linejoin="round" stroke-dasharray="5 5"/>
<path d="M326 27.5001C459 14.5 473.203 60.744 477.5 79.5C482 141 447.227 166.8 426.521 201.986C404.661 239.134 366.057 265.891 324.586 281.789C236.669 315.492 124.756 293.395 74.8329 213.424C74.2919 212.554 73.7567 211.681 73.2294 210.804C68.3907 202.738 63.9211 194.029 62 184.898" stroke="#1E212B" stroke-miterlimit="10" stroke-linecap="round" stroke-linejoin="round" stroke-dasharray="5 5"/>
<path d="M239 36.0068C239 43.9789 235.27 51.0888 229.439 55.6538C225.197 59.0072 219.824 61 214.007 61C208.176 61 202.803 59.0072 198.561 55.6538C192.73 51.0888 189 43.9789 189 36.0068C189 22.1909 200.19 11 214.007 11C227.81 11 239 22.1901 239 36.0068Z" fill="#1E212B" stroke="#1E212B" stroke-miterlimit="10"/>
<path d="M224.442 32.0885C224.442 26.3232 219.768 21.6494 214.003 21.6494C208.237 21.6494 203.563 26.3232 203.563 32.0885C203.563 37.8537 208.237 42.5276 214.003 42.5276C219.768 42.5276 224.442 37.8537 224.442 32.0885Z" fill="#99BB44" stroke="#1E212B" stroke-miterlimit="10"/>
<path d="M229.439 55.6537C225.197 59.0071 219.824 61 214.007 61C208.176 61 202.803 59.0071 198.561 55.6537C200.11 48.5574 206.439 43.2377 214.007 43.2377C221.562 43.2377 227.891 48.5567 229.439 55.6537Z" fill="#99BB44" stroke="#1E212B" stroke-miterlimit="10"/>
<path d="M256 30.688L287.585 5.22577L290.248 21.2447L256 30.688Z" fill="#99BB44" stroke="#1E212B" stroke-miterlimit="10"/>
<path d="M256 30.688L293.339 44.1291L290.691 26.7453L256 30.688Z" fill="#99BB44" stroke="#1E212B" stroke-miterlimit="10"/>
<path d="M290.248 21.2447L296.941 27.9183L290.691 26.7453L256 30.688L290.248 21.2447Z" fill="#99BB44" stroke="#1E212B" stroke-miterlimit="10"/>
<path d="M296.941 27.9184L291.393 30.0465L290.691 26.7453L296.941 27.9184Z" fill="#99BB44" stroke="#1E212B" stroke-miterlimit="10"/>
<path d="M506.574 294.843C504.05 294.457 499.664 291.379 499.66 291.376C499.615 291.345 503.17 288.978 503.409 288.85C506.177 287.373 512.232 285.92 514.461 287.952C516.066 289.417 515.494 291.977 513.593 293.481C511.65 295.017 508.725 295.173 506.574 294.843Z" fill="#1E212B"/>
<path d="M493.755 307.257C491.618 306.283 488.632 302.429 488.396 302.121C485.821 304.02 483.042 305.795 480.145 307.461C478.49 308.414 476.797 309.331 475.091 310.232C475.919 309.921 476.662 309.648 476.769 309.62C479.755 308.824 485.777 308.867 487.256 311.46C488.322 313.327 487.056 315.754 484.864 316.792C482.626 317.852 479.872 317.281 477.977 316.418C476.054 315.541 473.43 312.313 472.748 311.448C472.091 311.788 471.438 312.133 470.779 312.47C467.62 314.09 464.462 315.693 461.403 317.349C460.324 317.932 459.28 318.54 458.233 319.145C458.969 318.869 459.59 318.643 459.688 318.616C462.675 317.821 468.696 317.864 470.175 320.456C471.242 322.324 469.976 324.752 467.784 325.789C465.544 326.848 462.791 326.278 460.896 325.414C459.061 324.578 456.606 321.622 455.791 320.599C454.734 321.247 453.675 321.894 452.677 322.561C452.004 323.03 451.327 323.442 450.674 323.945C450.018 324.431 449.368 324.913 448.725 325.39C447.516 326.346 446.263 327.325 445.105 328.283C444.296 328.943 443.535 329.585 442.767 330.23C443.835 329.639 445.945 328.519 446.13 328.443C449.017 327.249 455.11 326.435 457.033 328.728C458.417 330.381 457.538 332.907 455.494 334.221C453.406 335.562 450.529 335.404 448.471 334.839C446.205 334.217 442.678 331.065 442.239 330.668C440.972 331.738 439.748 332.789 438.608 333.795C436.086 336.013 433.886 338.041 432.051 339.775L430.38 338.664C432.317 336.895 434.66 334.811 437.365 332.521C438.648 331.43 440.039 330.285 441.478 329.12C441.283 328.799 440.188 326.967 439.418 325.104C436.885 325.702 432.104 325.195 431.487 325.126C430.968 326.589 430.479 328.014 430.041 329.362C429.114 332.182 428.35 334.723 427.729 336.902L425.922 335.702C426.543 333.725 427.276 331.49 428.138 329.047C428.658 327.56 429.244 325.977 429.862 324.355C429.295 324.141 424.679 322.36 423.21 320.718C421.879 319.227 420.686 316.919 421.37 314.726C422.039 312.579 424.412 310.958 426.662 311.509C429.784 312.273 431.084 317.569 430.842 320.366C430.828 320.532 430.458 322.335 430.205 323.472C430.461 322.81 430.702 322.166 430.974 321.486C431.502 320.139 432.071 318.805 432.677 317.368C432.995 316.68 433.316 315.985 433.64 315.283C433.947 314.583 434.361 313.866 434.722 313.15C435.594 311.5 436.558 309.858 437.566 308.217C436.353 307.953 432.07 306.954 430.47 305.698C428.878 304.447 427.293 302.388 427.624 300.172C427.946 298.001 430.077 296.098 432.442 296.309C435.723 296.603 437.911 301.536 438.127 304.273C438.141 304.443 438.053 306.456 437.982 307.564C438.595 306.581 439.204 305.598 439.857 304.618C441.742 301.788 443.737 298.967 445.715 296.145C446.322 295.281 446.916 294.415 447.514 293.549C447.08 293.459 441.944 292.38 440.153 290.973C438.56 289.723 436.975 287.662 437.306 285.446C437.628 283.276 439.759 281.373 442.123 281.584C445.405 281.878 447.592 286.811 447.809 289.547C447.825 289.753 447.694 292.651 447.623 293.391C448.939 291.484 450.233 289.576 451.433 287.657C453.092 285.011 454.575 282.35 455.82 279.7C455.618 279.659 450.249 278.555 448.413 277.114C446.821 275.863 445.235 273.804 445.566 271.588C445.889 269.417 448.02 267.514 450.385 267.726C453.666 268.02 455.853 272.951 456.07 275.689C456.087 275.904 455.944 279.021 455.875 279.59C455.949 279.432 456.043 279.273 456.114 279.116C457.407 276.277 458.294 273.426 458.989 270.738C459.397 269.176 459.694 267.675 459.949 266.214C458.91 266.107 454.18 265.572 452.346 264.468C450.588 263.41 448.741 261.559 448.809 259.358C448.876 257.202 450.801 255.122 453.215 255.085C456.565 255.034 459.364 259.631 459.909 262.284C459.939 262.429 460.059 263.951 460.128 265.063C460.233 264.403 460.354 263.723 460.44 263.091C460.77 260.717 460.917 258.545 461.031 256.623C461.086 255.532 461.112 254.546 461.125 253.626C460.244 253.015 456.733 250.504 455.8 248.689C454.891 246.917 454.303 244.35 455.463 242.276C456.598 240.247 459.22 239.092 461.215 240.101C463.987 241.501 463.978 247.105 463.094 249.877C463.017 250.117 461.376 253.797 461.329 253.766C461.329 253.766 461.286 253.736 461.276 253.729C461.282 254.613 461.277 255.561 461.249 256.601C461.181 258.523 461.085 260.696 460.807 263.078C460.537 265.459 460.172 268.047 459.525 270.778C458.88 273.516 458.054 276.384 456.803 279.293C456.789 279.326 456.77 279.359 456.756 279.392C457.393 278.609 459.242 276.465 459.403 276.313C461.659 274.167 467.196 271.078 470.107 272.263C472.202 273.118 472.5 275.601 471.117 277.518C469.703 279.476 466.842 280.473 464.588 280.805C462.047 281.179 457.003 279.824 456.601 279.716C455.384 282.479 453.905 285.255 452.254 288.011C451.31 289.587 450.312 291.154 449.29 292.716C449.861 292.052 450.378 291.462 450.458 291.385C452.715 289.239 458.251 286.151 461.161 287.336C463.257 288.19 463.556 290.674 462.172 292.59C460.759 294.547 457.896 295.544 455.644 295.876C453.357 296.213 449.018 295.143 447.877 294.845C447.478 295.441 447.088 296.04 446.687 296.635C444.767 299.491 442.84 302.335 441.033 305.166C440.395 306.164 439.805 307.163 439.211 308.16C439.718 307.572 440.151 307.079 440.225 307.009C442.481 304.862 448.017 301.775 450.927 302.96C453.023 303.814 453.322 306.297 451.938 308.215C450.526 310.171 447.663 311.17 445.409 311.501C443.228 311.823 439.207 310.87 437.847 310.522C437.269 311.556 436.688 312.592 436.174 313.613C435.84 314.315 435.468 314.976 435.171 315.693C434.863 316.398 434.557 317.097 434.255 317.789C433.722 319.136 433.164 320.522 432.678 321.843C432.333 322.76 432.022 323.637 431.705 324.52C432.328 323.523 433.588 321.586 433.712 321.433C434.992 319.842 437.667 317.649 440.239 316.568C440.427 316.332 440.634 316.109 440.861 315.903C442.654 314.285 445.412 314.031 446.776 315.701C448.668 318.018 446.469 323.54 444.609 325.974C444.499 326.118 443.138 327.577 442.265 328.487C442.856 328.014 443.423 327.549 444.036 327.068C445.242 326.11 446.471 325.183 447.79 324.182C448.442 323.717 449.101 323.247 449.766 322.773C450.417 322.291 451.159 321.851 451.86 321.382C453.506 320.324 455.219 319.32 456.962 318.34C456.208 317.469 453.582 314.336 453.132 312.357C452.684 310.388 452.727 307.681 454.304 305.824C455.85 304.005 458.595 303.367 460.249 304.785C462.543 306.754 461.23 312.403 459.751 315.02C459.659 315.183 458.385 316.98 457.666 317.957C458.718 317.376 459.766 316.791 460.846 316.232C463.963 314.619 467.158 313.07 470.34 311.513C471.316 311.036 472.282 310.551 473.252 310.069C472.979 309.762 469.761 306.113 469.256 303.896C468.808 301.927 468.851 299.221 470.429 297.363C471.974 295.544 474.72 294.907 476.373 296.326C478.668 298.295 477.355 303.942 475.876 306.56C475.764 306.757 473.928 309.341 473.429 309.981C475.563 308.918 477.683 307.841 479.739 306.707C482.576 305.144 485.289 303.477 487.816 301.698C487.688 301.555 484.309 297.762 483.792 295.493C483.344 293.524 483.386 290.817 484.965 288.959C486.51 287.141 489.256 286.503 490.909 287.922C493.204 289.891 491.891 295.539 490.411 298.156C490.295 298.362 488.318 301.142 487.925 301.625C488.075 301.519 488.241 301.424 488.389 301.317C491.066 299.386 493.445 297.238 495.581 295.138C496.824 293.92 497.948 292.7 499.017 291.494C498.299 290.859 495.059 287.918 494.341 285.957C493.653 284.077 493.372 281.426 494.744 279.447C496.087 277.51 498.786 276.603 500.624 277.82C503.178 279.508 502.525 285.167 501.344 287.878C501.28 288.026 500.457 289.481 499.842 290.536C500.316 289.985 500.816 289.424 501.26 288.891C502.933 286.89 504.348 284.979 505.586 283.278C506.282 282.307 506.894 281.418 507.456 280.583C507.16 279.566 506.022 275.45 506.409 273.305C506.788 271.211 507.886 268.558 510.003 267.261C512.076 265.991 514.741 266.293 515.64 268.251C516.886 270.969 513.515 276.093 511.188 278.172C510.986 278.351 507.542 280.869 507.526 280.817C507.526 280.817 507.511 280.767 507.508 280.756C506.982 281.567 506.409 282.433 505.764 283.37C504.56 285.094 503.183 287.033 501.545 289.07C499.913 291.108 498.084 293.29 495.958 295.453C493.83 297.623 491.487 299.822 488.8 301.836C488.77 301.859 488.734 301.88 488.704 301.902C489.653 301.515 492.333 300.512 492.546 300.455C495.532 299.659 501.554 299.703 503.033 302.294C504.099 304.162 502.833 306.59 500.641 307.627C498.404 308.69 495.651 308.12 493.755 307.257Z" fill="#1E212B"/>
<path d="M460.466 265.792C460.405 265.791 462.239 262.167 462.381 261.947C464.028 259.401 468.698 255.169 471.957 255.545C474.305 255.815 475.318 258.04 474.479 260.158C473.624 262.32 471.039 263.953 468.874 264.819C466.332 265.837 460.471 265.792 460.466 265.792Z" fill="#1E212B"/>
<path d="M326.732 225.484V129.327C326.732 106.011 345.701 87.041 369.019 87.041C392.335 87.041 411.305 106.01 411.305 129.327V225.484H428.759V129.327C428.759 96.386 401.96 69.587 369.019 69.587H369.018C336.078 69.587 309.278 96.386 309.278 129.327V225.484H326.732Z" fill="#1E212B"/>
<path d="M442.974 183.648H300.582V342.703H442.974V183.648Z" fill="#B2B2B2"/>
<path d="M442.974 197.178L300.582 339.57V342.703H314.819L442.974 214.548V197.178Z" fill="white"/>
<path d="M300.582 223.259V275.24L392.173 183.648H340.192L300.582 223.259Z" fill="white"/>
<path d="M442.974 183.648H300.582V342.703H442.974V183.648Z" stroke="#1E212B" stroke-miterlimit="10"/>
<path d="M442.974 183.648H413.004V342.703H442.974V183.648Z" fill="#1E212B" stroke="#1E212B" stroke-miterlimit="10"/>
<path d="M360.668 246.584C360.668 241.072 356.2 236.604 350.688 236.604C345.176 236.604 340.708 241.072 340.708 246.584C340.708 250.711 343.213 254.252 346.786 255.772L344.954 277.443H356.423L354.591 255.772C358.163 254.252 360.668 250.711 360.668 246.584Z" fill="#1E212B" stroke="#1E212B" stroke-miterlimit="10"/>
<path d="M77.2319 248.345L69.4879 288.684L57.0919 325.566L54.0299 331.329C54.0299 331.329 50.6079 336.371 50.2479 340.153C49.8879 343.935 53.4899 346.096 56.1909 344.835C58.8919 343.574 60.3329 338.352 60.8729 336.011C61.4129 333.67 62.4939 329.528 62.8539 328.087C63.2139 326.646 63.9349 325.566 63.9349 325.566C63.9349 325.566 85.3349 289.944 85.3349 288.864C85.3349 287.784 95.4199 261.491 95.4199 261.491L97.4009 261.671L103.344 291.025L86.7759 325.421C86.7759 325.421 81.5539 331.544 81.9139 332.264C82.2739 332.984 85.1559 335.866 86.2359 336.586C87.3159 337.306 91.2779 343.609 94.1599 344.33C97.0409 345.05 98.1219 345.771 97.5819 343.43C97.0419 341.089 95.4209 337.487 95.0609 336.407C94.7009 335.326 93.9869 327.795 93.9869 327.795L118.832 294.987L115.59 254.468L77.2319 248.345Z" fill="white" stroke="#1E212B" stroke-miterlimit="10" stroke-linecap="round" stroke-linejoin="round"/>
<path d="M88.4579 336.433C87.2399 335.519 84.4229 332.606 82.6379 330.72C82.1339 331.476 81.8169 332.07 81.9139 332.265C82.2739 332.985 85.1549 335.867 86.2359 336.587C87.3159 337.307 91.2779 343.61 94.1599 344.331C96.0849 344.812 97.2019 345.288 97.5729 344.857C91.7279 343.322 90.0109 337.597 88.4579 336.433Z" fill="white" stroke="#1E212B" stroke-miterlimit="10" stroke-linecap="round" stroke-linejoin="round"/>
<path d="M59.5469 340.337C57.6659 342.226 55.4639 343.654 53.1269 342.953C50.3779 342.128 51.0359 337.99 51.7699 335.347C51.0479 336.877 50.3949 338.617 50.2489 340.153C49.8889 343.935 53.4909 346.096 56.1919 344.835C57.6679 344.146 58.7649 342.275 59.5469 340.337Z" fill="white" stroke="#1E212B" stroke-miterlimit="10" stroke-linecap="round" stroke-linejoin="round"/>
<path d="M77.2319 248.345L69.4889 288.684L57.0929 325.566C57.0929 325.566 58.1999 329.52 63.0829 327.349C63.4559 326.296 63.9369 325.566 63.9369 325.566C63.9369 325.566 85.3369 289.944 85.3369 288.864C85.3369 287.784 95.4219 261.491 95.4219 261.491L97.4029 261.671L103.346 291.025L86.7779 325.421C86.7779 325.421 88.9329 329.049 94.0529 327.709L118.833 294.987L115.591 254.468L77.2319 248.345Z" fill="#1E212B" stroke="#1E212B" stroke-miterlimit="10" stroke-linecap="round" stroke-linejoin="round"/>
<path d="M107.647 192.104L103.154 192.932L82.5789 252.765C82.5789 252.765 86.4809 259.623 99.1339 259.505C111.787 259.387 115.452 257.376 115.452 257.376L115.097 221.192L120.29 197.247C120.29 197.247 112.259 192.341 107.647 192.104Z" fill="white" stroke="#1E212B" stroke-miterlimit="10"/>
<path d="M130.825 175.669C130.825 175.669 130.825 181.165 130.541 181.923C130.257 182.681 128.835 183.723 128.835 184.387C128.835 185.051 130.446 187.703 130.162 188.367C129.878 189.03 127.035 189.788 127.035 189.788C127.035 189.788 124.666 194.431 123.529 194.905C122.392 195.379 117.939 193.105 117.939 193.105L115.381 200.97C115.381 200.97 114.244 203.149 109.98 202.486C105.716 201.823 104.2 200.212 104.011 199.17C103.822 198.128 103.348 197.843 103.916 196.706C104.485 195.569 105.337 193.105 105.337 193.105L110.738 181.735L111.591 176.524C111.591 176.524 113.486 172.829 120.498 172.071C127.509 171.31 130.825 175.669 130.825 175.669Z" fill="white" stroke="#1E212B" stroke-miterlimit="10"/>
<path d="M123.529 187.797C123.529 187.797 123.719 189.503 125.898 190.071" stroke="#1E212B" stroke-miterlimit="10" stroke-linecap="round" stroke-linejoin="round"/>
<path d="M128.646 181.449C128.646 181.449 127.414 179.933 125.803 180.407" stroke="#1E212B" stroke-miterlimit="10" stroke-linecap="round" stroke-linejoin="round"/>
<path d="M127.212 183.706C127.111 184.193 126.759 184.531 126.426 184.462C126.093 184.393 125.905 183.942 126.006 183.455C126.107 182.968 126.459 182.63 126.792 182.699C127.125 182.769 127.313 183.219 127.212 183.706Z" fill="#1E212B"/>
<path d="M117.939 193.104L115.191 190.64L117.181 195.757L117.939 193.104Z" fill="#1E212B" stroke="#1E212B" stroke-miterlimit="10" stroke-linecap="round" stroke-linejoin="round"/>
<path d="M116.044 180.217C116.044 180.217 119.929 178.89 120.971 178.227C122.013 177.564 120.592 175.384 121.445 174.626C122.298 173.868 125.993 173.489 127.983 174.152C129.973 174.815 130.068 176.331 131.963 176.047C133.858 175.763 136.227 174.247 135.185 171.594C134.143 168.941 131.016 166.667 128.458 166.383C125.9 166.099 123.247 166.762 119.93 166.383C116.614 166.004 113.202 164.772 111.402 168.373C109.602 171.974 108.086 175.859 108.749 177.754C109.412 179.649 109.697 182.018 110.455 182.397C111.211 182.776 116.044 180.217 116.044 180.217Z" fill="#1E212B" stroke="#1E212B" stroke-miterlimit="10"/>
<path d="M116.517 181.544C116.517 181.544 116.138 176.996 114.148 177.849C112.158 178.702 112.348 183.06 113.58 183.913C114.812 184.766 115.854 183.439 115.854 183.439" fill="white"/>
<path d="M116.517 181.544C116.517 181.544 116.138 176.996 114.148 177.849C112.158 178.702 112.348 183.06 113.58 183.913C114.812 184.766 115.854 183.439 115.854 183.439" stroke="#1E212B" stroke-miterlimit="10"/>
<path d="M102.589 201.347L83.6379 262.842C83.6379 262.842 78.7109 258.957 75.9629 256.304C73.2149 253.651 72.5519 252.893 72.5519 252.893L79.3739 237.827L80.6059 232.995L60.6129 246.26L57.2019 239.532L74.1629 224.372C74.1629 224.372 84.5859 195.472 85.2489 195.093C85.9119 194.714 104.863 192.156 104.863 192.156L102.589 201.347Z" fill="#B2B2B2" stroke="#1E212B" stroke-miterlimit="10"/>
<path d="M106.663 190.545C106.663 190.545 103.82 189.787 102.399 191.208C100.978 192.629 95.7659 200.115 97.0929 200.873C98.4199 201.631 102.02 199.641 102.02 199.641L102.588 201.347L106.663 190.545Z" fill="white" stroke="#1E212B" stroke-miterlimit="10"/>
<path d="M86.7649 204.664L80.6059 232.995" stroke="#1E212B" stroke-miterlimit="10" stroke-linecap="round" stroke-linejoin="round"/>
<path d="M96.9039 212.339L87.3329 211.201L86.7649 214.328L96.4299 216.034L96.9039 214.328" stroke="#1E212B" stroke-miterlimit="10" stroke-linecap="round" stroke-linejoin="round"/>
<path d="M85.9499 208.169C85.9499 208.169 84.9369 202.539 84.7119 199.5" stroke="#1E212B" stroke-miterlimit="10" stroke-linecap="round" stroke-linejoin="round"/>
<path d="M85.3869 209.408C85.3869 209.408 83.6979 206.593 82.5719 204.792" stroke="#1E212B" stroke-miterlimit="10" stroke-linecap="round" stroke-linejoin="round"/>
<path d="M115.38 200.968C115.38 200.968 110.719 220.554 110.832 226.521C110.945 232.488 112.521 264.126 112.521 264.126C112.521 264.126 118.601 263 119.614 262.662C120.627 262.324 124.568 261.086 124.568 261.086C124.568 261.086 117.7 238.793 117.7 238.005C117.7 237.217 118.938 231.925 118.938 231.925C118.938 231.925 122.991 241.045 123.554 241.72C124.117 242.396 139.625 249.387 139.625 249.387L141.005 241.157L131.21 232.15C131.21 232.15 129.071 215.149 129.071 213.798C129.071 212.447 129.634 203.89 129.634 203.89L117.362 194.207L115.38 200.968Z" fill="#B2B2B2" stroke="#1E212B" stroke-miterlimit="10"/>
<path d="M152.914 246.617C152.914 246.617 148.002 247.688 146.742 247.814C145.482 247.94 143.089 247.688 142.019 247.31C140.948 246.932 138.87 246.113 138.87 246.113C138.87 246.113 138.429 244.854 138.744 244.161C139.059 243.468 140.759 243.531 140.759 243.531L151.402 244.602L152.914 246.617Z" fill="white" stroke="#1E212B" stroke-miterlimit="10"/>
<path d="M124.456 211.885L118.939 231.926" stroke="#1E212B" stroke-miterlimit="10" stroke-linecap="round" stroke-linejoin="round"/>
<path d="M121.416 217.177L114.773 215.488L114.435 218.19L120.29 219.766" stroke="#1E212B" stroke-miterlimit="10" stroke-linecap="round" stroke-linejoin="round"/>
<path d="M122.316 220.442L125.694 215.6" stroke="#1E212B" stroke-miterlimit="10" stroke-linecap="round" stroke-linejoin="round"/>
<path d="M114.886 204.116L116.124 202.878C116.124 202.878 118.939 206.143 119.502 205.13C120.065 204.117 121.191 201.527 120.29 197.249C119.389 192.971 117.939 193.104 117.939 193.104L115.381 200.969L114.886 204.116Z" fill="white" stroke="#1E212B" stroke-miterlimit="10"/>
<path d="M178.033 249.537L172.119 289.518L158.55 328.449C158.55 328.449 153.865 333.457 152.573 339.111C151.281 344.765 154.996 345.088 156.935 343.634C158.873 342.18 163.558 329.742 163.72 329.095C163.882 328.449 184.074 294.041 184.397 293.556C184.72 293.071 194.413 264.802 194.413 264.802L201.521 292.587L216.221 332.972C216.221 332.972 217.19 339.918 219.613 342.664C222.036 345.41 225.59 347.349 226.236 344.926C226.882 342.503 226.397 338.303 224.621 336.364C222.844 334.425 220.098 330.387 220.098 330.387L214.929 288.71L211.727 249.728L178.033 249.537Z" fill="white" stroke="#1E212B" stroke-miterlimit="10"/>
<path d="M214.927 288.711L211.725 249.729L178.033 249.538L172.119 289.519L161.397 320.28L167.625 322.21C173.553 311.972 184.162 293.908 184.395 293.558C184.718 293.073 194.411 264.804 194.411 264.804L201.519 292.589L213.174 324.608L219.13 322.601L214.927 288.711Z" fill="#1E212B" stroke="#1E212B" stroke-miterlimit="10"/>
<path d="M156.934 343.634C157.94 342.879 159.686 339.165 161.155 335.676L157.741 339.595L153.703 338.464L154.403 334.379C153.636 335.826 152.954 337.437 152.572 339.11C151.28 344.765 154.995 345.088 156.934 343.634Z" fill="#1E212B" stroke="#1E212B" stroke-miterlimit="10"/>
<path d="M226.234 344.927C226.88 342.504 226.395 338.304 224.619 336.365C224.497 336.231 224.369 336.086 224.239 335.935L225.104 341.373L221.873 342.504L216.742 335.708C217.259 337.963 218.182 341.045 219.612 342.665C222.034 345.411 225.588 347.35 226.234 344.927Z" fill="#1E212B" stroke="#1E212B" stroke-miterlimit="10"/>
<path d="M178.033 249.537C178.033 249.537 184.975 261.807 194.61 262.36C204.245 262.914 211.725 249.728 211.725 249.728L178.663 248.406L178.033 249.537Z" fill="white" stroke="#1E212B" stroke-miterlimit="10"/>
<path d="M188.944 203.02C188.944 203.02 178.128 208.284 178.032 208.954C177.936 209.624 170.676 238.593 170.676 238.593C170.676 238.593 168.086 244.38 171.34 246.199C174.594 248.018 180.425 241.976 180.425 241.976L178.032 249.538C178.032 249.538 185.73 253.403 196.206 253.94C204.258 254.353 211.723 249.729 211.723 249.729L210.574 241.785C210.574 241.785 217.295 246.309 219.688 245.256C222.081 244.203 223.879 242.072 223.879 240.637C223.879 239.202 222.73 238.818 220.816 236.713C218.902 234.607 215.743 224.174 215.743 224.174C215.743 224.174 213.063 209.817 212.393 208.668C211.723 207.519 203.396 203.786 203.396 203.786L188.944 203.02Z" fill="#B2B2B2" stroke="#1E212B" stroke-miterlimit="10"/>
<path d="M182.206 214.629L184.089 220.388L180.426 241.976" stroke="#1E212B" stroke-miterlimit="10"/>
<path d="M210.558 215.625L209.228 220.166L210.576 241.784" stroke="#1E212B" stroke-miterlimit="10"/>
<path d="M178.884 246.635C178.884 246.635 195.164 251.619 211.333 247.078" stroke="#1E212B" stroke-miterlimit="10"/>
<path d="M58.4109 231.482C58.4109 231.482 55.4499 232.116 54.8159 232.434C54.1819 232.751 54.0759 234.02 53.2299 234.549C52.3839 235.078 51.1149 235.818 51.8549 236.347C52.5949 236.876 54.1399 237.269 54.9009 236.226C55.6619 235.184 57.5709 234.301 57.8859 234.425" fill="white"/>
<path d="M58.4109 231.482C58.4109 231.482 55.4499 232.116 54.8159 232.434C54.1819 232.751 54.0759 234.02 53.2299 234.549C52.3839 235.078 51.1149 235.818 51.8549 236.347C52.5949 236.876 54.1399 237.269 54.9009 236.226C55.6619 235.184 57.5709 234.301 57.8859 234.425" stroke="#1E212B" stroke-miterlimit="10"/>
<path d="M165.87 246.014C165.87 246.014 164.744 245.948 164.081 245.418C163.418 244.888 162.358 244.689 161.762 244.557C161.166 244.424 161.364 243.894 162.226 243.563C163.088 243.232 164.678 243.364 165.473 243.696C166.268 244.028 166.666 244.425 166.666 244.425L165.87 246.014Z" fill="white" stroke="#1E212B" stroke-miterlimit="10"/>
<path d="M309.129 235.732H126.831V244.152H309.129V235.732Z" fill="#446622" stroke="#1E212B" stroke-miterlimit="10"/>
<path d="M93.9919 202.106C73.0959 202.106 56.1559 219.046 56.1559 239.942C56.1559 260.838 73.0959 277.778 93.9919 277.778C114.888 277.778 131.828 260.838 131.828 239.942C131.828 219.046 114.889 202.106 93.9919 202.106ZM93.9919 267.878C78.5639 267.878 66.0559 255.371 66.0559 239.942C66.0559 224.513 78.5629 212.006 93.9919 212.006C109.42 212.006 121.928 224.513 121.928 239.942C121.928 255.371 109.421 267.878 93.9919 267.878Z" fill="#446622" stroke="#1E212B" stroke-miterlimit="10"/>
<path d="M276.353 235.732V275.22H284.119C284.117 275.147 284.108 275.076 284.108 275.002C284.108 269.938 288.213 265.833 293.277 265.833C298.341 265.833 302.446 269.938 302.446 275.002C302.446 275.075 302.437 275.147 302.435 275.22H309.13V235.732H276.353Z" fill="#446622" stroke="#1E212B" stroke-miterlimit="10"/>
<path d="M233.743 235.732V258.395H238.2C238.199 258.353 238.194 258.312 238.194 258.27C238.194 255.364 240.55 253.007 243.456 253.007C246.362 253.007 248.718 255.363 248.718 258.27C248.718 258.312 248.713 258.353 248.712 258.395H252.554V235.732H233.743Z" fill="#446622" stroke="#1E212B" stroke-miterlimit="10"/>
<path d="M202.164 173.215C202.164 173.215 204.792 171.064 203.598 168.914C202.403 166.763 197.146 163.577 194.996 164.374C192.845 165.171 188.624 169.631 188.305 171.304C187.986 172.977 191.332 175.287 191.969 175.366C192.606 175.445 198.023 172.259 202.164 173.215Z" fill="#1E212B" stroke="#1E212B" stroke-miterlimit="10"/>
<path d="M196.987 172.498C196.987 172.498 188.385 174.887 185.995 179.507C183.606 184.127 183.446 185.162 184.8 187.392C186.154 189.622 189.499 193.605 192.606 195.198C195.712 196.791 205.589 194.481 205.589 194.481C205.589 194.481 208.616 193.127 209.571 190.737C210.527 188.348 212.677 185.002 211.244 181.418C209.81 177.834 203.438 172.896 201.447 172.338C199.456 171.781 196.987 172.498 196.987 172.498Z" fill="#1E212B" stroke="#1E212B" stroke-miterlimit="10"/>
<path d="M203.248 178.542C203.248 178.542 198.958 181.182 196.758 182.722C194.558 184.262 191.918 185.142 191.918 185.142C191.918 185.142 189.938 186.022 190.378 188.332C190.818 190.642 191.651 198.623 191.651 198.623L190.158 201.863L196.538 208.903L201.598 202.303L202.148 198.893C202.148 198.893 206.768 196.033 206.878 195.373C206.988 194.713 208.308 185.033 208.198 184.042C208.088 183.052 203.248 178.542 203.248 178.542Z" fill="white" stroke="#1E212B" stroke-miterlimit="10"/>
<path d="M203.996 185.322C203.996 185.322 203.757 187.473 203.757 187.791C203.757 188.109 205.669 189.782 204.952 190.419C204.235 191.056 202.801 191.455 202.801 191.455" stroke="#1E212B" stroke-miterlimit="10" stroke-linecap="round" stroke-linejoin="round"/>
<path d="M203.041 193.446C203.041 193.446 202.245 194.322 200.492 192.49" stroke="#1E212B" stroke-miterlimit="10" stroke-linecap="round" stroke-linejoin="round"/>
<path d="M202.148 198.893C202.148 198.893 200.332 198.703 199.616 198.225C198.899 197.747 196.828 196.154 196.828 196.154L200.89 203.163L201.598 202.303L202.148 198.893Z" fill="#1E212B" stroke="#1E212B" stroke-miterlimit="10" stroke-linecap="round" stroke-linejoin="round"/>
<path d="M192.766 187.233C192.766 187.233 191.253 182.693 189.5 185.242C187.748 187.791 190.536 191.375 191.89 191.295" fill="white"/>
<path d="M192.766 187.233C192.766 187.233 191.253 182.693 189.5 185.242C187.748 187.791 190.536 191.375 191.89 191.295" stroke="#1E212B" stroke-miterlimit="10"/>
<path d="M200.054 187.95C200.428 187.95 200.731 187.522 200.731 186.994C200.731 186.466 200.428 186.038 200.054 186.038C199.68 186.038 199.377 186.466 199.377 186.994C199.377 187.522 199.68 187.95 200.054 187.95Z" fill="#1E212B"/>
<path d="M206.028 187.95C206.402 187.95 206.705 187.522 206.705 186.994C206.705 186.466 206.402 186.038 206.028 186.038C205.654 186.038 205.351 186.466 205.351 186.994C205.351 187.522 205.654 187.95 206.028 187.95Z" fill="#1E212B"/>
<path d="M198.262 184.923C198.262 184.923 199.696 183.489 201.607 184.604" stroke="#1E212B" stroke-miterlimit="10" stroke-linecap="round" stroke-linejoin="round"/>
<path d="M204.713 184.445C204.713 184.445 206.864 183.569 207.341 185.242" stroke="#1E212B" stroke-miterlimit="10" stroke-linecap="round" stroke-linejoin="round"/>
<path d="M190.137 199.42L195.713 206.509L191.89 210.65L187.588 202.924L190.137 199.42Z" fill="white" stroke="#1E212B" stroke-miterlimit="10"/>
<path d="M195.713 206.509L196.538 208.903L194.598 207.942L195.713 206.509Z" fill="white" stroke="#1E212B" stroke-miterlimit="10"/>
<path d="M197.704 205.314L200.412 210.65L204.554 203.641L201.766 201.411L197.704 205.314Z" fill="white" stroke="#1E212B" stroke-miterlimit="10"/>
<path d="M197.704 205.314L196.538 208.903L198.5 206.987L197.704 205.314Z" fill="white" stroke="#1E212B" stroke-miterlimit="10"/>
<path d="M166.151 242.025C166.151 242.025 165.023 245.24 165.339 245.682C165.67 246.146 166.754 246.698 167.055 245.643C167.356 244.588 167.658 242.237 167.261 241.574C166.864 240.912 166.151 242.025 166.151 242.025Z" fill="white" stroke="#1E212B" stroke-miterlimit="10"/>
<path d="M167.94 243.019C167.94 243.019 166.812 246.234 167.128 246.676C167.459 247.14 168.543 247.692 168.844 246.637C169.145 245.582 169.447 243.23 169.049 242.568C168.653 241.906 167.94 243.019 167.94 243.019Z" fill="white" stroke="#1E212B" stroke-miterlimit="10"/>
<path d="M170.259 242.887C170.259 242.887 169.132 246.102 169.447 246.544C169.778 247.008 170.862 247.56 171.163 246.505C171.464 245.45 171.766 243.098 171.369 242.436C170.972 241.773 170.259 242.887 170.259 242.887Z" fill="white" stroke="#1E212B" stroke-miterlimit="10"/>
<path d="M172.104 243.461C172.104 243.461 171.248 246.188 171.488 246.564C171.739 246.957 172.562 247.426 172.791 246.531C173.02 245.636 173.249 243.641 172.947 243.079C172.645 242.516 172.104 243.461 172.104 243.461Z" fill="white" stroke="#1E212B" stroke-miterlimit="10"/>
<path d="M57.0429 237.133C57.0429 237.133 53.6559 236.487 53.3509 237.003C53.0319 237.544 52.8889 239.073 53.9769 239.197C55.0649 239.321 57.3629 239.121 57.8449 238.445C58.3269 237.77 57.0429 237.133 57.0429 237.133Z" fill="white" stroke="#1E212B" stroke-miterlimit="10"/>
<path d="M56.7299 239.678C56.7299 239.678 53.3429 239.032 53.0379 239.549C52.7189 240.09 52.5749 241.619 53.6639 241.743C54.7519 241.867 57.0499 241.667 57.5319 240.991C58.0139 240.315 56.7299 239.678 56.7299 239.678Z" fill="white" stroke="#1E212B" stroke-miterlimit="10"/>
<path d="M57.6499 242.624C57.6499 242.624 54.2629 241.978 53.9579 242.495C53.6389 243.036 53.4959 244.565 54.5839 244.689C55.6719 244.813 57.9699 244.613 58.4519 243.937C58.9339 243.261 57.6499 242.624 57.6499 242.624Z" fill="white" stroke="#1E212B" stroke-miterlimit="10"/>
<path d="M57.7479 245.137C57.7479 245.137 54.9089 244.718 54.6409 245.12C54.3599 245.541 54.2049 246.715 55.1189 246.785C56.0329 246.855 57.9729 246.652 58.3939 246.124C58.8159 245.596 57.7479 245.137 57.7479 245.137Z" fill="white" stroke="#1E212B" stroke-miterlimit="10"/>
<path d="M224.922 242.025C224.922 242.025 226.05 245.24 225.734 245.682C225.403 246.146 224.319 246.698 224.018 245.643C223.716 244.588 223.415 242.237 223.813 241.574C224.209 240.912 224.922 242.025 224.922 242.025Z" fill="white" stroke="#1E212B" stroke-miterlimit="10"/>
<path d="M223.133 243.019C223.133 243.019 224.261 246.234 223.945 246.676C223.614 247.14 222.53 247.692 222.229 246.637C221.928 245.582 221.626 243.23 222.024 242.568C222.42 241.906 223.133 243.019 223.133 243.019Z" fill="white" stroke="#1E212B" stroke-miterlimit="10"/>
<path d="M220.814 242.887C220.814 242.887 221.941 246.102 221.626 246.544C221.295 247.008 220.211 247.56 219.91 246.505C219.609 245.45 219.307 243.098 219.704 242.436C220.101 241.773 220.814 242.887 220.814 242.887Z" fill="white" stroke="#1E212B" stroke-miterlimit="10"/>
<path d="M218.969 243.461C218.969 243.461 219.825 246.188 219.585 246.564C219.333 246.957 218.511 247.426 218.282 246.531C218.053 245.636 217.824 243.641 218.126 243.079C218.428 242.516 218.969 243.461 218.969 243.461Z" fill="white" stroke="#1E212B" stroke-miterlimit="10"/>
<path d="M139.626 249.388L138.492 244.224" stroke="#1E212B" stroke-miterlimit="10"/>
<path d="M147.609 247.413L154.049 246.493L157.06 243.901C157.06 243.901 158.147 240.472 158.314 240.054C158.481 239.636 158.147 238.8 157.31 239.05C156.474 239.301 156.223 240.555 156.223 240.555C156.223 240.555 155.554 238.213 154.885 238.715C154.216 239.217 154.132 239.886 154.132 239.886C154.132 239.886 153.045 238.548 152.543 238.966C152.041 239.384 151.874 240.639 151.874 240.639C151.874 240.639 150.619 239.635 150.201 240.221C149.783 240.806 150.201 241.81 150.201 241.81L150.703 243.817L149.867 243.984L146.355 244.151" fill="white"/>
<path d="M147.609 247.413L154.049 246.493L157.06 243.901C157.06 243.901 158.147 240.472 158.314 240.054C158.481 239.636 158.147 238.8 157.31 239.05C156.474 239.301 156.223 240.555 156.223 240.555C156.223 240.555 155.554 238.213 154.885 238.715C154.216 239.217 154.132 239.886 154.132 239.886C154.132 239.886 153.045 238.548 152.543 238.966C152.041 239.384 151.874 240.639 151.874 240.639C151.874 240.639 150.619 239.635 150.201 240.221C149.783 240.806 150.201 241.81 150.201 241.81L150.703 243.817L149.867 243.984L146.355 244.151" stroke="#1E212B" stroke-miterlimit="10"/>
<path d="M154.132 239.886C154.132 239.886 154.828 242.47 154.925 242.76C155.022 243.051 154.383 246.157 154.049 246.493" stroke="#1E212B" stroke-miterlimit="10"/>
<path d="M156.223 240.555C156.223 240.555 157.008 243.051 156.62 244.068" stroke="#1E212B" stroke-miterlimit="10"/>
<path d="M151.874 240.638L152.987 242.856C152.987 242.856 152.939 245.665 152.551 246.392" stroke="#1E212B" stroke-miterlimit="10"/>
<path d="M150.703 243.816L150.759 244.891" stroke="#1E212B" stroke-miterlimit="10"/>
<path d="M146.69 244.31C146.69 244.31 145.721 245.182 146.545 246.344" stroke="#1E212B" stroke-miterlimit="10"/>
<path d="M168.241 64.5656L164.406 59.1213C164.247 58.896 163.94 58.8332 163.721 58.9821C163.502 59.1304 163.453 59.4345 163.611 59.6591L166.899 64.3261C165.064 63.9908 163.28 63.6177 161.557 63.2141L157.644 57.2196C157.493 56.9885 157.189 56.9153 156.963 57.0554C156.739 57.1962 156.682 57.4977 156.828 57.7267L160.2 62.8913C158.03 62.3555 155.971 61.7785 154.029 61.1862C154.019 61.1692 154.012 61.1507 153.999 61.1351L150.169 56.3795C149.996 56.1642 149.687 56.1229 149.479 56.2854C149.271 56.448 149.244 56.7578 149.414 56.9696L152.399 60.6767C147.558 59.1249 143.581 57.5145 140.788 56.2779C144.075 55.5663 153.528 53.6963 159.429 54.3292C165.786 55.0111 172.208 63.3258 173.675 65.3352C171.823 65.1227 170.009 64.8651 168.241 64.5656Z" fill="#446622"/>
<path d="M149.603 60.7613L146.322 61.4928C146.06 61.5507 145.905 61.8116 145.975 62.0756C146.041 62.3397 146.314 62.5049 146.576 62.447L151.261 61.4029C151.3 61.3944 151.331 61.3737 151.365 61.3563C153.593 62.0871 156.014 62.8087 158.592 63.4789L153.931 66.1237C153.7 66.2536 153.627 66.552 153.77 66.788C153.912 67.0241 154.213 67.1091 154.444 66.9779L159.737 63.9754C159.808 63.9351 159.857 63.8765 159.897 63.8113C162.193 64.3808 164.609 64.9019 167.117 65.3517L162.068 68.2475C161.839 68.3801 161.768 68.675 161.91 68.9131C162.052 69.1485 162.354 69.2314 162.586 69.1002L168.44 65.741C168.499 65.7071 168.549 65.6603 168.587 65.6048C170.134 65.8603 171.716 66.0845 173.325 66.275C171.074 67.8826 163.368 72.6444 154.804 69.4991C145.793 66.1906 140.853 58.6198 139.823 56.8985C142.188 57.9637 145.522 59.3531 149.603 60.7613Z" fill="#446622"/>
<path d="M321.374 40.5073L325.996 38.291C326.187 38.1992 326.417 38.2798 326.508 38.4711C326.6 38.6622 326.519 38.8923 326.328 38.9839L322.365 40.8835C323.725 41.3927 325.063 41.8547 326.372 42.2713L331.254 39.7062C331.442 39.6072 331.674 39.6794 331.773 39.8674C331.871 40.0555 331.796 40.2867 331.612 40.3863L327.406 42.5963C329.065 43.1019 330.665 43.5342 332.193 43.9088C332.206 43.9011 332.218 43.8913 332.232 43.8857L336.592 42.1434C336.789 42.0644 337.012 42.1607 337.091 42.3571C337.17 42.5535 337.072 42.7787 336.878 42.8563L333.479 44.2147C337.315 45.0962 340.592 45.5884 342.934 45.8611C340.993 44.0419 335.343 38.9316 331.14 36.9864C326.613 34.8913 319.174 38.0479 317.434 38.8454C318.758 39.4461 320.073 40.0005 321.374 40.5073Z" fill="#446622"/>
<path d="M335.327 45.4024L337.256 47.2329C337.41 47.3785 337.417 47.6219 337.27 47.776C337.127 47.932 336.881 47.936 336.727 47.7903L333.971 45.1764C333.948 45.1548 333.935 45.1279 333.919 45.1023C332.147 44.7079 330.249 44.2292 328.265 43.6518L330.403 47.3627C330.51 47.5458 330.447 47.7819 330.262 47.8873C330.078 47.9932 329.844 47.9303 329.738 47.7462L327.31 43.5329C327.277 43.4764 327.266 43.4159 327.264 43.3549C325.507 42.8217 323.688 42.2064 321.834 41.5046L324.138 45.5458C324.243 45.7302 324.179 45.9625 323.995 46.0701C323.81 46.1753 323.576 46.1107 323.47 45.9266L320.799 41.2397C320.771 41.1923 320.756 41.1399 320.751 41.0859C319.615 40.6381 318.468 40.1544 317.316 39.6365C318.224 41.6571 321.613 48.0614 328.549 49.3448C335.847 50.6951 342.01 47.4544 343.349 46.6801C341.359 46.4615 338.598 46.0762 335.327 45.4024Z" fill="#446622"/>
<path d="M313.608 20.169L318.057 20.2847C318.242 20.2895 318.405 20.1694 318.422 20.0166C318.44 19.8637 318.304 19.7356 318.121 19.7306L314.306 19.6318C315.265 18.8997 316.221 18.2049 317.167 17.5485L321.934 17.8188C322.117 17.8293 322.285 17.714 322.31 17.5612C322.333 17.4084 322.202 17.2779 322.021 17.2657L317.915 17.0328C319.12 16.2157 320.299 15.4642 321.436 14.7719C321.449 14.7732 321.462 14.7761 321.476 14.7756L325.568 14.655C325.753 14.6497 325.906 14.5212 325.912 14.3686C325.917 14.216 325.769 14.096 325.586 14.1014L322.397 14.1951C325.27 12.4958 327.803 11.2161 329.637 10.3539C328.597 12.12 325.513 17.1384 322.659 19.6467C319.586 22.3485 312.548 22.433 310.884 22.4138C311.787 21.6316 312.697 20.8823 313.608 20.169Z" fill="#446622"/>
<path d="M323.551 12.8732L324.578 11.1031C324.661 10.9621 324.593 10.7995 324.427 10.7405C324.262 10.6794 324.06 10.7483 323.978 10.8893L322.51 13.4172C322.497 13.4382 322.495 13.4598 322.489 13.4813C321.158 14.2579 319.749 15.1268 318.3 16.086L318.932 13.0141C318.964 12.8623 318.842 12.7247 318.659 12.7091C318.476 12.6928 318.303 12.8027 318.272 12.955L317.554 16.443C317.544 16.4897 317.553 16.5328 317.57 16.5736C316.293 17.4374 314.99 18.3735 313.684 19.377L314.353 16.0387C314.383 15.8866 314.261 15.7518 314.077 15.7345C313.895 15.7188 313.723 15.8297 313.692 15.982L312.917 19.8534C312.909 19.8926 312.911 19.9318 312.924 19.9688C312.13 20.5952 311.336 21.2486 310.549 21.9263C310.684 20.3281 311.529 15.1146 316.818 12.2464C322.383 9.22906 328.402 9.57164 329.731 9.69237C328.168 10.4165 326.024 11.4755 323.551 12.8732Z" fill="#446622"/>
<path d="M285.533 214.243L282.976 208.512C282.976 208.512 285.308 199.168 282.846 194.857C280.385 190.546 272.981 182.349 269.329 180.657C265.677 178.966 261.747 180.317 260.866 182.46C259.984 184.602 261.551 190.03 263.106 194.431C264.66 198.832 268.895 206.161 272.506 207.655C276.117 209.15 277.839 208.063 279.989 209.458C282.135 210.851 286.687 218.216 285.533 214.243Z" fill="#99BB44" stroke="#1E212B" stroke-miterlimit="10" stroke-linecap="round" stroke-linejoin="round"/>
<path d="M266.277 187.711C264.301 183.852 263.562 183.531 263.562 183.531L266.277 187.711Z" fill="#99BB44"/>
<path d="M266.277 187.711C264.301 183.852 263.562 183.531 263.562 183.531" stroke="#1E212B" stroke-width="0.5" stroke-miterlimit="10" stroke-linecap="round" stroke-linejoin="round"/>
<path d="M283.138 212.129C283.138 212.129 269.622 193.76 266.841 188.79L283.138 212.129Z" fill="#99BB44"/>
<path d="M283.138 212.129C283.138 212.129 269.622 193.76 266.841 188.79" stroke="#1E212B" stroke-width="0.5" stroke-miterlimit="10" stroke-linecap="round" stroke-linejoin="round"/>
<path d="M279.269 194.372C278.793 192.26 278.447 191.192 278.447 191.192L279.269 194.372Z" fill="#99BB44"/>
<path d="M279.269 194.372C278.793 192.26 278.447 191.192 278.447 191.192" stroke="#1E212B" stroke-width="0.5" stroke-miterlimit="10" stroke-linecap="round" stroke-linejoin="round"/>
<path d="M281.059 206.746C281.059 206.746 279.56 205.114 279.182 204.043C278.819 203.016 279.934 198.303 279.517 195.557" fill="#99BB44"/>
<path d="M281.059 206.746C281.059 206.746 279.56 205.114 279.182 204.043C278.819 203.016 279.934 198.303 279.517 195.557" stroke="#1E212B" stroke-width="0.5" stroke-miterlimit="10" stroke-linecap="round" stroke-linejoin="round"/>
<path d="M275.943 190.474C275.943 190.474 275.199 195.436 275.101 196.858C275.003 198.28 274.92 199.298 275.155 199.699C275.391 200.098 277.029 202.151 277.029 202.151" fill="#99BB44"/>
<path d="M275.943 190.474C275.943 190.474 275.199 195.436 275.101 196.858C275.003 198.28 274.92 199.298 275.155 199.699C275.391 200.098 277.029 202.151 277.029 202.151" stroke="#1E212B" stroke-width="0.5" stroke-miterlimit="10" stroke-linecap="round" stroke-linejoin="round"/>
<path d="M271.225 193.93C271.225 193.93 272.362 189.635 272.891 187.421C273.42 185.207 272.02 183.804 272.02 183.804" fill="#99BB44"/>
<path d="M271.225 193.93C271.225 193.93 272.362 189.635 272.891 187.421C273.42 185.207 272.02 183.804 272.02 183.804" stroke="#1E212B" stroke-width="0.5" stroke-miterlimit="10" stroke-linecap="round" stroke-linejoin="round"/>
<path d="M268.178 183.573C268.271 183.967 268.338 184.408 268.349 184.886C268.391 186.728 268.155 189.381 268.155 189.381" fill="#99BB44"/>
<path d="M268.178 183.573C268.271 183.967 268.338 184.408 268.349 184.886C268.391 186.728 268.155 189.381 268.155 189.381" stroke="#1E212B" stroke-width="0.5" stroke-miterlimit="10" stroke-linecap="round" stroke-linejoin="round"/>
<path d="M267.428 181.73C267.428 181.73 267.548 181.91 267.703 182.231L267.428 181.73Z" fill="#99BB44"/>
<path d="M267.428 181.73C267.428 181.73 267.548 181.91 267.703 182.231" stroke="#1E212B" stroke-width="0.5" stroke-miterlimit="10" stroke-linecap="round" stroke-linejoin="round"/>
<path d="M271.03 200.825C270.258 200.683 269.506 200.462 268.941 200.12C267.103 199.01 265.506 197.149 265.506 197.149" fill="#99BB44"/>
<path d="M271.03 200.825C270.258 200.683 269.506 200.462 268.941 200.12C267.103 199.01 265.506 197.149 265.506 197.149" stroke="#1E212B" stroke-width="0.5" stroke-miterlimit="10" stroke-linecap="round" stroke-linejoin="round"/>
<path d="M274.596 201.068C274.596 201.068 273.523 201.113 272.24 200.99L274.596 201.068Z" fill="#99BB44"/>
<path d="M274.596 201.068C274.596 201.068 273.523 201.113 272.24 200.99" stroke="#1E212B" stroke-width="0.5" stroke-miterlimit="10" stroke-linecap="round" stroke-linejoin="round"/>
<path d="M266.418 194.26C265.981 194.078 265.562 193.849 265.193 193.563C263.217 192.033 262.357 190.815 262.357 190.815" fill="#99BB44"/>
<path d="M266.418 194.26C265.981 194.078 265.562 193.849 265.193 193.563C263.217 192.033 262.357 190.815 262.357 190.815" stroke="#1E212B" stroke-width="0.5" stroke-miterlimit="10" stroke-linecap="round" stroke-linejoin="round"/>
<path d="M270.547 194.975C270.547 194.975 269.083 195.026 267.519 194.625L270.547 194.975Z" fill="#99BB44"/>
<path d="M270.547 194.975C270.547 194.975 269.083 195.026 267.519 194.625" stroke="#1E212B" stroke-width="0.5" stroke-miterlimit="10" stroke-linecap="round" stroke-linejoin="round"/>
<path d="M272.454 205.394C271.883 205.188 271.332 204.919 270.839 204.569L272.454 205.394Z" fill="#99BB44"/>
<path d="M272.454 205.394C271.883 205.188 271.332 204.919 270.839 204.569" stroke="#1E212B" stroke-width="0.5" stroke-miterlimit="10" stroke-linecap="round" stroke-linejoin="round"/>
<path d="M277.843 205.98C277.843 205.98 275.784 206.206 273.634 205.732L277.843 205.98Z" fill="#99BB44"/>
<path d="M277.843 205.98C277.843 205.98 275.784 206.206 273.634 205.732" stroke="#1E212B" stroke-width="0.5" stroke-miterlimit="10" stroke-linecap="round" stroke-linejoin="round"/>
<path d="M463.143 199.392L467.661 195.036C467.661 195.036 477.24 194.047 480.456 190.264C483.671 186.482 488.857 176.729 489.204 172.719C489.551 168.71 486.941 165.474 484.627 165.375C482.312 165.276 477.743 168.598 474.134 171.558C470.525 174.519 465.077 180.997 464.901 184.9C464.726 188.804 466.335 190.054 465.755 192.55C465.175 195.042 459.801 201.83 463.143 199.392Z" fill="#446622" stroke="#1E212B" stroke-miterlimit="10" stroke-linecap="round" stroke-linejoin="round"/>
<path d="M481.532 172.252C484.488 169.079 484.538 168.275 484.538 168.275" stroke="#1E212B" stroke-width="0.5" stroke-miterlimit="10" stroke-linecap="round" stroke-linejoin="round"/>
<path d="M464.315 196.42C464.315 196.42 476.984 177.457 480.71 173.149" stroke="#1E212B" stroke-width="0.5" stroke-miterlimit="10" stroke-linecap="round" stroke-linejoin="round"/>
<path d="M479.694 186.736C481.517 185.569 482.404 184.88 482.404 184.88" stroke="#1E212B" stroke-width="0.5" stroke-miterlimit="10" stroke-linecap="round" stroke-linejoin="round"/>
<path d="M468.669 192.632C468.669 192.632 469.693 190.667 470.571 189.947C471.413 189.256 476.224 188.699 478.664 187.372" stroke="#1E212B" stroke-width="0.5" stroke-miterlimit="10" stroke-linecap="round" stroke-linejoin="round"/>
<path d="M482.226 182.281C482.226 182.281 477.307 183.271 475.937 183.663C474.566 184.055 473.581 184.324 473.285 184.682C472.989 185.039 471.617 187.279 471.617 187.279" stroke="#1E212B" stroke-width="0.5" stroke-miterlimit="10" stroke-linecap="round" stroke-linejoin="round"/>
<path d="M477.37 179.021C477.37 179.021 481.795 178.628 484.057 178.371C486.319 178.115 487.162 176.321 487.162 176.321" stroke="#1E212B" stroke-width="0.5" stroke-miterlimit="10" stroke-linecap="round" stroke-linejoin="round"/>
<path d="M486.07 172.629C485.732 172.851 485.339 173.065 484.894 173.238C483.176 173.905 480.602 174.586 480.602 174.586" stroke="#1E212B" stroke-width="0.5" stroke-miterlimit="10" stroke-linecap="round" stroke-linejoin="round"/>
<path d="M487.548 171.297C487.548 171.297 487.419 171.471 487.17 171.726" stroke="#1E212B" stroke-width="0.5" stroke-miterlimit="10" stroke-linecap="round" stroke-linejoin="round"/>
<path d="M470.821 181.187C470.692 180.412 470.643 179.63 470.772 178.982C471.19 176.876 472.396 174.741 472.396 174.741" stroke="#1E212B" stroke-width="0.5" stroke-miterlimit="10" stroke-linecap="round" stroke-linejoin="round"/>
<path d="M471.807 184.622C471.807 184.622 471.399 183.628 471.077 182.38" stroke="#1E212B" stroke-width="0.5" stroke-miterlimit="10" stroke-linecap="round" stroke-linejoin="round"/>
<path d="M475.422 174.614C475.445 174.142 475.517 173.67 475.661 173.226C476.427 170.846 477.279 169.623 477.279 169.623" stroke="#1E212B" stroke-width="0.5" stroke-miterlimit="10" stroke-linecap="round" stroke-linejoin="round"/>
<path d="M476.157 178.74C476.157 178.74 475.61 177.381 475.455 175.774" stroke="#1E212B" stroke-width="0.5" stroke-miterlimit="10" stroke-linecap="round" stroke-linejoin="round"/>
<path d="M467.01 184.081C467.009 183.474 467.074 182.864 467.236 182.282" stroke="#1E212B" stroke-width="0.5" stroke-miterlimit="10" stroke-linecap="round" stroke-linejoin="round"/>
<path d="M468.294 189.348C468.294 189.348 467.38 187.488 467.094 185.306" stroke="#1E212B" stroke-width="0.5" stroke-miterlimit="10" stroke-linecap="round" stroke-linejoin="round"/>
<path d="M19 123.92H129.27C129.27 116.23 123.03 110 115.34 110C111.89 110 108.73 111.26 106.3 113.35C103.61 105.59 96.26 100 87.58 100C76.64 100 67.77 108.88 67.77 119.82V119.94C66.5 118.31 64.52 117.27 62.3 117.27C60.4 117.27 58.68 118.04 57.42 119.27C56.56 111.47 49.96 105.4 41.93 105.4C33.37 105.4 26.42 112.3 26.34 120.85C25.58 120.3 24.65 119.99 23.64 119.99C21.3 119.99 19.36 121.69 19 123.92Z" fill="white" stroke="#1E212B" stroke-miterlimit="10"/>
</svg>
