<svg width="102" height="97" viewBox="0 0 102 97" fill="none" xmlns="http://www.w3.org/2000/svg">
<path d="M30.5352 18.2001C30.5352 18.2001 30.5333 14.8941 25.9925 14.7301C21.4517 14.5661 19.431 15.9391 19.042 17.9751C18.653 20.0111 20.6846 24.4781 20.6846 24.4781C20.6846 24.4781 19.95 27.2221 19.7555 28.2401C19.5611 29.2581 20.4002 32.2321 20.4002 32.2321L23.6727 36.0921C23.6727 36.0921 26.5906 38.1261 26.7711 38.6531C26.9522 39.1801 27.2194 40.3561 27.2194 40.3561L28.3174 41.9731L29.5449 42.9111L32.2103 45.5291C32.2103 45.5291 22.6818 46.8051 18.6097 46.0271C14.5376 45.2501 12.9058 44.5871 9.93174 45.4251C6.95774 46.2651 3.84784 48.5541 3.84784 48.5541C3.84784 48.5541 -0.418761 48.7951 0.681239 53.7181C1.78114 58.6401 2.63374 60.0691 3.12474 60.4441C3.61574 60.8191 6.83024 64.2471 6.83024 64.2471C6.83024 64.2471 10.8015 65.9191 12.0653 66.3011C13.3292 66.6831 14.8672 67.4691 14.8672 67.4691C14.8672 67.4691 16.3472 67.8221 18.4279 70.1891C20.5086 72.5561 22.1627 74.2081 24.4659 75.7741C26.7698 77.3391 30.4306 79.1631 32.4023 79.8921C34.3733 80.6201 35.6371 81.0021 36.2576 80.6981C36.878 80.3951 39.3113 81.2811 39.3113 81.2811C39.3113 81.2811 48.7857 86.1851 51.3128 86.9491C53.8398 87.7131 57.6734 87.5301 57.6734 87.5301C57.6734 87.5301 58.5107 87.1981 59.7025 88.6911C60.8943 90.1851 61.6531 91.7371 63.7542 91.7861C65.8546 91.8351 68.295 91.9501 69.1258 92.3891C69.9561 92.8291 71.1262 93.3341 71.1262 93.3341L73.7763 94.1911L77.7253 94.8751C77.7253 94.8751 80.8371 95.8911 81.7037 95.7751C82.5697 95.6591 85.4077 96.2711 85.4077 96.2711L87.8477 96.3851C87.8477 96.3851 90.5037 96.4711 91.2187 96.0441C91.9327 95.6181 91.9327 95.6181 91.9327 95.6181C91.9327 95.6181 91.8017 92.9901 91.5407 91.0411C91.2797 89.0921 92.7877 86.3551 93.2557 85.7421C93.7247 85.1281 94.3137 84.7481 94.3137 84.7481C94.3137 84.7481 96.2797 82.8021 95.9117 82.5211C95.5427 82.2401 87.4377 72.7431 81.161 66.1991C74.8839 59.6551 54.3206 40.2541 48.6728 35.9401C43.0244 31.6281 30.5352 18.2001 30.5352 18.2001Z" fill="#446622" stroke="#1E212B" stroke-miterlimit="10"/>
<path opacity="0.31" d="M19.0427 17.9753C18.6537 20.0113 20.6853 24.4783 20.6853 24.4783C20.6853 24.4783 19.9501 27.2223 19.7563 28.2403C19.5618 29.2583 20.4009 32.2323 20.4009 32.2323L23.6734 36.0923C23.6734 36.0923 26.5913 38.1263 26.7718 38.6533C26.9529 39.1803 27.2201 40.3563 27.2201 40.3563L28.3181 41.9733L29.5456 42.9113L32.2111 45.5293C32.2111 45.5293 37.8569 46.5373 39.8279 47.2653C41.7989 47.9933 44.6588 49.5943 46.5004 51.0013C48.342 52.4083 53.7149 56.3183 53.7149 56.3183L56.6328 58.3523L62.8947 63.1353C62.8947 63.1353 68.3684 64.1503 71.5981 66.6173C74.8279 69.0853 71.7212 66.4563 70.039 63.6373C68.3569 60.8183 66.2194 58.9293 67.6344 59.7553C69.0494 60.5803 73.7508 62.1253 73.7508 62.1253C73.7508 62.1253 64.7075 55.2173 63.7766 54.7623C62.8456 54.3073 35.5071 34.1923 34.1916 33.5163C32.8761 32.8413 28.6841 24.3773 28.3768 22.9483C28.1026 21.6733 29.3971 17.1233 29.6795 16.1573C29.0425 15.4433 27.933 14.7993 25.9926 14.7283C21.4518 14.5663 19.431 15.9393 19.0427 17.9753Z" fill="black" stroke="#1E212B" stroke-miterlimit="10"/>
<path d="M30.5352 18.2001C30.5352 18.2001 30.5333 14.8941 25.9925 14.7301C21.4517 14.5661 19.431 15.9391 19.042 17.9751C18.653 20.0111 20.6846 24.4781 20.6846 24.4781C20.6846 24.4781 19.95 27.2221 19.7555 28.2401C19.5611 29.2581 20.4002 32.2321 20.4002 32.2321L23.6727 36.0921C23.6727 36.0921 26.5906 38.1261 26.7711 38.6531C26.9522 39.1801 27.2194 40.3561 27.2194 40.3561L28.3174 41.9731L29.5449 42.9111L32.2103 45.5291C32.2103 45.5291 22.6818 46.8051 18.6097 46.0271C14.5376 45.2501 12.9058 44.5871 9.93174 45.4251C6.95774 46.2651 3.84784 48.5541 3.84784 48.5541C3.84784 48.5541 -0.418761 48.7951 0.681239 53.7181C1.78114 58.6401 2.63374 60.0691 3.12474 60.4441C3.61574 60.8191 6.83024 64.2471 6.83024 64.2471C6.83024 64.2471 10.8015 65.9191 12.0653 66.3011C13.3292 66.6831 14.8672 67.4691 14.8672 67.4691C14.8672 67.4691 16.3472 67.8221 18.4279 70.1891C20.5086 72.5561 22.1627 74.2081 24.4659 75.7741C26.7698 77.3391 30.4306 79.1631 32.4023 79.8921C34.3733 80.6201 35.6371 81.0021 36.2576 80.6981C36.878 80.3951 39.3113 81.2811 39.3113 81.2811C39.3113 81.2811 48.7857 86.1851 51.3128 86.9491C53.8398 87.7131 57.6734 87.5301 57.6734 87.5301C57.6734 87.5301 58.5107 87.1981 59.7025 88.6911C60.8943 90.1851 61.6531 91.7371 63.7542 91.7861C65.8546 91.8351 68.295 91.9501 69.1258 92.3891C69.9561 92.8291 71.1262 93.3341 71.1262 93.3341L73.7763 94.1911L77.7253 94.8751C77.7253 94.8751 80.8371 95.8911 81.7037 95.7751C82.5697 95.6591 85.4077 96.2711 85.4077 96.2711L87.8477 96.3851C87.8477 96.3851 90.5037 96.4711 91.2187 96.0441C91.9327 95.6181 91.9327 95.6181 91.9327 95.6181C91.9327 95.6181 91.8017 92.9901 91.5407 91.0411C91.2797 89.0921 92.7877 86.3551 93.2557 85.7421C93.7247 85.1271 94.3137 84.7481 94.3137 84.7481C94.3137 84.7481 96.2797 82.8021 95.9117 82.5211C95.5427 82.2401 87.4377 72.7431 81.161 66.1991C74.8839 59.6551 54.3206 40.2541 48.6728 35.9401C43.0244 31.6281 30.5352 18.2001 30.5352 18.2001Z" stroke="#1E212B" stroke-miterlimit="10"/>
<path opacity="0.59" d="M91.4708 78.1621C91.4708 78.1621 79.1639 68.5671 72.2594 63.0991C65.3548 57.6311 48.2399 46.6961 42.7146 42.4761C37.1899 38.2561 22.502 18.2881 22.502 18.2881C22.502 18.2881 27.185 26.9201 28.9838 29.6551C30.7827 32.3901 34.6622 37.4921 34.6622 37.4921L39.8273 43.9651C39.8273 43.9651 41.3583 45.5241 42.1241 46.3031C42.8899 47.0821 53.7366 54.0061 55.7949 55.3841C57.8533 56.7621 70.1015 65.9241 74.5441 70.2891C78.986 74.6551 84.6278 79.7411 84.6278 79.7411L86.8598 82.4171C86.8598 82.4171 79.3572 78.2411 80.7587 80.4791C82.1608 82.7161 83.2948 83.7771 83.6628 84.0581C84.0308 84.3391 80.5304 85.3591 81.1732 86.0451C81.8158 86.7311 82.5238 87.0771 82.9788 88.0081C83.4348 88.9391 82.1868 90.3191 82.1868 90.3191C82.1868 90.3191 80.3889 90.8901 79.8915 91.2871C79.3935 91.6851 79.4649 90.5731 79.3935 91.6851C79.3221 92.7971 79.3221 92.7971 79.3221 92.7971C79.3221 92.7971 81.6618 93.8061 82.3698 94.1521C83.0768 94.4991 88.2178 96.6761 91.1768 94.0751C91.1768 94.0751 90.4918 87.9651 92.0238 85.5851C93.5568 83.2051 93.5568 83.2051 93.5568 83.2051" fill="white"/>
<path d="M94.3127 84.7512C94.3127 84.7512 93.1817 84.0911 90.4197 80.7561C87.6577 77.4211 81.1533 67.7552 75.7363 63.6172C70.3194 59.4802 57.035 49.3332 55.2291 47.9532C53.4233 46.5742 52.2557 46.4992 49.1905 44.3622C46.1253 42.2252 37.5379 36.8902 34.1914 33.5182C30.845 30.1452 29.2043 24.8072 28.3766 22.9492C27.5489 21.0922 29.738 15.8201 30.2985 14.8181C30.859 13.8171 33.8076 10.7592 34.4127 8.36315C35.0178 5.96615 37.3376 4.26615 39.1346 2.98315C40.9315 1.70115 43.7436 -0.643848 45.0259 1.15315C46.3083 2.95015 46.3319 3.98815 47.4624 4.64815C48.593 5.30715 53.4239 5.93415 53.4239 5.93415C53.4239 5.93415 55.2814 5.10615 56.7991 6.06115C58.3161 7.01515 61.7378 9.22015 61.7378 9.22015L65.9189 13.6392L68.1813 18.4312L70.723 20.9852C70.723 20.9852 71.2695 21.6071 72.7489 23.1461C74.2283 24.6841 74.5171 25.1092 75.1618 25.6012C75.8065 26.0942 77.15 28.3452 77.15 28.3452C77.15 28.3452 78.0759 30.0742 78.3271 31.0822C78.5784 32.0902 77.8183 29.8762 78.5777 32.0912C79.3372 34.3052 81.2577 37.4062 81.2577 37.4062L83.3757 40.2482L84.7657 44.5782L85.6847 47.1181L88.6367 51.0072L90.8457 54.5322L91.9997 56.2301C91.9997 56.2301 95.5607 64.6692 95.9407 65.7762C96.3207 66.8832 97.0117 69.4532 97.0117 69.4532L97.7407 71.4402L97.7877 73.5182C97.7877 73.5182 98.2137 76.7032 98.4267 78.2952C98.6397 79.8872 100.014 82.3672 100.014 82.3672C100.014 82.3672 96.7687 82.3382 94.3127 84.7512Z" fill="#446622" stroke="#1E212B" stroke-miterlimit="10"/>
<path d="M67.8447 51.333C68.3012 51.74 68.761 52.163 68.761 52.163L71.0521 53.708" stroke="#1E212B" stroke-miterlimit="10"/>
<path d="M51.4512 45.6802C51.4512 45.6802 53.9324 47.7792 55.2294 47.9532C56.5264 48.1272 59.3174 48.2162 59.3174 48.2162C59.3174 48.2162 60.7808 47.9052 61.979 48.2082C63.1772 48.5102 65.0207 49.3062 65.0207 49.3062C65.0207 49.3062 65.6641 49.7182 66.2405 50.0982" stroke="#1E212B" stroke-miterlimit="10"/>
<path d="M33.1577 14.5513C33.1577 14.5513 38.6339 15.6713 39.4074 16.2623C40.1815 16.8533 46.8342 20.7103 46.8342 20.7103L49.3084 23.6213L50.7578 24.9323L52.0777 26.1453L55.0511 27.5993L56.7275 28.8793L57.8581 29.5393" stroke="#1E212B" stroke-miterlimit="10"/>
<path opacity="0.59" d="M86.3918 61.4686C84.2738 58.6266 70.4701 41.1386 67.2831 38.0906C67.2831 38.0906 58.6166 26.9776 58.1008 26.5836C57.5849 26.1896 44.1602 9.80859 44.1602 9.80859C44.1602 9.80859 47.6444 15.9416 50.3691 19.8616C50.7957 20.4746 51.3651 21.2226 52.0309 22.0586C55.6171 26.5636 61.9975 33.6326 63.892 36.1136C66.1385 39.0556 75.8513 49.3326 77.4525 51.7816C79.0543 54.2306 82.8408 59.1656 82.8408 59.1656L85.1478 62.5616C85.1478 62.5616 88.3958 66.0636 88.4728 68.3686C88.5498 70.6736 88.6788 70.7726 89.0588 71.8796C89.4388 72.9866 89.2108 73.0166 89.4618 74.0256C89.7118 75.0336 89.9328 75.8146 90.1528 76.5956C90.3738 77.3766 90.5178 79.3256 91.2238 80.2726C91.9298 81.2206 91.9528 82.2596 93.0148 83.2746C95.4708 80.8626 98.7168 80.8906 98.7168 80.8906C98.7168 80.8906 98.2418 80.0316 97.8068 79.0016C96.6998 76.7926 94.7308 73.1416 92.7358 70.8086C89.7168 67.2766 88.5088 64.3116 86.3918 61.4686Z" fill="white"/>
<path d="M59.4072 13.8242C59.6954 15.0362 60.0391 16.3382 60.3994 17.3882C61.3489 20.1552 61.2507 20.2842 60.9707 22.5212C60.6914 24.7592 60.9886 27.8452 60.9886 27.8452L61.4534 30.1522" stroke="#1E212B" stroke-miterlimit="10"/>
<path d="M58.6138 10.1016C58.6138 10.1016 58.7853 11.0266 59.0608 12.2966" stroke="#1E212B" stroke-miterlimit="10"/>
<path d="M75.425 47.2404C75.425 47.2404 75.1999 44.7354 75.4007 42.9444C75.6016 41.1544 76.0843 38.9953 76.0843 38.9953L76.5154 35.6313L76.1742 32.2603L75.9421 30.5273" stroke="#1E212B" stroke-miterlimit="10"/>
<path d="M69.3759 26.6475C69.3887 26.9805 69.3931 27.3175 69.3874 27.6575C69.3243 31.3035 69.1878 32.7545 69.1878 32.7545L69.4129 35.2595L68.5801 39.5665" stroke="#1E212B" stroke-miterlimit="10"/>
<path d="M68.3354 20.6343C68.3354 20.6343 68.945 22.4843 69.237 24.9243" stroke="#1E212B" stroke-miterlimit="10"/>
<path d="M61.2794 41.7451C62.7683 42.0321 64.6226 42.2931 64.6226 42.2931C64.6226 42.2931 67.4889 43.1221 67.9805 43.4971C68.4715 43.8721 69.7354 44.2541 69.7354 44.2541" stroke="#1E212B" stroke-miterlimit="10"/>
<path d="M46.1777 42.0076C46.1777 42.0076 50.1847 43.1246 51.5066 43.9396C52.8285 44.7546 53.9329 45.5986 55.925 44.0096C57.4184 42.8176 58.3194 41.8286 59.3014 41.5576" stroke="#1E212B" stroke-miterlimit="10"/>
<path d="M46.2548 29.6064C47.8095 30.3744 49.1619 31.1644 50.0056 31.9064C53.3788 34.8714 55.0903 36.9574 56.2024 37.0284C57.3144 37.1004 59.1407 36.7454 59.1407 36.7454L61.0473 37.8134L63.1771 38.0784" stroke="#1E212B" stroke-miterlimit="10"/>
<path d="M35.1088 25.1934C35.1088 25.1934 39.9921 26.7814 44.3313 28.7074" stroke="#1E212B" stroke-miterlimit="10"/>
<path d="M83.1517 50.6143C83.2387 51.2643 83.3977 50.8023 83.3837 52.3473C83.3707 53.8923 83.7317 54.9453 83.7317 54.9453L84.1227 56.2153" stroke="#1E212B" stroke-miterlimit="10"/>
<path d="M81.6658 40.3423C81.6658 40.3423 82.6348 42.6373 82.5278 44.3053C82.4208 45.9733 82.5578 47.8283 82.5578 47.8283C82.5578 47.8283 82.7318 48.5603 82.8928 49.2973" stroke="#1E212B" stroke-miterlimit="10"/>
<path d="M39.2501 7.5542C39.2501 7.5542 43.4688 12.7202 44.0759 13.9622C44.6829 15.2042 46.1202 16.8842 46.7636 17.5702C47.4064 18.2552 48.6632 19.4102 48.6632 19.4102C48.6632 19.4102 51.8796 20.5482 51.6653 21.3352" stroke="#1E212B" stroke-miterlimit="10"/>
<path d="M47.7125 73.0225C49.0681 73.4745 50.2995 74.0255 50.4621 74.8315C50.7879 76.4405 50.4927 78.3545 52.2832 78.5555C54.0738 78.7565 56.4918 77.8815 56.8961 77.6065C57.3003 77.3325 61.0753 76.7165 61.5663 77.0915C62.0573 77.4665 60.6576 78.5365 62.7804 79.5745C64.9032 80.6125 68.4039 79.5935 68.4039 79.5935C68.4039 79.5935 71.6968 81.1365 72.0584 82.1905C72.4199 83.2445 75.005 84.4415 75.005 84.4415L78.7226 83.3925" stroke="#1E212B" stroke-miterlimit="10"/>
<path d="M16.2382 53.5576C16.7018 54.0396 17.0347 54.5376 17.1711 55.0406C18.039 58.2306 15.8977 62.8156 21.5876 65.8016C27.2781 68.7866 33.6859 63.9606 35.289 64.4076C36.8921 64.8546 32.0427 68.1496 36.1007 70.4716C40.1588 72.7936 42.8944 70.9956 44.2156 71.8096C44.4445 71.9506 44.7717 72.0866 45.1587 72.2206" stroke="#1E212B" stroke-miterlimit="10"/>
<path d="M7.52246 48.8364C7.52246 48.8364 11.8835 50.3324 14.7625 52.3334" stroke="#1E212B" stroke-miterlimit="10"/>
<path d="M57.8837 83.8535C58.6859 83.9805 59.6819 84.0125 60.458 83.6325C62.0094 82.8735 63.4901 83.2265 63.4901 83.2265C63.4901 83.2265 65.5191 84.3875 65.8226 85.0085C66.1261 85.6285 65.9674 86.0905 67.39 86.0105C68.812 85.9305 66.7829 84.7695 68.812 85.9305C70.841 87.0915 71.7006 87.7475 71.7006 87.7475C71.7006 87.7475 73.6582 90.0205 74.2723 90.4895C74.8863 90.9585 76.2369 91.9895 76.2369 91.9895" stroke="#1E212B" stroke-miterlimit="10"/>
<path d="M6.04346 62.4814C6.04346 62.4814 10.4906 62.7674 12.6497 63.2504C14.8082 63.7334 17.7688 64.4394 20.1817 67.6424C22.5946 70.8464 29.0369 76.1564 30.2714 76.3224C31.506 76.4874 32.0021 72.7834 33.9444 73.2954C35.8867 73.8064 38.6745 76.5194 39.3466 77.4214C40.0187 78.3234 43.9302 76.2564 43.9302 76.2564C43.9302 76.2564 45.4969 77.2584 46.3207 78.4714C47.1446 79.6834 48.0973 80.2174 48.0973 80.2174C48.0973 80.2174 50.609 79.2194 52.7898 80.6914C53.5537 81.2064 54.2341 81.7054 54.7959 82.1374" stroke="#1E212B" stroke-miterlimit="10"/>
<path d="M37.7974 56.2896C38.4612 56.0356 39.1748 55.7776 39.9406 55.5186" stroke="#1E212B" stroke-miterlimit="10"/>
<path d="M28.913 62.0646C28.913 62.0646 29.4429 60.0206 35.1615 57.3916" stroke="#1E212B" stroke-miterlimit="10"/>
<path d="M52.0801 61.6803C57.8121 60.5893 59.4789 61.4993 59.4789 61.4993" stroke="#1E212B" stroke-miterlimit="10"/>
<path d="M40.8989 65.9701C40.8989 65.9701 44.318 63.6941 49.4289 62.2891" stroke="#1E212B" stroke-miterlimit="10"/>
<path d="M62.9 69.7464C64.908 69.0684 66.7769 68.6524 67.7564 68.9884C70.5289 69.9394 71.2654 70.5024 71.2654 70.5024" stroke="#1E212B" stroke-miterlimit="10"/>
<path d="M55.0815 73.1102C55.0815 73.1102 57.9204 71.6552 60.9831 70.4502" stroke="#1E212B" stroke-miterlimit="10"/>
<path d="M91.9327 95.6202C92.2247 94.9672 92.0477 97.4342 96.6297 92.3152C100.561 87.9222 102.195 84.3242 100.014 82.3662C97.6977 80.2862 97.2807 81.3392 93.2557 85.7442C89.2307 90.1482 90.3657 94.9022 91.9327 95.6202Z" fill="white" stroke="#1E212B" stroke-miterlimit="10"/>
</svg>
