<svg width="382" height="390" viewBox="0 0 382 390" fill="none" xmlns="http://www.w3.org/2000/svg">
<path d="M315.765 64.5071C298.395 30.0331 265.382 9.56111 233.471 13.4771C201.56 17.3921 172.189 45.5181 160.255 83.5871C154.16 103.032 152.223 124.851 143.103 142.252C133.753 160.093 118.179 170.735 102.895 179.622C87.6114 188.51 71.5634 196.7 59.5079 211.649C47.4524 226.598 40.3454 250.568 47.4776 270.014C54.7261 289.777 73.0365 297.671 86.2553 311.474C99.4734 325.275 107.886 345.571 121.391 358.91C133.867 371.233 149.946 376.662 165.707 376.621C181.467 376.58 196.988 371.383 211.715 364.198C257.401 341.907 300.441 300.422 318.665 242.367C352.419 134.847 315.765 64.5071 315.765 64.5071Z" fill="#446622"/>
<g opacity="0.7">
<path d="M315.765 64.5071C298.395 30.0331 265.382 9.56111 233.471 13.4771C201.56 17.3921 172.189 45.5181 160.255 83.5871C154.16 103.032 152.223 124.851 143.103 142.252C133.753 160.093 118.179 170.735 102.895 179.622C87.6114 188.51 71.5634 196.7 59.5079 211.649C47.4524 226.598 40.3454 250.568 47.4776 270.014C54.7261 289.777 73.0365 297.671 86.2553 311.474C99.4734 325.275 107.886 345.571 121.391 358.91C133.867 371.233 149.946 376.662 165.707 376.621C181.467 376.58 196.988 371.383 211.715 364.198C257.401 341.907 300.441 300.422 318.665 242.367C352.419 134.847 315.765 64.5071 315.765 64.5071Z" fill="white"/>
</g>
<path d="M260.358 335.609C260.358 335.609 274.857 335.531 290.934 313.123C304.987 293.536 278.319 232.887 263.367 218.938C248.415 204.989 219.312 281.176 222.692 300.48C227.506 327.978 248.231 334.906 260.358 335.609Z" fill="#446622"/>
<path d="M283.884 297.927L261.564 320.117L263.814 376.657H256.464C256.374 376.267 256.654 337.317 256.894 291.887L239.784 275.477C241.084 275.477 238.754 273.257 238.524 273.037L256.934 285.847C257.084 257.457 257.224 234.597 257.224 234.597L258.894 232.507L259.824 262.867L275.604 251.507C275.374 251.727 273.044 253.947 274.344 253.947L259.984 268.227L261.324 311.967L285.684 294.437C285.354 294.747 282.014 297.927 283.884 297.927Z" stroke="#1E212B" stroke-miterlimit="10"/>
<path d="M326.698 354.02C326.698 354.02 344.332 352.749 353.133 335.998C362.637 317.908 339.465 275.019 327.627 271.817C314.663 268.31 294.101 302.596 298.307 329.242C301.18 347.437 318.545 353.556 326.698 354.02Z" fill="#446622"/>
<path d="M339.935 321.216L327.636 330.991C327.25 308.045 326.938 289.722 326.938 289.722L325.377 288.01L324.815 311.437L324.804 311.944L314.403 303.754C314.403 303.754 316.077 305.454 315.219 305.463L324.716 315.797L324.077 342.737L308.322 330.33C308.322 330.33 310.687 332.732 309.474 332.745L323.94 348.486L323.866 351.593L323.779 354.941L323.28 376.194L328.387 376.14C328.266 369.305 328.154 362.144 328.042 354.972C327.941 348.876 327.828 342.769 327.741 336.89C327.733 336.459 327.726 336.041 327.718 335.612L339.016 323.249C338.004 323.261 339.935 321.216 339.935 321.216Z" stroke="#1E212B" stroke-miterlimit="10"/>
<path d="M304.726 367.163C303.086 365.851 300.13 365.872 297.545 365.992C297.732 364.338 298.423 362.707 298.623 361.052C298.823 359.398 298.447 357.621 296.814 356.472C293.978 354.474 288.973 355.245 285.057 356.391C285.593 352.502 281.459 348.729 275.933 348.129C270.407 347.529 264.257 350.229 262.629 354.012C260.393 351.874 255.919 351.027 252.195 352.036C248.471 353.046 245.816 355.826 246.004 358.519C243.142 358.325 239.954 358.192 237.585 359.428C234.101 361.246 234.343 364.924 231.66 367.302C229.907 366.848 227.863 367.836 226.958 369.027C226.053 370.218 225.895 371.579 225.338 372.857C224.223 375.416 220.499 375.731 216.95 376.849L305.794 377.582C307.721 376.97 309.37 375.645 309.292 374.219C309.214 372.793 306.824 371.625 304.968 372.341C305.619 372.358 306.636 368.69 304.726 367.163Z" fill="#99BB44"/>
<path d="M344.661 371.059C343.656 370.255 341.844 370.268 340.26 370.341C340.375 369.327 340.798 368.327 340.921 367.313C341.043 366.299 340.813 365.21 339.813 364.506C338.075 363.282 335.007 363.754 332.608 364.457C332.937 362.074 330.403 359.761 327.016 359.393C323.629 359.025 319.86 360.68 318.862 362.999C317.492 361.688 314.75 361.169 312.467 361.788C310.184 362.407 308.558 364.111 308.673 365.762C306.919 365.643 304.965 365.562 303.513 366.319C301.378 367.433 301.526 369.687 299.882 371.145C298.808 370.867 297.555 371.472 297 372.202C296.445 372.932 296.348 373.766 296.007 374.549C295.323 376.117 293.041 376.311 290.866 376.996L345.317 377.445C346.498 377.07 347.509 376.258 347.461 375.384C347.413 374.51 345.948 373.794 344.811 374.233C345.208 374.243 345.831 371.995 344.661 371.059Z" fill="#99BB44"/>
<path d="M208.517 195.685C206.181 193.908 203.35 192.867 200.293 192.867C192.263 192.867 185.752 200.061 185.752 208.923V209.02C184.82 207.7 183.366 206.857 181.736 206.857C180.341 206.857 179.079 207.48 178.154 208.477C177.522 202.158 172.678 197.241 166.783 197.241C160.499 197.241 155.397 202.831 155.338 209.757C154.781 209.312 154.098 209.06 153.356 209.06C151.639 209.06 150.215 210.437 149.95 212.243H230.896C230.896 206.014 226.316 200.967 220.671 200.967C218.138 200.967 215.818 201.987 214.035 203.68C213.543 202.114 212.839 200.657 211.959 199.352" stroke="#1E212B" stroke-miterlimit="10" stroke-linecap="round" stroke-linejoin="round"/>
<path d="M288.624 78.1152C290.452 77.4055 292.418 77.0192 294.468 77.0192C304.213 77.0192 312.115 85.7482 312.115 96.5023V96.6203C313.246 95.018 315.01 93.9956 316.988 93.9956C318.68 93.9956 320.212 94.7526 321.335 95.9617C322.101 88.2942 327.98 82.3274 335.133 82.3274C342.759 82.3274 348.95 89.1101 349.021 97.5148C349.698 96.9742 350.527 96.6694 351.426 96.6694C353.511 96.6694 355.239 98.3405 355.56 100.533H257.33C257.33 92.9733 262.889 86.8492 269.739 86.8492C272.812 86.8492 275.627 88.0878 277.792 90.1423C278.691 87.2817 280.173 84.721 282.083 82.638" stroke="#1E212B" stroke-miterlimit="10" stroke-linecap="round" stroke-linejoin="round"/>
<path d="M381 376.913H348.068H344.237H1" stroke="#1E212B" stroke-miterlimit="10" stroke-linecap="round" stroke-linejoin="round"/>
<path d="M137.17 375.753C136.64 376.003 132.79 376.143 127.88 376.223C117.9 376.393 103.49 376.313 103.49 376.313C103.49 376.313 102.71 376.313 102.41 372.413C102.12 368.513 104.03 365.413 104.25 363.783C105.29 356.303 102.7 353.183 102.66 352.633C102.66 352.073 116.71 351.773 116.71 351.773L121.31 351.463L120.31 358.043C120.25 358.423 120.21 358.803 120.21 359.173C120.02 363.923 123.23 368.253 127.97 369.263C128.02 369.273 128.14 369.293 128.18 369.303H128.19C128.52 368.993 134.17 366.373 136.51 369.993C137.75 371.903 137.17 375.753 137.17 375.753Z" fill="#1E212B"/>
<mask id="mask0_786_294" style="mask-type:luminance" maskUnits="userSpaceOnUse" x="102" y="351" width="36" height="26">
<path d="M137.17 375.753C136.64 376.003 132.79 376.143 127.88 376.223C117.9 376.393 103.49 376.313 103.49 376.313C103.49 376.313 102.71 376.313 102.41 372.413C102.12 368.513 104.03 365.413 104.25 363.783C105.29 356.303 102.7 353.183 102.66 352.633C102.66 352.073 116.71 351.773 116.71 351.773L121.31 351.463L120.31 358.043C120.25 358.423 120.21 358.803 120.21 359.173C120.02 363.923 123.23 368.253 127.97 369.263C128.02 369.273 128.14 369.293 128.18 369.303H128.19C128.52 368.993 134.17 366.373 136.51 369.993C137.75 371.903 137.17 375.753 137.17 375.753Z" fill="white"/>
</mask>
<g mask="url(#mask0_786_294)">
<path opacity="0.2" d="M137.17 375.753C136.64 376.003 132.79 376.143 127.88 376.223C117.9 376.393 103.49 376.313 103.49 376.313C103.49 376.313 102.71 376.313 102.41 372.413C102.12 368.513 104.03 365.413 104.25 363.783C105.29 356.303 102.7 353.183 102.66 352.633C102.66 352.073 116.71 351.773 116.71 351.773L121.31 351.463L120.31 358.043C120.25 358.423 120.21 358.803 120.21 359.173C120.02 363.923 123.23 368.253 127.97 369.263C128.02 369.273 128.14 369.293 128.18 369.303H128.19C128.52 368.993 134.17 366.373 136.51 369.993C137.75 371.903 137.17 375.753 137.17 375.753Z" fill="white"/>
</g>
<mask id="mask1_786_294" style="mask-type:luminance" maskUnits="userSpaceOnUse" x="102" y="351" width="36" height="26">
<path d="M137.17 375.753C136.64 376.003 132.79 376.143 127.88 376.223C117.9 376.393 103.49 376.313 103.49 376.313C103.49 376.313 102.71 376.313 102.41 372.413C102.12 368.513 104.03 365.413 104.25 363.783C105.29 356.303 102.7 353.183 102.66 352.633C102.66 352.073 116.71 351.773 116.71 351.773L121.31 351.463L120.31 358.043C120.25 358.423 120.21 358.803 120.21 359.173C120.02 363.923 123.23 368.253 127.97 369.263C128.02 369.273 128.14 369.293 128.18 369.303H128.19C128.52 368.993 134.17 366.373 136.51 369.993C137.75 371.903 137.17 375.753 137.17 375.753Z" fill="white"/>
</mask>
<g mask="url(#mask1_786_294)">
<path opacity="0.3" d="M127.88 376.223C117.9 376.393 103.49 376.313 103.49 376.313C103.49 376.313 102.71 376.313 102.41 372.413C102.12 368.513 104.03 365.413 104.25 363.783C105.29 356.303 102.7 353.183 102.66 352.633C102.66 352.073 116.71 351.773 116.71 351.773L121.31 351.463L120.31 358.043C120.25 358.423 120.21 358.803 120.21 359.173C117.04 361.793 114.52 363.903 114.52 363.903C114.52 363.903 127.32 368.163 127.88 376.223Z" fill="black"/>
</g>
<path d="M137.17 375.753C136.64 376.003 132.79 376.143 127.88 376.223C117.9 376.393 103.49 376.313 103.49 376.313C103.49 376.313 102.71 376.313 102.41 372.413C102.12 368.513 104.03 365.413 104.25 363.783C105.29 356.303 102.7 353.183 102.66 352.633C102.66 352.073 116.71 351.773 116.71 351.773L121.31 351.463L120.31 358.043C120.25 358.423 120.21 358.803 120.21 359.173C120.02 363.923 123.23 368.253 127.97 369.263C128.02 369.273 128.14 369.293 128.18 369.303H128.19C128.52 368.993 134.17 366.373 136.51 369.993C137.75 371.903 137.17 375.753 137.17 375.753Z" stroke="#1E212B" stroke-linecap="round" stroke-linejoin="round"/>
<path d="M124.3 342.863C124.77 345.373 125.94 346.083 125.18 347.263C125.07 347.443 124.96 347.653 124.85 347.873C124.26 349.093 123.63 350.813 121.31 351.463C118.58 352.233 105.51 352.943 102.69 352.593C99.8701 352.243 98.2701 349.573 98.1101 347.353C97.9401 345.143 99.17 343.713 98.98 341.203C98.79 338.703 96.8301 337.963 96.7001 336.293C96.5701 334.633 98.1901 332.193 98.1701 330.523C98.1301 327.003 98.23 330.843 98.93 310.833C99.32 299.423 102.08 296.943 98.93 284.003C97.79 279.333 85.55 194.783 85.55 194.783L123.3 197.043C123.3 197.043 123.9 211.443 124.58 228.453C125.44 250.093 126.43 275.953 126.46 281.773C126.52 293.593 125.44 310.153 124.57 324.853C124.2 331.123 123.57 335.443 124.59 337.833C124.71 338.093 124.78 338.353 124.8 338.633C124.93 340.273 123.82 340.353 124.3 342.863Z" fill="#446622"/>
<mask id="mask2_786_294" style="mask-type:luminance" maskUnits="userSpaceOnUse" x="85" y="194" width="42" height="159">
<path d="M124.3 342.863C124.77 345.373 125.94 346.083 125.18 347.263C125.07 347.443 124.96 347.653 124.85 347.873C124.26 349.093 123.63 350.813 121.31 351.463C118.58 352.233 105.51 352.943 102.69 352.593C99.8701 352.243 98.2701 349.573 98.1101 347.353C97.9401 345.143 99.17 343.713 98.98 341.203C98.79 338.703 96.8301 337.963 96.7001 336.293C96.5701 334.633 98.1901 332.193 98.1701 330.523C98.1301 327.003 98.23 330.843 98.93 310.833C99.32 299.423 102.08 296.943 98.93 284.003C97.79 279.333 85.55 194.783 85.55 194.783L123.3 197.043C123.3 197.043 123.9 211.443 124.58 228.453C125.44 250.093 126.43 275.953 126.46 281.773C126.52 293.593 125.44 310.153 124.57 324.853C124.2 331.123 123.57 335.443 124.59 337.833C124.71 338.093 124.78 338.353 124.8 338.633C124.93 340.273 123.82 340.353 124.3 342.863Z" fill="white"/>
</mask>
<g mask="url(#mask2_786_294)">
<path opacity="0.3" d="M124.85 347.873C124.26 349.093 123.63 350.813 121.31 351.463C118.58 352.233 105.51 352.943 102.69 352.593C99.8701 352.243 98.2701 349.573 98.1101 347.353C97.9401 345.143 99.17 343.713 98.98 341.203C98.79 338.703 96.8301 337.963 96.7001 336.293C96.5701 334.633 98.1901 332.193 98.1701 330.523C98.1301 327.003 98.23 330.843 98.93 310.833C99.32 299.423 102.08 296.943 98.93 284.003C97.79 279.333 85.55 194.783 85.55 194.783L123.3 197.043C123.3 197.043 123.9 211.443 124.58 228.453C120.03 247.373 114.75 268.193 112.77 271.693L115.89 277.143C115.89 277.143 108.43 294.453 108.43 296.543C108.43 298.623 110.98 318.183 111.82 322.253C112.65 326.323 108.43 323.423 108.43 326.843C108.43 329.983 108.09 345.313 124.85 347.873Z" fill="black"/>
</g>
<path d="M124.3 342.863C124.77 345.373 125.94 346.083 125.18 347.263C125.07 347.443 124.96 347.653 124.85 347.873C124.26 349.093 123.63 350.813 121.31 351.463C118.58 352.233 105.51 352.943 102.69 352.593C99.8701 352.243 98.2701 349.573 98.1101 347.353C97.9401 345.143 99.17 343.713 98.98 341.203C98.79 338.703 96.8301 337.963 96.7001 336.293C96.5701 334.633 98.1901 332.193 98.1701 330.523C98.1301 327.003 98.23 330.843 98.93 310.833C99.32 299.423 102.08 296.943 98.93 284.003C97.79 279.333 85.55 194.783 85.55 194.783L123.3 197.043C123.3 197.043 123.9 211.443 124.58 228.453C125.44 250.093 126.43 275.953 126.46 281.773C126.52 293.593 125.44 310.153 124.57 324.853C124.2 331.123 123.57 335.443 124.59 337.833C124.71 338.093 124.78 338.353 124.8 338.633C124.93 340.273 123.82 340.353 124.3 342.863Z" stroke="#1E212B" stroke-linecap="round" stroke-linejoin="round"/>
<path d="M121.409 224.373C121.409 224.373 116.777 228.404 112.833 227.657" stroke="#1E212B" stroke-linecap="round" stroke-linejoin="round"/>
<path d="M120.947 231.933C120.947 231.933 113.148 230.056 112.258 228.474" stroke="#1E212B" stroke-linecap="round" stroke-linejoin="round"/>
<path d="M110.946 267.558C110.946 267.558 115.163 278.583 119.842 281.221" stroke="#1E212B" stroke-linecap="round" stroke-linejoin="round"/>
<path d="M120.053 340.57C120.053 340.57 110.699 343.463 106.006 341.353C101.313 339.243 109.676 346.188 118.418 345.573" stroke="#1E212B" stroke-linecap="round" stroke-linejoin="round"/>
<path d="M106.81 290.707C106.81 290.707 106.886 319.948 114.517 325.771" stroke="#1E212B" stroke-linecap="round" stroke-linejoin="round"/>
<path d="M114.646 356.293C114.646 356.293 117.564 355.08 120.307 355.103" stroke="#1E212B" stroke-linecap="round" stroke-linejoin="round"/>
<path d="M114.825 360.087C114.825 360.087 117.533 359.127 119.487 358.683" stroke="#1E212B" stroke-linecap="round" stroke-linejoin="round"/>
<path d="M115.332 363.715L119.702 362.407" stroke="#1E212B" stroke-linecap="round" stroke-linejoin="round"/>
<path d="M117.456 366.683L121.052 365.27" stroke="#1E212B" stroke-linecap="round" stroke-linejoin="round"/>
<path d="M121.525 369.233L123.618 367.628" stroke="#1E212B" stroke-linecap="round" stroke-linejoin="round"/>
<path d="M115.55 352.685C115.55 352.685 115.2 362.72 118.363 365.977C121.526 369.233 124.869 369.331 124.582 370.595" stroke="#1E212B" stroke-linecap="round" stroke-linejoin="round"/>
<path d="M86.723 351.51C86.723 351.51 72.579 351.807 72.525 352.365C72.471 352.922 74.523 356.034 72.201 363.501C71.695 365.13 69.252 368.223 68.876 372.117C68.5 376.011 69.286 376.008 69.286 376.008C69.286 376.008 101.334 376.188 103.057 375.449C103.057 375.449 104.296 371.611 103.39 369.705C101.589 365.914 94.978 368.971 95.186 369.016C95.256 369.031 95.047 368.986 94.978 368.971C90.047 367.881 87.565 362.936 89.243 357.771L91.376 351.205L86.723 351.51Z" fill="#1E212B"/>
<mask id="mask3_786_294" style="mask-type:luminance" maskUnits="userSpaceOnUse" x="68" y="351" width="36" height="26">
<path d="M86.723 351.51C86.723 351.51 72.579 351.807 72.525 352.365C72.471 352.922 74.523 356.034 72.201 363.501C71.695 365.13 69.252 368.223 68.876 372.117C68.5 376.011 69.286 376.008 69.286 376.008C69.286 376.008 101.334 376.188 103.057 375.449C103.057 375.449 104.296 371.611 103.39 369.705C101.589 365.914 94.978 368.971 95.186 369.016C95.256 369.031 95.047 368.986 94.978 368.971C90.047 367.881 87.565 362.936 89.243 357.771L91.376 351.205L86.723 351.51Z" fill="white"/>
</mask>
<g mask="url(#mask3_786_294)">
<path opacity="0.25" d="M86.723 351.51C86.723 351.51 72.579 351.807 72.525 352.365C72.471 352.922 74.523 356.034 72.201 363.501C71.695 365.13 69.252 368.223 68.876 372.117C68.5 376.011 69.286 376.008 69.286 376.008C69.286 376.008 101.334 376.188 103.057 375.449C103.057 375.449 104.296 371.611 103.39 369.705C101.589 365.914 94.978 368.971 95.186 369.016C95.256 369.031 95.047 368.986 94.978 368.971C90.047 367.881 87.565 362.936 89.243 357.771L91.376 351.205L86.723 351.51Z" fill="white"/>
</g>
<path d="M86.723 351.51C86.723 351.51 72.579 351.807 72.525 352.365C72.471 352.922 74.523 356.034 72.201 363.501C71.695 365.13 69.252 368.223 68.876 372.117C68.5 376.011 69.286 376.008 69.286 376.008C69.286 376.008 101.334 376.188 103.057 375.449C103.057 375.449 104.296 371.611 103.39 369.705C101.589 365.914 94.978 368.971 95.186 369.016C95.256 369.031 95.047 368.986 94.978 368.971C90.047 367.881 87.565 362.936 89.243 357.771L91.376 351.205L86.723 351.51Z" stroke="#1E212B" stroke-linecap="round" stroke-linejoin="round"/>
<path d="M119.912 197.039L82.5521 194.782C82.5521 194.782 80.2561 279.188 80.5901 283.852C81.5161 296.775 78.3351 299.245 75.9781 310.639C71.8441 330.617 72.4031 326.78 71.8381 330.297C71.5691 331.966 69.5351 334.395 69.3741 336.059C69.2131 337.723 71.0501 338.461 70.8091 340.962C70.5681 343.463 69.0921 344.888 68.8791 347.101C68.6661 349.315 69.8041 351.981 72.5621 352.329C75.3201 352.677 88.5131 351.971 91.3781 351.204C94.2441 350.437 95.0141 348.19 95.9701 347.012C96.9261 345.834 95.8881 345.122 95.8401 342.618C95.7921 340.115 96.9161 340.031 97.0741 338.391C97.1001 338.118 97.0711 337.849 97.0051 337.59C96.3891 335.205 97.7681 330.892 99.2141 324.633C102.606 309.959 106.538 293.425 108.502 281.625C109.481 275.748 113.01 249.404 115.887 227.657C115.887 227.657 118.645 223.199 120.052 214.581" fill="#446622"/>
<mask id="mask4_786_294" style="mask-type:luminance" maskUnits="userSpaceOnUse" x="68" y="194" width="53" height="159">
<path d="M119.912 197.039L82.5521 194.782C82.5521 194.782 80.2561 279.188 80.5901 283.852C81.5161 296.775 78.3351 299.245 75.9781 310.639C71.8441 330.617 72.4031 326.78 71.8381 330.297C71.5691 331.966 69.5351 334.395 69.3741 336.059C69.2131 337.723 71.0501 338.461 70.8091 340.962C70.5681 343.463 69.0921 344.888 68.8791 347.101C68.6661 349.315 69.8041 351.981 72.5621 352.329C75.3201 352.677 88.5131 351.971 91.3781 351.204C94.2441 350.437 95.0141 348.19 95.9701 347.012C96.9261 345.834 95.8881 345.122 95.8401 342.618C95.7921 340.115 96.9161 340.031 97.0741 338.391C97.1001 338.118 97.0711 337.849 97.0051 337.59C96.3891 335.205 97.7681 330.892 99.2141 324.633C102.606 309.959 106.538 293.425 108.502 281.625C109.481 275.748 113.01 249.404 115.887 227.657C115.887 227.657 118.645 223.199 120.052 214.581" fill="white"/>
</mask>
<g mask="url(#mask4_786_294)">
<path opacity="0.3" d="M82.473 197.712C82.469 197.711 82.139 210.323 82.139 210.323C82.139 210.323 91.35 211.193 101.097 210.323C113.445 209.221 120.947 203.75 120.947 203.75L119.913 197.038C119.913 197.038 105.925 200.808 99.02 200.279C92.114 199.75 85.61 198.922 82.473 197.712Z" fill="black"/>
</g>
<path d="M119.912 197.039L82.5521 194.782C82.5521 194.782 80.2561 279.188 80.5901 283.852C81.5161 296.775 78.3351 299.245 75.9781 310.639C71.8441 330.617 72.4031 326.78 71.8381 330.297C71.5691 331.966 69.5351 334.395 69.3741 336.059C69.2131 337.723 71.0501 338.461 70.8091 340.962C70.5681 343.463 69.0921 344.888 68.8791 347.101C68.6661 349.315 69.8041 351.981 72.5621 352.329C75.3201 352.677 88.5131 351.971 91.3781 351.204C94.2441 350.437 95.0141 348.19 95.9701 347.012C96.9261 345.834 95.8881 345.122 95.8401 342.618C95.7921 340.115 96.9161 340.031 97.0741 338.391C97.1001 338.118 97.0711 337.849 97.0051 337.59C96.3891 335.205 97.7681 330.892 99.2141 324.633C102.606 309.959 106.538 293.425 108.502 281.625C109.481 275.748 113.01 249.404 115.887 227.657C115.887 227.657 118.645 223.199 120.052 214.581" stroke="#1E212B" stroke-linecap="round" stroke-linejoin="round"/>
<path d="M101.487 299.136C101.487 299.136 88.5751 321.137 75.8201 328.326" stroke="#1E212B" stroke-linecap="round" stroke-linejoin="round"/>
<path d="M75.6021 340.57C80.2241 341.155 84.8461 341.74 89.4681 342.325C90.5011 342.456 91.7621 342.855 91.6571 343.914C91.5671 344.833 90.4871 345.457 89.5691 345.788C86.3481 346.947 82.936 347.175 79.914 346.432" stroke="#1E212B" stroke-linecap="round" stroke-linejoin="round"/>
<path d="M76.011 333.907C80.787 336.7 86.434 338.252 92.362 338.4" stroke="#1E212B" stroke-linecap="round" stroke-linejoin="round"/>
<path d="M84.7071 293.865C84.7071 293.865 91.7251 294.129 95.3111 293.81C92.6391 297.474 88.3571 299.063 84.1261 299.273" stroke="#1E212B" stroke-linecap="round" stroke-linejoin="round"/>
<path d="M89.9671 205.206C89.9671 205.206 88.9381 241.146 88.6061 256.091C88.2751 271.036 87.6081 288.472 87.6081 288.472C87.6081 288.472 86.4221 290.268 86.9831 292.104C87.5431 293.94 87.5431 293.94 87.5431 293.94L87.2341 299.136C87.2341 299.136 85.8341 300.7 86.3131 302.593C86.7921 304.486 82.9101 317.652 82.9101 317.652L82.2361 318.528C80.8221 320.367 80.4161 322.656 81.1751 324.506L79.7871 335.783L79.7701 335.799C78.2081 337.284 77.8321 339.508 78.8911 340.986L77.5841 346.859C76.2001 348.202 75.8641 350.184 76.7921 351.522L77.0191 351.85" stroke="#1E212B" stroke-linecap="round" stroke-linejoin="round"/>
<path d="M154.663 138.965C153.647 141.15 145.142 146.983 145.142 146.983C145.133 146.022 145.337 145.071 145.74 144.199C146.353 143.266 146.784 142.361 147.132 141.805C147.233 140.284 146.733 138.785 145.74 137.629C144.585 136.348 143.666 139.564 143.165 141.708C142.664 143.852 139.309 147.109 139.462 148.668C139.745 150.5 140.122 152.317 140.59 154.111C140.59 154.111 126.345 159.116 124.77 156.074C121.432 149.629 117.747 143.37 113.732 137.324C110.377 142.001 113.022 148.46 114.915 156.408C116.808 164.356 122.62 175.463 122.62 175.463C133.043 170.474 144.877 157.425 144.877 157.425C144.877 157.425 147.661 156.186 151.099 155.003C154.537 153.82 154.036 152.818 154.593 149.435C155.15 146.052 158.031 141.445 157.864 139.691C157.697 137.934 155.679 136.779 154.663 138.965Z" fill="white" stroke="#1E212B" stroke-linecap="round" stroke-linejoin="round"/>
<path d="M120.96 155.853C120.83 163.093 122.26 187.643 123.81 197.383L81.395 196.312V195.599C84.505 184.079 82.49 171.653 77.58 160.773C74.98 155.023 73.825 147.668 72.485 140.708C69.075 122.988 77.632 117.507 84.782 116.827C87.542 116.697 87.78 114.843 89.83 114.973C91.67 115.083 92.83 114.933 93.91 114.473C94.8 118.103 99.73 128.763 101.42 129.983C103.11 131.203 105.56 131.593 107.27 130.403C108.97 129.213 109.44 126.943 109.83 124.903C110.03 123.823 110.3 122.683 110.77 121.693C113.27 122.943 117.63 124.423 120.87 130.253C124.83 143.123 122.67 134.873 125.75 153.753C126.22 156.643 120.96 155.853 120.96 155.853Z" fill="white" stroke="#1E212B" stroke-linecap="round" stroke-linejoin="round"/>
<path d="M114.277 122.352L110.178 120.926C112.962 130.471 110.555 141.32 103.522 137.037C96.489 132.755 93.702 120.416 91.598 115.015C90.495 114.675 86.029 114.51 83.712 116.292C86.132 120.718 92.716 129.527 91.935 136.67C91.063 144.66 84.771 151.776 73.019 143.738C74.623 155.857 79.704 164.597 80.682 168.689C84.257 183.646 81.87 185.738 80.198 200.54C97.179 209.217 117.767 204.902 126.784 202.266C124.035 187.261 125.237 149.263 114.277 122.352Z" fill="#446622"/>
<mask id="mask5_786_294" style="mask-type:luminance" maskUnits="userSpaceOnUse" x="73" y="114" width="54" height="92">
<path d="M114.277 122.352L110.178 120.926C112.962 130.471 110.555 141.32 103.522 137.037C96.489 132.755 93.702 120.416 91.598 115.015C90.495 114.675 86.029 114.51 83.712 116.292C86.132 120.718 92.716 129.527 91.935 136.67C91.063 144.66 84.771 151.776 73.019 143.738C74.623 155.857 79.704 164.597 80.682 168.689C84.257 183.646 81.87 185.738 80.198 200.54C97.179 209.217 117.767 204.902 126.784 202.266C124.035 187.261 125.237 149.263 114.277 122.352Z" fill="white"/>
</mask>
<g mask="url(#mask5_786_294)">
<path opacity="0.3" d="M88.3661 186.011C88.3661 186.011 116.096 198.111 120.052 186.368C112.758 187.948 105.271 188.253 97.8851 187.274L88.3661 186.011Z" fill="black"/>
</g>
<mask id="mask6_786_294" style="mask-type:luminance" maskUnits="userSpaceOnUse" x="73" y="114" width="54" height="92">
<path d="M114.277 122.352L110.178 120.926C112.962 130.471 110.555 141.32 103.522 137.037C96.489 132.755 93.702 120.416 91.598 115.015C90.495 114.675 86.029 114.51 83.712 116.292C86.132 120.718 92.716 129.527 91.935 136.67C91.063 144.66 84.771 151.776 73.019 143.738C74.623 155.857 79.704 164.597 80.682 168.689C84.257 183.646 81.87 185.738 80.198 200.54C97.179 209.217 117.767 204.902 126.784 202.266C124.035 187.261 125.237 149.263 114.277 122.352Z" fill="white"/>
</mask>
<g mask="url(#mask6_786_294)">
<path opacity="0.3" d="M78.5441 159.837L98.6861 143.831C98.6861 143.831 102.663 154.847 91.9691 161.144C84.7201 165.413 78.5441 159.837 78.5441 159.837Z" fill="black"/>
</g>
<path d="M114.277 122.352L110.178 120.926C112.962 130.471 110.555 141.32 103.522 137.037C96.489 132.755 93.702 120.416 91.598 115.015C90.495 114.675 86.029 114.51 83.712 116.292C86.132 120.718 92.716 129.527 91.935 136.67C91.063 144.66 84.771 151.776 73.019 143.738C74.623 155.857 79.704 164.597 80.682 168.689C84.257 183.646 81.87 185.738 80.198 200.54C97.179 209.217 117.767 204.902 126.784 202.266C124.035 187.261 125.237 149.263 114.277 122.352Z" stroke="#1E212B" stroke-linecap="round" stroke-linejoin="round"/>
<path d="M120.053 185.97C119.786 187.488 118.612 188.73 117.239 189.431" stroke="#1E212B" stroke-linecap="round" stroke-linejoin="round"/>
<path d="M112.771 190.51C104.394 191.291 95.8001 189.574 88.3671 185.634" stroke="#1E212B" stroke-linecap="round" stroke-linejoin="round"/>
<path d="M151.627 122.74L142.981 145.892C142.664 146.725 142.758 147.671 143.23 148.42L144.841 151.002C145.628 152.273 148.417 152.655 149.619 151.828C150.04 151.539 150.372 151.127 150.575 150.642L159.138 127.51C159.594 126.429 159.346 125.159 158.52 124.354L155.817 121.747C154.763 120.713 153.117 120.774 152.139 121.883C151.92 122.132 151.746 122.423 151.627 122.74Z" fill="#1E212B"/>
<path d="M73 128.974C73 128.974 73 133.162 75.456 138.999C79.632 148.923 95.545 173.613 99.038 175.282C102.531 176.951 138.2 157.751 140.777 155.118C143.354 152.485 141.915 148.994 141.915 148.994C141.915 148.994 141.872 151.454 143.968 150.999C145.291 150.712 144.196 146.633 144.196 146.633C144.196 146.633 146.616 144.924 144.314 141.759C144.314 141.759 147.572 141.759 147.349 139.304C147.26 138.322 137.66 138.171 136.187 140.938C134.396 144.302 132.622 153.063 132.622 153.063C132.622 153.063 109.375 159.063 104.563 159.954L91.899 132.346" fill="white"/>
<path d="M73 128.974C73 128.974 73 133.162 75.456 138.999C79.632 148.923 95.545 173.613 99.038 175.282C102.531 176.951 138.2 157.751 140.777 155.118C143.354 152.485 141.915 148.994 141.915 148.994C141.915 148.994 141.872 151.454 143.968 150.999C145.291 150.712 144.196 146.633 144.196 146.633C144.196 146.633 146.616 144.924 144.314 141.759C144.314 141.759 147.572 141.759 147.349 139.304C147.26 138.322 137.66 138.171 136.187 140.938C134.396 144.302 132.622 153.063 132.622 153.063C132.622 153.063 109.375 159.063 104.563 159.954L91.899 132.346" stroke="#1E212B" stroke-linecap="round" stroke-linejoin="round"/>
<path d="M141.147 156.587C141.867 154.759 143.118 153.188 144.738 152.077C146.62 151.179 149.211 150.907 151.257 150.51C151.257 150.51 152.861 143.738 153.73 143.92C156.383 144.476 154.315 150.699 154.315 150.699" fill="white"/>
<path d="M141.147 156.587C141.867 154.759 143.118 153.188 144.738 152.077C146.62 151.179 149.211 150.907 151.257 150.51C151.257 150.51 152.861 143.738 153.73 143.92C156.383 144.476 154.315 150.699 154.315 150.699" stroke="#1E212B" stroke-linecap="round" stroke-linejoin="round"/>
<path d="M157.502 141.484C156.791 140.772 155.654 140.724 154.885 141.373C153.604 142.542 151.642 145.855 149.554 147.623" stroke="#1E212B" stroke-linecap="round" stroke-linejoin="round"/>
<path d="M138.968 148.607C139.536 147.345 143.59 145.211 144.394 147.946" stroke="#1E212B" stroke-linecap="round" stroke-linejoin="round"/>
<path d="M138.91 145.271C138.91 145.271 143.602 142.713 144.542 145.882" stroke="#1E212B" stroke-linecap="round" stroke-linejoin="round"/>
<path d="M139.536 142.213C139.536 142.213 141.495 141.836 141.916 141.794C143.475 141.638 145.161 141.442 145.998 141.442" stroke="#1E212B" stroke-linecap="round" stroke-linejoin="round"/>
<path d="M115.887 227.657C115.887 227.657 109.643 222.144 106.005 221.089L115.887 227.657Z" fill="#446622"/>
<path d="M115.887 227.657C115.887 227.657 109.643 222.144 106.005 221.089" stroke="#1E212B" stroke-linecap="round" stroke-linejoin="round"/>
<path d="M84.3351 356.353C84.3351 356.353 87.3571 355.12 90.0991 355.143" stroke="#1E212B" stroke-linecap="round" stroke-linejoin="round"/>
<path d="M84.186 360.21C84.186 360.21 86.977 359.234 88.969 358.782" stroke="#1E212B" stroke-linecap="round" stroke-linejoin="round"/>
<path d="M84.38 363.897L88.864 362.568" stroke="#1E212B" stroke-linecap="round" stroke-linejoin="round"/>
<path d="M86.249 366.915L89.967 365.478" stroke="#1E212B" stroke-linecap="round" stroke-linejoin="round"/>
<path d="M90.099 369.507L92.33 367.875" stroke="#1E212B" stroke-linecap="round" stroke-linejoin="round"/>
<path d="M85.55 352.685C85.55 352.685 84.335 362.887 87.217 366.197C90.099 369.507 93.434 369.606 93.038 370.892" stroke="#1E212B" stroke-linecap="round" stroke-linejoin="round"/>
<path d="M109.792 120.51C109.792 120.51 114.01 136.965 107.237 138.213C98.012 139.912 91.598 115.006 91.598 115.006C93.011 114.91 93.177 114.325 94.405 113.619C94.405 113.619 104.722 134.203 109.792 120.51Z" fill="#1E212B"/>
<path d="M81.7241 117.388C81.7241 117.388 72.073 119.306 72.036 133.651C71.999 147.892 78.3661 159.956 78.3661 159.956C78.3661 159.956 85.904 159.341 90.663 155.857C100.643 148.55 99.0391 144.451 99.0391 144.451L93.8001 134.069C93.8001 134.069 92.084 127.424 84.6031 116.827L81.7241 117.388Z" fill="#1E212B"/>
<path d="M114.872 122.922C120.128 137.857 120.365 143.441 121.316 150.332C121.316 150.332 126.471 149.297 127.257 148.193C127.257 148.193 124.758 135.974 122.057 129.654C120.344 125.647 118.078 124.228 114.872 122.922Z" fill="#1E212B"/>
<path d="M109.78 105.972C109.78 105.972 109.026 119.65 109.079 120.748C109.167 122.823 110.668 125.571 109.286 127.119C107.894 128.669 105.42 128.852 103.496 128.052C101.571 127.252 100.099 125.667 98.774 124.058C96.405 121.154 94.328 118.006 92.629 114.677C93.109 114.317 94.43 112.754 95.074 110.678C95.074 110.678 95.335 109.519 95.353 109.464C95.752 106.709 95.606 103.733 95.235 100.985C94.498 95.4161 92.827 90.7651 92.827 90.7651L109.78 105.972Z" fill="white" stroke="#1E212B" stroke-linecap="round" stroke-linejoin="round"/>
<path d="M95.563 119.032C98.505 120.035 100.643 120.986 102.417 121.953L95.563 119.032Z" fill="#1E212B"/>
<path d="M95.563 119.032C98.505 120.035 100.643 120.986 102.417 121.953" stroke="#1E212B" stroke-linecap="round" stroke-linejoin="round"/>
<path d="M93.466 72.8822C93.466 72.8822 84.948 77.7532 89.364 90.4652C93.78 103.177 103.595 117.373 112.507 115.471C121.419 113.569 123.733 95.8652 119.015 84.0642C114.297 72.2632 102.31 65.7192 93.466 72.8822Z" fill="white" stroke="#1E212B" stroke-linecap="round" stroke-linejoin="round"/>
<path d="M118.879 96.3391C118.942 97.3861 118.532 98.2661 117.973 98.2991C117.414 98.3321 116.903 97.5081 116.84 96.4611C116.777 95.4141 117.174 94.5491 117.747 94.5151C118.319 94.4801 118.816 95.2911 118.879 96.3391Z" fill="#1E212B"/>
<path d="M110.188 95.9332C110.25 96.9662 109.854 97.8452 109.295 97.8782C108.736 97.9112 108.225 97.0872 108.163 96.0542C108.101 95.0212 108.496 94.1282 109.069 94.0942C109.641 94.0602 110.124 94.8722 110.188 95.9332Z" fill="#1E212B"/>
<path d="M113.459 75.0692C107.75 69.5162 99.976 67.7922 93.765 72.8262C93.765 72.8262 85.247 77.6972 89.663 90.4092C90.729 93.4432 92.022 96.3922 93.53 99.2312L93.691 99.3702C93.691 99.3702 90.893 96.5812 101.999 90.4442C105.645 88.3782 111.04 75.5362 113.459 75.0692Z" fill="#1E212B" stroke="#1E212B" stroke-linecap="round" stroke-linejoin="round"/>
<path d="M104.54 79.2151C104.54 79.2151 105.324 70.3591 111.481 70.0581C114.69 69.9011 118.933 74.2091 119.459 76.4841C120.186 79.6281 122.647 82.0751 125.815 82.6831C125.815 82.6831 124.029 88.6961 120.558 89.1211C114.828 89.8231 111.86 88.4821 108.165 83.4301C107.106 81.9821 105.976 80.5861 104.679 79.3471L104.54 79.2151Z" fill="#1E212B" stroke="#1E212B" stroke-linecap="round" stroke-linejoin="round"/>
<path d="M95.365 96.2341C95.365 96.2341 91.996 89.2911 88.997 96.9371C87.131 101.694 94.605 105.499 97.168 104.244" fill="white"/>
<path d="M95.365 96.2341C95.365 96.2341 91.996 89.2911 88.997 96.9371C87.131 101.694 94.605 105.499 97.168 104.244" stroke="#1E212B" stroke-linecap="round" stroke-linejoin="round"/>
<path d="M115.426 92.0361C114.276 93.3071 113.809 95.0551 114.173 96.7301C114.43 98.5471 115.043 100.295 115.975 101.875L111.703 103.265" stroke="#1E212B" stroke-linecap="round" stroke-linejoin="round"/>
<path d="M107.898 106.374C109.278 107.732 111.313 108.182 113.137 107.532" stroke="#1E212B" stroke-linecap="round" stroke-linejoin="round"/>
<path d="M103.157 91.9172C103.157 91.9172 106.137 88.5962 109.778 90.1932" stroke="#1E212B" stroke-linecap="round" stroke-linejoin="round"/>
<path d="M117.085 91.0282C117.085 91.0282 121.011 89.8082 120.513 93.2692" stroke="#1E212B" stroke-linecap="round" stroke-linejoin="round"/>
<path d="M95.3021 100.044C94.6151 100.16 93.9891 99.5841 93.6981 98.9511C93.4071 98.3181 93.3281 97.6041 93.0361 96.9721C92.7441 96.3401 92.1161 95.7641 91.4301 95.8831" fill="#1E212B"/>
<path d="M95.3021 100.044C94.6151 100.16 93.9891 99.5841 93.6981 98.9511C93.4071 98.3181 93.3281 97.6041 93.0361 96.9721C92.7441 96.3401 92.1161 95.7641 91.4301 95.8831" stroke="#1E212B" stroke-linecap="round" stroke-linejoin="round"/>
<path d="M107.772 72.6112C107.331 70.8252 106.639 69.1022 105.722 67.5072C105.729 67.5432 107.351 67.0902 108.248 66.8992C108.102 68.6522 107.917 70.8582 107.772 72.6112Z" fill="#1E212B" stroke="#1E212B" stroke-linecap="round" stroke-linejoin="round"/>
<path d="M109.484 115.08L109.55 118.11C109.004 118.369 108.315 118.49 107.448 118.391C103.609 117.947 99.735 109.434 99.498 108.904C99.496 108.895 99.487 108.896 99.485 108.887C99.519 108.91 99.545 108.944 99.569 108.969C104.124 113.968 107.488 115.048 109.484 115.08Z" fill="#1E212B"/>
<path d="M275.093 31.0522V41.3736L303.3 19.6023L275.093 31.0522Z" fill="#99BB44" stroke="#1E212B" stroke-miterlimit="10" stroke-linecap="round" stroke-linejoin="round"/>
<path d="M275.093 31.0523L303.95 19.2432L264.549 23.3348L275.093 31.0523Z" fill="#99BB44" stroke="#1E212B" stroke-miterlimit="10" stroke-linecap="round" stroke-linejoin="round"/>
<path d="M278.486 33.1884L292.072 43.2533L303.95 19.2432L278.486 33.1884Z" fill="#99BB44" stroke="#1E212B" stroke-miterlimit="10" stroke-linecap="round" stroke-linejoin="round"/>
<path d="M278.486 33.1884L275.093 41.3736L282.319 36.0284L278.486 33.1884Z" fill="#99BB44" stroke="#1E212B" stroke-miterlimit="10" stroke-linecap="round" stroke-linejoin="round"/>
<path d="M166.999 119.71C167.074 119.504 167.149 119.299 167.222 119.095" stroke="#1E212B" stroke-linecap="round" stroke-linejoin="round"/>
<path d="M168.077 116.625C174.155 98.4537 173.063 87.537 182.927 69.9346C184.921 66.3775 194.814 49.5366 208.919 43.5332C216.249 40.4131 220.916 45.0713 219.027 48.3642C214.813 55.71 199.334 46.9078 214.813 38.2201C229.131 30.184 259.62 45.8924 273.913 41.3866" stroke="#1E212B" stroke-linecap="round" stroke-linejoin="round" stroke-dasharray="2 3.99"/>
<path d="M275.136 40.934C275.337 40.8476 275.534 40.7554 275.728 40.6586" stroke="#1E212B" stroke-linecap="round" stroke-linejoin="round"/>
<path d="M57.8867 259.304L55.1268 253.668C55.1268 253.668 57.1242 244.247 54.5102 240.026C51.8972 235.805 44.2056 227.877 40.4958 226.317C36.7859 224.757 32.9061 226.248 32.1016 228.42C31.2971 230.593 33.0569 235.961 34.7674 240.304C36.4776 244.647 40.9717 251.82 44.6334 253.185C48.295 254.55 49.9778 253.402 52.1755 254.719C54.3704 256.036 59.182 263.233 57.8867 259.304Z" fill="#99BB44" stroke="#1E212B" stroke-miterlimit="10" stroke-linecap="round" stroke-linejoin="round"/>
<path d="M37.6974 233.476C35.5845 229.689 34.8343 229.395 34.8343 229.395L37.6974 233.476Z" fill="#99BB44"/>
<path d="M37.6974 233.476C35.5845 229.689 34.8343 229.395 34.8343 229.395" stroke="#1E212B" stroke-width="0.5" stroke-miterlimit="10" stroke-linecap="round" stroke-linejoin="round"/>
<path d="M55.418 257.277C55.418 257.277 41.2557 239.401 38.2986 234.533L55.418 257.277Z" fill="#99BB44"/>
<path d="M55.418 257.277C55.418 257.277 41.2557 239.401 38.2986 234.533" stroke="#1E212B" stroke-width="0.5" stroke-miterlimit="10" stroke-linecap="round" stroke-linejoin="round"/>
<path d="M50.9186 239.669C50.3671 237.575 49.9836 236.52 49.9836 236.52L50.9186 239.669Z" fill="#99BB44"/>
<path d="M50.9186 239.669C50.3671 237.575 49.9836 236.52 49.9836 236.52" stroke="#1E212B" stroke-width="0.5" stroke-miterlimit="10" stroke-linecap="round" stroke-linejoin="round"/>
<path d="M53.1479 251.971C53.1479 251.971 51.592 250.394 51.1764 249.337C50.7771 248.323 51.7226 243.573 51.208 240.844" fill="#99BB44"/>
<path d="M53.1479 251.971C53.1479 251.971 51.592 250.394 51.1764 249.337C50.7771 248.323 51.7226 243.573 51.208 240.844" stroke="#1E212B" stroke-width="0.5" stroke-miterlimit="10" stroke-linecap="round" stroke-linejoin="round"/>
<path d="M47.4551 235.892C47.4551 235.892 46.8884 240.877 46.8413 242.302C46.7943 243.727 46.7477 244.747 46.9972 245.139C47.2468 245.53 48.9573 247.523 48.9573 247.523" fill="#99BB44"/>
<path d="M47.4551 235.892C47.4551 235.892 46.8884 240.877 46.8413 242.302C46.7943 243.727 46.7477 244.747 46.9972 245.139C47.2468 245.53 48.9573 247.523 48.9573 247.523" stroke="#1E212B" stroke-width="0.5" stroke-miterlimit="10" stroke-linecap="round" stroke-linejoin="round"/>
<path d="M42.8632 239.514C42.8632 239.514 43.8468 235.181 44.2961 232.95C44.7464 230.718 43.2971 229.366 43.2971 229.366" fill="#99BB44"/>
<path d="M42.8632 239.514C42.8632 239.514 43.8468 235.181 44.2961 232.95C44.7464 230.718 43.2971 229.366 43.2971 229.366" stroke="#1E212B" stroke-width="0.5" stroke-miterlimit="10" stroke-linecap="round" stroke-linejoin="round"/>
<path d="M39.4488 229.272C39.5563 229.662 39.639 230.101 39.6671 230.578C39.7746 232.418 39.6337 235.077 39.6337 235.077" fill="#99BB44"/>
<path d="M39.4488 229.272C39.5563 229.662 39.639 230.101 39.6671 230.578C39.7746 232.418 39.6337 235.077 39.6337 235.077" stroke="#1E212B" stroke-width="0.5" stroke-miterlimit="10" stroke-linecap="round" stroke-linejoin="round"/>
<path d="M38.6335 227.457C38.6335 227.457 38.76 227.633 38.9261 227.948L38.6335 227.457Z" fill="#99BB44"/>
<path d="M38.6335 227.457C38.6335 227.457 38.76 227.633 38.9261 227.948" stroke="#1E212B" stroke-width="0.5" stroke-miterlimit="10" stroke-linecap="round" stroke-linejoin="round"/>
<path d="M42.9149 246.411C42.1383 246.297 41.3784 246.103 40.8015 245.781C38.9258 244.737 37.2632 242.934 37.2632 242.934" fill="#99BB44"/>
<path d="M42.9149 246.411C42.1383 246.297 41.3784 246.103 40.8015 245.781C38.9258 244.737 37.2632 242.934 37.2632 242.934" stroke="#1E212B" stroke-width="0.5" stroke-miterlimit="10" stroke-linecap="round" stroke-linejoin="round"/>
<path d="M46.4868 246.527C46.4868 246.527 45.4158 246.61 44.1295 246.534L46.4868 246.527Z" fill="#99BB44"/>
<path d="M46.4868 246.527C46.4868 246.527 45.4158 246.61 44.1295 246.534" stroke="#1E212B" stroke-width="0.5" stroke-miterlimit="10" stroke-linecap="round" stroke-linejoin="round"/>
<path d="M38.0712 240.016C37.6286 239.849 37.2014 239.635 36.8226 239.363C34.7925 237.903 33.8898 236.717 33.8898 236.717" fill="#99BB44"/>
<path d="M38.0712 240.016C37.6286 239.849 37.2014 239.635 36.8226 239.363C34.7925 237.903 33.8898 236.717 33.8898 236.717" stroke="#1E212B" stroke-width="0.5" stroke-miterlimit="10" stroke-linecap="round" stroke-linejoin="round"/>
<path d="M42.2237 240.582C42.2237 240.582 40.7625 240.686 39.1846 240.34L42.2237 240.582Z" fill="#99BB44"/>
<path d="M42.2237 240.582C42.2237 240.582 40.7625 240.686 39.1846 240.34" stroke="#1E212B" stroke-width="0.5" stroke-miterlimit="10" stroke-linecap="round" stroke-linejoin="round"/>
<path d="M44.501 250.927C43.9227 250.741 43.362 250.492 42.8572 250.16L44.501 250.927Z" fill="#99BB44"/>
<path d="M44.501 250.927C43.9227 250.741 43.362 250.492 42.8572 250.16" stroke="#1E212B" stroke-width="0.5" stroke-miterlimit="10" stroke-linecap="round" stroke-linejoin="round"/>
<path d="M49.9071 251.32C49.9071 251.32 47.8573 251.619 45.692 251.222L49.9071 251.32Z" fill="#99BB44"/>
<path d="M49.9071 251.32C49.9071 251.32 47.8573 251.619 45.692 251.222" stroke="#1E212B" stroke-width="0.5" stroke-miterlimit="10" stroke-linecap="round" stroke-linejoin="round"/>
<path d="M181.362 388.698L185.879 384.342C185.879 384.342 195.459 383.353 198.674 379.57C201.89 375.788 207.075 366.035 207.422 362.025C207.769 358.016 205.16 354.78 202.845 354.681C200.531 354.582 195.961 357.904 192.353 360.864C188.743 363.825 183.295 370.303 183.12 374.207C182.944 378.11 184.553 379.36 183.973 381.856C183.394 384.349 178.02 391.136 181.362 388.698Z" fill="#446622" stroke="#1E212B" stroke-miterlimit="10" stroke-linecap="round" stroke-linejoin="round"/>
<path d="M199.75 361.558C202.706 358.386 202.756 357.581 202.756 357.581" stroke="#1E212B" stroke-width="0.5" stroke-miterlimit="10" stroke-linecap="round" stroke-linejoin="round"/>
<path d="M182.534 385.726C182.534 385.726 195.202 366.763 198.928 362.455" stroke="#1E212B" stroke-width="0.5" stroke-miterlimit="10" stroke-linecap="round" stroke-linejoin="round"/>
<path d="M197.913 376.042C199.736 374.875 200.622 374.186 200.622 374.186" stroke="#1E212B" stroke-width="0.5" stroke-miterlimit="10" stroke-linecap="round" stroke-linejoin="round"/>
<path d="M186.887 381.938C186.887 381.938 187.911 379.973 188.789 379.253C189.632 378.562 194.443 378.005 196.882 376.678" stroke="#1E212B" stroke-width="0.5" stroke-miterlimit="10" stroke-linecap="round" stroke-linejoin="round"/>
<path d="M200.444 371.587C200.444 371.587 195.526 372.577 194.155 372.969C192.785 373.361 191.8 373.63 191.503 373.988C191.207 374.345 189.835 376.585 189.835 376.585" stroke="#1E212B" stroke-width="0.5" stroke-miterlimit="10" stroke-linecap="round" stroke-linejoin="round"/>
<path d="M195.589 368.327C195.589 368.327 200.014 367.934 202.276 367.677C204.538 367.421 205.38 365.627 205.38 365.627" stroke="#1E212B" stroke-width="0.5" stroke-miterlimit="10" stroke-linecap="round" stroke-linejoin="round"/>
<path d="M204.289 361.935C203.95 362.157 203.558 362.371 203.112 362.544C201.395 363.211 198.821 363.892 198.821 363.892" stroke="#1E212B" stroke-width="0.5" stroke-miterlimit="10" stroke-linecap="round" stroke-linejoin="round"/>
<path d="M205.766 360.603C205.766 360.603 205.638 360.777 205.389 361.032" stroke="#1E212B" stroke-width="0.5" stroke-miterlimit="10" stroke-linecap="round" stroke-linejoin="round"/>
<path d="M189.039 370.493C188.91 369.718 188.862 368.936 188.991 368.288C189.409 366.183 190.615 364.047 190.615 364.047" stroke="#1E212B" stroke-width="0.5" stroke-miterlimit="10" stroke-linecap="round" stroke-linejoin="round"/>
<path d="M190.025 373.928C190.025 373.928 189.617 372.934 189.295 371.686" stroke="#1E212B" stroke-width="0.5" stroke-miterlimit="10" stroke-linecap="round" stroke-linejoin="round"/>
<path d="M193.641 363.92C193.664 363.448 193.736 362.976 193.879 362.532C194.645 360.152 195.497 358.929 195.497 358.929" stroke="#1E212B" stroke-width="0.5" stroke-miterlimit="10" stroke-linecap="round" stroke-linejoin="round"/>
<path d="M194.375 368.047C194.375 368.047 193.829 366.688 193.673 365.08" stroke="#1E212B" stroke-width="0.5" stroke-miterlimit="10" stroke-linecap="round" stroke-linejoin="round"/>
<path d="M185.229 373.388C185.228 372.78 185.292 372.17 185.454 371.588" stroke="#1E212B" stroke-width="0.5" stroke-miterlimit="10" stroke-linecap="round" stroke-linejoin="round"/>
<path d="M186.512 378.654C186.512 378.654 185.599 376.795 185.312 374.612" stroke="#1E212B" stroke-width="0.5" stroke-miterlimit="10" stroke-linecap="round" stroke-linejoin="round"/>
<path d="M241.24 12.3676L236.634 14.6169C236.444 14.7101 236.213 14.6311 236.121 14.4405C236.028 14.25 236.107 14.0193 236.297 13.9264L240.246 11.9985C238.883 11.499 237.542 11.0465 236.23 10.6394L231.366 13.2394C231.179 13.3397 230.947 13.2691 230.846 13.0818C230.747 12.8944 230.821 12.6627 231.004 12.5618L235.194 10.3217C233.531 9.82803 231.928 9.40721 230.398 9.04353C230.384 9.05132 230.373 9.06118 230.358 9.06691L226.011 10.8404C225.814 10.9208 225.591 10.8261 225.51 10.6303C225.43 10.4344 225.527 10.2085 225.72 10.1296L229.109 8.74685C225.267 7.8928 221.986 7.42409 219.643 7.16815C221.597 8.97344 227.283 14.0431 231.5 15.9582C236.042 18.0209 243.458 14.8111 245.192 14.0012C243.864 13.41 242.545 12.865 241.24 12.3676Z" fill="#446622"/>
<path d="M227.253 7.57246L225.31 5.75581C225.155 5.61125 225.147 5.36795 225.292 5.21274C225.435 5.0558 225.68 5.05004 225.835 5.1946L228.61 7.78868C228.633 7.81012 228.646 7.83699 228.663 7.86241C230.437 8.24415 232.339 8.70923 234.327 9.27247L232.162 5.57692C232.054 5.39458 232.115 5.15802 232.299 5.05134C232.483 4.94409 232.718 5.00541 232.825 5.18868L235.283 9.38454C235.316 9.4408 235.328 9.50119 235.33 9.56215C237.091 10.0828 238.914 10.6851 240.774 11.3736L238.44 7.34899C238.334 7.16537 238.396 6.93256 238.58 6.82364C238.763 6.71713 238.998 6.78011 239.105 6.96338L241.811 11.6311C241.838 11.6783 241.854 11.7305 241.86 11.7845C242.998 12.2242 244.149 12.6997 245.305 13.2094C244.382 11.1952 240.948 4.81537 234.002 3.58165C226.695 2.28359 220.555 5.56831 219.221 6.35213C221.213 6.55655 223.977 6.92199 227.253 7.57246Z" fill="#446622"/>
<path d="M255.482 61.8834L249.371 59.2362C249.118 59.1265 248.823 59.233 248.714 59.4741C248.604 59.7151 248.721 60.0001 248.973 60.1095L254.212 62.3784C252.471 63.0489 250.754 63.66 249.074 64.2136L242.609 61.1377C242.36 61.019 242.062 61.1152 241.943 61.3523C241.824 61.5896 241.934 61.8762 242.177 61.9958L247.747 64.6458C245.616 65.3195 243.558 65.9002 241.592 66.4071C241.574 66.3978 241.558 66.3859 241.539 66.3793L235.792 64.3168C235.532 64.2234 235.247 64.3492 235.154 64.5964C235.061 64.8436 235.2 65.1221 235.456 65.2139L239.935 66.8219C234.995 68.0208 230.762 68.7194 227.733 69.12C230.168 66.7995 237.26 60.2762 242.626 57.7403C248.407 55.009 258.221 58.7573 260.52 59.7079C258.829 60.4916 257.147 61.2174 255.482 61.8834Z" fill="#446622"/>
<path d="M237.593 68.3517L235.174 70.6859C234.981 70.8717 234.984 71.1756 235.182 71.3642C235.376 71.5551 235.695 71.5538 235.888 71.368L239.342 68.0349C239.371 68.0073 239.387 67.9733 239.407 67.941C241.689 67.4032 244.132 66.7569 246.681 65.9852L244.082 70.6717C243.952 70.903 244.045 71.1961 244.29 71.3228C244.535 71.4503 244.836 71.3656 244.965 71.1332L247.917 65.8122C247.956 65.7409 247.968 65.6651 247.967 65.5889C250.224 64.8782 252.557 64.0635 254.933 63.1399L252.133 68.2428C252.006 68.4756 252.1 68.764 252.345 68.8936C252.589 69.0201 252.89 68.9334 253.019 68.701L256.264 62.7827C256.297 62.7228 256.315 62.657 256.319 62.5895C257.772 62.0014 259.239 61.3682 260.711 60.6921C259.628 63.2374 255.535 71.3175 246.586 73.0977C237.172 74.9708 229.01 71.0847 227.233 70.1529C229.807 69.8287 233.376 69.2769 237.593 68.3517Z" fill="#446622"/>
<path d="M292.321 148.335H308.75" stroke="#1E212B" stroke-linecap="round" stroke-linejoin="round"/>
<path d="M273.473 148.335H290.158" stroke="#1E212B" stroke-linecap="round" stroke-linejoin="round"/>
<path d="M264.588 148.335H269.717" stroke="#1E212B" stroke-linecap="round" stroke-linejoin="round"/>
<path d="M278.079 157.257H308.684" stroke="#1E212B" stroke-linecap="round" stroke-linejoin="round"/>
<path d="M269.717 157.257H273.473" stroke="#1E212B" stroke-linecap="round" stroke-linejoin="round"/>
<path d="M291.778 166.179H308.619" stroke="#1E212B" stroke-linecap="round" stroke-linejoin="round"/>
<path d="M274.845 166.179H289.283" stroke="#1E212B" stroke-linecap="round" stroke-linejoin="round"/>
<path d="M289.468 175.1H308.554" stroke="#1E212B" stroke-linecap="round" stroke-linejoin="round"/>
<path d="M279.973 175.1H286.759" stroke="#1E212B" stroke-linecap="round" stroke-linejoin="round"/>
<path d="M345.6 175.426H297.765L300.165 148H347.999L345.6 175.426Z" fill="white" stroke="#1E212B" stroke-miterlimit="10" stroke-linecap="round" stroke-linejoin="round"/>
<path d="M347.999 148H300.165" stroke="#1E212B" stroke-miterlimit="10" stroke-linecap="round" stroke-linejoin="round"/>
<path d="M345.6 175.425H297.763L314.115 159.899L322.424 166.983L332.148 159.765L345.6 175.425Z" fill="white" stroke="#1E212B" stroke-miterlimit="10" stroke-linecap="round" stroke-linejoin="round"/>
<path d="M348 148L332.148 159.765L322.424 166.983L314.115 159.899L300.163 148H348Z" fill="white" stroke="#1E212B" stroke-miterlimit="10" stroke-linecap="round" stroke-linejoin="round"/>
<path d="M260.008 148.335H248" stroke="#1E212B" stroke-linecap="round" stroke-linejoin="round"/>
</svg>
