<svg width="480" height="482" viewBox="0 0 480 482" fill="none" xmlns="http://www.w3.org/2000/svg">
<path d="M472.88 239.787C467.779 282.986 448.055 333.213 408.661 356.287C349.14 391.157 354.123 444.788 237.945 468.104C219.832 471.741 202.642 473.272 186.433 472.969C177.72 472.808 169.285 472.105 161.15 470.908C87.312 460.122 37.622 408.797 19.392 346.842C-4.59799 265.36 43.304 212.016 75.055 179.876C106.806 147.736 130.061 47.592 244.091 23.774C261.478 20.15 279.258 18.301 297.033 18.744C337.604 19.74 381.857 33.062 412.478 60.868C414.777 62.957 417.013 65.124 419.193 67.356C461.753 111.04 479.838 180.893 472.88 239.787Z" fill="#446622"/>
<path opacity="0.7" d="M472.88 239.787C467.779 282.986 448.055 333.213 408.661 356.287C349.14 391.157 354.123 444.788 237.945 468.104C219.832 471.741 202.642 473.272 186.433 472.969C177.72 472.808 169.285 472.105 161.15 470.908C87.312 460.122 37.622 408.797 19.392 346.842C-4.59799 265.36 43.304 212.016 75.055 179.876C106.806 147.736 130.061 47.592 244.091 23.774C261.478 20.15 279.258 18.301 297.033 18.744C337.604 19.74 381.857 33.062 412.478 60.868C414.777 62.957 417.013 65.124 419.193 67.356C461.753 111.04 479.838 180.893 472.88 239.787Z" fill="white"/>
<path d="M340.287 467.002H479.475" stroke="#1E212B" stroke-miterlimit="10" stroke-linecap="round" stroke-linejoin="round"/>
<path d="M19.8069 467.002H331.174" stroke="#1E212B" stroke-miterlimit="10" stroke-linecap="round" stroke-linejoin="round"/>
<path d="M27.9831 260.622C27.9831 260.622 24.5521 270.058 17.2611 271.344C9.97012 272.631 -2.89688 258.478 5.25212 251.186C13.4011 243.896 24.5521 255.476 27.9831 260.622Z" fill="#446622" stroke="#1E212B" stroke-miterlimit="10" stroke-linecap="round" stroke-linejoin="round"/>
<path d="M39.1342 214.303C39.1342 214.303 28.4122 240.465 32.7012 253.332C36.9902 266.199 63.5812 275.634 71.3012 258.908C79.0212 242.181 61.8652 218.593 55.4322 213.446C48.9982 208.298 41.2782 210.014 39.1342 214.303Z" fill="#446622" stroke="#1E212B" stroke-miterlimit="10" stroke-linecap="round" stroke-linejoin="round"/>
<path d="M101.752 225.454C101.752 225.454 83.3102 242.181 81.1652 258.907C79.0202 275.634 91.4582 281.638 104.325 279.494C117.192 277.349 123.625 244.754 119.765 229.743C115.905 214.731 101.752 225.454 101.752 225.454Z" fill="#446622" stroke="#1E212B" stroke-miterlimit="10" stroke-linecap="round" stroke-linejoin="round"/>
<path d="M105.183 318.094C105.183 318.094 84.596 318.952 83.739 328.816C82.881 338.681 92.746 340.825 102.61 332.247C112.474 323.669 113.76 318.522 105.183 318.094Z" fill="#446622" stroke="#1E212B" stroke-miterlimit="10" stroke-linecap="round" stroke-linejoin="round"/>
<path d="M84.0789 331.167C84.0789 331.167 100.304 323.744 107.61 322.455" stroke="#1E212B" stroke-miterlimit="10"/>
<path d="M109.772 382.64C109.772 382.64 94.65 368.644 87.05 374.99C79.449 381.336 84.883 389.844 97.92 390.792C110.958 391.742 115.515 389.026 109.772 382.64Z" fill="#446622" stroke="#1E212B" stroke-miterlimit="10" stroke-linecap="round" stroke-linejoin="round"/>
<path d="M85.6221 376.889C85.6221 376.889 102.324 383.163 108.39 387.436" stroke="#1E212B" stroke-miterlimit="10"/>
<path d="M30.0062 378.518C30.0062 378.518 50.8512 359.225 61.3292 367.973C71.8072 376.721 64.3172 388.449 46.3442 389.756C28.3722 391.065 22.0892 387.321 30.0062 378.518Z" fill="#446622" stroke="#1E212B" stroke-miterlimit="10" stroke-linecap="round" stroke-linejoin="round"/>
<path d="M63.2961 370.591C63.2961 370.591 40.2721 379.239 31.9111 385.129" stroke="#1E212B" stroke-miterlimit="10"/>
<path d="M54.145 338.68C54.145 338.68 52.001 348.973 44.281 352.833C36.561 356.693 22.836 348.544 30.128 336.106C37.418 323.669 50.285 333.533 54.145 338.68Z" fill="#446622" stroke="#1E212B" stroke-miterlimit="10" stroke-linecap="round" stroke-linejoin="round"/>
<path d="M36.1321 306.514C36.1321 306.514 32.2721 297.936 17.2611 303.512C2.25007 309.088 -3.75493 317.665 5.68107 320.667C15.1161 323.669 36.1321 306.514 36.1321 306.514Z" fill="#446622" stroke="#1E212B" stroke-miterlimit="10" stroke-linecap="round" stroke-linejoin="round"/>
<path d="M33.257 306.123C33.257 306.123 17.355 307.842 8.75903 315.148" stroke="#1E212B" stroke-miterlimit="10"/>
<path d="M79.021 203.58C79.021 203.58 81.594 209.584 86.741 208.298C91.887 207.012 93.174 199.291 101.323 201.436C109.472 203.581 116.334 213.016 116.334 208.727C116.334 204.438 106.041 193.287 94.461 193.287C82.881 193.287 79.449 198.005 79.021 203.58Z" fill="#446622" stroke="#1E212B" stroke-miterlimit="10" stroke-linecap="round" stroke-linejoin="round"/>
<path d="M36.1321 306.514C36.1321 306.514 54.6001 302.969 62.2901 323.477C63.0451 325.489 63.6821 327.594 64.2181 329.753" stroke="#1E212B" stroke-miterlimit="10"/>
<path d="M113.205 286.647C113.205 286.647 117.065 278.069 132.076 283.645C147.087 289.221 153.091 297.799 143.656 300.8C134.221 303.802 113.205 286.647 113.205 286.647Z" fill="#446622" stroke="#1E212B" stroke-miterlimit="10" stroke-linecap="round" stroke-linejoin="round"/>
<path d="M116.635 287.212C116.635 287.212 132.107 286.352 139.413 295.378" stroke="#1E212B" stroke-miterlimit="10"/>
<path d="M113.205 286.647C113.205 286.647 107.083 285.472 100.421 288.389" stroke="#1E212B" stroke-miterlimit="10"/>
<path d="M45.9761 271.261C36.9241 262.018 27.9821 260.623 27.9821 260.623C27.9821 260.623 14.7761 257.128 9.61914 261.856" stroke="#1E212B" stroke-miterlimit="10"/>
<path d="M47.8132 223.751L47.0112 220.166" stroke="#1E212B" stroke-miterlimit="10"/>
<path d="M68.6981 413.358C68.6981 413.358 70.6211 339.498 68.6981 317.068C66.7751 294.638 57.8031 268.362 57.8031 268.362L48.6631 227.549" stroke="#1E212B" stroke-miterlimit="10"/>
<path d="M106.817 239.609L108.469 236.068" stroke="#1E212B" stroke-miterlimit="10"/>
<path d="M73.1841 413.276C73.1841 413.276 73.8251 345.906 76.3891 326.68C78.9521 307.454 89.2061 277.333 89.2061 277.333L104.942 243.624" stroke="#1E212B" stroke-miterlimit="10"/>
<path d="M84.079 331.167C84.079 331.167 79.593 369.791 77.03 413.37" stroke="#1E212B" stroke-miterlimit="10"/>
<path d="M62.2901 413.276C62.2901 413.276 63.5721 351.674 61.0081 343.343C58.4451 335.012 54.1451 338.68 54.1451 338.68C54.1451 338.68 42.2831 340.075 37.9851 346.952" stroke="#1E212B" stroke-miterlimit="10"/>
<path d="M65.2341 334.551C68.5871 353.338 65.4941 413.34 65.4941 413.34" stroke="#1E212B" stroke-miterlimit="10"/>
<path d="M96.7881 290.403C93.0761 292.944 89.5091 297.044 87.0471 303.609C79.3571 324.117 80.2341 413.369 80.2341 413.369" stroke="#1E212B" stroke-miterlimit="10"/>
<path d="M48.208 273.706C52.214 278.41 56.099 284.771 59.085 293.355C69.339 322.835 73.184 399.177 71.262 413.276" stroke="#1E212B" stroke-miterlimit="10"/>
<path d="M74.2501 301.295C73.6261 338.501 73.1841 413.277 73.1841 413.277" stroke="#1E212B" stroke-miterlimit="10"/>
<path d="M74.3291 296.665C74.7521 272.063 75.2501 247.986 75.7481 235.036C77.0301 201.711 79.0211 203.58 79.0211 203.58C79.0211 203.58 81.3941 196.098 94.7171 196.957" stroke="#1E212B" stroke-miterlimit="10"/>
<path d="M57.9172 324.76C57.9172 324.76 47.1952 315.198 51.4842 310.496C55.7732 305.794 82.3642 302.345 90.0842 308.458C97.8042 314.571 80.6481 323.192 74.2151 325.073C67.7811 326.955 60.0612 326.328 57.9172 324.76Z" fill="#446622" stroke="#1E212B" stroke-miterlimit="10" stroke-linecap="round" stroke-linejoin="round"/>
<path d="M67.8191 316.931C67.6691 317.899 67.5811 318.861 67.5811 319.786" stroke="#1E212B" stroke-miterlimit="10"/>
<path d="M71.5052 305.769C71.5052 305.769 69.9102 308.96 68.7532 312.871" stroke="#1E212B" stroke-miterlimit="10"/>
<path d="M57.9172 387.277C57.9172 387.277 47.1952 377.715 51.4842 373.013C55.7732 368.311 82.3642 364.862 90.0842 370.975C97.8042 377.088 80.6481 385.709 74.2151 387.59C67.7811 389.471 60.0612 388.845 57.9172 387.277Z" fill="#446622" stroke="#1E212B" stroke-miterlimit="10" stroke-linecap="round" stroke-linejoin="round"/>
<path d="M71.5051 368.285C71.5051 368.285 67.5801 376.135 67.5801 382.302" stroke="#1E212B" stroke-miterlimit="10"/>
<path d="M65.8991 360.837C65.8991 360.837 58.6191 354.345 61.5311 351.152C64.4431 347.959 82.4971 345.618 87.7391 349.769C92.9811 353.92 81.3331 359.773 76.9651 361.05C72.5961 362.327 67.3551 361.901 65.8991 360.837Z" fill="#446622" stroke="#1E212B" stroke-miterlimit="10" stroke-linecap="round" stroke-linejoin="round"/>
<path d="M75.125 347.943C75.125 347.943 72.46 353.273 72.46 357.46" stroke="#1E212B" stroke-miterlimit="10"/>
<path d="M84.8531 402.642H55.8281V467.001H84.8531V402.642Z" fill="white" stroke="#1E212B" stroke-miterlimit="10" stroke-linecap="round" stroke-linejoin="round"/>
<path d="M244.027 308.043H119.532C117.625 308.043 116.079 306.497 116.079 304.59V236.102C116.079 234.965 117.001 234.043 118.138 234.043H245.421C246.558 234.043 247.48 234.965 247.48 236.102V304.59C247.48 306.497 245.934 308.043 244.027 308.043Z" fill="#1E212B" stroke="#1E212B" stroke-miterlimit="10" stroke-linecap="round" stroke-linejoin="round"/>
<path d="M247.48 246.114H116.08V236.103C116.08 234.966 117.002 234.044 118.139 234.044H245.422C246.559 234.044 247.481 234.966 247.481 236.103V246.114H247.48Z" fill="#1E212B" stroke="#1E212B" stroke-miterlimit="10" stroke-linecap="round" stroke-linejoin="round"/>
<path d="M220.578 242.931C222.054 242.931 223.251 241.734 223.251 240.258C223.251 238.782 222.054 237.585 220.578 237.585C219.102 237.585 217.905 238.782 217.905 240.258C217.905 241.734 219.102 242.931 220.578 242.931Z" fill="#1E212B" stroke="#1E212B" stroke-miterlimit="10" stroke-linecap="round" stroke-linejoin="round"/>
<path d="M229.043 242.931C230.519 242.931 231.716 241.734 231.716 240.258C231.716 238.782 230.519 237.585 229.043 237.585C227.567 237.585 226.37 238.782 226.37 240.258C226.37 241.734 227.567 242.931 229.043 242.931Z" fill="#1E212B" stroke="#1E212B" stroke-miterlimit="10" stroke-linecap="round" stroke-linejoin="round"/>
<path d="M237.508 242.931C238.984 242.931 240.181 241.734 240.181 240.258C240.181 238.782 238.984 237.585 237.508 237.585C236.032 237.585 234.835 238.782 234.835 240.258C234.835 241.734 236.032 242.931 237.508 242.931Z" fill="#1E212B" stroke="#1E212B" stroke-miterlimit="10" stroke-linecap="round" stroke-linejoin="round"/>
<path d="M157.158 257.648H130.175V283.432H157.158V257.648Z" fill="#1E212B" stroke="#1E212B" stroke-miterlimit="10"/>
<path d="M166.152 260.646H236.908" stroke="#1E212B" stroke-miterlimit="10"/>
<path d="M166.152 269.04H236.908" stroke="#1E212B" stroke-miterlimit="10"/>
<path d="M166.152 277.435H236.908" stroke="#1E212B" stroke-miterlimit="10"/>
<path d="M166.152 285.83H236.908" stroke="#1E212B" stroke-miterlimit="10"/>
<path d="M240.859 303.292H116.365C114.458 303.292 112.912 301.746 112.912 299.839V231.351C112.912 230.214 113.834 229.292 114.971 229.292H242.254C243.391 229.292 244.313 230.214 244.313 231.351V299.839C244.313 301.746 242.766 303.292 240.859 303.292Z" fill="white" stroke="#1E212B" stroke-miterlimit="10" stroke-linecap="round" stroke-linejoin="round"/>
<path d="M244.313 241.363H112.913V231.352C112.913 230.215 113.835 229.293 114.972 229.293H242.255C243.392 229.293 244.314 230.215 244.314 231.352V241.363H244.313Z" fill="#446622" stroke="#1E212B" stroke-miterlimit="10" stroke-linecap="round" stroke-linejoin="round"/>
<path d="M217.41 238.181C218.886 238.181 220.083 236.984 220.083 235.508C220.083 234.032 218.886 232.835 217.41 232.835C215.934 232.835 214.737 234.032 214.737 235.508C214.737 236.984 215.934 238.181 217.41 238.181Z" fill="white" stroke="#1E212B" stroke-miterlimit="10" stroke-linecap="round" stroke-linejoin="round"/>
<path d="M225.876 238.181C227.352 238.181 228.549 236.984 228.549 235.508C228.549 234.032 227.352 232.835 225.876 232.835C224.4 232.835 223.203 234.032 223.203 235.508C223.203 236.984 224.4 238.181 225.876 238.181Z" fill="white" stroke="#1E212B" stroke-miterlimit="10" stroke-linecap="round" stroke-linejoin="round"/>
<path d="M234.341 238.181C235.817 238.181 237.014 236.984 237.014 235.508C237.014 234.032 235.817 232.835 234.341 232.835C232.865 232.835 231.668 234.032 231.668 235.508C231.668 236.984 232.865 238.181 234.341 238.181Z" fill="white" stroke="#1E212B" stroke-miterlimit="10" stroke-linecap="round" stroke-linejoin="round"/>
<path d="M153.991 252.897H127.008V278.681H153.991V252.897Z" stroke="#1E212B" stroke-miterlimit="10"/>
<path d="M162.985 255.895H233.741" stroke="#1E212B" stroke-miterlimit="10"/>
<path d="M162.985 264.29H233.741" stroke="#1E212B" stroke-miterlimit="10"/>
<path d="M162.985 272.684H233.741" stroke="#1E212B" stroke-miterlimit="10"/>
<path d="M162.985 281.079H233.741" stroke="#1E212B" stroke-miterlimit="10"/>
<path d="M359.817 295H268.74C266.326 295 264.368 292.461 264.368 289.327V186.811C264.368 183.679 266.325 181.14 268.74 181.14H359.817C362.231 181.14 364.189 183.679 364.189 186.811V289.327C364.188 292.461 362.231 295 359.817 295Z" fill="#1E212B" stroke="#1E212B" stroke-miterlimit="10" stroke-linecap="round" stroke-linejoin="round"/>
<path d="M356.65 288.836H265.573C263.159 288.836 261.202 286.296 261.202 283.163V180.647C261.202 177.514 263.159 174.974 265.573 174.974H356.65C359.064 174.974 361.022 177.513 361.022 180.647V283.163C361.021 286.296 359.064 288.836 356.65 288.836Z" fill="white" stroke="#1E212B" stroke-miterlimit="10" stroke-linecap="round" stroke-linejoin="round"/>
<path d="M283.112 220.564H273.907V275.804H283.112V220.564Z" fill="#1E212B" stroke="#1E212B" stroke-miterlimit="10" stroke-linecap="round" stroke-linejoin="round"/>
<path d="M296.153 229.522H286.948V275.804H296.153V229.522Z" fill="#446622" stroke="#1E212B" stroke-miterlimit="10" stroke-linecap="round" stroke-linejoin="round"/>
<path d="M309.193 236.986H299.988V275.804H309.193V236.986Z" fill="white" stroke="#1E212B" stroke-miterlimit="10" stroke-linecap="round" stroke-linejoin="round"/>
<path d="M322.234 214.095H313.029V275.804H322.234V214.095Z" fill="#1E212B" stroke="#1E212B" stroke-miterlimit="10" stroke-linecap="round" stroke-linejoin="round"/>
<path d="M335.275 221.559H326.07V275.804H335.275V221.559Z" fill="#446622" stroke="#1E212B" stroke-miterlimit="10" stroke-linecap="round" stroke-linejoin="round"/>
<path d="M348.315 195.682H339.11V275.804H348.315V195.682Z" fill="white" stroke="#1E212B" stroke-miterlimit="10" stroke-linecap="round" stroke-linejoin="round"/>
<path d="M274.53 189.922H283.736" stroke="#1E212B" stroke-miterlimit="10"/>
<path d="M274.53 194.9H283.736" stroke="#1E212B" stroke-miterlimit="10"/>
<path d="M274.53 199.877H283.736" stroke="#1E212B" stroke-miterlimit="10"/>
<path d="M286.804 189.922H324.008" stroke="#1E212B" stroke-miterlimit="10"/>
<path d="M286.804 194.9H324.008" stroke="#1E212B" stroke-miterlimit="10"/>
<path d="M286.804 199.877H324.008" stroke="#1E212B" stroke-miterlimit="10"/>
<path d="M359.817 163.51H268.74C266.326 163.51 264.368 161.553 264.368 159.138V80.127C264.368 77.713 266.325 75.756 268.74 75.756H359.817C362.231 75.756 364.189 77.713 364.189 80.127V159.138C364.188 161.553 362.231 163.51 359.817 163.51Z" fill="#1E212B" stroke="#1E212B" stroke-miterlimit="10" stroke-linecap="round" stroke-linejoin="round"/>
<path d="M356.65 158.76H265.573C263.159 158.76 261.202 156.803 261.202 154.388V75.377C261.202 72.963 263.159 71.005 265.573 71.005H356.65C359.064 71.005 361.022 72.962 361.022 75.377V154.388C361.021 156.802 359.064 158.76 356.65 158.76Z" fill="white" stroke="#1E212B" stroke-miterlimit="10" stroke-linecap="round" stroke-linejoin="round"/>
<path d="M308.666 141.072C324.13 141.072 336.665 128.536 336.665 113.073C336.665 97.6096 324.13 85.074 308.666 85.074C293.203 85.074 280.667 97.6096 280.667 113.073C280.667 128.536 293.203 141.072 308.666 141.072Z" fill="white" stroke="#1E212B" stroke-miterlimit="10" stroke-linecap="round" stroke-linejoin="round"/>
<path d="M335.842 106.325C334.659 101.543 332.201 97.012 328.464 93.275C317.53 82.341 299.802 82.341 288.867 93.275L308.665 113.073L335.842 106.325Z" fill="#1E212B" stroke="#1E212B" stroke-miterlimit="10" stroke-linecap="round" stroke-linejoin="round"/>
<path d="M335.842 106.325L308.666 113.073L300.581 139.882C310.134 142.754 320.917 140.418 328.465 132.871C335.662 125.674 338.12 115.534 335.842 106.325Z" fill="#446622" stroke="#1E212B" stroke-miterlimit="10" stroke-linecap="round" stroke-linejoin="round"/>
<path d="M319.789 95.43L328.994 83.54H334.747" stroke="#1E212B" stroke-miterlimit="10"/>
<path d="M340.117 83.924H349.322" stroke="#1E212B" stroke-miterlimit="10"/>
<path d="M340.117 87.759H349.322" stroke="#1E212B" stroke-miterlimit="10"/>
<path d="M340.117 91.594H349.322" stroke="#1E212B" stroke-miterlimit="10"/>
<path d="M340.117 133.785H349.322" stroke="#1E212B" stroke-miterlimit="10"/>
<path d="M340.117 137.62H349.322" stroke="#1E212B" stroke-miterlimit="10"/>
<path d="M340.117 141.456H349.322" stroke="#1E212B" stroke-miterlimit="10"/>
<path d="M268.777 133.018H277.982" stroke="#1E212B" stroke-miterlimit="10"/>
<path d="M268.777 136.853H277.982" stroke="#1E212B" stroke-miterlimit="10"/>
<path d="M268.777 140.689H277.982" stroke="#1E212B" stroke-miterlimit="10"/>
<path d="M292.941 131.867L289.489 140.689H280.284" stroke="#1E212B" stroke-miterlimit="10"/>
<path d="M330.145 121.128H345.487V126.114" stroke="#1E212B" stroke-miterlimit="10"/>
<path d="M240.059 163.837H148.982C146.568 163.837 144.61 161.88 144.61 159.465V80.454C144.61 78.04 146.567 76.082 148.982 76.082H240.059C242.473 76.082 244.431 78.039 244.431 80.454V159.465C244.43 161.88 242.473 163.837 240.059 163.837Z" fill="#1E212B" stroke="#1E212B" stroke-miterlimit="10" stroke-linecap="round" stroke-linejoin="round"/>
<path d="M235.827 158.76H144.75C142.336 158.76 140.378 156.803 140.378 154.388V75.377C140.378 72.963 142.335 71.005 144.75 71.005H235.827C238.241 71.005 240.199 72.962 240.199 75.377V154.388C240.199 156.802 238.242 158.76 235.827 158.76Z" fill="white" stroke="#1E212B" stroke-miterlimit="10" stroke-linecap="round" stroke-linejoin="round"/>
<path d="M150.738 142.145V145.533" stroke="#1E212B" stroke-miterlimit="10"/>
<path d="M158.868 142.145V145.533" stroke="#1E212B" stroke-miterlimit="10"/>
<path d="M166.998 142.145V145.533" stroke="#1E212B" stroke-miterlimit="10"/>
<path d="M175.128 142.145V145.533" stroke="#1E212B" stroke-miterlimit="10"/>
<path d="M183.257 142.145V145.533" stroke="#1E212B" stroke-miterlimit="10"/>
<path d="M191.387 142.145V145.533" stroke="#1E212B" stroke-miterlimit="10"/>
<path d="M199.517 142.145V145.533" stroke="#1E212B" stroke-miterlimit="10"/>
<path d="M207.646 142.145V145.533" stroke="#1E212B" stroke-miterlimit="10"/>
<path d="M215.776 142.145V145.533" stroke="#1E212B" stroke-miterlimit="10"/>
<path d="M223.906 142.145V145.533" stroke="#1E212B" stroke-miterlimit="10"/>
<path d="M232.035 142.145V145.533" stroke="#1E212B" stroke-miterlimit="10"/>
<path d="M228.648 94.722L219.841 99.465L212.727 85.238L203.581 97.093L195.452 89.98L187.661 81.173L179.531 90.657L171.402 113.691L162.594 105.223L153.787 111.659V132.999H228.648V94.722Z" fill="#99BB44" stroke="#1E212B" stroke-miterlimit="10" stroke-linecap="round" stroke-linejoin="round"/>
<path d="M153.99 80.982H163.195" stroke="#1E212B" stroke-miterlimit="10"/>
<path d="M153.99 84.818H163.195" stroke="#1E212B" stroke-miterlimit="10"/>
<path d="M153.99 88.653H163.195" stroke="#1E212B" stroke-miterlimit="10"/>
<path d="M228.648 113.478L219.841 116.74L212.727 100.916L203.581 111.998L195.452 109.288L187.661 126.225L179.531 103.529L171.402 126.225L162.594 117.756L153.787 128.935V137.064H228.648V113.478Z" fill="#1E212B" stroke="#1E212B" stroke-miterlimit="10" stroke-linecap="round" stroke-linejoin="round"/>
<path d="M408.003 119.541C408.003 119.541 404.682 110.764 395.194 111.713C385.706 112.662 381.436 120.252 383.096 125.234C384.756 130.215 385.705 131.876 385.705 131.876C385.705 131.876 382.621 130.453 383.57 135.434C384.519 140.415 391.635 139.467 392.821 138.992C394.008 138.518 399.227 125.234 408.003 119.541Z" fill="#1E212B" stroke="#1E212B" stroke-miterlimit="10" stroke-linecap="round" stroke-linejoin="round"/>
<path d="M347.583 204.665L330.743 213.085C329.401 213.756 329.355 215.654 330.663 216.389L375.594 241.662C376.371 242.099 377.349 241.927 377.93 241.251L388.48 228.975C389.253 228.076 389.005 226.694 387.968 226.119L349.328 204.701C348.787 204.403 348.134 204.389 347.583 204.665Z" fill="#1E212B" stroke="#1E212B" stroke-miterlimit="10" stroke-linecap="round" stroke-linejoin="round"/>
<path d="M388.646 219.836L381.559 215.241C381.559 215.241 376.254 209.293 374.257 208.283C372.26 207.274 358.902 209.68 358.902 209.68L388.282 226.3L388.646 219.836Z" fill="white" stroke="#1E212B" stroke-miterlimit="10" stroke-linecap="round" stroke-linejoin="round"/>
<path d="M374.171 212.578C374.171 212.578 368.952 212.815 365.731 211.44C362.509 210.066 360.663 210.71 362.338 213.416C364.013 216.122 369.232 215.885 369.232 215.885C369.232 215.885 373.785 221.426 379.304 219.256" fill="white"/>
<path d="M374.171 212.578C374.171 212.578 368.952 212.815 365.731 211.44C362.509 210.066 360.663 210.71 362.338 213.416C364.013 216.122 369.232 215.885 369.232 215.885C369.232 215.885 373.785 221.426 379.304 219.256" stroke="#1E212B" stroke-miterlimit="10" stroke-linecap="round" stroke-linejoin="round"/>
<path d="M446.001 451.429C446.001 451.429 448.977 462.838 448.729 464.822C448.481 466.806 442.28 468.542 438.808 468.542C435.336 468.542 428.391 469.782 428.391 469.782L428.639 451.428L446.001 451.429Z" fill="white" stroke="#1E212B" stroke-miterlimit="10" stroke-linecap="round" stroke-linejoin="round"/>
<path d="M448.729 464.822C448.792 464.322 448.649 463.223 448.401 461.86C446.352 462.949 443.542 464.285 440.792 465.07C436.574 466.275 430.57 466.342 428.438 466.323L428.391 469.782C428.391 469.782 435.336 468.542 438.808 468.542C442.281 468.542 448.481 466.806 448.729 464.822Z" fill="white" stroke="#1E212B" stroke-miterlimit="10" stroke-linecap="round" stroke-linejoin="round"/>
<path d="M424.919 341.804C424.919 341.804 428.143 368.838 429.383 374.047C430.623 379.255 436.824 388.184 439.304 402.073C441.784 415.962 446.497 448.205 446.497 448.949C446.497 449.693 446.993 451.925 447.241 453.413C447.241 453.413 441.785 455.645 437.816 455.149C433.848 454.653 430.375 453.661 430.375 453.661C430.375 453.661 432.111 442.996 428.391 423.899C424.671 404.802 420.95 384.96 418.718 371.071C416.486 357.182 424.919 341.804 424.919 341.804Z" fill="#999999" stroke="#1E212B" stroke-miterlimit="10" stroke-linecap="round" stroke-linejoin="round"/>
<path d="M412.27 448.453C412.27 448.453 410.782 450.933 406.566 454.654C402.35 458.374 394.413 462.343 392.181 463.335C389.949 464.327 388.213 464.327 388.709 466.559C389.205 468.791 392.925 470.527 404.086 470.527C415.247 470.527 427.152 470.031 428.392 469.783C429.632 469.535 433.352 469.535 433.352 466.807C433.352 464.079 432.112 453.166 432.112 453.166L412.27 448.453Z" fill="white" stroke="#1E212B" stroke-miterlimit="10" stroke-linecap="round" stroke-linejoin="round"/>
<path d="M428.392 469.783C429.632 469.535 433.352 469.535 433.352 466.807C433.352 466.406 433.325 465.825 433.279 465.132C429.034 465.686 419.409 466.879 408.55 467.8C398.991 468.61 392.205 466.989 388.634 465.765C388.622 465.996 388.64 466.253 388.708 466.56C389.204 468.792 392.924 470.528 404.085 470.528C415.247 470.526 427.152 470.03 428.392 469.783Z" fill="white" stroke="#1E212B" stroke-miterlimit="10" stroke-linecap="round" stroke-linejoin="round"/>
<path d="M385.98 284.76C385.98 284.76 385.732 304.354 388.46 326.427C391.188 348.501 399.125 375.287 399.125 375.287C399.125 375.287 403.093 396.865 404.333 404.305C405.573 411.746 412.022 441.012 412.022 441.012L409.294 444.732L409.79 451.18C409.79 451.18 412.022 451.676 419.711 453.412C427.4 455.148 432.112 454.9 432.112 454.9C432.112 454.9 432.608 442.003 432.36 440.267C432.112 438.531 430.624 430.346 430.376 427.618C430.128 424.89 430.872 394.631 429.136 387.687C427.4 380.742 424.424 370.574 424.424 361.645C424.424 352.716 431.121 309.065 431.121 309.065C431.121 309.065 438.314 298.896 438.314 292.944C438.314 286.991 437.57 284.015 437.57 284.015L385.98 284.76Z" fill="#BDBDBD" stroke="#1E212B" stroke-miterlimit="10" stroke-linecap="round" stroke-linejoin="round"/>
<path d="M421.143 432.61C421.696 438.09 421.939 441.737 421.939 441.737C421.939 441.737 420.345 442.534 421.142 445.324C421.939 448.114 422.338 450.107 422.338 450.107" stroke="#1E212B" stroke-width="0.75" stroke-miterlimit="10" stroke-linecap="round" stroke-linejoin="round"/>
<path d="M405.12 312.974C404.505 322.869 404.38 336.363 406.395 350.468C410.381 378.367 417.156 403.476 419.149 416.628C419.749 420.589 420.241 424.441 420.635 427.891" stroke="#1E212B" stroke-width="0.75" stroke-miterlimit="10" stroke-linecap="round" stroke-linejoin="round"/>
<path d="M406.794 297.062C406.794 297.062 406.04 301.449 405.442 308.573" stroke="#1E212B" stroke-width="0.75" stroke-miterlimit="10" stroke-linecap="round" stroke-linejoin="round"/>
<path d="M433.859 127.606C433.859 127.606 436.943 115.271 455.445 116.694C473.947 118.117 473.71 134.959 473.71 134.959L469.677 133.061C469.677 133.061 472.998 142.787 469.203 149.903C465.408 157.019 455.682 161.052 449.277 159.866C442.872 158.68 435.993 152.75 435.044 149.429C434.096 146.109 437.654 134.485 433.859 127.606Z" fill="#1E212B" stroke="#1E212B" stroke-miterlimit="10" stroke-linecap="round" stroke-linejoin="round"/>
<path d="M397.092 126.183C397.092 126.183 395.669 128.555 392.822 133.537C389.976 138.518 391.162 143.025 389.264 145.397C387.366 147.769 382.148 147.532 382.859 149.904C383.571 152.276 386.654 153.937 386.654 153.937C386.654 153.937 386.654 167.221 388.077 168.881C389.5 170.541 400.412 167.695 400.412 167.695C400.412 167.695 402.547 171.016 401.124 178.369C399.701 185.723 386.892 206.122 385.231 216.322C383.571 226.522 389.263 251.903 389.263 251.903L383.807 288.907C383.807 288.907 397.565 294.126 413.932 292.702C430.299 291.279 440.262 287.958 440.262 287.958L429.35 245.023C429.35 245.023 430.299 214.66 428.164 197.819C426.029 180.977 420.573 176.945 420.573 170.777C420.573 164.61 428.401 161.289 433.382 155.358C435.65 152.658 441.684 142.311 435.754 129.502C431.867 121.107 419.387 117.879 410.847 117.642C402.31 117.406 397.092 126.183 397.092 126.183Z" fill="white" stroke="#1E212B" stroke-miterlimit="10" stroke-linecap="round" stroke-linejoin="round"/>
<path d="M400.413 167.694L405.614 166.528L402.372 173.012C402.372 173.012 401.696 169.671 400.413 167.694Z" fill="#1E212B" stroke="#1E212B" stroke-miterlimit="10" stroke-linecap="round" stroke-linejoin="round"/>
<path d="M440.264 287.959L429.352 245.024C429.352 245.024 430.301 214.661 428.166 197.82C427.598 193.34 426.795 189.773 425.922 186.825C422.433 184.107 417.047 180.688 411.561 180.266C405.193 179.776 398.826 187.153 395.475 191.8C391.303 200.281 386.234 210.161 385.231 216.322C383.571 226.522 389.264 251.903 389.264 251.903L383.808 288.907C383.808 288.907 397.566 294.126 413.933 292.702C430.301 291.28 440.264 287.959 440.264 287.959Z" fill="#446622" stroke="#1E212B" stroke-miterlimit="10" stroke-linecap="round" stroke-linejoin="round"/>
<path d="M410.85 117.644C402.311 117.407 397.092 126.183 397.092 126.183C397.092 126.183 396.348 127.423 394.869 129.978C396.349 128.22 401.731 122.446 403.971 128.555C405.278 132.118 402.073 137.095 403.734 138.755C405.395 140.415 408.715 144.211 408.241 144.922C407.767 145.634 407.529 147.294 407.529 147.294C407.529 147.294 411.799 141.127 415.12 144.922C418.441 148.717 413.934 155.834 413.934 155.834L411.088 156.783C411.088 156.783 420.339 167.22 421.999 167.22C422.456 167.22 423.656 163.657 425.794 162.95C428.251 160.622 430.314 159.015 433.385 155.359C435.653 152.659 441.687 142.313 435.757 129.503C431.87 121.109 419.389 117.881 410.85 117.644Z" fill="#1E212B" stroke="#1E212B" stroke-miterlimit="10" stroke-linecap="round" stroke-linejoin="round"/>
<path d="M394.699 144.765C394.439 145.982 393.812 146.88 393.3 146.77C392.788 146.66 392.583 145.585 392.843 144.368C393.103 143.151 393.73 142.253 394.242 142.363C394.754 142.473 394.959 143.548 394.699 144.765Z" fill="#1E212B"/>
<path d="M392.822 138.992C392.822 138.992 395.431 136.146 397.092 139.704" stroke="#1E212B" stroke-miterlimit="10" stroke-linecap="round" stroke-linejoin="round"/>
<path d="M388.552 156.783C388.552 156.783 389.026 157.732 391.636 156.783" stroke="#1E212B" stroke-miterlimit="10" stroke-linecap="round" stroke-linejoin="round"/>
<path d="M404.208 193.076C404.208 193.076 400.65 198.057 399.227 207.308C397.804 216.559 398.99 246.684 398.99 246.684C398.99 246.684 378.827 240.991 372.185 237.67C365.543 234.349 363.408 232.926 363.408 232.926C363.408 232.926 361.273 227.945 359.613 226.047C357.952 224.149 353.446 223.675 351.785 222.489C350.125 221.303 348.939 217.508 346.804 218.931C344.669 220.354 345.618 222.252 346.567 222.964C347.516 223.676 351.074 227.234 351.074 227.234L342.06 223.201C342.06 223.201 341.348 226.759 342.534 227.945C343.72 229.131 346.092 231.266 346.092 231.266C346.092 231.266 349.65 236.247 351.785 237.433C353.92 238.619 357.715 239.568 358.427 239.805C360.554 240.515 362.69 242.326 364.589 243.479C368.621 245.929 372.646 248.39 376.684 250.83C382.798 254.524 389.592 257.727 396.457 260.139C400.776 261.657 411.347 266.297 415.098 261.645C416.716 259.631 416.221 253.674 416.642 251.148C419.292 235.24 422.711 219.231 422.711 203.037" fill="#446622"/>
<path d="M404.208 193.076C404.208 193.076 400.65 198.057 399.227 207.308C397.804 216.559 398.99 246.684 398.99 246.684C398.99 246.684 378.827 240.991 372.185 237.67C365.543 234.349 363.408 232.926 363.408 232.926C363.408 232.926 361.273 227.945 359.613 226.047C357.952 224.149 353.446 223.675 351.785 222.489C350.125 221.303 348.939 217.508 346.804 218.931C344.669 220.354 345.618 222.252 346.567 222.964C347.516 223.676 351.074 227.234 351.074 227.234L342.06 223.201C342.06 223.201 341.348 226.759 342.534 227.945C343.72 229.131 346.092 231.266 346.092 231.266C346.092 231.266 349.65 236.247 351.785 237.433C353.92 238.619 357.715 239.568 358.427 239.805C360.554 240.515 362.69 242.326 364.589 243.479C368.621 245.929 372.646 248.39 376.684 250.83C382.798 254.524 389.592 257.727 396.457 260.139C400.776 261.657 411.347 266.297 415.098 261.645C416.716 259.631 416.221 253.674 416.642 251.148C419.292 235.24 422.711 219.231 422.711 203.037" stroke="#1E212B" stroke-miterlimit="10" stroke-linecap="round" stroke-linejoin="round"/>
<path d="M391.8 244.569C385.331 242.609 376.241 239.699 372.185 237.671C365.543 234.35 363.408 232.927 363.408 232.927C363.408 232.927 361.273 227.946 359.613 226.048C357.952 224.15 353.446 223.676 351.785 222.49C350.125 221.304 348.939 217.509 346.804 218.932C344.669 220.355 345.618 222.253 346.567 222.965C347.516 223.677 351.074 227.235 351.074 227.235L342.06 223.202C342.06 223.202 341.348 226.76 342.534 227.946C343.72 229.132 346.092 231.267 346.092 231.267C346.092 231.267 349.65 236.248 351.785 237.434C353.92 238.62 357.715 239.569 358.427 239.806C360.554 240.516 362.69 242.327 364.589 243.48C368.621 245.93 372.646 248.391 376.684 250.831C380.497 253.135 384.575 255.247 388.769 257.097L391.8 244.569Z" fill="white" stroke="#1E212B" stroke-miterlimit="10" stroke-linecap="round" stroke-linejoin="round"/>
<path d="M405.868 253.564L398.99 246.684L400.887 253.089" stroke="#1E212B" stroke-miterlimit="10" stroke-linecap="round" stroke-linejoin="round"/>
<path d="M103.09 350C103.09 350 98.804 375.719 93.198 399.459C87.593 423.199 89.241 456.172 89.241 456.172C89.241 456.172 86.274 462.437 88.911 465.405C91.549 468.372 95.835 467.383 96.824 467.383C97.813 467.383 104.737 467.053 104.737 467.053C104.737 467.053 110.013 435.729 111.991 407.372C113.969 379.015 112.321 335.821 110.342 337.469C108.364 339.118 104.077 347.691 104.077 347.691L103.09 350Z" fill="#1E212B" stroke="#1E212B" stroke-miterlimit="10" stroke-linecap="round" stroke-linejoin="round"/>
<path d="M89.571 266.579C89.571 266.579 85.614 289.66 86.603 296.255C87.592 302.85 90.23 311.093 90.23 311.093C90.23 311.093 99.133 350.661 100.122 353.628C101.111 356.596 100.122 391.877 98.144 407.374C96.166 422.871 99.463 433.093 100.122 438.039C100.782 442.985 100.452 459.142 100.452 459.142L99.793 468.374C99.793 468.374 104.409 470.023 112.652 470.023C120.895 470.023 138.371 471.012 138.371 471.012C138.371 471.012 148.922 470.682 147.933 466.066C146.944 461.45 135.074 459.142 131.776 456.174C128.479 453.207 126.171 450.569 126.171 450.569C126.171 450.569 126.501 447.272 125.841 445.623C125.181 443.974 122.544 443.974 122.873 441.666C123.203 439.358 128.808 386.931 133.095 373.412C137.381 359.893 140.679 304.499 140.349 294.936C140.019 285.374 138.041 270.866 138.041 270.866L89.571 266.579Z" fill="#1E212B" stroke="#1E212B" stroke-miterlimit="10" stroke-linecap="round" stroke-linejoin="round"/>
<path d="M92.999 176.576C92.999 176.576 83.265 197.262 81.845 211.458C80.425 225.654 88.132 260.942 88.132 260.942C88.132 260.942 85.09 269.865 87.321 271.285C89.552 272.705 139.238 275.341 139.238 275.341C139.238 275.341 142.28 274.935 142.28 272.299C142.28 269.663 141.469 267.837 141.063 265.607C140.657 263.376 141.671 217.746 137.21 207.606C132.748 197.466 123.622 185.095 123.622 185.095L92.999 176.576Z" fill="#D4D4D4" stroke="#1E212B" stroke-miterlimit="10" stroke-linecap="round" stroke-linejoin="round"/>
<path d="M101.775 260.382C107.29 253.117 115.572 241.953 121.448 232.895" stroke="#1E212B" stroke-miterlimit="10" stroke-linecap="round" stroke-linejoin="round"/>
<path d="M95.9399 267.968C95.9399 267.968 97.0369 266.57 98.8269 264.241" stroke="#1E212B" stroke-miterlimit="10" stroke-linecap="round" stroke-linejoin="round"/>
<path d="M120.651 228.511C120.651 228.511 101.52 241.663 99.1289 242.46" stroke="#1E212B" stroke-miterlimit="10" stroke-linecap="round" stroke-linejoin="round"/>
<path d="M134.573 121.008C134.573 121.008 137.818 110.26 138.426 107.015C139.034 103.77 140.657 100.728 140.657 100.728V108.637C140.657 108.637 143.091 105.798 145.727 102.35C148.363 98.902 150.797 99.105 149.783 102.756C148.769 106.407 146.133 110.463 145.93 111.071C145.727 111.679 144.713 116.141 143.496 118.777C142.279 121.413 139.237 124.861 139.237 124.861L134.573 121.008Z" fill="white" stroke="#1E212B" stroke-miterlimit="10" stroke-linecap="round" stroke-linejoin="round"/>
<path d="M121.391 129.12L134.573 121.008C134.573 121.008 138.223 120.602 139.237 124.861C140.251 129.12 139.643 126.686 139.643 126.686L129.3 141.288L121.391 129.12Z" fill="white" stroke="#1E212B" stroke-miterlimit="10" stroke-linecap="round" stroke-linejoin="round"/>
<path d="M119.566 123.847C119.566 123.847 109.629 113.504 107.195 114.315C104.761 115.126 105.978 119.385 105.978 119.385C105.978 119.385 100.097 117.154 99.894 118.777C99.691 120.399 99.691 120.399 99.691 120.399C99.691 120.399 89.145 126.686 86.306 133.378C83.467 140.07 83.061 146.56 86.306 150.21C89.551 153.86 97.46 166.84 97.46 166.84L97.663 173.127L117.74 178.197L119.565 169.679C119.565 169.679 129.097 169.679 129.908 168.259C130.719 166.839 131.125 151.224 131.125 151.224L135.384 145.951C135.384 145.951 127.678 137.028 126.461 134.391C125.245 131.757 122 126.889 119.566 123.847Z" fill="white" stroke="#1E212B" stroke-miterlimit="10" stroke-linecap="round" stroke-linejoin="round"/>
<path d="M129.899 155.178C129.899 155.178 128.954 156.439 126.433 153.918" stroke="#1E212B" stroke-miterlimit="10" stroke-linecap="round" stroke-linejoin="round"/>
<path d="M119.566 123.847C119.566 123.847 109.629 113.504 107.195 114.315C104.761 115.126 105.978 119.385 105.978 119.385C105.978 119.385 100.097 117.154 99.894 118.777C99.691 120.399 99.691 120.399 99.691 120.399C99.691 120.399 89.145 126.686 86.306 133.378C83.467 140.07 83.061 146.56 86.306 150.21C88.814 153.032 94.107 161.424 96.382 165.09C97.769 165.238 99.179 165.25 100.502 165.014C106.18 164 110.034 157.51 110.034 157.51C110.034 157.51 106.181 156.293 105.978 151.223C105.775 146.153 109.02 145.139 109.02 145.139C109.02 145.139 111.859 148.384 114.293 146.964C116.727 145.544 111.251 142.908 110.44 140.88C109.629 138.852 111.657 136.013 112.062 134.593C112.467 133.173 108.209 133.579 106.586 132.768C104.964 131.957 113.684 127.901 115.509 126.684C117.334 125.467 113.481 126.278 111.25 125.062C109.021 123.847 119.566 123.847 119.566 123.847Z" fill="#1E212B" stroke="#1E212B" stroke-miterlimit="10" stroke-linecap="round" stroke-linejoin="round"/>
<path d="M125.192 139.259C125.586 140.367 125.52 141.402 125.046 141.571C124.572 141.74 123.867 140.979 123.473 139.87C123.079 138.762 123.144 137.727 123.619 137.558C124.094 137.389 124.798 138.15 125.192 139.259Z" fill="#1E212B"/>
<path d="M120.58 136.015C120.58 136.015 121.391 130.337 125.042 132.77" stroke="#1E212B" stroke-miterlimit="10" stroke-linecap="round" stroke-linejoin="round"/>
<path d="M110.035 157.512L113.888 156.498L114.902 159.54" stroke="#1E212B" stroke-miterlimit="10" stroke-linecap="round" stroke-linejoin="round"/>
<path d="M92.3911 169.275C92.9991 169.275 124.636 179.212 124.636 179.212L125.244 188.541L91.5791 178.401L92.3911 169.275Z" fill="#D4D4D4" stroke="#1E212B" stroke-miterlimit="10" stroke-linecap="round" stroke-linejoin="round"/>
<path d="M98.2721 214.094C98.2721 214.094 135.993 230.521 146.336 231.535C156.679 232.549 203.526 183.877 203.526 183.877L198.05 176.779C198.05 176.779 159.721 196.451 155.056 198.073C150.392 199.695 111.657 187.325 108.817 186.716C105.978 186.108 99.6911 187.122 97.2571 190.366" fill="#D4D4D4"/>
<path d="M98.2721 214.094C98.2721 214.094 135.993 230.521 146.336 231.535C156.679 232.549 203.526 183.877 203.526 183.877L198.05 176.779C198.05 176.779 159.721 196.451 155.056 198.073C150.392 199.695 111.657 187.325 108.817 186.716C105.978 186.108 99.6911 187.122 97.2571 190.366" stroke="#1E212B" stroke-miterlimit="10" stroke-linecap="round" stroke-linejoin="round"/>
<path d="M110.44 219.367L95.636 220.583" stroke="#1E212B" stroke-miterlimit="10" stroke-linecap="round" stroke-linejoin="round"/>
<path d="M193.386 180.226L199.47 187.73" stroke="#1E212B" stroke-miterlimit="10" stroke-linecap="round" stroke-linejoin="round"/>
<path d="M198.05 176.778L203.728 168.869C203.728 168.869 205.756 162.785 206.162 161.568C206.568 160.351 210.421 157.715 211.638 156.092C212.855 154.47 214.072 150.819 215.288 151.833C216.505 152.847 216.302 155.078 215.896 156.092C215.49 157.106 213.462 159.337 213.26 160.351C213.057 161.365 225.428 158.12 225.428 158.12C225.428 158.12 227.456 158.728 226.848 160.351C226.24 161.973 224.212 164.61 224.212 164.61C224.212 164.61 221.778 172.316 219.953 174.142C218.128 175.967 209.61 178.401 209.61 178.401L203.526 183.877L198.05 176.778Z" fill="white" stroke="#1E212B" stroke-miterlimit="10" stroke-linecap="round" stroke-linejoin="round"/>
<path d="M327.077 380.209C327.077 380.209 328.748 375.056 328.951 374.373C329.153 373.691 330.727 375.282 331.691 374.896C332.655 374.511 332.908 373.368 332.4 373.169C331.893 372.971 330.777 374.179 330.574 373.449C330.37 372.719 332.399 371.671 333.262 371.734C334.124 371.797 336.511 373.44 337.373 373.674C338.236 373.908 339.25 372.678 338.488 371.995C337.727 371.312 336.306 371.682 335.241 371.573C334.175 371.465 334.326 370.343 333.768 370.176C333.21 370.01 332.855 370.23 332.398 370.343C331.942 370.456 332.601 369.318 332.601 369.318C332.601 369.318 334.579 368.601 333.564 367.904C332.549 367.208 332.194 367.643 332.549 367.208C332.904 366.773 333.513 366.823 333.715 366.268C333.918 365.713 334.019 365.779 333.765 365.337C333.511 364.895 335.236 364.422 335.642 363.613C336.047 362.803 335.742 361.836 335.437 360.741C335.132 359.646 334.98 360.083 335.233 358.64C335.486 357.198 335.89 355.361 335.028 355.34C334.165 355.32 333.556 355.185 333.151 357.279C332.747 359.373 332.392 359.594 332.392 359.594C332.392 359.594 331.428 359.551 331.276 360.288C331.124 361.025 330.922 362.822 331.075 363.37C331.227 363.917 329.553 363.503 329.198 364.109C328.843 364.715 329.452 365.279 329.605 365.826C329.757 366.374 329.707 366.877 329.504 367.089C329.301 367.301 329.25 367.718 329.251 367.975C329.251 368.231 328.743 366.92 328.287 367.803C327.83 368.687 328.186 369.794 328.186 369.794L328.187 370.436C328.187 370.436 327.68 370.966 327.883 371.653C328.086 372.341 328.544 373.812 328.544 373.812L326.721 379.745L326.366 379.88L327.077 380.209Z" fill="#99BB44" stroke="#1E212B" stroke-miterlimit="10"/>
<path d="M321.231 363.111C321.231 363.111 319.048 361.77 318.033 361.202C317.017 360.635 316.154 359.801 316.255 359.481C316.357 359.16 317.22 359.48 317.22 359.48C317.22 359.48 317.271 359.706 316.458 358.926C315.646 358.146 314.834 357.709 315.392 357.704C315.95 357.7 317.067 358.247 317.574 358.66C318.082 359.073 318.133 359.212 318.64 359.582C319.148 359.951 318.843 358.727 317.523 357.921C316.203 357.114 315.138 357.22 314.832 355.996C314.527 354.772 315.441 355.317 315.948 355.73C316.456 356.143 316.761 356.339 316.405 355.403C316.049 354.468 316.607 354.463 317.115 355.175C317.623 355.888 317.623 356.402 317.877 357.057C318.132 357.713 316.962 353.6 317.673 354.657C318.384 355.714 318.384 356.057 318.537 356.733C318.69 357.409 318.944 358.622 319.147 359.052C319.351 359.483 319.402 359.837 319.554 359.87C319.706 359.904 320.213 359.117 320.212 357.661C320.211 356.205 319.652 355.353 320.465 356.047C321.277 356.742 321.684 358.159 321.633 358.491C321.583 358.822 322.09 358.678 322.395 359.302C322.7 359.926 322.7 360.183 322.294 360.564C321.889 360.945 321.685 360.771 321.533 361.252C321.382 361.732 321.432 361.957 321.432 361.957C321.432 361.957 322.092 362.403 322.042 362.563C321.991 362.723 321.941 363.14 322.144 364.042C322.348 364.944 323.11 366.697 323.364 366.539C323.617 366.381 324.074 366.354 324.073 364.684C324.072 363.014 324.173 362.094 324.63 362.41C325.087 362.725 325.087 362.64 325.391 361.936C325.695 361.233 326.304 361.754 325.949 363.174C325.595 364.594 325.596 365.322 325.089 365.852C324.581 366.381 324.683 366.789 324.227 367.031C323.77 367.272 323.516 367.301 323.516 367.301C323.516 367.301 324.939 370.914 325.143 371.559C325.346 372.203 326.263 377.802 326.263 377.802C326.263 377.802 326.366 379.752 326.366 379.88C326.366 380.009 325.706 379.948 325.706 379.948C325.706 379.948 325.857 377.969 325.704 376.907C325.551 375.846 324.787 370.923 323.923 369.19C323.059 367.457 322.856 366.941 322.856 366.941C322.856 366.941 323.262 367.202 319.709 365.3C316.156 363.398 314.43 361.731 314.43 361.302C314.429 360.874 317.17 361.183 317.932 362.38C318.693 363.576 318.846 364.038 319.049 363.955C319.252 363.872 318.591 362.44 319.505 363.543C320.419 364.645 320.572 364.893 320.775 365.109C320.978 365.325 320.369 365.062 320.978 365.325C321.587 365.589 322.298 366.175 322.298 366.175L321.231 363.111Z" fill="#99BB44" stroke="#1E212B" stroke-miterlimit="10"/>
<path d="M325.144 373.486C325.144 373.486 324.027 372.167 322.758 371.158C321.489 370.148 319.052 369.051 318.139 368.42C317.225 367.789 317.529 367.642 318.139 367.82C318.748 367.998 319.408 368.616 319.509 368.338C319.61 368.061 318.24 367.072 319.508 367.396C320.777 367.72 321.691 368.009 321.691 368.737C321.692 369.465 321.539 369.602 321.844 369.884C322.149 370.166 322.149 370.551 322.453 370.405C322.758 370.258 322.148 368.71 323.061 369.426C323.975 370.143 324.128 370.519 323.874 371.063C323.621 371.606 323.976 371.899 323.976 371.899L325.144 372.971C325.144 372.972 325.347 373.274 325.144 373.486Z" fill="#99BB44" stroke="#1E212B" stroke-miterlimit="10"/>
<path d="M324.876 350.432C324.876 350.432 324.316 348.039 324.165 349.633C324.014 351.226 324.877 352.445 325.081 353.304C325.284 354.163 325.488 354.422 325.336 354.688C325.184 354.954 324.066 352.65 323.914 353.73C323.763 354.81 323.813 355.206 324.22 356.068C324.627 356.928 325.236 357.92 325.084 358.015C324.932 358.11 323.002 355.712 323.307 357.064C323.613 358.416 324.121 359 324.831 359.586C325.542 360.172 326.101 360.853 326.101 360.853C326.101 360.853 326.558 360.825 326.558 361.254C326.558 361.682 326.966 364.342 326.763 364.297C326.56 364.252 325.493 362.088 323.969 360.594C322.446 359.099 320.618 356.895 320.315 358.455C320.011 360.015 322.651 362.228 323.211 364.022C323.77 365.816 322.602 364.872 323.415 365.951C324.227 367.031 325.597 366.521 325.547 367.324C325.497 368.126 324.989 368.356 325.446 368.671C325.903 368.987 326.41 368.843 326.563 369.219C326.715 369.595 326.563 370.118 326.665 370.483C326.767 370.849 326.921 372.852 326.921 373.58C326.922 374.308 326.367 379.88 326.367 379.88L327.078 380.209C327.078 380.209 327.176 375.221 327.277 374.387C327.378 373.553 327.428 372.066 328.391 371.68C329.355 371.295 333.719 371.664 334.886 371.623C336.053 371.582 337.372 370.548 336.053 370.469C334.733 370.39 333.668 370.71 333.16 370.64C332.653 370.571 335.342 369.455 334.073 368.788C332.804 368.12 332.702 368.74 331.993 369.482C331.283 370.224 331.841 370.348 331.029 370.424C330.217 370.501 330.674 369.703 329.963 369.888C329.253 370.073 328.999 370.188 328.746 370.56C328.492 370.932 328.492 370.932 328.188 371.164C327.884 371.396 327.427 371.937 327.427 371.937C327.427 371.937 327.474 365.91 327.474 365.781C327.474 365.653 329.908 363.795 331.075 363.369C332.242 362.943 333.511 362.668 333.815 361.751C334.118 360.833 334.321 360.065 333.154 360.619C331.987 361.174 332.039 361.87 331.43 361.949C330.821 362.028 331.53 360.216 330.211 360.78C328.892 361.343 328.943 362.082 328.741 362.551C328.538 363.02 327.928 361.001 327.725 361.384C327.522 361.767 327.675 362.957 327.676 363.599C327.676 364.242 327.321 364.934 327.321 364.934L327.065 361.109C327.065 361.109 330.059 360.403 330.514 358.877C330.97 357.351 330.411 355.9 330.056 356.592C329.702 357.284 329.144 358.487 328.789 358.023C328.433 357.559 330.004 354.739 329.243 354.399C328.482 354.058 327.823 355.411 327.67 354.992C327.518 354.572 328.126 353.894 327.872 352.981C327.618 352.068 326.765 352.773 326.553 352.474C326.045 351.762 326.146 350.671 325.993 350.552C325.84 350.432 324.876 350.432 324.876 350.432Z" fill="#99BB44" stroke="#1E212B" stroke-miterlimit="10"/>
<path d="M328.194 380.757C328.194 380.757 326.214 379.375 324.59 379.828C322.967 380.282 322.765 382.635 322.969 384.222C323.173 385.808 323.277 388.786 323.278 391.312C323.28 393.839 323.636 396.102 323.636 396.102C323.636 396.102 323.943 398.867 324.401 400.853C324.858 402.839 325.723 405.171 325.926 405.474C326.129 405.775 326.586 406.305 326.839 405.933C327.093 405.561 328.663 401.114 328.662 399.872C328.661 398.63 329.369 393.863 329.317 392.225C329.265 390.586 329.466 386.391 329.466 386.391C329.466 386.391 329.819 383.901 329.362 382.772C328.904 381.642 328.194 380.757 328.194 380.757Z" fill="white" stroke="#1E212B" stroke-miterlimit="10"/>
<path d="M323.579 385.599C323.579 385.599 324.492 385.502 325.71 385.772L323.579 385.599Z" fill="white"/>
<path d="M323.579 385.599C323.579 385.599 324.492 385.502 325.71 385.772" stroke="#1E212B" stroke-miterlimit="10"/>
<path d="M329.265 390.243C329.265 390.243 328.402 389.581 327.235 389.407L329.265 390.243Z" fill="white"/>
<path d="M329.265 390.243C329.265 390.243 328.402 389.581 327.235 389.407" stroke="#1E212B" stroke-miterlimit="10"/>
<path d="M325.426 395.484C325.783 395.545 326.173 395.648 326.58 395.813L325.426 395.484Z" fill="white"/>
<path d="M325.426 395.484C325.783 395.545 326.173 395.648 326.58 395.813" stroke="#1E212B" stroke-miterlimit="10"/>
<path d="M323.585 395.491C323.585 395.491 324.176 395.345 325.043 395.432L323.585 395.491Z" fill="white"/>
<path d="M323.585 395.491C323.585 395.491 324.176 395.345 325.043 395.432" stroke="#1E212B" stroke-miterlimit="10"/>
<path d="M328.662 399.872C328.662 399.872 327.596 399.079 326.581 398.854L328.662 399.872Z" fill="white"/>
<path d="M328.662 399.872C328.662 399.872 327.596 399.079 326.581 398.854" stroke="#1E212B" stroke-miterlimit="10"/>
<path d="M325.098 382.11C325.339 382.171 325.609 382.249 325.911 382.348L325.098 382.11Z" fill="white"/>
<path d="M325.098 382.11C325.339 382.171 325.609 382.249 325.911 382.348" stroke="#1E212B" stroke-miterlimit="10"/>
<path d="M323.12 382.114C323.12 382.114 323.294 381.877 324.085 381.935L323.12 382.114Z" fill="white"/>
<path d="M323.12 382.114C323.12 382.114 323.294 381.877 324.085 381.935" stroke="#1E212B" stroke-miterlimit="10"/>
<path d="M325.902 402.576C326.14 402.582 326.431 402.62 326.787 402.71L325.902 402.576Z" fill="white"/>
<path d="M325.902 402.576C326.14 402.582 326.431 402.62 326.787 402.71" stroke="#1E212B" stroke-miterlimit="10"/>
<path d="M324.96 402.818C324.96 402.818 325.073 402.688 325.39 402.618L324.96 402.818Z" fill="white"/>
<path d="M324.96 402.818C324.96 402.818 325.073 402.688 325.39 402.618" stroke="#1E212B" stroke-miterlimit="10"/>
<path d="M337.767 383.639C337.767 383.639 336.167 382.738 334.998 383.039C333.83 383.341 333.521 383.615 333.521 383.615C333.521 383.615 332.053 382.944 330.841 383.981C329.629 385.017 329.009 386.187 328.351 389.091C327.693 391.995 328.934 395.15 329.013 395.738C329.091 396.325 328.868 397.375 329.759 398.48C330.65 399.585 332.642 400.989 334.246 401.268C335.851 401.546 337.25 401.195 337.25 401.195C337.25 401.195 339.382 400.773 340.579 399.17C341.776 397.566 346.782 393.784 346.72 390.705C346.658 387.626 344.751 386.998 344.751 386.998C344.751 386.998 343.081 385.075 341.745 384.636C340.409 384.196 339.211 384.176 339.211 384.176L337.767 383.639Z" fill="#99BB44" stroke="#1E212B" stroke-miterlimit="10" stroke-linecap="round" stroke-linejoin="round"/>
<path opacity="0.53" d="M343.221 389.517C343.221 389.517 342.88 387.956 341.282 388.545C339.685 389.133 340.428 390.269 340.124 391.505C339.82 392.742 342.175 391.067 342.455 391.716C342.735 392.365 343.306 391.069 343.221 389.517Z" fill="white"/>
<path opacity="0.53" d="M337.24 387.437C337.24 387.437 335.424 386.839 335.145 387.639C334.866 388.438 334.816 390.761 335.68 390.823C336.545 390.884 337.748 389.61 337.913 388.773C338.079 387.936 337.24 387.437 337.24 387.437Z" fill="white"/>
<path d="M340.05 387.261C340.05 387.261 339.716 385.778 339.469 383.638C339.223 381.497 338.87 380.07 337.73 379.882C336.59 379.694 336.263 380.835 336.572 381.373C336.88 381.912 337.193 381.016 337.413 381.4C337.634 381.785 337.742 382.695 337.767 383.639C337.792 384.584 336.933 386.236 336.933 386.236L338.842 387.675L340.05 387.261Z" fill="#1E212B" stroke="#1E212B" stroke-miterlimit="10" stroke-linecap="round" stroke-linejoin="round"/>
<path d="M339.729 398.508C339.447 398.814 339.218 399.06 339.068 399.234" stroke="#1E212B" stroke-miterlimit="10" stroke-linecap="round" stroke-linejoin="round"/>
<path d="M343.564 393.781C342.678 395.164 341.529 396.519 340.59 397.565" stroke="#1E212B" stroke-miterlimit="10" stroke-linecap="round" stroke-linejoin="round"/>
<path d="M340.05 387.261C340.05 387.261 341.894 387.057 343.137 387.966C344.296 388.813 345.172 390.654 344.059 392.926" stroke="#1E212B" stroke-miterlimit="10" stroke-linecap="round" stroke-linejoin="round"/>
<path d="M330.095 392.786C329.826 393.557 329.662 394.079 329.662 394.079" stroke="#1E212B" stroke-miterlimit="10" stroke-linecap="round" stroke-linejoin="round"/>
<path d="M336.106 385.964C336.106 385.964 334.619 385.349 333.118 386.603C332.204 387.366 331.122 389.971 330.415 391.892" stroke="#1E212B" stroke-miterlimit="10" stroke-linecap="round" stroke-linejoin="round"/>
<path d="M334.118 383.936C334.118 383.936 334.881 384.188 335.494 385.076" stroke="#1E212B" stroke-miterlimit="10" stroke-linecap="round" stroke-linejoin="round"/>
<path d="M344.227 387.076C344.227 387.076 343.132 386.965 342.232 387.105" stroke="#1E212B" stroke-miterlimit="10" stroke-linecap="round" stroke-linejoin="round"/>
<path d="M338.862 388.431C338.862 388.431 339.474 389.319 337.52 391.672" stroke="#1E212B" stroke-miterlimit="10" stroke-linecap="round" stroke-linejoin="round"/>
<path d="M312.291 394.059C312.291 394.059 300.241 367.672 300.868 355.549C301.495 343.425 309.359 348.138 311.84 354.147C315.966 364.142 319.189 374.587 322.587 384.836C324.495 390.591 326.486 396.576 328.228 402.48C329.879 408.078 332.548 414.649 330.209 420.437C328.714 424.135 325.131 423.866 322.541 421.434C319.957 419.007 319.058 414.978 317.934 411.751C315.899 405.906 314.048 399.992 312.291 394.059Z" fill="white" stroke="#1E212B" stroke-miterlimit="10" stroke-linecap="round" stroke-linejoin="round"/>
<path d="M311.872 361.727C311.872 361.727 304.502 363.586 303.984 365.3C303.466 367.014 309.175 366.028 311.876 364.323C314.578 362.619 313.581 361.615 311.872 361.727Z" fill="white" stroke="#1E212B" stroke-miterlimit="10" stroke-linecap="round" stroke-linejoin="round"/>
<path d="M315.923 374.304C315.923 374.304 308.553 376.163 308.035 377.877C307.516 379.591 313.226 378.605 315.927 376.9C318.629 375.195 317.632 374.191 315.923 374.304Z" fill="white" stroke="#1E212B" stroke-miterlimit="10" stroke-linecap="round" stroke-linejoin="round"/>
<path d="M319.973 386.88C319.973 386.88 312.603 388.739 312.085 390.452C311.567 392.167 317.277 391.18 319.978 389.476C322.68 387.771 321.682 386.768 319.973 386.88Z" fill="white" stroke="#1E212B" stroke-miterlimit="10" stroke-linecap="round" stroke-linejoin="round"/>
<path d="M324.024 399.456C324.024 399.456 316.654 401.315 316.136 403.029C315.618 404.743 321.327 403.757 324.028 402.053C326.731 400.347 325.733 399.343 324.024 399.456Z" fill="white" stroke="#1E212B" stroke-miterlimit="10" stroke-linecap="round" stroke-linejoin="round"/>
<path d="M300.495 392.143C300.495 392.143 288.931 374.516 287.588 375.381C286.245 376.246 288.49 381.428 288.49 381.428C288.49 381.428 281.132 378.923 279.833 380.396C278.535 381.87 284.242 383.122 284.242 383.122C284.242 383.122 270.392 385.843 270.212 387.691C270.033 389.539 281.71 386.98 281.71 386.98C281.71 386.98 274.728 394.077 274.559 396.077C274.391 398.077 282.369 391.822 282.369 391.822C282.369 391.822 275.148 404.286 279.034 408.427C282.921 412.568 286.664 388.595 286.664 388.595C286.664 388.595 287.454 395.261 288.742 393.636C290.03 392.011 292.429 388.468 292.429 388.468C292.429 388.468 290.464 391.52 292.359 391.837C294.254 392.153 295.286 391.311 295.286 391.311L298.32 394.446L300.495 392.143Z" fill="#446622" stroke="#1E212B" stroke-miterlimit="10" stroke-linecap="round" stroke-linejoin="round"/>
<path d="M303.387 394.96C303.387 394.96 288.672 369.917 288.047 357.802C287.422 345.686 295.736 349.593 298.825 355.323C303.962 364.852 308.249 374.917 312.687 384.772C315.18 390.306 317.779 396.058 320.121 401.756C322.341 407.158 325.675 413.428 323.944 419.414C322.836 423.239 319.242 423.326 316.413 421.164C313.591 419.007 312.279 415.091 310.829 411.994C308.201 406.382 305.748 400.685 303.387 394.96Z" fill="white" stroke="#1E212B" stroke-miterlimit="10" stroke-linecap="round" stroke-linejoin="round"/>
<path d="M299.638 362.855C299.638 362.855 292.493 365.433 292.154 367.189C291.815 368.944 297.397 367.399 299.911 365.436C302.424 363.474 301.327 362.575 299.638 362.855Z" fill="white" stroke="#1E212B" stroke-miterlimit="10" stroke-linecap="round" stroke-linejoin="round"/>
<path d="M304.967 374.958C304.967 374.958 297.821 377.536 297.482 379.292C297.143 381.047 302.725 379.502 305.239 377.539C307.753 375.576 306.656 374.678 304.967 374.958Z" fill="white" stroke="#1E212B" stroke-miterlimit="10" stroke-linecap="round" stroke-linejoin="round"/>
<path d="M310.295 387.061C310.295 387.061 303.149 389.639 302.81 391.394C302.471 393.15 308.053 391.605 310.568 389.643C313.082 387.68 311.984 386.78 310.295 387.061Z" fill="white" stroke="#1E212B" stroke-miterlimit="10" stroke-linecap="round" stroke-linejoin="round"/>
<path d="M315.625 399.164C315.625 399.164 308.479 401.741 308.14 403.497C307.801 405.253 313.383 403.708 315.897 401.744C318.41 399.783 317.314 398.883 315.625 399.164Z" fill="white" stroke="#1E212B" stroke-miterlimit="10" stroke-linecap="round" stroke-linejoin="round"/>
<path d="M305.395 396.576C304.882 396.576 304.447 396.18 304.408 395.659C304.393 395.451 304.033 390.498 304.647 384.392C305.481 376.095 307.641 369.981 311.065 366.219C313.578 363.458 316.747 362.025 320.485 361.957C325.272 361.88 329.255 363.488 332.297 366.766C340.727 375.849 339.117 394.482 339.045 395.27C338.995 395.816 338.514 396.214 337.967 396.167C337.422 396.117 337.021 395.634 337.071 395.089C337.088 394.904 338.67 376.544 330.842 368.113C328.201 365.268 324.731 363.871 320.52 363.94C317.351 363.997 314.663 365.213 312.532 367.552C305.007 375.815 306.37 395.314 306.385 395.51C306.426 396.056 306.016 396.532 305.471 396.573C305.445 396.575 305.42 396.576 305.395 396.576Z" fill="white" stroke="#1E212B" stroke-miterlimit="10"/>
<path d="M293.125 391.284L349.133 391.372C349.133 391.372 358.64 452.662 359.206 457.151C359.771 461.64 362.123 462.949 349.511 464.557C330.619 466.964 306.076 466.626 296.67 464.471C287.263 462.315 285.189 460.563 285.712 457.662C286.234 454.76 293.125 391.284 293.125 391.284Z" fill="#99BB44" stroke="#1E212B" stroke-miterlimit="10" stroke-linecap="round" stroke-linejoin="round"/>
<path d="M322.067 422.62C322.468 422.258 322.874 421.877 323.272 421.488C323.679 421.09 324.079 420.646 324.457 420.169L324.774 419.77L324.449 419.376C324.2 419.075 323.924 418.768 323.628 418.464C323.338 418.167 323.036 417.865 322.721 417.556L321.787 416.64C321.478 416.336 321.181 416.041 320.901 415.761C320.712 415.567 320.529 415.382 320.352 415.205C320.175 415.029 319.998 414.856 319.821 414.686L319.462 414.34L319.019 414.579C318.851 414.669 318.686 414.793 318.527 414.946C318.405 415.064 318.282 415.184 318.16 415.308C318.049 415.42 317.936 415.529 317.819 415.636C317.724 415.723 317.636 415.793 317.555 415.844L316.95 416.231L317.4 416.781C317.598 417.022 317.844 417.291 318.133 417.581L318.284 417.733C317.007 417.709 315.649 417.691 315.431 417.69C313.363 417.689 311.669 418.228 310.44 419.497C309.211 420.767 308.858 422.3 308.858 424.299C308.858 424.761 308.863 425.213 308.842 425.654V426.376C308.863 427.4 308.847 428.48 308.795 429.613C308.743 430.747 308.696 431.846 308.655 432.91C308.696 433.432 308.795 435.228 309.844 436.613C311.235 438.45 313.712 439.022 314.79 439.022H315.322C315.551 439.022 317.585 439.017 317.846 439.007C318.107 438.997 318.3 438.912 318.425 438.751C318.467 438.249 318.483 437.677 318.472 437.035C318.462 436.393 318.477 435.811 318.519 435.288V435.137H318.488C317.862 435.118 315.923 435.03 314.837 434.49C314.052 434.1 313.543 433.668 313.25 433.025C313 432.182 313.115 431.183 313.146 430.26C313.177 429.337 313.182 428.443 313.162 427.581C313.203 427.119 313.25 426.652 313.302 426.18C313.354 425.709 313.432 425.222 313.537 424.72C313.558 424.58 313.583 424.449 313.615 424.328C313.647 424.208 313.685 424.078 313.725 423.937C313.93 423.216 314.131 422.793 314.546 422.378C314.861 422.063 315.428 421.82 315.787 421.745C316.16 421.667 317.265 421.632 318.33 421.608C318.003 421.906 317.672 422.192 317.335 422.455L316.729 422.929L317.307 423.434L317.782 423.873C317.797 423.888 317.814 423.907 317.829 423.924C317.874 423.976 317.945 424.047 318.045 424.134C318.111 424.192 318.198 424.27 318.305 424.368C318.423 424.475 318.58 424.61 318.776 424.773L319.274 425.155L319.715 424.716C320.075 424.359 320.454 424.011 320.843 423.683C321.253 423.337 321.66 422.982 322.064 422.618L322.067 422.62Z" fill="#446622"/>
<path d="M334.847 423.095C334.807 422.563 334.711 420.73 333.695 419.316C332.347 417.442 329.948 416.859 328.903 416.859L328.388 416.859C328.166 416.859 326.196 416.864 325.943 416.874C325.69 416.884 325.503 416.971 325.382 417.135C325.341 417.647 325.326 418.231 325.336 418.886C325.347 419.542 325.331 420.135 325.291 420.668L325.291 420.822L325.321 420.822C325.927 420.843 327.806 420.932 328.858 421.483C329.619 421.881 330.112 422.322 330.395 422.978C330.638 423.838 330.526 424.857 330.496 425.799C330.466 426.741 330.461 427.653 330.481 428.533C330.44 429.004 330.395 429.48 330.345 429.962C330.294 430.443 330.219 430.94 330.117 431.452C330.097 431.595 330.072 431.729 330.041 431.852C330.011 431.975 329.974 432.107 329.935 432.251C329.737 432.987 329.542 433.419 329.14 433.842C328.834 434.163 328.285 434.411 327.937 434.488C327.577 434.568 326.506 434.603 325.474 434.627C325.791 434.324 326.112 434.032 326.438 433.763L327.025 433.28L326.465 432.765L325.998 432.31C325.985 432.297 325.972 432.28 325.959 432.265C325.915 432.211 325.846 432.137 325.751 432.051C325.687 431.991 325.601 431.911 325.498 431.812C325.384 431.703 325.233 431.565 325.042 431.398L324.559 431.008L324.131 431.456C323.784 431.82 323.416 432.175 323.039 432.51C322.642 432.863 322.247 433.225 321.856 433.597C321.46 433.973 321.067 434.362 320.688 434.752C320.293 435.158 319.906 435.611 319.54 436.097L319.233 436.504L319.548 436.906C319.788 437.213 320.056 437.527 320.343 437.837C320.623 438.139 320.917 438.448 321.222 438.764L322.126 439.698C322.426 440.008 322.714 440.309 322.985 440.596C323.168 440.793 323.345 440.982 323.517 441.162C323.689 441.342 323.859 441.519 324.03 441.692L324.377 442.044L324.806 441.802C324.967 441.712 325.128 441.585 325.285 441.427C325.403 441.307 325.522 441.184 325.64 441.057C325.747 440.943 325.856 440.832 325.97 440.723C326.063 440.633 326.148 440.562 326.225 440.511L326.813 440.116L326.376 439.554C326.185 439.309 325.946 439.034 325.665 438.737C325.619 438.688 325.566 438.633 325.519 438.583C326.756 438.606 328.073 438.625 328.283 438.626C330.286 438.627 331.928 438.077 333.118 436.782C334.309 435.487 334.651 433.922 334.651 431.882C334.651 431.411 334.646 430.95 334.666 430.5L334.666 429.763C334.646 428.718 334.662 427.616 334.712 426.46C334.762 425.303 334.808 424.181 334.848 423.096L334.847 423.095Z" fill="#F7F2EE"/>
<path d="M299.175 27.1113L305.402 26.3324C305.402 26.3324 313.663 31.2823 318.504 30.1816C323.345 29.0817 333.342 24.3832 336.023 21.3816C338.704 18.3799 338.554 14.2263 336.761 12.7595C334.968 11.2928 329.319 11.2129 324.656 11.4196C319.993 11.6259 311.749 13.5456 309.268 16.5652C306.788 19.5847 307.327 21.5492 305.367 23.1996C303.409 24.8478 295.038 27.0597 299.175 27.1113Z" fill="#99BB44" stroke="#1E212B" stroke-miterlimit="10" stroke-linecap="round" stroke-linejoin="round"/>
<path d="M330.161 16.4091C334.429 15.6412 334.952 15.0275 334.952 15.0275L330.161 16.4091Z" fill="#99BB44"/>
<path d="M330.161 16.4091C334.429 15.6412 334.952 15.0275 334.952 15.0275" stroke="#1E212B" stroke-width="0.5" stroke-miterlimit="10" stroke-linecap="round" stroke-linejoin="round"/>
<path d="M301.894 25.4352C301.894 25.4352 323.401 17.8491 328.966 16.6342L301.894 25.4352Z" fill="#99BB44"/>
<path d="M301.894 25.4352C301.894 25.4352 323.401 17.8492 328.966 16.6342" stroke="#1E212B" stroke-width="0.5" stroke-miterlimit="10" stroke-linecap="round" stroke-linejoin="round"/>
<path d="M320.009 26.901C322.168 27.0595 323.291 27.0396 323.291 27.0396L320.009 26.901Z" fill="#99BB44"/>
<path d="M320.009 26.901C322.168 27.0595 323.291 27.0396 323.291 27.0396" stroke="#1E212B" stroke-width="0.5" stroke-miterlimit="10" stroke-linecap="round" stroke-linejoin="round"/>
<path d="M307.65 25.0122C307.65 25.0122 309.647 24.0533 310.781 24.0034C311.87 23.9553 316.055 26.3928 318.803 26.7928" fill="#99BB44"/>
<path d="M307.65 25.0122C307.65 25.0122 309.647 24.0533 310.781 24.0034C311.87 23.9553 316.055 26.3928 318.803 26.7928" stroke="#1E212B" stroke-width="0.5" stroke-miterlimit="10" stroke-linecap="round" stroke-linejoin="round"/>
<path d="M324.706 24.8523C324.706 24.8523 320.175 22.6966 318.843 22.1893C317.511 21.6819 316.562 21.3064 316.11 21.415C315.659 21.524 313.218 22.494 313.218 22.494" fill="#99BB44"/>
<path d="M324.706 24.8523C324.706 24.8523 320.175 22.6966 318.843 22.1893C317.511 21.6819 316.562 21.3064 316.11 21.415C315.659 21.524 313.218 22.494 313.218 22.494" stroke="#1E212B" stroke-width="0.5" stroke-miterlimit="10" stroke-linecap="round" stroke-linejoin="round"/>
<path d="M322.773 19.333C322.773 19.333 326.55 21.6708 328.515 22.8209C330.48 23.9718 332.229 23.0405 332.229 23.0405" fill="#99BB44"/>
<path d="M322.773 19.333C322.773 19.333 326.55 21.6708 328.515 22.8209C330.48 23.9718 332.229 23.0405 332.229 23.0405" stroke="#1E212B" stroke-width="0.5" stroke-miterlimit="10" stroke-linecap="round" stroke-linejoin="round"/>
<path d="M333.568 19.4313C333.164 19.4063 332.722 19.3418 332.262 19.2133C330.487 18.7175 328.018 17.7202 328.018 17.7202" fill="#99BB44"/>
<path d="M333.568 19.4313C333.164 19.4063 332.722 19.3418 332.262 19.2133C330.487 18.7175 328.018 17.7202 328.018 17.7202" stroke="#1E212B" stroke-width="0.5" stroke-miterlimit="10" stroke-linecap="round" stroke-linejoin="round"/>
<path d="M335.55 19.25C335.55 19.25 335.342 19.3126 334.99 19.3673L335.55 19.25Z" fill="#99BB44"/>
<path d="M335.55 19.25C335.55 19.25 335.342 19.3126 334.99 19.3673" stroke="#1E212B" stroke-width="0.5" stroke-miterlimit="10" stroke-linecap="round" stroke-linejoin="round"/>
<path d="M316.233 17.1407C316.593 16.4434 317.024 15.7879 317.515 15.3466C319.112 13.9119 321.357 12.9253 321.357 12.9253" fill="#99BB44"/>
<path d="M316.233 17.1407C316.593 16.4434 317.024 15.7879 317.515 15.3466C319.112 13.9119 321.357 12.9253 321.357 12.9253" stroke="#1E212B" stroke-width="0.5" stroke-miterlimit="10" stroke-linecap="round" stroke-linejoin="round"/>
<path d="M314.963 20.4814C314.963 20.4814 315.232 19.4413 315.722 18.2496L314.963 20.4814Z" fill="#99BB44"/>
<path d="M314.963 20.4814C314.963 20.4814 315.232 19.4413 315.722 18.2496" stroke="#1E212B" stroke-width="0.5" stroke-miterlimit="10" stroke-linecap="round" stroke-linejoin="round"/>
<path d="M323.855 14.6378C324.157 14.2735 324.498 13.9389 324.878 13.6692C326.918 12.2233 328.333 11.755 328.333 11.755" fill="#99BB44"/>
<path d="M323.855 14.6378C324.157 14.2735 324.498 13.9389 324.878 13.6692C326.918 12.2233 328.333 11.755 328.333 11.755" stroke="#1E212B" stroke-width="0.5" stroke-miterlimit="10" stroke-linecap="round" stroke-linejoin="round"/>
<path d="M321.97 18.3809C321.97 18.3809 322.347 16.9654 323.186 15.5853L321.97 18.3809Z" fill="#99BB44"/>
<path d="M321.97 18.3809C321.97 18.3809 322.347 16.9654 323.186 15.5853" stroke="#1E212B" stroke-width="0.5" stroke-miterlimit="10" stroke-linecap="round" stroke-linejoin="round"/>
<path d="M311.447 17.1737C311.81 16.687 312.228 16.2376 312.707 15.8683L311.447 17.1737Z" fill="#99BB44"/>
<path d="M311.447 17.1737C311.81 16.687 312.228 16.2376 312.707 15.8683" stroke="#1E212B" stroke-width="0.5" stroke-miterlimit="10" stroke-linecap="round" stroke-linejoin="round"/>
<path d="M309.318 22.1586C309.318 22.1586 309.701 20.1228 310.78 18.204L309.318 22.1586Z" fill="#99BB44"/>
<path d="M309.318 22.1586C309.318 22.1586 309.701 20.1228 310.78 18.204" stroke="#1E212B" stroke-width="0.5" stroke-miterlimit="10" stroke-linecap="round" stroke-linejoin="round"/>
<path d="M279.709 467.959L274.397 464.707C274.397 464.707 269.634 455.686 265.315 453.548C260.997 451.409 251.154 448.902 247.85 449.6C244.545 450.298 243.08 453.659 243.965 455.925C244.849 458.192 249.368 461.761 253.201 464.492C257.035 467.223 264.407 470.829 267.557 469.993C270.707 469.156 271.022 467.276 273.231 467.194C275.436 467.112 283.021 470.566 279.709 467.959Z" fill="#446622" stroke="#1E212B" stroke-miterlimit="10" stroke-linecap="round" stroke-linejoin="round"/>
<path d="M250.672 457.149C246.942 455.105 246.287 455.264 246.287 455.264L250.672 457.149Z" fill="#446622"/>
<path d="M250.672 457.149C246.942 455.105 246.287 455.264 246.287 455.264" stroke="#1E212B" stroke-width="0.5" stroke-miterlimit="10" stroke-linecap="round" stroke-linejoin="round"/>
<path d="M276.88 467.59C276.88 467.59 256.665 460.212 251.72 457.714L276.88 467.59Z" fill="#446622"/>
<path d="M276.88 467.59C276.88 467.59 256.665 460.212 251.72 457.714" stroke="#1E212B" stroke-width="0.5" stroke-miterlimit="10" stroke-linecap="round" stroke-linejoin="round"/>
<path d="M262.851 455.195C261.173 453.73 260.262 453.049 260.262 453.049L262.851 455.195Z" fill="#446622"/>
<path d="M262.851 455.195C261.173 453.73 260.262 453.049 260.262 453.049" stroke="#1E212B" stroke-width="0.5" stroke-miterlimit="10" stroke-linecap="round" stroke-linejoin="round"/>
<path d="M272.084 464.351C272.084 464.351 270.109 463.866 269.177 463.201C268.282 462.564 265.842 458.049 263.781 456.028" fill="#446622"/>
<path d="M272.084 464.351C272.084 464.351 270.109 463.866 269.177 463.201C268.282 462.564 265.842 458.049 263.781 456.028" stroke="#1E212B" stroke-width="0.5" stroke-miterlimit="10" stroke-linecap="round" stroke-linejoin="round"/>
<path d="M258.288 453.892C258.288 453.892 261.113 458.4 261.992 459.626C262.871 460.852 263.493 461.736 263.898 461.931C264.303 462.125 266.639 462.877 266.639 462.877" fill="#446622"/>
<path d="M258.288 453.892C258.288 453.892 261.113 458.4 261.992 459.626C262.871 460.852 263.493 461.736 263.898 461.931C264.303 462.125 266.639 462.877 266.639 462.877" stroke="#1E212B" stroke-width="0.5" stroke-miterlimit="10" stroke-linecap="round" stroke-linejoin="round"/>
<path d="M257.738 459.434C257.738 459.434 255.588 455.251 254.444 453.127C253.302 451.002 251.537 450.649 251.537 450.649" fill="#446622"/>
<path d="M257.738 459.434C257.738 459.434 255.588 455.251 254.444 453.127C253.302 451.002 251.537 450.649 251.537 450.649" stroke="#1E212B" stroke-width="0.5" stroke-miterlimit="10" stroke-linecap="round" stroke-linejoin="round"/>
<path d="M249.082 452.658C249.398 452.928 249.729 453.253 250.051 453.64C251.29 455.131 252.898 457.448 252.898 457.448" fill="#446622"/>
<path d="M249.082 452.658C249.398 452.928 249.729 453.253 250.051 453.64C251.29 455.131 252.898 457.448 252.898 457.448" stroke="#1E212B" stroke-width="0.5" stroke-miterlimit="10" stroke-linecap="round" stroke-linejoin="round"/>
<path d="M247.417 451.571C247.417 451.571 247.608 451.65 247.912 451.826L247.417 451.571Z" fill="#446622"/>
<path d="M247.417 451.571C247.417 451.571 247.608 451.65 247.912 451.826" stroke="#1E212B" stroke-width="0.5" stroke-miterlimit="10" stroke-linecap="round" stroke-linejoin="round"/>
<path d="M262.168 465.218C261.611 465.543 261.015 465.791 260.45 465.833C258.617 465.972 256.432 465.354 256.432 465.354" fill="#446622"/>
<path d="M262.168 465.218C261.611 465.543 261.015 465.791 260.45 465.833C258.617 465.972 256.432 465.354 256.432 465.354" stroke="#1E212B" stroke-width="0.5" stroke-miterlimit="10" stroke-linecap="round" stroke-linejoin="round"/>
<path d="M264.465 463.377C264.465 463.377 263.852 464.029 263.002 464.662L264.465 463.377Z" fill="#446622"/>
<path d="M264.465 463.377C264.465 463.377 263.852 464.029 263.002 464.662" stroke="#1E212B" stroke-width="0.5" stroke-miterlimit="10" stroke-linecap="round" stroke-linejoin="round"/>
<path d="M255.074 462.457C254.692 462.556 254.29 462.608 253.881 462.584C251.686 462.456 250.368 461.946 250.368 461.946" fill="#446622"/>
<path d="M255.074 462.457C254.692 462.556 254.29 462.608 253.881 462.584C251.686 462.456 250.368 461.946 250.368 461.946" stroke="#1E212B" stroke-width="0.5" stroke-miterlimit="10" stroke-linecap="round" stroke-linejoin="round"/>
<path d="M258.021 460.682C258.021 460.682 257.177 461.561 255.975 462.126L258.021 460.682Z" fill="#446622"/>
<path d="M258.021 460.682C258.021 460.682 257.177 461.561 255.975 462.126" stroke="#1E212B" stroke-width="0.5" stroke-miterlimit="10" stroke-linecap="round" stroke-linejoin="round"/>
<path d="M266.034 468.162C265.556 468.319 265.049 468.414 264.522 468.407L266.034 468.162Z" fill="#446622"/>
<path d="M266.034 468.162C265.556 468.319 265.049 468.414 264.522 468.407" stroke="#1E212B" stroke-width="0.5" stroke-miterlimit="10" stroke-linecap="round" stroke-linejoin="round"/>
<path d="M269.651 465.561C269.651 465.561 268.566 466.925 266.965 467.765L269.651 465.561Z" fill="#446622"/>
<path d="M269.651 465.561C269.651 465.561 268.566 466.925 266.965 467.765" stroke="#1E212B" stroke-width="0.5" stroke-miterlimit="10" stroke-linecap="round" stroke-linejoin="round"/>
<path d="M188.543 361.327L178 371.87L188.543 382.412L199.086 371.87L188.543 361.327Z" stroke="#1E212B" stroke-miterlimit="10"/>
<path d="M216.073 358L211 363.073L216.073 368.145L221.145 363.073L216.073 358Z" stroke="#1E212B" stroke-miterlimit="10"/>
</svg>
