<svg width="29" height="27" viewBox="0 0 29 27" fill="none" xmlns="http://www.w3.org/2000/svg">
<path d="M11.6844 1.97167C11.6844 1.97167 9.35844 1.97168 7.74044 2.67968C6.12344 3.38768 4.60644 5.66268 4.60644 5.66268C4.60644 5.66268 2.07843 6.62267 1.26943 9.25167C0.460434 11.8817 0.25744 12.9937 0.81344 15.5717C1.37044 18.1497 2.22944 19.1107 2.22944 19.1107C2.22944 19.1107 2.78544 23.4587 7.99244 25.5817C13.1994 27.7057 19.8734 25.1777 23.3614 23.2567C26.8504 21.3347 28.4684 15.2177 28.1144 11.2747C27.7604 7.33168 24.5754 4.09568 24.5754 4.09568C24.5754 4.09568 22.0474 1.51767 19.1144 0.758672C16.1844 0.000671953 12.5944 1.06167 11.6844 1.97167Z" fill="#446622" stroke="#1E212B" stroke-miterlimit="10" stroke-linecap="round" stroke-linejoin="round"/>
<path d="M16.7905 4.29776C16.7905 4.29776 18.8635 2.88176 20.9355 3.13476" stroke="#1E212B" stroke-miterlimit="10" stroke-linecap="round" stroke-linejoin="round"/>
<path d="M14.6675 7.9375C14.6675 7.9375 17.8525 7.98751 18.9145 9.75751" stroke="#1E212B" stroke-miterlimit="10" stroke-linecap="round" stroke-linejoin="round"/>
<path d="M11.4315 9.20166C11.4315 9.20166 9.66245 10.1117 9.96545 13.6007" stroke="#1E212B" stroke-miterlimit="10" stroke-linecap="round" stroke-linejoin="round"/>
<path d="M4.15149 9.80743C4.15149 9.80743 5.56649 7.38043 9.35849 8.03843" stroke="#1E212B" stroke-miterlimit="10" stroke-linecap="round" stroke-linejoin="round"/>
<path opacity="0.56" d="M16.3865 8.7968C16.3865 8.7968 15.3244 8.64479 14.9204 9.15079C14.5154 9.65679 14.4145 9.4038 13.7575 9.5048C13.0995 9.6058 12.5434 9.4548 12.5434 9.9598C12.5434 10.4658 13.3524 10.2638 12.5434 10.4658C11.7344 10.6678 11.5324 10.5158 11.5324 11.1738C11.5324 11.8308 11.4304 12.1848 12.1384 12.4378C12.8464 12.6898 14.2114 11.3248 15.3234 10.9208C16.4354 10.5158 16.7895 10.7688 17.3455 10.8698C17.9015 10.9718 18.6605 10.4658 18.1045 9.55579C17.5475 8.64579 16.3865 8.7968 16.3865 8.7968Z" fill="white"/>
<path opacity="0.56" d="M20.0775 3.84187C20.0775 3.84187 18.7125 3.74087 17.7015 4.65087C16.6905 5.56087 17.3975 5.76288 17.5495 5.96488C17.7015 6.16688 16.5885 6.06687 16.4875 6.72287C16.3865 7.38087 16.4875 7.68387 16.9935 7.88587C17.4995 8.08887 19.4705 9.30187 19.3195 8.79587C19.1675 8.29087 18.5094 7.43087 18.8634 6.97687C19.2174 6.52087 21.9475 7.27986 22.3525 6.87486C22.7565 6.47086 22.9085 5.20687 22.4535 4.39787C21.9985 3.58987 20.0775 3.84187 20.0775 3.84187Z" fill="white"/>
<path opacity="0.56" d="M6.22445 5.56164C6.22445 5.56164 4.75846 5.81363 4.25346 6.37063C3.74746 6.92663 3.44345 8.29164 3.84845 8.29164C4.25345 8.29164 6.98346 7.07863 7.33746 7.02763C7.69146 6.97763 8.50045 6.62364 8.24745 6.21864C7.99445 5.81464 7.53946 5.25864 7.89346 5.20764C8.24746 5.15664 9.40946 4.60064 9.86546 4.70164C10.3205 4.80364 10.8255 5.30864 11.3815 4.65164C11.9375 3.99364 12.8475 4.04464 12.8475 4.29764C12.8475 4.54964 13.7575 4.14564 14.4145 3.69064C15.0725 3.23564 15.6785 3.33763 17.0435 2.93263C18.4095 2.52863 20.6335 2.37664 20.3305 2.02264C20.0265 1.66864 17.7514 0.961643 16.3874 1.21464C15.0214 1.46664 13.7575 2.02263 13.1515 2.12463C12.5455 2.22563 11.0785 2.52864 9.71345 2.83264C8.34845 3.13564 7.48945 3.08464 7.03445 3.89364C6.57845 4.70164 6.22445 5.56164 6.22445 5.56164Z" fill="white"/>
<path opacity="0.56" d="M9.51045 10.5159C9.51045 10.5159 7.63946 11.8819 7.18446 12.6399C6.72946 13.3979 5.41545 14.1059 5.11145 12.8419C4.80845 11.5779 5.41545 10.5159 5.41545 10.5159C5.41545 10.5159 4.30345 10.3649 5.01045 9.80887C5.71845 9.25287 7.64044 8.24087 8.04444 8.69687C8.44844 9.15187 8.39845 9.50487 8.39845 9.50487C8.39845 9.50487 9.86445 8.64587 9.91545 9.50487C9.96545 10.3649 9.51045 10.5159 9.51045 10.5159Z" fill="white"/>
<path d="M13.5545 5.66286C13.5545 5.66286 12.9985 5.05685 12.8475 4.29785C12.6955 3.53985 12.6954 0.505859 12.6954 0.505859C12.6954 0.505859 11.9875 2.27585 11.6845 2.93285C11.3805 3.59085 11.3805 4.65186 11.3805 4.65186C11.3805 4.65186 11.4305 5.15786 11.3805 5.30986C11.3305 5.46186 11.2794 5.66385 10.8744 5.66385C10.4704 5.66385 9.40845 5.10785 9.40845 5.10785C9.40845 5.10785 8.85246 4.85485 8.29646 4.60185C7.74046 4.34885 7.03245 3.89386 7.03245 3.89386L6.52744 3.18585L6.27445 2.52885V1.11285C6.27445 1.11285 5.36445 3.38785 6.32545 4.34885C7.28645 5.30885 8.24645 5.66286 8.24645 5.66286L9.61144 6.26886L10.0154 7.02785L8.54945 6.97685L7.33645 7.02785L6.47645 6.62285L5.87045 5.71286C5.87045 5.71286 5.36445 4.44985 5.31445 4.29785C5.26445 4.14585 5.46645 6.87586 6.67945 7.33086C7.89345 7.78586 8.39846 7.78586 8.60046 7.78586C8.80346 7.78586 9.05644 7.88785 9.35944 8.03885C9.66244 8.19085 10.1674 8.54485 10.1674 8.54485C10.1674 8.54485 10.3694 8.89885 11.0274 8.99985C11.6844 9.10085 12.8475 8.89885 12.8475 8.89885C12.8475 8.89885 14.1615 8.89885 14.3135 8.03885C14.4645 7.17885 14.5155 7.12886 14.5655 6.77486C14.6165 6.42086 14.4134 6.26885 14.7174 5.76385C15.0204 5.25785 15.2234 5.10585 15.2234 5.10585L16.3354 4.49985C16.3354 4.49985 16.9425 4.34786 16.5875 3.28586C16.2335 2.22486 15.9304 1.81985 15.9304 1.81985C15.9304 1.81985 15.2224 1.16285 14.9694 1.21385C14.7174 1.26385 13.8574 1.71985 13.8574 1.71985C13.8574 1.71985 14.8694 1.06186 15.5254 2.12386C16.1834 3.18586 16.3855 3.58985 15.5765 4.04485C14.7675 4.50085 14.3625 4.70285 14.1105 4.90485C13.8585 5.10685 13.5545 5.66286 13.5545 5.66286Z" fill="#B0B0B0" stroke="#1E212B" stroke-miterlimit="10" stroke-linecap="round" stroke-linejoin="round"/>
<path d="M12.0885 9.10056C12.0885 9.10056 10.8255 8.34155 10.5715 7.28055C10.3195 6.21855 9.71246 2.83154 9.71246 2.83154C9.71246 2.83154 9.76245 6.62256 10.0665 7.68456C10.3695 8.74656 10.9765 8.74655 11.0265 8.99855C11.0775 9.25155 12.0885 9.10056 12.0885 9.10056Z" fill="#1E212B" stroke="#1E212B" stroke-miterlimit="10" stroke-linecap="round" stroke-linejoin="round"/>
<path d="M13.1505 7.83654C13.1505 7.83654 12.7965 6.11754 12.3925 5.46054C11.9885 4.80354 11.3305 4.55054 11.3815 5.30854C11.4315 6.06654 11.6845 6.92654 11.6335 7.48254C11.5835 8.03854 11.4315 8.39254 11.8865 8.49354C12.3415 8.59454 12.7965 8.13954 13.1505 7.83654Z" fill="#1E212B" stroke="#1E212B" stroke-miterlimit="10" stroke-linecap="round" stroke-linejoin="round"/>
</svg>
