<svg width="405" height="187" viewBox="0 0 405 187" fill="none" xmlns="http://www.w3.org/2000/svg">
<path d="M327.029 35.5072C314.342 31.1521 300.381 27.5353 285.705 23.9396C253.054 15.9403 217.59 8.62332 180.673 6.39402C171.349 5.83112 161.877 5.62744 152.507 6.0769C82.3072 9.44576 -0.601579 71.4886 0.00329028 98.4395C0.608159 125.39 31.5148 165.047 128.322 179.047C225.128 193.048 308.643 177.326 353.426 146.445C392.446 119.538 401.054 78.485 359.949 50.9902C350.527 44.6877 339.382 39.7475 327.029 35.5072Z" fill="#446622"/>
<path opacity="0.7" d="M327.029 35.5072C314.342 31.1521 300.381 27.5353 285.705 23.9396C253.054 15.9403 217.59 8.62332 180.673 6.39402C171.349 5.83112 161.877 5.62744 152.507 6.0769C82.3072 9.44576 -0.601579 71.4886 0.00329028 98.4395C0.608159 125.39 31.5148 165.047 128.322 179.047C225.128 193.048 308.643 177.326 353.426 146.445C392.446 119.538 401.054 78.485 359.949 50.9902C350.527 44.6877 339.382 39.7475 327.029 35.5072Z" fill="white"/>
<path d="M52.5509 53.5333L53.6945 57.1313C53.7419 57.2802 53.6608 57.4394 53.5135 57.4873C53.3662 57.5352 53.2079 57.4527 53.1611 57.3044L52.181 54.2197C51.678 55.1614 51.2112 56.0925 50.7801 57.007L52.1502 60.8294C52.203 60.9766 52.1272 61.1388 51.9821 61.1922C51.8363 61.245 51.6767 61.1661 51.623 61.0224L50.4425 57.7293C49.9124 58.8903 49.4411 60.0156 49.0187 61.0936C49.0229 61.104 49.0288 61.1137 49.0314 61.1249L49.8584 64.4836C49.896 64.6355 49.8042 64.7889 49.6544 64.8267C49.504 64.8646 49.3515 64.7703 49.3147 64.6206L48.6698 62.0027C47.6519 64.7156 46.9709 67.0597 46.5414 68.7424C48.0492 67.507 52.3043 63.8935 54.1277 61.0188C56.0917 57.9224 54.5478 52.173 54.1439 50.8222C53.5776 51.7283 53.0463 52.6344 52.5509 53.5333Z" fill="#446622"/>
<path d="M47.6277 63.2321L46.1129 64.4578C45.9923 64.5556 45.8157 64.5361 45.7188 64.4137C45.6203 64.2932 45.6412 64.1135 45.7624 64.0156L47.9256 62.2649C47.9435 62.2502 47.9643 62.2433 47.9843 62.2342C48.4453 60.9797 48.9797 59.6421 49.594 58.2504L46.699 59.44C46.5561 59.4994 46.3916 59.43 46.3338 59.2844C46.2754 59.1393 46.3443 58.9743 46.4878 58.9154L49.7749 57.5643C49.8189 57.5463 49.8637 57.5442 49.908 57.5489C50.4679 56.3194 51.0932 55.0524 51.7846 53.7684L48.6343 55.0458C48.4906 55.1036 48.329 55.0345 48.2694 54.8884C48.2117 54.7433 48.2817 54.5788 48.4252 54.5198L52.0788 53.0384C52.1158 53.0233 52.1552 53.0171 52.1947 53.0188C52.6317 52.2346 53.0947 51.4453 53.5835 50.6554C52.0325 51.1165 47.0662 52.9492 45.45 57.8866C43.7497 63.0807 45.4804 67.9071 45.9078 68.9626C46.2634 67.5318 46.816 65.5533 47.6277 63.2321Z" fill="#446622"/>
<path d="M209.052 17.4024L211.576 16.5903C211.68 16.5568 211.735 16.44 211.697 16.3299C211.659 16.2197 211.543 16.1577 211.439 16.1912L209.276 16.8877C209.584 16.1845 209.903 15.5079 210.227 14.8602L212.976 14.0923C213.082 14.0628 213.14 13.9483 213.106 13.8371C213.072 13.7258 212.958 13.6613 212.853 13.6888L210.485 14.3504C210.905 13.5384 211.33 12.7775 211.75 12.0664C211.758 12.0646 211.766 12.0641 211.773 12.0611L214.023 11.1559C214.125 11.115 214.171 10.9945 214.127 10.887C214.082 10.7793 213.962 10.7254 213.862 10.7658L212.108 11.4712C213.185 9.70912 214.203 8.30798 214.96 7.33851C214.928 8.77948 214.765 12.8994 213.951 15.222C213.073 17.7237 209.165 19.1947 208.229 19.5152C208.489 18.7883 208.765 18.0828 209.052 17.4024Z" fill="#446622"/>
<path d="M212.342 10.3172L212.365 8.87597C212.367 8.76111 212.279 8.66153 212.168 8.65382C212.057 8.64426 211.965 8.73251 211.963 8.84772L211.929 10.906C211.929 10.923 211.934 10.9387 211.938 10.9547C211.435 11.7637 210.918 12.6524 210.406 13.6126L209.804 11.3426C209.774 11.2304 209.663 11.1588 209.556 11.1846C209.449 11.2099 209.386 11.3213 209.416 11.4338L210.1 14.011C210.109 14.0455 210.127 14.0738 210.149 14.0991C209.704 14.958 209.267 15.8726 208.849 16.8346L208.184 14.3715C208.153 14.2594 208.044 14.1896 207.935 14.2145C207.829 14.2405 207.767 14.3521 207.797 14.4646L208.568 17.3211C208.576 17.35 208.589 17.3767 208.608 17.4002C208.359 17.9968 208.119 18.6115 207.889 19.2422C207.468 18.1001 206.318 14.2933 208.382 11.231C210.554 8.0093 214.026 7.0406 214.806 6.85819C214.159 7.67704 213.29 8.84568 212.342 10.3172Z" fill="#446622"/>
<path d="M142.577 181.432L139.489 181.521C139.361 181.525 139.253 181.424 139.248 181.296C139.243 181.167 139.344 181.06 139.471 181.056L142.118 180.98C141.488 180.364 140.858 179.78 140.234 179.228L136.919 179.447C136.791 179.455 136.681 179.358 136.671 179.23C136.661 179.102 136.759 178.993 136.884 178.983L139.739 178.795C138.943 178.108 138.161 177.476 137.406 176.893C137.397 176.894 137.388 176.897 137.379 176.896L134.55 176.788C134.421 176.784 134.321 176.676 134.325 176.548C134.328 176.42 134.436 176.32 134.563 176.324L136.768 176.409C134.857 174.979 133.162 173.902 131.932 173.176C132.57 174.658 134.471 178.871 136.329 180.979C138.332 183.249 143.203 183.332 144.357 183.319C143.769 182.661 143.174 182.031 142.577 181.432Z" fill="#446622"/>
<path d="M136.068 175.16L135.44 173.674C135.389 173.556 135.444 173.42 135.562 173.371C135.679 173.32 135.815 173.378 135.865 173.496L136.764 175.618C136.771 175.636 136.772 175.654 136.774 175.672C137.66 176.325 138.595 177.057 139.554 177.863L139.26 175.286C139.245 175.159 139.337 175.044 139.464 175.031C139.591 175.018 139.705 175.11 139.72 175.238L140.054 178.163C140.058 178.203 140.05 178.239 140.036 178.273C140.88 179 141.739 179.787 142.597 180.63L142.29 177.829C142.277 177.701 142.367 177.589 142.495 177.575C142.622 177.562 142.737 177.655 142.751 177.783L143.106 181.031C143.11 181.063 143.106 181.096 143.096 181.127C143.616 181.654 144.135 182.203 144.649 182.772C144.63 181.432 144.29 177.059 140.761 174.645C137.048 172.106 132.862 172.383 131.936 172.482C132.985 173.092 134.421 173.984 136.068 175.16Z" fill="#446622"/>
<path d="M336.566 120.119C336.566 120.119 339.244 119.108 345.277 108.542C351.309 97.9748 353.396 92.0789 358.939 92.0008C364.482 91.9221 367.246 97.8389 364.297 103.542C361.348 109.244 353.836 111.148 352.518 114.977C351.2 118.807 352.419 126.193 352.419 126.193" stroke="#1E212B" stroke-miterlimit="10" stroke-linecap="round" stroke-linejoin="round"/>
<path d="M337.727 118.495C337.727 118.495 326.309 131.605 323.383 136.386C320.457 141.167 321.933 150.393 330.143 154.846C338.352 159.3 346.99 158.979 350.41 155.15C353.829 151.321 355.126 144.167 355.143 140.722C355.159 137.277 352.046 125.279 351.905 124.04C351.763 122.801 343.11 122.32 337.727 118.495Z" stroke="#1E212B" stroke-miterlimit="10" stroke-linecap="round" stroke-linejoin="round"/>
<path d="M351.904 124.04C351.904 124.04 353.021 117.891 358.198 114.75C363.374 111.61 370.615 108.591 370.79 100.817C370.966 93.0426 362.987 90.3874 357.556 94.7742C352.124 99.161 351.546 104.419 346.271 108.723C340.997 113.027 337.727 118.495 337.727 118.495" stroke="#1E212B" stroke-miterlimit="10" stroke-linecap="round" stroke-linejoin="round"/>
<path d="M331.649 125.916C334.818 124.093 340.184 119.846 340.184 119.846C340.184 119.846 352.109 144.855 352.947 150.868" stroke="#1E212B" stroke-miterlimit="10" stroke-linecap="round" stroke-linejoin="round"/>
<path d="M328.314 129.83C334.558 127.42 342.423 121.334 342.423 121.334C342.423 121.334 352.78 140.197 354.155 146.963" stroke="#1E212B" stroke-miterlimit="10" stroke-linecap="round" stroke-linejoin="round"/>
<path d="M325.502 133.617C332.591 131.28 345.262 122.134 345.262 122.134C345.262 122.134 353.655 137.063 355.207 142.327" stroke="#1E212B" stroke-miterlimit="10" stroke-linecap="round" stroke-linejoin="round"/>
<path d="M323.118 136.955C323.118 136.955 330.372 135.644 335.869 132.219C341.366 128.794 347.952 122.79 347.952 122.79C347.952 122.79 352.939 131.284 354.376 135.051" stroke="#1E212B" stroke-miterlimit="10" stroke-linecap="round" stroke-linejoin="round"/>
<path d="M350.027 123.251C350.027 123.251 344.973 130.227 339.497 133.269C334.022 136.312 327.603 138.666 326.153 138.987C324.704 139.308 322.155 140.061 322.155 140.061" stroke="#1E212B" stroke-miterlimit="10" stroke-linecap="round" stroke-linejoin="round"/>
<path d="M352.014 125.243C352.014 125.243 347.475 131.797 343.082 135.084C338.688 138.372 329.984 141.562 327.085 142.204C324.186 142.846 322.28 143.705 322.28 143.705" stroke="#1E212B" stroke-miterlimit="10" stroke-linecap="round" stroke-linejoin="round"/>
<path d="M323.064 146.778C323.064 146.778 331.327 146.565 339.51 141.943C347.693 137.321 352.765 128.111 352.765 128.111" stroke="#1E212B" stroke-miterlimit="10" stroke-linecap="round" stroke-linejoin="round"/>
<path d="M324.485 149.663C324.485 149.663 332.463 149.749 338.026 146.735C343.589 143.72 348.878 138.475 353.631 130.918" stroke="#1E212B" stroke-miterlimit="10" stroke-linecap="round" stroke-linejoin="round"/>
<path d="M326.631 152.387C326.631 152.387 331.472 154.503 340.82 148.3C350.167 142.098 354.096 134.086 354.096 134.086" stroke="#1E212B" stroke-miterlimit="10" stroke-linecap="round" stroke-linejoin="round"/>
<path d="M331.109 155.362C331.109 155.362 335.364 155.635 342.208 150.979C349.051 146.323 354.644 136.986 354.644 136.986" stroke="#1E212B" stroke-miterlimit="10" stroke-linecap="round" stroke-linejoin="round"/>
<path d="M340.299 158.072C340.299 158.072 347.081 154.858 350.492 151.942C353.903 149.027 354.711 145.483 354.711 145.483" stroke="#1E212B" stroke-miterlimit="10" stroke-linecap="round" stroke-linejoin="round"/>
<path d="M337.143 119.08C337.143 119.08 343.301 134.374 346.12 142.085C348.939 149.796 350.716 153.086 349.744 155.603" stroke="#1E212B" stroke-miterlimit="10" stroke-linecap="round" stroke-linejoin="round"/>
<path d="M335.305 121.276C335.305 121.276 340.524 132.132 343.078 141.318C345.633 150.504 346.805 157.305 346.805 157.305" stroke="#1E212B" stroke-miterlimit="10" stroke-linecap="round" stroke-linejoin="round"/>
<path d="M333.142 123.904C333.142 123.904 337.081 130.8 339.51 141.943C341.94 153.087 343.047 157.919 343.047 157.919" stroke="#1E212B" stroke-miterlimit="10" stroke-linecap="round" stroke-linejoin="round"/>
<path d="M330.521 127.069C330.521 127.069 335.725 141.087 336.968 148.592C338.211 156.097 339.231 157.783 339.231 157.783" stroke="#1E212B" stroke-miterlimit="10" stroke-linecap="round" stroke-linejoin="round"/>
<path d="M327.444 130.773C327.444 130.773 329.611 134.673 332.188 143.476C334.764 152.279 335.243 156.961 335.243 156.961C335.243 156.961 338.488 156.136 345.803 151.825C353.118 147.513 355.257 140.298 355.257 140.298" stroke="#1E212B" stroke-miterlimit="10" stroke-linecap="round" stroke-linejoin="round"/>
<path d="M324.687 134.382C324.687 134.382 326.588 141.316 329.106 146.886C331.624 152.456 332.676 155.906 332.676 155.906" stroke="#1E212B" stroke-miterlimit="10" stroke-linecap="round" stroke-linejoin="round"/>
<path d="M322.549 138.48C322.549 138.48 324.413 144.915 326.432 148.671C328.451 152.427 329.509 154.612 329.509 154.612" stroke="#1E212B" stroke-miterlimit="10" stroke-linecap="round" stroke-linejoin="round"/>
<path d="M358.628 46.3587C358.628 46.3587 365.474 40.2754 366.357 39.4621C367.24 38.649 367.798 41.2898 369.382 41.1409C370.966 40.9919 372.334 39.5997 371.867 39.1567C371.399 38.7139 368.869 39.8764 369.276 38.8537C369.684 37.8309 373.235 37.2095 374.28 37.606C375.325 38.0025 376.873 41.007 377.762 41.6261C378.65 42.245 381.071 41.0164 380.722 39.8515C380.373 38.6867 378.219 38.6489 376.956 38.1197C375.693 37.5904 376.912 36.1877 376.351 35.7676C375.79 35.3476 375.134 35.5049 374.448 35.4848C373.761 35.4649 375.643 34.2266 375.643 34.2266C375.643 34.2266 378.828 34.0171 378.166 32.7422C377.505 31.4673 376.654 31.9029 377.505 31.4673C378.357 31.0316 379.09 31.3183 379.855 30.6717C380.621 30.0251 380.691 30.1474 380.77 29.4807C380.85 28.814 383.487 28.8287 384.745 27.9253C386.003 27.022 386.497 25.6546 387.108 24.1204C387.719 22.5862 387.125 23.0988 388.767 21.3171C390.408 19.5355 392.605 17.297 391.521 16.9561C390.437 16.6153 389.782 16.2175 387.351 18.79C384.919 21.3624 384.264 21.5198 384.264 21.5198C384.264 21.5198 383.07 21.1125 382.203 22.0145C381.335 22.9165 379.435 25.1764 379.13 25.9435C378.824 26.7106 377.063 25.561 376.055 26.2191C375.047 26.8774 375.311 27.8314 375.005 28.5985C374.7 29.3656 374.176 30.0002 373.723 30.2014C373.27 30.4026 372.824 30.9258 372.589 31.2598C372.355 31.5936 372.904 29.7045 371.513 30.6858C370.123 31.6672 369.566 33.2345 369.566 33.2345L368.979 34.069C368.979 34.069 367.847 34.5721 367.479 35.5394C367.11 36.5066 366.35 38.585 366.35 38.585L358.598 45.6259L358.02 45.672L358.628 46.3587Z" fill="#446622" stroke="#1E212B" stroke-miterlimit="10"/>
<path d="M366.782 22.0169C366.782 22.0169 365.218 19.4789 364.44 18.3708C363.661 17.2629 363.32 15.8648 363.742 15.4859C364.164 15.1069 364.974 15.8375 364.974 15.8375C364.974 15.8375 364.833 16.1488 364.508 14.8396C364.182 13.5304 363.544 12.666 364.261 12.8637C364.979 13.0613 365.906 14.1799 366.177 14.901C366.449 15.6221 366.387 15.8221 366.698 16.4872C367.009 17.1527 367.737 15.4515 366.787 13.9219C365.838 12.3927 364.379 12.1415 365.107 10.4405C365.836 8.73935 366.505 9.7809 366.777 10.502C367.049 11.2231 367.259 11.5887 367.659 10.2438C368.06 8.89913 368.777 9.09675 368.775 10.2072C368.774 11.3175 368.304 11.9852 368.03 12.9299C367.755 13.8746 370.02 8.10466 369.962 9.73734C369.905 11.3698 369.592 11.8149 369.169 12.749C368.746 13.683 367.963 15.3508 367.83 15.9843C367.696 16.6178 367.438 17.0959 367.601 17.1952C367.765 17.2948 369.132 16.4577 370.462 14.566C371.791 12.6743 371.856 11.3638 372.26 12.5619C372.663 13.76 371.888 15.75 371.52 16.1616C371.153 16.5733 371.933 16.5712 371.752 17.4933C371.571 18.4154 371.337 18.7494 370.47 19.0962C369.603 19.443 369.502 19.1434 368.869 19.7117C368.236 20.2799 368.095 20.5912 368.095 20.5912C368.095 20.5912 368.531 21.4115 368.32 21.6011C368.109 21.7903 367.663 22.3138 367.099 23.5591C366.536 24.8045 365.907 27.3603 366.376 27.2477C366.844 27.1353 367.452 27.2668 368.978 25.0968C370.503 22.927 371.472 21.7692 371.768 22.3458C372.064 22.9224 372.142 22.811 373.173 22.0084C374.204 21.206 374.507 22.1043 372.756 23.8196C371.006 25.5348 370.341 26.4807 369.209 26.9838C368.076 27.4869 367.833 28.054 367.029 28.2009C366.226 28.3478 365.874 28.2931 365.874 28.2931C365.874 28.2931 364.391 33.5052 364.062 34.4168C363.732 35.3284 359.787 42.9352 359.787 42.9352C359.787 42.9352 358.136 45.5051 358.019 45.6721C357.901 45.8391 357.114 45.5194 357.114 45.5194C357.114 45.5194 359.116 43.0039 359.89 41.5693C360.665 40.1347 364.188 33.4614 364.668 30.8953C365.148 28.3288 365.36 27.5844 365.36 27.5844C365.36 27.5844 365.64 28.0721 362.837 24.3053C360.034 20.5385 359.352 17.7424 359.743 17.1862C360.134 16.63 363.354 18.0302 363.234 19.8629C363.114 21.6953 362.887 22.3511 363.222 22.3171C363.558 22.2826 364.022 20.1826 364.183 21.9477C364.344 23.7127 364.312 24.0904 364.374 24.4455C364.436 24.8008 363.898 24.2359 364.436 24.8008C364.973 25.3653 365.346 26.3857 365.346 26.3857L366.782 22.0169Z" fill="#446622" stroke="#1E212B" stroke-miterlimit="10"/>
<path d="M362.303 36.9204C362.303 36.9204 362.081 34.8002 361.381 33.0258C360.682 31.2511 358.571 28.937 357.98 27.7841C357.388 26.6309 357.911 26.5517 358.527 27.0053C359.143 27.4585 359.422 28.5016 359.805 28.1783C360.188 27.8553 359.34 26.0699 360.666 26.9541C361.991 27.8384 362.895 28.5462 362.23 29.4921C361.565 30.4377 361.245 30.561 361.377 31.038C361.509 31.515 361.157 32.0157 361.68 31.9363C362.203 31.8569 362.838 29.6233 363.351 30.8875C363.864 32.1519 363.715 32.6961 362.895 33.3095C362.074 33.9226 362.261 34.4328 362.261 34.4328L362.773 36.2522C362.772 36.2526 362.756 36.7191 362.303 36.9204Z" fill="#446622" stroke="#1E212B" stroke-miterlimit="10"/>
<path d="M383.03 6.87727C383.03 6.87727 384.503 3.56398 382.853 5.5788C381.203 7.59362 381.192 9.4924 380.668 10.6821C380.143 11.8718 380.166 12.2827 379.728 12.5725C379.291 12.8626 379.967 9.46257 378.787 10.8099C377.606 12.1569 377.309 12.6908 377.041 13.9576C376.774 15.2242 376.647 16.7348 376.366 16.8023C376.085 16.8698 375.81 13.051 374.964 14.9189C374.119 16.7869 374.234 17.7304 374.607 18.7507C374.98 19.7711 375.072 20.8591 375.072 20.8591C375.072 20.8591 375.68 20.9906 375.289 21.547C374.898 22.1032 372.988 25.7068 372.77 25.5743C372.552 25.4418 373.165 22.2419 372.584 19.7454C372.003 17.2488 371.681 13.7188 369.868 15.6341C368.054 17.5493 369.405 21.3872 368.481 23.9216C367.556 26.456 366.927 24.8037 366.978 26.5023C367.03 28.2009 369.247 28.0386 368.449 29.0626C367.652 30.0867 366.793 30.2003 367.089 30.7766C367.384 31.3532 368.164 31.3508 368.015 31.8953C367.866 32.44 367.194 33.0638 366.991 33.5751C366.787 34.0865 365.152 36.7451 364.487 37.6912C363.822 38.6371 358.021 45.6723 358.021 45.6723L358.628 46.3589C358.628 46.3589 363.313 39.9157 364.204 38.8692C365.096 37.8227 366.519 35.9086 368.103 35.7593C369.687 35.6104 374.928 37.6818 376.457 38.0546C377.986 38.4274 380.617 37.5644 379.002 36.9808C377.388 36.3971 375.734 36.4245 375.149 36.1485C374.564 35.8727 379.02 35.4039 378.008 34.0746C376.996 32.745 376.3 33.5134 374.715 34.2178C373.13 34.9221 373.73 35.2867 372.622 35.0902C371.515 34.8938 372.827 34.0238 371.75 34.0047C370.673 33.9856 370.244 34.0425 369.58 34.433C368.916 34.8237 368.916 34.8237 368.315 35.0142C367.714 35.2048 366.636 35.7411 366.636 35.7411C366.636 35.7411 372.205 27.9293 372.322 27.7624C372.44 27.5954 377.249 26.0709 379.13 25.943C381.011 25.8152 382.883 25.9206 384.11 24.8396C385.337 23.7587 386.298 22.8343 384.3 23.129C382.302 23.4238 381.731 24.3472 380.881 24.2277C380.03 24.1082 382.593 22.0127 380.392 22.2638C378.191 22.5149 377.581 23.4937 376.894 24.0287C376.206 24.5637 377.272 21.7181 376.662 22.1417C376.053 22.5653 375.161 24.167 374.574 25.0017C373.988 25.8362 372.902 26.6057 372.902 26.6057L376.07 21.5439C376.07 21.5439 380.541 21.7192 382.518 19.9032C384.495 18.0873 385.108 15.998 384.022 16.7675C382.936 17.5371 381.123 18.897 381.093 18.1643C381.063 17.4317 385.649 14.342 384.987 13.6222C384.325 12.9024 382.246 14.4188 382.435 13.819C382.623 13.2186 384.021 12.5595 384.53 11.2809C385.04 10.0024 383.306 10.6065 383.307 10.1411C383.309 9.0306 384.435 7.65037 384.349 7.43966C384.263 7.22885 383.03 6.87727 383.03 6.87727Z" fill="#446622" stroke="#1E212B" stroke-miterlimit="10"/>
<path d="M359.555 47.4773C359.555 47.4773 358.287 44.9605 355.798 44.9571C353.309 44.9537 350.9 47.9367 349.711 50.0723C348.521 52.2079 345.932 56.1133 343.625 59.3955C341.317 62.6781 339.705 65.7475 339.705 65.7475C339.705 65.7475 337.568 69.4515 336.339 72.1978C335.109 74.9442 334.081 78.2896 334.065 78.7561C334.049 79.2224 334.149 80.0773 334.813 79.6865C335.477 79.2959 341.548 74.092 342.682 72.4787C343.816 70.8653 349.078 64.9309 350.509 62.7836C351.941 60.6363 356.031 55.2607 356.031 55.2607C356.031 55.2607 358.759 52.1545 359.206 50.521C359.654 48.887 359.555 47.4773 359.555 47.4773Z" fill="#D4D4D4" stroke="#1E212B" stroke-miterlimit="10"/>
<path d="M349.232 52.0832C349.232 52.0832 350.488 52.2905 351.797 53.0858" stroke="#1E212B" stroke-miterlimit="10"/>
<path d="M352.254 60.1907C352.254 60.1907 351.756 59.0151 350.423 58.3642" stroke="#1E212B" stroke-miterlimit="10"/>
<path d="M342.557 65.5983C342.957 65.8079 343.362 66.0834 343.73 66.4462" stroke="#1E212B" stroke-miterlimit="10"/>
<path d="M340.198 64.9357C340.198 64.9357 341.087 64.9617 342.114 65.3907" stroke="#1E212B" stroke-miterlimit="10"/>
<path d="M342.682 72.4786C342.682 72.4786 342.045 71.0594 340.953 70.3963" stroke="#1E212B" stroke-miterlimit="10"/>
<path d="M354.361 48.1062C354.614 48.2727 354.888 48.4725 355.183 48.7118" stroke="#1E212B" stroke-miterlimit="10"/>
<path d="M351.829 47.3897C351.829 47.3897 352.269 47.1452 353.227 47.5087" stroke="#1E212B" stroke-miterlimit="10"/>
<path d="M336.683 74.9833C336.981 75.0788 337.319 75.2346 337.691 75.4803" stroke="#1E212B" stroke-miterlimit="10"/>
<path d="M335.258 74.9549C335.258 74.9549 335.522 74.827 335.99 74.8515" stroke="#1E212B" stroke-miterlimit="10"/>
<path d="M100.429 45.3401C100.429 45.3401 100.819 46.8595 101.841 47.7195C102.863 48.5796 105.36 49.4399 108.653 48.8089C111.945 48.1782 113.591 45.5404 113.875 43.5906C114.159 41.6409 113.251 39.1178 112.002 38.6591C110.753 38.2007 100.429 45.3401 100.429 45.3401Z" fill="#D4D4D4" stroke="#1E212B" stroke-miterlimit="10"/>
<path d="M110.096 38.0297C110.096 38.0297 105.084 39.5654 102.876 41.347C100.668 43.1287 99.9518 44.48 100.429 45.34C100.906 46.2001 102.159 46.6301 102.577 46.6301C102.995 46.6301 105.62 46.3845 105.62 46.3845C105.62 46.3845 106.754 46.2616 107.172 46.0773C107.59 45.8929 108.902 45.2172 108.902 45.2172L109.798 44.7872L110.454 44.48L111.29 43.4971C111.29 43.4971 112.722 42.1455 112.722 41.5927C112.722 41.0398 112.961 40.2414 112.901 40.057C112.841 39.8726 112.483 39.1354 112.483 39.1354C112.483 39.1354 111.767 37.8456 110.096 38.0297Z" fill="#1E212B" stroke="#1E212B" stroke-miterlimit="10"/>
<path d="M102.636 39.4621C102.636 39.4621 103.374 41.5264 104.168 42.8455C104.963 44.1642 105.36 44.2791 105.814 44.2791C106.269 44.2791 107.063 44.1645 107.631 43.4761C108.199 42.788 108.312 42.3293 108.199 41.6412C108.085 40.9531 107.013 38.0814 107.013 38.0814L102.636 39.4621Z" fill="#D4D4D4" stroke="#1E212B" stroke-miterlimit="10"/>
<path d="M104.898 37.5279C104.898 37.5279 103.098 38.0026 102.628 38.7934C102.158 39.5842 103.411 39.9007 104.194 39.8216C104.977 39.7425 107.013 38.8725 107.013 38.0814C107.012 37.2906 105.446 37.2906 104.898 37.5279Z" fill="#D4D4D4" stroke="#1E212B" stroke-miterlimit="10"/>
<path d="M104.906 42.3867C104.906 42.3867 105.36 43.3616 105.814 43.8203L104.906 42.3867Z" fill="#D4D4D4"/>
<path d="M104.906 42.3867C104.906 42.3867 105.36 43.3616 105.814 43.8203" stroke="#1E212B" stroke-miterlimit="10"/>
<path d="M107.177 41.9854L107.688 42.9602" stroke="#1E212B" stroke-miterlimit="10"/>
<path d="M103.998 40.7811L104.452 41.5837" stroke="#1E212B" stroke-miterlimit="10"/>
<path d="M110.454 44.48C110.454 44.48 110.81 45.1391 110.526 46.2859L110.454 44.48Z" fill="#D4D4D4"/>
<path d="M110.454 44.48C110.454 44.48 110.81 45.1391 110.526 46.2859" stroke="#1E212B" stroke-miterlimit="10"/>
<path d="M112.569 42.2148L112.74 43.1323" stroke="#1E212B" stroke-miterlimit="10"/>
<path d="M103.714 47.3756C103.714 47.3756 104.055 48.0637 104.792 48.2931L103.714 47.3756Z" fill="#D4D4D4"/>
<path d="M103.714 47.3756C103.714 47.3756 104.055 48.0637 104.792 48.2931" stroke="#1E212B" stroke-miterlimit="10"/>
<path d="M97.4719 36.6291C97.4719 36.6291 97.2152 35.3062 96.3831 34.5154C95.5513 33.7246 93.4541 32.8566 90.5994 33.225C87.7447 33.5935 86.1983 35.7688 85.8551 37.4254C85.5118 39.0819 86.1611 41.2923 87.2082 41.7511C88.255 42.2095 97.4719 36.6291 97.4719 36.6291Z" fill="#D4D4D4" stroke="#1E212B" stroke-miterlimit="10"/>
<path d="M88.8095 42.3904C88.8095 42.3904 93.1853 41.3361 95.1694 39.9242C97.1535 38.5126 97.8365 37.3913 97.4715 36.6292C97.1064 35.8671 96.0542 35.4329 95.6961 35.4109C95.338 35.3892 93.0745 35.4622 93.0745 35.4622C93.0745 35.4622 92.0962 35.5082 91.7286 35.6444C91.361 35.7806 90.2008 36.291 90.2008 36.291L89.4114 36.6129L88.8328 36.8419L88.0661 37.6407C88.0661 37.6407 86.7692 38.7244 86.7408 39.1984C86.7123 39.6725 86.467 40.3446 86.5087 40.5057C86.5503 40.6668 86.8194 41.3176 86.8194 41.3176C86.8194 41.3176 87.3679 42.4609 88.8095 42.3904Z" fill="#1E212B" stroke="#1E212B" stroke-miterlimit="10"/>
<path d="M95.2788 41.5527C95.2788 41.5527 94.752 39.7442 94.1382 38.5722C93.5246 37.3998 93.1899 37.2808 92.8005 37.2572C92.4111 37.2336 91.724 37.2904 91.202 37.8506C90.68 38.4108 90.5594 38.798 90.6213 39.3939C90.6835 39.9898 91.4552 42.5078 91.4552 42.5078L95.2788 41.5527Z" fill="#D4D4D4" stroke="#1E212B" stroke-miterlimit="10"/>
<path d="M93.2395 43.0925C93.2395 43.0925 94.8077 42.7799 95.2511 42.1263C95.6945 41.4726 94.6366 41.1361 93.9614 41.1629C93.2863 41.1897 91.4964 41.8289 91.456 42.5071C91.4156 43.1854 92.7576 43.2673 93.2395 43.0925Z" fill="#D4D4D4" stroke="#1E212B" stroke-miterlimit="10"/>
<path d="M93.4825 38.9266C93.4825 38.9266 93.143 38.0672 92.7773 37.6503L93.4825 38.9266Z" fill="#D4D4D4"/>
<path d="M93.4825 38.9266C93.4825 38.9266 93.143 38.0672 92.7773 37.6503" stroke="#1E212B" stroke-miterlimit="10"/>
<path d="M91.5151 39.1523L91.127 38.2897" stroke="#1E212B" stroke-miterlimit="10"/>
<path d="M94.1784 40.3507L93.8301 39.6387" stroke="#1E212B" stroke-miterlimit="10"/>
<path d="M88.8337 36.8419C88.8337 36.8419 88.5624 36.2581 88.8643 35.2899L88.8337 36.8419Z" fill="#D4D4D4"/>
<path d="M88.8337 36.8419C88.8337 36.8419 88.5624 36.2581 88.8643 35.2899" stroke="#1E212B" stroke-miterlimit="10"/>
<path d="M86.9038 38.6734L86.8047 37.8778" stroke="#1E212B" stroke-miterlimit="10"/>
<path d="M94.7594 34.7123C94.7594 34.7123 94.5027 34.1046 93.8818 33.8695L94.7594 34.7123Z" fill="#D4D4D4"/>
<path d="M94.7594 34.7123C94.7594 34.7123 94.5027 34.1046 93.8818 33.8695" stroke="#1E212B" stroke-miterlimit="10"/>
<path d="M109.326 23.6483C109.326 23.6483 108.707 22.6677 107.981 22.1757C107.254 21.6838 105.9 21.6567 105.9 21.6567C105.9 21.6567 104.826 20.8493 103.513 21.2155C102.2 21.5821 101.682 21.7961 100.753 22.7244C99.8254 23.6527 99.6533 24.2738 99.6533 24.2738C99.6533 24.2738 97.9866 25.6784 98.4874 28.4461C98.9882 31.2135 101.821 33.3476 103.553 34.3015C105.284 35.2556 108.269 34.2913 109.821 33.081C111.373 31.8703 111.875 29.6564 111.875 29.6564C111.875 29.6564 112.278 27.8965 111.813 26.4558C111.348 25.0152 109.949 23.787 109.326 23.6483Z" fill="#99BB44" stroke="#1E212B" stroke-miterlimit="10" stroke-linecap="round" stroke-linejoin="round"/>
<path d="M109.716 26.4277C109.716 26.4277 110.859 26.9209 111.306 27.8629" stroke="#1E212B" stroke-miterlimit="10" stroke-linecap="round" stroke-linejoin="round"/>
<path d="M107.631 26.512C107.631 26.512 108.458 27.8687 108.003 28.7925" stroke="#1E212B" stroke-miterlimit="10" stroke-linecap="round" stroke-linejoin="round"/>
<path d="M106.241 25.4874C106.241 25.4874 105.39 24.9862 104.015 26.053" stroke="#1E212B" stroke-miterlimit="10" stroke-linecap="round" stroke-linejoin="round"/>
<path d="M104.048 22.5806C104.048 22.5806 105.438 22.5245 106.174 24.3004" stroke="#1E212B" stroke-miterlimit="10" stroke-linecap="round" stroke-linejoin="round"/>
<path opacity="0.56" d="M107.73 27.4681C107.73 27.4681 107.511 26.9797 107.192 26.9449C106.873 26.9105 106.952 26.7998 106.734 26.5497C106.517 26.2999 106.432 26.0243 106.221 26.1605C106.01 26.2967 106.31 26.5832 106.01 26.2967C105.711 26.0102 105.72 25.8839 105.445 26.0606C105.171 26.2374 104.996 26.29 105.079 26.6565C105.162 27.0231 106.096 27.2314 106.561 27.5915C107.026 27.9517 107.015 28.1689 107.121 28.4308C107.227 28.6924 107.64 28.8762 107.872 28.3967C108.103 27.9176 107.73 27.4681 107.73 27.4681Z" fill="white"/>
<path opacity="0.56" d="M110.781 27.6911C110.781 27.6911 110.46 27.0882 109.811 26.9067C109.161 26.7251 109.266 27.078 109.221 27.1966C109.177 27.315 108.923 26.8186 108.622 26.9529C108.321 27.0872 108.221 27.2113 108.271 27.479C108.321 27.7466 108.34 28.9046 108.511 28.7046C108.681 28.5046 108.865 27.9961 109.149 28.0229C109.434 28.0496 109.844 29.4051 110.121 29.4667C110.398 29.5282 110.966 29.2523 111.182 28.8427C111.399 28.4331 110.781 27.6911 110.781 27.6911Z" fill="white"/>
<path opacity="0.56" d="M106.374 22.3117C106.374 22.3117 105.877 21.7614 105.511 21.698C105.144 21.6345 104.493 21.8737 104.601 22.0444C104.708 22.2151 105.942 23.0397 106.058 23.1753C106.173 23.3109 106.537 23.5568 106.638 23.3415C106.74 23.1262 106.85 22.7845 106.966 22.9201C107.081 23.0556 107.623 23.3963 107.702 23.6155C107.781 23.8347 107.705 24.184 108.127 24.2414C108.55 24.2991 108.771 24.6963 108.666 24.7646C108.56 24.8325 108.971 25.1075 109.336 25.2622C109.701 25.4169 109.821 25.6999 110.353 26.1669C110.886 26.6336 111.541 27.531 111.608 27.308C111.675 27.0847 111.365 25.935 110.895 25.4271C110.426 24.9196 109.857 24.5362 109.653 24.3074C109.45 24.0787 108.932 23.5421 108.442 23.048C107.952 22.5539 107.744 22.1781 107.285 22.2039C106.827 22.2297 106.374 22.3117 106.374 22.3117Z" fill="white"/>
<path opacity="0.56" d="M105.18 25.0312C105.18 25.0312 104.112 24.6097 103.674 24.6219C103.237 24.634 102.591 24.2703 103.038 23.802C103.484 23.334 104.089 23.3041 104.089 23.3041C104.089 23.3041 103.856 22.7943 104.277 22.9429C104.697 23.0916 105.631 23.6298 105.549 23.9229C105.467 24.2161 105.306 24.2898 105.306 24.2898C105.306 24.2898 106.055 24.6767 105.71 24.9294C105.365 25.182 105.18 25.0312 105.18 25.0312Z" fill="white"/>
<path d="M108.283 25.4306C108.283 25.4306 108.388 25.0328 108.664 24.7649C108.94 24.4969 110.207 23.6803 110.207 23.6803C110.207 23.6803 109.28 23.8579 108.924 23.9071C108.569 23.9562 108.126 24.2417 108.126 24.2417C108.126 24.2417 107.928 24.399 107.852 24.4187C107.775 24.4382 107.677 24.4714 107.569 24.3007C107.462 24.1301 107.411 23.5329 107.411 23.5329C107.411 23.5329 107.368 23.2305 107.326 22.9277C107.283 22.6253 107.284 22.2042 107.284 22.2042L107.445 21.8004L107.652 21.5168L108.243 21.1359C108.243 21.1359 107.051 21.3643 106.906 22.0281C106.76 22.6917 106.869 23.1922 106.869 23.1922L106.979 23.931L106.77 24.3055L106.401 23.6736L106.057 23.1756L105.996 22.7044L106.215 22.2036C106.215 22.2036 106.607 21.6501 106.657 21.5882C106.707 21.526 105.621 22.3462 105.755 22.9804C105.888 23.6145 106.023 23.8276 106.076 23.9131C106.13 23.9983 106.155 24.1323 106.173 24.301C106.19 24.4698 106.177 24.7783 106.177 24.7783C106.177 24.7783 106.084 24.9588 106.217 25.2632C106.349 25.5675 106.744 26.0036 106.744 26.0036C106.744 26.0036 107.094 26.558 107.493 26.3905C107.892 26.223 107.927 26.2307 108.088 26.157C108.249 26.083 108.258 25.957 108.55 25.949C108.842 25.9407 108.959 25.9854 108.959 25.9854L109.509 26.291C109.509 26.291 109.734 26.506 110.083 26.0712C110.432 25.6361 110.52 25.3994 110.52 25.3994C110.52 25.3994 110.606 24.9241 110.517 24.8309C110.429 24.7378 110.01 24.4979 110.01 24.4979C110.01 24.4979 110.554 24.7473 110.285 25.3104C110.017 25.8734 109.902 26.0674 109.497 25.8489C109.091 25.6303 108.899 25.5139 108.748 25.4619C108.596 25.409 108.283 25.4306 108.283 25.4306Z" fill="#B0B0B0" stroke="#1E212B" stroke-miterlimit="10" stroke-linecap="round" stroke-linejoin="round"/>
<path d="M106.457 25.7376C106.457 25.7376 106.437 25.0003 106.812 24.6083C107.188 24.2159 108.441 23.0483 108.441 23.0483C108.441 23.0483 106.871 24.0902 106.509 24.504C106.146 24.9177 106.308 25.1736 106.216 25.2629C106.124 25.3519 106.457 25.7376 106.457 25.7376Z" fill="#1E212B" stroke="#1E212B" stroke-miterlimit="10" stroke-linecap="round" stroke-linejoin="round"/>
<path d="M107.267 25.845C107.267 25.845 107.89 25.2332 108.057 24.8858C108.224 24.5384 108.154 24.1932 107.851 24.4184C107.548 24.644 107.256 24.9818 107.011 25.11C106.765 25.2383 106.577 25.2695 106.656 25.4887C106.735 25.7079 107.046 25.7774 107.267 25.845Z" fill="#1E212B" stroke="#1E212B" stroke-miterlimit="10" stroke-linecap="round" stroke-linejoin="round"/>
<path d="M374.716 67.3877C374.716 67.3877 373.767 65.9529 372.629 65.8015C371.49 65.6504 371.1 65.7913 371.1 65.7913C371.1 65.7913 370.157 64.6212 368.64 65.1401C367.123 65.659 366.05 66.521 364.138 68.9897C362.227 71.4584 361.82 74.8645 361.615 75.4426C361.409 76.0206 360.729 76.9182 360.977 78.2801C361.225 79.6422 362.274 81.6923 363.515 82.5472C364.757 83.402 366.115 83.5924 366.115 83.5924C366.115 83.5924 368.132 83.9889 369.9 82.9351C371.668 81.8813 377.702 80.2036 379.08 77.3053C380.458 74.407 379.12 73.1133 379.12 73.1133C379.12 73.1133 378.587 70.6988 377.65 69.7931C376.714 68.8874 375.699 68.4244 375.699 68.4244L374.716 67.3877Z" fill="#99BB44" stroke="#1E212B" stroke-miterlimit="10" stroke-linecap="round" stroke-linejoin="round"/>
<path opacity="0.53" d="M376.642 74.8992C376.642 74.8992 377.076 73.3148 375.438 73.2724C373.8 73.2299 373.907 74.5661 373.072 75.6082C372.238 76.6503 375.029 75.9585 374.966 76.6686C374.904 77.3783 375.994 76.3798 376.642 74.8992Z" fill="white"/>
<path opacity="0.53" d="M372.499 70.7394C372.499 70.7394 371.226 69.5078 370.616 70.1512C370.006 70.7946 368.884 72.9454 369.594 73.3234C370.303 73.7014 371.924 72.9568 372.454 72.2364C372.984 71.516 372.499 70.7394 372.499 70.7394Z" fill="white"/>
<path d="M374.981 71.6169C374.981 71.6169 375.385 70.1081 376.169 68.0174C376.954 65.9266 377.315 64.4628 376.429 63.8647C375.542 63.2665 374.733 64.2111 374.746 64.8284C374.76 65.4459 375.443 64.7248 375.452 65.1657C375.462 65.6067 375.132 66.4964 374.714 67.3877C374.297 68.2793 372.795 69.5036 372.795 69.5036L373.757 71.5556L374.981 71.6169Z" fill="#1E212B" stroke="#1E212B" stroke-miterlimit="10" stroke-linecap="round" stroke-linejoin="round"/>
<path d="M369.48 82.0019C369.097 82.1824 368.787 82.3283 368.578 82.4349" stroke="#1E212B" stroke-miterlimit="10" stroke-linecap="round" stroke-linejoin="round"/>
<path d="M374.954 79.0085C373.555 79.972 371.944 80.8116 370.655 81.4403" stroke="#1E212B" stroke-miterlimit="10" stroke-linecap="round" stroke-linejoin="round"/>
<path d="M374.981 71.6169C374.981 71.6169 376.651 72.1093 377.291 73.4186C377.888 74.64 377.78 76.6835 375.773 78.3934" stroke="#1E212B" stroke-miterlimit="10" stroke-linecap="round" stroke-linejoin="round"/>
<path d="M363.91 73.0867C363.322 73.7073 362.939 74.1337 362.939 74.1337" stroke="#1E212B" stroke-miterlimit="10" stroke-linecap="round" stroke-linejoin="round"/>
<path d="M372.216 68.9432C372.216 68.9432 371.23 67.8182 369.366 68.4327C368.231 68.807 366.096 70.8387 364.599 72.3711" stroke="#1E212B" stroke-miterlimit="10" stroke-linecap="round" stroke-linejoin="round"/>
<path d="M371.46 66.3129C371.46 66.3129 371.995 66.8304 372.105 67.8866" stroke="#1E212B" stroke-miterlimit="10" stroke-linecap="round" stroke-linejoin="round"/>
<path d="M378.636 72.9917C378.636 72.9917 377.752 72.4819 376.917 72.2797" stroke="#1E212B" stroke-miterlimit="10" stroke-linecap="round" stroke-linejoin="round"/>
<path d="M373.424 72.269C373.424 72.269 373.534 73.3252 370.771 74.7982" stroke="#1E212B" stroke-miterlimit="10" stroke-linecap="round" stroke-linejoin="round"/>
<path d="M63.5481 133.085L64.2992 135.291L65.1224 137.587L65.6852 139.086L66.9598 140.117L67.3459 140.632L67.504 141.156L68.111 142.053L68.7296 142.674C68.7296 142.674 71.0253 144.678 71.8672 145.174C72.7091 145.67 75.3769 146.713 75.9561 146.92C76.5353 147.127 78.5377 148.659 78.6773 148.722C78.8169 148.786 81.1893 149.864 81.4103 149.117C81.6312 148.37 81.5106 144.246 81.5106 144.246C81.5106 144.246 78.4897 136.713 77.7781 136.051C77.0664 135.388 76.2361 134.615 75.7663 134.288C75.2965 133.962 74.443 133.743 73.9476 133.348C73.4522 132.953 72.0404 131.351 71.017 130.886C69.9937 130.42 68.1773 130.103 68.1773 130.103L66.663 130.488L65.6255 130.808C65.6255 130.808 64.602 131.473 64.4717 131.64C64.3412 131.806 63.7643 132.222 63.5481 133.085Z" fill="#99BB44" stroke="#1E212B" stroke-miterlimit="10"/>
<path d="M75.0714 141.461C75.0714 141.461 75.0809 139.423 75.1726 139.049C75.2645 138.675 75.2007 137.474 75.2007 137.474C75.2007 137.474 75.1883 137.165 75.1867 136.749C75.1852 136.332 75.3082 135.972 75.1402 135.593C74.9721 135.214 74.762 134.93 74.762 134.93" stroke="#1E212B" stroke-miterlimit="10"/>
<path d="M68.7983 131.764C68.9259 131.898 69.0084 132.049 69.1625 132.459C69.3165 132.87 69.2589 133.335 69.2589 133.335L69.4689 135.888L69.5639 136.347C69.5639 136.347 67.7134 137.056 67.2838 137.012C66.8541 136.968 66.1306 136.828 66.1306 136.828C66.1306 136.828 66.0231 136.817 65.8535 136.778" stroke="#1E212B" stroke-miterlimit="10"/>
<path d="M67.3262 138.431C67.3262 138.431 70.3579 138.599 70.7564 138.629C71.1548 138.659 72.095 138.481 72.095 138.481C72.095 138.481 72.4639 136.645 72.5199 136.519C72.5759 136.393 73.2264 134.345 73.1892 134.177C73.1518 134.008 73.1518 134.008 73.1518 134.008" stroke="#1E212B" stroke-miterlimit="10"/>
<path d="M68.7998 140.5L70.8806 140.954L72.2548 141.314L72.837 141.352L74.1847 141.435" stroke="#1E212B" stroke-miterlimit="10"/>
<path d="M76.9264 143.514L77.6223 140.692L77.6224 138.423" stroke="#1E212B" stroke-miterlimit="10"/>
<path d="M78.7641 145.522C78.7641 145.522 79.0304 144.168 79.0349 143.906C79.0396 143.643 79.0831 143.209 79.0831 143.209L79.2558 142.569L79.2729 141.859" stroke="#1E212B" stroke-miterlimit="10"/>
<path d="M66.8436 133.849C66.8436 133.849 73.9744 140.82 74.6488 141.692C75.3232 142.564 80.563 148.506 80.9073 149.115C81.2515 149.723 82.8148 153.322 82.8148 153.322L83.8842 152.729L80.5981 147.675L75.4467 141.659C75.4467 141.659 68.1925 134.462 66.8436 133.849Z" fill="#1E212B" stroke="#1E212B" stroke-miterlimit="10"/>
<path d="M82.2371 153.729C82.2371 153.729 79.9317 155.188 79.5184 158.649C79.1054 162.109 82.3272 164.334 84.373 164.808C86.4188 165.282 89.719 165.643 90.5323 166.012C91.3455 166.382 92.1088 167.033 92.4811 167.886C92.8533 168.74 92.6594 170.019 93.0035 169.416C93.3476 168.812 93.1224 167.798 92.7908 167.191C92.4593 166.584 92.1214 165.823 92.4875 165.001C92.8535 164.18 94.3989 161.386 95.003 158.849C95.6068 156.311 95.4006 154.241 93.7708 152.664C92.1411 151.087 90.4237 150.382 89.0222 150.657C87.6208 150.932 85.7601 151.96 84.9364 152.314C84.1126 152.668 83.3351 153.043 83.3351 153.043L82.2371 153.729Z" fill="#1E212B" stroke="#1E212B" stroke-miterlimit="10"/>
<path d="M80.7798 151.579C80.7798 151.579 80.6614 150.202 80.9466 149.475C81.2317 148.749 81.7428 146.996 81.3135 146.49C80.8842 145.983 79.843 145.899 79.3418 145.555C78.8403 145.21 78.0091 143.703 78.0091 143.703C78.0091 143.703 76.0101 143.261 75.6897 143.116C75.3694 142.97 74.7832 142.47 74.3587 142.472C73.9342 142.473 73.955 142.6 73.5386 142.41C73.1222 142.221 72.8275 141.931 72.3597 142.03C71.892 142.129 71.1535 142.143 70.9644 142.135C70.7753 142.127 70.7147 141.399 69.848 141.355C68.9815 141.311 68.7348 141.432 68.3279 141.481C67.921 141.53 66.6685 141.66 66.6685 141.66L65.6818 142.146L64.3555 142.788L63.4968 143.331C63.4968 143.331 63.2742 143.658 62.9058 143.88C62.5373 144.102 62.3628 144.061 62.0791 144.438C61.7955 144.815 61.6947 145.82 61.6947 145.82L61.834 146.545L61.9156 147.399L62.4265 148.76L64.448 150.535L66.0128 151.519L67.6257 152.136C67.6257 152.136 69.713 151.256 69.9659 151.293C70.2191 151.33 70.6707 151.613 71.0648 152.026C71.4588 152.439 72.1667 152.839 72.4744 152.667C72.782 152.496 73.1776 152.559 73.1776 152.559C73.1776 152.559 73.216 153.51 73.7782 153.805C74.3404 154.099 74.7617 154.018 74.986 154.12C75.2103 154.222 74.93 154.679 75.3433 154.789C75.7565 154.899 76.1569 154.692 76.3492 154.779C76.5415 154.866 77.0539 155.878 77.8131 155.99C78.5723 156.101 78.9937 155.242 79.0273 154.907C79.061 154.572 79.4599 152.38 79.4599 152.38L80.7798 151.579Z" fill="#99BB44" stroke="#1E212B" stroke-miterlimit="10"/>
<path d="M82.8157 153.322C82.8157 153.322 79.907 150.598 78.5455 149.59C77.184 148.582 72.4669 146.632 71.2831 146.522C70.0995 146.412 65.1914 146.36 65.1914 146.36L63.5254 146.38C63.5254 146.38 68.789 146.672 69.9551 146.735C71.1211 146.798 71.9847 146.763 73.109 147.352C74.2335 147.941 77.2384 149.152 77.562 149.376C77.8855 149.601 80.6213 151.935 80.8695 152.242C81.1177 152.55 82.2368 153.729 82.2368 153.729L82.8157 153.322Z" fill="#1E212B" stroke="#1E212B" stroke-miterlimit="10"/>
<path d="M75.7498 145.13C75.539 144.843 75.3322 144.544 75.1534 144.234" stroke="#1E212B" stroke-miterlimit="10"/>
<path d="M77.7495 148.956C77.8167 149.064 77.3234 147.75 77.0096 146.985C76.8665 146.636 76.5945 146.252 76.2833 145.839" stroke="#1E212B" stroke-miterlimit="10"/>
<path d="M75.4813 148.08C75.4813 148.08 75.2091 146.789 74.5508 146.451C73.8925 146.113 72.6063 145.022 72.0954 144.439C71.5844 143.857 71.1935 143.524 71.1935 143.524" stroke="#1E212B" stroke-miterlimit="10"/>
<path d="M69.1842 148.369C68.9507 148.623 68.6596 148.909 68.1998 149.206C67.2803 149.8 67.5303 149.758 67.2803 149.8" stroke="#1E212B" stroke-miterlimit="10"/>
<path d="M71.1565 146.892C71.1565 146.892 70.2802 147.389 69.822 147.725C69.7531 147.776 69.6893 147.831 69.627 147.891" stroke="#1E212B" stroke-miterlimit="10"/>
<path d="M74.094 147.994C74.094 147.994 73.4069 148.499 72.5915 148.946C71.7761 149.392 71.2764 149.476 71.2764 149.476" stroke="#1E212B" stroke-miterlimit="10"/>
<path d="M75.085 150.659C75.5192 150.612 75.9591 150.581 76.2439 150.606C76.9856 150.671 77.5462 150.537 77.5462 150.537L78.7699 150.47" stroke="#1E212B" stroke-miterlimit="10"/>
<path d="M73.7061 150.854C73.7061 150.854 74.0741 150.79 74.5458 150.726" stroke="#1E212B" stroke-miterlimit="10"/>
<path d="M80.3327 151.026C80.3327 151.026 79.4662 149.425 79.1987 148.642C78.9312 147.859 78.7391 146.993 78.6189 146.744" stroke="#1E212B" stroke-miterlimit="10"/>
<path d="M80.1473 151.875C80.1473 151.875 78.3549 151.488 77.9256 151.76C77.4963 152.032 76.5961 153.101 75.9473 153.001" stroke="#1E212B" stroke-miterlimit="10"/>
<path d="M72.3272 146.685C72.3272 146.685 71.6545 145.601 70.9786 145.216C70.3027 144.831 69.5418 144.29 69.5418 144.29L68.781 143.75L68.3085 143.34" stroke="#1E212B" stroke-miterlimit="10"/>
<path d="M83.0111 147.262C83.0111 147.262 82.0116 146.652 81.2348 145.715C80.458 144.778 80.9546 143.836 80.8537 143.284C80.7527 142.733 80.5397 142.519 80.1217 141.901C79.7036 141.283 79.7469 140.407 79.6059 140.032C79.4649 139.656 78.4655 139.046 77.5974 137.795C76.7292 136.544 77.8778 134.226 78.1647 133.928C78.4513 133.63 79.2347 132.391 79.2749 131.436C79.315 130.481 80.619 128.506 81.3158 128.239C82.0127 127.972 83.0667 127.595 83.4495 128.119C83.8324 128.643 83.9973 129.224 83.9973 129.224C83.9973 129.224 84.9391 129.964 85.1394 130.639C85.3395 131.313 85.8072 132.771 85.8121 133.279C85.8169 133.787 85.7367 135.697 85.7367 135.697L85.8102 136.742L86.4173 137.369L85.6612 139.671L85.5729 140.993L85.6369 141.801L85.6098 142.294L85.7972 142.652C85.7972 142.652 86.3098 142.885 86.3337 143.091C86.3576 143.296 86.3721 143.264 86.4314 143.563C86.4908 143.863 86.2601 145.159 86.2601 145.159L86.0118 145.629L85.8725 146.461C85.8725 146.461 85.773 147.116 85.2877 147.168C84.8024 147.22 84.3666 147.333 84.3666 147.333L83.0111 147.262Z" fill="#99BB44" stroke="#1E212B" stroke-miterlimit="10"/>
<path d="M80.066 138.364C79.6421 137.815 79.1015 137.273 79.1015 137.273L78.5056 136.535" stroke="#1E212B" stroke-miterlimit="10"/>
<path d="M82.0816 140.613C82.0816 140.613 81.0993 139.732 80.5699 139.072" stroke="#1E212B" stroke-miterlimit="10"/>
<path d="M79.9232 134.287C79.722 133.424 79.7626 133.02 79.7626 133.02" stroke="#1E212B" stroke-miterlimit="10"/>
<path d="M82.0566 137.644C82.0566 137.644 81.1276 136.443 80.9434 136.164C80.7813 135.919 80.4853 135.975 80.1799 135.169" stroke="#1E212B" stroke-miterlimit="10"/>
<path d="M84.0427 133.098L84.3822 132.163" stroke="#1E212B" stroke-miterlimit="10"/>
<path d="M80.3657 131.582C80.3657 131.582 81.3667 133.399 81.4581 133.713C81.5495 134.027 81.9642 134.566 82.0172 134.706C82.07 134.847 82.2077 135.143 82.2077 135.143C82.2077 135.143 82.8934 134.21 83.172 134.103C83.2417 134.076 83.3212 134.022 83.4009 133.956" stroke="#1E212B" stroke-miterlimit="10"/>
<path d="M84.5059 139.28L85.0342 138.569" stroke="#1E212B" stroke-miterlimit="10"/>
<path d="M84.4216 137.397C84.3098 137.602 84.2206 137.778 84.189 137.873C84.0768 138.212 83.9615 138.471 83.9615 138.471L83.2662 139.166L82.4876 140.136C82.4876 140.136 82.6333 141.797 82.6542 141.924C82.675 142.05 83.4679 141.049 83.4679 141.049L84.0722 139.916" stroke="#1E212B" stroke-miterlimit="10"/>
<path d="M85.1413 136.166C85.1413 136.166 84.9733 136.44 84.7773 136.773" stroke="#1E212B" stroke-miterlimit="10"/>
<path d="M84.7876 143.206C84.6747 143.499 84.5822 143.734 84.5822 143.734C84.5822 143.734 84.2474 144.399 84.0038 144.6C83.7602 144.801 83.8357 144.718 83.4352 144.925C83.0347 145.132 83.0347 145.132 83.0347 145.132C83.0347 145.132 81.7854 143.786 81.6861 143.663C81.5869 143.54 81.5195 143.431 81.4059 143.341" stroke="#1E212B" stroke-miterlimit="10"/>
<path d="M85.192 142.105C85.178 142.167 85.0982 142.387 85.0005 142.647" stroke="#1E212B" stroke-miterlimit="10"/>
<path d="M81.1709 141.282C81.525 141.73 81.8942 142.2 81.9284 142.255C81.9956 142.364 82.2407 142.592 82.3223 142.668C82.4039 142.744 82.6346 143.005 82.6346 143.005C82.6346 143.005 83.6966 142.437 84.2926 141.618C84.8886 140.799 85.015 140.429 85.015 140.429" stroke="#1E212B" stroke-miterlimit="10"/>
<path d="M80.5029 140.439C80.5029 140.439 80.6881 140.672 80.9251 140.971" stroke="#1E212B" stroke-miterlimit="10"/>
<path d="M83.3341 153.044C83.3341 153.044 83.0114 147.291 82.6656 145.452C82.3196 143.613 81.9299 140.129 82.0592 138.842C82.1885 137.556 82.214 133.139 82.2971 132.952C82.3801 132.766 82.7402 130.463 82.7402 130.463C82.7402 130.463 82.4491 136.721 82.5067 138.709C82.5643 140.698 83.1686 144.448 83.2931 145.289C83.4176 146.131 83.9619 149.517 84.0104 150.156C84.0587 150.795 84.9353 152.314 84.9353 152.314L83.3341 153.044Z" fill="#1E212B" stroke="#1E212B" stroke-miterlimit="10"/>
<path d="M85.9159 149.477C85.9159 149.477 85.3745 146.196 85.1312 145.618C84.8878 145.04 85.3333 141.273 86.0141 139.831C86.695 138.389 88.0695 137.38 88.0695 137.38L89.154 135.81C89.154 135.81 90.626 135.273 91.1387 135.506C91.6513 135.739 92.4376 136.136 92.4376 136.136C92.4376 136.136 92.7644 136.44 92.5513 137.005C92.3382 137.569 91.9041 138.111 91.9041 138.111C91.9041 138.111 91.8929 138.223 91.1031 139.304C90.3133 140.385 90.1403 140.773 90.1403 140.773L89.8327 141.723L89.413 143.011L89.4467 143.454C89.4467 143.454 89.7478 143.124 89.333 144.142C88.9181 145.16 88.9276 145.398 88.9276 145.398C88.9276 145.398 89.8007 146.378 89.4913 146.899C89.1822 147.42 88.7335 147.995 88.7335 147.995L88.2898 148.299C88.2898 148.299 88.0574 148.388 87.7693 148.257C87.481 148.126 87.5211 147.949 87.207 147.962C86.8931 147.975 86.4493 148.279 86.4493 148.279L86.116 150.152L85.9159 149.477Z" fill="#99BB44" stroke="#1E212B" stroke-miterlimit="10"/>
<path d="M85.8477 151.888C85.8477 151.888 85.9611 148.52 86.2841 147.545C86.6072 146.571 88.1301 142.779 88.4208 142.126C88.7116 141.474 91.4215 137.464 91.4215 137.464C91.4215 137.464 89.2605 141.191 88.9352 142.094C88.61 142.997 87.4086 145.953 87.0225 146.906C86.6364 147.859 86.5627 148.371 86.3399 149.476C86.1173 150.581 86.6121 151.545 86.6121 151.545L85.8477 151.888Z" fill="#1E212B" stroke="#1E212B" stroke-miterlimit="10"/>
<path d="M87.5244 144.137C87.5244 144.137 87.2024 143.563 87.0968 143.281C86.9911 142.999 86.714 141.2 86.714 141.2L86.5587 140.079" stroke="#1E212B" stroke-miterlimit="10"/>
<path d="M88.6701 141.739L88.2713 140.819C88.2713 140.819 88.0615 139.906 87.9766 139.751C87.8918 139.595 87.81 139.519 87.8037 139.361" stroke="#1E212B" stroke-miterlimit="10"/>
<path d="M90.2656 139.196L89.9629 138.319L89.8332 137.832L89.753 137.406L89.8621 136.988" stroke="#1E212B" stroke-miterlimit="10"/>
<path d="M86.9111 147.244C86.9111 147.244 87.2908 146.911 87.3982 146.843C87.5054 146.775 87.6626 146.768 87.7666 146.621C87.8708 146.474 88.0213 146.309 88.0213 146.309L88.348 145.835L88.417 145.594L88.6157 145.061" stroke="#1E212B" stroke-miterlimit="10"/>
<path d="M241.697 173.272L245.161 172.655C245.161 172.655 249.925 175.22 252.604 174.46C255.283 173.7 260.748 170.759 262.164 168.986C263.581 167.212 263.381 164.867 262.336 164.089C261.29 163.31 258.126 163.425 255.521 163.674C252.916 163.923 248.355 165.243 247.051 167.021C245.747 168.799 246.104 169.895 245.053 170.884C244.003 171.872 239.379 173.36 241.697 173.272Z" fill="#446622" stroke="#1E212B" stroke-miterlimit="10" stroke-linecap="round" stroke-linejoin="round"/>
<path d="M258.743 166.34C261.111 165.784 261.386 165.423 261.386 165.423" stroke="#1E212B" stroke-width="0.5" stroke-miterlimit="10" stroke-linecap="round" stroke-linejoin="round"/>
<path d="M243.172 172.247C243.172 172.247 254.999 167.346 258.08 166.501" stroke="#1E212B" stroke-width="0.5" stroke-miterlimit="10" stroke-linecap="round" stroke-linejoin="round"/>
<path d="M253.354 172.562C254.568 172.59 255.195 172.547 255.195 172.547" stroke="#1E212B" stroke-width="0.5" stroke-miterlimit="10" stroke-linecap="round" stroke-linejoin="round"/>
<path d="M246.382 171.844C246.382 171.844 247.473 171.245 248.107 171.185C248.715 171.127 251.126 172.386 252.676 172.535" stroke="#1E212B" stroke-width="0.5" stroke-miterlimit="10" stroke-linecap="round" stroke-linejoin="round"/>
<path d="M255.926 171.27C255.926 171.27 253.329 170.179 252.569 169.93C251.809 169.681 251.267 169.495 251.017 169.57C250.768 169.644 249.429 170.262 249.429 170.262" stroke="#1E212B" stroke-width="0.5" stroke-miterlimit="10" stroke-linecap="round" stroke-linejoin="round"/>
<path d="M254.689 168.203C254.689 168.203 256.87 169.418 258.002 170.013C259.134 170.608 260.087 170.032 260.087 170.032" stroke="#1E212B" stroke-width="0.5" stroke-miterlimit="10" stroke-linecap="round" stroke-linejoin="round"/>
<path d="M260.736 167.952C260.509 167.95 260.26 167.926 259.999 167.866C258.991 167.636 257.581 167.142 257.581 167.142" stroke="#1E212B" stroke-width="0.5" stroke-miterlimit="10" stroke-linecap="round" stroke-linejoin="round"/>
<path d="M261.84 167.793C261.84 167.793 261.725 167.835 261.529 167.876" stroke="#1E212B" stroke-width="0.5" stroke-miterlimit="10" stroke-linecap="round" stroke-linejoin="round"/>
<path d="M250.967 167.149C251.149 166.744 251.372 166.361 251.634 166.098C252.488 165.241 253.717 164.619 253.717 164.619" stroke="#1E212B" stroke-width="0.5" stroke-miterlimit="10" stroke-linecap="round" stroke-linejoin="round"/>
<path d="M250.349 169.074C250.349 169.074 250.47 168.478 250.711 167.791" stroke="#1E212B" stroke-width="0.5" stroke-miterlimit="10" stroke-linecap="round" stroke-linejoin="round"/>
<path d="M255.163 165.517C255.322 165.303 255.503 165.104 255.709 164.94C256.81 164.065 257.589 163.76 257.589 163.76" stroke="#1E212B" stroke-width="0.5" stroke-miterlimit="10" stroke-linecap="round" stroke-linejoin="round"/>
<path d="M254.213 167.687C254.213 167.687 254.384 166.876 254.815 166.072" stroke="#1E212B" stroke-width="0.5" stroke-miterlimit="10" stroke-linecap="round" stroke-linejoin="round"/>
<path d="M248.288 167.303C248.478 167.018 248.699 166.752 248.957 166.529" stroke="#1E212B" stroke-width="0.5" stroke-miterlimit="10" stroke-linecap="round" stroke-linejoin="round"/>
<path d="M247.237 170.183C247.237 170.183 247.394 169.021 247.944 167.905" stroke="#1E212B" stroke-width="0.5" stroke-miterlimit="10" stroke-linecap="round" stroke-linejoin="round"/>
<path d="M201.625 22.2314L200.029 19.0643C200.029 19.0643 201.066 13.7127 199.564 11.3458C198.063 8.979 193.683 4.55802 191.591 3.70724C189.498 2.85646 187.336 3.73454 186.904 4.97167C186.472 6.20879 187.505 9.23292 188.502 11.6766C189.498 14.1208 192.079 18.1425 194.143 18.8831C196.207 19.6238 197.14 18.9589 198.384 19.6856C199.625 20.4116 202.385 24.4445 201.625 22.2314Z" fill="#446622" stroke="#1E212B" stroke-miterlimit="10" stroke-linecap="round" stroke-linejoin="round"/>
<path d="M190.084 7.78491C188.867 5.65953 188.444 5.49932 188.444 5.49932" stroke="#1E212B" stroke-width="0.5" stroke-miterlimit="10" stroke-linecap="round" stroke-linejoin="round"/>
<path d="M200.223 21.1051C200.223 21.1051 192.13 11.1086 190.43 8.3784" stroke="#1E212B" stroke-width="0.5" stroke-miterlimit="10" stroke-linecap="round" stroke-linejoin="round"/>
<path d="M197.549 11.175C197.222 9.99475 196.997 9.40068 196.997 9.40068" stroke="#1E212B" stroke-width="0.5" stroke-miterlimit="10" stroke-linecap="round" stroke-linejoin="round"/>
<path d="M198.905 18.1211C198.905 18.1211 198.019 17.2415 197.777 16.647C197.545 16.0764 198.033 13.3787 197.721 11.8381" stroke="#1E212B" stroke-width="0.5" stroke-miterlimit="10" stroke-linecap="round" stroke-linejoin="round"/>
<path d="M195.575 9.06751C195.575 9.06751 195.3 11.895 195.286 12.702C195.272 13.509 195.255 14.0869 195.398 14.3068C195.542 14.526 196.518 15.6395 196.518 15.6395" stroke="#1E212B" stroke-width="0.5" stroke-miterlimit="10" stroke-linecap="round" stroke-linejoin="round"/>
<path d="M193.032 11.1581C193.032 11.1581 193.546 8.69669 193.778 7.42909C194.011 6.16157 193.187 5.40868 193.187 5.40868" stroke="#1E212B" stroke-width="0.5" stroke-miterlimit="10" stroke-linecap="round" stroke-linejoin="round"/>
<path d="M191.029 5.38955C191.093 5.60943 191.143 5.85732 191.163 6.12721C191.239 7.16759 191.184 8.67444 191.184 8.67444" stroke="#1E212B" stroke-width="0.5" stroke-miterlimit="10" stroke-linecap="round" stroke-linejoin="round"/>
<path d="M190.557 4.36896C190.557 4.36896 190.63 4.46728 190.726 4.64429" stroke="#1E212B" stroke-width="0.5" stroke-miterlimit="10" stroke-linecap="round" stroke-linejoin="round"/>
<path d="M193.121 15.063C192.685 15.005 192.257 14.9018 191.931 14.7248C190.871 14.1503 189.923 13.1441 189.923 13.1441" stroke="#1E212B" stroke-width="0.5" stroke-miterlimit="10" stroke-linecap="round" stroke-linejoin="round"/>
<path d="M195.124 15.096C195.124 15.096 194.525 15.1535 193.803 15.1217" stroke="#1E212B" stroke-width="0.5" stroke-miterlimit="10" stroke-linecap="round" stroke-linejoin="round"/>
<path d="M190.351 11.4844C190.101 11.3937 189.86 11.2766 189.645 11.1257C188.495 10.3173 187.978 9.65358 187.978 9.65358" stroke="#1E212B" stroke-width="0.5" stroke-miterlimit="10" stroke-linecap="round" stroke-linejoin="round"/>
<path d="M192.683 11.7682C192.683 11.7682 191.865 11.8404 190.978 11.6583" stroke="#1E212B" stroke-width="0.5" stroke-miterlimit="10" stroke-linecap="round" stroke-linejoin="round"/>
<path d="M194.05 17.6056C193.724 17.5057 193.408 17.3698 193.122 17.1857" stroke="#1E212B" stroke-width="0.5" stroke-miterlimit="10" stroke-linecap="round" stroke-linejoin="round"/>
<path d="M197.083 17.781C197.083 17.781 195.937 17.9683 194.72 17.7626" stroke="#1E212B" stroke-width="0.5" stroke-miterlimit="10" stroke-linecap="round" stroke-linejoin="round"/>
<path d="M317.571 43.7705L311.661 49.7405L317.571 55.7105L323.481 49.7405L317.571 43.7705Z" stroke="#1E212B" stroke-miterlimit="10"/>
<path d="M325.786 52.8306L322.942 55.7031L325.786 58.5756L328.629 55.7031L325.786 52.8306Z" stroke="#1E212B" stroke-miterlimit="10"/>
<path d="M39.8396 134.372L36.9961 137.244L39.8396 140.117L42.6831 137.244L39.8396 134.372Z" stroke="#1E212B" stroke-miterlimit="10"/>
<path d="M296.567 138.902L293.724 141.774L296.567 144.647L299.411 141.774L296.567 138.902Z" stroke="#1E212B" stroke-miterlimit="10"/>
<path d="M22.2301 134.854L19.7529 132.331C19.7529 132.331 19.1229 126.915 16.9773 125.124C14.8322 123.334 9.32498 120.475 7.07491 120.311C4.82485 120.147 3.03207 121.65 2.99472 122.961C2.95736 124.272 4.85536 126.833 6.54298 128.853C8.23071 130.873 11.9044 133.906 14.0939 133.974C16.2833 134.042 16.9709 133.122 18.3744 133.43C19.7762 133.738 23.623 136.727 22.2301 134.854Z" fill="#99BB44" stroke="#1E212B" stroke-miterlimit="10" stroke-linecap="round" stroke-linejoin="round"/>
<path d="M6.87402 124.659C5.07246 123.01 4.62122 122.988 4.62122 122.988L6.87402 124.659Z" fill="#99BB44"/>
<path d="M6.87402 124.659C5.07246 123.01 4.62122 122.988 4.62122 122.988" stroke="#1E212B" stroke-width="0.5" stroke-miterlimit="10" stroke-linecap="round" stroke-linejoin="round"/>
<path d="M20.5557 134.214C20.5557 134.214 9.82701 127.192 7.38307 125.117L20.5557 134.214Z" fill="#99BB44"/>
<path d="M20.5557 134.214C20.5557 134.214 9.82701 127.192 7.38307 125.117" stroke="#1E212B" stroke-width="0.5" stroke-miterlimit="10" stroke-linecap="round" stroke-linejoin="round"/>
<path d="M15.0059 125.584C14.3374 124.561 13.9443 124.064 13.9443 124.064L15.0059 125.584Z" fill="#99BB44"/>
<path d="M15.0059 125.584C14.3374 124.561 13.9443 124.064 13.9443 124.064" stroke="#1E212B" stroke-width="0.5" stroke-miterlimit="10" stroke-linecap="round" stroke-linejoin="round"/>
<path d="M18.3975 131.779C18.3975 131.779 17.2881 131.215 16.8777 130.724C16.4838 130.252 16.1334 127.533 15.3704 126.162" fill="#99BB44"/>
<path d="M18.3975 131.779C18.3975 131.779 17.2881 131.215 16.8777 130.724C16.4838 130.252 16.1334 127.533 15.3704 126.162" stroke="#1E212B" stroke-width="0.5" stroke-miterlimit="10" stroke-linecap="round" stroke-linejoin="round"/>
<path d="M12.489 124.186C12.489 124.186 13.0827 126.963 13.3134 127.736C13.5441 128.508 13.7024 129.064 13.9052 129.229C14.108 129.394 15.374 130.153 15.374 130.153" fill="#99BB44"/>
<path d="M12.489 124.186C12.489 124.186 13.0827 126.963 13.3134 127.736C13.5441 128.508 13.7024 129.064 13.9052 129.229C14.108 129.394 15.374 130.153 15.374 130.153" stroke="#1E212B" stroke-width="0.5" stroke-miterlimit="10" stroke-linecap="round" stroke-linejoin="round"/>
<path d="M10.7003 126.961C10.7003 126.961 10.4452 124.459 10.2833 123.18C10.1219 121.901 9.10959 121.438 9.10959 121.438" fill="#99BB44"/>
<path d="M10.7003 126.961C10.7003 126.961 10.4452 124.459 10.2833 123.18C10.1219 121.901 9.10959 121.438 9.10959 121.438" stroke="#1E212B" stroke-width="0.5" stroke-miterlimit="10" stroke-linecap="round" stroke-linejoin="round"/>
<path d="M7.04956 122.086C7.17665 122.276 7.29936 122.496 7.39989 122.747C7.78709 123.714 8.18945 125.166 8.18945 125.166" fill="#99BB44"/>
<path d="M7.04956 122.086C7.17665 122.276 7.29936 122.496 7.39989 122.747C7.78709 123.714 8.18945 125.166 8.18945 125.166" stroke="#1E212B" stroke-width="0.5" stroke-miterlimit="10" stroke-linecap="round" stroke-linejoin="round"/>
<path d="M6.2907 121.26C6.2907 121.26 6.3894 121.331 6.53418 121.47L6.2907 121.26Z" fill="#99BB44"/>
<path d="M6.2907 121.26C6.2907 121.26 6.3894 121.331 6.53418 121.47" stroke="#1E212B" stroke-width="0.5" stroke-miterlimit="10" stroke-linecap="round" stroke-linejoin="round"/>
<path d="M11.9658 130.652C11.5328 130.731 11.0945 130.765 10.7304 130.697C9.54707 130.477 8.34061 129.811 8.34061 129.811" fill="#99BB44"/>
<path d="M11.9658 130.652C11.5328 130.731 11.0945 130.765 10.7304 130.697C9.54707 130.477 8.34061 129.811 8.34061 129.811" stroke="#1E212B" stroke-width="0.5" stroke-miterlimit="10" stroke-linecap="round" stroke-linejoin="round"/>
<path d="M13.8833 130.065C13.8833 130.065 13.3296 130.305 12.6326 130.497L13.8833 130.065Z" fill="#99BB44"/>
<path d="M13.8833 130.065C13.8833 130.065 13.3296 130.305 12.6326 130.497" stroke="#1E212B" stroke-width="0.5" stroke-miterlimit="10" stroke-linecap="round" stroke-linejoin="round"/>
<path d="M8.24609 128.099C7.9811 128.09 7.71596 128.053 7.46591 127.975C6.12593 127.56 5.43372 127.088 5.43372 127.088" fill="#99BB44"/>
<path d="M8.24609 128.099C7.9811 128.09 7.71596 128.053 7.46591 127.975C6.12593 127.56 5.43372 127.088 5.43372 127.088" stroke="#1E212B" stroke-width="0.5" stroke-miterlimit="10" stroke-linecap="round" stroke-linejoin="round"/>
<path d="M10.5526 127.65C10.5526 127.65 9.79526 127.971 8.89511 128.071L10.5526 127.65Z" fill="#99BB44"/>
<path d="M10.5526 127.65C10.5526 127.65 9.79526 127.971 8.89511 128.071" stroke="#1E212B" stroke-width="0.5" stroke-miterlimit="10" stroke-linecap="round" stroke-linejoin="round"/>
<path d="M13.6182 132.787C13.2778 132.792 12.9354 132.76 12.6076 132.673L13.6182 132.787Z" fill="#99BB44"/>
<path d="M13.6182 132.787C13.2778 132.792 12.9354 132.76 12.6076 132.673" stroke="#1E212B" stroke-width="0.5" stroke-miterlimit="10" stroke-linecap="round" stroke-linejoin="round"/>
<path d="M16.56 132.018C16.56 132.018 15.5251 132.55 14.3041 132.729L16.56 132.018Z" fill="#99BB44"/>
<path d="M16.56 132.018C16.56 132.018 15.5251 132.55 14.3041 132.729" stroke="#1E212B" stroke-width="0.5" stroke-miterlimit="10" stroke-linecap="round" stroke-linejoin="round"/>
</svg>
