<svg width="451" height="449" viewBox="0 0 451 449" fill="none" xmlns="http://www.w3.org/2000/svg">
<path d="M383.959 437.65C383.959 439.274 352.072 440.591 312.739 440.591C273.405 440.591 241.52 439.275 241.52 437.65C241.52 436.027 273.405 434.71 312.739 434.71C352.072 434.71 383.959 436.027 383.959 437.65Z" fill="#263238" stroke="#263238" stroke-miterlimit="10"/>
<path d="M441.893 176.121C440.224 138.374 424.766 102.376 402.053 74.9316C388.765 58.8762 372.94 44.9447 355.799 34.2504C338.01 23.1506 318.659 10.7025 297.559 9.37079C292.353 9.04159 287.035 9.4489 281.959 11.1907C262.523 17.8621 301.998 38.171 307.168 41.1608C252.178 18.8999 195.274 -3.68465 136.029 0.505666C124.605 1.31378 112.79 3.2834 102.933 10.1659C93.0768 17.0484 85.6791 29.9522 87.5566 42.4488C89.1087 52.7786 96.2348 64.148 90.1261 72.4552C88.3796 74.8302 85.8455 76.2828 83.3524 77.5531C70.562 84.0701 56.651 87.7183 44.5952 95.8748C25.9248 108.506 13.6041 131.014 8.28758 154.452C2.97111 177.89 4.00056 202.306 7.08145 225.878C12.8787 270.239 26.3117 314.003 51.8386 347.83C88.2997 396.15 146.383 419.501 203.924 421.82C273.55 424.625 348.078 395.924 392.172 333.589C398.711 324.344 404.656 314.143 406.791 302.742C408.926 291.341 406.572 278.502 398.719 271.31C396.603 269.372 393.893 267.332 394.022 264.214C394.196 259.997 399.043 258.418 402.744 257.417C427.023 250.841 440.079 219.73 441.765 192.071C442.09 186.731 442.126 181.409 441.893 176.121Z" fill="#446622"/>
<path opacity="0.7" d="M441.893 176.121C440.224 138.374 424.766 102.376 402.053 74.9316C388.765 58.8762 372.94 44.9447 355.799 34.2504C338.01 23.1506 318.659 10.7025 297.559 9.37079C292.353 9.04159 287.035 9.4489 281.959 11.1907C262.523 17.8621 301.998 38.171 307.168 41.1608C252.178 18.8999 195.274 -3.68465 136.029 0.505666C124.605 1.31378 112.79 3.2834 102.933 10.1659C93.0768 17.0484 85.6791 29.9522 87.5566 42.4488C89.1087 52.7786 96.2348 64.148 90.1261 72.4552C88.3796 74.8302 85.8455 76.2828 83.3524 77.5531C70.562 84.0701 56.651 87.7183 44.5952 95.8748C25.9248 108.506 13.6041 131.014 8.28758 154.452C2.97111 177.89 4.00056 202.306 7.08145 225.878C12.8787 270.239 26.3117 314.003 51.8386 347.83C88.2997 396.15 146.383 419.501 203.924 421.82C273.55 424.625 348.078 395.924 392.172 333.589C398.711 324.344 404.656 314.143 406.791 302.742C408.926 291.341 406.572 278.502 398.719 271.31C396.603 269.372 393.893 267.332 394.022 264.214C394.196 259.997 399.043 258.418 402.744 257.417C427.023 250.841 440.079 219.73 441.765 192.071C442.09 186.731 442.126 181.409 441.893 176.121Z" fill="white"/>
<path d="M138.5 402.945V326.305H307.233" stroke="#969696" stroke-miterlimit="10" stroke-linecap="round" stroke-linejoin="round"/>
<path d="M308.943 402.639V326.305" stroke="#969696" stroke-miterlimit="10" stroke-linecap="round" stroke-linejoin="round"/>
<path d="M128.926 324.563H55.3657V217.692C55.3657 197.38 71.8331 180.912 92.1458 180.912C112.458 180.912 128.926 197.379 128.926 217.692V324.563Z" stroke="#969696" stroke-miterlimit="10" stroke-linecap="round" stroke-linejoin="round"/>
<path d="M63.2676 217.692H128.797" stroke="#969696" stroke-miterlimit="10" stroke-linecap="round" stroke-linejoin="round"/>
<path d="M90.3752 225.052H69.1465V298.793H90.3752V225.052Z" stroke="#969696" stroke-miterlimit="10" stroke-linecap="round" stroke-linejoin="round"/>
<path d="M123.895 225.052H102.667V298.793H123.895V225.052Z" stroke="#969696" stroke-miterlimit="10" stroke-linecap="round" stroke-linejoin="round"/>
<path d="M90.3752 304.38H69.1465V320.58H90.3752V304.38Z" stroke="#969696" stroke-miterlimit="10" stroke-linecap="round" stroke-linejoin="round"/>
<path d="M123.895 304.38H102.667V320.58H123.895V304.38Z" stroke="#969696" stroke-miterlimit="10" stroke-linecap="round" stroke-linejoin="round"/>
<path d="M96.5205 218.348V323.929" stroke="#969696" stroke-miterlimit="10" stroke-linecap="round" stroke-linejoin="round"/>
<path d="M63.397 324.563V217.692C63.397 199.123 77.1582 183.768 95.0391 181.268" stroke="#969696" stroke-miterlimit="10" stroke-linecap="round" stroke-linejoin="round"/>
<path d="M136.389 326.383H43.6313V334.253H136.389V326.383Z" stroke="#969696" stroke-miterlimit="10" stroke-linecap="round" stroke-linejoin="round"/>
<path d="M139.711 324.728H40.3101C39.8749 324.728 39.5225 325.081 39.5225 325.517C39.5225 325.952 39.8749 326.305 40.3101 326.305H139.711C140.146 326.305 140.499 325.952 140.499 325.517C140.499 325.082 140.146 324.728 139.711 324.728Z" stroke="#969696" stroke-miterlimit="10" stroke-linecap="round" stroke-linejoin="round"/>
<path d="M133.718 335.947H40.9604V343.817H133.718V335.947Z" stroke="#969696" stroke-miterlimit="10" stroke-linecap="round" stroke-linejoin="round"/>
<path d="M137.04 334.293H37.6387C37.2035 334.293 36.8511 334.645 36.8511 335.081C36.8511 335.516 37.2035 335.868 37.6387 335.868H137.04C137.475 335.868 137.828 335.516 137.828 335.081C137.828 334.646 137.475 334.293 137.04 334.293Z" stroke="#969696" stroke-miterlimit="10" stroke-linecap="round" stroke-linejoin="round"/>
<path d="M131.048 345.513H38.29V353.383H131.048V345.513Z" stroke="#969696" stroke-miterlimit="10" stroke-linecap="round" stroke-linejoin="round"/>
<path d="M134.37 343.858H34.9683C34.5331 343.858 34.1807 344.211 34.1807 344.646C34.1807 345.081 34.5331 345.434 34.9683 345.434H134.37C134.805 345.434 135.157 345.081 135.157 344.646C135.157 344.211 134.805 343.858 134.37 343.858Z" stroke="#969696" stroke-miterlimit="10" stroke-linecap="round" stroke-linejoin="round"/>
<path d="M128.377 355.077H35.6191V362.947H128.377V355.077Z" stroke="#969696" stroke-miterlimit="10" stroke-linecap="round" stroke-linejoin="round"/>
<path d="M131.697 353.423H32.2969C31.8617 353.423 31.5093 353.775 31.5093 354.21C31.5093 354.646 31.8617 354.999 32.2979 354.999H131.698C132.133 354.999 132.487 354.646 132.487 354.21C132.486 353.775 132.133 353.423 131.697 353.423Z" stroke="#969696" stroke-miterlimit="10" stroke-linecap="round" stroke-linejoin="round"/>
<path d="M125.705 364.642H32.9473V372.512H125.705V364.642Z" stroke="#969696" stroke-miterlimit="10" stroke-linecap="round" stroke-linejoin="round"/>
<path d="M129.027 362.987H29.6265C29.1913 362.987 28.8389 363.34 28.8389 363.775C28.8389 364.21 29.1913 364.563 29.6275 364.563H129.028C129.463 364.563 129.816 364.211 129.816 363.776C129.816 363.34 129.462 362.987 129.027 362.987Z" stroke="#969696" stroke-miterlimit="10" stroke-linecap="round" stroke-linejoin="round"/>
<path d="M123.034 374.206H30.2764V382.076H123.034V374.206Z" stroke="#969696" stroke-miterlimit="10" stroke-linecap="round" stroke-linejoin="round"/>
<path d="M126.356 372.552H26.9547C26.5194 372.552 26.167 372.904 26.167 373.339C26.167 373.774 26.5194 374.128 26.9547 374.128H126.356C126.791 374.128 127.144 373.775 127.144 373.339C127.144 372.905 126.791 372.552 126.356 372.552Z" stroke="#969696" stroke-miterlimit="10" stroke-linecap="round" stroke-linejoin="round"/>
<path d="M120.363 383.77H27.6055V391.641H120.363V383.77Z" stroke="#969696" stroke-miterlimit="10" stroke-linecap="round" stroke-linejoin="round"/>
<path d="M123.685 382.116H24.2837C23.8485 382.116 23.4951 382.468 23.4951 382.905C23.4951 383.34 23.8476 383.692 24.2837 383.692H123.684C124.119 383.692 124.472 383.34 124.472 382.905C124.473 382.469 124.119 382.116 123.685 382.116Z" stroke="#969696" stroke-miterlimit="10" stroke-linecap="round" stroke-linejoin="round"/>
<path d="M117.692 393.336H24.9341V401.206H117.692V393.336Z" stroke="#969696" stroke-miterlimit="10" stroke-linecap="round" stroke-linejoin="round"/>
<path d="M121.013 391.681H21.6129C21.1776 391.681 20.8252 392.034 20.8252 392.469C20.8252 392.904 21.1786 393.257 21.6129 393.257H121.013C121.448 393.257 121.801 392.904 121.801 392.469C121.802 392.034 121.448 391.681 121.013 391.681Z" stroke="#969696" stroke-miterlimit="10" stroke-linecap="round" stroke-linejoin="round"/>
<path d="M115.021 402.9H22.2627V410.77H115.021V402.9Z" stroke="#969696" stroke-miterlimit="10" stroke-linecap="round" stroke-linejoin="round"/>
<path d="M118.343 401.246H18.9415C18.5063 401.246 18.1538 401.598 18.1538 402.034C18.1538 402.47 18.5063 402.822 18.9415 402.822H118.343C118.778 402.822 119.13 402.47 119.13 402.034C119.13 401.598 118.778 401.246 118.343 401.246Z" stroke="#969696" stroke-miterlimit="10" stroke-linecap="round" stroke-linejoin="round"/>
<path d="M115.021 412.465H22.2627V420.335H115.021V412.465Z" stroke="#969696" stroke-miterlimit="10" stroke-linecap="round" stroke-linejoin="round"/>
<path d="M118.343 410.81H18.9415C18.5063 410.81 18.1538 411.163 18.1538 411.599C18.1538 412.034 18.5063 412.387 18.9415 412.387H118.343C118.778 412.387 119.13 412.034 119.13 411.599C119.13 411.163 118.778 410.81 118.343 410.81Z" stroke="#969696" stroke-miterlimit="10" stroke-linecap="round" stroke-linejoin="round"/>
<path d="M51.6303 294.872H40.2711L12.5449 389.49" stroke="#969696" stroke-miterlimit="10" stroke-linecap="round" stroke-linejoin="round"/>
<path d="M49.3291 295.944V325.075" stroke="#969696" stroke-miterlimit="10" stroke-linecap="round" stroke-linejoin="round"/>
<path d="M45.2168 295.258V324.047" stroke="#969696" stroke-miterlimit="10" stroke-linecap="round" stroke-linejoin="round"/>
<path d="M41.3687 295.258V324.047" stroke="#969696" stroke-miterlimit="10" stroke-linecap="round" stroke-linejoin="round"/>
<path d="M37.9736 303.18V334.293" stroke="#969696" stroke-miterlimit="10" stroke-linecap="round" stroke-linejoin="round"/>
<path d="M34.5781 314.115V343.8" stroke="#969696" stroke-miterlimit="10" stroke-linecap="round" stroke-linejoin="round"/>
<path d="M31.8623 323.849V353.533" stroke="#969696" stroke-miterlimit="10" stroke-linecap="round" stroke-linejoin="round"/>
<path d="M29.146 332.153V363.266" stroke="#969696" stroke-miterlimit="10" stroke-linecap="round" stroke-linejoin="round"/>
<path d="M26.4292 341.887V372.999" stroke="#969696" stroke-miterlimit="10" stroke-linecap="round" stroke-linejoin="round"/>
<path d="M23.7134 351.62V382.733" stroke="#969696" stroke-miterlimit="10" stroke-linecap="round" stroke-linejoin="round"/>
<path d="M20.9976 361.352V392.465" stroke="#969696" stroke-miterlimit="10" stroke-linecap="round" stroke-linejoin="round"/>
<path d="M18.2812 371.086V402.198" stroke="#969696" stroke-miterlimit="10" stroke-linecap="round" stroke-linejoin="round"/>
<path d="M139.393 294.872H131.391L111.861 389.49H128.304V420.244" stroke="#969696" stroke-miterlimit="10" stroke-linecap="round" stroke-linejoin="round"/>
<path d="M137.771 295.944V325.075" stroke="#969696" stroke-miterlimit="10" stroke-linecap="round" stroke-linejoin="round"/>
<path d="M134.875 295.258V324.047" stroke="#969696" stroke-miterlimit="10" stroke-linecap="round" stroke-linejoin="round"/>
<path d="M132.164 295.258V324.047" stroke="#969696" stroke-miterlimit="10" stroke-linecap="round" stroke-linejoin="round"/>
<path d="M129.773 303.18V334.293" stroke="#969696" stroke-miterlimit="10" stroke-linecap="round" stroke-linejoin="round"/>
<path d="M127.38 314.115V343.8" stroke="#969696" stroke-miterlimit="10" stroke-linecap="round" stroke-linejoin="round"/>
<path d="M125.467 323.849V353.533" stroke="#969696" stroke-miterlimit="10" stroke-linecap="round" stroke-linejoin="round"/>
<path d="M123.555 332.153V363.266" stroke="#969696" stroke-miterlimit="10" stroke-linecap="round" stroke-linejoin="round"/>
<path d="M121.641 341.887V372.999" stroke="#969696" stroke-miterlimit="10" stroke-linecap="round" stroke-linejoin="round"/>
<path d="M119.728 351.62V382.733" stroke="#969696" stroke-miterlimit="10" stroke-linecap="round" stroke-linejoin="round"/>
<path d="M117.814 361.352V392.465" stroke="#969696" stroke-miterlimit="10" stroke-linecap="round" stroke-linejoin="round"/>
<path d="M115.902 371.086V402.198" stroke="#969696" stroke-miterlimit="10" stroke-linecap="round" stroke-linejoin="round"/>
<path d="M123.714 390.035V419.861" stroke="#969696" stroke-miterlimit="10" stroke-linecap="round" stroke-linejoin="round"/>
<path d="M318.807 324.563H392.367V217.692C392.367 197.38 375.899 180.912 355.587 180.912C335.274 180.912 318.807 197.379 318.807 217.692V324.563Z" stroke="#969696" stroke-miterlimit="10" stroke-linecap="round" stroke-linejoin="round"/>
<path d="M384.336 324.563V217.692C384.336 199.123 370.575 183.768 352.694 181.268" stroke="#969696" stroke-miterlimit="10" stroke-linecap="round" stroke-linejoin="round"/>
<path d="M318.807 217.692H384.337" stroke="#969696" stroke-miterlimit="10" stroke-linecap="round" stroke-linejoin="round"/>
<path d="M345.914 225.052H324.686V298.793H345.914V225.052Z" stroke="#969696" stroke-miterlimit="10" stroke-linecap="round" stroke-linejoin="round"/>
<path d="M379.433 225.052H358.205V298.793H379.433V225.052Z" stroke="#969696" stroke-miterlimit="10" stroke-linecap="round" stroke-linejoin="round"/>
<path d="M345.914 304.38H324.686V320.58H345.914V304.38Z" stroke="#969696" stroke-miterlimit="10" stroke-linecap="round" stroke-linejoin="round"/>
<path d="M379.433 304.38H358.205V320.58H379.433V304.38Z" stroke="#969696" stroke-miterlimit="10" stroke-linecap="round" stroke-linejoin="round"/>
<path d="M352.059 218.348V323.929" stroke="#969696" stroke-miterlimit="10" stroke-linecap="round" stroke-linejoin="round"/>
<path d="M311.344 334.253H404.102V326.383H311.344V334.253Z" stroke="#969696" stroke-miterlimit="10" stroke-linecap="round" stroke-linejoin="round"/>
<path d="M308.022 324.728H407.422C407.858 324.728 408.211 325.081 408.211 325.517C408.211 325.952 407.859 326.305 407.423 326.305H308.022C307.587 326.305 307.234 325.952 307.234 325.517C307.233 325.082 307.587 324.728 308.022 324.728Z" stroke="#969696" stroke-miterlimit="10" stroke-linecap="round" stroke-linejoin="round"/>
<path d="M314.015 343.818H406.773V335.948H314.015V343.818Z" stroke="#969696" stroke-miterlimit="10" stroke-linecap="round" stroke-linejoin="round"/>
<path d="M310.693 334.293H410.093C410.529 334.293 410.881 334.645 410.881 335.081C410.881 335.516 410.529 335.868 410.093 335.868H310.693C310.258 335.868 309.905 335.516 309.905 335.081C309.905 334.646 310.258 334.293 310.693 334.293Z" stroke="#969696" stroke-miterlimit="10" stroke-linecap="round" stroke-linejoin="round"/>
<path d="M316.686 353.382H409.444V345.512H316.686V353.382Z" stroke="#969696" stroke-miterlimit="10" stroke-linecap="round" stroke-linejoin="round"/>
<path d="M313.365 343.858H412.765C413.2 343.858 413.554 344.211 413.554 344.647C413.554 345.082 413.201 345.435 412.766 345.435H313.365C312.93 345.435 312.577 345.082 312.577 344.647C312.576 344.211 312.929 343.858 313.365 343.858Z" stroke="#969696" stroke-miterlimit="10" stroke-linecap="round" stroke-linejoin="round"/>
<path d="M319.358 362.947H412.116V355.077H319.358V362.947Z" stroke="#969696" stroke-miterlimit="10" stroke-linecap="round" stroke-linejoin="round"/>
<path d="M316.036 353.423H415.437C415.872 353.423 416.225 353.775 416.225 354.21C416.225 354.646 415.872 354.999 415.437 354.999H316.036C315.601 354.999 315.248 354.647 315.248 354.21C315.248 353.775 315.601 353.423 316.036 353.423Z" stroke="#969696" stroke-miterlimit="10" stroke-linecap="round" stroke-linejoin="round"/>
<path d="M322.027 372.511H414.785V364.641H322.027V372.511Z" stroke="#969696" stroke-miterlimit="10" stroke-linecap="round" stroke-linejoin="round"/>
<path d="M318.707 362.987H418.108C418.543 362.987 418.896 363.341 418.896 363.776C418.896 364.211 418.543 364.564 418.108 364.564H318.707C318.271 364.564 317.919 364.212 317.919 363.776C317.919 363.34 318.271 362.987 318.707 362.987Z" stroke="#969696" stroke-miterlimit="10" stroke-linecap="round" stroke-linejoin="round"/>
<path d="M324.699 382.076H417.457V374.206H324.699V382.076Z" stroke="#969696" stroke-miterlimit="10" stroke-linecap="round" stroke-linejoin="round"/>
<path d="M321.377 372.552H420.778C421.214 372.552 421.566 372.904 421.566 373.339C421.566 373.774 421.214 374.128 420.777 374.128H321.377C320.942 374.128 320.589 373.775 320.589 373.34C320.589 372.905 320.942 372.552 321.377 372.552Z" stroke="#969696" stroke-miterlimit="10" stroke-linecap="round" stroke-linejoin="round"/>
<path d="M327.37 391.641H420.128V383.771H327.37V391.641Z" stroke="#969696" stroke-miterlimit="10" stroke-linecap="round" stroke-linejoin="round"/>
<path d="M324.049 382.116H423.449C423.885 382.116 424.237 382.468 424.237 382.905C424.237 383.34 423.885 383.692 423.449 383.692H324.049C323.614 383.692 323.261 383.34 323.261 382.905C323.26 382.469 323.614 382.116 324.049 382.116Z" stroke="#969696" stroke-miterlimit="10" stroke-linecap="round" stroke-linejoin="round"/>
<path d="M330.041 401.205H422.799V393.335H330.041V401.205Z" stroke="#969696" stroke-miterlimit="10" stroke-linecap="round" stroke-linejoin="round"/>
<path d="M326.719 391.681H426.12C426.555 391.681 426.907 392.034 426.907 392.469C426.907 392.904 426.555 393.257 426.12 393.257H326.719C326.284 393.257 325.932 392.904 325.932 392.469C325.931 392.034 326.284 391.681 326.719 391.681Z" stroke="#969696" stroke-miterlimit="10" stroke-linecap="round" stroke-linejoin="round"/>
<path d="M332.713 410.77H425.471V402.9H332.713V410.77Z" stroke="#969696" stroke-miterlimit="10" stroke-linecap="round" stroke-linejoin="round"/>
<path d="M329.391 401.246H428.792C429.227 401.246 429.58 401.598 429.58 402.033C429.58 402.469 429.227 402.821 428.792 402.821H329.391C328.955 402.821 328.602 402.469 328.602 402.033C328.603 401.598 328.955 401.246 329.391 401.246Z" stroke="#969696" stroke-miterlimit="10" stroke-linecap="round" stroke-linejoin="round"/>
<path d="M332.713 420.335H425.471V412.465H332.713V420.335Z" stroke="#969696" stroke-miterlimit="10" stroke-linecap="round" stroke-linejoin="round"/>
<path d="M329.391 410.81H428.792C429.227 410.81 429.58 411.163 429.58 411.598C429.58 412.033 429.227 412.386 428.792 412.386H329.391C328.955 412.386 328.602 412.033 328.602 411.597C328.603 411.163 328.955 410.81 329.391 410.81Z" stroke="#969696" stroke-miterlimit="10" stroke-linecap="round" stroke-linejoin="round"/>
<path d="M396.103 294.872H407.462L435.188 389.49" stroke="#969696" stroke-miterlimit="10" stroke-linecap="round" stroke-linejoin="round"/>
<path d="M398.405 295.944V325.075" stroke="#969696" stroke-miterlimit="10" stroke-linecap="round" stroke-linejoin="round"/>
<path d="M402.516 295.258V324.047" stroke="#969696" stroke-miterlimit="10" stroke-linecap="round" stroke-linejoin="round"/>
<path d="M406.364 295.258V324.047" stroke="#969696" stroke-miterlimit="10" stroke-linecap="round" stroke-linejoin="round"/>
<path d="M409.76 303.18V334.293" stroke="#969696" stroke-miterlimit="10" stroke-linecap="round" stroke-linejoin="round"/>
<path d="M413.155 314.115V343.8" stroke="#969696" stroke-miterlimit="10" stroke-linecap="round" stroke-linejoin="round"/>
<path d="M415.871 323.849V353.533" stroke="#969696" stroke-miterlimit="10" stroke-linecap="round" stroke-linejoin="round"/>
<path d="M418.587 332.153V363.266" stroke="#969696" stroke-miterlimit="10" stroke-linecap="round" stroke-linejoin="round"/>
<path d="M421.303 341.887V372.999" stroke="#969696" stroke-miterlimit="10" stroke-linecap="round" stroke-linejoin="round"/>
<path d="M424.021 351.62V382.733" stroke="#969696" stroke-miterlimit="10" stroke-linecap="round" stroke-linejoin="round"/>
<path d="M426.735 361.352V392.465" stroke="#969696" stroke-miterlimit="10" stroke-linecap="round" stroke-linejoin="round"/>
<path d="M429.452 371.086V402.198" stroke="#969696" stroke-miterlimit="10" stroke-linecap="round" stroke-linejoin="round"/>
<path d="M308.34 294.872H316.342L335.872 389.49H319.43V420.244" stroke="#969696" stroke-miterlimit="10" stroke-linecap="round" stroke-linejoin="round"/>
<path d="M309.961 295.944V325.075" stroke="#969696" stroke-miterlimit="10" stroke-linecap="round" stroke-linejoin="round"/>
<path d="M312.858 295.258V324.047" stroke="#969696" stroke-miterlimit="10" stroke-linecap="round" stroke-linejoin="round"/>
<path d="M315.569 295.258V324.047" stroke="#969696" stroke-miterlimit="10" stroke-linecap="round" stroke-linejoin="round"/>
<path d="M317.96 303.18V334.293" stroke="#969696" stroke-miterlimit="10" stroke-linecap="round" stroke-linejoin="round"/>
<path d="M320.353 314.115V343.8" stroke="#969696" stroke-miterlimit="10" stroke-linecap="round" stroke-linejoin="round"/>
<path d="M322.266 323.849V353.533" stroke="#969696" stroke-miterlimit="10" stroke-linecap="round" stroke-linejoin="round"/>
<path d="M324.179 332.153V363.266" stroke="#969696" stroke-miterlimit="10" stroke-linecap="round" stroke-linejoin="round"/>
<path d="M326.092 341.887V372.999" stroke="#969696" stroke-miterlimit="10" stroke-linecap="round" stroke-linejoin="round"/>
<path d="M328.005 351.62V382.733" stroke="#969696" stroke-miterlimit="10" stroke-linecap="round" stroke-linejoin="round"/>
<path d="M329.919 361.352V392.465" stroke="#969696" stroke-miterlimit="10" stroke-linecap="round" stroke-linejoin="round"/>
<path d="M331.831 371.086V402.198" stroke="#969696" stroke-miterlimit="10" stroke-linecap="round" stroke-linejoin="round"/>
<path d="M324.019 390.035V419.861" stroke="#969696" stroke-miterlimit="10" stroke-linecap="round" stroke-linejoin="round"/>
<path d="M151.038 402.701H128.591V420.289H151.038V402.701Z" stroke="#969696" stroke-miterlimit="10" stroke-linecap="round" stroke-linejoin="round"/>
<path d="M145.131 402.701H134.501V420.289H145.131V402.701Z" stroke="#969696" stroke-miterlimit="10" stroke-linecap="round" stroke-linejoin="round"/>
<path d="M319.422 402.701H296.976V420.289H319.422V402.701Z" stroke="#969696" stroke-miterlimit="10" stroke-linecap="round" stroke-linejoin="round"/>
<path d="M313.513 402.701H302.884V420.289H313.513V402.701Z" stroke="#969696" stroke-miterlimit="10" stroke-linecap="round" stroke-linejoin="round"/>
<path d="M1 420.289H444.423" stroke="#969696" stroke-miterlimit="10" stroke-linecap="round" stroke-linejoin="round"/>
<path d="M211.372 306.614H158.859V193.768L168.287 189.957C179.081 185.593 191.149 185.593 201.944 189.957L211.372 193.768V306.614Z" stroke="#969696" stroke-miterlimit="10" stroke-linecap="round" stroke-linejoin="round"/>
<path d="M208.02 247.956V200.518L199.797 197.194C190.38 193.386 179.852 193.386 170.436 197.194L162.211 200.518V247.956H208.02Z" stroke="#969696" stroke-miterlimit="10" stroke-linecap="round" stroke-linejoin="round"/>
<path d="M211.373 294.067H158.86V306.614H211.373V294.067Z" stroke="#969696" stroke-miterlimit="10" stroke-linecap="round" stroke-linejoin="round"/>
<path d="M162.211 247.956V293.206" stroke="#969696" stroke-miterlimit="10" stroke-linecap="round" stroke-linejoin="round"/>
<path d="M208.021 247.956V294.067" stroke="#969696" stroke-miterlimit="10" stroke-linecap="round" stroke-linejoin="round"/>
<path d="M162.211 217.231H208.579" stroke="#969696" stroke-miterlimit="10" stroke-linecap="round" stroke-linejoin="round"/>
<path d="M199.081 223.934L177.015 246.001" stroke="#969696" stroke-miterlimit="10" stroke-linecap="round" stroke-linejoin="round"/>
<path d="M189.026 226.169L183.719 231.476" stroke="#969696" stroke-miterlimit="10" stroke-linecap="round" stroke-linejoin="round"/>
<path d="M119.086 125.678H66.5732V12.832L76.001 9.02114C86.7957 4.65693 98.8636 4.65693 109.658 9.02114L119.086 12.832V125.678Z" stroke="#969696" stroke-miterlimit="10" stroke-linecap="round" stroke-linejoin="round"/>
<path d="M115.733 67.0206V19.5825L107.51 16.2579C98.0931 12.4508 87.5653 12.4508 78.1487 16.2579L69.9243 19.5825V67.0206H115.733Z" stroke="#969696" stroke-miterlimit="10" stroke-linecap="round" stroke-linejoin="round"/>
<path d="M119.086 113.132H66.5732V125.678H119.086V113.132Z" stroke="#969696" stroke-miterlimit="10" stroke-linecap="round" stroke-linejoin="round"/>
<path d="M69.9243 67.0206V112.271" stroke="#969696" stroke-miterlimit="10" stroke-linecap="round" stroke-linejoin="round"/>
<path d="M115.733 67.0206V113.132" stroke="#969696" stroke-miterlimit="10" stroke-linecap="round" stroke-linejoin="round"/>
<path d="M69.9243 36.2944H116.292" stroke="#969696" stroke-miterlimit="10" stroke-linecap="round" stroke-linejoin="round"/>
<path d="M106.796 42.9984L84.729 65.0649" stroke="#969696" stroke-miterlimit="10" stroke-linecap="round" stroke-linejoin="round"/>
<path d="M96.7393 45.233L91.4321 50.5402" stroke="#969696" stroke-miterlimit="10" stroke-linecap="round" stroke-linejoin="round"/>
<path d="M206.575 125.678H154.062V12.832L163.49 9.02114C174.285 4.65693 186.353 4.65693 197.148 9.02114L206.575 12.832V125.678Z" stroke="#969696" stroke-miterlimit="10" stroke-linecap="round" stroke-linejoin="round"/>
<path d="M203.223 67.0206V19.5825L194.999 16.2579C185.582 12.4508 175.055 12.4508 165.638 16.2579L157.414 19.5825V67.0206H203.223Z" stroke="#969696" stroke-miterlimit="10" stroke-linecap="round" stroke-linejoin="round"/>
<path d="M206.575 113.132H154.062V125.678H206.575V113.132Z" stroke="#969696" stroke-miterlimit="10" stroke-linecap="round" stroke-linejoin="round"/>
<path d="M157.414 67.0206V112.271" stroke="#969696" stroke-miterlimit="10" stroke-linecap="round" stroke-linejoin="round"/>
<path d="M203.223 67.0206V113.132" stroke="#969696" stroke-miterlimit="10" stroke-linecap="round" stroke-linejoin="round"/>
<path d="M157.414 36.2944H203.782" stroke="#969696" stroke-miterlimit="10" stroke-linecap="round" stroke-linejoin="round"/>
<path d="M194.285 42.9984L172.218 65.0649" stroke="#969696" stroke-miterlimit="10" stroke-linecap="round" stroke-linejoin="round"/>
<path d="M184.229 45.233L178.921 50.5402" stroke="#969696" stroke-miterlimit="10" stroke-linecap="round" stroke-linejoin="round"/>
<path d="M294.065 125.678H241.552V12.832L250.979 9.02114C261.774 4.65693 273.842 4.65693 284.637 9.02114L294.065 12.832V125.678Z" stroke="#969696" stroke-miterlimit="10" stroke-linecap="round" stroke-linejoin="round"/>
<path d="M290.713 67.0206V19.5825L282.489 16.2579C273.072 12.4508 262.544 12.4508 253.128 16.2579L244.904 19.5825V67.0206H290.713Z" stroke="#969696" stroke-miterlimit="10" stroke-linecap="round" stroke-linejoin="round"/>
<path d="M294.065 113.132H241.552V125.678H294.065V113.132Z" stroke="#969696" stroke-miterlimit="10" stroke-linecap="round" stroke-linejoin="round"/>
<path d="M244.904 67.0206V112.271" stroke="#969696" stroke-miterlimit="10" stroke-linecap="round" stroke-linejoin="round"/>
<path d="M290.713 67.0206V113.132" stroke="#969696" stroke-miterlimit="10" stroke-linecap="round" stroke-linejoin="round"/>
<path d="M244.904 36.2944H291.272" stroke="#969696" stroke-miterlimit="10" stroke-linecap="round" stroke-linejoin="round"/>
<path d="M281.773 42.9984L259.707 65.0649" stroke="#969696" stroke-miterlimit="10" stroke-linecap="round" stroke-linejoin="round"/>
<path d="M271.719 45.233L266.412 50.5402" stroke="#969696" stroke-miterlimit="10" stroke-linecap="round" stroke-linejoin="round"/>
<path d="M381.554 125.678H329.041V12.832L338.469 9.02114C349.263 4.65693 361.331 4.65693 372.126 9.02114L381.554 12.832V125.678Z" stroke="#969696" stroke-miterlimit="10" stroke-linecap="round" stroke-linejoin="round"/>
<path d="M378.202 67.0206V19.5825L369.977 16.2579C360.561 12.4508 350.033 12.4508 340.616 16.2579L332.392 19.5825V67.0206H378.202Z" stroke="#969696" stroke-miterlimit="10" stroke-linecap="round" stroke-linejoin="round"/>
<path d="M381.554 113.132H329.041V125.678H381.554V113.132Z" stroke="#969696" stroke-miterlimit="10" stroke-linecap="round" stroke-linejoin="round"/>
<path d="M332.393 67.0206V112.271" stroke="#969696" stroke-miterlimit="10" stroke-linecap="round" stroke-linejoin="round"/>
<path d="M378.203 67.0206V113.132" stroke="#969696" stroke-miterlimit="10" stroke-linecap="round" stroke-linejoin="round"/>
<path d="M332.393 36.2944H378.761" stroke="#969696" stroke-miterlimit="10" stroke-linecap="round" stroke-linejoin="round"/>
<path d="M369.263 42.9984L347.197 65.0649" stroke="#969696" stroke-miterlimit="10" stroke-linecap="round" stroke-linejoin="round"/>
<path d="M359.209 45.233L353.902 50.5402" stroke="#969696" stroke-miterlimit="10" stroke-linecap="round" stroke-linejoin="round"/>
<path d="M211.372 420.289H158.859V348.223L168.287 344.413C179.081 340.048 191.149 340.048 201.944 344.413L211.372 348.223V420.289Z" stroke="#969696" stroke-miterlimit="10" stroke-linecap="round" stroke-linejoin="round"/>
<path d="M208.02 402.412V354.974L199.797 351.649C190.38 347.842 179.852 347.842 170.436 351.649L162.211 354.974V402.412H208.02Z" stroke="#969696" stroke-miterlimit="10" stroke-linecap="round" stroke-linejoin="round"/>
<path d="M211.373 414.446H158.86V420.289H211.373V414.446Z" stroke="#969696" stroke-miterlimit="10" stroke-linecap="round" stroke-linejoin="round"/>
<path d="M162.211 402.412V413.585" stroke="#969696" stroke-miterlimit="10" stroke-linecap="round" stroke-linejoin="round"/>
<path d="M208.021 402.412V414.446" stroke="#969696" stroke-miterlimit="10" stroke-linecap="round" stroke-linejoin="round"/>
<path d="M162.211 371.687H207.897" stroke="#969696" stroke-miterlimit="10" stroke-linecap="round" stroke-linejoin="round"/>
<path d="M199.081 378.391L177.015 400.457" stroke="#969696" stroke-miterlimit="10" stroke-linecap="round" stroke-linejoin="round"/>
<path d="M189.026 380.625L183.719 385.933" stroke="#969696" stroke-miterlimit="10" stroke-linecap="round" stroke-linejoin="round"/>
<path d="M286.698 306.614H234.186V193.768L243.613 189.957C254.408 185.593 266.476 185.593 277.271 189.957L286.698 193.768V306.614Z" stroke="#969696" stroke-miterlimit="10" stroke-linecap="round" stroke-linejoin="round"/>
<path d="M283.345 247.956V200.518L275.121 197.194C265.704 193.386 255.177 193.386 245.76 197.194L237.536 200.518V247.956H283.345Z" stroke="#969696" stroke-miterlimit="10" stroke-linecap="round" stroke-linejoin="round"/>
<path d="M286.698 294.067H234.186V306.614H286.698V294.067Z" stroke="#969696" stroke-miterlimit="10" stroke-linecap="round" stroke-linejoin="round"/>
<path d="M237.536 247.956V293.206" stroke="#969696" stroke-miterlimit="10" stroke-linecap="round" stroke-linejoin="round"/>
<path d="M283.345 247.956V294.067" stroke="#969696" stroke-miterlimit="10" stroke-linecap="round" stroke-linejoin="round"/>
<path d="M237.536 217.231H283.904" stroke="#969696" stroke-miterlimit="10" stroke-linecap="round" stroke-linejoin="round"/>
<path d="M274.407 223.934L252.341 246.001" stroke="#969696" stroke-miterlimit="10" stroke-linecap="round" stroke-linejoin="round"/>
<path d="M264.351 226.169L259.043 231.476" stroke="#969696" stroke-miterlimit="10" stroke-linecap="round" stroke-linejoin="round"/>
<path d="M286.698 420.289H234.186V348.223L243.613 344.413C254.408 340.048 266.476 340.048 277.271 344.413L286.698 348.223V420.289Z" stroke="#969696" stroke-miterlimit="10" stroke-linecap="round" stroke-linejoin="round"/>
<path d="M283.345 402.412V354.974L275.121 351.649C265.704 347.842 255.177 347.842 245.76 351.649L237.536 354.974V402.412H283.345Z" stroke="#969696" stroke-miterlimit="10" stroke-linecap="round" stroke-linejoin="round"/>
<path d="M286.698 414.446H234.186V420.289H286.698V414.446Z" stroke="#969696" stroke-miterlimit="10" stroke-linecap="round" stroke-linejoin="round"/>
<path d="M237.536 402.412V413.585" stroke="#969696" stroke-miterlimit="10" stroke-linecap="round" stroke-linejoin="round"/>
<path d="M283.345 402.412V414.446" stroke="#969696" stroke-miterlimit="10" stroke-linecap="round" stroke-linejoin="round"/>
<path d="M237.536 371.687H283.221" stroke="#969696" stroke-miterlimit="10" stroke-linecap="round" stroke-linejoin="round"/>
<path d="M274.407 378.391L252.341 400.457" stroke="#969696" stroke-miterlimit="10" stroke-linecap="round" stroke-linejoin="round"/>
<path d="M264.351 380.625L259.043 385.933" stroke="#969696" stroke-miterlimit="10" stroke-linecap="round" stroke-linejoin="round"/>
<path d="M138.43 353.54H158.302" stroke="#969696" stroke-miterlimit="10" stroke-linecap="round" stroke-linejoin="round"/>
<path d="M286.698 353.54H309.043" stroke="#969696" stroke-miterlimit="10" stroke-linecap="round" stroke-linejoin="round"/>
<path d="M211.372 353.54H233.626" stroke="#969696" stroke-miterlimit="10" stroke-linecap="round" stroke-linejoin="round"/>
<path d="M138.43 375.327H158.302" stroke="#969696" stroke-miterlimit="10" stroke-linecap="round" stroke-linejoin="round"/>
<path d="M286.698 375.327H309.043" stroke="#969696" stroke-miterlimit="10" stroke-linecap="round" stroke-linejoin="round"/>
<path d="M211.372 375.327H233.626" stroke="#969696" stroke-miterlimit="10" stroke-linecap="round" stroke-linejoin="round"/>
<path d="M138.43 397.115H158.302" stroke="#969696" stroke-miterlimit="10" stroke-linecap="round" stroke-linejoin="round"/>
<path d="M286.698 397.115H309.043" stroke="#969696" stroke-miterlimit="10" stroke-linecap="round" stroke-linejoin="round"/>
<path d="M211.372 397.115H233.626" stroke="#969696" stroke-miterlimit="10" stroke-linecap="round" stroke-linejoin="round"/>
<path d="M230.834 306.614H215.283V312.759H230.834V306.614Z" stroke="#969696" stroke-miterlimit="10" stroke-linecap="round" stroke-linejoin="round"/>
<path d="M98.4917 169.765V174.3C112.228 175.197 123.953 183.448 129.776 195.155V169.765H98.4917Z" stroke="#969696" stroke-miterlimit="10" stroke-linecap="round" stroke-linejoin="round"/>
<path d="M85.6425 169.765H54.3584V195.155C60.1817 183.448 71.9064 175.197 85.6425 174.3V169.765Z" stroke="#969696" stroke-miterlimit="10" stroke-linecap="round" stroke-linejoin="round"/>
<path d="M361.557 169.765V174.3C375.293 175.197 387.017 183.448 392.841 195.155V169.765H361.557Z" stroke="#969696" stroke-miterlimit="10" stroke-linecap="round" stroke-linejoin="round"/>
<path d="M348.707 169.765H317.423V195.155C323.248 183.448 334.971 175.197 348.707 174.3V169.765Z" stroke="#969696" stroke-miterlimit="10" stroke-linecap="round" stroke-linejoin="round"/>
<path d="M145.41 325.049V161.925" stroke="#969696" stroke-miterlimit="10" stroke-linecap="round" stroke-linejoin="round"/>
<path d="M300.664 325.049V161.925" stroke="#969696" stroke-miterlimit="10" stroke-linecap="round" stroke-linejoin="round"/>
<path d="M184.581 160.983H420.923" stroke="#969696" stroke-miterlimit="10" stroke-linecap="round" stroke-linejoin="round"/>
<path d="M25.6602 160.983H178.062" stroke="#969696" stroke-miterlimit="10" stroke-linecap="round" stroke-linejoin="round"/>
<path d="M402.726 135.422H420.922" stroke="#969696" stroke-miterlimit="10" stroke-linecap="round" stroke-linejoin="round"/>
<path d="M25.6602 135.422H396.642" stroke="#969696" stroke-miterlimit="10" stroke-linecap="round" stroke-linejoin="round"/>
<path d="M313.06 239.266C313.06 278.876 289.629 310.987 260.724 310.987C231.82 310.987 208.388 278.876 208.388 239.266C208.388 199.656 231.82 63.5184 260.724 63.5184C289.629 63.5175 313.06 199.655 313.06 239.266Z" fill="#446622"/>
<path opacity="0.3" d="M313.06 239.266C313.06 278.876 289.629 310.987 260.724 310.987C231.82 310.987 208.388 278.876 208.388 239.266C208.388 199.656 231.82 63.5184 260.724 63.5184C289.629 63.5175 313.06 199.655 313.06 239.266Z" fill="white"/>
<path d="M232.453 242.826L249.146 248.649L257.414 259.889L255.968 294.305L246.346 287.775L255.67 301.428L253.484 420.131H263.695L262.347 275.271L290.07 259.989L274.223 265.85L277.402 256.311L269.826 267.477L262.262 270.274L261.722 238.948L289.253 202.371L274.498 217.125L276.994 206.866L269.936 221.688L261.568 230.056L260.724 181.114L257.726 252.493L231.635 224.846L245.967 244.328L232.453 242.826Z" fill="#8C8C8C"/>
<path d="M289.516 181.268C289.516 181.268 290 186.077 287.372 189.606C284.744 193.136 279.999 194.05 279.999 194.05C279.999 194.05 279.514 189.243 282.143 185.713C284.771 182.183 289.516 181.268 289.516 181.268Z" fill="white"/>
<path d="M305.29 203.432C305.29 203.432 305.775 208.239 303.146 211.77C300.518 215.3 295.772 216.214 295.772 216.214C295.772 216.214 295.288 211.405 297.917 207.876C300.545 204.346 305.29 203.432 305.29 203.432Z" fill="#99BB44"/>
<path d="M305.283 246.582C305.283 246.582 304.121 251.272 300.458 253.712C296.795 256.151 292.019 255.414 292.019 255.414C292.019 255.414 293.181 250.724 296.845 248.285C300.507 245.846 305.283 246.582 305.283 246.582Z" fill="white"/>
<path d="M218.653 246.582C218.653 246.582 219.816 251.272 223.478 253.712C227.141 256.151 231.917 255.414 231.917 255.414C231.917 255.414 230.755 250.724 227.092 248.285C223.429 245.846 218.653 246.582 218.653 246.582Z" fill="white"/>
<path d="M287.065 228.67C287.065 228.67 287.548 233.479 284.92 237.008C282.292 240.538 277.547 241.452 277.547 241.452C277.547 241.452 277.063 236.644 279.691 233.114C282.319 229.585 287.065 228.67 287.065 228.67Z" fill="white"/>
<path d="M282.978 157.159C282.978 157.159 283.461 161.967 280.833 165.497C278.205 169.027 273.46 169.941 273.46 169.941C273.46 169.941 272.975 165.132 275.604 161.603C278.233 158.074 282.978 157.159 282.978 157.159Z" fill="white"/>
<path d="M273.579 175.547C273.579 175.547 274.063 180.356 271.435 183.885C268.807 187.415 264.061 188.33 264.061 188.33C264.061 188.33 263.578 183.522 266.206 179.993C268.834 176.462 273.579 175.547 273.579 175.547Z" fill="white"/>
<path d="M295.892 162.159C295.892 162.159 296.377 166.967 293.748 170.497C291.119 174.027 286.374 174.941 286.374 174.941C286.374 174.941 285.89 170.133 288.519 166.603C291.147 163.074 295.892 162.159 295.892 162.159Z" fill="#99BB44"/>
<path d="M223.388 162.159C223.388 162.159 222.903 166.967 225.532 170.497C228.16 174.027 232.906 174.941 232.906 174.941C232.906 174.941 233.39 170.133 230.761 166.603C228.133 163.074 223.388 162.159 223.388 162.159Z" fill="#99BB44"/>
<path d="M285.021 134.684C285.021 134.684 285.506 139.493 282.877 143.022C280.249 146.552 275.503 147.466 275.503 147.466C275.503 147.466 275.019 142.657 277.648 139.128C280.277 135.599 285.021 134.684 285.021 134.684Z" fill="white"/>
<path d="M280.402 110.81C280.402 110.81 282.079 115.342 280.422 119.419C278.765 123.496 274.401 125.573 274.401 125.573C274.401 125.573 272.725 121.041 274.382 116.964C276.039 112.887 280.402 110.81 280.402 110.81Z" fill="white"/>
<path d="M247.306 104.572C247.306 104.572 251.587 106.814 253.088 110.951C254.589 115.088 252.74 119.554 252.74 119.554C252.74 119.554 248.459 117.312 246.959 113.174C245.459 109.036 247.306 104.572 247.306 104.572Z" fill="#99BB44"/>
<path d="M262.739 133.12C262.739 133.12 265.789 136.868 265.537 141.262C265.284 145.656 261.824 149.03 261.824 149.03C261.824 149.03 258.775 145.282 259.027 140.888C259.281 136.495 262.739 133.12 262.739 133.12Z" fill="#99BB44"/>
<path d="M261.922 90.6215C261.922 90.6215 264.972 94.3701 264.72 98.7641C264.467 103.158 261.007 106.532 261.007 106.532C261.007 106.532 257.958 102.783 258.21 98.3893C258.463 93.9963 261.922 90.6215 261.922 90.6215Z" fill="white"/>
<path d="M227.284 181.268C227.284 181.268 226.8 186.077 229.429 189.606C232.058 193.135 236.802 194.05 236.802 194.05C236.802 194.05 237.287 189.243 234.658 185.713C232.03 182.183 227.284 181.268 227.284 181.268Z" fill="white"/>
<path d="M218.295 207.421C218.295 207.421 217.811 212.23 220.439 215.759C223.067 219.289 227.813 220.203 227.813 220.203C227.813 220.203 228.297 215.394 225.668 211.864C223.039 208.336 218.295 207.421 218.295 207.421Z" fill="white"/>
<path d="M242.158 216.917C242.158 216.917 241.673 221.725 244.302 225.255C246.93 228.785 251.676 229.699 251.676 229.699C251.676 229.699 252.16 224.89 249.531 221.361C246.903 217.831 242.158 216.917 242.158 216.917Z" fill="white"/>
<path d="M248.683 180.679C248.683 180.679 246.842 185.147 248.35 189.282C249.857 193.416 254.141 195.652 254.141 195.652C254.141 195.652 255.982 191.183 254.475 187.049C252.968 182.913 248.683 180.679 248.683 180.679Z" fill="#99BB44"/>
<path d="M231.784 277.106C231.784 277.106 236.616 277.195 239.918 274.286C243.221 271.377 243.743 266.573 243.743 266.573C243.743 266.573 238.911 266.484 235.609 269.393C232.307 272.301 231.784 277.106 231.784 277.106Z" fill="#99BB44"/>
<path d="M278.15 271.82C278.15 271.82 279.462 276.471 283.202 278.792C286.942 281.112 291.692 280.223 291.692 280.223C291.692 280.223 290.38 275.573 286.64 273.253C282.9 270.931 278.15 271.82 278.15 271.82Z" fill="white"/>
<path d="M237.174 157.159C237.174 157.159 236.691 161.967 239.319 165.497C241.947 169.027 246.692 169.941 246.692 169.941C246.692 169.941 247.177 165.132 244.548 161.603C241.92 158.074 237.174 157.159 237.174 157.159Z" fill="white"/>
<path d="M237.092 135.91C237.092 135.91 236.607 140.717 239.236 144.247C241.864 147.778 246.61 148.692 246.61 148.692C246.61 148.692 247.094 143.883 244.465 140.354C241.837 136.825 237.092 135.91 237.092 135.91Z" fill="white"/>
<path d="M185.242 435.501C185.242 437.183 152.206 438.548 111.455 438.548C70.7032 438.548 37.668 437.183 37.668 435.501C37.668 433.819 70.7041 432.455 111.455 432.455C152.207 432.455 185.242 433.819 185.242 435.501Z" fill="#263238" stroke="#263238" stroke-miterlimit="10"/>
<path d="M69.9451 397.861C69.9451 397.861 63.8308 415.021 63.8308 416.599C63.8308 418.177 65.4089 422.122 66.7899 423.503C68.1708 424.884 70.3404 425.673 68.7623 427.251C67.1841 428.829 64.8175 428.632 63.4365 427.842C62.0555 427.053 57.5193 421.53 55.1517 417.388C52.785 413.246 50.2202 405.158 50.2202 405.158L47.6563 405.75L42.3306 393.717C42.3306 393.717 48.0506 389.378 51.0097 388.588C53.9688 387.8 55.744 386.813 55.744 386.813L69.9451 397.861Z" fill="#263238" stroke="#263238" stroke-miterlimit="10"/>
<path d="M99.9265 313.636L101.702 339.278C101.702 339.278 96.5731 342.435 97.5598 343.816C98.5465 345.196 99.1379 347.563 99.1379 347.563L97.3627 349.536L95.9817 352.297C95.9817 352.297 90.6559 351.903 89.275 353.678C87.894 355.454 63.4356 382.871 63.4356 382.871C63.4356 382.871 57.9127 381.884 57.3213 383.068C56.7298 384.252 55.7432 386.816 55.7432 386.816C55.7432 386.816 67.5785 397.862 68.17 399.243C68.7614 400.624 70.3395 399.44 71.3262 399.046C72.3128 398.651 75.271 395.298 76.8491 393.523C78.4272 391.747 96.3769 375.967 96.3769 375.967C96.3769 375.967 114.918 363.54 116.89 359.596C118.863 355.651 114.721 318.568 112.946 315.807C111.169 313.045 101.307 310.086 99.9265 313.636Z" fill="#446622" stroke="#263238" stroke-miterlimit="10" stroke-linecap="round" stroke-linejoin="round"/>
<path d="M101.094 316.708L111.158 364.035L118.774 358.323L105.446 313.716L101.094 316.708Z" fill="#263238" stroke="#263238" stroke-miterlimit="10"/>
<path d="M118.862 427.252C118.862 427.252 118.665 436.325 119.453 436.522C120.242 436.719 134.05 436.522 134.05 436.522C134.05 436.522 137.206 437.312 141.151 437.114C145.095 436.916 160.283 437.311 161.27 437.114C162.256 436.916 162.848 434.352 162.058 433.366C161.27 432.38 160.48 431.985 158.902 431.788C157.324 431.591 149.829 428.04 147.856 426.265C145.884 424.49 138.389 418.375 138.389 418.375L118.862 427.252Z" fill="#263238" stroke="#263238" stroke-miterlimit="10"/>
<path d="M82.1738 286.81C82.1738 286.81 83.5548 296.87 89.6691 304.366C95.7835 311.861 101.504 319.553 101.504 319.553L116.101 361.961L119.06 417.586C119.06 417.586 116.89 420.939 117.285 422.123C117.679 423.307 118.863 427.252 118.863 427.252C118.863 427.252 120.047 428.238 127.148 425.279C134.249 422.32 138.391 418.375 138.391 418.375C138.391 418.375 139.772 415.219 139.969 412.655C140.166 410.091 138.193 405.16 137.602 403.188C137.011 401.215 137.011 398.453 137.011 398.453L140.561 342.829L135.432 297.856L135.038 284.443C135.038 284.443 123.795 282.865 110.777 283.062C97.7587 283.26 82.1738 286.81 82.1738 286.81Z" fill="#446622" stroke="#263238" stroke-miterlimit="10" stroke-linecap="round" stroke-linejoin="round"/>
<path d="M123.817 405.365C123.684 409.265 123.596 411.867 123.596 411.867" stroke="#263238" stroke-miterlimit="10"/>
<path d="M117.619 320.758C118.514 326.878 119.7 332.997 121.229 337.306C125.568 349.536 126.752 357.819 126.752 357.819C126.752 357.819 125.371 359.792 125.371 360.779C125.371 361.765 126.555 363.935 126.555 363.935C126.555 363.935 127.542 362.159 126.358 365.513C125.174 368.866 124.977 369.458 124.977 370.444C124.977 371.111 124.346 389.789 123.937 401.834" stroke="#263238" stroke-miterlimit="10"/>
<path d="M115.311 298.251C115.311 298.251 115.809 306.704 117.012 316.283" stroke="#263238" stroke-miterlimit="10"/>
<path d="M119.454 364.132C119.454 364.132 131.881 357.425 135.826 352.495" stroke="#263238" stroke-miterlimit="10"/>
<path d="M135.234 356.045C135.234 356.045 127.147 363.738 123.201 366.894" stroke="#263238" stroke-miterlimit="10"/>
<path d="M107.816 288.191L115.311 294.504L119.848 287.994" stroke="#263238" stroke-miterlimit="10"/>
<path d="M118.27 295.489C118.27 295.489 126.357 290.953 129.315 292.333C132.274 293.714 133.26 295.686 133.26 295.686" stroke="#263238" stroke-miterlimit="10"/>
<path d="M118.665 297.857L124.187 297.265" stroke="#263238" stroke-miterlimit="10"/>
<path d="M91.5578 190.048C91.5578 190.048 80.4664 198.12 77.0451 213.005C73.623 227.891 78.0718 284.182 77.9007 285.55C77.7296 286.919 79.954 290.854 82.1784 290.17C84.4028 289.486 125.295 285.55 125.295 285.55C125.295 285.55 131.968 289.828 135.047 286.748C138.127 283.668 138.641 278.878 138.47 273.402C138.298 267.927 130.942 225.667 127.177 218.822C123.413 211.979 111.607 199.147 111.607 199.147L91.5578 190.048Z" fill="#263238" stroke="#263238" stroke-miterlimit="10"/>
<path d="M113.592 193.874L95.6019 184.018L94.6636 179.482C94.6636 179.482 93.7253 177.762 92.1611 176.04C90.597 174.32 89.6577 165.716 93.4128 158.207C97.167 150.698 106.71 151.011 110.934 151.323C115.158 151.637 119.068 156.329 119.068 156.329C119.068 156.329 121.728 161.023 122.666 163.056C123.604 165.089 122.666 166.184 122.979 167.123C123.292 168.061 126.577 172.911 125.951 174.475C125.326 176.039 123.448 176.979 123.448 176.979C123.448 176.979 123.136 183.236 122.196 185.896C121.258 188.555 120.163 188.868 119.537 189.024C118.91 189.181 113.592 193.874 113.592 193.874Z" fill="white" stroke="#263238" stroke-miterlimit="10"/>
<path d="M93.842 178.179C94.8733 177.931 96.2236 177.344 97.6353 176.197C100.139 174.163 104.205 166.967 104.205 166.967L107.021 166.811C107.021 166.811 109.524 164.777 109.993 163.213C110.463 161.649 108.273 161.179 107.647 160.553C107.021 159.927 110.463 156.642 110.619 154.765C110.775 152.888 109.524 151.323 109.524 151.323L109.488 151.237C104.826 151.029 96.7834 151.461 93.4105 158.207C89.6564 165.715 90.5947 174.32 92.1588 176.04C92.8572 176.807 93.4217 177.565 93.842 178.179Z" fill="#263238" stroke="#263238" stroke-miterlimit="10"/>
<path d="M106.24 170.252C106.24 170.252 104.676 163.995 102.016 165.403C99.3563 166.811 98.5742 171.347 100.764 173.85C102.954 176.353 104.675 177.292 105.614 175.258" fill="white"/>
<path d="M106.24 170.252C106.24 170.252 104.676 163.995 102.016 165.403C99.3563 166.811 98.5742 171.347 100.764 173.85C102.954 176.353 104.675 177.292 105.614 175.258" stroke="#263238" stroke-miterlimit="10"/>
<path d="M121.1 168.297C121.1 169.29 120.75 170.096 120.318 170.096C119.887 170.096 119.536 169.291 119.536 168.297C119.536 167.304 119.887 166.497 120.318 166.497C120.751 166.498 121.1 167.304 121.1 168.297Z" fill="#263238"/>
<path d="M122.04 165.09C122.04 165.09 120.319 162.9 117.66 165.246" stroke="#263238" stroke-miterlimit="10"/>
<path d="M122.039 178.387C122.039 178.387 119.223 178.856 117.972 176.353" stroke="#263238" stroke-miterlimit="10"/>
<path d="M121.57 170.878C121.57 170.878 120.632 172.442 119.38 172.756" stroke="#263238" stroke-miterlimit="10"/>
<path d="M104.206 166.967L123.469 166.577" stroke="#263238" stroke-miterlimit="10"/>
<path d="M123.479 165.09H122.039V171.376H123.479V165.09Z" fill="#263238"/>
<path d="M123.469 166.577V167.745L105.136 167.566" fill="#263238"/>
<path d="M123.469 166.577V167.745L105.136 167.566" stroke="#263238" stroke-miterlimit="10"/>
<path d="M94.9887 182.697L91.5581 190.048L110.426 200.584L114.469 193.601L94.9887 182.697Z" fill="white" stroke="#263238" stroke-miterlimit="10"/>
<path d="M133.186 213.231C136.561 213.231 139.297 210.495 139.297 207.12C139.297 203.745 136.561 201.008 133.186 201.008C129.81 201.008 127.074 203.745 127.074 207.12C127.074 210.495 129.81 213.231 133.186 213.231Z" fill="#B8B8B8" stroke="#263238" stroke-miterlimit="10" stroke-linecap="round" stroke-linejoin="round"/>
<path d="M144.757 212.742C148.132 212.742 150.869 210.006 150.869 206.631C150.869 203.255 148.132 200.519 144.757 200.519C141.382 200.519 138.646 203.255 138.646 206.631C138.646 210.006 141.382 212.742 144.757 212.742Z" fill="#446622" stroke="#263238" stroke-miterlimit="10" stroke-linecap="round" stroke-linejoin="round"/>
<path d="M122.265 215.513C125.641 215.513 128.377 212.777 128.377 209.402C128.377 206.027 125.641 203.29 122.265 203.29C118.89 203.29 116.154 206.027 116.154 209.402C116.154 212.777 118.89 215.513 122.265 215.513Z" fill="#99BB44" stroke="#263238" stroke-miterlimit="10" stroke-linecap="round" stroke-linejoin="round"/>
<path d="M145.134 198.935C145.134 198.935 144.076 201.139 142.665 203.521C141.255 205.902 135.754 209.868 136.669 215.513C138.028 223.89 147.958 224.618 151.306 220.274C155.733 214.53 152.629 205.019 152.54 202.638C152.452 200.258 152.276 198.141 152.276 198.141L148.485 196.995C148.485 196.995 147.161 196.378 145.134 198.935Z" fill="#263238" stroke="#263238" stroke-miterlimit="10" stroke-linecap="round" stroke-linejoin="round"/>
<path d="M151.218 195.849C151.218 195.849 151.394 192.233 150.689 193.028C149.984 193.821 149.895 195.056 149.366 195.585C148.837 196.114 147.515 195.762 146.721 196.202C145.928 196.643 145.046 198.671 145.134 198.935C145.222 199.2 148.573 197.701 149.014 197.965C149.455 198.231 149.719 200.787 150.16 201.228C150.601 201.668 151.836 199.111 151.836 199.111C151.836 199.111 152.013 201.315 152.454 200.258C152.894 199.2 153.51 197.083 151.218 195.849Z" fill="#99BB44" stroke="#263238" stroke-miterlimit="10" stroke-linecap="round" stroke-linejoin="round"/>
<path opacity="0.56" d="M143.306 214.041C142.793 216.469 141.06 218.159 139.438 217.816C137.815 217.473 136.915 215.226 137.428 212.798C137.941 210.37 139.674 208.68 141.296 209.023C142.92 209.367 143.819 211.614 143.306 214.041Z" fill="white"/>
<path opacity="0.56" d="M146.268 199.889C146.268 199.889 144.552 203.215 142.942 205.36C141.332 207.506 141.01 208.15 141.654 208.257C142.297 208.364 144.336 209.652 144.766 207.399C145.195 205.146 148.521 200.425 148.306 199.459C148.092 198.495 147.448 198.602 146.268 199.889Z" fill="white"/>
<path opacity="0.56" d="M149.594 201.927C149.594 201.927 147.449 206.862 146.913 211.905C146.376 216.948 150.131 217.377 151.204 214.802C152.277 212.227 151.419 203.859 151.419 202.464C151.418 201.07 150.345 200.962 149.594 201.927Z" fill="white"/>
<path d="M105.317 207.015C105.317 207.015 102.936 254.257 103.729 258.227C104.523 262.196 104.721 264.578 104.721 264.578L156.33 260.608C156.33 260.608 155.933 217.336 155.735 216.145C155.536 214.954 154.743 205.624 154.743 205.624L105.317 207.015Z" fill="#446622" stroke="#263238" stroke-miterlimit="10" stroke-linecap="round" stroke-linejoin="round"/>
<path d="M104.372 227.586C103.814 240.862 103.294 256.05 103.729 258.227C104.523 262.196 104.722 264.578 104.722 264.578L156.33 260.608C156.33 260.608 156.325 259.965 156.314 258.84L106.707 261.005L104.372 227.586Z" fill="#446622" stroke="#263238" stroke-miterlimit="10" stroke-linecap="round" stroke-linejoin="round"/>
<path d="M141.548 242.434C141.548 242.434 145.826 238.499 146.853 238.328C147.879 238.157 150.275 238.157 151.13 237.643C151.986 237.13 154.21 236.274 153.355 238.499C152.499 240.723 151.473 242.263 150.446 242.434C149.419 242.605 148.564 243.119 148.564 243.119C148.564 243.119 156.263 247.054 156.947 248.593C157.632 250.133 157.974 251.331 157.289 251.844C156.605 252.358 154.723 252.871 154.723 252.871C154.723 252.871 157.803 255.095 157.289 256.807C156.776 258.518 156.434 259.031 155.578 259.031C154.723 259.031 153.696 259.373 153.696 259.373C153.696 259.373 154.038 261.084 152.841 262.111C151.643 263.138 150.616 263.309 150.103 262.453C149.59 261.598 148.563 260.229 148.563 260.229C148.563 260.229 150.103 262.453 147.194 263.138C146.181 263.376 143.259 258.347 143.259 258.347L137.099 254.411L141.548 242.434Z" fill="white" stroke="#263238" stroke-miterlimit="10"/>
<path d="M153.696 259.372L152.331 257.047L154.602 258.02" stroke="#263238" stroke-miterlimit="10"/>
<path d="M148.563 243.119L146.979 240.988" stroke="#263238" stroke-miterlimit="10"/>
<path d="M103.052 201.371C103.052 201.371 97.2345 195.553 88.851 198.804C80.4676 202.055 78.4143 215.914 79.2699 219.164C80.1254 222.415 82.1787 225.324 82.1787 225.324C82.1787 225.324 89.7066 249.791 93.8132 251.502C97.9198 253.213 109.041 253.555 110.068 253.555C111.094 253.555 111.779 254.411 113.661 253.898C115.543 253.384 117.425 252.7 117.425 252.7L133.851 255.095C133.851 255.095 138.813 255.78 139.839 253.384C140.864 250.989 141.721 242.948 141.55 242.434C141.379 241.921 131.626 240.21 131.626 240.21C131.626 240.21 128.718 236.959 127.178 236.445C125.638 235.932 122.387 237.643 121.702 237.814C121.018 237.985 105.619 229.602 105.619 229.602C105.619 229.602 106.303 228.918 105.277 227.378C104.25 225.838 104.25 225.838 104.25 225.838L105.448 205.306L103.052 201.371Z" fill="white" stroke="#263238" stroke-miterlimit="10"/>
<path d="M93.6357 235.899C93.6357 235.899 98.5672 229.928 102.981 229.669" stroke="#263238" stroke-miterlimit="10"/>
<path d="M102.46 227.074C102.46 227.074 96.2308 222.402 88.9624 224.478" stroke="#263238" stroke-miterlimit="10"/>
<path d="M117.86 203.302C118.892 204.644 119.543 205.667 119.933 206.417H122.515C122.258 206.061 121.452 204.679 122.755 202.797C124.274 200.602 125.455 197.733 124.274 198.071C123.092 198.408 121.911 200.771 121.911 200.771C121.911 200.771 121.742 193.681 120.392 194.356C119.041 195.032 118.704 196.889 118.704 196.889C118.704 196.889 115.345 193.329 114.468 193.601C113.591 193.874 114.146 195.876 114.146 195.876C114.146 195.876 109.758 193.175 108.238 194.188C106.719 195.201 110.433 197.564 110.095 198.071C109.758 198.577 105.707 195.708 103.85 197.226C101.993 198.746 103.512 199.927 103.512 199.927C103.512 199.927 96.7599 197.564 95.5789 199.252C94.3969 200.939 98.617 201.109 98.617 201.784C98.617 202.459 92.3715 204.316 93.0466 206.341C93.7218 208.367 98.2794 205.159 99.2921 204.822C100.305 204.484 104.187 201.952 108.745 201.784C113.303 201.615 116.172 201.108 117.86 203.302Z" fill="#446622" stroke="#263238" stroke-miterlimit="10" stroke-linecap="round" stroke-linejoin="round"/>
<path d="M110.619 206.585H117.62C117.699 206.023 116.114 205.212 113.403 202.886C108.541 198.716 105.975 196.64 107.833 199.848C109.69 203.055 109.52 204.743 109.52 204.743C109.52 204.743 104.288 198.835 102.937 201.198C101.587 203.561 105.47 204.405 105.47 204.405C105.47 204.405 96.8611 204.236 95.6791 206.768C94.4972 209.301 99.0548 208.288 99.0548 208.288C99.0548 208.288 97.5353 210.313 98.0421 212.339C98.5489 214.364 101.418 210.988 101.418 210.988C101.418 210.988 99.8983 219.429 102.6 218.078C105.3 216.728 105.975 211.158 105.975 211.158C105.975 211.158 107.663 212.677 108.676 210.145C109.291 208.61 110.084 207.828 110.618 207.444V206.585H110.619Z" fill="#446622" stroke="#263238" stroke-miterlimit="10" stroke-linecap="round" stroke-linejoin="round"/>
<path d="M316.37 350.989C316.37 350.989 306.373 373.993 306.46 375.079C306.546 376.164 308.215 385.678 304.689 393.969C301.164 402.258 287.873 431.896 286.932 433.791C285.991 435.687 285.549 436.996 284.102 437.111C282.655 437.227 276.941 434.042 274.365 433.702C271.789 433.361 267.862 432.036 266.133 430.9C264.404 429.764 261.597 426.528 263.602 426.551C265.606 426.573 268.529 426.704 270.337 426.56C272.146 426.415 277.153 425.288 279.222 423.849C281.292 422.41 282.182 422.157 282.319 421.6C282.457 421.043 290.112 391.49 290.25 386.383C290.389 381.276 291.434 371.545 291.478 367.536C291.522 363.528 293.538 347.714 294.819 343.243C296.101 338.772 296.868 334.706 296.868 334.706L322.06 335.61L316.37 350.989Z" fill="white" stroke="#1E212B" stroke-miterlimit="10" stroke-linecap="round" stroke-linejoin="round"/>
<path d="M286.931 433.791C285.99 435.686 285.548 436.995 284.102 437.111C282.655 437.226 276.94 434.042 274.364 433.7C271.789 433.36 267.86 432.034 266.132 430.898C264.404 429.762 261.597 426.527 263.601 426.549C265.605 426.572 268.528 426.703 270.336 426.558C272.001 426.426 276.367 425.459 278.667 424.185C278.97 424.638 279.257 425.201 279.38 425.837C279.69 427.451 279.596 428.55 279.596 428.55C279.596 428.55 284.564 430.792 288.187 431.069C287.525 432.526 287.078 433.496 286.931 433.791Z" fill="#446622" stroke="#1E212B" stroke-miterlimit="10" stroke-linecap="round" stroke-linejoin="round"/>
<path d="M304.689 393.968C303.135 397.623 299.683 405.426 296.228 413.173C292.914 412.521 288.598 411.344 285.408 409.304C287.601 400.358 290.171 389.322 290.25 386.382C290.389 381.274 291.434 371.544 291.478 367.536C291.522 363.528 293.538 347.713 294.819 343.242C296.101 338.771 296.868 334.706 296.868 334.706L322.06 335.609L316.369 350.989C316.369 350.989 306.372 373.993 306.459 375.079C306.546 376.164 308.215 385.677 304.689 393.968Z" fill="#1E212B" stroke="#1E212B" stroke-miterlimit="10" stroke-linecap="round" stroke-linejoin="round"/>
<path d="M336.785 330.794L333.975 370.882C333.975 370.882 342.79 380.435 344.331 383.125C345.873 385.815 355.277 407.749 357.556 412.709C359.835 417.669 365.542 423.357 365.001 424.548C364.46 425.739 357.214 433.171 354.645 434.325C352.076 435.479 346.213 437.194 345.38 436.594C344.546 435.994 345.237 434.595 345.237 434.595C345.237 434.595 348.51 431.648 348.901 430.665C349.292 429.682 352.268 423.13 352.126 421.131C351.984 419.132 349.018 414.468 347.385 412.344C345.752 410.22 322.925 380.683 320.155 375.625C317.385 370.566 316.439 365.545 316.439 365.545L308.51 336.872C308.51 336.872 323.761 336.384 336.785 330.794Z" fill="white" stroke="#1E212B" stroke-miterlimit="10" stroke-linecap="round" stroke-linejoin="round"/>
<path d="M316.439 365.545L308.51 336.872C308.51 336.872 323.761 336.384 336.785 330.795L333.975 370.883C333.975 370.883 342.79 380.435 344.332 383.126C345.431 385.044 351.499 398.993 354.583 406.014C352.926 407.694 350.255 409.906 346.611 411.379C342.461 406.268 322.7 380.271 320.156 375.625C317.385 370.566 316.439 365.545 316.439 365.545Z" fill="#1E212B" stroke="#1E212B" stroke-miterlimit="10" stroke-linecap="round" stroke-linejoin="round"/>
<path d="M348.901 430.665C349.236 429.823 351.462 424.904 352.007 422.251C352.329 422.32 352.666 422.407 352.995 422.517C354.304 422.958 355.266 423.61 355.266 423.61C355.266 423.61 358.796 421.859 361.761 419.273C363.665 421.824 365.303 423.884 365.001 424.548C364.46 425.739 357.214 433.171 354.645 434.325C352.076 435.479 346.213 437.194 345.38 436.594C344.546 435.994 345.237 434.595 345.237 434.595C345.237 434.595 348.51 431.648 348.901 430.665Z" fill="#446622" stroke="#1E212B" stroke-miterlimit="10" stroke-linecap="round" stroke-linejoin="round"/>
<path d="M301.833 245.208C301.833 245.208 306.383 253.855 306.849 257.501C307.316 261.148 299.03 271.632 298.262 275.202C297.494 278.771 301.821 291.232 301.772 292.815C301.723 294.397 288.403 331.947 288.403 331.947C288.403 331.947 288.576 336.318 307.442 339.726C326.309 343.133 341.309 331.061 341.309 331.061C341.309 331.061 330.796 298.219 330.449 293.861C330.101 289.503 330.676 274.722 328.162 267.38C325.647 260.038 318.997 251.446 317.827 249.961C316.656 248.475 316.342 246.746 316.273 245.874C316.203 245.003 314.831 238.797 314.831 238.797L301.833 245.208Z" fill="#99BB44" stroke="#1E212B" stroke-miterlimit="10" stroke-linecap="round" stroke-linejoin="round"/>
<path d="M306.85 257.502C306.384 253.855 301.834 245.209 301.834 245.209L314.832 238.798C314.832 238.798 316.204 245.003 316.274 245.875C316.343 246.746 316.656 248.476 317.827 249.961C318.568 250.9 321.495 254.678 324.185 259.185C322.527 257.988 319.771 256.572 316.283 256.94C311.967 257.396 305.117 265.409 301.392 269.077C303.975 264.794 307.143 259.796 306.85 257.502Z" fill="white" stroke="#1E212B" stroke-miterlimit="10" stroke-linecap="round" stroke-linejoin="round"/>
<path d="M294.387 215.471C294.387 215.471 292.46 224.393 292.723 226.15C292.987 227.908 294.254 228.54 293.855 230.503C293.456 232.467 290.754 234.483 290.808 235.22C290.861 235.957 293.739 238.229 293.739 238.229C293.739 238.229 295.419 246.391 296.406 246.898C297.393 247.406 302.39 247.118 304.223 246.216C306.056 245.314 308.273 244.083 308.273 244.083C308.273 244.083 310.48 235.284 310.341 229.658C310.202 224.032 305.296 223.718 302.968 221.547C300.639 219.376 294.963 214.085 294.387 215.471Z" fill="white" stroke="#1E212B" stroke-miterlimit="10" stroke-linecap="round" stroke-linejoin="round"/>
<path d="M300.158 236.802C300.158 236.802 299.148 238.888 296.706 239.555" stroke="#1E212B" stroke-miterlimit="10" stroke-linecap="round" stroke-linejoin="round"/>
<path d="M295.903 229.683C295.959 230.456 296.281 231.058 296.624 231.028C296.965 230.998 297.196 230.348 297.14 229.575C297.084 228.803 296.761 228.201 296.419 228.231C296.078 228.261 295.846 228.91 295.903 229.683Z" fill="black"/>
<path d="M298.304 226.159C298.304 226.159 295.988 224 294.058 225.985" stroke="#1E212B" stroke-miterlimit="10" stroke-linecap="round" stroke-linejoin="round"/>
<path d="M308.483 228.564C308.483 228.564 301.52 225.054 298.567 221.34C295.614 217.627 293.455 215.609 293.604 213.978C293.754 212.346 306.116 205.234 312.477 206.002C318.838 206.77 323.183 209.332 328.027 222.442C332.871 235.552 333.739 241.949 331.435 243.475C329.131 245 320.178 249.166 314.301 249.533C308.425 249.9 306.906 249.297 306.906 249.297C306.906 249.297 310.204 235.622 308.483 228.564Z" fill="#1E212B" stroke="#1E212B" stroke-miterlimit="10" stroke-linecap="round" stroke-linejoin="round"/>
<path d="M334.848 290.296C334.848 290.296 340.744 268.996 338.902 259.925C337.06 250.854 331.79 255.322 330.642 260.143C328.733 268.16 327.54 276.412 326.198 284.537C325.443 289.099 324.654 293.844 324.04 298.499C323.457 302.913 322.234 308.179 324.62 312.272C326.144 314.888 328.759 314.268 330.394 312.134C332.026 310.003 332.232 306.86 332.695 304.296C333.532 299.651 334.226 294.975 334.848 290.296Z" fill="white" stroke="#1E212B" stroke-miterlimit="10" stroke-linecap="round" stroke-linejoin="round"/>
<path d="M331.479 265.864C331.479 265.864 337.133 266.41 337.71 267.642C338.288 268.874 333.96 268.794 331.772 267.822C329.583 266.85 330.205 265.978 331.479 265.864Z" fill="white" stroke="#1E212B" stroke-miterlimit="10" stroke-linecap="round" stroke-linejoin="round"/>
<path d="M329.918 275.819C329.918 275.819 335.571 276.365 336.149 277.597C336.726 278.83 332.398 278.75 330.21 277.778C328.021 276.806 328.644 275.933 329.918 275.819Z" fill="white" stroke="#1E212B" stroke-miterlimit="10" stroke-linecap="round" stroke-linejoin="round"/>
<path d="M328.36 285.774C328.36 285.774 334.014 286.32 334.591 287.553C335.169 288.785 330.841 288.705 328.653 287.733C326.464 286.761 327.086 285.889 328.36 285.774Z" fill="white" stroke="#1E212B" stroke-miterlimit="10" stroke-linecap="round" stroke-linejoin="round"/>
<path d="M326.799 295.731C326.799 295.731 332.452 296.277 333.03 297.509C333.608 298.742 329.28 298.661 327.091 297.69C324.902 296.718 325.525 295.844 326.799 295.731Z" fill="white" stroke="#1E212B" stroke-miterlimit="10" stroke-linecap="round" stroke-linejoin="round"/>
<path d="M343.34 287.481C343.34 287.481 349.873 272.844 350.962 273.34C352.052 273.836 350.984 278.005 350.984 278.005C350.984 278.005 356.132 275.261 357.258 276.221C358.385 277.181 354.313 278.789 354.313 278.789C354.313 278.789 364.849 279.232 365.192 280.605C365.534 281.977 356.622 281.405 356.622 281.405C356.622 281.405 362.584 285.946 362.936 287.434C363.288 288.923 356.686 285.133 356.686 285.133C356.686 285.133 363.435 293.695 361.037 297.269C358.638 300.844 353.148 283.198 353.148 283.198C353.148 283.198 353.323 288.318 352.187 287.242C351.051 286.166 348.877 283.772 348.877 283.772C348.877 283.772 350.675 285.846 349.312 286.305C347.949 286.764 347.091 286.249 347.091 286.249L345.208 288.965L343.34 287.481Z" fill="#446622" stroke="#1E212B" stroke-miterlimit="10" stroke-linecap="round" stroke-linejoin="round"/>
<path d="M341.526 289.941C341.526 289.941 349.543 269.345 348.626 260.135C347.709 250.924 342.015 254.837 340.386 259.518C337.677 267.301 335.657 275.391 333.501 283.338C332.29 287.802 331.026 292.442 329.944 297.012C328.92 301.344 327.171 306.46 329.131 310.773C330.383 313.529 333.047 313.177 334.89 311.218C336.728 309.264 337.251 306.157 337.969 303.653C339.272 299.115 340.434 294.533 341.526 289.941Z" fill="white" stroke="#1E212B" stroke-miterlimit="10" stroke-linecap="round" stroke-linejoin="round"/>
<path d="M340.642 265.293C340.642 265.293 346.211 266.407 346.661 267.691C347.111 268.976 342.814 268.46 340.734 267.271C338.656 266.083 339.363 265.278 340.642 265.293Z" fill="white" stroke="#1E212B" stroke-miterlimit="10" stroke-linecap="round" stroke-linejoin="round"/>
<path d="M338.084 275.04C338.084 275.04 343.653 276.154 344.103 277.439C344.553 278.723 340.256 278.207 338.177 277.018C336.097 275.83 336.805 275.025 338.084 275.04Z" fill="white" stroke="#1E212B" stroke-miterlimit="10" stroke-linecap="round" stroke-linejoin="round"/>
<path d="M335.528 284.787C335.528 284.787 341.097 285.901 341.547 287.185C341.997 288.47 337.7 287.954 335.62 286.766C333.541 285.578 334.249 284.772 335.528 284.787Z" fill="white" stroke="#1E212B" stroke-miterlimit="10" stroke-linecap="round" stroke-linejoin="round"/>
<path d="M332.967 294.534C332.967 294.534 338.536 295.648 338.986 296.933C339.436 298.217 335.139 297.701 333.06 296.512C330.981 295.325 331.688 294.519 332.967 294.534Z" fill="white" stroke="#1E212B" stroke-miterlimit="10" stroke-linecap="round" stroke-linejoin="round"/>
<path d="M348.683 285.977L307.341 292.551C307.341 292.551 307.293 339.881 307.386 343.332C307.48 346.783 305.892 348.044 315.387 347.791C329.609 347.411 347.691 344.305 354.391 341.586C361.091 338.867 362.423 337.305 361.707 335.178C360.992 333.05 348.683 285.977 348.683 285.977Z" fill="#D6D6D6" stroke="#1E212B" stroke-miterlimit="10" stroke-linecap="round" stroke-linejoin="round"/>
<path d="M340.965 287.321C340.965 287.321 324.845 260.939 321.083 259.419C317.322 257.898 311.525 260.545 310.41 264.82C309.295 269.096 310.375 291.762 310.375 291.762L312.53 291.409C312.53 291.409 311.278 266.571 312.523 263.923C313.768 261.275 318.189 259.648 320.641 260.727C323.093 261.806 337.889 287.566 337.889 287.566L340.965 287.321Z" fill="#D6D6D6" stroke="#1E212B" stroke-miterlimit="10" stroke-linecap="round" stroke-linejoin="round"/>
<path d="M305.967 288.706C305.967 288.706 307.956 276.788 310.269 268.928C312.582 261.067 318.496 259.453 322.864 263.024C327.232 266.595 322.554 281.667 319.579 289.416C316.604 297.166 310.311 310.407 308.668 312.334C307.025 314.262 306.064 314.501 304.598 312.495C303.132 310.49 294.997 286.314 294.31 281.796C293.624 277.278 295.365 270.443 296.093 267.282C296.82 264.121 300.092 264.187 301.112 262.635C302.131 261.084 305.027 260.526 305.416 261.312C305.805 262.098 306.609 263.994 306.609 263.994C306.609 263.994 308.148 264.851 307.751 266.025C307.355 267.2 306.096 267.79 305.128 269.991C304.16 272.191 302.79 273.443 302.017 273.995C301.245 274.547 298.261 275.202 298.261 275.202L305.154 292.853L305.967 288.706Z" fill="white" stroke="#1E212B" stroke-miterlimit="10" stroke-linecap="round" stroke-linejoin="round"/>
<path d="M305.158 292.853L303.021 299.306" stroke="#1E212B" stroke-miterlimit="10" stroke-linecap="round" stroke-linejoin="round"/>
<path d="M306.61 263.994C306.61 263.994 306.116 264.202 305.737 264.645C305.359 265.089 303.718 266.564 303.718 266.564" stroke="#1E212B" stroke-miterlimit="10" stroke-linecap="round" stroke-linejoin="round"/>
<path d="M304.672 265.558L303.941 264.168" stroke="#1E212B" stroke-miterlimit="10" stroke-linecap="round" stroke-linejoin="round"/>
<path d="M195.671 440.32L192.535 439.769C192.535 439.769 187.854 436.84 185.459 436.595C183.064 436.349 178.331 436.733 177.213 437.476C176.095 438.219 176.534 439.766 177.585 440.546C178.635 441.326 181.549 442.114 183.929 442.664C186.311 443.215 190.385 443.617 191.398 442.84C192.411 442.064 191.962 441.269 192.827 440.926C193.691 440.583 197.804 440.894 195.671 440.32Z" fill="#99BB44" stroke="#1E212B" stroke-miterlimit="10" stroke-linecap="round" stroke-linejoin="round"/>
<path d="M180.662 440.091C178.533 439.8 178.318 439.955 178.318 439.955Z" fill="#99BB44"/>
<path d="M180.662 440.091C178.533 439.8 178.318 439.955 178.318 439.955" stroke="#1E212B" stroke-width="0.5" stroke-miterlimit="10" stroke-linecap="round" stroke-linejoin="round"/>
<path d="M194.418 440.57C194.418 440.57 184.014 440.47 181.257 440.169Z" fill="#99BB44"/>
<path d="M194.418 440.57C194.418 440.57 184.014 440.47 181.257 440.169" stroke="#1E212B" stroke-width="0.5" stroke-miterlimit="10" stroke-linecap="round" stroke-linejoin="round"/>
<path d="M184.971 437.598C183.846 437.25 183.27 437.107 183.27 437.107Z" fill="#99BB44"/>
<path d="M184.971 437.598C183.846 437.25 183.27 437.107 183.27 437.107" stroke="#1E212B" stroke-width="0.5" stroke-miterlimit="10" stroke-linecap="round" stroke-linejoin="round"/>
<path d="M191.495 439.953C191.495 439.953 190.55 440.037 189.971 439.903C189.415 439.774 187.05 438.316 185.601 437.8" fill="#99BB44"/>
<path d="M191.495 439.953C191.495 439.953 190.55 440.037 189.971 439.903C189.415 439.774 187.05 438.316 185.601 437.8" stroke="#1E212B" stroke-width="0.5" stroke-miterlimit="10" stroke-linecap="round" stroke-linejoin="round"/>
<path d="M182.733 437.72C182.733 437.72 185.252 439.121 185.981 439.487C186.711 439.852 187.232 440.118 187.455 440.139C187.678 440.159 188.849 440.13 188.849 440.13" fill="#99BB44"/>
<path d="M182.733 437.72C182.733 437.72 185.252 439.121 185.981 439.487C186.711 439.852 187.232 440.118 187.455 440.139C187.678 440.159 188.849 440.13 188.849 440.13" stroke="#1E212B" stroke-width="0.5" stroke-miterlimit="10" stroke-linecap="round" stroke-linejoin="round"/>
<path d="M184.208 440.009C184.208 440.009 182.061 438.642 180.95 437.956C179.839 437.269 179.02 437.376 179.02 437.376" fill="#99BB44"/>
<path d="M184.208 440.009C184.208 440.009 182.061 438.642 180.95 437.956C179.839 437.269 179.02 437.376 179.02 437.376" stroke="#1E212B" stroke-width="0.5" stroke-miterlimit="10" stroke-linecap="round" stroke-linejoin="round"/>
<path d="M178.646 438.522C178.856 438.586 179.089 438.669 179.337 438.778C180.293 439.199 181.65 439.897 181.65 439.897" fill="#99BB44"/>
<path d="M178.646 438.522C178.856 438.586 179.089 438.669 179.337 438.778C180.293 439.199 181.65 439.897 181.65 439.897" stroke="#1E212B" stroke-width="0.5" stroke-miterlimit="10" stroke-linecap="round" stroke-linejoin="round"/>
<path d="M177.642 438.323C177.642 438.323 177.743 438.328 177.919 438.355Z" fill="#99BB44"/>
<path d="M177.642 438.323C177.642 438.323 177.743 438.328 177.919 438.355" stroke="#1E212B" stroke-width="0.5" stroke-miterlimit="10" stroke-linecap="round" stroke-linejoin="round"/>
<path d="M187.764 441.693C187.639 441.901 187.475 442.084 187.26 442.18C186.564 442.493 185.495 442.554 185.495 442.554" fill="#99BB44"/>
<path d="M187.764 441.693C187.639 441.901 187.475 442.084 187.26 442.18C186.564 442.493 185.495 442.554 185.495 442.554" stroke="#1E212B" stroke-width="0.5" stroke-miterlimit="10" stroke-linecap="round" stroke-linejoin="round"/>
<path d="M188.126 440.636C188.126 440.636 188.078 440.982 187.93 441.354Z" fill="#99BB44"/>
<path d="M188.126 440.636C188.126 440.636 188.078 440.982 187.93 441.354" stroke="#1E212B" stroke-width="0.5" stroke-miterlimit="10" stroke-linecap="round" stroke-linejoin="round"/>
<path d="M184.061 441.589C183.938 441.682 183.791 441.76 183.619 441.808C182.696 442.065 182.008 442.047 182.008 442.047" fill="#99BB44"/>
<path d="M184.061 441.589C183.938 441.682 183.791 441.76 183.619 441.808C182.696 442.065 182.008 442.047 182.008 442.047" stroke="#1E212B" stroke-width="0.5" stroke-miterlimit="10" stroke-linecap="round" stroke-linejoin="round"/>
<path d="M184.705 440.467C184.705 440.467 184.634 440.936 184.323 441.331Z" fill="#99BB44"/>
<path d="M184.705 440.467C184.705 440.467 184.634 440.936 184.323 441.331" stroke="#1E212B" stroke-width="0.5" stroke-miterlimit="10" stroke-linecap="round" stroke-linejoin="round"/>
<path d="M190.224 442.324C190.08 442.454 189.904 442.563 189.69 442.634Z" fill="#99BB44"/>
<path d="M190.224 442.324C190.08 442.454 189.904 442.563 189.69 442.634" stroke="#1E212B" stroke-width="0.5" stroke-miterlimit="10" stroke-linecap="round" stroke-linejoin="round"/>
<path d="M190.884 440.778C190.884 440.778 190.865 441.474 190.477 442.035Z" fill="#99BB44"/>
<path d="M190.884 440.778C190.884 440.778 190.865 441.474 190.477 442.035" stroke="#1E212B" stroke-width="0.5" stroke-miterlimit="10" stroke-linecap="round" stroke-linejoin="round"/>
<path d="M19.3537 439.207L22.9995 438.548C22.9995 438.548 27.7746 441.349 30.614 440.532C33.4531 439.715 39.3408 436.538 40.9376 434.617C42.5343 432.695 42.4896 430.147 41.457 429.298C40.4244 428.449 37.1253 428.564 34.3994 428.827C31.673 429.089 26.8376 430.508 25.3577 432.435C23.8778 434.362 24.1726 435.554 23.0107 436.624C21.8501 437.694 16.9377 439.296 19.3537 439.207Z" fill="#99BB44" stroke="#1E212B" stroke-miterlimit="10" stroke-linecap="round" stroke-linejoin="round"/>
<path d="M37.5645 431.732C40.0653 431.136 40.3767 430.744 40.3767 430.744Z" fill="#99BB44"/>
<path d="M37.5645 431.732C40.0653 431.136 40.3767 430.744 40.3767 430.744" stroke="#1E212B" stroke-width="0.5" stroke-miterlimit="10" stroke-linecap="round" stroke-linejoin="round"/>
<path d="M20.9585 438.099C20.9585 438.099 33.5998 432.814 36.8629 431.905Z" fill="#99BB44"/>
<path d="M20.9585 438.099C20.9585 438.099 33.5998 432.814 36.8629 431.905" stroke="#1E212B" stroke-width="0.5" stroke-miterlimit="10" stroke-linecap="round" stroke-linejoin="round"/>
<path d="M31.5259 438.473C32.7854 438.507 33.4413 438.463 33.4413 438.463Z" fill="#99BB44"/>
<path d="M31.5259 438.473C32.7854 438.507 33.4413 438.463 33.4413 438.463" stroke="#1E212B" stroke-width="0.5" stroke-miterlimit="10" stroke-linecap="round" stroke-linejoin="round"/>
<path d="M24.3257 437.672C24.3257 437.672 25.5024 437.025 26.1655 436.961C26.8019 436.9 29.2218 438.276 30.8231 438.442" fill="#99BB44"/>
<path d="M24.3257 437.672C24.3257 437.672 25.5024 437.025 26.1655 436.961C26.8019 436.9 29.2218 438.276 30.8231 438.442" stroke="#1E212B" stroke-width="0.5" stroke-miterlimit="10" stroke-linecap="round" stroke-linejoin="round"/>
<path d="M34.2907 437.078C34.2907 437.078 31.6662 435.885 30.8932 435.612C30.1203 435.339 29.5694 435.136 29.3043 435.216C29.0397 435.296 27.604 435.963 27.604 435.963" fill="#99BB44"/>
<path d="M34.2907 437.078C34.2907 437.078 31.6662 435.885 30.8932 435.612C30.1203 435.339 29.5694 435.136 29.3043 435.216C29.0397 435.296 27.604 435.963 27.604 435.963" stroke="#1E212B" stroke-width="0.5" stroke-miterlimit="10" stroke-linecap="round" stroke-linejoin="round"/>
<path d="M33.2182 433.743C33.2182 433.743 35.4009 435.069 36.537 435.719C37.6727 436.369 38.7044 435.746 38.7044 435.746" fill="#99BB44"/>
<path d="M33.2182 433.743C33.2182 433.743 35.4009 435.069 36.537 435.719C37.6727 436.369 38.7044 435.746 38.7044 435.746" stroke="#1E212B" stroke-width="0.5" stroke-miterlimit="10" stroke-linecap="round" stroke-linejoin="round"/>
<path d="M39.5229 433.49C39.2872 433.486 39.0296 433.46 38.762 433.394C37.7305 433.141 36.2983 432.6 36.2983 432.6" fill="#99BB44"/>
<path d="M39.5229 433.49C39.2872 433.486 39.0296 433.46 38.762 433.394C37.7305 433.141 36.2983 432.6 36.2983 432.6" stroke="#1E212B" stroke-width="0.5" stroke-miterlimit="10" stroke-linecap="round" stroke-linejoin="round"/>
<path d="M40.6829 433.321C40.6829 433.321 40.5612 433.365 40.355 433.409Z" fill="#99BB44"/>
<path d="M40.6829 433.321C40.6829 433.321 40.5612 433.365 40.355 433.409" stroke="#1E212B" stroke-width="0.5" stroke-miterlimit="10" stroke-linecap="round" stroke-linejoin="round"/>
<path d="M29.4194 432.586C29.6372 432.147 29.8953 431.732 30.187 431.447C31.1343 430.519 32.4561 429.848 32.4561 429.848" fill="#99BB44"/>
<path d="M29.4194 432.586C29.6372 432.147 29.8953 431.732 30.187 431.447C31.1343 430.519 32.4561 429.848 32.4561 429.848" stroke="#1E212B" stroke-width="0.5" stroke-miterlimit="10" stroke-linecap="round" stroke-linejoin="round"/>
<path d="M28.6442 434.676C28.6442 434.676 28.8118 434.029 29.1106 433.282Z" fill="#99BB44"/>
<path d="M28.6442 434.676C28.6442 434.676 28.8118 434.029 29.1106 433.282" stroke="#1E212B" stroke-width="0.5" stroke-miterlimit="10" stroke-linecap="round" stroke-linejoin="round"/>
<path d="M33.8984 430.827C34.0784 430.595 34.2808 430.379 34.506 430.202C35.7124 429.255 36.5438 428.926 36.5438 428.926" fill="#99BB44"/>
<path d="M33.8984 430.827C34.0784 430.595 34.2808 430.379 34.506 430.202C35.7124 429.255 36.5438 428.926 36.5438 428.926" stroke="#1E212B" stroke-width="0.5" stroke-miterlimit="10" stroke-linecap="round" stroke-linejoin="round"/>
<path d="M32.7582 433.182C32.7582 433.182 32.9929 432.301 33.4973 431.429Z" fill="#99BB44"/>
<path d="M32.7582 433.182C32.7582 433.182 32.9929 432.301 33.4973 431.429" stroke="#1E212B" stroke-width="0.5" stroke-miterlimit="10" stroke-linecap="round" stroke-linejoin="round"/>
<path d="M26.624 432.746C26.8412 432.436 27.0896 432.148 27.3731 431.907Z" fill="#99BB44"/>
<path d="M26.624 432.746C26.8412 432.436 27.0896 432.148 27.3731 431.907" stroke="#1E212B" stroke-width="0.5" stroke-miterlimit="10" stroke-linecap="round" stroke-linejoin="round"/>
<path d="M25.3295 435.87C25.3295 435.87 25.5742 434.608 26.224 433.398Z" fill="#99BB44"/>
<path d="M25.3295 435.87C25.3295 435.87 25.5742 434.608 26.224 433.398" stroke="#1E212B" stroke-width="0.5" stroke-miterlimit="10" stroke-linecap="round" stroke-linejoin="round"/>
<path d="M425.778 435.151L429.627 434.702C429.627 434.702 434.703 437.8 437.698 437.145C440.692 436.49 446.889 433.64 448.559 431.8C450.23 429.96 450.159 427.394 449.059 426.48C447.959 425.565 444.471 425.487 441.591 425.591C438.71 425.695 433.61 426.838 432.063 428.69C430.516 430.542 430.839 431.758 429.621 432.767C428.403 433.775 423.224 435.099 425.778 435.151Z" fill="#446622" stroke="#1E212B" stroke-miterlimit="10" stroke-linecap="round" stroke-linejoin="round"/>
<path d="M444.965 428.7C447.604 428.247 447.93 427.871 447.93 427.871" stroke="#1E212B" stroke-width="0.5" stroke-miterlimit="10" stroke-linecap="round" stroke-linejoin="round"/>
<path d="M427.465 434.13C427.465 434.13 440.784 429.555 444.226 428.833" stroke="#1E212B" stroke-width="0.5" stroke-miterlimit="10" stroke-linecap="round" stroke-linejoin="round"/>
<path d="M438.643 435.127C439.975 435.236 440.669 435.229 440.669 435.229" stroke="#1E212B" stroke-width="0.5" stroke-miterlimit="10" stroke-linecap="round" stroke-linejoin="round"/>
<path d="M431.021 433.898C431.021 433.898 432.259 433.316 432.96 433.291C433.632 433.267 436.204 434.793 437.899 435.054" stroke="#1E212B" stroke-width="0.5" stroke-miterlimit="10" stroke-linecap="round" stroke-linejoin="round"/>
<path d="M441.554 433.886C441.554 433.886 438.767 432.532 437.947 432.212C437.127 431.892 436.543 431.655 436.263 431.72C435.984 431.785 434.472 432.371 434.472 432.371" stroke="#1E212B" stroke-width="0.5" stroke-miterlimit="10" stroke-linecap="round" stroke-linejoin="round"/>
<path d="M440.387 430.468C440.387 430.468 442.708 431.93 443.915 432.65C445.123 433.371 446.208 432.805 446.208 432.805" stroke="#1E212B" stroke-width="0.5" stroke-miterlimit="10" stroke-linecap="round" stroke-linejoin="round"/>
<path d="M447.053 430.583C446.804 430.566 446.531 430.523 446.247 430.442C445.154 430.127 443.635 429.498 443.635 429.498" stroke="#1E212B" stroke-width="0.5" stroke-miterlimit="10" stroke-linecap="round" stroke-linejoin="round"/>
<path d="M448.278 430.481C448.278 430.481 448.149 430.519 447.932 430.551" stroke="#1E212B" stroke-width="0.5" stroke-miterlimit="10" stroke-linecap="round" stroke-linejoin="round"/>
<path d="M436.361 429.081C436.587 428.652 436.856 428.25 437.162 427.98C438.155 427.102 439.546 426.504 439.546 426.504" stroke="#1E212B" stroke-width="0.5" stroke-miterlimit="10" stroke-linecap="round" stroke-linejoin="round"/>
<path d="M435.559 431.137C435.559 431.137 435.731 430.496 436.04 429.763" stroke="#1E212B" stroke-width="0.5" stroke-miterlimit="10" stroke-linecap="round" stroke-linejoin="round"/>
<path d="M441.08 427.574C441.268 427.351 441.48 427.146 441.717 426.981C442.984 426.099 443.86 425.817 443.86 425.817" stroke="#1E212B" stroke-width="0.5" stroke-miterlimit="10" stroke-linecap="round" stroke-linejoin="round"/>
<path d="M439.896 429.876C439.896 429.876 440.136 429.004 440.662 428.156" stroke="#1E212B" stroke-width="0.5" stroke-miterlimit="10" stroke-linecap="round" stroke-linejoin="round"/>
<path d="M433.406 429.077C433.633 428.778 433.893 428.503 434.19 428.277" stroke="#1E212B" stroke-width="0.5" stroke-miterlimit="10" stroke-linecap="round" stroke-linejoin="round"/>
<path d="M432.065 432.144C432.065 432.144 432.312 430.889 432.988 429.71" stroke="#1E212B" stroke-width="0.5" stroke-miterlimit="10" stroke-linecap="round" stroke-linejoin="round"/>
<path d="M331.695 52.5634L335.254 51.4295C335.401 51.3827 335.478 51.2197 335.424 51.0658C335.371 50.912 335.207 50.8255 335.061 50.8723L332.01 51.8448C332.445 50.8629 332.894 49.9182 333.352 49.0138L337.229 47.9416C337.378 47.9004 337.46 47.7405 337.413 47.5853C337.364 47.4298 337.203 47.3398 337.056 47.3782L333.715 48.3019C334.307 47.1682 334.907 46.1058 335.5 45.1129C335.511 45.1104 335.522 45.1097 335.533 45.1054L338.706 43.8416C338.85 43.7845 338.915 43.6162 338.852 43.4661C338.788 43.3157 338.62 43.2405 338.478 43.2969L336.004 44.2818C337.524 41.8215 338.96 39.8651 340.028 38.5115C339.982 40.5235 339.753 46.276 338.603 49.519C337.365 53.012 331.853 55.066 330.533 55.5134C330.9 54.4985 331.289 53.5134 331.695 52.5634Z" fill="#446622"/>
<path d="M336.333 42.6705L336.366 40.6582C336.369 40.4978 336.244 40.3588 336.088 40.348C335.931 40.3347 335.802 40.4579 335.799 40.6188L335.751 43.4926C335.75 43.5165 335.758 43.5383 335.763 43.5607C335.054 44.6902 334.325 45.9311 333.602 47.2718L332.753 44.1023C332.711 43.9456 332.555 43.8456 332.403 43.8817C332.252 43.9169 332.164 44.0725 332.206 44.2296L333.17 47.8281C333.183 47.8763 333.209 47.9158 333.24 47.9511C332.612 49.1503 331.995 50.4274 331.406 51.7706L330.468 48.3315C330.425 48.1749 330.27 48.0775 330.118 48.1123C329.967 48.1486 329.88 48.3043 329.922 48.4615L331.01 52.4498C331.021 52.4903 331.04 52.5276 331.066 52.5603C330.715 53.3934 330.376 54.2517 330.053 55.1323C329.458 53.5376 327.836 48.2223 330.748 43.9464C333.812 39.4481 338.708 38.0955 339.809 37.8408C338.896 38.9842 337.67 40.6159 336.333 42.6705Z" fill="#446622"/>
<path d="M62.9084 98.8716L63.7849 95.5228C63.8213 95.3843 63.6741 95.2637 63.4565 95.2539C63.2388 95.2441 63.0325 95.3496 62.9968 95.487L62.2459 98.358C61.3431 97.6531 60.4937 96.9496 59.6981 96.2529L60.8482 92.6621C60.8927 92.5238 60.7525 92.4001 60.5367 92.3851C60.3202 92.3706 60.1111 92.4729 60.0648 92.6084L59.0739 95.7019C58.0879 94.8136 57.1924 93.9436 56.3755 93.1039C56.3794 93.094 56.3857 93.0844 56.3871 93.0742L56.866 89.9996C56.8878 89.8605 56.7269 89.7478 56.5078 89.7472C56.2878 89.7472 56.0919 89.8607 56.0707 89.9977L55.6971 92.3942C53.705 90.2714 52.2639 88.3946 51.3132 87.0348C53.6938 87.7781 60.438 89.9856 63.5997 92.0757C67.0052 94.3271 66.0046 99.6175 65.7114 100.869C64.7268 100.209 63.7915 99.5407 62.9084 98.8716Z" fill="#446622"/>
<path d="M53.9739 91.5563L51.5853 90.8228C51.3951 90.7642 51.15 90.8193 51.039 90.945C50.9248 91.0701 50.9911 91.2206 51.1821 91.2792L54.593 92.327C54.6213 92.3358 54.652 92.3373 54.6822 92.3409C55.5897 93.3247 56.6178 94.3644 57.7697 95.4336L53.4411 95.0265C53.2273 95.0063 53.0093 95.1008 52.9576 95.2388C52.905 95.3764 53.0359 95.5041 53.2506 95.5242L58.1646 95.9869C58.2304 95.993 58.2941 95.9853 58.3557 95.9722C59.3975 96.9133 60.5394 97.8726 61.778 98.832L57.0712 98.4037C56.8566 98.3846 56.6427 98.4788 56.5886 98.6175C56.5376 98.755 56.6693 98.882 56.8839 98.9022L62.3426 99.3989C62.3979 99.404 62.4548 99.4009 62.5102 99.391C63.2874 99.9741 64.1024 100.556 64.9539 101.133C62.671 101.067 55.2881 100.548 51.9962 96.6338C48.5329 92.5163 49.987 87.9822 50.373 86.9802C51.1687 88.1384 52.3529 89.7273 53.9739 91.5563Z" fill="#446622"/>
<path d="M388.944 99.3376L392.31 100.147C392.449 100.181 392.567 100.031 392.572 99.8136C392.578 99.5958 392.468 99.3916 392.33 99.3586L389.445 98.665C390.131 97.7484 390.818 96.8852 391.499 96.0759L395.112 97.1543C395.251 97.196 395.372 97.0534 395.382 96.8374C395.393 96.6206 395.286 96.4136 395.15 96.37L392.037 95.4408C392.906 94.4374 393.758 93.5247 394.581 92.6913C394.591 92.695 394.601 92.7011 394.611 92.7023L397.694 93.1199C397.834 93.139 397.943 92.9759 397.94 92.7567C397.935 92.5369 397.818 92.3432 397.681 92.3248L395.277 91.9989C397.36 89.965 399.208 88.4868 400.548 87.5092C399.852 89.9042 397.779 96.6909 395.753 99.8936C393.569 103.343 388.26 102.448 387.003 102.18C387.644 101.182 388.293 100.234 388.944 99.3376Z" fill="#99BB44"/>
<path d="M396.08 90.2598L396.766 87.8571C396.821 87.6657 396.761 87.4218 396.633 87.3133C396.505 87.2016 396.356 87.2709 396.302 87.463L395.322 90.8941C395.314 90.9225 395.313 90.9533 395.31 90.9836C394.344 91.9104 393.325 92.959 392.279 94.1319L392.6 89.7961C392.616 89.5819 392.517 89.3659 392.378 89.3169C392.239 89.2671 392.114 89.4005 392.098 89.6155L391.734 94.5378C391.729 94.6037 391.738 94.6672 391.752 94.7285C390.832 95.7889 389.896 96.9496 388.961 98.2071L389.296 93.4927C389.31 93.2778 389.212 93.0658 389.072 93.0145C388.934 92.9662 388.809 93.1004 388.793 93.3154L388.405 98.7828C388.401 98.8382 388.406 98.895 388.417 98.9502C387.849 99.7389 387.283 100.565 386.724 101.428C386.744 99.1443 387.116 91.7526 390.964 88.3835C395.012 84.839 399.574 86.2026 400.584 86.5686C399.441 87.3872 397.876 88.6027 396.08 90.2598Z" fill="#99BB44"/>
<path d="M331.238 314.799C331.454 314.52 331.672 314.228 331.884 313.931C332.101 313.627 332.308 313.294 332.498 312.942L332.658 312.647L332.411 312.42C332.221 312.246 332.014 312.071 331.794 311.9C331.579 311.734 331.356 311.564 331.124 311.392L330.435 310.882C330.207 310.713 329.988 310.548 329.781 310.391C329.641 310.282 329.506 310.179 329.375 310.08C329.244 309.981 329.114 309.885 328.984 309.79L328.72 309.599L328.463 309.801C328.367 309.877 328.275 309.975 328.19 310.092C328.124 310.182 328.059 310.274 327.994 310.368C327.936 310.453 327.876 310.536 327.813 310.618C327.761 310.685 327.713 310.74 327.667 310.782L327.323 311.099L327.666 311.416C327.817 311.555 328.002 311.708 328.215 311.87L328.327 311.955C327.514 312.068 326.65 312.192 326.512 312.214C325.2 312.421 324.181 312.947 323.533 313.907C322.886 314.868 322.822 315.915 323.031 317.234C323.079 317.539 323.13 317.837 323.163 318.129L323.238 318.606C323.358 319.28 323.461 319.993 323.547 320.746C323.632 321.5 323.717 322.229 323.802 322.935C323.883 323.276 324.133 324.451 324.944 325.259C326.019 326.331 327.65 326.459 328.334 326.351L328.672 326.297C328.817 326.274 330.107 326.067 330.272 326.034C330.436 326.001 330.55 325.925 330.612 325.807C330.586 325.472 330.537 325.093 330.463 324.67C330.389 324.247 330.338 323.862 330.31 323.513L330.294 323.413L330.275 323.417C329.875 323.466 328.636 323.604 327.89 323.356C327.351 323.178 326.983 322.944 326.73 322.549C326.483 322.018 326.452 321.348 326.375 320.736C326.299 320.124 326.208 319.534 326.105 318.967C326.083 318.658 326.064 318.345 326.048 318.029C326.032 317.712 326.03 317.383 326.044 317.042C326.043 316.947 326.046 316.858 326.053 316.775C326.061 316.693 326.071 316.603 326.082 316.506C326.136 316.01 326.22 315.711 326.44 315.395C326.607 315.156 326.941 314.938 327.161 314.853C327.39 314.764 328.087 314.63 328.761 314.507C328.584 314.736 328.404 314.958 328.218 315.166L327.883 315.539L328.303 315.814L328.65 316.056C328.661 316.065 328.674 316.075 328.685 316.085C328.719 316.115 328.771 316.155 328.844 316.202C328.891 316.234 328.955 316.276 329.034 316.33C329.119 316.389 329.233 316.462 329.374 316.55L329.73 316.752L329.965 316.418C330.155 316.146 330.36 315.879 330.572 315.623C330.796 315.354 331.017 315.079 331.236 314.798L331.238 314.799Z" fill="#446622"/>
<path d="M340.628 314.112C340.548 313.772 340.297 312.597 339.487 311.789C338.412 310.717 336.781 310.588 336.097 310.697L335.759 310.75C335.614 310.773 334.323 310.981 334.159 311.014C333.994 311.046 333.881 311.122 333.818 311.241C333.844 311.576 333.894 311.955 333.968 312.378C334.042 312.8 334.092 313.186 334.121 313.534L334.136 313.634L334.156 313.631C334.555 313.581 335.795 313.444 336.54 313.691C337.08 313.87 337.448 314.103 337.7 314.498C337.947 315.029 337.979 315.699 338.055 316.312C338.132 316.924 338.222 317.514 338.325 318.081C338.347 318.389 338.366 318.702 338.383 319.019C338.399 319.335 338.4 319.664 338.386 320.006C338.388 320.1 338.385 320.189 338.377 320.272C338.37 320.355 338.36 320.444 338.349 320.541C338.294 321.037 338.211 321.337 337.991 321.652C337.823 321.892 337.489 322.109 337.269 322.195C337.041 322.283 336.343 322.417 335.67 322.54C335.846 322.311 336.026 322.089 336.213 321.882L336.548 321.508L336.128 321.233L335.776 320.988C335.766 320.98 335.755 320.971 335.745 320.962C335.711 320.932 335.658 320.892 335.588 320.846C335.539 320.814 335.475 320.771 335.397 320.718C335.312 320.659 335.198 320.585 335.056 320.497L334.7 320.295L334.466 320.629C334.275 320.901 334.071 321.168 333.858 321.424C333.634 321.693 333.413 321.968 333.194 322.249C332.973 322.534 332.756 322.826 332.548 323.117C332.331 323.421 332.124 323.754 331.934 324.106L331.774 324.401L332.021 324.628C332.21 324.802 332.418 324.977 332.638 325.148C332.852 325.314 333.076 325.483 333.308 325.656L333.996 326.166C334.224 326.335 334.444 326.5 334.651 326.657C334.791 326.766 334.926 326.869 335.057 326.968C335.188 327.067 335.318 327.163 335.448 327.258L335.711 327.449L335.967 327.248C336.063 327.173 336.156 327.074 336.242 326.956C336.307 326.866 336.373 326.774 336.437 326.68C336.495 326.595 336.556 326.512 336.619 326.43C336.67 326.362 336.719 326.307 336.764 326.266L337.109 325.95L336.765 325.632C336.615 325.493 336.43 325.34 336.216 325.177C336.181 325.151 336.14 325.12 336.105 325.093C336.917 324.98 337.781 324.855 337.919 324.834C339.232 324.627 340.251 324.101 340.898 323.14C341.545 322.179 341.609 321.132 341.4 319.814C341.352 319.509 341.301 319.211 341.268 318.918L341.193 318.441C341.073 317.768 340.97 317.054 340.884 316.301C340.799 315.548 340.714 314.818 340.629 314.112L340.628 314.112Z" fill="#99BB44"/>
</svg>
